<svg width="100" height="35" viewBox="0 0 100 35" fill="none" xmlns="http://www.w3.org/2000/svg">
<rect width="100" height="35" rx="17.5" fill="#56C3C5"/>
<path d="M29.3665 22.095C29.1675 22.095 29.0136 22.0407 28.9051 21.9322C28.7965 21.8145 28.7422 21.6517 28.7422 21.4435V13.0694C28.7422 12.8613 28.7965 12.703 28.9051 12.5944C29.0227 12.4858 29.181 12.4315 29.3801 12.4315H32.6103C33.6418 12.4315 34.4335 12.6758 34.9855 13.1644C35.5464 13.644 35.8269 14.3271 35.8269 15.2139C35.8269 15.7929 35.7003 16.2906 35.4469 16.7068C35.1936 17.114 34.8271 17.4261 34.3476 17.6433C33.868 17.8605 33.2889 17.969 32.6103 17.969L32.746 17.779H33.0446C33.4065 17.779 33.7187 17.8695 33.9811 18.0505C34.2526 18.2314 34.4923 18.521 34.7004 18.9191L35.9491 21.2128C36.0305 21.3576 36.0667 21.4978 36.0577 21.6336C36.0486 21.7693 35.9989 21.8824 35.9084 21.9729C35.8179 22.0543 35.6867 22.095 35.5148 22.095C35.3338 22.095 35.189 22.0588 35.0805 21.9864C34.9719 21.905 34.8769 21.7874 34.7954 21.6336L33.3296 18.9462C33.1306 18.5662 32.9044 18.3174 32.651 18.1998C32.3977 18.0731 32.0584 18.0097 31.6331 18.0097H30.0044V21.4435C30.0044 21.6517 29.9501 21.8145 29.8415 21.9322C29.742 22.0407 29.5837 22.095 29.3665 22.095ZM30.0044 17.0325H32.4067C33.1306 17.0325 33.6735 16.8832 34.0354 16.5847C34.3973 16.277 34.5783 15.8291 34.5783 15.241C34.5783 14.6529 34.3973 14.2095 34.0354 13.9109C33.6735 13.6123 33.1306 13.463 32.4067 13.463H30.0044V17.0325Z" fill="white"/>
<path d="M40.6062 22.1222C39.8914 22.1222 39.2761 21.9864 38.7604 21.715C38.2537 21.4345 37.8601 21.0409 37.5796 20.5342C37.2991 20.0185 37.1588 19.4122 37.1588 18.7155C37.1588 18.0278 37.2946 17.4261 37.566 16.9104C37.8465 16.3946 38.2265 15.992 38.7061 15.7025C39.1947 15.4129 39.7511 15.2681 40.3755 15.2681C40.8188 15.2681 41.217 15.345 41.5698 15.4989C41.9318 15.6436 42.2394 15.8563 42.4928 16.1368C42.7461 16.4173 42.9361 16.7611 43.0628 17.1683C43.1985 17.5664 43.2664 18.0188 43.2664 18.5255C43.2664 18.6703 43.2211 18.7834 43.1307 18.8648C43.0492 18.9372 42.9271 18.9734 42.7642 18.9734H38.1225V18.1862H42.452L42.2213 18.3762C42.2213 17.9057 42.1489 17.5076 42.0042 17.1818C41.8684 16.8471 41.6648 16.5937 41.3934 16.4218C41.131 16.2499 40.8007 16.1639 40.4026 16.1639C39.9683 16.1639 39.5973 16.268 39.2897 16.4761C38.982 16.6751 38.7468 16.9602 38.5839 17.3311C38.4211 17.6931 38.3396 18.1138 38.3396 18.5934V18.6748C38.3396 19.4891 38.5342 20.1044 38.9232 20.5206C39.3123 20.9368 39.8733 21.145 40.6062 21.145C40.8957 21.145 41.1898 21.1088 41.4884 21.0364C41.796 20.964 42.0901 20.8328 42.3706 20.6428C42.5063 20.5613 42.6285 20.5252 42.7371 20.5342C42.8547 20.5342 42.9497 20.5704 43.0221 20.6428C43.0945 20.7061 43.1397 20.7876 43.1578 20.8871C43.1759 20.9776 43.1623 21.0771 43.1171 21.1857C43.0718 21.2943 42.9859 21.3893 42.8592 21.4707C42.5606 21.6788 42.2032 21.8417 41.787 21.9593C41.3798 22.0679 40.9862 22.1222 40.6062 22.1222Z" fill="white"/>
<path d="M45.4132 22.095C45.2232 22.095 45.0739 22.0407 44.9654 21.9322C44.8568 21.8236 44.8025 21.6652 44.8025 21.4571V15.9196C44.8025 15.7115 44.8568 15.5577 44.9654 15.4582C45.0739 15.3496 45.2232 15.2953 45.4132 15.2953C45.6033 15.2953 45.748 15.3496 45.8476 15.4582C45.9561 15.5577 46.0104 15.7115 46.0104 15.9196V17.0325L45.8611 16.829C46.0511 16.3132 46.3588 15.9241 46.784 15.6617C47.2184 15.3993 47.7115 15.2681 48.2634 15.2681C48.7973 15.2681 49.2361 15.3631 49.58 15.5532C49.9238 15.7432 50.1817 16.0327 50.3536 16.4218C50.5255 16.8109 50.6114 17.304 50.6114 17.9012V21.4571C50.6114 21.6652 50.5572 21.8236 50.4486 21.9322C50.349 22.0407 50.1998 22.095 50.0007 22.095C49.8016 22.095 49.6478 22.0407 49.5392 21.9322C49.4307 21.8236 49.3764 21.6652 49.3764 21.4571V17.969C49.3764 17.3809 49.2633 16.9511 49.0371 16.6797C48.8109 16.4082 48.4489 16.2725 47.9513 16.2725C47.3722 16.2725 46.9062 16.4535 46.5533 16.8154C46.2095 17.1683 46.0376 17.6478 46.0376 18.2541V21.4571C46.0376 21.8824 45.8295 22.095 45.4132 22.095Z" fill="white"/>
<path d="M55.3111 22.1222C54.7772 22.1222 54.3293 22.0272 53.9674 21.8371C53.6145 21.6471 53.3476 21.3712 53.1666 21.0092C52.9947 20.6473 52.9088 20.2039 52.9088 19.6791V16.3404H52.0401C51.8773 16.3404 51.7506 16.2996 51.6601 16.2182C51.5696 16.1277 51.5244 16.0101 51.5244 15.8653C51.5244 15.7115 51.5696 15.5939 51.6601 15.5124C51.7506 15.431 51.8773 15.3903 52.0401 15.3903H52.9088V13.9109C52.9088 13.7028 52.9631 13.549 53.0716 13.4494C53.1802 13.3409 53.334 13.2866 53.5331 13.2866C53.7322 13.2866 53.8815 13.3409 53.981 13.4494C54.0896 13.549 54.1439 13.7028 54.1439 13.9109V15.3903H55.7861C55.958 15.3903 56.0892 15.431 56.1797 15.5124C56.2702 15.5939 56.3154 15.7115 56.3154 15.8653C56.3154 16.0101 56.2702 16.1277 56.1797 16.2182C56.0892 16.2996 55.958 16.3404 55.7861 16.3404H54.1439V19.5706C54.1439 20.0682 54.2479 20.4437 54.456 20.6971C54.6641 20.9504 55.008 21.0771 55.4875 21.0771C55.6594 21.0771 55.8042 21.0635 55.9218 21.0364C56.0395 21.0002 56.1435 20.9821 56.234 20.9821C56.3154 20.973 56.3833 21.0002 56.4376 21.0635C56.5009 21.1269 56.5326 21.2445 56.5326 21.4164C56.5326 21.5431 56.51 21.6607 56.4647 21.7693C56.4285 21.8688 56.3516 21.9367 56.234 21.9729C56.1254 22.0091 55.9806 22.0407 55.7997 22.0679C55.6187 22.1041 55.4558 22.1222 55.3111 22.1222Z" fill="white"/>
<path d="M61.7191 22.095C61.5382 22.095 61.3934 22.0407 61.2848 21.9322C61.1853 21.8236 61.1355 21.6743 61.1355 21.4843V12.9744C61.1355 12.7663 61.1853 12.608 61.2848 12.4994C61.3843 12.3908 61.5155 12.3365 61.6784 12.3365C61.8322 12.3365 61.9499 12.3637 62.0313 12.418C62.1127 12.4722 62.2032 12.5672 62.3027 12.703L68.0574 20.3306H67.7181V12.9473C67.7181 12.7482 67.7679 12.5989 67.8674 12.4994C67.976 12.3908 68.1253 12.3365 68.3153 12.3365C68.5053 12.3365 68.6501 12.3908 68.7496 12.4994C68.8491 12.5989 68.8989 12.7482 68.8989 12.9473V21.4843C68.8989 21.6743 68.8491 21.8236 68.7496 21.9322C68.6591 22.0407 68.537 22.095 68.3831 22.095C68.2384 22.095 68.1162 22.0634 68.0167 22C67.9262 21.9457 67.8312 21.8507 67.7317 21.715L61.9906 14.0873H62.3027V21.4843C62.3027 21.6743 62.253 21.8236 62.1534 21.9322C62.0539 22.0407 61.9091 22.095 61.7191 22.095Z" fill="white"/>
<path d="M73.8421 22.1222C73.1906 22.1222 72.6251 21.9819 72.1455 21.7014C71.666 21.4209 71.295 21.0228 71.0326 20.5071C70.7702 19.9913 70.639 19.3851 70.639 18.6884C70.639 18.1636 70.7114 17.6931 70.8562 17.2768C71.01 16.8516 71.2271 16.4896 71.5076 16.1911C71.7881 15.8925 72.1229 15.6663 72.512 15.5124C72.9101 15.3496 73.3535 15.2681 73.8421 15.2681C74.4935 15.2681 75.0591 15.4084 75.5386 15.6889C76.0182 15.9694 76.3891 16.3675 76.6515 16.8832C76.9139 17.3899 77.0451 17.9917 77.0451 18.6884C77.0451 19.2132 76.9682 19.6882 76.8144 20.1135C76.6696 20.5387 76.457 20.9007 76.1765 21.1992C75.896 21.4978 75.5567 21.7286 75.1586 21.8914C74.7695 22.0453 74.3307 22.1222 73.8421 22.1222ZM73.8421 21.145C74.2402 21.145 74.584 21.05 74.8736 20.8599C75.1722 20.6699 75.3984 20.394 75.5522 20.032C75.7151 19.6701 75.7965 19.2222 75.7965 18.6884C75.7965 17.8921 75.62 17.2859 75.2672 16.8697C74.9143 16.4535 74.4393 16.2453 73.8421 16.2453C73.453 16.2453 73.1092 16.3404 72.8106 16.5304C72.521 16.7113 72.2948 16.9828 72.132 17.3447C71.9691 17.7066 71.8877 18.1545 71.8877 18.6884C71.8877 19.4846 72.0641 20.0954 72.417 20.5206C72.7789 20.9368 73.2539 21.145 73.8421 21.145Z" fill="white"/>
<path d="M80.8693 22.095C80.6973 22.095 80.548 22.0543 80.4214 21.9729C80.2947 21.8824 80.1952 21.7376 80.1228 21.5386L78.1005 16.1503C78.0372 15.9784 78.0191 15.8291 78.0462 15.7025C78.0734 15.5758 78.1367 15.4762 78.2362 15.4039C78.3358 15.3315 78.467 15.2953 78.6298 15.2953C78.7836 15.2953 78.9058 15.3315 78.9963 15.4039C79.0868 15.4762 79.1637 15.6074 79.227 15.7975L81.0728 21.0092H80.7471L82.6472 15.7703C82.7106 15.6074 82.792 15.4898 82.8915 15.4174C83.0001 15.336 83.1313 15.2953 83.2851 15.2953C83.448 15.2953 83.5837 15.336 83.6923 15.4174C83.8009 15.4898 83.8778 15.6074 83.923 15.7703L85.796 21.0092H85.4838L87.3568 15.7703C87.4202 15.5894 87.5016 15.4672 87.6011 15.4039C87.7007 15.3315 87.8228 15.2953 87.9676 15.2953C88.1305 15.2953 88.2526 15.336 88.334 15.4174C88.4155 15.4989 88.4607 15.6074 88.4698 15.7432C88.4879 15.8698 88.4698 16.0056 88.4155 16.1503L86.3932 21.5386C86.3299 21.7286 86.2303 21.8688 86.0946 21.9593C85.9679 22.0498 85.8186 22.095 85.6467 22.095C85.4748 22.095 85.321 22.0498 85.1853 21.9593C85.0586 21.8688 84.959 21.7286 84.8867 21.5386L82.9458 16.2182H83.5701L81.6293 21.5386C81.5569 21.7286 81.4574 21.8688 81.3307 21.9593C81.204 22.0498 81.0502 22.095 80.8693 22.095Z" fill="white"/>
<path d="M13.7208 13.9124C13.7236 13.9549 13.7267 13.9794 13.7267 14.004C13.7273 15.0491 13.7277 16.0944 13.7283 17.1396C13.7285 17.4155 13.7238 17.6914 13.7297 17.9671C13.7411 18.5077 13.8706 19.0146 14.1836 19.4641C14.4826 19.8939 14.8643 20.2217 15.3642 20.397C15.5535 20.4634 15.7494 20.5042 15.9507 20.5127C16.1029 20.5191 16.1029 20.5187 16.1029 20.6711C16.1029 20.7552 16.1043 20.8392 16.1023 20.9233C16.1013 20.9629 16.116 20.9762 16.1554 20.975C16.2823 20.9708 16.4092 20.9667 16.5363 20.9671C16.6523 20.9676 16.7685 20.9746 16.8846 20.9772C17.035 20.9806 17.1663 20.9291 17.2645 20.8163C17.3363 20.7337 17.4135 20.7226 17.5122 20.7494C17.7612 20.8165 18.011 20.8811 18.2617 20.942C18.3939 20.9742 18.5288 20.985 18.6653 20.9659C18.7064 20.9601 18.7064 20.9374 18.7064 20.908C18.706 20.8047 18.7084 20.7011 18.7052 20.5977C18.7036 20.5466 18.7172 20.5255 18.7725 20.5235C19.2373 20.5066 19.6584 20.3588 20.0355 20.0887C20.4035 19.8251 20.6647 19.474 20.8527 19.0659C21.0235 18.6957 21.085 18.3031 21.085 17.8983C21.0848 15.8833 21.0848 13.8684 21.0848 11.8534C21.0848 11.8282 21.0848 11.8029 21.0848 11.7701C21.1148 11.7701 21.1377 11.7701 21.1608 11.7701C22.0163 11.7701 22.8718 11.7701 23.7271 11.7701C23.8168 11.7701 23.8253 11.781 23.8148 11.8735C23.8116 11.9012 23.8126 11.9294 23.8126 11.9573C23.8122 13.8107 23.812 15.6641 23.8116 17.5172C23.8116 17.6789 23.8118 17.8404 23.8106 18.0021C23.8057 18.6259 23.7249 19.2375 23.5121 19.8271C23.2853 20.4555 22.9724 21.0365 22.5525 21.5584C22.1495 22.0591 21.6668 22.4662 21.114 22.792C20.6864 23.0439 20.2331 23.2354 19.7465 23.3351C19.5156 23.3824 19.2791 23.4037 19.0448 23.4325C18.9576 23.4431 18.8689 23.4415 18.7808 23.447C18.7377 23.4496 18.717 23.4327 18.715 23.3888C18.7122 23.3205 18.7068 23.2521 18.7019 23.1773C18.6879 23.1839 18.6758 23.1865 18.6674 23.1938C18.5596 23.2861 18.4357 23.313 18.2991 23.2831C18.2444 23.271 18.2074 23.2822 18.1718 23.3297C18.0894 23.4399 17.9736 23.488 17.8378 23.4733C17.7437 23.463 17.6773 23.4924 17.6102 23.5602C17.4855 23.6857 17.331 23.6911 17.173 23.6296C17.136 23.6151 17.1152 23.6219 17.0885 23.6473C17.0189 23.7124 16.9451 23.7752 16.8456 23.7844C16.7066 23.7973 16.5946 23.7375 16.5198 23.6251C16.3961 23.4387 16.2819 23.2458 16.1632 23.056C16.1518 23.0377 16.1365 23.0216 16.1228 23.0045C16.1174 23.0067 16.1119 23.0087 16.1063 23.011C16.1063 23.1198 16.1063 23.2286 16.1063 23.3371C16.1063 23.4403 16.0985 23.4502 15.9969 23.447C15.4354 23.4291 14.8906 23.3293 14.3686 23.1165C13.7741 22.8742 13.2412 22.5358 12.771 22.0988C12.2045 21.5721 11.7735 20.9503 11.4679 20.2402C11.3074 19.8675 11.1805 19.484 11.1053 19.0854C11.0687 18.8914 11.0429 18.6945 11.0277 18.4976C11.01 18.2704 11.0055 18.0419 11.0023 17.8139C10.9993 17.6115 11.0069 17.409 11.0077 17.2067C11.0081 17.1229 11.0037 17.039 11.0003 16.9551C10.9963 16.8566 11.0329 16.7741 11.0988 16.7038C11.3108 16.4775 11.524 16.2521 11.7357 16.0258C12.1052 15.6313 12.4742 15.2365 12.8428 14.8411C13.1129 14.5514 13.3822 14.2608 13.6522 13.971C13.6685 13.9535 13.689 13.9394 13.7208 13.9124ZM17.9301 21.6827C17.6496 21.8504 17.3777 22.0075 17.1122 22.1746C16.9994 22.2456 16.8926 22.255 16.7645 22.2259C16.4971 22.1649 16.3452 21.8096 16.4973 21.5634C16.5616 21.4592 16.6583 21.375 16.7406 21.2821C16.7535 21.2674 16.7675 21.2539 16.7923 21.2282C16.7561 21.2254 16.7378 21.223 16.7197 21.223C16.459 21.2228 16.1982 21.2246 15.9376 21.2213C15.8809 21.2207 15.8702 21.2408 15.8706 21.2919C15.8724 21.6561 15.8716 22.0201 15.8716 22.3843C15.8716 22.4052 15.8716 22.426 15.8716 22.4451C15.9183 22.4451 15.9565 22.4406 15.9935 22.4459C16.1035 22.4613 16.1516 22.55 16.2002 22.6335C16.2992 22.8024 16.3937 22.9738 16.4918 23.1431C16.5564 23.2547 16.6209 23.3665 16.6915 23.4741C16.7239 23.5236 16.7776 23.5582 16.8401 23.5469C16.9027 23.5358 16.9328 23.4862 16.9546 23.4274C16.9771 23.3669 16.9556 23.3178 16.9284 23.269C16.8711 23.1654 16.8088 23.0647 16.7541 22.9597C16.7356 22.9243 16.7237 22.8788 16.7277 22.8398C16.7329 22.7899 16.7822 22.7548 16.8247 22.7636C16.8671 22.7727 16.9127 22.8087 16.9381 22.8459C16.9823 22.9112 17.0115 22.9866 17.0481 23.0572C17.0994 23.1562 17.1452 23.2591 17.2071 23.3512C17.2329 23.3896 17.2924 23.422 17.3391 23.4256C17.395 23.4301 17.4467 23.3868 17.4603 23.3273C17.4704 23.2839 17.477 23.2292 17.4593 23.192C17.4066 23.0817 17.3407 22.9782 17.2808 22.8714C17.2325 22.7853 17.18 22.7013 17.14 22.6116C17.111 22.5464 17.1404 22.4853 17.1955 22.4595C17.2452 22.4362 17.283 22.4523 17.3254 22.5213C17.4022 22.6458 17.4766 22.7718 17.5524 22.8969C17.6104 22.9927 17.6673 23.089 17.7278 23.1829C17.7604 23.2336 17.8169 23.2563 17.8686 23.2344C17.9114 23.2163 17.9643 23.1741 17.9725 23.1342C17.9846 23.0759 17.9762 23.0021 17.9486 22.9494C17.8772 22.8123 17.7895 22.6838 17.7105 22.5506C17.6514 22.4511 17.589 22.3527 17.5406 22.248C17.5074 22.1764 17.5343 22.1199 17.5898 22.0951C17.6437 22.0712 17.6882 22.0907 17.732 22.1613C17.7672 22.218 17.7992 22.2765 17.833 22.3342C17.9512 22.5368 18.0671 22.7409 18.1887 22.9412C18.2802 23.0918 18.4455 23.0982 18.5346 22.9615C18.6024 22.8575 18.564 22.7656 18.5097 22.6729C18.3707 22.4352 18.233 22.1967 18.0942 21.959C18.0411 21.8685 17.9872 21.7786 17.9301 21.6827ZM18.821 21.8273C18.821 21.6507 18.821 21.4741 18.821 21.2976C18.821 21.2093 18.821 21.2093 18.7299 21.2095C18.7042 21.2095 18.6782 21.2093 18.6525 21.2105C18.4341 21.2215 18.2221 21.1845 18.0122 21.1286C17.839 21.0824 17.6647 21.0408 17.4907 20.9969C17.44 20.984 17.3996 20.9987 17.3616 21.0343C17.2818 21.1093 17.1987 21.1813 17.1181 21.2555C16.9865 21.3762 16.8514 21.4934 16.7259 21.6201C16.5817 21.7661 16.6583 21.923 16.7726 21.9819C16.8645 22.0292 16.9528 21.9988 17.0346 21.9501C17.3007 21.7917 17.5657 21.6318 17.8312 21.4721C17.977 21.3844 18.0228 21.3963 18.1083 21.5445C18.1093 21.5463 18.1101 21.5485 18.1111 21.5503C18.2589 21.8152 18.4067 22.0799 18.5543 22.3447C18.6143 22.4521 18.6412 22.4607 18.7621 22.4406C18.815 22.4318 18.8222 22.4085 18.8218 22.3636C18.82 22.1848 18.821 22.006 18.821 21.8273ZM15.6223 21.8301C15.6223 21.5672 15.6208 21.3044 15.6235 21.0416C15.6239 20.9891 15.61 20.9682 15.5553 20.9692C15.4089 20.9718 15.2623 20.971 15.1159 20.9696C15.0682 20.9692 15.0469 20.9822 15.0471 21.0357C15.0487 21.5636 15.0485 22.0915 15.0475 22.6192C15.0473 22.6773 15.0718 22.6916 15.1269 22.6896C15.2645 22.6846 15.4022 22.6822 15.5398 22.6856C15.615 22.6874 15.6225 22.6872 15.6225 22.6124C15.6225 22.3513 15.6223 22.0907 15.6223 21.8301ZM19.0587 21.8214C19.0601 21.8214 19.0615 21.8214 19.0629 21.8214C19.0629 22.0843 19.0649 22.3471 19.0611 22.6098C19.0603 22.66 19.0714 22.6739 19.1196 22.6731C19.2574 22.6709 19.3954 22.6699 19.5331 22.6735C19.5902 22.6749 19.6105 22.6616 19.6103 22.5991C19.6075 22.0821 19.6087 21.565 19.6087 21.048C19.6087 21.0371 19.6129 21.0237 19.6079 21.0162C19.5981 21.0013 19.5836 20.9788 19.5707 20.9786C19.4135 20.976 19.2562 20.9758 19.0991 20.9788C19.0855 20.979 19.0607 21.0058 19.0607 21.0202C19.0581 21.2873 19.0587 21.5544 19.0587 21.8214Z" fill="white"/>
<path d="M17.93 21.6827C17.9869 21.7786 18.041 21.8685 18.0937 21.959C18.2325 22.1969 18.3702 22.4352 18.5092 22.6729C18.5635 22.7656 18.6019 22.8577 18.5341 22.9615C18.4448 23.0982 18.2797 23.092 18.1882 22.9412C18.0666 22.7409 17.9507 22.5368 17.8325 22.3343C17.7989 22.2765 17.7667 22.218 17.7315 22.1613C17.6877 22.0905 17.6432 22.0712 17.5894 22.0951C17.5338 22.1199 17.5069 22.1764 17.5401 22.248C17.5885 22.3526 17.6509 22.4511 17.71 22.5506C17.789 22.6838 17.8767 22.8123 17.9481 22.9494C17.9757 23.0021 17.9839 23.0759 17.9721 23.1342C17.9638 23.1741 17.9107 23.2163 17.8681 23.2344C17.8162 23.2563 17.7599 23.2334 17.7273 23.1829C17.6668 23.0888 17.6099 22.9925 17.5519 22.8969C17.4761 22.7719 17.4017 22.6458 17.3249 22.5213C17.2825 22.4523 17.2447 22.4362 17.195 22.4595C17.1399 22.4853 17.1105 22.5464 17.1395 22.6116C17.1795 22.7013 17.232 22.7855 17.2803 22.8714C17.3402 22.9782 17.4061 23.0818 17.4588 23.192C17.4767 23.2292 17.4699 23.2839 17.4598 23.3273C17.446 23.3868 17.3945 23.4303 17.3386 23.4256C17.2919 23.4218 17.2324 23.3896 17.2067 23.3512C17.1449 23.2591 17.0991 23.1562 17.0476 23.0572C17.011 22.9866 16.9818 22.911 16.9376 22.8459C16.9124 22.8087 16.8666 22.7727 16.8242 22.7636C16.7815 22.7546 16.7322 22.79 16.7272 22.8398C16.7232 22.8786 16.7353 22.9241 16.7536 22.9597C16.8083 23.0647 16.8706 23.1654 16.9279 23.269C16.9551 23.3179 16.9766 23.3669 16.9541 23.4275C16.9323 23.486 16.9022 23.5356 16.8396 23.5469C16.7771 23.558 16.7234 23.5236 16.691 23.4741C16.6204 23.3665 16.5559 23.2545 16.4913 23.1431C16.3932 22.9738 16.2987 22.8024 16.1997 22.6335C16.1509 22.5502 16.103 22.4616 15.993 22.4459C15.956 22.4406 15.9178 22.4451 15.8711 22.4451C15.8711 22.4262 15.8711 22.4052 15.8711 22.3843C15.8711 22.0201 15.8719 21.6561 15.8701 21.2919C15.8699 21.2409 15.8804 21.2205 15.9371 21.2214C16.1977 21.2244 16.4583 21.2226 16.7192 21.223C16.7375 21.223 16.7558 21.2256 16.7918 21.2282C16.767 21.2539 16.7532 21.2674 16.7401 21.2821C16.6578 21.3752 16.5611 21.4593 16.4968 21.5634C16.3445 21.8096 16.4966 22.1649 16.764 22.2259C16.8921 22.255 16.9989 22.2456 17.1117 22.1746C17.3778 22.0075 17.6497 21.8504 17.93 21.6827Z" fill="#56C3C5"/>
<path d="M18.8206 21.8272C18.8206 22.006 18.8196 22.1848 18.8213 22.3634C18.8217 22.408 18.8144 22.4316 18.7615 22.4404C18.6407 22.4605 18.6137 22.4519 18.5538 22.3445C18.4062 22.0796 18.2584 21.815 18.1106 21.5501C18.1095 21.5483 18.1089 21.5461 18.1077 21.5443C18.0223 21.3959 17.9764 21.3842 17.8306 21.4719C17.5654 21.6316 17.3001 21.7915 17.034 21.9499C16.9522 21.9986 16.8639 22.029 16.772 21.9817C16.6576 21.9228 16.5812 21.7659 16.7254 21.6199C16.8506 21.493 16.986 21.376 17.1175 21.2553C17.1983 21.1811 17.2812 21.1093 17.361 21.0341C17.3989 20.9985 17.4395 20.9838 17.4902 20.9967C17.6639 21.0407 17.8383 21.0822 18.0116 21.1284C18.2216 21.1845 18.4335 21.2213 18.6519 21.2103C18.6777 21.2091 18.7036 21.2093 18.7293 21.2093C18.8204 21.2091 18.8204 21.2091 18.8204 21.2973C18.8206 21.4741 18.8206 21.6507 18.8206 21.8272Z" fill="#56C3C5"/>
<path d="M15.6213 21.8301C15.6213 22.0907 15.6215 22.3516 15.6213 22.6122C15.6213 22.687 15.6136 22.6872 15.5386 22.6854C15.401 22.682 15.2633 22.6844 15.1257 22.6894C15.0706 22.6914 15.0461 22.6773 15.0463 22.619C15.0473 22.0911 15.0475 21.5632 15.0459 21.0355C15.0457 20.9822 15.0672 20.969 15.1147 20.9694C15.2611 20.971 15.4077 20.9718 15.5541 20.969C15.609 20.968 15.6229 20.9889 15.6223 21.0414C15.62 21.3042 15.6213 21.567 15.6213 21.8301Z" fill="#56C3C5"/>
<path d="M19.059 21.8214C19.059 21.5544 19.0584 21.2873 19.0608 21.0204C19.061 21.006 19.0857 20.9792 19.0992 20.979C19.2565 20.976 19.4137 20.9762 19.5708 20.9788C19.5959 20.9828 19.6104 21.0062 19.608 21.0164C19.61 21.0218 19.6088 21.0373 19.6088 21.0482C19.6088 21.5652 19.6076 22.0823 19.6104 22.5993C19.6108 22.6618 19.5905 22.6753 19.5332 22.6737C19.3954 22.6701 19.2575 22.6711 19.1197 22.6733C19.0717 22.6741 19.0604 22.6602 19.0612 22.61C19.0652 22.3471 19.059 22.0843 19.059 21.8214C19.0604 21.8214 19.0576 21.8214 19.059 21.8214ZM19.3373 22.322C19.269 22.3226 19.2221 22.3714 19.2233 22.4412C19.2245 22.5148 19.2744 22.5685 19.3405 22.5673C19.4029 22.5663 19.4534 22.5096 19.4522 22.4422C19.4512 22.3722 19.4027 22.3216 19.3373 22.322Z" fill="#56C3C5"/>
<path d="M19.3373 22.3217C19.4075 22.3211 19.4594 22.372 19.4606 22.4422C19.4618 22.5098 19.4075 22.5665 19.3408 22.5675C19.2698 22.5687 19.2161 22.5148 19.2149 22.4412C19.2137 22.3714 19.2639 22.3223 19.3373 22.3217Z" fill="white"/>
<path d="M15.3393 22.3217C15.4095 22.3211 15.4614 22.372 15.4626 22.4422C15.4638 22.5098 15.4095 22.5665 15.3427 22.5675C15.2717 22.5687 15.218 22.5148 15.2168 22.4412C15.2156 22.3714 15.2659 22.3223 15.3393 22.3217Z" fill="white"/>
</svg>
