<svg width="51" height="54" viewBox="0 0 51 54" fill="none" xmlns="http://www.w3.org/2000/svg">
<path d="M45.2944 44.1058C44.4133 45.2276 43.324 46.1348 42.2234 47.0208C37.3005 50.9828 31.6834 53.2475 25.39 53.8328C25.2779 53.8426 25.1397 53.8036 25.0795 53.9548H23.8634C23.7431 53.8231 23.774 53.6719 23.8716 53.5694C24.5511 52.859 25.138 52.0477 26.0241 51.5567C26.3704 51.5892 26.6419 51.386 26.9329 51.2592C30.3958 49.744 33.5189 47.728 36.2226 45.0601C38.6353 42.6783 40.6886 40.0478 42.2266 37.0206C42.3518 36.7752 42.451 36.4793 42.8184 36.4955C43.2655 36.6435 43.5419 37.0044 43.8166 37.3442C44.8474 38.6188 45.4473 40.0755 45.4652 41.724C45.4733 42.5174 45.6407 43.3352 45.2912 44.109L45.2944 44.1058Z" fill="#4A80A9"/>
<path d="M26.0486 51.6396C25.2926 52.3842 24.4212 53.0215 23.8636 53.9531H23.1336C23.0165 53.3873 23.4929 53.028 23.6181 52.5468C24.348 50.9129 25.1544 49.3115 25.7592 47.6223C27.0631 44.3366 28.0906 40.9712 28.6466 37.4726C28.6596 37.3913 28.6466 37.3116 28.6417 37.2303C28.7929 35.7655 28.858 34.3023 28.5799 32.8423C28.4548 32.1872 28.2938 31.5466 28.0256 30.9337C27.9313 30.7175 27.7898 30.5029 27.889 30.246C28.0386 30.2102 28.1637 30.2687 28.2938 30.3338C30.1098 31.2279 31.9258 32.1189 33.7402 33.0163C33.9011 33.096 34.0426 33.2163 34.1938 33.3171C34.6116 33.652 34.5335 34.0617 34.3482 34.4714C34.0572 35.1168 33.7174 35.7411 33.4085 36.3784C32.9452 37.3376 33.0004 37.6823 33.7304 38.435C33.9271 38.6382 34.1336 38.8333 34.3011 39.0642C34.6945 39.6088 34.8213 40.186 34.5791 40.8379C34.0588 42.2377 33.2687 43.4879 32.4022 44.6861C30.6658 47.0858 28.6872 49.279 26.5607 51.3388C26.416 51.4786 26.2713 51.6266 26.0502 51.6412L26.0486 51.6396Z" fill="#365E7D"/>
<path d="M11.0692 33.3562C11.1798 33.2684 11.2789 33.1594 11.4025 33.0977C13.3632 32.1384 15.3271 31.1874 17.2911 30.233C17.4569 30.4428 17.3707 30.6622 17.2862 30.8606C16.4213 32.9123 16.4229 35.0486 16.6489 37.2076C16.9122 39.3569 17.4276 41.4509 18.0649 43.5156C18.4941 44.9041 19.0095 46.2632 19.5298 47.6191C20.2093 49.4725 21.0612 51.2495 21.9083 53.0297C21.9896 53.3386 22.2968 53.5873 22.157 53.9548H21.549C21.2677 53.8117 21.0076 53.6394 20.7979 53.3987C18.0958 50.7406 15.3873 48.089 13.1291 45.0244C12.3097 43.914 11.5667 42.7548 10.9798 41.4997C10.3343 40.121 10.4205 39.591 11.4773 38.518C12.321 37.6612 12.3682 37.3572 11.8268 36.263C11.5293 35.6631 11.2204 35.0697 10.9391 34.4633C10.7587 34.0747 10.705 33.6878 11.0676 33.3562H11.0692Z" fill="#365E7D"/>
<path d="M22.1597 53.9531L21.7939 53.1061C22.3939 52.7517 23.0182 52.498 23.7367 52.6184C23.5352 53.0638 23.3336 53.5093 23.132 53.9547H22.1581L22.1597 53.9531Z" fill="#DA636E"/>
<path d="M20.9437 53.3451C21.1941 53.5012 21.3989 53.7011 21.5534 53.9531H20.0934C19.7699 53.6735 19.3277 53.9482 18.9944 53.7174C18.9798 53.6312 19.0025 53.5385 19.0806 53.5142C19.6886 53.3305 20.2934 53.0736 20.9437 53.3451Z" fill="#417194"/>
<path d="M17.4262 30.1224C17.423 29.051 17.4067 27.978 17.4262 26.9066C17.4327 26.5636 17.3141 26.3555 17.0393 26.1555C14.7112 24.4647 13.3488 22.1984 13.0301 19.3256C12.9732 18.8135 12.861 18.4477 12.2107 18.3518C11.3637 18.2266 10.9719 17.6299 10.967 16.7439C10.9621 15.692 10.967 14.6401 10.967 13.5882C11.1556 13.3525 11.4255 13.359 11.6889 13.3509C12.1343 13.3379 12.5798 13.3639 13.0236 13.3346C13.8707 13.2793 14.4104 12.8355 14.6461 12.0242C14.7843 11.5495 14.7518 11.0618 14.7665 10.5773C14.8169 8.85723 16.1776 7.84437 17.8392 8.3191C19.4633 8.78245 21.1086 9.07996 22.7994 9.08484C23.6302 9.08647 24.4512 8.95478 25.2706 8.83122C25.5698 8.7857 25.8673 8.70929 26.1729 8.77432C26.6363 8.91413 26.6151 9.30595 26.62 9.66687C26.6363 10.7805 26.6249 11.8942 26.6265 13.0095C26.6265 14.9945 26.6265 16.9796 26.6265 18.9647C26.6265 22.7576 25.3568 25.341 22.3036 27.687C23.9261 27.7845 25.3893 27.4399 26.7923 26.7684C27.1273 26.6075 27.441 26.3278 27.8654 26.4612C27.8654 27.6789 27.8637 28.8966 27.8621 30.1159C27.8166 30.4037 27.6556 30.6199 27.4703 30.8394C25.9551 32.644 24.4024 34.4194 22.9019 36.237C22.8189 36.2776 22.7328 36.2825 22.6434 36.2532C21.5525 35.042 20.4794 33.8146 19.3902 32.6001C18.865 32.0148 18.3545 31.4182 17.8213 30.8394C17.6278 30.6297 17.4262 30.4329 17.4214 30.1224H17.4262Z" fill="#FEDCCD"/>
<path d="M20.9433 53.3451C20.2995 53.4963 19.6231 53.4817 18.994 53.7174C15.6058 53.3646 12.3868 52.4119 9.31408 50.9536C5.95523 49.3603 2.98005 47.2289 0.382058 44.5708C0.242241 44.4277 0.126811 44.2619 0 44.1074C0.0926694 43.0198 -0.0715342 41.924 0.117056 40.8363C0.552765 38.3261 1.90704 36.4679 4.26279 35.5509C6.48035 34.6877 8.79709 34.078 11.0699 33.3561C10.9008 33.7821 10.9675 34.1739 11.187 34.5755C11.5349 35.216 11.8568 35.8712 12.1722 36.5297C12.5445 37.3052 12.486 37.814 11.8633 38.3912C10.4164 39.7341 10.5155 40.1486 11.3528 41.8264C12.3624 43.8505 13.7638 45.6015 15.214 47.32C16.9406 49.3668 18.8785 51.2072 20.7596 53.1045C20.8295 53.1744 20.8815 53.2638 20.9417 53.3451H20.9433Z" fill="#4A80A9"/>
<path d="M26.1431 8.9272C24.4458 9.21009 22.7469 9.41493 21.0187 9.20033C19.9522 9.06864 18.9084 8.85404 17.8809 8.5484C16.2096 8.05091 14.974 8.96785 14.9594 10.7139C14.9383 13.0746 14.4148 13.5948 12.0607 13.5948C11.6965 13.5948 11.3323 13.5916 10.9698 13.5899C10.9665 11.5024 10.9519 9.41494 10.9632 7.32744C10.986 3.56701 13.6913 0.699137 17.4501 0.595087C20.8317 0.502418 24.2182 0.55932 27.6015 0.551191C27.7819 0.551191 27.9689 0.538185 28.1217 0.669873C27.9104 0.918617 27.6112 0.915366 27.3348 0.897482C26.7918 0.864967 26.6423 1.11696 26.6455 1.62421C26.6601 3.72959 26.652 5.83497 26.652 7.94035C26.652 8.16309 26.6715 8.38582 26.6276 8.60692C26.6162 8.94183 26.3236 8.85079 26.1415 8.9272H26.1431Z" fill="#2F4859"/>
<path d="M26.1435 8.9272C26.2866 8.85892 26.428 8.79226 26.5711 8.72398C27.3401 8.16309 28.1741 7.96474 29.0715 8.35981C29.9559 8.74999 30.5038 9.40681 30.5168 10.4197C30.5233 10.9074 30.5347 11.3919 30.6323 11.8715C30.8176 12.7819 31.3834 13.2875 32.3084 13.3428C32.7328 13.3688 33.1604 13.3461 33.5847 13.3558C33.8481 13.3607 34.1163 13.3558 34.3179 13.5737C34.3212 14.6662 34.3325 15.7587 34.3228 16.8512C34.3163 17.6511 33.8448 18.2917 33.0612 18.3909C32.4938 18.4624 32.3491 18.7778 32.3036 19.2249C32.1816 20.4231 31.8516 21.5546 31.3135 22.6325C30.5168 24.229 29.3382 25.4727 27.8701 26.4612C26.0931 27.4773 24.2072 28.0626 22.1376 27.9195C22.0238 27.9114 21.897 27.9651 21.7441 27.8009C22.4855 27.3115 23.1732 26.7701 23.778 26.1279C25.1957 24.6225 26.0394 22.8601 26.3061 20.8068C26.5369 19.0298 26.3809 17.2496 26.4117 15.471C26.4443 13.5054 26.4231 11.5398 26.415 9.57426C26.415 9.33365 26.5288 9.01987 26.1451 8.92883L26.1435 8.9272Z" fill="#FECABD"/>
<path d="M42.7075 36.4646C42.7092 36.4955 42.714 36.5264 42.7205 36.5556C42.1222 37.4905 41.6508 38.4968 41.0606 39.4398C40.1583 40.8851 39.1341 42.2345 38.0074 43.4961C34.8095 47.0777 30.9857 49.8041 26.5392 51.6412C26.3733 51.7095 26.2124 51.8347 26.0498 51.638C26.7993 50.869 27.5748 50.126 28.2918 49.3278C30.4557 46.9232 32.6293 44.522 34.0698 41.5744C34.7949 40.0917 34.7347 39.7097 33.5625 38.5326C32.7838 37.749 32.7139 37.3507 33.1984 36.3752C33.4959 35.7769 33.7804 35.1705 34.1023 34.5852C34.3348 34.1641 34.4014 33.7544 34.1917 33.3138C36.2629 33.9707 38.3342 34.6323 40.4087 35.281C41.246 35.5428 41.9824 35.9899 42.7092 36.4646H42.7075Z" fill="#4A7FA9"/>
<path d="M34.319 13.5737C33.6541 13.5737 32.9875 13.5802 32.3226 13.5688C31.2951 13.5525 30.5228 12.8681 30.4058 11.8455C30.3489 11.3464 30.3749 10.8391 30.3326 10.3368C30.2172 8.97598 29.0076 8.12407 27.6793 8.45085C27.3103 8.5419 26.9412 8.63131 26.5706 8.72236C26.3803 8.57441 26.4177 8.36306 26.4177 8.16472C26.4161 5.86587 26.4291 3.56864 26.4064 1.26979C26.4015 0.778804 26.5657 0.621104 27.0339 0.661748C27.3932 0.692638 27.759 0.668251 28.1216 0.668251C29.3799 0.900738 30.2708 1.92173 30.4123 3.29388C30.5017 4.1588 30.7569 4.39616 31.6414 4.44006C33.0997 4.51159 34.3028 5.68866 34.319 7.1356C34.3434 9.28163 34.3206 11.4277 34.319 13.5721V13.5737Z" fill="#2F4859"/>
<path d="M17.4262 30.1225C18.9805 31.8605 20.5347 33.5985 22.089 35.3364C22.3166 35.59 22.5653 35.829 22.6434 36.1802C22.5588 36.6517 22.1312 36.8224 21.8272 37.0988C21.1298 37.7344 20.3965 38.3295 19.6617 38.9229C18.7382 39.5082 18.0944 39.4334 17.3514 38.6416C16.9775 38.2433 16.6312 37.8238 16.4621 37.289C16.1646 34.93 16.1906 32.6084 17.2783 30.4119C17.3027 30.3615 17.2897 30.2916 17.2929 30.2315C17.3368 30.1941 17.3823 30.1583 17.4262 30.1209V30.1225Z" fill="#F3FAFE"/>
<path d="M22.8858 36.1947C22.9444 35.5656 23.4971 35.268 23.8402 34.8486C25.1505 33.2439 26.5194 31.6881 27.8672 30.1143C27.8737 30.1566 27.8786 30.2005 27.8851 30.2428C28.5907 31.3645 28.8362 32.6261 28.9386 33.9138C29.028 35.0388 29.0248 36.1687 28.8264 37.2889C28.6362 37.7148 28.3907 38.105 28.0883 38.4627C27.3681 39.3146 26.565 39.4252 25.6399 38.7878C24.8173 38.1164 24.0158 37.4222 23.224 36.715C23.0712 36.5784 22.8387 36.4695 22.8875 36.1931L22.8858 36.1947Z" fill="#F3FAFE"/>
<path d="M23.7381 52.6167C23.0943 52.7955 22.4749 53.0671 21.7953 53.1044C20.8637 51.3795 20.0817 49.5879 19.3859 47.7556C19.3225 47.224 19.4753 46.7298 19.6086 46.2241C20.0297 44.6276 20.4183 43.0214 20.8231 41.42C20.9011 41.1127 20.9418 40.7778 21.2474 40.5794C22.1741 40.3827 23.1008 40.3941 24.0275 40.5681C24.325 40.7388 24.3754 41.0493 24.4502 41.3403C24.9249 43.2002 25.3704 45.0666 25.8662 46.9216C25.9427 47.2077 25.8402 47.4825 25.9053 47.7573C25.2745 49.4188 24.5737 51.0478 23.7365 52.6167H23.7381Z" fill="#E18085"/>
<path d="M25.9049 47.7572C25.2367 45.4259 24.6254 43.0782 24.1279 40.7046C24.4466 39.8608 24.9685 39.1682 25.6887 38.6252C26.6463 39.2674 27.3356 39.1471 28.0135 38.2432C28.2639 37.9099 28.5549 37.6059 28.8281 37.2905C28.3907 40.929 27.2559 44.374 25.9065 47.7589L25.9049 47.7572Z" fill="#E3F5FE"/>
<path d="M21.163 40.7062C20.8964 42.2914 20.407 43.8228 20.0364 45.382C19.8461 46.1802 19.6039 46.9655 19.386 47.7572C18.035 44.374 16.897 40.9306 16.4629 37.2905C16.8076 37.7034 17.1343 38.1326 17.5034 38.5244C18.2236 39.2869 18.7309 39.3308 19.6071 38.7488C20.3225 39.2447 20.8184 39.9145 21.163 40.7062Z" fill="#E3F5FE"/>
<path d="M21.1633 40.7063C20.6447 40.0544 20.126 39.4008 19.6074 38.7489C20.6203 37.8921 21.6315 37.037 22.6444 36.1802C22.724 36.1851 22.8053 36.1899 22.885 36.1948C23.8198 37.0061 24.753 37.8157 25.6878 38.627C25.1676 39.3196 24.6473 40.0121 24.1271 40.7063C23.1386 40.7063 22.1501 40.7063 21.1617 40.7063H21.1633Z" fill="#DC636E"/>
<path d="M34.2314 42.0379C34.4727 41.633 34.6972 41.2176 34.9595 40.8273C36.4659 38.5949 38.5577 37.3213 41.2412 37.0318C42.091 37.2143 42.9009 37.5018 43.6478 37.9466C46.3544 39.5558 47.907 41.9204 47.9993 45.0802C48.1084 48.8086 46.3439 51.4816 43.0582 53.181C42.4225 53.5104 41.7175 53.6258 41.0356 53.8168H40.8321C39.269 53.6909 37.9052 53.0803 36.6841 52.1215C36.3379 51.8487 36.0358 51.5298 35.7232 51.2214C34.2902 49.7149 33.5327 47.9189 33.4404 45.8439C33.3922 44.755 33.4845 43.6828 33.8768 42.6527C33.9419 42.4785 33.988 42.2981 34.1076 42.1491C34.1454 42.1072 34.1874 42.0715 34.2314 42.0379V42.0379Z" fill="#9FD368"/>
<path d="M41.0381 53.8189C41.0738 53.5482 41.3192 53.6049 41.4766 53.5608C45.0161 52.56 47.1604 50.2625 47.7563 46.6328C48.1969 43.9472 47.3996 41.5994 45.526 39.6083C44.3993 38.4103 43.0397 37.6528 41.4661 37.2395C41.3654 37.2143 41.143 37.2878 41.2416 37.0339C43.7384 36.822 45.8952 37.6088 47.7626 39.2495C48.9984 40.4853 49.846 41.9288 50.2341 43.6535C51.279 48.3008 48.0038 53.0698 43.2915 53.7224C43.2096 53.7328 43.1215 53.7286 43.0775 53.821H41.0402L41.0381 53.8189Z" fill="#9FD368"/>
<path d="M40.3663 48.7456C40.1124 48.7561 39.9215 48.7036 39.7662 48.5505C39.2228 48.0155 38.6647 47.4951 38.136 46.9433C37.687 46.4733 37.6786 46.0097 38.0625 45.6467C38.4276 45.3005 38.9102 45.3529 39.3676 45.7935C39.4053 45.8292 39.4389 45.8649 39.4767 45.9005C40.0404 46.4614 40.5978 46.4656 41.1489 45.9131C42.3238 44.7382 43.503 43.5653 44.6737 42.3862C45.0157 42.04 45.3892 41.9414 45.8151 42.1974C46.3039 42.4911 46.3375 43.0765 45.8822 43.5423C45.1101 44.3291 44.3254 45.1033 43.547 45.8838C42.7078 46.723 41.8664 47.5623 41.0293 48.4036C40.8341 48.6008 40.6348 48.7834 40.3684 48.7477L40.3663 48.7456Z" fill="#F4F6F9"/>
</svg>
