<svg width="69" height="51" viewBox="0 0 69 51" fill="none" xmlns="http://www.w3.org/2000/svg">
<path d="M0 13.7002C0.446689 12.7456 1.29324 12.3908 2.25146 12.2377C3.20427 12.0846 4.1643 12.0684 5.12972 12.1746C5.76733 12.2449 6.0213 12.5655 6.04651 13.1797C6.08614 14.1307 6.4914 14.5954 7.4118 14.8152C7.43701 15.568 7.15963 16.1894 6.58326 16.674C5.00544 16.5245 3.42582 16.3912 1.90924 15.8688C1.13113 15.6005 0.453894 15.2186 0.00180117 14.509V13.7002H0Z" fill="#2F4859"/>
<path d="M6.58141 16.674C6.92723 16.085 7.19741 15.4618 7.40994 14.8152C8.39698 12.778 9.37141 10.7355 10.3765 8.70741C11.2644 6.91886 12.2767 5.20054 13.3286 3.50024C14.2652 1.98546 15.5278 1.21456 17.3055 1.01824C20.8989 0.618378 24.5012 0.384227 28.1089 0.223923C30.4613 0.117654 32.819 -0.0264392 35.1713 0.00418061C39.4797 0.0600168 43.7863 0.20411 48.0857 0.515712C49.5824 0.623782 51.0792 0.762471 52.5598 1.03625C53.3451 1.18034 53.9809 1.53517 54.4888 2.15838C56.3008 4.38642 57.5904 6.93147 58.8999 9.4603C59.8167 11.2308 60.6722 13.032 61.5566 14.8206C61.9871 15.3735 62.3437 15.9625 62.4302 16.6776C63.4082 18.4895 64.37 20.3123 65.3715 22.1135C66.5602 24.2533 67.1654 26.5372 67.2465 28.9777C67.378 32.9205 67.0015 36.8056 66.0559 40.6385C65.8236 41.5769 65.4309 42.4054 64.8023 43.1295C64.2169 44.1544 63.2155 44.5434 62.1546 44.5866C60.4345 44.6551 58.7126 44.6947 56.9906 44.7578C56.7259 44.7668 56.4467 44.7758 56.236 44.5596C52.7345 44.5632 49.233 44.5542 45.7315 44.5722C35.1137 44.6245 24.4976 44.6857 13.8797 44.7451C13.6564 44.7451 13.433 44.7704 13.2097 44.783C13.0476 44.8658 12.8747 44.909 12.6946 44.9235C10.6628 45.0928 8.62573 45.1684 6.60302 44.8658C5.83572 44.7505 5.07203 44.502 4.62354 43.7563C3.18801 42.4793 2.96827 40.6763 2.59723 38.958C1.86055 35.5448 1.61199 32.0811 1.7795 28.5959C1.87136 26.6975 2.32345 24.8729 3.20062 23.1744C4.31914 21.004 5.45568 18.8444 6.58501 16.6794L6.58141 16.674Z" fill="#56C4C6"/>
<path d="M56.2313 44.5578C57.7965 44.5254 59.3617 44.4408 60.9251 44.4786C62.4075 44.5128 63.7079 44.1544 64.7976 43.1295C64.8084 44.9235 64.8355 46.7156 64.8229 48.5096C64.8157 49.5038 64.1258 50.2117 63.1352 50.2351C61.4547 50.2729 59.7724 50.291 58.0919 50.2711C56.941 50.2585 56.3015 49.5921 56.2655 48.3925C56.2277 47.1155 56.2385 45.8367 56.2295 44.5596L56.2313 44.5578Z" fill="#2F4859"/>
<path d="M4.62012 43.7527C5.77286 44.6118 7.08051 44.864 8.49442 44.8172C10.0632 44.7649 11.6339 44.7884 13.2045 44.7811C13.2081 46.0618 13.2171 47.3424 13.2135 48.623C13.2099 49.8244 12.5723 50.5269 11.3709 50.5611C9.75524 50.6079 8.13779 50.6133 6.52035 50.5989C5.3676 50.5881 4.69036 49.9199 4.65974 48.7401C4.61652 47.0794 4.63092 45.417 4.62012 43.7545V43.7527Z" fill="#2F4859"/>
<path d="M62.4283 16.6758C62.068 16.0886 61.7528 15.4816 61.5547 14.8188C62.4769 14.6225 62.9308 14.1362 62.9542 13.2158C62.9722 12.5187 63.2874 12.2215 63.9737 12.1621C65.076 12.0666 66.1657 12.0846 67.2428 12.353C67.5219 12.4232 67.8011 12.5259 68.0533 12.6646C69.2763 13.3364 69.3231 14.6441 68.1416 15.3826C67.1743 15.9877 66.0702 16.2093 64.9625 16.3822C64.1232 16.5137 63.273 16.5803 62.4283 16.6758Z" fill="#2F4859"/>
<path d="M9.88461 15.0889C10.7186 13.2103 11.5435 11.3497 12.3702 9.48912C13.1898 7.64472 14.0363 5.81294 14.8198 3.95413C15.2323 2.9743 15.9149 2.56183 16.9506 2.53662C20.742 2.44656 24.5335 2.33489 28.3249 2.21241C30.8142 2.13135 33.3016 1.96024 35.7926 2.00347C40.3027 2.08452 44.8128 2.18179 49.3229 2.27725C50.3316 2.29886 51.342 2.34569 52.3507 2.36551C53.0694 2.37992 53.6223 2.67531 53.9231 3.32553C55.6378 7.02872 57.3363 10.7391 59.0474 14.4441C59.332 15.0601 58.8457 14.8818 58.5935 14.8836C53.7214 14.9088 48.8492 14.9196 43.9789 14.9448C35.807 14.9881 27.6369 15.0439 19.465 15.0835C16.3022 15.0997 13.1375 15.0853 9.88281 15.0853L9.88461 15.0889Z" fill="#2F4859"/>
<path d="M34.5659 42.3568C30.2791 42.3568 25.9905 42.3568 21.7037 42.3568C20.9652 42.3568 20.614 42.0488 20.605 41.3211C20.5888 39.9522 20.5834 38.5816 20.587 37.2127C20.5888 36.458 20.85 36.195 21.5957 36.1896C30.1944 36.1374 38.7914 36.0869 47.3902 36.0419C48.2439 36.0365 48.5015 36.3067 48.5087 37.1749C48.5177 38.4771 48.5213 39.7793 48.5195 41.0816C48.5195 41.9029 48.2673 42.1605 47.428 42.1623C43.1412 42.1695 38.8526 42.1659 34.5659 42.1659V42.3568Z" fill="#3A556A"/>
<path d="M13.4233 31.0815C12.0112 31.0815 10.5919 31.004 9.18695 31.1049C7.99097 31.1914 7.15884 30.6708 6.44017 29.8531C4.85334 28.0519 4.50932 25.9157 4.85875 23.6229C4.97582 22.861 5.66747 22.5458 6.60948 22.7673C7.67577 23.0195 8.73846 23.2896 9.80475 23.5508C12.0004 24.0894 14.1924 24.6333 16.3916 25.1592C16.968 25.2979 17.3931 25.5663 17.6939 26.1085C18.227 27.0685 18.8214 27.9925 19.3996 28.9273C19.713 29.4334 19.8733 29.9576 19.5491 30.5069C19.2501 31.0112 18.7475 31.0905 18.2036 31.0851C16.6114 31.0743 15.0191 31.0815 13.4269 31.0815H13.4233Z" fill="#E0E5E8"/>
<path d="M55.5762 31.0815C53.9605 31.0815 52.3467 31.0869 50.731 31.0797C49.4396 31.0743 48.8993 30.1611 49.5441 29.0552C50.1655 27.9907 50.8265 26.9496 51.4515 25.8869C51.6911 25.4799 52.0567 25.3052 52.48 25.2007C55.7833 24.3884 59.0866 23.5724 62.3936 22.7709C63.4959 22.5043 64.0849 22.8862 64.2002 24.0209C64.4559 26.5624 63.9138 28.8336 61.8226 30.5339C61.3687 30.9032 60.8914 31.1013 60.2898 31.0905C58.7192 31.0617 57.1486 31.0815 55.5798 31.0815H55.5762Z" fill="#E0E5E8"/>
<path d="M34.1648 28.2429C37.7545 28.2429 41.3442 28.2537 44.9339 28.2303C45.4689 28.2267 45.6436 28.3816 45.604 28.9093C45.5607 29.4893 45.5824 30.0747 45.5986 30.6582C45.6076 30.9788 45.4833 31.1139 45.1663 31.0851C45.0546 31.0743 44.9429 31.0851 44.8295 31.0851C37.7185 31.0851 30.6057 31.0761 23.4947 31.1013C22.8841 31.1031 22.7021 30.9374 22.7706 30.3538C22.8498 29.6712 22.4788 28.7544 22.9273 28.3636C23.3163 28.0249 24.2079 28.2483 24.8762 28.2465C27.9724 28.2411 31.0686 28.2447 34.1648 28.2447V28.2429Z" fill="#3A556A"/>
<path d="M6.4288 38.7256C6.41619 36.9821 7.78868 35.5646 9.50339 35.552C11.2073 35.5394 12.65 36.9587 12.6644 38.6626C12.6788 40.3665 11.2595 41.8237 9.56643 41.8399C7.84632 41.8561 6.44141 40.4638 6.4288 38.7256V38.7256Z" fill="#EAEFF2"/>
<path d="M59.7793 41.4977C58.0213 41.4832 56.6957 40.1234 56.7101 38.3528C56.7245 36.6165 58.1168 35.2512 59.8567 35.2656C61.5786 35.28 62.9547 36.6921 62.9403 38.4285C62.9259 40.1612 61.5354 41.5139 59.7793 41.4995V41.4977Z" fill="#EAEFF2"/>
<path d="M7.41 27.0415C7.4082 25.6672 8.30698 24.754 9.66686 24.7486C10.8953 24.7432 12.0516 25.7915 11.9706 26.9731C11.8697 28.4554 11.0592 29.2317 9.60743 29.3074C8.45108 29.3686 7.41 28.2177 7.4082 27.0415H7.41Z" fill="#BCBDC0"/>
<path d="M12.8049 28.5707C12.8193 27.6286 13.6407 26.8794 14.6259 26.9082C15.5121 26.9334 16.301 27.7241 16.3028 28.5941C16.3064 29.5091 15.395 30.4151 14.4818 30.406C13.5956 30.397 12.7887 29.5145 12.8049 28.5707Z" fill="#BCBDC0"/>
<path d="M61.594 27.0613C61.5886 28.2248 60.5169 29.3182 59.3731 29.3272C58.1375 29.3362 56.9866 28.1762 57.0172 26.9496C57.0478 25.7356 58.1051 24.7396 59.3551 24.7486C60.7114 24.7576 61.6012 25.6762 61.594 27.0613V27.0613Z" fill="#BCBDC0"/>
<path d="M56.2003 28.6211C56.1895 29.5667 55.3465 30.4367 54.473 30.4043C53.5688 30.37 52.715 29.5055 52.7042 28.6103C52.6934 27.6827 53.5273 26.892 54.4982 26.9082C55.4402 26.9244 56.2111 27.7007 56.2003 28.6211Z" fill="#BCBDC0"/>
</svg>
