<svg width="67" height="68" viewBox="0 0 67 68" fill="none" xmlns="http://www.w3.org/2000/svg">
<path d="M1.13731 34.2014C2.04507 33.1986 4.30796 33.178 5.41144 34.8556C6.31548 36.2294 7.2307 37.5938 8.14592 38.9602C8.85423 40.017 9.65575 40.3824 10.6474 40.1102C11.7248 39.8139 12.2467 39.0757 12.3045 37.7635C12.3716 36.2257 13.7472 34.6879 15.2608 34.6711C17.3223 34.6469 19.3876 34.5089 21.4474 34.7755C24.6739 35.1912 27.442 36.5593 29.8223 38.7495C30.1802 39.0794 30.5138 39.4355 30.9463 39.6741C31.1252 39.9425 30.9388 40.1643 30.8381 40.3842C29.524 43.279 29.0021 46.3285 29.25 49.4749C29.5595 53.4191 31.004 56.9402 33.5298 60.0084C34.3611 61.0168 35.2894 61.9152 36.3015 62.7354C36.514 62.9087 36.7656 63.0578 36.7806 63.3822C36.7209 63.6375 36.4991 63.6618 36.2996 63.7177C33.9007 64.3981 31.375 62.6981 31.101 60.219C30.9314 58.6756 30.4635 58.2543 28.9033 58.2692C27.0021 58.286 25.5593 59.1304 24.5826 60.7484C24.1278 61.5014 23.6208 62.1724 22.7559 62.4837C21.453 62.9516 20.2525 62.7857 19.2963 61.7624C17.2068 59.5256 15.2403 57.203 14.6307 54.0622C14.4798 53.2868 14.3511 52.5114 14.3456 51.7154C14.3288 49.5924 13.0352 48.2801 10.9233 48.2242C6.61371 48.1086 3.20261 44.608 3.19329 40.2855C3.19143 39.2621 3.20075 38.2407 3.18956 37.2173C3.18024 36.3357 3.01248 36.1399 2.14573 35.933C1.16899 35.6982 0.829749 35.1129 1.13917 34.2014H1.13731Z" fill="#56C4C6"/>
<path d="M37.2842 32.3187C38.0242 28.5963 39.7931 25.4257 42.4922 22.7844C44.0188 21.2914 45.6255 19.8766 47.195 18.4264C49.1932 16.5792 50.1755 14.2641 50.2259 11.5725C50.2576 9.83153 50.7105 8.24155 51.6052 6.769C52.5074 5.28526 53.4226 3.80711 54.3658 2.34947C55.4991 0.59732 57.6147 -0.306716 59.5365 0.094042C61.6503 0.535808 63.244 2.15562 63.5981 4.25261C63.7249 5.00566 63.5683 5.77735 63.7342 6.54159C63.9393 7.49409 64.381 8.27883 65.1695 8.83803C66.4445 9.74206 67.0055 10.9332 66.9999 12.5138C66.9925 14.9351 66.9682 17.3304 66.0046 19.6119C65.3205 21.2317 64.3866 22.68 63.1899 23.9662C62.6699 24.5254 62.051 24.7845 61.3166 24.5161C60.6158 24.2588 60.3138 23.7183 60.2653 22.9559C60.1628 21.3529 58.9512 20.1804 57.4451 20.1413C56.1086 20.1077 54.9343 21.1199 54.7423 22.5551C54.6286 23.4144 54.815 24.2644 55.0946 25.0809C55.6538 26.7081 56.5653 28.1695 57.2923 29.7185C57.6446 30.4697 58.0621 31.1929 58.3007 31.9944C58.1367 32.1528 57.9503 32.1081 57.7881 32.013C55.7302 30.8201 53.527 30.0074 51.2045 29.5078C50.9901 29.3736 50.7478 29.3867 50.5092 29.3792C50.3675 29.3755 50.2277 29.355 50.0898 29.3252C49.8475 29.2431 49.5958 29.2487 49.3442 29.2525C49.1149 29.2543 48.8875 29.2525 48.6583 29.2674C48.2221 29.2674 47.7859 29.2692 47.3497 29.2692C47.0403 29.2487 46.7309 29.2506 46.4215 29.2674C46.127 29.314 45.8343 29.3811 45.5361 29.3885C45.2863 29.3885 45.0365 29.3811 44.7961 29.4687C42.8631 29.9198 40.9618 30.4641 39.2097 31.4315C38.7679 31.6104 38.3783 31.8863 37.9645 32.1137C37.7558 32.2293 37.5656 32.4324 37.2842 32.3131V32.3187Z" fill="#56C4C6"/>
<path d="M51.2125 29.3438C52.2918 29.6644 53.4064 29.834 54.467 30.2497C55.6581 30.7157 56.7896 31.2842 57.9024 31.8993C58.0161 31.9627 58.1652 31.9646 58.2976 31.9944C60.1895 33.3532 61.9361 34.8649 63.3135 36.7681C64.4711 38.3711 65.3844 40.0934 66.0201 41.9723C66.1711 42.4197 66.0723 42.4663 65.6659 42.4626C63.6901 42.4477 61.7161 42.457 59.7403 42.457C52.8622 42.457 45.984 42.457 39.1059 42.457C38.8226 42.2109 38.8617 41.8698 38.8598 41.5529C38.8505 38.4531 38.8543 35.3514 38.8543 32.2516C38.8543 31.9236 38.8859 31.6048 39.0593 31.3159C40.8636 30.3392 42.7761 29.6775 44.8023 29.3457C45.011 29.1835 45.2888 29.3755 45.4975 29.2096L46.3344 29.0717C46.6588 29.1779 46.9831 29.1798 47.3075 29.0717C47.7753 29.0717 48.2413 29.0717 48.7092 29.0717C48.9459 29.2096 49.205 29.1071 49.4529 29.1388C49.6691 29.1649 49.8965 29.0791 50.1034 29.204L50.521 29.2077C50.7279 29.3755 51.0056 29.1835 51.2125 29.3438V29.3438Z" fill="#159A1A"/>
<path d="M39.1036 53.6148H66.1651C65.4698 55.7156 64.5937 57.6504 63.2069 59.328C60.6327 61.2684 57.6895 62.2228 54.5244 62.5993C50.5448 63.0709 46.8168 62.2638 43.3013 60.3904C41.881 59.6337 40.6041 58.6681 39.4 57.6056C39.2266 57.4528 39.0626 57.285 38.9638 57.067C38.9321 56.9887 38.9116 56.9104 38.9023 56.8265C38.8315 55.9896 38.8688 55.1526 38.8725 54.3157C38.8725 54.0622 38.8725 53.7975 39.1036 53.6148V53.6148Z" fill="#333333"/>
<path d="M1.13772 34.2013C1.16755 35.4148 1.24956 35.4968 2.48912 35.7801C3.08559 35.9162 3.38197 36.3225 3.3801 36.9414C3.37638 37.9629 3.3801 38.9862 3.3801 40.0077C3.37451 43.1783 4.73336 45.5829 7.49393 47.1393C8.50608 47.7097 9.63752 48.0154 10.8156 48.0303C13.1437 48.0601 14.5025 49.4413 14.5454 51.762C14.5995 54.7257 15.6936 57.3036 17.6098 59.5442C18.2268 60.2655 18.8195 61.0093 19.4813 61.6859C20.7916 63.0242 23.0359 62.7968 24.0536 61.2031C24.7359 60.1332 25.4479 59.1415 26.6409 58.5693C27.6455 58.0865 28.6931 58.0045 29.763 58.0958C30.6018 58.1685 31.2524 58.957 31.2729 59.8349C31.34 62.5713 33.9402 64.3253 36.643 63.438C36.6803 63.4269 36.7027 63.3691 36.7306 63.3337C36.9562 63.2311 37.1351 63.356 37.2954 63.4753C37.8882 63.9245 38.6058 64.1985 39.1072 64.7764C37.6962 66.1725 36.0242 66.9833 34.0167 67.0001C31.9551 67.0169 30.2943 65.44 30.1657 63.3728C30.0836 62.0475 29.448 61.4547 28.1414 61.4193C25.9139 61.3597 24.268 62.2656 23.1664 64.2265C22.0461 66.221 19.5726 66.4857 18.0833 64.7652C16.4914 62.9273 14.8306 61.1267 14.072 58.7221C13.6917 57.518 13.4475 56.2989 13.4252 55.037C13.3841 52.8207 12.0216 51.4377 9.82206 51.3799C5.62994 51.2699 2.3139 47.9147 2.26916 43.7245C2.25798 42.6322 2.27289 41.5417 2.26357 40.4494C2.25798 39.5789 1.96906 39.2397 1.10044 39.1111C0.556156 39.0291 0.121846 38.7532 0.0789741 38.2238C0.00255044 37.3049 -0.0981051 36.3636 0.209453 35.4614C0.382805 34.9525 0.666131 34.4977 1.14145 34.2013H1.13772Z" fill="#56C4C6"/>
<path d="M39.1032 64.7783C38.2532 64.3924 37.53 63.7997 36.7285 63.3355C34.2326 61.4007 32.2102 59.0707 30.8774 56.1927C28.4337 50.9102 28.3778 45.5903 30.7041 40.2518C30.7879 40.0617 30.8644 39.8679 30.9445 39.6759C32.3462 36.865 34.2736 34.5014 36.8552 32.6896C37.0379 33.0028 36.8049 33.2209 36.6632 33.4427C34.5532 36.7475 33.5448 40.3674 33.7014 44.2762C33.8747 48.5876 35.3547 52.4219 38.1638 55.7193C38.4937 56.107 38.846 56.4798 39.0566 56.9551L39.1014 57.1117C39.2617 57.4043 39.3083 57.7175 39.3083 58.0474C39.3083 59.9878 39.312 61.9282 39.3027 63.8686C39.3027 64.1855 39.3399 64.5229 39.079 64.782H39.1032V64.7783Z" fill="#DC1F2D"/>
<path d="M39.0563 56.9532C37.7385 55.7267 36.7133 54.2709 35.8503 52.7071C34.6051 50.4554 33.8837 48.0452 33.6209 45.4673C33.1587 40.9453 34.2416 36.8445 36.6909 33.0625C36.7636 32.9487 36.8009 32.8127 36.855 32.6878C36.9985 32.5648 37.1401 32.4417 37.2837 32.3187C37.8746 31.9851 38.4673 31.6495 39.0582 31.314C39.0656 34.6804 39.0731 38.0468 39.0806 41.4131C39.0806 41.7617 39.0955 42.1084 39.1029 42.457C39.1029 46.1756 39.1029 49.8962 39.1029 53.6148C39.088 54.7276 39.0731 55.8404 39.0582 56.9532H39.0563Z" fill="#DC1F2D"/>
<path d="M39.0791 64.7801C39.0866 62.2227 39.094 59.6672 39.1015 57.1098C40.7362 58.5544 42.4622 59.8629 44.4642 60.7725C46.3487 61.6281 48.3059 62.1892 50.373 62.4147C54.9491 62.9143 59.1263 61.8443 62.9699 59.3578C63.0482 59.3074 63.1153 59.2329 63.2066 59.3298C60.213 63.3784 56.211 65.8221 51.2789 66.7131C47.0011 67.4866 42.932 66.7765 39.0791 64.7801V64.7801Z" fill="#333333"/>
<path d="M47.307 29.0717C46.9827 29.2823 46.6583 29.2879 46.334 29.0717C46.6583 29.0717 46.9827 29.0717 47.307 29.0717Z" fill="#159A1A"/>
<path d="M49.4042 29.204C49.1693 29.176 48.9046 29.2972 48.707 29.0717C48.9382 29.0717 49.1693 29.0717 49.4004 29.0717C49.4452 29.0996 49.4619 29.1294 49.447 29.1593C49.4321 29.1891 49.4172 29.204 49.4023 29.204H49.4042Z" fill="#159A1A"/>
<path d="M49.4042 29.204C49.4042 29.1592 49.4023 29.1164 49.4023 29.0716C49.6391 29.0977 49.9038 28.9766 50.1032 29.204C49.8702 29.204 49.6372 29.204 49.4061 29.204H49.4042Z" fill="#159A1A"/>
<path d="M45.497 29.2096C45.3013 29.437 45.0366 29.3158 44.8018 29.3457C44.9975 29.1145 45.2622 29.2357 45.497 29.2096Z" fill="#159A1A"/>
<path d="M51.212 29.3438C50.9772 29.3158 50.7144 29.437 50.5205 29.2077C50.7554 29.2357 51.0182 29.1127 51.212 29.3438Z" fill="#159A1A"/>
</svg>
