<svg width="57" height="64" viewBox="0 0 57 64" fill="none" xmlns="http://www.w3.org/2000/svg">
<path d="M34.8235 63.5086C34.5832 62.355 34.5335 61.1783 34.3959 60.0132C34.1788 58.1702 33.9866 56.3239 33.7744 54.3748C34.613 54.5621 35.4053 54.6168 36.1876 54.4311C37.6427 54.0864 38.7615 53.2726 39.552 51.9965C41.1464 49.4192 42.759 46.852 44.3402 44.2665C44.5623 43.9052 44.7495 43.8041 45.1639 43.93C46.4848 44.3311 47.8223 44.6709 49.1466 45.0603C53.9579 46.4741 56.9561 50.465 56.9859 55.4885C56.9975 57.5553 56.9661 59.622 56.9992 61.6871C57.0125 62.5042 56.7887 63.1324 56.0296 63.5086H34.8252H34.8235Z" fill="#56C4C6"/>
<path d="M0.970228 63.5086C0.219438 63.1274 -0.0142522 62.5059 0.000664158 61.6872C0.0437559 59.3337 -0.0623161 56.9736 0.0735886 54.6251C0.340426 50.0093 3.40325 46.3183 7.84833 45.067C9.17589 44.6941 10.5101 44.3444 11.8327 43.9516C12.2271 43.8339 12.4293 43.8787 12.663 44.2599C14.2077 46.794 15.7921 49.3049 17.3534 51.8291C18.608 53.8561 20.3831 54.7925 22.7746 54.4527C23.063 54.4113 23.2271 54.3881 23.1824 54.7825C22.8559 57.6531 22.5459 60.5253 22.2294 63.3976C22.2244 63.4357 22.1929 63.4705 22.1747 63.507H0.970228V63.5086Z" fill="#56C4C6"/>
<path d="M28.4776 12.9902C32.7553 12.9902 37.0313 12.9902 41.309 12.9902C42.5272 12.9902 42.8686 13.2769 43.1338 14.4586C43.4056 15.6751 43.5216 16.9049 43.4984 18.1496C43.4818 18.9849 43.2349 19.7506 42.6498 20.3489C42.3399 20.6655 42.2819 20.9969 42.2653 21.3997C42.1509 24.257 41.7714 27.0679 40.8433 29.7893C39.6251 33.361 37.1622 35.973 34.4176 38.4209C32.7603 39.8976 30.9554 40.6733 28.7378 40.5009C28.1014 40.4512 27.4567 40.4943 26.8169 40.4661C25.67 40.4147 24.6292 40.0269 23.7375 39.3209C22.3602 38.2303 21.0609 37.0503 19.8477 35.7758C17.0997 32.887 15.6843 29.3866 15.1109 25.4967C14.8971 24.0449 14.7446 22.5864 14.7297 21.1179C14.7264 20.8478 14.6336 20.6588 14.4463 20.4699C13.785 19.807 13.5049 18.9899 13.5049 18.0601C13.5049 16.7955 13.6076 15.5442 13.8861 14.3094C14.1082 13.325 14.5076 12.9951 15.5252 12.9951C19.8427 12.9902 24.1618 12.9935 28.4793 12.9935L28.4776 12.9902Z" fill="#2F4859"/>
<path d="M28.4757 62.5308C27.4631 62.5308 26.4504 62.5142 25.4394 62.539C25.0632 62.549 24.9986 62.4247 25.0383 62.08C25.3582 59.3121 25.6532 56.541 25.9814 53.7732C26.0427 53.2627 26.0079 52.8484 25.5505 52.5335C25.3831 52.4191 25.2555 52.2451 25.1096 52.0992C24.7732 51.7628 24.4914 51.3103 24.087 51.123C23.6147 50.9043 23.3163 51.5059 22.9003 51.675C21.8065 52.1175 20.5303 51.8274 19.8773 50.8148C18.5365 48.7364 17.257 46.6183 15.941 44.5234C15.7919 44.2847 15.8416 44.1753 16.0603 44.0411C17.6779 43.05 19.2972 42.0638 20.8966 41.0462C21.2595 40.8158 21.407 41.0247 21.6142 41.2252C23.7655 43.3085 25.925 45.3852 28.0647 47.4818C28.3929 47.805 28.5735 47.8464 28.9282 47.4967C31.0629 45.3952 33.2307 43.3284 35.3704 41.2318C35.6721 40.9352 35.8726 40.8888 36.2505 41.1324C37.7405 42.092 39.2536 43.0152 40.7735 43.9284C41.1232 44.1389 41.2243 44.2831 40.9773 44.6725C39.7376 46.62 38.536 48.5922 37.3079 50.5479C36.4063 51.9816 34.9262 52.3014 33.5423 51.312C33.1031 50.9987 32.9241 51.133 32.5462 51.4131C31.1938 52.4208 30.8375 53.6207 31.164 55.3013C31.5916 57.5023 31.6877 59.7679 31.9562 62.0021C32.0109 62.4595 31.8816 62.5523 31.4507 62.539C30.4596 62.5076 29.4685 62.5291 28.4757 62.5291V62.5308Z" fill="#36B8BA"/>
<path d="M11.8389 9.34232C11.8836 8.10095 12.4604 6.95073 13.7399 6.21983C15.3724 5.28673 17.1458 4.66687 18.8711 3.93762C21.5063 2.82221 24.1266 1.67034 26.7121 0.442222C27.8425 -0.0947669 28.9861 -0.169349 30.118 0.365983C33.9532 2.17915 37.8746 3.79509 41.776 5.45744C42.4406 5.74085 43.0887 6.05906 43.6721 6.48998C45.0974 7.54241 45.5814 9.65059 44.7825 11.2251C44.6565 11.4737 44.5936 11.5367 44.3599 11.3262C43.5196 10.5655 42.5053 10.3086 41.3915 10.3102C32.7964 10.3169 24.2012 10.3169 15.6061 10.3102C14.4923 10.3102 13.478 10.5622 12.6344 11.3196C12.409 11.5234 12.3261 11.4953 12.2085 11.2268C11.9715 10.6881 11.8422 10.1345 11.8389 9.34398V9.34232Z" fill="#2F4859"/>
<path d="M17.5178 21.519C18.5122 22.4853 19.5 23.4399 20.4828 24.4012C21.638 25.5315 22.9987 26.2591 24.6047 26.4862C25.0323 26.5458 25.4682 26.5608 25.9008 26.5624C27.6361 26.5707 29.373 26.5475 31.1083 26.5707C33.2711 26.6005 35.1125 25.8514 36.6107 24.3101C37.5322 23.362 38.3891 22.351 39.3918 21.4561C39.6056 22.3394 39.4929 23.1002 39.4084 23.8609C39.0836 26.7613 38.4024 29.5457 36.7583 32.0168C35.3661 34.1118 33.5065 35.7542 31.5508 37.2807C30.4403 38.1475 26.6035 38.1193 25.4666 37.2923C21.159 34.1565 18.2354 30.1589 17.6852 24.6912C17.5841 23.6852 17.4515 22.6825 17.415 21.6699C17.415 21.64 17.4565 21.6069 17.5178 21.519Z" fill="#F5F7FA"/>
</svg>
