<svg width="55" height="64" viewBox="0 0 55 64" fill="none" xmlns="http://www.w3.org/2000/svg">
<path d="M54.2714 52.199C53.2156 53.5431 51.9104 54.6301 50.5916 55.6917C44.6931 60.439 37.9627 63.1526 30.422 63.8539C30.2876 63.8656 30.122 63.8188 30.0499 64H28.5928C28.4487 63.8422 28.4857 63.661 28.6026 63.5383C29.4168 62.687 30.1201 61.715 31.1817 61.1267C31.5966 61.1656 31.922 60.9221 32.2707 60.7702C36.4199 58.9546 40.162 56.5391 43.4016 53.3424C46.2924 50.4886 48.7527 47.3368 50.5955 43.7096C50.7455 43.4154 50.8644 43.0609 51.3046 43.0804C51.8403 43.2576 52.1715 43.6901 52.5007 44.0972C53.7357 45.6245 54.4545 47.3699 54.476 49.3451C54.4857 50.2958 54.6863 51.2756 54.2675 52.2029L54.2714 52.199Z" fill="#4A80A9"/>
<path d="M31.2111 61.226C30.3052 62.1182 29.2611 62.8818 28.5929 63.998H27.7183C27.578 63.3201 28.1488 62.8896 28.2988 62.313C29.1734 60.3552 30.1396 58.4364 30.8643 56.4125C32.4266 52.4755 33.6577 48.4432 34.324 44.2511C34.3395 44.1537 34.324 44.0582 34.3181 43.9608C34.4993 42.2057 34.5772 40.4525 34.2441 38.7031C34.0941 37.9181 33.9012 37.1506 33.5798 36.4162C33.4668 36.1571 33.2974 35.9 33.4162 35.5922C33.5954 35.5493 33.7454 35.6195 33.9012 35.6974C36.0772 36.7688 38.2531 37.8363 40.4271 38.9116C40.6199 39.007 40.7894 39.1512 40.9706 39.272C41.4712 39.6733 41.3777 40.1642 41.1556 40.6551C40.8069 41.4284 40.3998 42.1764 40.0297 42.9401C39.4745 44.0894 39.5407 44.5024 40.4154 45.4043C40.6511 45.6478 40.8985 45.8815 41.0991 46.1582C41.5705 46.8107 41.7225 47.5023 41.4322 48.2834C40.8089 49.9607 39.8621 51.4587 38.8239 52.8944C36.7434 55.7696 34.3727 58.3975 31.8247 60.8656C31.6513 61.0331 31.4779 61.2104 31.213 61.2279L31.2111 61.226Z" fill="#365E7D"/>
<path d="M13.2636 39.3188C13.3961 39.2136 13.5149 39.0831 13.6629 39.009C16.0122 37.8597 18.3654 36.7201 20.7186 35.5767C20.9173 35.828 20.8141 36.0909 20.7128 36.3286C19.6764 38.787 19.6784 41.3466 19.9491 43.9336C20.2647 46.5089 20.8822 49.0179 21.6459 51.4919C22.1601 53.1555 22.7776 54.784 23.401 56.4086C24.2153 58.6293 25.236 60.7585 26.2509 62.8916C26.3483 63.2617 26.7165 63.5597 26.549 64H25.8204C25.4834 63.8286 25.1717 63.6221 24.9204 63.3338C21.6829 60.1488 18.4375 56.9716 15.7317 53.2996C14.7499 51.9691 13.8597 50.5802 13.1564 49.0763C12.3831 47.4244 12.4863 46.7894 13.7525 45.5037C14.7636 44.4771 14.82 44.1128 14.1714 42.8018C13.8149 42.083 13.4448 41.372 13.1077 40.6454C12.8915 40.1798 12.8272 39.7162 13.2616 39.3188H13.2636Z" fill="#365E7D"/>
<path d="M26.5516 63.9981L26.1133 62.9832C26.8321 62.5585 27.5801 62.2546 28.4411 62.3988C28.1996 62.9325 27.958 63.4663 27.7165 64H26.5496L26.5516 63.9981Z" fill="#DA636E"/>
<path d="M25.0946 63.2695C25.3946 63.4565 25.64 63.6961 25.8251 63.998H24.0758C23.6881 63.663 23.1582 63.9922 22.7589 63.7156C22.7414 63.6123 22.7686 63.5013 22.8621 63.4721C23.5907 63.252 24.3154 62.9442 25.0946 63.2695Z" fill="#417194"/>
<path d="M20.8807 35.4442C20.8768 34.1604 20.8573 32.8747 20.8807 31.591C20.8885 31.18 20.7463 30.9306 20.4171 30.691C17.6275 28.6651 15.9951 25.9496 15.6133 22.5075C15.5451 21.8938 15.4107 21.4555 14.6315 21.3406C13.6166 21.1906 13.1471 20.4757 13.1413 19.414C13.1354 18.1537 13.1413 16.8933 13.1413 15.6329C13.3672 15.3505 13.6906 15.3583 14.0062 15.3485C14.5399 15.333 15.0737 15.3641 15.6055 15.3291C16.6204 15.2628 17.2671 14.731 17.5496 13.759C17.7152 13.1901 17.6762 12.6057 17.6938 12.0252C17.7541 9.96425 19.3846 8.75065 21.3755 9.31946C23.3215 9.87464 25.2929 10.2311 27.3188 10.237C28.3143 10.2389 29.298 10.0811 30.2798 9.93308C30.6383 9.87854 30.9947 9.78698 31.361 9.8649C31.9161 10.0324 31.8908 10.5019 31.8967 10.9344C31.9161 12.2687 31.9025 13.6031 31.9045 14.9395C31.9045 17.318 31.9045 19.6965 31.9045 22.075C31.9045 26.6197 30.3831 29.7151 26.7247 32.526C28.6688 32.6429 30.422 32.23 32.1031 31.4254C32.5044 31.2326 32.8804 30.8975 33.3888 31.0573C33.3888 32.5163 33.3869 33.9754 33.3849 35.4364C33.3304 35.7812 33.1375 36.0403 32.9155 36.3032C31.0999 38.4655 29.2396 40.5927 27.4416 42.7706C27.3422 42.8193 27.239 42.8252 27.1318 42.7901C25.8247 41.3388 24.539 39.8681 23.2339 38.4129C22.6047 37.7116 21.993 36.9967 21.3541 36.3032C21.1222 36.0519 20.8807 35.8162 20.8748 35.4442H20.8807Z" fill="#FEDCCD"/>
<path d="M25.0942 63.2694C24.3228 63.4506 23.5124 63.4331 22.7585 63.7155C18.6989 63.2928 14.8418 62.1513 11.1601 60.4039C7.13554 58.4949 3.57069 55.9411 0.457781 52.7561C0.290253 52.5846 0.151944 52.3859 0 52.2009C0.111036 50.8977 -0.0857122 49.5847 0.140256 48.2815C0.662322 45.2738 2.28501 43.0472 5.10767 41.9485C7.76475 40.9141 10.5407 40.1836 13.264 39.3187C13.0614 39.8291 13.1412 40.2986 13.4042 40.7797C13.8211 41.5472 14.2068 42.3323 14.5847 43.1212C15.0308 44.0504 14.9607 44.6602 14.2146 45.3517C12.4809 46.9607 12.5997 47.4575 13.6029 49.4678C14.8126 51.8931 16.4918 53.9911 18.2294 56.0501C20.2982 58.5027 22.6202 60.7078 24.8741 62.9811C24.9578 63.0649 25.0202 63.172 25.0922 63.2694H25.0942Z" fill="#4A80A9"/>
<path d="M31.3245 10.048C29.2908 10.387 27.2551 10.6324 25.1844 10.3753C23.9065 10.2175 22.6559 9.96036 21.4247 9.59414C19.4222 8.99805 17.9417 10.0967 17.9242 12.1889C17.8988 15.0174 17.2716 15.6407 14.4509 15.6407C14.0145 15.6407 13.5782 15.6368 13.1438 15.6349C13.1399 13.1337 13.1223 10.6324 13.136 8.13118C13.1632 3.62545 16.4047 0.189168 20.9085 0.0644961C24.9604 -0.0465402 29.0181 0.02164 33.0719 0.0119C33.2881 0.0119 33.5121 -0.00368407 33.6952 0.154104C33.442 0.452149 33.0835 0.448253 32.7524 0.426825C32.1017 0.387865 31.9225 0.689806 31.9264 1.29758C31.944 3.82025 31.9342 6.34292 31.9342 8.86558C31.9342 9.13246 31.9576 9.39933 31.905 9.66426C31.8914 10.0656 31.5407 9.95646 31.3225 10.048H31.3245Z" fill="#2F4859"/>
<path d="M31.324 10.048C31.4955 9.96623 31.6649 9.88636 31.8364 9.80454C32.7578 9.13248 33.7571 8.89482 34.8324 9.36819C35.8921 9.83571 36.5486 10.6227 36.5642 11.8363C36.572 12.4207 36.5856 13.0012 36.7025 13.5759C36.9246 14.6668 37.6025 15.2726 38.7109 15.3388C39.2193 15.37 39.7316 15.3427 40.2401 15.3544C40.5556 15.3602 40.8771 15.3544 41.1186 15.6154C41.1225 16.9245 41.1361 18.2336 41.1244 19.5426C41.1167 20.501 40.5517 21.2685 39.6128 21.3874C38.9329 21.4731 38.7596 21.851 38.705 22.3867C38.5589 23.8224 38.1635 25.1782 37.5187 26.4697C36.5642 28.3827 35.1519 29.8729 33.3928 31.0573C31.2636 32.2748 29.004 32.9761 26.5242 32.8046C26.3878 32.7949 26.2358 32.8592 26.0527 32.6624C26.941 32.0761 27.765 31.4274 28.4897 30.6579C30.1883 28.8541 31.1994 26.7424 31.5188 24.2821C31.7955 22.1529 31.6084 20.0199 31.6455 17.8888C31.6844 15.5336 31.6591 13.1785 31.6494 10.8233C31.6494 10.535 31.7857 10.1591 31.326 10.05L31.324 10.048Z" fill="#FECABD"/>
<path d="M51.1721 43.0433C51.1741 43.0803 51.1799 43.1173 51.1877 43.1524C50.4709 44.2725 49.9059 45.4783 49.1988 46.6081C48.1177 48.3399 46.8904 49.9568 45.5405 51.4684C41.7087 55.7599 37.127 59.0267 31.7992 61.2279C31.6005 61.3097 31.4077 61.4597 31.2129 61.224C32.1109 60.3026 33.0401 59.4124 33.8992 58.4559C36.492 55.5748 39.0965 52.6976 40.8224 49.1659C41.6912 47.3893 41.6191 46.9315 40.2146 45.5212C39.2815 44.5822 39.1978 44.105 39.7783 42.9362C40.1348 42.2193 40.4757 41.4927 40.8614 40.7914C41.1399 40.2869 41.2198 39.796 40.9685 39.2681C43.4503 40.0551 45.932 40.8479 48.4177 41.6252C49.4209 41.9388 50.3033 42.4745 51.1741 43.0433H51.1721Z" fill="#4A7FA9"/>
<path d="M41.1207 15.6155C40.324 15.6155 39.5253 15.6233 38.7286 15.6096C37.4974 15.5901 36.5721 14.77 36.4319 13.5447C36.3637 12.9467 36.3949 12.3389 36.3442 11.737C36.2059 10.1065 34.7566 9.08575 33.1651 9.4773C32.7229 9.58638 32.2807 9.69352 31.8365 9.80261C31.6086 9.62534 31.6534 9.3721 31.6534 9.13445C31.6515 6.37997 31.667 3.62744 31.6398 0.872958C31.6339 0.284661 31.8307 0.0957041 32.3917 0.144404C32.8222 0.181416 33.2605 0.152196 33.6949 0.152196C35.2027 0.430761 36.2702 1.65411 36.4397 3.29822C36.5468 4.33456 36.8526 4.61897 37.9123 4.67157C39.6597 4.75728 41.1012 6.16764 41.1207 7.90136C41.1499 10.4727 41.1227 13.0441 41.1207 15.6135V15.6155Z" fill="#2F4859"/>
<path d="M20.8809 35.4442C22.7432 37.5266 24.6055 39.609 26.4678 41.6915C26.7405 41.9953 27.0386 42.2817 27.1321 42.7025C27.0308 43.2674 26.5185 43.4719 26.1542 43.8031C25.3185 44.5648 24.4399 45.2777 23.5594 45.9888C22.453 46.69 21.6816 46.6004 20.7913 45.6518C20.3433 45.1745 19.9284 44.6719 19.7258 44.031C19.3693 41.2045 19.4004 38.4227 20.7037 35.791C20.7329 35.7306 20.7173 35.6468 20.7212 35.5747C20.7738 35.5299 20.8283 35.4871 20.8809 35.4423V35.4442Z" fill="#F3FAFE"/>
<path d="M27.422 42.72C27.4921 41.9661 28.1544 41.6096 28.5655 41.107C30.1355 39.1844 31.7758 37.3201 33.3907 35.4344C33.3985 35.4851 33.4043 35.5377 33.4121 35.5883C34.2575 36.9325 34.5517 38.4441 34.6744 39.9869C34.7815 41.335 34.7776 42.6888 34.54 44.031C34.3121 44.5414 34.0179 45.0089 33.6556 45.4375C32.7926 46.4582 31.8303 46.5907 30.7219 45.8271C29.7362 45.0225 28.7758 44.1907 27.8272 43.3433C27.6441 43.1797 27.3655 43.0492 27.4239 42.718L27.422 42.72Z" fill="#F3FAFE"/>
<path d="M28.4425 62.3968C27.6711 62.611 26.9289 62.9364 26.1146 62.9812C24.9984 60.9143 24.0614 58.7676 23.2277 56.5722C23.1517 55.9352 23.3348 55.343 23.4946 54.7372C23.9991 52.8243 24.4647 50.8996 24.9497 48.9808C25.0432 48.6127 25.0919 48.2114 25.4582 47.9737C26.5685 47.738 27.6789 47.7517 28.7892 47.9601C29.1457 48.1646 29.2061 48.5367 29.2957 48.8854C29.8645 51.1139 30.3983 53.3502 30.9924 55.5729C31.084 55.9157 30.9613 56.245 31.0392 56.5742C30.2834 58.565 29.4438 60.5169 28.4405 62.3968H28.4425Z" fill="#E18085"/>
<path d="M31.0393 56.5742C30.2387 53.7807 29.5062 50.9678 28.9102 48.1237C29.292 47.1127 29.9173 46.2828 30.7802 45.6322C31.9276 46.4017 32.7536 46.2575 33.5659 45.1744C33.8659 44.7751 34.2146 44.4108 34.5418 44.0329C34.0178 48.3925 32.6581 52.5204 31.0413 56.5761L31.0393 56.5742Z" fill="#E3F5FE"/>
<path d="M25.3573 48.1257C25.0378 50.025 24.4514 51.86 24.0073 53.7281C23.7794 54.6846 23.4891 55.6255 23.2281 56.5742C21.6093 52.5204 20.2457 48.3945 19.7256 44.0329C20.1386 44.5277 20.5301 45.042 20.9723 45.5114C21.8353 46.4251 22.4431 46.4776 23.493 45.7803C24.3501 46.3744 24.9443 47.177 25.3573 48.1257Z" fill="#E3F5FE"/>
<path d="M25.3574 48.1257C24.736 47.3445 24.1146 46.5614 23.4932 45.7803C24.7068 44.7537 25.9184 43.7291 27.132 42.7025C27.2275 42.7083 27.3249 42.7141 27.4203 42.72C28.5404 43.692 29.6586 44.6621 30.7787 45.6342C30.1553 46.464 29.532 47.2939 28.9086 48.1257C27.7242 48.1257 26.5398 48.1257 25.3555 48.1257H25.3574Z" fill="#DC636E"/>
</svg>
