<svg width="65" height="65" viewBox="0 0 65 65" fill="none" xmlns="http://www.w3.org/2000/svg">
<path d="M34.4263 37.8694C34.452 41.1075 33.5872 43.659 32.4142 46.1197C30.4724 50.1919 27.8078 53.7811 24.9019 57.2025C22.883 59.5793 20.7442 61.8448 18.4684 63.9785C17.619 64.773 16.8484 64.8141 16.047 64.0487C11.1221 59.3464 6.62192 54.2914 3.19197 48.3647C1.76724 45.9023 0.578829 43.3251 0.174701 40.4791C-0.426355 36.2374 0.525744 32.2938 2.99675 28.8364C7.27777 22.8447 13.1753 20.3446 20.4325 21.6032C27.3404 22.8002 32.6454 28.1686 34.089 35.0285C34.3184 36.1141 34.44 37.2186 34.4246 37.8711L34.4263 37.8694Z" fill="#56C4C6"/>
<path d="M54.1184 0.00286716C60.3242 0.00286716 65.2165 5.04762 64.9922 11.1181C64.9151 13.221 64.0778 15.0858 62.9818 16.8393C60.9338 20.1168 58.2299 22.7985 55.264 25.2352C54.6253 25.7609 53.9249 25.7986 53.3255 25.3071C49.9932 22.5707 46.9913 19.5483 44.8645 15.7313C41.1178 9.01014 45.5649 1.42588 52.2108 0.198082C52.882 0.0747883 53.5584 -0.0176817 54.1167 0.00286716H54.1184Z" fill="#3A556A"/>
<path d="M34.651 44.9758C34.9472 44.0032 35.2452 43.0751 35.5037 42.1367C35.5808 41.8541 35.7555 41.9038 35.937 41.9021C36.7915 41.8986 37.646 41.9021 38.4988 41.9021C42.7695 41.9021 47.0402 41.8986 51.311 41.9021C57.0253 41.9072 61.5426 45.6334 62.642 51.2381C63.827 57.2778 59.3919 63.5058 53.3025 64.3278C51.0302 64.6343 48.739 64.4665 46.458 64.4836C39.605 64.5401 32.7502 64.5504 25.8954 64.5795C25.7892 64.5795 25.6814 64.5795 25.5752 64.5795C24.57 64.5624 23.8868 63.9459 23.8799 63.052C23.8748 62.1547 24.5563 61.5126 25.5546 61.5074C27.6044 61.4937 29.6542 61.4972 31.7039 61.4886C38.3018 61.4578 44.8997 61.4338 51.4977 61.3893C55.866 61.3602 59.2566 58.2282 59.7155 53.8359C60.1282 49.887 57.3267 46.1078 53.2871 45.1711C52.6398 45.0204 51.9823 44.9724 51.3178 44.9741C46.0008 44.9793 40.6838 44.9776 35.3668 44.9776H34.6493L34.651 44.9758Z" fill="#3A556A"/>
<path d="M26.9053 22.4251H27.592C33.5854 22.4251 39.5788 22.4251 45.5722 22.4234C45.9593 22.4234 46.3394 22.4303 46.6853 22.6341C47.247 22.9646 47.5604 23.6615 47.4234 24.2745C47.2795 24.9133 46.7487 25.4047 46.0928 25.4852C45.9027 25.5092 45.7092 25.4989 45.5175 25.4989C40.7826 25.4989 36.0478 25.4938 31.313 25.5092C30.8969 25.5092 30.6058 25.391 30.3164 25.0931C29.3472 24.0982 28.241 23.2694 26.9053 22.4251Z" fill="#3A556A"/>
<path d="M17.2079 49.7569C10.8909 49.7141 5.89575 44.6591 5.9437 38.3574C5.98994 32.1756 11.1374 27.1463 17.3501 27.2113C23.5507 27.2764 28.5304 32.3794 28.4893 38.6246C28.4499 44.755 23.3401 49.798 17.2096 49.7569H17.2079Z" fill="#FEFEFE"/>
<path d="M54.243 15.8889C51.4484 15.894 49.1366 13.6097 49.1212 10.8287C49.1041 7.96215 51.3901 5.64869 54.2464 5.64184C57.0633 5.63328 59.3682 7.9416 59.3665 10.7671C59.3665 13.5943 57.0753 15.8838 54.243 15.8889V15.8889Z" fill="#FEFEFE"/>
</svg>
