<svg width="69" height="37" viewBox="0 0 69 37" fill="none" xmlns="http://www.w3.org/2000/svg">
<path d="M0.6248 21.2924C1.06228 22.6048 1.50717 23.9172 1.94095 25.2334C2.1189 25.7672 2.27832 26.3011 2.44516 26.8387C2.73434 26.9166 3.0124 26.8387 3.29046 26.7831C9.40775 25.5263 15.5325 24.3028 21.6979 23.2981C26.5139 22.5121 31.3447 21.8003 36.1904 21.2145C38.8968 20.8882 41.607 20.5991 44.3208 20.3544C46.4415 20.1616 48.5658 20.0059 50.6939 19.8909C53.3262 19.7501 55.9585 19.6092 58.5982 19.6351C58.7317 19.6351 58.8614 19.6166 58.9875 19.5832C59.0987 19.5498 59.1914 19.4905 59.2692 19.409C60.3333 17.6702 61.2157 15.8387 61.9312 13.9331C62.0128 13.7143 62.2204 13.44 61.857 13.2546C61.0711 13.1026 60.2777 13.2027 59.488 13.1879C58.7539 13.1619 58.0161 13.173 57.282 13.1879C55.4839 13.3473 53.6784 13.2768 51.8766 13.3881C50.9794 13.4177 50.097 13.6068 49.1961 13.5846C47.3757 13.6847 45.5591 13.8515 43.7424 14.0109C39.9757 14.3446 36.2237 14.7969 32.4718 15.2826C27.1071 15.9759 21.761 16.8249 16.4408 17.7962C16.007 17.8741 15.5732 17.9408 15.1432 18.0298C14.8837 18.0817 14.6204 18.1336 14.4795 18.4005C12.8928 18.5637 11.3393 18.9381 9.7785 19.2458C6.82366 19.8279 3.87623 20.4471 0.925103 21.0514C0.821294 21.0736 0.721192 21.1292 0.617384 21.17V21.3035L0.6248 21.2924Z" fill="#56C4C6"/>
<path d="M3.93196 31.3024C3.94679 31.4322 3.94679 31.5694 3.98386 31.6917C4.44358 33.1339 4.92556 34.5687 5.37045 36.0146C5.51133 36.4743 5.76344 36.6152 6.23429 36.6152C23.7854 36.6078 41.3364 36.6078 58.8875 36.6078C59.0988 36.6078 59.3324 36.6857 59.5029 36.478C59.2694 36.2519 58.9728 36.2927 58.691 36.2927C51.1315 36.289 43.5683 36.289 36.0088 36.2927C35.2562 36.2927 34.5073 36.4002 33.7584 36.4484C39.6125 36.0702 44.814 33.9422 49.5373 30.5424C51.6876 28.9927 53.5599 27.139 55.2876 25.1407C55.4878 24.9108 55.7918 24.6846 55.6509 24.2917C55.0169 24.0136 54.3459 24.1026 53.7045 24.1804C52.5033 24.325 51.2946 24.3028 50.0897 24.3806C46.6937 24.6031 43.3051 24.8886 39.9202 25.2482C33.6694 25.9081 27.4483 26.7905 21.2495 27.8249C15.9181 28.7146 10.6054 29.7157 5.31483 30.8242C4.84028 30.9243 4.28417 30.8501 3.92825 31.3099L3.93196 31.3024Z" fill="#56C4C6"/>
<path d="M3.93198 31.3025C7.65797 30.5647 11.3803 29.8084 15.1137 29.0965C19.5366 28.2549 23.9819 27.5246 28.4419 26.8869C32.3125 26.3345 36.1979 25.8525 40.087 25.4187C44.9846 24.8737 49.8969 24.5104 54.8204 24.3325C55.1059 24.3213 55.3914 24.3325 55.6769 24.3399C55.7362 24.3732 55.7955 24.3807 55.8585 24.3547C57.1154 22.9348 58.1164 21.3294 59.0951 19.7167C59.1544 19.6203 59.1804 19.5128 59.0988 19.409C54.5683 19.4127 50.049 19.6944 45.5333 20.0615C40.3614 20.4804 35.2154 21.0884 30.0806 21.8151C22.536 22.8866 15.0284 24.1767 7.56528 25.7153C5.97479 26.0416 4.38058 26.3604 2.79008 26.6867C2.66403 26.7126 2.51944 26.6941 2.44529 26.8387C2.95692 28.3217 3.33137 29.8491 3.93198 31.3062V31.3025Z" fill="#F5F7FA"/>
<path d="M24.3964 5.05371C24.2852 5.48007 23.933 5.30953 23.6846 5.30953C17.875 5.32065 12.0692 5.31694 6.25958 5.31694H5.4217C5.78132 5.90642 6.10016 6.43288 6.42642 6.95563C6.58954 7.21515 6.78233 7.45985 6.93063 7.72678C7.5127 8.79453 8.26161 9.36918 9.59258 9.63983C12.3509 10.2034 13.934 12.1238 14.5902 14.897C14.7052 15.379 14.6162 15.9054 14.6236 16.4096C17.5895 15.6793 20.6148 15.2603 23.6216 14.7672C28.2188 14.0146 32.8346 13.3769 37.4615 12.8394C38.292 12.743 39.1224 12.6874 39.9492 12.5465C40.1568 12.5094 40.446 12.4909 40.4868 12.2462C40.5164 12.0497 40.2754 11.931 40.1049 11.8309C39.5933 11.5306 39.115 11.1784 38.5848 10.9115C37.5875 10.7409 36.631 11.0894 35.6522 11.1673C34.6512 11.2452 33.6576 11.5455 32.6455 11.3304C31.448 11.0783 30.5026 10.4481 29.9131 9.35065C29.5609 8.69072 29.6128 8.5795 30.3321 8.45715C30.9364 8.35334 31.5444 8.25324 32.1487 8.15314C32.386 8.11236 32.6307 8.09011 32.8123 7.90474C32.9199 7.48951 32.5454 7.47097 32.3304 7.34121C31.0216 6.55523 29.6239 5.94721 28.2522 5.28357C27.748 5.06854 27.2141 5.14269 26.6876 5.13527C25.9202 5.12415 25.1527 5.15381 24.389 5.06113L24.3964 5.05371Z" fill="#56C4C6"/>
<path d="M55.8171 24.2917L55.6762 24.3399C49.963 31.4248 42.5852 35.4548 33.5279 36.4743C42.1885 36.4743 50.8491 36.4743 59.5097 36.4743C60.0769 34.9765 60.6516 33.4861 61.204 31.9846C62.142 29.4339 63.0614 26.8758 63.9883 24.3213C63.8771 24.199 63.7288 24.1471 63.5768 24.1508C62.3125 24.1767 61.052 23.9988 59.7877 24.0915C58.8053 24.1619 57.8228 24.1137 56.8403 24.1248C56.4881 24.1285 56.1396 24.1322 55.8171 24.2991V24.2917Z" fill="#36B8BA"/>
<path d="M38.5149 10.9968C39.0747 11.4899 39.7606 11.7939 40.4836 12.2907C39.223 12.439 38.0737 12.5687 36.9244 12.7096C35.3228 12.9098 33.7249 13.1063 32.127 13.3251C30.162 13.592 28.1971 13.8701 26.2396 14.1667C24.2375 14.4707 22.2355 14.7969 20.2372 15.1306C18.5614 15.4086 16.8931 15.7349 15.2136 15.9907C14.891 16.0389 14.7724 16.1946 14.6315 16.4097C14.5833 17.0696 14.5388 17.7295 14.4906 18.3894C15.8401 18.0298 17.2267 17.8444 18.5985 17.6035C20.8971 17.1993 23.1994 16.8212 25.5055 16.4616C27.4445 16.1576 29.3872 15.8795 31.3336 15.6237C33.7323 15.3048 36.1347 15.0008 38.5372 14.7228C40.035 14.5485 41.5365 14.441 43.0343 14.3001C44.8584 14.1296 46.6824 13.9516 48.5102 13.7848C48.7512 13.7625 48.9922 13.77 49.2369 13.7625C49.5928 13.4029 49.9524 13.047 49.9153 12.4798L45.9113 10.474C44.5469 10.3702 43.1863 10.3628 41.8257 10.4926C41.0434 10.5408 40.2611 10.626 39.4789 10.6779C39.1304 10.7002 38.7707 10.6965 38.5186 11.0005L38.5149 10.9968Z" fill="#36B8BA"/>
<path d="M49.9113 12.4761C49.7445 12.9358 49.3515 13.2732 49.2328 13.7589C50.0967 13.7033 50.9716 13.7663 51.8132 13.4882C52.4212 13.0915 52.8661 12.5057 53.4927 12.1165C54.6865 11.375 55.9656 11.0079 57.3707 11.0228C57.7971 11.0265 57.9046 11.1043 57.7489 11.5492C57.5449 12.135 57.1482 12.6837 57.3003 13.3622H59.4914C59.977 12.9432 60.003 12.3167 60.2032 11.7717C60.5443 10.8485 60.5999 10.7521 61.5601 10.7892C62.6538 10.8337 63.7364 10.6112 64.8597 10.6483C64.3963 11.3787 63.9514 12.0683 63.5028 12.7541C63.3842 12.9321 63.2433 13.1175 63.3286 13.3622C64.1071 13.6143 64.8857 13.8553 65.6976 13.4993C66.4539 12.3389 67.2066 11.1785 67.9629 10.0218C68.2076 9.65101 68.3262 9.26914 68.0926 8.8502C67.8665 8.43497 67.4957 8.28667 67.0434 8.30891C63.4657 8.49058 59.8806 8.63888 56.3067 8.86874C53.8078 9.03187 51.791 10.1923 50.2227 12.1387C50.1263 12.2573 50.0188 12.3649 49.915 12.4761H49.9113Z" fill="#F5F7FA"/>
<path d="M65.6938 13.4956C64.9041 13.4437 64.0996 13.5141 63.3322 13.2472C62.8799 13.1323 62.4313 13.0989 62.016 13.3733C61.3487 15.0157 60.6183 16.6284 59.8027 18.2041C59.6136 18.5674 59.2873 18.8677 59.2428 19.3052C59.3504 19.4312 59.495 19.4831 59.6507 19.4906C61.6082 19.5832 63.5694 19.739 65.5307 19.6203C65.5937 19.6166 65.6567 19.587 65.7198 19.5721C66.3908 17.7481 67.0582 15.924 67.7329 14.1036C67.8441 13.807 67.8182 13.6513 67.4549 13.6328C66.8654 13.6031 66.2796 13.5438 65.6938 13.4956V13.4956Z" fill="#36B8BA"/>
<path d="M65.7197 19.5721C64.7076 19.3348 63.6769 19.4757 62.6537 19.4127C61.5192 19.3422 60.381 19.3385 59.2428 19.3052L59.1019 19.4053C58.201 20.9253 57.226 22.4009 56.1434 23.7986C56.0247 23.9543 55.9283 24.1249 55.8208 24.288C58.5421 24.2954 61.2671 24.3065 63.9883 24.3139C64.5667 22.7346 65.1451 21.1515 65.7197 19.5721V19.5721Z" fill="#F5F7FA"/>
<path d="M24.3962 5.05372C24.5779 5.33919 24.8634 5.30953 25.1526 5.32436C26.2166 5.37256 27.2918 5.18348 28.3484 5.45412C30.6173 5.62096 32.8863 5.49861 35.1553 5.52086C35.374 5.52086 35.5964 5.49861 35.7559 5.31695C34.7993 4.82756 33.7575 4.5495 32.7565 4.18247C29.7535 3.08877 26.7282 2.04327 23.7141 0.979229C23.5509 0.923617 23.3841 0.882835 23.1431 0.816101C23.436 2.3102 24.07 3.64118 24.3962 5.05742V5.05372Z" fill="#56C4C6"/>
<path d="M35.756 5.3132C33.513 5.3132 31.2737 5.3132 29.0307 5.32061C28.8009 5.32061 28.5414 5.23163 28.3486 5.45037C28.6266 5.70989 28.9788 5.82853 29.3199 5.96941C30.5434 6.48846 31.6964 7.14468 32.8383 7.81943C33.0125 8.0011 33.2313 7.96773 33.4463 7.93066C34.2768 7.78977 35.111 7.68596 35.934 7.5043C36.6644 7.38566 37.3947 7.26331 38.114 7.10389C38.3253 7.0557 38.6219 7.11131 38.6553 6.76281C37.7247 6.20298 36.7608 5.71731 35.756 5.30949V5.3132Z" fill="#A0BED2"/>
<path d="M38.6555 6.76654C37.7508 7.05572 36.8128 7.16324 35.8786 7.30412C35.8526 7.60072 36.1121 7.64521 36.2901 7.74531C37.9214 8.65363 39.5601 9.54713 41.2025 10.4369C41.3953 10.5407 41.5806 10.6594 41.8179 10.6038C43.1823 10.5593 44.5503 10.7335 45.9072 10.4703C45.7404 10.3665 45.581 10.2478 45.4067 10.1589C43.3009 9.07628 41.1951 7.99741 39.0855 6.92225C38.952 6.85552 38.8 6.81844 38.6555 6.76654Z" fill="#2F4859"/>
<path d="M62.0162 13.3733C62.4537 13.3288 62.9097 13.4734 63.3324 13.2472C63.933 12.3611 64.5336 11.4713 65.1602 10.5408C64.9006 10.411 64.6634 10.4703 64.4409 10.4777C63.2582 10.5296 62.0719 10.6038 60.8892 10.6409C60.4999 10.652 60.3071 10.7966 60.1996 11.1747C59.9883 11.9088 59.725 12.6318 59.4878 13.3584C60.3331 13.3584 61.1746 13.3658 62.0199 13.3695L62.0162 13.3733Z" fill="#FEFEFE"/>
<path d="M57.2967 13.3621L58.1494 10.8374C55.5839 10.7595 53.3779 11.3564 51.8134 13.4882C52.1915 13.7848 52.5771 13.4956 52.959 13.503C54.4086 13.5327 55.8545 13.503 57.2967 13.3621V13.3621Z" fill="#FEFEFE"/>
<path d="M41.8174 10.6001C39.8376 9.50269 37.8578 8.40157 35.878 7.30417C34.877 7.54145 33.8575 7.68974 32.8379 7.8195C31.848 7.99746 30.8656 8.20879 29.8683 8.33484C29.3937 8.39416 29.3863 8.55358 29.5235 8.92062C30.0796 10.3888 31.1659 11.2081 32.6674 11.5195C33.6981 11.7346 34.7028 11.438 35.7149 11.3305C36.6492 11.2304 37.5798 11.108 38.5103 10.9968C39.452 10.9078 40.3937 10.8151 41.3354 10.7299C41.506 10.715 41.6876 10.7595 41.8174 10.6001V10.6001Z" fill="#2F4859"/>
</svg>
