<svg width="81" height="44" viewBox="0 0 81 44" fill="none" xmlns="http://www.w3.org/2000/svg">
<path d="M0.00909424 25.2422C0.533279 26.8147 1.06635 28.3873 1.5861 29.9643C1.79932 30.604 1.99034 31.2437 2.19025 31.8878C2.53674 31.9811 2.86991 31.8878 3.20308 31.8212C10.5328 30.3152 17.8714 28.8493 25.2589 27.6454C31.0294 26.7037 36.8177 25.8508 42.6237 25.1489C45.8665 24.758 49.1138 24.4115 52.3656 24.1183C54.9065 23.8873 57.452 23.7007 60.0018 23.563C63.1558 23.3942 66.3098 23.2254 69.4727 23.2565C69.6326 23.2565 69.7881 23.2343 69.9391 23.1943C70.0724 23.1543 70.1835 23.0832 70.2768 22.9855C71.5517 20.9021 72.6089 18.7076 73.4663 16.4243C73.564 16.1622 73.8128 15.8335 73.3775 15.6114C72.4357 15.4292 71.4851 15.5492 70.5389 15.5314C69.6593 15.5003 68.7753 15.5136 67.8957 15.5314C65.7412 15.7224 63.5778 15.638 61.4189 15.7713C60.3439 15.8068 59.2866 16.0334 58.2071 16.0067C56.026 16.1267 53.8493 16.3266 51.6726 16.5176C47.1592 16.9174 42.6637 17.4593 38.1681 18.0413C31.7402 18.872 25.3344 19.8893 18.9598 21.0531C18.44 21.1464 17.9203 21.2264 17.405 21.333C17.094 21.3952 16.7786 21.4574 16.6098 21.7772C14.7085 21.9727 12.8472 22.4213 10.977 22.7901C7.43655 23.4875 3.90495 24.2293 0.368919 24.9534C0.24453 24.9801 0.124588 25.0467 0.000205994 25.0956V25.2555L0.00909424 25.2422Z" fill="#56C4C6"/>
<path d="M3.9716 37.2363C3.98937 37.3918 3.98937 37.5561 4.03379 37.7027C4.58463 39.4308 5.16213 41.1499 5.6952 42.8824C5.86401 43.4332 6.16608 43.602 6.73025 43.602C27.7599 43.5932 48.7896 43.5932 69.8192 43.5932C70.0724 43.5932 70.3523 43.6864 70.5566 43.4377C70.2768 43.1667 69.9214 43.2156 69.5838 43.2156C60.526 43.2111 51.4638 43.2111 42.406 43.2156C41.5043 43.2156 40.6069 43.3444 39.7096 43.4021C46.7239 42.949 52.9564 40.3992 58.6158 36.3256C61.1924 34.4688 63.4357 32.2476 65.5058 29.8532C65.7457 29.5778 66.1099 29.3068 65.9411 28.836C65.1815 28.5028 64.3775 28.6094 63.6089 28.7027C62.1697 28.8759 60.7215 28.8493 59.2777 28.9426C55.2086 29.2091 51.1484 29.5512 47.0926 29.9821C39.603 30.7728 32.1489 31.83 24.7214 33.0694C18.3334 34.1356 11.9677 35.335 5.62856 36.6632C5.05995 36.7832 4.39362 36.6943 3.96716 37.2452L3.9716 37.2363Z" fill="#56C4C6"/>
<path d="M3.97119 37.2363C8.43566 36.3523 12.8957 35.4461 17.369 34.5932C22.6687 33.5848 27.9949 32.7096 33.339 31.9456C37.9767 31.2837 42.6322 30.7062 47.2921 30.1864C53.1603 29.5334 59.0463 29.0981 64.9457 28.8849C65.2877 28.8715 65.6298 28.8849 65.9718 28.8937C66.0429 28.9337 66.114 28.9426 66.1895 28.9115C67.6954 27.2101 68.8948 25.2866 70.0676 23.3542C70.1387 23.2387 70.1697 23.1099 70.072 22.9855C64.6436 22.99 59.2285 23.3276 53.8178 23.7674C47.6208 24.2693 41.455 24.9979 35.3025 25.8686C26.2625 27.1524 17.2669 28.6983 8.3246 30.5418C6.41888 30.9327 4.5087 31.3148 2.60297 31.7057C2.45193 31.7368 2.27869 31.7146 2.18984 31.8878C2.80288 33.6647 3.25154 35.4949 3.97119 37.2407V37.2363Z" fill="#F5F7FA"/>
<path d="M28.492 5.7851C28.3587 6.29596 27.9367 6.09161 27.6391 6.09161C20.6781 6.10494 13.7215 6.1005 6.76048 6.1005H5.75653C6.18743 6.80682 6.56946 7.43762 6.96038 8.06397C7.15584 8.37493 7.38684 8.66812 7.56453 8.98796C8.26196 10.2673 9.1593 10.9559 10.7541 11.2802C14.0591 11.9554 15.956 14.2565 16.7422 17.5793C16.8799 18.1568 16.7733 18.7876 16.7822 19.3917C20.336 18.5166 23.9609 18.0146 27.5636 17.4238C33.072 16.522 38.6026 15.758 44.1465 15.1138C45.1416 14.9983 46.1367 14.9317 47.1273 14.7629C47.3761 14.7185 47.7226 14.6963 47.7714 14.4031C47.807 14.1676 47.5182 14.0255 47.3139 13.9055C46.7008 13.5457 46.1278 13.1237 45.4925 12.8039C44.2976 12.5995 43.1515 13.0171 41.9787 13.1104C40.7793 13.2037 39.5888 13.5635 38.376 13.3058C36.9412 13.0038 35.8084 12.2486 35.1021 10.9337C34.6801 10.143 34.7423 10.0097 35.6041 9.86309C36.3282 9.73871 37.0567 9.61877 37.7808 9.49882C38.0651 9.44996 38.3583 9.42331 38.5759 9.20119C38.7048 8.70366 38.2561 8.68145 37.9985 8.52597C36.4303 7.58421 34.7556 6.85568 33.112 6.06052C32.5078 5.80286 31.8681 5.89171 31.2373 5.88283C30.3178 5.8695 29.3982 5.90504 28.4831 5.79398L28.492 5.7851Z" fill="#56C4C6"/>
<path d="M66.1409 28.8359L65.9721 28.8937C59.1266 37.3828 50.2865 42.2116 39.434 43.4332C49.8112 43.4332 60.1883 43.4332 70.5654 43.4332C71.2451 41.6385 71.9336 39.8527 72.5955 38.0536C73.7194 34.9973 74.8211 31.9322 75.9316 28.8715C75.7984 28.7249 75.6207 28.6627 75.4385 28.6671C73.9237 28.6982 72.4134 28.485 70.8986 28.596C69.7214 28.6805 68.5442 28.6227 67.367 28.636C66.9449 28.6405 66.5274 28.6449 66.1409 28.8448V28.8359Z" fill="#36B8BA"/>
<path d="M45.4092 12.9061C46.0799 13.4969 46.9017 13.8611 47.768 14.4564C46.2576 14.6341 44.8805 14.7896 43.5034 14.9584C41.5844 15.1983 39.6698 15.4337 37.7551 15.6958C35.4007 16.0156 33.0463 16.3488 30.7008 16.7042C28.302 17.0685 25.9032 17.4594 23.5088 17.8592C21.5009 18.1923 19.5019 18.5833 17.4895 18.8898C17.1031 18.9475 16.9609 19.1341 16.7921 19.3918C16.7344 20.1825 16.6811 20.9732 16.6233 21.7639C18.2403 21.333 19.9017 21.1109 21.5453 20.8222C24.2995 20.338 27.0582 19.8848 29.8213 19.4539C32.1446 19.0897 34.4723 18.7565 36.8045 18.45C39.6786 18.068 42.5572 17.7037 45.4358 17.3705C47.2305 17.1617 49.0296 17.0329 50.8243 16.8641C53.0099 16.6598 55.1954 16.4465 57.3855 16.2466C57.6742 16.22 57.963 16.2289 58.2562 16.22C58.6826 15.7891 59.1135 15.3626 59.0691 14.683L54.2715 12.2797C52.6367 12.1553 51.0064 12.1464 49.3761 12.3019C48.4388 12.3597 47.5015 12.4618 46.5641 12.524C46.1466 12.5507 45.7157 12.5462 45.4136 12.9105L45.4092 12.9061Z" fill="#36B8BA"/>
<path d="M59.0641 14.6785C58.8642 15.2294 58.3933 15.6336 58.2511 16.2156C59.2862 16.1489 60.3345 16.2244 61.3429 15.8913C62.0715 15.416 62.6045 14.7141 63.3553 14.2476C64.7857 13.3592 66.3183 12.9194 68.0019 12.9372C68.5127 12.9416 68.6416 13.0349 68.455 13.568C68.2107 14.2699 67.7353 14.9273 67.9175 15.7402H70.5429C71.1248 15.2383 71.1559 14.4875 71.3958 13.8345C71.8045 12.7284 71.8711 12.6129 73.0216 12.6573C74.3321 12.7106 75.6292 12.4441 76.9752 12.4885C76.42 13.3636 75.8869 14.1899 75.3494 15.0117C75.2072 15.2249 75.0384 15.447 75.1406 15.7402C76.0735 16.0423 77.0063 16.3311 77.9792 15.9046C78.8854 14.5142 79.7872 13.1237 80.6934 11.7378C80.9866 11.2935 81.1288 10.836 80.8489 10.334C80.5779 9.83647 80.1337 9.65878 79.5917 9.68544C75.305 9.90311 71.0093 10.0808 66.727 10.3562C63.7329 10.5517 61.3163 11.9421 59.4372 14.2743C59.3217 14.4164 59.1929 14.5453 59.0685 14.6785H59.0641Z" fill="#F5F7FA"/>
<path d="M77.9744 15.9002C77.0282 15.838 76.0643 15.9224 75.1447 15.6025C74.6028 15.4648 74.0652 15.4249 73.5677 15.7536C72.7681 17.7215 71.893 19.6539 70.9157 21.5418C70.6891 21.9772 70.2982 22.337 70.2449 22.8612C70.3737 23.0122 70.547 23.0744 70.7336 23.0833C73.0791 23.1944 75.429 23.3809 77.779 23.2388C77.8545 23.2343 77.93 23.1988 78.0055 23.181C78.8096 20.9954 79.6092 18.8099 80.4177 16.6287C80.551 16.2733 80.5199 16.0868 80.0845 16.0645C79.3782 16.029 78.6763 15.9579 77.9744 15.9002Z" fill="#36B8BA"/>
<path d="M78.0059 23.181C76.7931 22.8967 75.5582 23.0655 74.3321 22.99C72.9728 22.9056 71.609 22.9011 70.2452 22.8611L70.0764 22.9811C68.997 24.8024 67.8286 26.5704 66.5315 28.2452C66.3893 28.4317 66.2738 28.6361 66.145 28.8315C69.4056 28.8404 72.6707 28.8538 75.9313 28.8626C76.6243 26.9702 77.3173 25.0734 78.0059 23.181Z" fill="#F5F7FA"/>
<path d="M28.4924 5.78508C28.7101 6.12714 29.0522 6.0916 29.3987 6.10937C30.6736 6.16712 31.9618 5.94056 33.2279 6.26485C35.9465 6.46475 38.6652 6.31815 41.3839 6.34481C41.646 6.34481 41.9125 6.31815 42.1035 6.10048C40.9574 5.51411 39.7091 5.18094 38.5097 4.74115C34.9115 3.43069 31.2866 2.17797 27.6751 0.90304C27.4796 0.836406 27.2797 0.787541 26.9909 0.707581C27.3419 2.49781 28.1015 4.09258 28.4924 5.78953V5.78508Z" fill="#56C4C6"/>
<path d="M42.1033 6.09601C39.4157 6.09601 36.7326 6.09601 34.045 6.10489C33.7696 6.10489 33.4587 5.99828 33.2277 6.26037C33.5608 6.57133 33.9829 6.71348 34.3915 6.88229C35.8575 7.5042 37.239 8.29048 38.6072 9.09897C38.816 9.31664 39.0781 9.27666 39.3358 9.23224C40.3308 9.06344 41.3303 8.93905 42.3165 8.72138C43.1917 8.57923 44.0668 8.43263 44.9286 8.24162C45.1818 8.18387 45.5372 8.2505 45.5771 7.83293C44.4621 7.16215 43.3072 6.58021 42.1033 6.09156V6.09601Z" fill="#A0BED2"/>
<path d="M45.5775 7.8374C44.4936 8.1839 43.3697 8.31272 42.2503 8.48153C42.2192 8.83691 42.5301 8.89022 42.7434 9.01016C44.698 10.0985 46.6615 11.1691 48.6294 12.2352C48.8604 12.3596 49.0825 12.5018 49.3668 12.4351C51.0015 12.3818 52.6407 12.5906 54.2666 12.2752C54.0667 12.1508 53.8757 12.0087 53.6669 11.9021C51.1437 10.6049 48.6205 9.31223 46.0928 8.02398C45.9329 7.94402 45.7508 7.89959 45.5775 7.8374Z" fill="#2F4859"/>
<path d="M73.5679 15.7535C74.0921 15.7002 74.6385 15.8735 75.1449 15.6025C75.8646 14.5408 76.5842 13.4747 77.335 12.3597C77.024 12.2042 76.7397 12.2753 76.4732 12.2841C75.0561 12.3463 73.6346 12.4352 72.2175 12.4796C71.751 12.4929 71.52 12.6662 71.3912 13.1193C71.138 13.9989 70.8226 14.8651 70.5383 15.7358C71.5511 15.7358 72.5595 15.7447 73.5724 15.7491L73.5679 15.7535Z" fill="#FEFEFE"/>
<path d="M67.9128 15.7402L68.9346 12.715C65.8605 12.6218 63.2174 13.337 61.3427 15.8913C61.7959 16.2466 62.2579 15.9001 62.7154 15.909C64.4523 15.9446 66.1848 15.909 67.9128 15.7402Z" fill="#FEFEFE"/>
<path d="M49.3662 12.4307C46.994 11.1158 44.6219 9.79648 42.2497 8.48157C41.0503 8.76587 39.8287 8.94356 38.6071 9.09904C37.421 9.31227 36.2438 9.56548 35.0488 9.71652C34.4802 9.78759 34.4713 9.97861 34.6357 10.4184C35.302 12.1775 36.6036 13.1593 38.4027 13.5324C39.6377 13.7901 40.8415 13.4347 42.0542 13.3059C43.1737 13.1859 44.2887 13.0393 45.4037 12.9061C46.532 12.7994 47.6604 12.6884 48.7887 12.5862C48.9931 12.5684 49.2107 12.6218 49.3662 12.4307Z" fill="#2F4859"/>
</svg>
