<?xml version="1.0" encoding="utf-8"?>
<!-- Generator: Adobe Illustrator 26.3.1, SVG Export Plug-In . SVG Version: 6.00 Build 0)  -->
<svg version="1.1" id="Layer_1" xmlns="http://www.w3.org/2000/svg" xmlns:xlink="http://www.w3.org/1999/xlink" x="0px" y="0px"
	 viewBox="0 0 1024 850" style="enable-background:new 0 0 1024 850;" xml:space="preserve">
<style type="text/css">
	.st0{fill:#F1F5F8;}
	.st1{fill:#394249;}
	.st2{clip-path:url(#SVGID_00000091001216205178679260000008267235845474951863_);fill:#263238;}
	.st3{clip-path:url(#SVGID_00000097465288876020584470000008124859508021524905_);fill:#263238;}
	.st4{clip-path:url(#SVGID_00000010310792056079423190000018278025519053688232_);fill:#263238;}
	.st5{clip-path:url(#SVGID_00000096048760515171541630000013322209224118435002_);fill:#263238;}
	.st6{clip-path:url(#SVGID_00000045614105958188429480000017831449927952589205_);fill:#263238;}
	.st7{clip-path:url(#SVGID_00000166638104740376121860000014535862145238978751_);fill:#263238;}
	.st8{clip-path:url(#SVGID_00000015319396686329153610000000361233765140000958_);fill:#263238;}
	.st9{clip-path:url(#SVGID_00000128482498311499844690000005743993752334899123_);fill:#263238;}
	.st10{clip-path:url(#SVGID_00000054237463045322110710000014053158510396646285_);fill:#263238;}
	.st11{clip-path:url(#SVGID_00000148635326806302802300000009812290717329361080_);fill:#263238;}
	.st12{clip-path:url(#SVGID_00000179622671900606865940000017285730883669716147_);fill:#263238;}
	.st13{clip-path:url(#SVGID_00000181059252462288902860000009038232668217653150_);fill:#263238;}
	.st14{clip-path:url(#SVGID_00000024701674623705513550000005236070470904401796_);fill:#263238;}
	.st15{clip-path:url(#SVGID_00000029040157885924478550000006218344912369384106_);fill:#263238;}
	.st16{clip-path:url(#SVGID_00000047062535268765402450000006109734030844740992_);fill:#263238;}
	.st17{clip-path:url(#SVGID_00000152964894108103036350000010049768679566504124_);fill:#263238;}
	.st18{clip-path:url(#SVGID_00000088133128880170595670000002923396942591885233_);fill:#263238;}
	.st19{fill:#3DB6B8;}
	.st20{clip-path:url(#SVGID_00000169542803404783559620000013945252961802904466_);fill:#263238;}
	.st21{clip-path:url(#SVGID_00000118381513152422077330000005105785711704465545_);fill:#263238;}
	.st22{clip-path:url(#SVGID_00000096772880902786610100000010489841690037445781_);fill:#263238;}
	.st23{clip-path:url(#SVGID_00000103973177406781170380000014768122603350966937_);fill:#263238;}
	.st24{clip-path:url(#SVGID_00000183969003584697092090000004161098885028300712_);fill:#263238;}
	.st25{clip-path:url(#SVGID_00000103264642040318412740000013366067626136684989_);fill:#263238;}
</style>
<circle class="st0" cx="512" cy="455.5" r="345"/>
<path class="st1" d="M862.5,572.8c-4.3,55-50.4,106-106.5,117.7c-5.2,1.1-10.3,2.8-15.8,2.6c-16.8-3.8-32.8-9.6-47.4-18.9
	c-5.1-3.2-9.9-6.9-14.5-10.7c-2-1.6-5.1-3.2-3.4-6.9c2.9-1,5.2,0.8,7.6,1.8c66.7,27.9,140-11.7,153.3-82.8
	c10.8-57.8-29.2-116.5-86.8-127.8c-15.6-3-31-2.9-46.5,0.3c-1.7,0.4-3.5,0.9-5.3,0.5c-3.5-1.8-3.9-5-3.4-8.4
	c1.3-3.1,4.2-4.4,6.9-5.9c12-6.4,24.4-11.4,37.9-13.4c0.6-0.1,1.2-0.5,1.7-0.9c28.2,3,53.3,13.5,74.9,31.9
	c26.8,23,42.7,52,47.3,87.1l1.2,4.8l1.4,7.4v8l-0.7,3.8l-0.7,3.8C863.7,566.7,862.5,572,862.5,572.8L862.5,572.8z"/>
<g>
	<defs>
		<path id="SVGID_1_" d="M862.5,572.8c-4.3,55-50.4,106-106.5,117.7c-5.2,1.1-10.3,2.8-15.8,2.6c-16.8-3.8-32.8-9.6-47.4-18.9
			c-5.1-3.2-9.9-6.9-14.5-10.7c-2-1.6-5.1-3.2-3.4-6.9c2.9-1,5.2,0.8,7.6,1.8c66.7,27.9,140-11.7,153.3-82.8
			c10.8-57.8-29.2-116.5-86.8-127.8c-15.6-3-31-2.9-46.5,0.3c-1.7,0.4-3.5,0.9-5.3,0.5c-3.5-1.8-3.9-5-3.4-8.4
			c1.3-3.1,4.2-4.4,6.9-5.9c12-6.4,24.4-11.4,37.9-13.4c0.6-0.1,1.2-0.5,1.7-0.9c28.2,3,53.3,13.5,74.9,31.9
			c26.8,23,42.7,52,47.3,87.1l1.2,4.8l1.4,7.4v8l-0.7,3.8l-0.7,3.8C863.7,566.7,862.5,572,862.5,572.8L862.5,572.8z"/>
	</defs>
	<clipPath id="SVGID_00000098203368833627833840000005589963560170551468_">
		<use xlink:href="#SVGID_1_"  style="overflow:visible;"/>
	</clipPath>
	<path style="clip-path:url(#SVGID_00000098203368833627833840000005589963560170551468_);fill:#263238;" d="M859.4,562.1l-0.7,3.8
		l9.8,1.7l0.7-3.8L859.4,562.1z M860.1,558.3l-0.7,3.8l9.8,1.7l0.7-3.8L860.1,558.3z M867.5,572.8L867.5,572.8l-10,0v0H867.5z
		 M863.7,566.7c-4.9-1-4.9-1-4.9-1c0,0,0,0,0,0c0,0,0,0,0,0c0,0,0,0,0,0c0,0,0,0,0,0c0,0,0,0,0,0c0,0,0,0.1,0,0.2
		c0,0.2-0.1,0.4-0.1,0.6c-0.1,0.5-0.3,1.2-0.4,2c-0.1,0.7-0.3,1.5-0.4,2.2c-0.1,0.4-0.3,1.4-0.3,2.1h10c0,0.3,0,0.5,0,0.2
		c0-0.1,0.1-0.4,0.1-0.6c0.1-0.5,0.2-1.2,0.4-1.9c0.1-0.7,0.3-1.4,0.4-1.9c0.1-0.3,0.1-0.5,0.1-0.6c0-0.1,0-0.1,0-0.2c0,0,0,0,0,0
		c0,0,0,0,0,0c0,0,0,0,0,0c0,0,0,0,0,0c0,0,0,0,0,0S868.5,567.7,863.7,566.7z M860,551.1v8h10v-8H860z M858.7,544.6l1.4,7.4l9.8-1.8
		l-1.4-7.4L858.7,544.6z M857.6,540.1l1.2,4.8l9.7-2.4l-1.2-4.8L857.6,540.1z M811.9,455.6c25.9,22.2,41.1,50.1,45.6,84l9.9-1.3
		c-4.8-36.3-21.3-66.5-49-90.2L811.9,455.6z M739.7,424.9c27.3,2.9,51.4,13,72.2,30.7l6.5-7.6c-22.3-19.1-48.4-30-77.6-33.1
		L739.7,424.9z M739.2,425.8c1.2-0.2,2.2-0.7,2.8-1c0.5-0.3,1.1-0.7,1.1-0.8l-5.7-8.2c-0.1,0.1-0.2,0.1-0.2,0.2
		c-0.1,0.1-0.1,0.1-0.2,0.1c-0.1,0.1-0.1,0.1-0.1,0.1c0,0,0.1-0.1,0.3-0.1c0.2-0.1,0.4-0.1,0.7-0.2L739.2,425.8z M703,438.7
		c11.7-6.2,23.5-11,36.3-12.9l-1.5-9.9c-14.3,2.1-27.2,7.4-39.5,14L703,438.7z M698.4,442.1c0.2-0.5,0.6-1,1.3-1.5
		c0.8-0.6,1.8-1.1,3.4-2l-4.7-8.8c-2.2,1.2-7,3.3-9.1,8.4L698.4,442.1z M699.5,444.2c-0.4-0.2-0.6-0.4-0.6-0.5
		c-0.1-0.1-0.1-0.2-0.2-0.3c-0.1-0.4-0.2-1.1,0-2.5l-9.9-1.4c-0.3,2.1-0.4,4.6,0.4,7.1c0.9,2.7,2.8,5,5.6,6.4L699.5,444.2z
		 M701.5,443.2c-2.3,0.5-2.8,0.6-3.4,0.5l-1.7,9.8c3,0.5,6-0.3,7.2-0.6L701.5,443.2z M750,442.9c-16.3-3.2-32.4-3-48.5,0.3l2,9.8
		c14.8-3.1,29.6-3.2,44.6-0.3L750,442.9z M840.8,576.5c11.3-60.5-30.4-121.8-90.8-133.6l-1.9,9.8c55,10.7,93.2,66.9,82.9,121.9
		L840.8,576.5z M680.7,662.9c69.7,29.1,146.2-12.2,160.1-86.5l-9.8-1.8c-12.7,68-82.6,105.8-146.5,79.1L680.7,662.9z M676.6,661.3
		c0,0,0.1-0.1,0.7,0.1c0.3,0.1,0.7,0.3,1.3,0.6c0.5,0.3,1.3,0.6,2.1,1l3.8-9.2c-0.4-0.2-0.9-0.4-1.5-0.7c-0.6-0.3-1.4-0.7-2.3-1
		c-1.9-0.7-4.4-1.1-7.3-0.2L676.6,661.3z M681.5,659.6c-0.3-0.3-0.7-0.5-0.9-0.7c-0.3-0.2-0.5-0.4-0.7-0.6c-0.4-0.4-0.6-0.5-0.6-0.6
		c0,0,0,0.1,0.1,0.2c0.1,0.1,0.1,0.3,0.1,0.5c0,0.4-0.1,0.6,0,0.3l-9-4.3c-0.8,1.6-1.2,3.3-1,5.1c0.2,1.8,0.9,3.2,1.8,4.3
		c0.8,1,1.7,1.8,2.3,2.3c0.3,0.3,0.7,0.5,0.9,0.7c0.3,0.2,0.5,0.4,0.6,0.5L681.5,659.6z M695.5,669.9c-4.9-3.1-9.5-6.6-14-10.3
		l-6.4,7.7c4.7,3.9,9.7,7.7,15,11L695.5,669.9z M741.4,688.1c-16.4-3.8-31.9-9.3-45.9-18.2l-5.4,8.4c15.2,9.7,31.9,15.6,49,19.5
		L741.4,688.1z M755,685.5c-6,1.2-9.9,2.6-14.6,2.5l-0.4,10c6.2,0.2,12.5-1.8,16.9-2.7L755,685.5z M857.5,572.4
		c-4.1,52.7-48.5,102-102.5,113.2l2,9.8c58.2-12.1,106-64.8,110.5-122.2L857.5,572.4z M864.3,562.9l-4.9-0.9L864.3,562.9z
		 M863.7,566.7l4.9,1l0-0.1l0-0.1L863.7,566.7z M865,559.1l4.9,0.9l0.1-0.4v-0.4H865z M865,551.1h5v-0.5l-0.1-0.5L865,551.1z
		 M863.6,543.7l4.9-0.9l0-0.1l0-0.1L863.6,543.7z M862.5,538.9l-5,0.7l0,0.3l0.1,0.3L862.5,538.9z M815.1,451.8l-3.3,3.8l0,0
		L815.1,451.8z M740.3,419.9l0.5-5l-1.9-0.2l-1.5,1.1L740.3,419.9z M738.5,420.8l-0.7-5l0,0l0,0L738.5,420.8z M700.6,434.3l-2.4-4.4
		l0,0l0,0L700.6,434.3z M693.8,440.2l-4.6-1.9l-0.3,0.6l-0.1,0.6L693.8,440.2z M697.2,448.6l-2.3,4.4l0.7,0.4l0.8,0.1L697.2,448.6z
		 M702.5,448.1l-1-4.9l0,0L702.5,448.1z M749,447.8l-1,4.9l0,0L749,447.8z M835.9,575.5l4.9,0.9l0,0L835.9,575.5z M682.6,658.3
		l1.9-4.6l0,0L682.6,658.3z M675,656.6l-1.6-4.7l-2,0.7l-0.9,1.9L675,656.6z M678.3,663.5l3.2-3.9l0,0L678.3,663.5z M692.8,674.1
		l-2.7,4.2l0,0L692.8,674.1z M740.3,693l-1.1,4.9l0.5,0.1l0.5,0L740.3,693z M756,690.4l1,4.9l0,0L756,690.4z M862.5,572.8h5l-10-0.4
		L862.5,572.8z"/>
</g>
<path class="st1" d="M328.5,693c-69.8,7.5-129.9-38.3-147-100c-1.7-6.3-1.9-13-4.6-19.1c0-11.6,0-23.2,0-34.9c1.8-7,3.4-14,5.4-20.9
	c15-52.4,60.8-91.6,114.8-98.1c10.4-1.3,20.9-1.5,31.3-0.1c1.2,4.4-2.6,3.9-4.7,4.4c-21.9,5.2-41.1,15.6-58.4,29.7
	c-1,0.9-1.9,1.9-2.7,2.9c-10,8.1-21.5,14.4-30.2,24.3c-15.6,17.8-25.9,38-28.3,61.6c-4.8,46.3,13.1,82.1,51.5,107.9
	c2.4,1.6,4.9,3.1,6.9,5.3c15,14.1,32.5,24,52.2,30c3.6,1.1,7.3,2.1,10.9,3.1C327.6,689.6,330.1,690,328.5,693L328.5,693z"/>
<g>
	<defs>
		<path id="SVGID_00000137833954710823158950000012554688726744876976_" d="M328.5,693c-69.8,7.5-129.9-38.3-147-100
			c-1.7-6.3-1.9-13-4.6-19.1c0-11.6,0-23.2,0-34.9c1.8-7,3.4-14,5.4-20.9c15-52.4,60.8-91.6,114.8-98.1c10.4-1.3,20.9-1.5,31.3-0.1
			c1.2,4.4-2.6,3.9-4.7,4.4c-21.9,5.2-41.1,15.6-58.4,29.7c-1,0.9-1.9,1.9-2.7,2.9c-10,8.1-21.5,14.4-30.2,24.3
			c-15.6,17.8-25.9,38-28.3,61.6c-4.8,46.3,13.1,82.1,51.5,107.9c2.4,1.6,4.9,3.1,6.9,5.3c15,14.1,32.5,24,52.2,30
			c3.6,1.1,7.3,2.1,10.9,3.1C327.6,689.6,330.1,690,328.5,693L328.5,693z"/>
	</defs>
	<clipPath id="SVGID_00000124853708001182105320000006463765344129213093_">
		<use xlink:href="#SVGID_00000137833954710823158950000012554688726744876976_"  style="overflow:visible;"/>
	</clipPath>
	<path style="clip-path:url(#SVGID_00000124853708001182105320000006463765344129213093_);fill:#263238;" d="M332.1,689.5
		L332.1,689.5l-7.1,7.1l0,0L332.1,689.5z M324.5,693.9c0.7,0.2,0.9,0.2,1.1,0.3c0.3,0.1,0,0-0.4-0.3c-0.2-0.2-0.5-0.5-0.8-0.9
		c-0.3-0.4-0.4-0.9-0.4-1.4c-0.1-0.8,0.2-1.2,0-0.9l8.9,4.5c0.6-1.2,1.1-2.8,1-4.6c-0.2-2-1.2-3.5-2.4-4.5c-1-0.9-2.2-1.3-2.8-1.5
		c-0.6-0.2-1.5-0.4-1.7-0.5L324.5,693.9z M313.3,690.8c3.7,1.1,7.4,2.2,11.1,3.1l2.6-9.7c-3.6-1-7.2-1.9-10.7-3L313.3,690.8z
		 M259.2,659.6c15.6,14.7,33.8,24.9,54.2,31.2l2.9-9.6c-19-5.8-35.8-15.3-50.2-28.9L259.2,659.6z M252.9,654.8
		c2.7,1.8,4.5,2.9,6,4.5l7.3-6.8c-2.5-2.7-5.7-4.6-7.8-6L252.9,654.8z M199.2,542.3c-2.5,24,0.9,45.4,10,64.3
		c9.1,18.9,23.9,34.9,43.7,48.2l5.6-8.3c-18.6-12.5-32-27.2-40.2-44.3c-8.2-17-11.4-36.6-9.1-59L199.2,542.3z M228.7,477.9
		c-16.1,18.4-27,39.5-29.5,64.4l9.9,1c2.3-22.4,12.1-41.7,27.1-58.8L228.7,477.9z M259.5,453c-4.9,4-10,7.3-15.4,11.3
		c-5.3,3.9-10.7,8.2-15.4,13.6l7.5,6.6c4-4.5,8.7-8.3,13.8-12.1c5-3.6,10.7-7.5,15.8-11.6L259.5,453z M262.2,450.1
		c-1.5,1.2-2.7,2.7-3.3,3.5l7.6,6.5c1.1-1.2,1.5-1.8,2.1-2.3L262.2,450.1z M322.7,419.4c-22.7,5.4-42.6,16.2-60.4,30.7l6.3,7.7
		c16.8-13.8,35.3-23.7,56.4-28.7L322.7,419.4z M323.7,421.2c0.2,0.6-0.1,0.2,0.2-0.6c0.2-0.4,0.4-0.8,0.8-1.1
		c0.3-0.3,0.6-0.4,0.7-0.5c0.1-0.1,0.2-0.1,0.1,0c-0.1,0-0.3,0-0.5,0.1c-0.1,0-0.3,0-0.4,0.1c-0.2,0-0.3,0-0.5,0.1
		c-0.4,0-0.8,0.1-1.3,0.2l2.3,9.7c0.2-0.1,0.4-0.1,1.3-0.2c0.7-0.1,1.9-0.3,3.2-0.8c1.4-0.6,3-1.8,3.8-4c0.8-2,0.5-3.9,0.1-5.6
		L323.7,421.2z M297.8,424.9c10.1-1.2,20.1-1.4,30.1-0.1l1.3-9.9c-10.9-1.5-21.9-1.2-32.6,0L297.8,424.9z M187.2,519.5
		c14.4-50.5,58.6-88.3,110.6-94.6l-1.2-9.9c-56.1,6.7-103.5,47.4-119,101.7L187.2,519.5z M181.8,540.3c1.8-7.1,3.4-13.9,5.3-20.8
		l-9.6-2.8c-2,7-3.7,14.3-5.4,21.1L181.8,540.3z M182,573.9C182,573.9,182,573.9,182,573.9c0-0.1,0-0.1,0-0.1c0,0,0,0,0-0.1
		c0,0,0,0,0-0.1c0,0,0,0,0-0.1c0,0,0,0,0-0.1c0,0,0,0,0-0.1c0,0,0,0,0-0.1c0,0,0,0,0-0.1s0,0,0-0.1s0,0,0-0.1s0,0,0-0.1s0,0,0-0.1
		s0,0,0-0.1s0,0,0-0.1s0,0,0-0.1s0,0,0-0.1c0,0,0,0,0-0.1c0,0,0,0,0-0.1c0,0,0,0,0-0.1c0,0,0,0,0-0.1c0,0,0,0,0-0.1c0,0,0,0,0-0.1
		s0,0,0-0.1s0,0,0-0.1s0,0,0-0.1s0,0,0-0.1c0,0,0,0,0-0.1c0,0,0,0,0-0.1c0,0,0,0,0-0.1c0,0,0,0,0-0.1s0,0,0-0.1s0,0,0-0.1
		c0,0,0,0,0-0.1c0,0,0,0,0-0.1c0,0,0,0,0-0.1s0,0,0-0.1s0,0,0-0.1s0,0,0-0.1c0,0,0,0,0-0.1c0,0,0,0,0-0.1s0,0,0-0.1s0,0,0-0.1
		c0,0,0,0,0-0.1c0,0,0,0,0-0.1s0,0,0-0.1s0,0,0-0.1c0,0,0,0,0-0.1c0,0,0,0,0-0.1s0,0,0-0.1s0,0,0-0.1c0,0,0,0,0-0.1c0,0,0,0,0-0.1
		s0,0,0-0.1s0,0,0-0.1c0,0,0,0,0-0.1s0,0,0-0.1s0,0,0-0.1c0,0,0,0,0-0.1c0,0,0,0,0-0.1s0,0,0-0.1c0,0,0,0,0-0.1c0,0,0,0,0-0.1
		s0,0,0-0.1c0,0,0,0,0-0.1c0,0,0,0,0-0.1s0,0,0-0.1c0,0,0,0,0-0.1s0,0,0-0.1s0,0,0-0.1c0,0,0,0,0-0.1s0,0,0-0.1s0,0,0-0.1
		c0,0,0,0,0-0.1s0,0,0-0.1c0,0,0,0,0-0.1s0,0,0-0.1s0,0,0-0.1c0,0,0,0,0-0.1s0,0,0-0.1c0,0,0,0,0-0.1s0,0,0-0.1s0,0,0-0.1s0,0,0-0.1
		s0,0,0-0.1c0,0,0,0,0-0.1s0,0,0-0.1c0,0,0,0,0-0.1s0,0,0-0.1c0,0,0,0,0-0.1s0,0,0-0.1c0,0,0,0,0-0.1s0,0,0-0.1s0,0,0-0.1s0,0,0-0.1
		s0,0,0-0.1s0,0,0-0.1s0,0,0-0.1s0,0,0-0.1s0,0,0-0.1s0,0,0-0.1s0,0,0-0.1s0,0,0-0.1s0,0,0-0.1s0,0,0-0.1s0,0,0-0.1s0,0,0-0.1
		c0,0,0,0,0-0.1s0,0,0-0.1c0,0,0,0,0-0.1s0,0,0-0.1c0,0,0,0,0-0.1s0,0,0-0.1s0,0,0-0.1s0,0,0-0.1s0,0,0-0.1c0,0,0,0,0-0.1s0,0,0-0.1
		c0,0,0,0,0-0.1s0,0,0-0.1s0,0,0-0.1s0,0,0-0.1s0,0,0-0.1c0,0,0,0,0-0.1s0,0,0-0.1s0,0,0-0.1s0,0,0-0.1s0,0,0-0.1c0,0,0,0,0-0.1
		s0,0,0-0.1s0,0,0-0.1s0,0,0-0.1s0,0,0-0.1c0,0,0,0,0-0.1s0,0,0-0.1s0,0,0-0.1c0,0,0,0,0-0.1s0,0,0-0.1s0,0,0-0.1s0,0,0-0.1
		s0,0,0-0.1s0,0,0-0.1s0,0,0-0.1s0,0,0-0.1s0,0,0-0.1s0,0,0-0.1s0,0,0-0.1s0,0,0-0.1s0,0,0-0.1s0,0,0-0.1s0,0,0-0.1s0,0,0-0.1
		s0,0,0-0.1s0,0,0-0.1c0,0,0,0,0-0.1s0,0,0-0.1s0,0,0-0.1c0,0,0,0,0-0.1s0,0,0-0.1s0,0,0-0.1c0,0,0,0,0-0.1s0,0,0-0.1s0,0,0-0.1
		s0,0,0-0.1c0,0,0,0,0-0.1s0,0,0-0.1s0,0,0-0.1s0,0,0-0.1s0,0,0-0.1s0,0,0-0.1s0,0,0-0.1c0,0,0,0,0-0.1s0,0,0-0.1s0,0,0-0.1
		s0,0,0-0.1c0,0,0,0,0-0.1s0,0,0-0.1s0,0,0-0.1s0,0,0-0.1c0,0,0,0,0-0.1s0,0,0-0.1s0,0,0-0.1s0,0,0-0.1c0,0,0,0,0-0.1s0,0,0-0.1
		s0,0,0-0.1s0,0,0-0.1c0,0,0,0,0-0.1s0,0,0-0.1s0,0,0-0.1s0,0,0-0.1c0,0,0,0,0-0.1s0,0,0-0.1s0,0,0-0.1s0,0,0-0.1s0,0,0-0.1
		s0,0,0-0.1s0,0,0-0.1s0,0,0-0.1s0,0,0-0.1c0,0,0,0,0-0.1s0,0,0-0.1s0,0,0-0.1s0,0,0-0.1s0,0,0-0.1c0,0,0,0,0-0.1s0,0,0-0.1
		s0,0,0-0.1s0,0,0-0.1s0,0,0-0.1c0,0,0,0,0-0.1s0,0,0-0.1s0,0,0-0.1s0,0,0-0.1s0,0,0-0.1c0,0,0,0,0-0.1s0,0,0-0.1s0,0,0-0.1
		s0,0,0-0.1s0,0,0-0.1c0,0,0,0,0-0.1s0,0,0-0.1s0,0,0-0.1s0,0,0-0.1s0,0,0-0.1s0,0,0-0.1s0,0,0-0.1s0,0,0-0.1s0,0,0-0.1s0,0,0-0.1
		s0,0,0-0.1c0,0,0,0,0-0.1s0,0,0-0.1s0,0,0-0.1s0,0,0-0.1s0,0,0-0.1s0,0,0-0.1s0,0,0-0.1s0,0,0-0.1s0,0,0-0.1s0,0,0-0.1s0,0,0-0.1
		c0,0,0,0,0-0.1s0,0,0-0.1s0,0,0-0.1s0,0,0-0.1s0,0,0-0.1s0,0,0-0.1c0,0,0,0,0-0.1s0,0,0-0.1s0,0,0-0.1s0,0,0-0.1s0,0,0-0.1
		s0,0,0-0.1s0,0,0-0.1s0,0,0-0.1s0,0,0-0.1s0,0,0-0.1s0,0,0-0.1c0,0,0,0,0-0.1s0,0,0-0.1s0,0,0-0.1s0,0,0-0.1s0,0,0-0.1s0,0,0-0.1
		c0,0,0,0,0-0.1s0,0,0-0.1s0,0,0-0.1s0,0,0-0.1s0,0,0-0.1s0,0,0-0.1c0,0,0,0,0-0.1s0,0,0-0.1s0,0,0-0.1s0,0,0-0.1s0,0,0-0.1
		c0,0,0,0,0-0.1s0,0,0-0.1s0,0,0-0.1s0,0,0-0.1s0,0,0-0.1s0,0,0-0.1c0,0,0,0,0-0.1s0,0,0-0.1s0,0,0-0.1s0,0,0-0.1s0,0,0-0.1
		c0,0,0,0,0-0.1s0,0,0-0.1s0,0,0-0.1s0,0,0-0.1s0,0,0-0.1s0,0,0-0.1s0,0,0-0.1s0,0,0-0.1s0,0,0-0.1s0,0,0-0.1s0,0,0-0.1
		c0,0,0,0,0-0.1s0,0,0-0.1s0,0,0-0.1s0,0,0-0.1s0,0,0-0.1c0,0,0,0,0-0.1s0,0,0-0.1s0,0,0-0.1s0,0,0-0.1s0,0,0-0.1s0,0,0-0.1
		s0,0,0-0.1s0,0,0-0.1s0,0,0-0.1s0,0,0-0.1s0,0,0-0.1s0,0,0-0.1s0,0,0-0.1s0,0,0-0.1c0,0,0,0,0-0.1s0,0,0-0.1s0,0,0-0.1s0,0,0-0.1
		s0,0,0-0.1s0,0,0-0.1s0,0,0-0.1s0,0,0-0.1s0,0,0-0.1s0,0,0-0.1s0,0,0-0.1s0,0,0-0.1s0,0,0-0.1c0,0,0,0,0-0.1s0,0,0-0.1s0,0,0-0.1
		s0,0,0-0.1c0,0,0,0,0-0.1s0,0,0-0.1s0,0,0-0.1s0,0,0-0.1c0,0,0,0,0-0.1s0,0,0-0.1s0,0,0-0.1s0,0,0-0.1s0,0,0-0.1s0,0,0-0.1
		s0,0,0-0.1c0,0,0,0,0-0.1s0,0,0-0.1s0,0,0-0.1s0,0,0-0.1s0,0,0-0.1s0,0,0-0.1s0,0,0-0.1c0,0,0,0,0-0.1s0,0,0-0.1s0,0,0-0.1
		s0,0,0-0.1s0,0,0-0.1s0,0,0-0.1s0,0,0-0.1c0,0,0,0,0-0.1s0,0,0-0.1s0,0,0-0.1c0,0,0,0,0-0.1s0,0,0-0.1s0,0,0-0.1c0,0,0,0,0-0.1
		s0,0,0-0.1s0,0,0-0.1c0,0,0,0,0-0.1s0,0,0-0.1s0,0,0-0.1c0,0,0,0,0-0.1s0,0,0-0.1s0,0,0-0.1c0,0,0,0,0-0.1s0,0,0-0.1s0,0,0-0.1
		s0,0,0-0.1s0,0,0-0.1c0,0,0,0,0-0.1s0,0,0-0.1s0,0,0-0.1c0,0,0,0,0-0.1s0,0,0-0.1s0,0,0-0.1s0,0,0-0.1s0,0,0-0.1c0,0,0,0,0-0.1
		s0,0,0-0.1s0,0,0-0.1s0,0,0-0.1s0,0,0-0.1c0,0,0,0,0-0.1s0,0,0-0.1c0,0,0,0,0-0.1s0,0,0-0.1s0,0,0-0.1c0,0,0,0,0-0.1s0,0,0-0.1
		c0,0,0,0,0-0.1s0,0,0-0.1c0,0,0,0,0-0.1s0,0,0-0.1s0,0,0-0.1s0,0,0-0.1s0,0,0-0.1s0,0,0-0.1s0,0,0-0.1c0,0,0,0,0-0.1s0,0,0-0.1
		c0,0,0,0,0-0.1s0,0,0-0.1c0,0,0,0,0-0.1s0,0,0-0.1c0,0,0,0,0-0.1s0,0,0-0.1c0,0,0,0,0-0.1s0,0,0-0.1c0,0,0,0,0-0.1s0,0,0-0.1
		c0,0,0,0,0-0.1s0,0,0-0.1s0,0,0-0.1s0,0,0-0.1s0,0,0-0.1c0,0,0,0,0-0.1s0,0,0-0.1c0,0,0,0,0-0.1s0,0,0-0.1c0,0,0,0,0-0.1s0,0,0-0.1
		c0,0,0,0,0-0.1s0,0,0-0.1s0,0,0-0.1c0,0,0,0,0-0.1s0,0,0-0.1c0,0,0,0,0-0.1s0,0,0-0.1s0,0,0-0.1c0,0,0,0,0-0.1s0,0,0-0.1
		c0,0,0,0,0-0.1c0,0,0,0,0-0.1s0,0,0-0.1c0,0,0,0,0-0.1s0,0,0-0.1s0,0,0-0.1c0,0,0,0,0-0.1s0,0,0-0.1s0,0,0-0.1c0,0,0,0,0-0.1
		s0,0,0-0.1s0,0,0-0.1c0,0,0,0,0-0.1s0,0,0-0.1s0,0,0-0.1c0,0,0,0,0-0.1c0,0,0,0,0-0.1s0,0,0-0.1c0,0,0,0,0-0.1c0,0,0,0,0-0.1
		s0,0,0-0.1s0,0,0-0.1c0,0,0,0,0-0.1c0,0,0,0,0-0.1s0,0,0-0.1s0,0,0-0.1c0,0,0,0,0-0.1c0,0,0,0,0-0.1s0,0,0-0.1s0,0,0-0.1
		c0,0,0,0,0-0.1c0,0,0,0,0-0.1s0,0,0-0.1s0,0,0-0.1s0,0,0-0.1c0,0,0,0,0-0.1c0,0,0,0,0-0.1c0,0,0,0,0-0.1s0,0,0-0.1s0,0,0-0.1
		c0,0,0,0,0-0.1c0,0,0,0,0-0.1c0,0,0,0,0-0.1c0,0,0,0,0-0.1s0,0,0-0.1s0,0,0-0.1s0,0,0-0.1c0,0,0,0,0-0.1c0,0,0,0,0-0.1
		c0,0,0,0,0-0.1c0,0,0,0,0-0.1c0,0,0,0,0-0.1c0,0,0,0,0-0.1s0,0,0-0.1s0,0,0-0.1s0,0,0-0.1s0,0,0-0.1s0,0,0-0.1c0,0,0,0,0-0.1
		c0,0,0,0,0-0.1c0,0,0,0,0-0.1c0,0,0,0,0-0.1c0,0,0,0,0-0.1c0,0,0,0,0-0.1c0,0,0,0,0-0.1c0,0,0,0,0-0.1c0,0,0,0,0-0.1c0,0,0,0,0-0.1
		c0,0,0,0,0-0.1c0,0,0,0,0-0.1c0,0,0,0,0-0.1h-10c0,0,0,0,0,0.1c0,0,0,0,0,0.1c0,0,0,0,0,0.1c0,0,0,0,0,0.1c0,0,0,0,0,0.1
		c0,0,0,0,0,0.1c0,0,0,0,0,0.1c0,0,0,0,0,0.1c0,0,0,0,0,0.1c0,0,0,0,0,0.1c0,0,0,0,0,0.1c0,0,0,0,0,0.1c0,0,0,0,0,0.1c0,0,0,0,0,0.1
		s0,0,0,0.1s0,0,0,0.1s0,0,0,0.1s0,0,0,0.1s0,0,0,0.1c0,0,0,0,0,0.1c0,0,0,0,0,0.1c0,0,0,0,0,0.1c0,0,0,0,0,0.1c0,0,0,0,0,0.1
		c0,0,0,0,0,0.1s0,0,0,0.1s0,0,0,0.1s0,0,0,0.1c0,0,0,0,0,0.1c0,0,0,0,0,0.1c0,0,0,0,0,0.1c0,0,0,0,0,0.1s0,0,0,0.1s0,0,0,0.1
		c0,0,0,0,0,0.1c0,0,0,0,0,0.1c0,0,0,0,0,0.1s0,0,0,0.1s0,0,0,0.1s0,0,0,0.1c0,0,0,0,0,0.1c0,0,0,0,0,0.1s0,0,0,0.1s0,0,0,0.1
		c0,0,0,0,0,0.1c0,0,0,0,0,0.1s0,0,0,0.1s0,0,0,0.1c0,0,0,0,0,0.1c0,0,0,0,0,0.1s0,0,0,0.1s0,0,0,0.1c0,0,0,0,0,0.1c0,0,0,0,0,0.1
		s0,0,0,0.1c0,0,0,0,0,0.1c0,0,0,0,0,0.1s0,0,0,0.1s0,0,0,0.1c0,0,0,0,0,0.1s0,0,0,0.1s0,0,0,0.1c0,0,0,0,0,0.1s0,0,0,0.1s0,0,0,0.1
		c0,0,0,0,0,0.1s0,0,0,0.1s0,0,0,0.1c0,0,0,0,0,0.1s0,0,0,0.1c0,0,0,0,0,0.1c0,0,0,0,0,0.1s0,0,0,0.1c0,0,0,0,0,0.1s0,0,0,0.1
		s0,0,0,0.1c0,0,0,0,0,0.1s0,0,0,0.1c0,0,0,0,0,0.1s0,0,0,0.1s0,0,0,0.1c0,0,0,0,0,0.1s0,0,0,0.1c0,0,0,0,0,0.1s0,0,0,0.1
		c0,0,0,0,0,0.1s0,0,0,0.1c0,0,0,0,0,0.1s0,0,0,0.1s0,0,0,0.1s0,0,0,0.1s0,0,0,0.1c0,0,0,0,0,0.1s0,0,0,0.1c0,0,0,0,0,0.1s0,0,0,0.1
		c0,0,0,0,0,0.1s0,0,0,0.1c0,0,0,0,0,0.1s0,0,0,0.1c0,0,0,0,0,0.1s0,0,0,0.1c0,0,0,0,0,0.1s0,0,0,0.1c0,0,0,0,0,0.1s0,0,0,0.1
		s0,0,0,0.1s0,0,0,0.1s0,0,0,0.1s0,0,0,0.1s0,0,0,0.1c0,0,0,0,0,0.1s0,0,0,0.1c0,0,0,0,0,0.1s0,0,0,0.1c0,0,0,0,0,0.1s0,0,0,0.1
		s0,0,0,0.1c0,0,0,0,0,0.1s0,0,0,0.1c0,0,0,0,0,0.1s0,0,0,0.1s0,0,0,0.1s0,0,0,0.1s0,0,0,0.1c0,0,0,0,0,0.1s0,0,0,0.1s0,0,0,0.1
		s0,0,0,0.1s0,0,0,0.1c0,0,0,0,0,0.1s0,0,0,0.1s0,0,0,0.1c0,0,0,0,0,0.1s0,0,0,0.1s0,0,0,0.1s0,0,0,0.1s0,0,0,0.1c0,0,0,0,0,0.1
		s0,0,0,0.1s0,0,0,0.1c0,0,0,0,0,0.1s0,0,0,0.1s0,0,0,0.1c0,0,0,0,0,0.1s0,0,0,0.1s0,0,0,0.1c0,0,0,0,0,0.1s0,0,0,0.1s0,0,0,0.1
		c0,0,0,0,0,0.1s0,0,0,0.1s0,0,0,0.1c0,0,0,0,0,0.1s0,0,0,0.1s0,0,0,0.1s0,0,0,0.1s0,0,0,0.1s0,0,0,0.1s0,0,0,0.1c0,0,0,0,0,0.1
		s0,0,0,0.1s0,0,0,0.1s0,0,0,0.1s0,0,0,0.1s0,0,0,0.1s0,0,0,0.1c0,0,0,0,0,0.1s0,0,0,0.1s0,0,0,0.1s0,0,0,0.1s0,0,0,0.1s0,0,0,0.1
		s0,0,0,0.1c0,0,0,0,0,0.1s0,0,0,0.1s0,0,0,0.1s0,0,0,0.1c0,0,0,0,0,0.1s0,0,0,0.1s0,0,0,0.1s0,0,0,0.1c0,0,0,0,0,0.1s0,0,0,0.1
		s0,0,0,0.1s0,0,0,0.1s0,0,0,0.1s0,0,0,0.1s0,0,0,0.1s0,0,0,0.1s0,0,0,0.1s0,0,0,0.1s0,0,0,0.1s0,0,0,0.1s0,0,0,0.1c0,0,0,0,0,0.1
		s0,0,0,0.1s0,0,0,0.1s0,0,0,0.1s0,0,0,0.1s0,0,0,0.1s0,0,0,0.1s0,0,0,0.1s0,0,0,0.1s0,0,0,0.1s0,0,0,0.1s0,0,0,0.1s0,0,0,0.1
		s0,0,0,0.1c0,0,0,0,0,0.1s0,0,0,0.1s0,0,0,0.1s0,0,0,0.1s0,0,0,0.1c0,0,0,0,0,0.1s0,0,0,0.1s0,0,0,0.1s0,0,0,0.1s0,0,0,0.1
		s0,0,0,0.1s0,0,0,0.1s0,0,0,0.1s0,0,0,0.1s0,0,0,0.1s0,0,0,0.1c0,0,0,0,0,0.1s0,0,0,0.1s0,0,0,0.1s0,0,0,0.1s0,0,0,0.1
		c0,0,0,0,0,0.1s0,0,0,0.1s0,0,0,0.1s0,0,0,0.1s0,0,0,0.1s0,0,0,0.1c0,0,0,0,0,0.1s0,0,0,0.1s0,0,0,0.1s0,0,0,0.1s0,0,0,0.1
		c0,0,0,0,0,0.1s0,0,0,0.1s0,0,0,0.1s0,0,0,0.1s0,0,0,0.1s0,0,0,0.1c0,0,0,0,0,0.1s0,0,0,0.1s0,0,0,0.1s0,0,0,0.1s0,0,0,0.1
		s0,0,0,0.1c0,0,0,0,0,0.1s0,0,0,0.1s0,0,0,0.1s0,0,0,0.1s0,0,0,0.1s0,0,0,0.1s0,0,0,0.1s0,0,0,0.1s0,0,0,0.1s0,0,0,0.1s0,0,0,0.1
		c0,0,0,0,0,0.1s0,0,0,0.1s0,0,0,0.1s0,0,0,0.1s0,0,0,0.1s0,0,0,0.1c0,0,0,0,0,0.1s0,0,0,0.1s0,0,0,0.1s0,0,0,0.1s0,0,0,0.1
		s0,0,0,0.1s0,0,0,0.1s0,0,0,0.1s0,0,0,0.1s0,0,0,0.1s0,0,0,0.1c0,0,0,0,0,0.1s0,0,0,0.1s0,0,0,0.1s0,0,0,0.1s0,0,0,0.1s0,0,0,0.1
		s0,0,0,0.1s0,0,0,0.1s0,0,0,0.1s0,0,0,0.1s0,0,0,0.1c0,0,0,0,0,0.1s0,0,0,0.1s0,0,0,0.1s0,0,0,0.1s0,0,0,0.1c0,0,0,0,0,0.1
		s0,0,0,0.1s0,0,0,0.1s0,0,0,0.1s0,0,0,0.1c0,0,0,0,0,0.1s0,0,0,0.1s0,0,0,0.1s0,0,0,0.1s0,0,0,0.1c0,0,0,0,0,0.1s0,0,0,0.1
		s0,0,0,0.1s0,0,0,0.1s0,0,0,0.1c0,0,0,0,0,0.1s0,0,0,0.1s0,0,0,0.1s0,0,0,0.1s0,0,0,0.1s0,0,0,0.1s0,0,0,0.1s0,0,0,0.1s0,0,0,0.1
		c0,0,0,0,0,0.1s0,0,0,0.1s0,0,0,0.1s0,0,0,0.1c0,0,0,0,0,0.1s0,0,0,0.1s0,0,0,0.1s0,0,0,0.1c0,0,0,0,0,0.1s0,0,0,0.1s0,0,0,0.1
		s0,0,0,0.1c0,0,0,0,0,0.1s0,0,0,0.1s0,0,0,0.1s0,0,0,0.1c0,0,0,0,0,0.1s0,0,0,0.1s0,0,0,0.1s0,0,0,0.1c0,0,0,0,0,0.1s0,0,0,0.1
		s0,0,0,0.1s0,0,0,0.1s0,0,0,0.1s0,0,0,0.1s0,0,0,0.1c0,0,0,0,0,0.1s0,0,0,0.1s0,0,0,0.1s0,0,0,0.1c0,0,0,0,0,0.1s0,0,0,0.1
		s0,0,0,0.1c0,0,0,0,0,0.1s0,0,0,0.1s0,0,0,0.1c0,0,0,0,0,0.1s0,0,0,0.1s0,0,0,0.1s0,0,0,0.1s0,0,0,0.1s0,0,0,0.1s0,0,0,0.1
		s0,0,0,0.1s0,0,0,0.1s0,0,0,0.1s0,0,0,0.1s0,0,0,0.1s0,0,0,0.1s0,0,0,0.1s0,0,0,0.1s0,0,0,0.1s0,0,0,0.1s0,0,0,0.1c0,0,0,0,0,0.1
		s0,0,0,0.1s0,0,0,0.1c0,0,0,0,0,0.1s0,0,0,0.1s0,0,0,0.1s0,0,0,0.1s0,0,0,0.1c0,0,0,0,0,0.1s0,0,0,0.1s0,0,0,0.1s0,0,0,0.1
		s0,0,0,0.1c0,0,0,0,0,0.1s0,0,0,0.1s0,0,0,0.1s0,0,0,0.1s0,0,0,0.1c0,0,0,0,0,0.1s0,0,0,0.1c0,0,0,0,0,0.1s0,0,0,0.1s0,0,0,0.1
		s0,0,0,0.1s0,0,0,0.1c0,0,0,0,0,0.1s0,0,0,0.1c0,0,0,0,0,0.1s0,0,0,0.1c0,0,0,0,0,0.1s0,0,0,0.1s0,0,0,0.1s0,0,0,0.1s0,0,0,0.1
		s0,0,0,0.1s0,0,0,0.1s0,0,0,0.1s0,0,0,0.1s0,0,0,0.1s0,0,0,0.1s0,0,0,0.1s0,0,0,0.1s0,0,0,0.1s0,0,0,0.1s0,0,0,0.1c0,0,0,0,0,0.1
		s0,0,0,0.1c0,0,0,0,0,0.1s0,0,0,0.1c0,0,0,0,0,0.1s0,0,0,0.1c0,0,0,0,0,0.1s0,0,0,0.1s0,0,0,0.1s0,0,0,0.1s0,0,0,0.1c0,0,0,0,0,0.1
		s0,0,0,0.1c0,0,0,0,0,0.1s0,0,0,0.1s0,0,0,0.1c0,0,0,0,0,0.1s0,0,0,0.1c0,0,0,0,0,0.1s0,0,0,0.1s0,0,0,0.1c0,0,0,0,0,0.1s0,0,0,0.1
		s0,0,0,0.1c0,0,0,0,0,0.1s0,0,0,0.1c0,0,0,0,0,0.1c0,0,0,0,0,0.1s0,0,0,0.1c0,0,0,0,0,0.1c0,0,0,0,0,0.1s0,0,0,0.1c0,0,0,0,0,0.1
		c0,0,0,0,0,0.1s0,0,0,0.1s0,0,0,0.1c0,0,0,0,0,0.1s0,0,0,0.1s0,0,0,0.1c0,0,0,0,0,0.1c0,0,0,0,0,0.1s0,0,0,0.1s0,0,0,0.1
		c0,0,0,0,0,0.1c0,0,0,0,0,0.1s0,0,0,0.1s0,0,0,0.1c0,0,0,0,0,0.1c0,0,0,0,0,0.1s0,0,0,0.1s0,0,0,0.1c0,0,0,0,0,0.1c0,0,0,0,0,0.1
		s0,0,0,0.1s0,0,0,0.1s0,0,0,0.1c0,0,0,0,0,0.1c0,0,0,0,0,0.1c0,0,0,0,0,0.1s0,0,0,0.1s0,0,0,0.1c0,0,0,0,0,0.1c0,0,0,0,0,0.1
		c0,0,0,0,0,0.1c0,0,0,0,0,0.1s0,0,0,0.1s0,0,0,0.1s0,0,0,0.1s0,0,0,0.1c0,0,0,0,0,0.1c0,0,0,0,0,0.1c0,0,0,0,0,0.1c0,0,0,0,0,0.1
		c0,0,0,0,0,0.1c0,0,0,0,0,0.1s0,0,0,0.1s0,0,0,0.1s0,0,0,0.1s0,0,0,0.1s0,0,0,0.1s0,0,0,0.1s0,0,0,0.1s0,0,0,0.1c0,0,0,0,0,0.1
		c0,0,0,0,0,0.1c0,0,0,0,0,0.1c0,0,0,0,0,0.1c0,0,0,0,0,0.1c0,0,0,0,0,0.1c0,0,0,0,0,0.1s0,0,0,0.1H182z M186.4,591.6
		c-0.8-2.9-1.2-5.7-1.8-9.2c-0.6-3.3-1.4-7-3-10.6l-9.1,4.1c1.1,2.5,1.7,5.2,2.3,8.3c0.5,3,1.1,6.6,2,10.1L186.4,591.6z M328,688
		c-67.3,7.2-125.1-36.9-141.6-96.4l-9.6,2.7c17.7,63.9,79.9,111.5,152.3,103.7L328,688z M328.5,693l-3.5,3.5l4.9,4.9l3.1-6.2
		L328.5,693z M314.8,686l1.5-4.8h0L314.8,686z M262.6,656l-3.7,3.4l0.1,0.1l0.1,0.1L262.6,656z M204.2,542.8l5,0.5l0,0L204.2,542.8z
		 M232.5,481.2l3.8,3.3L232.5,481.2z M262.7,456.9l3.1,3.9l0.4-0.3l0.3-0.3L262.7,456.9z M265.4,454l-3.2-3.9l0,0l0,0L265.4,454z
		 M323.8,424.3l-1.1-4.9l0,0L323.8,424.3z M328.5,419.9l4.8-1.3l-0.9-3.2l-3.3-0.4L328.5,419.9z M297.2,420l0.6,5l0,0L297.2,420z
		 M182.4,518.1l4.8,1.4l0,0L182.4,518.1z M177,539l-4.8-1.2l-0.2,0.6v0.6H177z M177,573.9h-5v1.1l0.4,1L177,573.9z M181.6,593
		l-4.8,1.3l0,0L181.6,593z M328.5,693l3.5-3.5l-1.7-1.7L328,688L328.5,693z"/>
</g>
<g>
	<defs>
		<path id="SVGID_00000048471227092446178930000013488209438482501288_" d="M697.3,447.7c4.7,5.3,5.5,12.4,8.4,18.6
			c7.6,19.9,14.9,40,22.5,59.9c1.2,3.2,3.3,10.5,1.8,14.2c-10.9,1.6-10.9,2.6-17.1,7c-3.1-1.6-5.8-8.7-6.9-11.6
			c-7.6-20.3-15.1-40.7-23-60.9c-2.1-6.8-4.3-12.1-6.5-18.9c-2.1-5.4-2.9-9.6-5-15l-2.8-9.5c-4.9-13.2-9.7-26.3-15-40.6
			c-43.5,48.1-88.5,98.6-131.5,146.1c-9.7-8.5-11-9.5-16.4-13.9c-0.1-0.7,2.1-3.4,2.4-4c10.8-14,23.4-26.4,35-39.6
			c18.9-21.4,38.3-42.4,57.3-63.7c12.7-14.1,25.6-28,38-42.3c1.8-2.1,4.8-4.1,3-7.5c-1.5-2.8-4.6-2.3-7.3-2.3
			c-64.3-0.1-128.6,0-193,0c-6.7,0-7,0.5-4.6,6.9c16.7,45.7,34.2,91.1,51,136.8c1,2.7,1.8,9.4,1.1,13.4c-12.8,2-10.8,2-19.4,5.4
			c-3-1.5-3.4-7.5-4.4-10.2c-16.2-43.9-33-87.6-49.1-131.5c-0.3-0.8-0.3-1.8-1.2-2.3c-9.5,19.2-19.1,38.2-28.6,57.4
			c-3.9,7.1-7.3,14.4-10.9,21.7c-3.3,6.2-6.4,12.5-9.4,18.9c-9.8,19-19.1,38.3-28.7,57.3c-1.3,2.6-2.3,5.3-4.3,7.5
			c-0.5,0.4-1,0.7-1.7,0.9c-3.6-1.2-7.1-7.1-9-6.2c-1.1-2.2-6.8-1.3-9.8-3.4c-1-3.2,1-5.6,2.2-8.1c9.9-19.9,19.8-39.8,29.8-59.7
			c3.3-6.3,6.4-12.6,9.5-19c4.3-6.7,5.7-15.1,12-20.6c12.6-25.1,25.1-50.1,37.9-75.1c1.5-2.8,0.6-5.1-0.3-7.6
			c-3.2-9.5-8-18.4-9.7-28.4c0.6-1.1,1.6-1.6,2.8-1.9c5.6,0.2,11-2.3,16.6-2.1c3,7.7,6.1,15.3,8.9,23c1.1,3.2,2.8,4.4,6.3,4.4
			c67.1-0.1,134.3-0.1,201.4,0c4.1,0,5.2-1,3.5-5c-2.8-6.8-5.2-13.7-7.8-20.6c-3.9-10.4,0-16.2,11.3-16.9c7.8,2.7,13,11.3,12.7,21.3
			c12.9,34.6,25.8,69.1,38.7,103.7c0,0,6.1,15.8,6.1,15.9L697.3,447.7z"/>
	</defs>
	<clipPath id="SVGID_00000113342699383548252680000014207408896047545740_">
		<use xlink:href="#SVGID_00000048471227092446178930000013488209438482501288_"  style="overflow:visible;"/>
	</clipPath>
	<path style="clip-path:url(#SVGID_00000113342699383548252680000014207408896047545740_);fill:#263238;" d="M689.7,441.8l2.9,7.7
		l9.4-3.5l-2.9-7.7L689.7,441.8z M688.3,424.1c-4.7,1.8-4.7,1.8-4.7,1.8s0,0,0,0c0,0,0,0,0,0c0,0,0,0,0,0c0,0,0,0,0,0
		c0,0,0,0.1,0.1,0.1c0,0.1,0.1,0.3,0.2,0.5c0.2,0.4,0.4,1.1,0.7,1.8c0.6,1.5,1.3,3.5,2.1,5.4c0.8,2,1.5,4,2.1,5.5
		c0.3,0.7,0.5,1.4,0.7,1.8c0.1,0.2,0.2,0.4,0.2,0.5c0,0.1,0,0.1,0.1,0.2c0,0,0,0,0,0.1c0,0,0,0,0,0.1c0,0,0,0.1,0.1,0.1
		c0,0,0.1,0.2,0.1,0.2c0.1,0.1,0.5,0.8,0.9,1.2l7.1-7.1c0.4,0.4,0.8,1.1,0.9,1.2c0,0.1,0.1,0.2,0.1,0.2c0,0.1,0.1,0.1,0.1,0.1
		c0,0,0,0.1,0,0.1c0,0,0,0,0,0c0,0,0-0.1,0-0.1c0-0.1-0.1-0.3-0.2-0.5c-0.2-0.4-0.4-1.1-0.7-1.8c-0.6-1.5-1.3-3.5-2.1-5.4
		c-0.8-2-1.5-4-2.1-5.4c-0.3-0.7-0.5-1.4-0.7-1.8c-0.1-0.2-0.1-0.4-0.2-0.5c0-0.1,0-0.1-0.1-0.1c0,0,0,0,0,0c0,0,0,0,0,0
		c0,0,0,0,0,0c0,0,0,0,0,0C692.9,422.3,692.9,422.3,688.3,424.1z M644.9,322.2c12.9,34.6,25.8,69.1,38.7,103.7l9.4-3.5
		c-12.9-34.6-25.8-69.1-38.7-103.7L644.9,322.2z M635.2,303.9c5.2,1.8,9.6,8.1,9.4,16.5l10,0.3c0.3-11.6-5.7-22.6-16.1-26.2
		L635.2,303.9z M630.3,314.3c-1.7-4.7-1.1-6.7-0.6-7.6c0.6-0.9,2.4-2.3,7.4-2.6l-0.6-10c-6.2,0.4-12,2.2-15.1,7
		c-3.2,4.8-2.6,10.8-0.5,16.6L630.3,314.3z M637.9,334.7c-2.8-6.7-5.1-13.4-7.7-20.4l-9.4,3.5c2.5,6.8,5,13.9,7.8,20.8L637.9,334.7z
		 M629.8,346.6c1.2,0,2.5-0.1,3.7-0.4c1.2-0.3,2.9-1,4.2-2.6c1.3-1.7,1.5-3.7,1.3-5.1c-0.1-1.4-0.6-2.7-1.1-3.9l-9.2,3.8
		c0.3,0.8,0.4,1.1,0.4,1.1c0-0.1-0.1-1,0.7-2c0.3-0.4,0.7-0.7,1-0.9c0.1-0.1,0.2-0.1,0.3-0.1c0,0,0.1,0,0.1,0c0,0,0,0,0,0
		c0,0,0,0,0,0s0,0-0.1,0c-0.1,0-0.2,0-0.3,0c-0.2,0-0.6,0-1,0V346.6z M428.5,346.6c67.1-0.1,134.3-0.1,201.4,0l0-10
		c-67.1-0.1-134.3-0.1-201.4,0L428.5,346.6z M417.4,338.9c0.8,2.1,1.9,4.3,4.1,5.9c2.2,1.5,4.7,1.9,6.9,1.9l-0.1-10
		c-1.2,0-1.3-0.2-1.1-0.1c0.2,0.1,0,0.1-0.4-1L417.4,338.9z M408.6,316c3,7.8,6.1,15.2,8.8,22.9l9.4-3.3c-2.8-7.9-6-15.7-8.9-23.2
		L408.6,316z M396.5,321.2c3.5,0.1,6.9-0.6,9.5-1.1c2.8-0.6,5-1,7.1-0.9l0.4-10c-3.5-0.1-6.9,0.6-9.5,1.1c-2.8,0.6-5,1-7.1,0.9
		L396.5,321.2z M398.4,320.4c-0.1,0.1-0.2,0.3-0.3,0.5c-0.1,0.1-0.3,0.2-0.4,0.3c-0.1,0.1-0.1,0.1-0.1,0c0,0,0.1-0.1,0.3-0.1
		l-2.6-9.7c-1.5,0.4-4.4,1.3-5.9,4.5L398.4,320.4z M408.3,344.9c-1.6-4.9-3.8-9.8-5.5-14.2c-1.8-4.6-3.3-8.9-4-13.4L389,319
		c0.9,5.5,2.7,10.6,4.6,15.3c1.9,4.9,3.8,9.2,5.3,13.8L408.3,344.9z M408.3,356.3c2.5-5,0.8-9.2,0-11.5l-9.5,3.2
		c0.5,1.4,0.7,2,0.8,2.6c0,0.3,0,0.6-0.2,1.1L408.3,356.3z M370.4,431.4c12.6-25.1,25.1-50.1,37.9-75.1l-8.9-4.5
		c-12.8,25-25.3,50.1-37.9,75.1L370.4,431.4z M358.1,452.5c2.4-3.7,4.1-8.2,5.6-11.4c1.6-3.5,3.2-6.2,5.5-8.2l-6.6-7.5
		c-4,3.5-6.2,7.8-8,11.5c-1.9,4.1-3,7.2-4.9,10.1L358.1,452.5z M348.8,471.1c3.3-6.3,6.5-12.8,9.6-19.1l-9-4.4
		c-3.1,6.4-6.2,12.7-9.5,18.8L348.8,471.1z M319.1,530.8c10-19.9,19.8-39.8,29.8-59.7l-8.9-4.5c-10,19.9-19.9,39.9-29.8,59.7
		L319.1,530.8z M317.1,535.1c0-0.1-0.1-0.3,0.1-0.9c0.1-0.4,0.4-0.8,0.7-1.4c0.3-0.5,0.8-1.3,1.1-2.1l-9-4.4
		c-0.2,0.5-0.5,0.9-0.9,1.6c-0.4,0.7-0.8,1.5-1.2,2.5c-0.8,2-1.4,4.7-0.4,7.7L317.1,535.1z M326.6,537.8c-1.1-2.3-3.2-3.3-4.4-3.7
		c-1.2-0.4-2.6-0.7-3.5-0.8c-1.1-0.2-1.8-0.3-2.6-0.5c-0.3-0.1-0.6-0.2-0.7-0.2c-0.2-0.1-0.2-0.1-0.2-0.1l-5.7,8.2
		c1.5,1,3,1.5,4.3,1.8c1.2,0.3,2.5,0.5,3.4,0.6c1,0.2,1.5,0.3,1.7,0.4c0.3,0.1-0.7-0.1-1.3-1.3L326.6,537.8z M332.6,541.4
		c0,0-0.1,0-0.3-0.1c-0.2-0.1-0.5-0.3-0.8-0.6c-0.7-0.5-1.3-1.2-2.2-2c-0.7-0.7-1.7-1.7-2.8-2.4c-0.8-0.5-3.5-2.3-6.7-0.8l4.4,9
		c-2.2,1.1-3.8-0.3-3.3,0c0.2,0.2,0.6,0.5,1.5,1.3c0.7,0.7,1.7,1.7,2.8,2.6c1,0.9,2.5,1.9,4.3,2.5L332.6,541.4z M329.4,541.5
		c0.1-0.1,0.1-0.1,0.2-0.1c0,0,0,0,0,0l3,9.5c1.2-0.4,2.4-1,3.5-1.9L329.4,541.5z M332.6,535.5c-1.6,3.2-2.2,4.9-3.6,6.4l7.4,6.7
		c2.6-2.8,4.1-6.7,5.1-8.6L332.6,535.5z M361.4,478.1c-9.7,18.9-19.2,38.6-28.8,57.4l8.9,4.5c9.8-19.3,18.9-38.2,28.7-57.3
		L361.4,478.1z M370.8,459.1c-3.4,6.3-6.5,12.7-9.6,19.1l9,4.3c3-6.3,6.1-12.6,9.3-18.7L370.8,459.1z M381.8,437.4
		c-4,7.2-7.5,14.7-11,21.9l9,4.4c3.6-7.4,7-14.5,10.8-21.5L381.8,437.4z M410.3,380.2c-9.5,19.3-19,38.1-28.6,57.4l9,4.4
		c9.4-19,19.2-38.3,28.6-57.4L410.3,380.2z M420.7,383.1c0,0,0,0.1-0.1-0.2c-0.1-0.2-0.2-0.6-0.4-1.1c-0.4-1.1-1.3-2.6-3-3.6l-5,8.7
		c-0.4-0.2-0.7-0.5-0.9-0.8c-0.2-0.3-0.3-0.6-0.4-0.7c0-0.1,0-0.1,0,0.1c0,0.1,0.1,0.2,0.1,0.4c0,0.2,0.1,0.4,0.2,0.6L420.7,383.1z
		 M469.8,514.5c-16.3-44.2-32.9-87.4-49.1-131.5l-9.4,3.4c16.1,43.7,33,87.9,49.1,131.5L469.8,514.5z M471.7,522
		c0.5,0.2,0.5,0.5,0.3,0.1c-0.2-0.3-0.4-0.9-0.7-1.7c-0.2-0.8-0.4-1.7-0.7-2.8c-0.2-0.9-0.5-2.1-0.9-3.1l-9.4,3.5
		c0.1,0.3,0.3,0.9,0.5,1.9c0.2,0.9,0.5,2.1,0.8,3.3c0.3,1.2,0.8,2.6,1.6,3.9c0.8,1.3,2,2.9,3.9,3.8L471.7,522z M488.1,516.1
		c-6.3,1-9.4,1.6-12,2.4c-2.4,0.7-4.7,1.9-8.4,3.4l3.7,9.3c4.8-1.9,5.8-2.5,7.7-3.1c1.8-0.5,4.1-1,10.6-2L488.1,516.1z M483,509.3
		c0.3,0.8,0.7,2.6,0.9,5c0.2,2.3,0.2,4.5,0,5.9l9.9,1.6c0.4-2.6,0.3-5.8,0.1-8.5c-0.3-2.7-0.8-5.5-1.5-7.5L483,509.3z M432,372.5
		c8.4,22.9,16.9,45.7,25.5,68.5c8.6,22.8,17.1,45.5,25.5,68.4l9.4-3.4c-8.4-22.9-17-45.7-25.5-68.5c-8.6-22.8-17.1-45.5-25.5-68.4
		L432,372.5z M441.3,358.8c-1.6,0-3.3,0-4.7,0.2c-1.2,0.2-3.7,0.7-5.2,3.1c-1.5,2.3-1.1,4.7-0.8,5.9c0.3,1.3,0.8,2.9,1.4,4.5
		l9.4-3.4c-0.1-0.4-0.3-0.8-0.4-1.1c-0.1-0.3-0.2-0.6-0.3-0.9c-0.1-0.3-0.2-0.5-0.2-0.7c-0.1-0.2-0.1-0.3-0.1-0.5c0-0.1,0-0.2,0-0.2
		c0,0,0,0.1,0,0.2c0,0.1,0,0.4-0.1,0.7c-0.1,0.3-0.2,0.6-0.4,1c-0.1,0.2-0.2,0.3-0.4,0.5c-0.1,0.1-0.3,0.3-0.4,0.4
		c-0.3,0.2-0.5,0.3-0.7,0.4c-0.2,0.1-0.3,0.1-0.3,0.1c0,0,0,0,0.1,0c0.1,0,0.2,0,0.4,0c0.2,0,0.4,0,0.7,0c0.3,0,0.6,0,0.9,0
		c0.3,0,0.7,0,1.1,0V358.8z M634.3,358.8c-64.3-0.1-128.6,0-193,0l0,10c64.3,0,128.6-0.1,193,0L634.3,358.8z M645.9,363.7
		c-1.7-3.1-4.4-4.3-6.8-4.7c-1.8-0.3-4.2-0.2-4.9-0.2v10c0.4,0,0.8,0,1.1,0c0.4,0,0.6,0,0.9,0c0.6,0,0.9,0,1.1,0.1
		c0.2,0,0.1,0.1,0,0c-0.1-0.1-0.2-0.1-0.2-0.2c-0.1-0.1-0.1-0.1-0.1-0.1L645.9,363.7z M642.3,376.9c0.4-0.4,0.7-0.7,1.4-1.4
		c0.6-0.6,1.3-1.4,2-2.5c0.7-1.1,1.3-2.5,1.4-4.2c0.1-1.8-0.3-3.5-1.2-5l-8.8,4.8c0.1,0.1-0.1-0.1,0-0.5c0-0.3,0.1-0.5,0.1-0.4
		c-0.1,0.2-0.3,0.4-0.8,0.9c-0.2,0.2-0.4,0.5-0.7,0.8c-0.3,0.3-0.6,0.6-0.9,1L642.3,376.9z M604.3,419.2c12.6-14,25.6-28,38.1-42.4
		l-7.6-6.5c-12.4,14.3-25.2,28-38,42.3L604.3,419.2z M547,482.9c18.9-21.4,38.2-42.3,57.3-63.6l-7.4-6.7
		c-19,21.2-38.5,42.3-57.4,63.7L547,482.9z M512.1,522.2c10.7-13.8,22.8-25.7,34.8-39.3l-7.5-6.6c-11.3,12.8-24.3,25.7-35.2,39.9
		L512.1,522.2z M510.8,522.7c0.1,0.6,0,1.1-0.1,1.3c-0.1,0.3-0.1,0.5-0.2,0.5c-0.1,0.2-0.1,0.2-0.1,0.2c0.1-0.1,0.2-0.4,0.5-0.8
		c0.3-0.4,0.5-0.7,0.8-1.1c0.1-0.2,0.3-0.4,0.4-0.6c0.1-0.1,0.3-0.5,0.5-0.8l-8.9-4.6c0.1-0.2,0.2-0.3-0.2,0.2
		c-0.2,0.3-0.6,0.8-0.9,1.2c-0.3,0.5-0.7,1-1,1.6c-0.2,0.3-0.4,0.7-0.5,1.2c-0.1,0.3-0.5,1.3-0.4,2.6L510.8,522.7z M525.5,533.3
		c-9.7-8.6-11.1-9.6-16.6-14.1l-6.3,7.8c5.4,4.3,6.6,5.3,16.2,13.8L525.5,533.3z M649.9,387.6c-21.8,24.1-43.9,48.7-65.9,73.3
		c-22.1,24.6-44,49.1-65.5,72.8l7.4,6.7c21.5-23.8,43.5-48.3,65.5-72.9c22.1-24.6,44.2-49.2,65.9-73.3L649.9,387.6z M673.4,429.9
		c-4.9-13.2-9.7-26.3-15-40.6l-9.4,3.5c5.3,14.3,10.2,27.5,15,40.6L673.4,429.9z M676.3,439.6l-2.8-9.5l-9.6,2.9l2.8,9.5
		L676.3,439.6z M681.1,454.2c-1-2.5-1.6-4.7-2.4-7.1c-0.7-2.4-1.5-5-2.6-7.9l-9.3,3.6c1,2.5,1.6,4.7,2.4,7.1c0.7,2.4,1.5,5,2.7,7.9
		L681.1,454.2z M687.7,473.5c-1.1-3.5-2.2-6.7-3.3-9.7c-1.1-3-2.2-6-3.2-9.3l-9.5,3c1.1,3.5,2.2,6.6,3.3,9.6c1.1,3,2.1,6,3.1,9.2
		L687.7,473.5z M710.6,534.1c-7.6-20.3-15.1-40.7-23-61l-9.3,3.6c7.8,20.2,15.3,40.5,22.9,60.9L710.6,534.1z M715,543
		c0.2,0.1,0,0.1-0.5-0.6c-0.5-0.6-1-1.5-1.5-2.5c-1.1-2.1-1.9-4.3-2.4-5.8l-9.4,3.5c0.5,1.4,1.6,4.2,2.9,6.8c0.7,1.3,1.5,2.7,2.4,4
		c0.9,1.2,2.2,2.6,4,3.5L715,543z M729.2,535.5c-5.5,0.8-8.9,1.5-11.7,2.9c-2.7,1.3-4.9,3.2-7.6,5l5.8,8.1c3.6-2.5,4.4-3.4,6-4.1
		c1.4-0.7,3.5-1.2,9-2L729.2,535.5z M723.5,528c0.5,1.4,1.2,3.7,1.7,6c0.5,2.6,0.4,4.1,0.2,4.6l9.3,3.6c1.3-3.3,0.9-7.2,0.4-10
		c-0.5-3-1.5-5.9-2.2-7.8L723.5,528z M701,468.1c7.7,20.2,14.8,39.7,22.5,59.9l9.4-3.5c-7.5-19.7-15-40.2-22.5-59.9L701,468.1z
		 M693.5,451c1.7,1.9,2.8,4.3,3.9,7.4c1,2.7,2.1,6.7,3.7,10l9.1-4.2c-1.3-2.8-2-5.5-3.3-9.1c-1.2-3.4-2.8-7.2-5.8-10.6L693.5,451z
		 M694.4,440l4.7-1.8l-0.4-1l-0.8-0.8L694.4,440z M688.3,424.1l-4.7,1.7l0,0l0,0L688.3,424.1z M649.6,320.4l-5-0.1l0,1l0.3,0.9
		L649.6,320.4z M636.8,299.1l1.6-4.7l-0.9-0.3l-1,0.1L636.8,299.1z M625.6,316l4.7-1.7l0,0L625.6,316z M633.3,336.6l4.6-1.9l0,0
		L633.3,336.6z M629.8,341.6l0,5h0V341.6z M428.4,341.6l0-5h0l0,0L428.4,341.6z M422.1,337.2l-4.7,1.7l0,0L422.1,337.2z
		 M413.3,314.2l4.7-1.8l-1.2-3.1l-3.3-0.1L413.3,314.2z M396.6,316.2l0.2-5l-0.7,0l-0.7,0.2L396.6,316.2z M393.9,318.1l-4.5-2.2
		l-0.7,1.5l0.3,1.6L393.9,318.1z M403.6,346.5l-4.7,1.6l0,0l0,0L403.6,346.5z M403.8,354.1l4.5,2.3l0,0L403.8,354.1z M365.9,429.2
		l3.3,3.8l0.7-0.6l0.4-0.9L365.9,429.2z M353.9,449.8l-4.2-2.7l-0.2,0.3l-0.1,0.3L353.9,449.8z M344.4,468.8l-4.4-2.3l0,0l0,0
		L344.4,468.8z M314.6,528.5l-4.5-2.2l0,0l0,0L314.6,528.5z M312.3,536.6l-4.8,1.5l0.5,1.6l1.4,1L312.3,536.6z M322.1,540l-4.5,2.2
		l2.2,4.5l4.5-2.2L322.1,540z M331.1,546.2l-1.6,4.7l1.5,0.5l1.5-0.5L331.1,546.2z M332.7,545.2l3.3,3.7l0.2-0.2l0.2-0.2
		L332.7,545.2z M337.1,537.8l4.5,2.3l0,0L337.1,537.8z M365.8,480.4l4.4,2.3l0-0.1l0-0.1L365.8,480.4z M375.2,461.5l4.4,2.4l0-0.1
		l0-0.1L375.2,461.5z M386.1,439.8l4.4,2.4l0-0.1l0-0.1L386.1,439.8z M414.8,382.4l2.5-4.3l-4.6-2.7l-2.4,4.8L414.8,382.4z
		 M416,384.7l-4.7,1.7l0,0l0,0L416,384.7z M465.1,516.2l-4.7,1.7l0,0L465.1,516.2z M469.5,526.4l-2.2,4.5l2,1l2.1-0.8L469.5,526.4z
		 M488.8,521l0.8,4.9l3.6-0.6l0.6-3.6L488.8,521z M487.7,507.6l4.7-1.7l0,0L487.7,507.6z M436.7,370.8l4.7-1.7l0,0L436.7,370.8z
		 M441.3,363.8v5h0L441.3,363.8z M634.3,363.8l0,5h0V363.8z M641.5,366.1l-4.4,2.4l0,0L641.5,366.1z M638.6,373.6l-3.8-3.3l0,0
		L638.6,373.6z M600.5,415.9l3.7,3.3l0,0L600.5,415.9z M543.2,479.6l3.7,3.3l0,0L543.2,479.6z M508.2,519.2l-4-3l-0.3,0.4l-0.2,0.4
		L508.2,519.2z M505.8,523.2l-5,0.5l0.2,2.1l1.6,1.3L505.8,523.2z M522.2,537.1l-3.3,3.8l3.7,3.3l3.3-3.7L522.2,537.1z M653.6,391
		l4.7-1.7l-2.9-7.7l-5.5,6.1L653.6,391z M668.7,431.6l4.8-1.4l0-0.2l-0.1-0.1L668.7,431.6z M671.5,441l-4.8,1.4l0.1,0.2l0.1,0.2
		L671.5,441z M676.5,456l4.8-1.5l-0.1-0.2l-0.1-0.2L676.5,456z M683,474.9l-4.8,1.5l0.1,0.2l0.1,0.2L683,474.9z M705.9,535.9
		l4.7-1.8l0,0L705.9,535.9z M712.8,547.5l-2.2,4.5l2.7,1.3l2.4-1.7L712.8,547.5z M729.9,540.4l0.7,4.9l2.9-0.4l1.1-2.7L729.9,540.4z
		 M728.1,526.2l4.7-1.8l0,0L728.1,526.2z M705.6,466.3l4.7-1.8l-0.1-0.2l-0.1-0.2L705.6,466.3z M697.3,447.7l-4.7,1.8l0.3,0.8
		l0.6,0.7L697.3,447.7z"/>
</g>
<path class="st1" d="M413.2,314.2c-5.1,3-10.4,4.4-16.3,3.4c-18.3-3.6-30.2-17.5-29.9-35.1c0.1-6.6,1.2-8.9,6.9-13.9
	c-7.1,0.1-14,0.2-20.8,0c-2.6-0.1-5.4,0.4-7.4-2c3.6-1.6,7.5-0.8,11.2-0.8c31.9,0.2,63.8,0.4,95.7,0.7c13.9,0.1,24.4,6.3,31.4,18.2
	c5,8.4,2.2,13-7.7,13.1c-11.8,0.1-23.7,0.3-35.5-0.1c-10.3-0.4-18.3,2.7-23.7,11.9C416.1,311.3,414.6,312.6,413.2,314.2L413.2,314.2
	z"/>
<g>
	<defs>
		<path id="SVGID_00000116957320763659388770000009721091400017666982_" d="M413.2,314.2c-5.1,3-10.4,4.4-16.3,3.4
			c-18.3-3.6-30.2-17.5-29.9-35.1c0.1-6.6,1.2-8.9,6.9-13.9c-7.1,0.1-14,0.2-20.8,0c-2.6-0.1-5.4,0.4-7.4-2
			c3.6-1.6,7.5-0.8,11.2-0.8c31.9,0.2,63.8,0.4,95.7,0.7c13.9,0.1,24.4,6.3,31.4,18.2c5,8.4,2.2,13-7.7,13.1
			c-11.8,0.1-23.7,0.3-35.5-0.1c-10.3-0.4-18.3,2.7-23.7,11.9C416.1,311.3,414.6,312.6,413.2,314.2L413.2,314.2z"/>
	</defs>
	<clipPath id="SVGID_00000047749883960736824980000016064213023935681214_">
		<use xlink:href="#SVGID_00000116957320763659388770000009721091400017666982_"  style="overflow:visible;"/>
	</clipPath>
	<path style="clip-path:url(#SVGID_00000047749883960736824980000016064213023935681214_);fill:#263238;" d="M409.7,317.7
		L409.7,317.7l7.1-7.1l0,0L409.7,317.7z M412.8,307.1c-0.2,0.4-0.5,0.8-1.2,1.4c-0.4,0.5-1.5,1.5-2.2,2.3l7.5,6.6
		c0.6-0.7,1-1.1,2-2.1c0.8-0.8,1.7-1.9,2.5-3.3L412.8,307.1z M441,292.7c-5.7-0.2-11.1,0.5-16,2.9c-5,2.3-9,6.2-12.2,11.5l8.7,5
		c2.2-3.8,4.8-6.1,7.8-7.5c3-1.4,6.8-2.1,11.4-1.9L441,292.7z M476.3,292.8c-12,0.1-23.6,0.3-35.3-0.1l-0.3,10
		c11.9,0.4,24,0.1,35.7,0.1L476.3,292.8z M479.7,287.2c1.1,1.8,1.5,3.1,1.7,3.9c0.1,0.8,0,0.9,0.1,0.7c0.1-0.1,0.1,0.1-0.8,0.4
		c-0.9,0.3-2.3,0.6-4.4,0.6l0,10c5.2,0,10.9-1.2,13.7-5.9c2.8-4.8,0.9-10.3-1.7-14.8L479.7,287.2z M452.6,271.5
		c12.1,0.1,21,5.3,27.1,15.7l8.6-5.1c-7.9-13.4-20-20.5-35.7-20.7L452.6,271.5z M356.9,270.8c31.9,0.2,63.8,0.4,95.7,0.7l0.1-10
		c-31.9-0.3-63.8-0.5-95.7-0.7L356.9,270.8z M347.7,271.1c0.9-0.4,1.9-0.6,3.5-0.6c0.8,0,1.6,0.1,2.6,0.1c0.9,0.1,2,0.1,3.1,0.1
		l0-10c-0.8,0-1.6-0.1-2.5-0.1c-0.9-0.1-2-0.1-3.1-0.1c-2.2,0-4.9,0.2-7.7,1.4L347.7,271.1z M353.2,263.6c-0.7,0-1.7,0-2.1,0
		c-0.6,0-0.9,0-1.2-0.1c-0.2,0-0.3-0.1-0.3-0.1c0,0,0,0,0,0l-7.8,6.2c2,2.5,4.5,3.4,6.6,3.7c1,0.2,2,0.2,2.7,0.2c0.9,0,1.3,0,1.9,0
		L353.2,263.6z M373.8,263.5c-7.1,0.1-13.9,0.2-20.7,0l-0.2,10c7,0.1,13.9,0.1,21,0L373.8,263.5z M372,282.6c0-3.1,0.3-4.4,0.8-5.4
		c0.5-1.1,1.6-2.4,4.4-4.9l-6.6-7.5c-2.9,2.6-5.3,5-6.7,7.9c-1.5,3.1-1.8,6.2-1.9,9.7L372,282.6z M397.9,312.7
		c-16.1-3.2-26.1-15.2-25.9-30.1l-10-0.1c-0.3,20.2,13.5,36.1,34,40.1L397.9,312.7z M410.7,309.8c-4.3,2.5-8.5,3.6-13,2.8l-1.6,9.9
		c7.3,1.2,13.9-0.7,19.7-4.1L410.7,309.8z M413.2,314.1l-3.8-3.3l-3.1,3.5l3.3,3.3L413.2,314.1z M417.1,309.6l-4.3-2.5l0,0
		L417.1,309.6z M440.8,297.7l-0.2,5L440.8,297.7z M476.3,297.8l0-5h0L476.3,297.8z M484,284.7l-4.3,2.5l0,0L484,284.7z M452.6,266.5
		l0,5h0L452.6,266.5z M356.9,265.8l0-5h0L356.9,265.8z M345.7,266.6l-2.1-4.6l-5.8,2.7l4,5L345.7,266.6z M353.1,268.6l-0.1,5l0,0
		L353.1,268.6z M373.9,268.5l3.3,3.7l10-8.9l-13.4,0.2L373.9,268.5z M367,282.5l5,0.1l0,0L367,282.5z M396.9,317.6l-1,4.9l0.1,0
		l0.1,0L396.9,317.6z M413.2,314.2l2.5,4.3l5.6-3.3l-4.6-4.6L413.2,314.2z"/>
</g>
<g>
	<defs>
		<path id="SVGID_00000088832879974876470390000015036197547555860620_" d="M706.9,363.4c3.7-5.8,9.1-8,15.8-8
			c3.8,0,7.6,0.1,11.3-0.1c8.1-0.5,14.1-6.4,14.3-13.9c0.2-7.2-5.1-13.4-12.9-14.4c-6.5-0.8-12-2.9-16.1-8.1c-5.5-5.8-5-14.6,1-19.8
			c7.7-8.3,17.1-7.5,26.5-4.6c19.1,5.8,30.6,18.7,34.8,38.2c-5.4,23.1-23.8,37.7-47.6,37.9c-4.5,0-8.9,0.2-13.4-0.1
			C715,370.1,710,368.5,706.9,363.4L706.9,363.4z"/>
	</defs>
	<clipPath id="SVGID_00000090987359070700254520000013586853896600500921_">
		<use xlink:href="#SVGID_00000088832879974876470390000015036197547555860620_"  style="overflow:visible;"/>
	</clipPath>
	<path style="clip-path:url(#SVGID_00000090987359070700254520000013586853896600500921_);fill:#263238;" d="M711.9,363.4
		L711.9,363.4l-10,0v0H711.9z M720.9,365.4c-4.8-0.3-7.8-1.6-9.7-4.7l-8.5,5.2c4.4,7.1,11.4,9,17.6,9.4L720.9,365.4z M733.9,365.5
		c-4.7,0-8.8,0.2-13-0.1l-0.6,10c4.7,0.3,9.5,0.1,13.7,0.1L733.9,365.5z M776.7,331.5c-4.8,20.8-21.2,33.9-42.8,34l0,10
		c26.2-0.1,46.6-16.3,52.5-41.7L776.7,331.5z M745.3,299.2c17.3,5.3,27.6,16.7,31.4,34.5l9.8-2.1c-4.5-21.3-17.3-35.6-38.2-42
		L745.3,299.2z M723.9,302.4c3-3.2,6.1-4.6,9.5-4.9c3.5-0.4,7.5,0.3,11.9,1.7l2.9-9.6c-5-1.5-10.5-2.6-15.9-2.1
		c-5.7,0.6-11,3-15.7,8.1L723.9,302.4z M722.9,315.5c-3.5-3.8-3.2-9.3,0.6-12.6l-6.5-7.6c-8.2,7.1-8.8,19.1-1.4,27L722.9,315.5z
		 M735.9,322c-5.7-0.7-9.8-2.5-12.8-6.3l-7.8,6.2c5.2,6.5,12.2,9.1,19.4,10L735.9,322z M753.2,341.5c0.3-9.9-7-18.2-17.3-19.5
		l-1.2,9.9c5.4,0.6,8.6,4.7,8.5,9.3L753.2,341.5z M734.3,360.3c10.4-0.6,18.7-8.4,19-18.8l-10-0.3c-0.1,4.7-3.8,8.7-9.6,9.1
		L734.3,360.3z M722.7,360.3c3.5,0,7.7,0.1,11.6-0.1l-0.6-10c-3.6,0.2-7,0.1-11,0.1V360.3z M711.1,366c2.5-4,6.2-5.7,11.5-5.7v-10
		c-7.9,0-15.2,2.8-20,10.3L711.1,366z M706.9,363.4h-5v1.4l0.7,1.2L706.9,363.4z M720.6,370.4l-0.3,5l0,0L720.6,370.4z M733.9,370.5
		l0,5h0L733.9,370.5z M781.5,332.7l4.9,1.1l0.3-1.1l-0.2-1.1L781.5,332.7z M746.8,294.4l1.5-4.8l0,0L746.8,294.4z M720.2,299
		l3.3,3.8l0.2-0.2l0.2-0.2L720.2,299z M719.2,318.9l3.9-3.1l-0.1-0.2l-0.1-0.1L719.2,318.9z M735.3,327l-0.6,5l0,0L735.3,327z
		 M748.2,341.4l5,0.1l0,0L748.2,341.4z M734,355.3l0.3,5l0,0L734,355.3z M706.9,363.4l-4.2-2.7l-0.8,1.2v1.4H706.9z"/>
</g>
<path class="st1" d="M345.7,266.6h32.8c-12.4,8.3-11.3,18.6-7.2,28.8c4,10.2,11.5,17.2,22.2,20.6c1.2,0.4,2.4,1.1,3.6,1.6
	c-1,0.2-2,0.4-3,0.5c-9.2-0.1-18.3-0.1-27.5-0.3c-18.1-0.4-33.2-14.4-35-32.4C330.4,274.9,335.5,268,345.7,266.6z"/>
<g>
	<defs>
		<path id="SVGID_00000030487253437266365740000010452372233257384088_" d="M345.7,266.6h32.8c-12.4,8.3-11.3,18.6-7.2,28.8
			c4,10.2,11.5,17.2,22.2,20.6c1.2,0.4,2.4,1.1,3.6,1.6c-1,0.2-2,0.4-3,0.5c-9.2-0.1-18.3-0.1-27.5-0.3c-18.1-0.4-33.2-14.4-35-32.4
			C330.4,274.9,335.5,268,345.7,266.6z"/>
	</defs>
	<clipPath id="SVGID_00000125578328485737053550000006902352016949605270_">
		<use xlink:href="#SVGID_00000030487253437266365740000010452372233257384088_"  style="overflow:visible;"/>
	</clipPath>
	<path style="clip-path:url(#SVGID_00000125578328485737053550000006902352016949605270_);fill:#263238;" d="M336.4,284.8
		c-0.4-4.3,0.5-7.3,2-9.2c1.5-1.9,4-3.5,8.1-4.1l-1.4-9.9c-6,0.9-11.2,3.5-14.6,7.9c-3.4,4.5-4.6,10.1-4,16.3L336.4,284.8z
		 M366.5,312.8c-15.6-0.3-28.6-12.4-30.2-27.9l-10,1c2,20.5,19.2,36.5,39.9,36.9L366.5,312.8z M393.9,313.1
		c-9.2-0.1-18.3-0.1-27.4-0.3l-0.2,10c9.2,0.2,18.4,0.2,27.5,0.3L393.9,313.1z M396.1,312.6c-1,0.2-2,0.4-3.1,0.5l1.8,9.8
		c1-0.2,2-0.4,3-0.5L396.1,312.6z M391.9,320.7c0.9,0.3,1.2,0.6,3,1.4l4.1-9.1c-0.6-0.3-2.5-1.3-4.1-1.8L391.9,320.7z M366.6,297.2
		c4.6,11.6,13.2,19.7,25.3,23.6l3-9.5c-9.2-2.9-15.6-8.9-19-17.7L366.6,297.2z M375.7,262.4c-7.1,4.8-10.9,10.6-11.9,17.1
		c-1,6.2,0.7,12.3,2.8,17.7l9.3-3.7c-1.9-4.8-2.8-9-2.2-12.5c0.5-3.3,2.4-6.8,7.6-10.3L375.7,262.4z M345.7,271.6h32.8v-10h-32.8
		V271.6z M331.4,285.3l-5,0.5l0,0L331.4,285.3z M366.4,317.8l-0.1,5h0L366.4,317.8z M393.9,318.1l-0.1,5l0.5,0l0.5-0.1L393.9,318.1z
		 M396.9,317.6l0.9,4.9l15.9-2.8L399,313L396.9,317.6z M393.4,316l1.5-4.8l0,0L393.4,316z M371.2,295.4l4.7-1.8l0,0L371.2,295.4z
		 M378.5,266.6l2.8,4.2l13.7-9.2h-16.4V266.6z"/>
</g>
<path class="st1" d="M365.9,429.2c-3.6,7.3-7.2,14.6-10.8,21.9c-3,1.1-5.7,0-8.5-0.8c-25.8-7.4-51.2-6.3-76.1,4.1
	c-2.8,1.2-5.6,3.1-8.9,1.8c6.5-8.5,15.7-13.5,24.6-18.8c12.5-7.4,25.8-12.9,40.3-15.3c1.3-0.2,1.8-1.2,2-2.3
	C341.5,421,353.8,424.7,365.9,429.2L365.9,429.2z"/>
<g>
	<defs>
		<path id="SVGID_00000008109507566917831540000007040314276140467349_" d="M365.9,429.2c-3.6,7.3-7.2,14.6-10.8,21.9
			c-3,1.1-5.7,0-8.5-0.8c-25.8-7.4-51.2-6.3-76.1,4.1c-2.8,1.2-5.6,3.1-8.9,1.8c6.5-8.5,15.7-13.5,24.6-18.8
			c12.5-7.4,25.8-12.9,40.3-15.3c1.3-0.2,1.8-1.2,2-2.3C341.5,421,353.8,424.7,365.9,429.2L365.9,429.2z"/>
	</defs>
	<clipPath id="SVGID_00000034809611286932472550000005002690677694445485_">
		<use xlink:href="#SVGID_00000008109507566917831540000007040314276140467349_"  style="overflow:visible;"/>
	</clipPath>
	<path style="clip-path:url(#SVGID_00000034809611286932472550000005002690677694445485_);fill:#263238;" d="M362.4,425.6
		L362.4,425.6l7.1,7.1l0,0L362.4,425.6z M328.1,424.9c12.3,1.1,24.2,4.5,36.1,9l3.5-9.4c-12.3-4.6-25.1-8.4-38.7-9.5L328.1,424.9z
		 M327.4,427.1c1.8-0.3,3.4-1.2,4.5-2.7c1-1.3,1.3-2.7,1.5-3.5l-9.8-2c-0.1,0.3,0,0,0.3-0.5c0.2-0.3,0.5-0.6,0.9-0.8
		c0.4-0.2,0.7-0.3,0.9-0.3L327.4,427.1z M288.8,441.8c12.1-7.1,24.8-12.3,38.5-14.7l-1.7-9.9c-15.2,2.6-29.1,8.3-42,15.9
		L288.8,441.8z M265.6,459.3c5.8-7.5,14-12.1,23.2-17.5l-5.1-8.6c-8.6,5.1-18.8,10.6-26,20L265.6,459.3z M268.6,449.9
		c-0.8,0.3-1.7,0.8-2.3,1c-0.7,0.3-1.1,0.5-1.6,0.6c-0.8,0.2-1,0.2-1.3,0.1l-3.7,9.3c3.1,1.2,5.8,0.8,8,0.1c1-0.3,2-0.7,2.7-1.1
		c0.8-0.4,1.3-0.6,1.9-0.9L268.6,449.9z M348,445.5c-26.9-7.7-53.4-6.5-79.4,4.3l3.9,9.2c23.8-10,48-11,72.8-3.9L348,445.5z
		 M353.4,446.4c-0.4,0.2-0.9,0.2-1.8,0.1c-1-0.2-1.9-0.5-3.6-1l-2.8,9.6c2.1,0.6,6.8,2.5,11.6,0.7L353.4,446.4z M361.4,427
		c-1.8,3.7-3.6,7.3-5.4,11c-1.8,3.7-3.6,7.3-5.4,11l9,4.4c1.8-3.7,3.6-7.3,5.4-11c1.8-3.7,3.6-7.3,5.4-11L361.4,427z M365.9,429.2
		l3.5,3.5l5.5-5.5l-7.3-2.7L365.9,429.2z M328.5,419.9l0.4-5l-4.4-0.4l-0.9,4.4L328.5,419.9z M326.5,422.2l0.8,4.9l0,0l0,0
		L326.5,422.2z M286.3,437.5l-2.5-4.3l0,0L286.3,437.5z M261.7,456.3l-4-3l-4,5.3l6.2,2.4L261.7,456.3z M270.6,454.5l-1.9-4.6l0,0
		L270.6,454.5z M346.6,450.3l1.4-4.8l0,0l0,0L346.6,450.3z M355.1,451.1l1.7,4.7l1.9-0.7l0.9-1.8L355.1,451.1z M365.9,429.2
		l-3.5-3.5l-0.6,0.6l-0.4,0.7L365.9,429.2z"/>
</g>
<g>
	<defs>
		<path id="SVGID_00000102540851347118767950000011094607172512471478_" d="M706.9,363.4c20.4,9.9,39.8,7.5,57.9-5.6
			c6.8-5,11-12.1,14.2-19.8c0.8-1.8,1.1-3.8,2.6-5.3c5.3,27.5-14.8,56.2-48.2,57.1c-4.4,0.1-8.9,0.3-13.3-0.3
			C706.4,387.6,700.5,375.5,706.9,363.4z"/>
	</defs>
	<clipPath id="SVGID_00000002357138907285389610000015660320021175110847_">
		<use xlink:href="#SVGID_00000102540851347118767950000011094607172512471478_"  style="overflow:visible;"/>
	</clipPath>
	<path style="clip-path:url(#SVGID_00000002357138907285389610000015660320021175110847_);fill:#263238;" d="M720.7,384.5
		c-5.4-0.7-8.7-3.4-10.3-6.4c-1.5-3.1-1.7-7.4,0.9-12.3l-8.8-4.7c-3.8,7.3-4.2,15-1,21.5c3.2,6.5,9.7,10.8,17.8,11.9L720.7,384.5z
		 M733.2,384.7c-4.6,0.1-8.6,0.3-12.5-0.3l-1.4,9.9c4.9,0.7,9.8,0.5,14.1,0.4L733.2,384.7z M776.6,333.6
		c4.7,24.5-13.2,50.4-43.5,51.2l0.3,10c36.6-0.9,58.9-32.6,53-63L776.6,333.6z M783.6,339.8c0.2-0.6,0.4-1.2,0.6-1.6
		c0.2-0.5,0.3-0.8,0.4-1.2c0.2-0.6,0.4-0.8,0.5-0.9l-7.1-7.1c-1.4,1.4-2.2,2.9-2.7,4.2c-0.2,0.6-0.4,1.2-0.6,1.6
		c-0.2,0.5-0.3,0.8-0.4,1.2L783.6,339.8z M767.7,361.8c7.9-5.8,12.5-13.9,15.8-21.9l-9.3-3.8c-3,7.3-6.7,13.5-12.5,17.6L767.7,361.8
		z M704.7,367.9c10.9,5.3,21.8,7.4,32.5,6.3c10.7-1.1,20.9-5.4,30.5-12.4l-5.9-8.1c-8.5,6.2-17,9.6-25.7,10.5
		c-8.6,0.9-17.6-0.8-27.1-5.4L704.7,367.9z M720,389.4l0.7-5l0,0L720,389.4z M733.3,389.7l0.1,5l0,0L733.3,389.7z M781.5,332.6
		l4.9-0.9l-1.8-9.3l-6.7,6.7L781.5,332.6z M779,337.9l4.6,1.9l0,0L779,337.9z M764.8,357.7l2.9,4l0,0L764.8,357.7z"/>
</g>
<g>
	<defs>
		<path id="SVGID_00000159433668866345302060000017249625102825106342_" d="M725.3,299c-4,6.4-7.3,10.4-3,19.8
			c-2.6,1.6-8.5,1.6-11.4,1.6c-20.4,0-44.9,0-65.3,0c-1.5-3.7-2.2-7.3-3.3-11c-1.4-4.7-5.5-7.1-9.8-9.3c2-2.5,59.9-1,87.8-1
			L725.3,299z"/>
	</defs>
	<clipPath id="SVGID_00000145758495279691945180000017663924493238439565_">
		<use xlink:href="#SVGID_00000159433668866345302060000017249625102825106342_"  style="overflow:visible;"/>
	</clipPath>
	<path style="clip-path:url(#SVGID_00000145758495279691945180000017663924493238439565_);fill:#263238;" d="M720.2,304l5,0l0-10
		l-5,0L720.2,304z M636.4,303.2c-0.7,0.9-1.6,1.3-1.6,1.3c-0.2,0.1-0.3,0.1-0.1,0.1c0.3-0.1,0.8-0.1,1.6-0.2c1.6-0.2,4-0.3,7.1-0.4
		c6-0.2,14.3-0.3,23.4-0.2c18,0.1,39.8,0.4,53.6,0.4l0-10c-14,0-35.1-0.4-53.5-0.4c-9.1,0-17.5,0-23.7,0.2c-3.1,0.1-5.8,0.3-7.8,0.5
		c-1,0.1-2,0.2-2.8,0.4c-0.4,0.1-0.9,0.2-1.4,0.5c-0.4,0.2-1.5,0.6-2.3,1.7L636.4,303.2z M647.1,308c-2.1-7-8.1-10.2-12.3-12.4
		l-4.6,8.9c4.5,2.3,6.5,3.9,7.3,6.3L647.1,308z M650.2,318.6c-1.4-3.4-1.9-6.3-3.1-10.6l-9.6,2.8c0.9,3.2,1.9,7.5,3.4,11.5
		L650.2,318.6z M710.9,315.4c-20.4,0-44.9,0-65.3,0v10c20.5,0,44.9,0,65.3,0L710.9,315.4z M719.5,314.6c0,0-0.2,0.1-0.9,0.3
		c-0.6,0.2-1.5,0.3-2.4,0.3c-1.9,0.2-3.9,0.1-5.3,0.1l-0.1,10c1.4,0,3.8,0,6.3-0.2c2.2-0.2,5.4-0.6,7.8-2.2L719.5,314.6z M721,296.4
		c-1.8,2.8-4.2,6.2-5.2,10.1c-1.2,4.4-0.6,8.9,1.8,14.4l9.1-4.1c-1.8-4-1.7-6.2-1.3-7.7c0.5-2,1.8-3.8,4-7.4L721,296.4z M720.3,299
		l0-5h0h0L720.3,299z M632.5,300l-3.9-3.1l-3.8,4.8l5.4,2.8L632.5,300z M642.3,309.4l4.8-1.4l0,0L642.3,309.4z M645.5,320.4
		l-4.6,1.8l1.3,3.2h3.4V320.4z M710.9,320.4l0-5l0,0l0,0L710.9,320.4z M722.2,318.9l2.7,4.2l3.6-2.3l-1.8-3.9L722.2,318.9z
		 M725.3,299l4.2,2.6l4.7-7.6l-9,0L725.3,299z"/>
</g>
<g>
	<defs>
		<path id="SVGID_00000107566936068435187980000003936112068271544986_" d="M690.5,443.5c-2-5.3-5-12.5-7-17.8
			c7-4.7,39.1-8,56.8-5.8c-4.1,4.7-10.2,4.2-15.4,5.8C714,429.2,700.1,437.7,690.5,443.5z"/>
	</defs>
	<clipPath id="SVGID_00000126321095441218993300000004357347696634873218_">
		<use xlink:href="#SVGID_00000107566936068435187980000003936112068271544986_"  style="overflow:visible;"/>
	</clipPath>
	<path style="clip-path:url(#SVGID_00000126321095441218993300000004357347696634873218_);fill:#263238;" d="M723.3,421
		c-11.5,3.7-26,12.5-35.5,18.3l5.2,8.5c9.8-6,23.1-14.1,33.3-17.3L723.3,421z M736.5,416.6c-1.1,1.2-2.5,1.9-4.7,2.5
		c-1.2,0.3-2.3,0.5-3.8,0.8c-1.4,0.3-3,0.6-4.6,1.1l3.1,9.5c1-0.3,2.1-0.5,3.4-0.8c1.3-0.2,2.8-0.5,4.4-0.9c3.2-0.8,6.9-2.2,9.9-5.7
		L736.5,416.6z M686.3,429.9c0.9-0.6,3.4-1.5,7.6-2.5c4-0.9,9.1-1.6,14.5-2.2c10.9-1.1,23-1.4,31.3-0.4l1.2-9.9
		c-9.3-1.1-22.2-0.8-33.5,0.4c-5.7,0.6-11.1,1.4-15.6,2.4c-4.3,0.9-8.4,2.2-11.1,3.9L686.3,429.9z M695.2,441.7
		c-1-2.7-2.3-5.8-3.5-8.9c-1.2-3.1-2.5-6.3-3.5-8.9l-9.3,3.6c1,2.7,2.3,5.8,3.5,8.9c1.2,3.1,2.5,6.3,3.5,8.9L695.2,441.7z
		 M724.9,425.7l1.5,4.8l0,0L724.9,425.7z M740.3,419.9l3.8,3.3l6.1-7.1l-9.3-1.1L740.3,419.9z M683.5,425.7l-2.8-4.2l-3.3,2.2
		l1.4,3.7L683.5,425.7z M690.5,443.5l-4.7,1.8l2.2,5.6l5.1-3.1L690.5,443.5z"/>
</g>
<path class="st1" d="M673,429.5c2.8,7.7,4.7,16.3,7.5,24c0.2,0.6-3,2-8.5,6.2c-31.1,18-50.1,44.9-55.3,80.2c-4.7,32,3.1,61.4,24,87
	c8.6,10.5,19,18.7,30.4,25.8c1.6,1,3.9,1.5,3.4,4.2c11.2,12.5,25.7,20.1,40.7,26.7c7.5,3.3,15.4,5.5,23.5,6.8
	c1.9,0.3,2.2,0.9,1.5,2.5c-70.4,7.5-130.3-39.9-146.7-100.9c-16.5-61.6,11.8-127.2,69.1-157.5C668.5,431.6,670,430.5,673,429.5z"/>
<g>
	<defs>
		<path id="SVGID_00000167380490542004784740000000851365386081947824_" d="M673,429.5c2.8,7.7,4.7,16.3,7.5,24c0.2,0.6-3,2-8.5,6.2
			c-31.1,18-50.1,44.9-55.3,80.2c-4.7,32,3.1,61.4,24,87c8.6,10.5,19,18.7,30.4,25.8c1.6,1,3.9,1.5,3.4,4.2
			c11.2,12.5,25.7,20.1,40.7,26.7c7.5,3.3,15.4,5.5,23.5,6.8c1.9,0.3,2.2,0.9,1.5,2.5c-70.4,7.5-130.3-39.9-146.7-100.9
			c-16.5-61.6,11.8-127.2,69.1-157.5C668.5,431.6,670,430.5,673,429.5z"/>
	</defs>
	<clipPath id="SVGID_00000057847451771656758160000016842584982045855126_">
		<use xlink:href="#SVGID_00000167380490542004784740000000851365386081947824_"  style="overflow:visible;"/>
	</clipPath>
	<path style="clip-path:url(#SVGID_00000057847451771656758160000016842584982045855126_);fill:#263238;" d="M665,439.1
		c6.2-3.3,7.1-4,9.5-4.8l-3.2-9.5c-3.5,1.2-5.7,2.6-11.1,5.4L665,439.1z M598.4,590.8c-15.9-59.3,11.4-122.6,66.6-151.7l-4.7-8.8
		c-59.3,31.4-88.7,99.3-71.6,163.2L598.4,590.8z M739.8,688c-67.8,7.2-125.6-38.5-141.3-97.2l-9.7,2.6c17,63.2,79,112.3,152,104.6
		L739.8,688z M738,695.5c0.3,0,0.2,0.1-0.1-0.1c-0.3-0.1-1.1-0.6-1.7-1.6c-0.6-1-0.6-2-0.5-2.5c0.1-0.4,0.2-0.6,0.1-0.3l9.1,4.1
		c0.3-0.6,0.6-1.4,0.7-2.4c0.1-1,0.1-2.5-0.7-3.9c-0.8-1.4-2-2.2-2.9-2.5c-0.9-0.4-1.7-0.6-2.4-0.7L738,695.5z M713.3,688.3
		c7.9,3.4,16.2,5.8,24.7,7.1l1.5-9.9c-7.7-1.2-15.1-3.3-22.3-6.4L713.3,688.3z M670.8,660.4c11.9,13.4,27.2,21.3,42.5,28l4-9.2
		c-14.9-6.5-28.6-13.8-39-25.5L670.8,660.4z M668.4,657c0.3,0.2,0.7,0.4,0.9,0.5c0.1,0.1,0.3,0.1,0.4,0.2c0.1,0.1,0.2,0.1,0.3,0.2
		c0.4,0.2,0.4,0.3,0.4,0.2c-0.1-0.1-0.4-0.4-0.6-0.9c-0.2-0.6-0.2-1-0.2-1l9.8,1.7c0.3-1.4,0.2-2.9-0.4-4.4
		c-0.6-1.4-1.5-2.4-2.3-3.1c-0.8-0.6-1.6-1.1-2.1-1.3c-0.6-0.3-0.8-0.4-1-0.5L668.4,657z M636.8,630.1c9.1,11.1,19.9,19.6,31.6,26.9
		l5.3-8.5c-11.1-6.9-21-14.8-29.2-24.7L636.8,630.1z M611.8,539.3c-4.9,33.4,3.3,64.2,25,90.9l7.7-6.3
		c-19.9-24.5-27.4-52.4-22.9-83.1L611.8,539.3z M669.5,455.4c-32.3,18.8-52.3,46.9-57.7,83.8l9.9,1.4c4.9-33.7,23-59.3,52.8-76.6
		L669.5,455.4z M675.8,455.3c-0.8-2.3,0.3-4,0.6-4.4c0.3-0.5,0.6-0.7,0.5-0.6c-0.1,0.1-0.4,0.3-1.3,0.8c-1.5,0.9-3.8,2.4-6.7,4.7
		l6.1,8c2.6-2,4.6-3.3,6.1-4.2c0.7-0.4,1.4-0.9,2-1.4c0.3-0.2,0.8-0.7,1.3-1.3c0.4-0.6,1.6-2.5,0.7-5L675.8,455.3z M668.3,431.3
		c1.3,3.7,2.5,7.6,3.6,11.7c1.2,4,2.4,8.3,3.9,12.3l9.4-3.5c-1.3-3.7-2.5-7.5-3.6-11.6c-1.2-4-2.4-8.3-3.9-12.4L668.3,431.3z
		 M662.7,434.7l2.3,4.4L662.7,434.7z M593.6,592.1l4.8-1.3l0,0L593.6,592.1z M740.3,693l0.5,5l2.9-0.3l1.2-2.6L740.3,693z
		 M738.8,690.5l-0.8,4.9l0,0l0,0L738.8,690.5z M715.3,683.8l-2,4.6l0,0L715.3,683.8z M674.5,657l-4.9-0.9l-0.4,2.4l1.6,1.8
		L674.5,657z M671.1,652.8l2.7-4.2l0,0L671.1,652.8z M640.7,627l-3.9,3.2l0,0L640.7,627z M616.7,540l-4.9-0.7l0,0L616.7,540z
		 M672,459.7l2.5,4.3l0.3-0.2l0.2-0.2L672,459.7z M680.5,453.5l4.7-1.7L680.5,453.5z M673,429.5l4.7-1.7l-1.7-4.5l-4.6,1.5
		L673,429.5z"/>
</g>
<path class="st1" d="M328.5,693c-3.6-4.2-9.1-3.6-13.7-5c-19.4-6-36.5-16-52-29c-0.6-0.5-0.8-1.5-1.2-2.3c3.4-1.3,6.1,0.8,8.9,1.9
	c44.5,17.3,84.8,9.9,120.1-21.6c17.8-15.9,28.1-36.7,32.8-60.2c0.8-3.7,0.1-11.2,4.2-13.8c10.3,1.3,16.7-2.5,24.2,1.3
	c-3.9,61.5-52.2,116.5-114.2,127.4C334.7,692.2,331.8,693.9,328.5,693L328.5,693z"/>
<g>
	<defs>
		<path id="SVGID_00000090275723749494521280000016177813443672842159_" d="M328.5,693c-3.6-4.2-9.1-3.6-13.7-5
			c-19.4-6-36.5-16-52-29c-0.6-0.5-0.8-1.5-1.2-2.3c3.4-1.3,6.1,0.8,8.9,1.9c44.5,17.3,84.8,9.9,120.1-21.6
			c17.8-15.9,28.1-36.7,32.8-60.2c0.8-3.7,0.1-11.2,4.2-13.8c10.3,1.3,16.7-2.5,24.2,1.3c-3.9,61.5-52.2,116.5-114.2,127.4
			C334.7,692.2,331.8,693.9,328.5,693L328.5,693z"/>
	</defs>
	<clipPath id="SVGID_00000130618875852483381830000017087369360281827207_">
		<use xlink:href="#SVGID_00000090275723749494521280000016177813443672842159_"  style="overflow:visible;"/>
	</clipPath>
	<path style="clip-path:url(#SVGID_00000130618875852483381830000017087369360281827207_);fill:#263238;" d="M332.1,689.5
		L332.1,689.5l-7.1,7.1l0,0L332.1,689.5z M336.8,686.8c-1,0.2-2,0.4-2.8,0.7c-0.9,0.2-1.4,0.4-2.1,0.6c-1.2,0.3-1.8,0.3-2.2,0.2
		l-2.5,9.7c2.8,0.7,5.3,0.3,7.1-0.1c0.9-0.2,1.8-0.5,2.4-0.7c0.7-0.2,1.3-0.3,1.7-0.4L336.8,686.8z M446.9,564
		c-3.8,59.2-50.4,112.3-110.1,122.8l1.7,9.8c64.2-11.3,114.2-68.3,118.3-132L446.9,564z M427.1,567.9c5.8,0.7,10.7,0,14.2-0.3
		c3.6-0.3,5.9-0.2,8.4,1.1l4.5-8.9c-5-2.6-9.7-2.5-13.7-2.1c-4.2,0.3-7.6,0.9-12.1,0.3L427.1,567.9z M428.4,577.8
		c0.3-1.3,0.4-2.8,0.5-3.9c0.1-1.3,0.2-2.5,0.4-3.6c0.4-2.5,1-3,1.1-3l-5.3-8.5c-4,2.5-5.2,7-5.7,9.9c-0.3,1.6-0.4,3.1-0.5,4.4
		c-0.1,1.4-0.2,2.2-0.3,2.8L428.4,577.8z M394,640.7c18.8-16.7,29.5-38.6,34.4-62.9l-9.8-2c-4.6,22.6-14.4,42.4-31.2,57.4L394,640.7
		z M268.7,663.2c23,8.9,45.1,11.6,66.2,7.8c21.1-3.8,40.8-14,59.1-30.3l-6.7-7.5c-17.1,15.3-35.2,24.5-54.2,27.9
		c-19,3.4-39.3,1.1-60.8-7.3L268.7,663.2z M263.5,661.3c0.2-0.1,0.5-0.2,1.2,0.1c0.4,0.2,0.9,0.4,1.6,0.7c0.6,0.3,1.5,0.7,2.4,1.1
		l3.6-9.3c-0.5-0.2-1-0.4-1.8-0.8c-0.7-0.3-1.6-0.8-2.6-1.1c-2.1-0.7-4.9-1.2-8.1,0L263.5,661.3z M266.1,655.1
		c0.3,0.3,0.5,0.6,0.6,0.7c0.1,0.1,0.1,0.2,0,0.1c0,0,0-0.1-0.1-0.2c0,0,0-0.1-0.1-0.1c0-0.1,0-0.1-0.1-0.2c-0.1-0.2-0.3-0.6-0.5-1
		l-8.9,4.6c0,0,0,0,0.1,0.2c0,0.1,0.2,0.5,0.3,0.8c0.2,0.5,0.8,1.8,2,2.9L266.1,655.1z M316.3,683.2c-18.7-5.7-35.2-15.4-50.2-28.1
		l-6.4,7.7c15.9,13.4,33.6,23.8,53.7,30L316.3,683.2z M332.3,689.7c-2.8-3.2-6.2-4.5-9.1-5.2c-1.4-0.3-2.8-0.5-3.9-0.7
		c-1.2-0.2-2.1-0.4-3-0.6l-2.9,9.6c1.5,0.5,2.9,0.7,4.2,0.9c1.3,0.2,2.3,0.4,3.4,0.6c1.9,0.4,3,1,3.8,1.9L332.3,689.7z M328.5,693
		l-3.5,3.5l1,1l1.3,0.3L328.5,693z M337.7,691.7l-0.9-4.9l0,0L337.7,691.7z M451.9,564.3l5,0.3l0.2-3.3l-2.9-1.5L451.9,564.3z
		 M427.7,563l0.6-5l-1.8-0.2l-1.5,0.9L427.7,563z M423.5,576.8l4.9,1l0,0L423.5,576.8z M390.6,636.9l-3.3-3.7l0,0L390.6,636.9z
		 M270.5,658.5l1.8-4.7l0,0L270.5,658.5z M261.7,656.6l-1.8-4.7l-5.2,2l2.5,4.9L261.7,656.6z M262.9,658.9l-3.2,3.8l0,0l0,0
		L262.9,658.9z M314.9,688l1.5-4.8l0,0L314.9,688z M328.5,693l-3.8,3.3l0.1,0.1l0.1,0.1L328.5,693z"/>
</g>
<g>
	<defs>
		<path id="SVGID_00000132088709375790538010000001232659646550108092_" d="M450.9,567.3h-24.4c-15,0-39.2,0.7-46.5,1.2
			c-22,0.3-19.3,0.8-41.3,0.8c-2,0-4-0.1-5.9-0.8c-1-0.5-2.3-1.2-2-2.4c1.8-6.8,2.7-13.1,0.4-20.4l0.1-0.1c2.3-1.5,4.9-2,7.6-2
			c21.8,0.1,43.7-0.3,65.5,0.1c7.2-0.1,14.4-0.2,21.6,0c7.9,0.1,15.8-0.6,23.7,0.4c0.8,0.2,1.5,0.6,2.2,1c2.2,7.2,1.9,14.5,0,21.7
			C451.7,567.1,451.3,567.3,450.9,567.3L450.9,567.3z"/>
	</defs>
	<clipPath id="SVGID_00000021079616831568190730000002701906227163827105_">
		<use xlink:href="#SVGID_00000132088709375790538010000001232659646550108092_"  style="overflow:visible;"/>
	</clipPath>
	<path style="clip-path:url(#SVGID_00000021079616831568190730000002701906227163827105_);fill:#263238;" d="M450.8,572.3
		L450.8,572.3l0-10h0V572.3z M449.6,562.6c0.3-0.2,0.8-0.3,1.3-0.3v10c1.3,0,2.6-0.4,3.7-1L449.6,562.6z M447.3,546.7
		c1.9,6.1,1.7,12.4-0.1,18.9l9.7,2.6c2.1-7.9,2.5-16.1-0.1-24.5L447.3,546.7z M448.6,549c0.1,0,0.3,0.1,0.4,0.2l5.9-8.1
		c-1.1-0.8-2.5-1.5-4-1.9L448.6,549z M426.1,548.8c8.5,0.1,15.6-0.6,23.1,0.4l1.2-9.9c-8.2-1-16.9-0.4-24.2-0.5L426.1,548.8z
		 M404.6,548.8c7.2-0.1,14.3-0.2,21.4,0l0.3-10c-7.3-0.2-14.7-0.2-21.9,0L404.6,548.8z M339,548.6c22,0.1,43.7-0.3,65.5,0.1l0.2-10
		c-21.9-0.4-43.9-0.1-65.6-0.1L339,548.6z M334.1,549.8c1.3-0.8,2.9-1.2,4.9-1.2l0.1-10c-3.4,0-7,0.7-10.4,2.8L334.1,549.8z
		 M334.2,549.7l0.1-0.1l-6-8l-0.1,0.1L334.2,549.7z M335.7,567.4c1.9-7.2,3-14.5,0.3-23.1l-9.5,3c1.9,6,1.3,11.2-0.4,17.6
		L335.7,567.4z M335,564c-0.2-0.1-0.3-0.2-0.4-0.2c-0.1,0,0,0,0.2,0.2c0.2,0.2,0.5,0.5,0.8,1.2c0.3,0.7,0.3,1.5,0.1,2.2l-9.7-2.5
		c-0.8,2.9,0.7,5.1,1.9,6.3c1,1,2.2,1.6,2.7,1.8L335,564z M338.7,564.3c-1.9,0-3.2-0.1-4.2-0.5l-3.5,9.4c2.8,1,5.6,1.1,7.6,1.1
		V564.3z M379.9,563.5c-22.5,0.3-19.1,0.8-41.2,0.8v10c21.9,0,19.8-0.5,41.4-0.8L379.9,563.5z M426.5,562.3c-15,0-39.4,0.7-46.8,1.2
		l0.7,10c7.1-0.5,31.2-1.2,46.1-1.2V562.3z M450.9,562.3h-24.4v10h24.4V562.3z M452,566.9l2.5,4.3l1.8-1l0.5-2L452,566.9z
		 M452,545.2l4.8-1.5l-0.5-1.6l-1.3-1L452,545.2z M449.8,544.2l1.2-4.9l-0.3-0.1l-0.3,0L449.8,544.2z M426.2,543.8l-0.2,5l0.1,0
		l0.1,0L426.2,543.8z M404.5,543.8l-0.1,5l0.1,0l0.1,0L404.5,543.8z M339,543.6l0,5l0,0l0,0L339,543.6z M331.4,545.6l-2.7-4.2
		l-0.1,0.1l-0.1,0.1L331.4,545.6z M331.2,545.7l-3-4l-2.8,2.1l1.1,3.4L331.2,545.7z M330.8,566.1l-4.8-1.3l0,0L330.8,566.1z
		 M332.8,568.5l-2.2,4.5l0.2,0.1l0.2,0.1L332.8,568.5z M380,568.5l0.1,5l0.1,0l0.1,0L380,568.5z"/>
</g>
<g>
	<defs>
		<path id="SVGID_00000124851477385970164950000009017947738715584149_" d="M452.1,566.9c-1-7-1-14,0-20.9c0.5-9,8.9-18.9,17.3-23.2
			c7.6-5.2,12.7-5.2,19.4-6.6c2.7-1.1,13.9-0.6,19.7,4.4c0,0.3,0,0.5,0,0.8c-0.1,0.9-0.5,1.8-1.3,2.2c-9.6,5.5-11.3,18.5-15.7,28
			c-3.5,0.5-5.7,6.1-5.5,12.5c0.2,7.6-0.9,14.4-1,22c0,2.8,0,9,0,9C469,591.5,457.5,584.5,452.1,566.9L452.1,566.9z"/>
	</defs>
	<clipPath id="SVGID_00000049183738525737545320000010294050564761480339_">
		<use xlink:href="#SVGID_00000124851477385970164950000009017947738715584149_"  style="overflow:visible;"/>
	</clipPath>
	<path style="clip-path:url(#SVGID_00000049183738525737545320000010294050564761480339_);fill:#263238;" d="M455.6,570.5
		L455.6,570.5l-7.1-7.1l0,0L455.6,570.5z M486.1,590.2c-7.6-1.7-13.7-4.1-18.4-7.8c-4.7-3.7-8.4-8.9-10.8-16.9l-9.6,3
		c3,9.6,7.7,16.7,14.2,21.8c6.4,5,14.1,7.9,22.5,9.7L486.1,590.2z M480,586c0,1.5,0,3.7,0,5.6c0,1,0,1.8,0,2.4c0,0.3,0,0.6,0,0.7
		c0,0.1,0,0.2,0,0.2c0,0,0,0,0,0.1c0,0,0,0,0,0c0,0,0,0,0,0c0,0,0,0,0,0c0,0,0,0,0,0s0,0,5,0c5,0,5,0,5,0c0,0,0,0,0,0s0,0,0,0
		c0,0,0,0,0,0c0,0,0,0,0,0c0,0,0,0,0-0.1c0,0,0-0.1,0-0.2c0-0.2,0-0.4,0-0.7c0-0.6,0-1.5,0-2.4c0-1.9,0-4.1,0-5.5L480,586z
		 M481,564.2c0.1,3.5-0.1,6.9-0.4,10.5c-0.3,3.5-0.6,7.3-0.6,11.3l10,0.1c0.1-3.6,0.3-7,0.6-10.7c0.3-3.6,0.5-7.4,0.4-11.5
		L481,564.2z M490.8,546.6c-4.4,0.6-6.8,4.2-8,7c-1.3,3.1-1.9,6.8-1.8,10.5l10-0.3c-0.1-2.7,0.4-4.9,1-6.4c0.7-1.7,1.1-1.2,0.2-1
		L490.8,546.6z M504.7,519.2c-6.2,3.5-9.6,9.4-11.9,14.9c-1.2,2.8-2.1,5.6-3.1,8.2c-0.9,2.7-1.8,5.1-2.8,7.2l9.1,4.1
		c1.2-2.6,2.2-5.4,3.1-8.1c0.9-2.7,1.8-5.2,2.8-7.6c2-4.8,4.3-8.2,7.7-10.1L504.7,519.2z M503.5,520.5c0,0.1,0,0,0.1-0.2
		c0.1-0.3,0.5-0.8,1.1-1.1l4.9,8.7c2.8-1.6,3.5-4.5,3.7-5.8L503.5,520.5z M503.5,520.5C503.5,520.5,503.5,520.6,503.5,520.5
		c0,0.1,0,0.1,0,0.1c0,0,0,0,0,0.1c0,0,0,0,0,0C503.5,520.6,503.5,520.6,503.5,520.5l9.9,1.5c0.1-0.7,0.1-1.3,0.1-1.5H503.5z
		 M490.6,520.8c-0.2,0.1,0.3-0.1,1.7-0.1c1.2,0,2.8,0.1,4.4,0.3c3.5,0.5,6.6,1.7,8.5,3.3l6.5-7.6c-3.9-3.4-9.2-4.9-13.5-5.6
		c-2.2-0.3-4.3-0.5-6.2-0.5c-1.6,0-3.6,0.2-5.2,0.8L490.6,520.8z M472.2,526.9c6.6-4.5,10.2-4.3,17.6-5.9l-2.1-9.8
		c-6.1,1.3-12.5,1.5-21.1,7.4L472.2,526.9z M457.1,546.3c0.2-3.2,1.8-6.9,4.7-10.6c2.8-3.6,6.5-6.7,9.9-8.5l-4.5-8.9
		c-4.9,2.5-9.7,6.6-13.3,11.2c-3.6,4.6-6.4,10.3-6.8,16.2L457.1,546.3z M457,566.2c-0.9-6.5-0.9-13,0-19.5l-9.9-1.4
		c-1,7.4-1.1,14.9,0,22.3L457,566.2z M452,566.9l-3.5-3.5l-2.1,2.1l0.9,2.9L452,566.9z M485,595l-1.1,4.9l6.1,1.3l0-6.2L485,595z
		 M485,586l-5-0.1l0,0L485,586z M486,564l-5,0.1l0,0L486,564z M491.5,551.5l0.7,4.9l2.7-0.4l1.1-2.5L491.5,551.5z M507.2,523.5
		l-2.5-4.3l0,0L507.2,523.5z M508.5,521.3l4.9,0.8l0,0l0,0L508.5,521.3z M508.5,520.5h5v-2.3l-1.7-1.5L508.5,520.5z M488.8,516.1
		l1.1,4.9l0.4-0.1l0.4-0.1L488.8,516.1z M469.4,522.8l2.3,4.5l0.3-0.1l0.3-0.2L469.4,522.8z M452.1,546l5,0.7l0-0.2l0-0.2L452.1,546
		z M452.1,566.9l3.5,3.5l1.8-1.8l-0.3-2.5L452.1,566.9z"/>
</g>
<g>
	<defs>
		<path id="SVGID_00000081618437570894160060000018350279224461924740_" d="M488.3,552c0,0,9.8-25.4,20.1-30.8
			c6.6,2.5,10.8,8.1,15.7,12.8c4.5,9.1,7.7,18.4,5.7,28.8c-2.5,13.1-9.2,22.8-21.4,28.6c-3.9,0.5-9.8,7.4-11.5,4.1
			c0-2.5-1-22.2-0.5-29C497.3,555.5,493.5,549,488.3,552z"/>
	</defs>
	<clipPath id="SVGID_00000047041250778701894240000011965725582258722230_">
		<use xlink:href="#SVGID_00000081618437570894160060000018350279224461924740_"  style="overflow:visible;"/>
	</clipPath>
	<path style="clip-path:url(#SVGID_00000047041250778701894240000011965725582258722230_);fill:#263238;" d="M501.5,566.9
		c0.4-5.9-0.3-11.5-2.5-15.3c-1.1-2-2.9-3.9-5.5-4.8c-2.7-0.9-5.4-0.3-7.7,1l5,8.7c0.4-0.2,0.1,0.1-0.5-0.1c-0.5-0.2-0.4-0.4,0,0.3
		c0.8,1.4,1.6,4.6,1.2,9.7L501.5,566.9z M502,595.5c0-1.3-0.2-7.1-0.4-13c-0.2-6.2-0.3-12.5-0.1-15.6l-10-0.7
		c-0.3,3.7-0.1,10.6,0.1,16.6c0.2,6.3,0.4,11.6,0.4,12.7H502z M507.9,586.5c-2.1,0.2-3.9,1.2-5.1,1.9c-1.2,0.7-2.7,1.7-3.5,2.2
		c-1.1,0.7-1.5,0.8-1.4,0.8c0.1,0,0.8-0.2,1.8,0.2c1,0.4,1.6,1.1,1.9,1.6l-8.9,4.5c0.7,1.3,1.8,2.6,3.5,3.2c1.6,0.6,3,0.5,4,0.2
		c1.8-0.4,3.5-1.4,4.5-2.1c1.4-0.9,2.2-1.4,3.2-2.1c1.1-0.6,1.4-0.7,1.3-0.6L507.9,586.5z M525,561.9c-2.2,11.7-8.1,20-18.6,25
		l4.3,9c13.8-6.5,21.4-17.7,24.2-32.2L525,561.9z M519.7,536.3c4.4,8.7,7,16.8,5.3,25.6l9.8,1.9c2.3-12.1-1.5-22.6-6.2-31.9
		L519.7,536.3z M506.7,526c2.5,0.9,4.6,2.5,6.9,4.6c1.1,1,2.2,2.2,3.4,3.4c1.2,1.2,2.4,2.5,3.7,3.8l6.9-7.2
		c-1.1-1.1-2.2-2.2-3.4-3.5c-1.2-1.2-2.5-2.5-3.8-3.8c-2.7-2.5-6-5-10.1-6.6L506.7,526z M488.3,552c4.7,1.8,4.7,1.8,4.7,1.8
		c0,0,0,0,0,0c0,0,0,0,0,0c0,0,0,0,0,0c0,0,0,0,0,0c0,0,0-0.1,0.1-0.2c0.1-0.2,0.2-0.4,0.3-0.8c0.3-0.7,0.7-1.6,1.2-2.8
		c1-2.4,2.5-5.6,4.3-9c1.8-3.4,3.9-6.8,6-9.7c2.2-2.9,4.2-4.8,5.8-5.6l-4.6-8.9c-3.6,1.9-6.7,5.2-9.2,8.5c-2.6,3.4-4.9,7.4-6.9,11
		c-1.9,3.7-3.5,7.1-4.7,9.7c-0.6,1.3-1,2.3-1.3,3.1c-0.2,0.4-0.3,0.7-0.3,0.9c0,0.1-0.1,0.2-0.1,0.2c0,0,0,0,0,0.1c0,0,0,0,0,0
		c0,0,0,0,0,0c0,0,0,0,0,0C483.7,550.3,483.7,550.3,488.3,552z M496.5,566.5l-5-0.3L496.5,566.5z M497,595.5h-5v1.2l0.5,1.1
		L497,595.5z M508.5,591.5l0.6,5l0.8-0.1l0.7-0.4L508.5,591.5z M529.9,562.9l4.9,0.9l0,0L529.9,562.9z M524.2,534.1l4.5-2.2
		l-0.4-0.8l-0.6-0.6L524.2,534.1z M508.5,521.3l1.8-4.7l-2.1-0.8l-2,1L508.5,521.3z M488.3,552l-4.7-1.8l-5.1,13.2l12.2-7.1
		L488.3,552z"/>
</g>
<g>
	<defs>
		<path id="SVGID_00000039821902725232399530000002296149807746776710_" d="M488.3,546.2c9.3,0.2,13,3.7,13.1,12.7
			c0.1,9.5,0.2,19,0.3,28.5c1.4,2.4,1.6,4.8,0,7.3c-0.1,0.3-0.2,0.7-0.4,1c-1.1,8.6-0.5,17.3-0.4,25.9c0.1,4.6-1.7,8.5-6.1,8.7
			c-2,0.1-4,0.1-6,0.1c-7.5-0.3-8-2.9-8.1-10.6c-0.1-8,0.3-16-0.2-24c-0.2-0.3-0.4-0.6-0.4-0.9c0.1-11.7,0.4-23.5,0.4-35.2
			C480.5,553.4,482.5,548.8,488.3,546.2L488.3,546.2z"/>
	</defs>
	<clipPath id="SVGID_00000123443339914331472620000017290950365856132225_">
		<use xlink:href="#SVGID_00000039821902725232399530000002296149807746776710_"  style="overflow:visible;"/>
	</clipPath>
	<path style="clip-path:url(#SVGID_00000123443339914331472620000017290950365856132225_);fill:#263238;" d="M488.3,551.2
		L488.3,551.2l0-10h0V551.2z M485.5,559.5c0-2.6,0.4-4.3,1.1-5.6c0.6-1.2,1.7-2.3,3.7-3.2l-4.1-9.1c-3.8,1.7-6.6,4.2-8.4,7.5
		c-1.8,3.2-2.4,6.8-2.3,10.4L485.5,559.5z M485.1,594.8c0.1-11.7,0.4-23.5,0.4-35.3l-10,0c0.1,11.7-0.2,23.3-0.4,35.1L485.1,594.8z
		 M484.6,592.7c0.1,0.2,0.3,0.5,0.4,1l-9.8,2.1c0.3,1.2,0.8,2.2,1.3,2.9L484.6,592.7z M485.7,619.6c-0.1-7.6,0.3-16.1-0.2-24.2
		l-10,0.5c0.4,7.9,0.1,15.4,0.2,23.8L485.7,619.6z M489,625.3c-3.6-0.1-3.2-0.8-2.8-0.2c0,0.1-0.1-0.1-0.3-1.1
		c-0.1-1-0.2-2.3-0.2-4.3l-10,0.1c0,1.9,0.1,3.8,0.3,5.5c0.2,1.7,0.7,3.6,1.8,5.3c2.5,3.9,6.9,4.6,10.9,4.8L489,625.3z M494.7,625.2
		c-2,0.1-3.9,0.1-5.7,0.1l-0.3,10c2.2,0.1,4.3,0,6.3-0.1L494.7,625.2z M495.9,621.5c0,1.8-0.3,2.8-0.6,3.3c-0.1,0.2-0.2,0.2-0.2,0.2
		c0,0,0,0-0.1,0c-0.1,0-0.2,0-0.3,0l0.3,10c3.9-0.1,7-2.1,8.8-5c1.7-2.7,2.2-5.9,2.1-8.7L495.9,621.5z M496.4,594.9
		c-1.2,9.1-0.5,18.4-0.4,26.6l10-0.1c-0.1-9.1-0.7-17.1,0.3-25.2L496.4,594.9z M496.8,593.6c0,0,0.1-0.3,0.2-0.5l8.6,5.1
		c0.5-0.9,0.8-1.8,0.9-2.5L496.8,593.6z M497.4,589.9c0.4,0.7,0.5,1.1,0.5,1.2c0,0.1,0,0.3-0.3,0.8l8.3,5.6c1.3-2,2-4.2,2-6.5
		c-0.1-2.3-0.8-4.3-1.8-6L497.4,589.9z M496.4,558.9c0.1,9.5,0.2,18.9,0.3,28.5l10-0.1c-0.1-9.5-0.1-19-0.3-28.5L496.4,558.9z
		 M488.2,551.2c4.2,0.1,5.9,0.9,6.6,1.6c0.7,0.7,1.5,2.2,1.6,6.1l10-0.1c-0.1-5-1.1-9.8-4.7-13.2c-3.5-3.3-8.3-4.4-13.4-4.4
		L488.2,551.2z M488.3,546.2v-5h-1.1l-1,0.4L488.3,546.2z M480.5,559.5l-5,0l0,0L480.5,559.5z M480.1,594.7l-5-0.1l0,0.6l0.1,0.5
		L480.1,594.7z M480.6,595.7l5-0.3l-0.1-1.5l-0.9-1.2L480.6,595.7z M480.7,619.6l-5,0l0,0L480.7,619.6z M488.9,630.3l-0.2,5l0,0l0,0
		L488.9,630.3z M494.9,630.2l-0.2-5l0,0L494.9,630.2z M500.9,621.5l-5,0.1l0,0L500.9,621.5z M501.3,595.6L497,593l-0.5,0.9l-0.1,1
		L501.3,595.6z M501.7,594.6l-4.2-2.8l-0.5,0.8l-0.2,0.9L501.7,594.6z M501.7,587.3l-5,0l0,1.3l0.7,1.1L501.7,587.3z M501.4,558.8
		l-5,0.1l0,0L501.4,558.8z M488.3,546.2l0.1-5l0,0h0V546.2z"/>
</g>
<g>
	<defs>
		<path id="SVGID_00000124141972636717449530000003563468593063331748_" d="M480.6,595.7c2,7.9,0.7,15.8,0.8,23.8c0,5,1,7.2,6.6,6.9
			c14.6-0.6,11.9,1.7,12.4-12.4c0.2-6.1-1.4-12.4,1-18.4c0.1,7.8,0.5,15.6,0.1,23.4c-0.3,5.5,0.8,8.5,7.1,7.4
			c2.7-0.5,5.3,0.3,7.6,1.9c3.7,2.6,5,6.2,4.2,10.5c-0.8,4.4-3.6,7.6-7.9,7.9c-14.2,1.1-28.5,1.1-42.8,0c-5.5-0.4-8.6-4.7-8.3-10.4
			s3.7-8.9,9.1-9.9c1.5-0.3,3.1-0.3,4.7-0.1c4.3,0.6,5.3-1.3,5.2-5.3C480.2,612.6,480.5,604.2,480.6,595.7L480.6,595.7z"/>
	</defs>
	<clipPath id="SVGID_00000028295937307052289800000008113803268128631728_">
		<use xlink:href="#SVGID_00000124141972636717449530000003563468593063331748_"  style="overflow:visible;"/>
	</clipPath>
	<path style="clip-path:url(#SVGID_00000028295937307052289800000008113803268128631728_);fill:#263238;" d="M482.9,591.2
		L482.9,591.2l-4.5,8.9l0,0L482.9,591.2z M485.4,621c-0.2-8.3,0.1-16.6,0.3-25.2l-10-0.1c-0.1,8.3-0.4,17-0.3,25.6L485.4,621z
		 M474.5,631.4c2.7,0.4,6.2,0.3,8.7-2.6c2.1-2.5,2.2-5.7,2.2-7.7l-10,0.2c0,0.4,0,0.7,0,1c0,0.3,0,0.4-0.1,0.5c0,0.2,0-0.1,0.3-0.5
		c0.2-0.2,0.4-0.4,0.6-0.5c0.2-0.1,0.4-0.2,0.5-0.2c0.1,0,0,0-0.1,0c-0.1,0-0.4,0-0.7-0.1L474.5,631.4z M471.4,631.4
		c1-0.2,2.1-0.2,3.1-0.1l1.4-9.9c-2.1-0.3-4.2-0.2-6.3,0.1L471.4,631.4z M466.4,636.6c0.1-1.8,0.6-2.8,1.2-3.4
		c0.6-0.7,1.8-1.4,3.8-1.7l-1.8-9.8c-3.4,0.6-6.7,2-9.2,4.6c-2.6,2.6-3.9,6.1-4,10L466.4,636.6z M470.1,641.8
		c-1.4-0.1-2.3-0.7-2.8-1.3c-0.6-0.7-1.1-2-1-3.9l-10-0.4c-0.2,3.8,0.8,7.5,3.1,10.5c2.4,3,5.8,4.8,9.9,5.1L470.1,641.8z
		 M512.1,641.8c-14,1-28,1.1-42,0l-0.8,10c14.5,1.1,29.1,1.1,43.5,0L512.1,641.8z M515.5,638c-0.5,2.8-1.9,3.7-3.4,3.8l0.7,10
		c7.2-0.5,11.4-6,12.5-12L515.5,638z M513.4,632.4c1.1,0.8,1.7,1.6,2,2.3c0.3,0.8,0.4,1.8,0.2,3.3l9.8,1.8c0.5-2.9,0.4-5.8-0.7-8.6
		c-1.1-2.8-3-5.1-5.6-6.9L513.4,632.4z M509.5,631.3c1.1-0.2,2.4,0.1,3.9,1.1l5.7-8.2c-3.1-2.1-7.1-3.5-11.4-2.7L509.5,631.3z
		 M496.5,618.8c-0.1,1.5-0.1,3.1,0.2,4.6c0.2,1.5,0.7,3.3,2,4.9c2.8,3.6,7.2,3.7,10.8,3.1l-1.8-9.8c-1.2,0.2-1.8,0.2-1.9,0.1
		c0,0,0.1,0,0.2,0.1c0.2,0.1,0.3,0.2,0.4,0.4c0.2,0.3,0.1,0.3,0-0.2c-0.1-0.6-0.1-1.4-0.1-2.7L496.5,618.8z M496.4,595.6
		c0.1,8.1,0.5,15.5,0.1,23.1l10,0.5c0.4-8,0-16.2-0.1-23.7L496.4,595.6z M505.3,614.1c0.1-1.8,0-3.5-0.1-5.1c-0.1-1.6-0.2-3-0.2-4.5
		c-0.1-2.8,0.1-5.1,1-7.1l-9.3-3.7c-1.6,3.9-1.8,7.8-1.7,11.1c0,1.6,0.2,3.3,0.2,4.8c0.1,1.5,0.1,2.9,0.1,4.2L505.3,614.1z
		 M488.2,631.4c1.8-0.1,3.3-0.1,4.6-0.1c1.3,0,2.5,0,3.5-0.1c1,0,2.1-0.1,3.2-0.4c1.1-0.3,2.5-0.8,3.7-2.1c1.2-1.2,1.7-2.6,1.9-3.7
		c0.2-1,0.3-2.1,0.3-3.1c0.1-2.4,0-4,0.1-7.8l-10-0.4c-0.1,3.3-0.1,6.7-0.1,7.9c0,0.8-0.1,1.2-0.1,1.2c0,0,0.1-0.5,0.7-1.1
		c0.3-0.3,0.5-0.5,0.8-0.6c0.1-0.1,0.2-0.1,0.3-0.1c0.1,0,0.1,0,0.1,0c0,0,0,0-0.1,0c-0.1,0-0.1,0-0.2,0c-0.2,0-0.5,0-0.9,0.1
		c-0.8,0-1.8,0-3.2,0.1c-1.3,0-2.9,0-4.8,0.1L488.2,631.4z M476.4,619.4c0,2.4,0.1,5.9,2.3,8.6c2.5,3,6.3,3.5,9.4,3.3l-0.4-10
		c-1.1,0-1.7-0.1-1.8-0.1c-0.1,0,0.2,0.1,0.5,0.4c0.2,0.3,0.2,0.4,0.1,0c-0.1-0.4-0.1-1.1-0.1-2.2H476.4z M475.7,596.9
		c0.8,3.3,1,6.8,1,10.6c0,1.9-0.1,3.8-0.2,5.8c-0.1,2-0.2,4.1-0.1,6.2l10,0c0-1.9,0.1-3.7,0.1-5.7c0.1-2,0.2-4,0.2-6.1
		c0.1-4.1-0.1-8.6-1.3-13.1L475.7,596.9z M480.6,595.7l5,0.1l0-3.1l-2.8-1.4L480.6,595.7z M480.4,621.1l5-0.1l0,0l0,0L480.4,621.1z
		 M475.2,626.4l-0.7,5l0,0L475.2,626.4z M470.5,626.5l0.9,4.9l0,0l0,0L470.5,626.5z M469.7,646.8l-0.4,5l0,0L469.7,646.8z
		 M512.5,646.8l-0.4-5l0,0L512.5,646.8z M520.4,638.9l4.9,0.9l0,0l0,0L520.4,638.9z M516.2,628.3l2.8-4.1l0,0L516.2,628.3z
		 M508.6,626.4l0.9,4.9l0,0L508.6,626.4z M501.5,619l-5-0.3l0,0L501.5,619z M501.4,595.6l5-0.1l-9.6-1.8L501.4,595.6z M500.4,613.9
		l5,0.2l0,0L500.4,613.9z M487.9,626.4l0.2,5l0,0L487.9,626.4z M481.4,619.4h5v0l0,0L481.4,619.4z M480.6,595.7l2.2-4.5l-9.7-4.9
		l2.6,10.5L480.6,595.7z"/>
</g>
<path class="st19" d="M501.7,594.6v-7.3c2.2,1.4,4.5,2.8,6.8,4.1C506.7,593.6,504.1,593.8,501.7,594.6z"/>
<g>
	<defs>
		<path id="SVGID_00000054261833593027445920000006456532722599829402_" d="M501.7,594.6v-7.3c2.2,1.4,4.5,2.8,6.8,4.1
			C506.7,593.6,504.1,593.8,501.7,594.6z"/>
	</defs>
	<clipPath id="SVGID_00000000909560740274378720000006724353591900198829_">
		<use xlink:href="#SVGID_00000054261833593027445920000006456532722599829402_"  style="overflow:visible;"/>
	</clipPath>
	<path style="clip-path:url(#SVGID_00000000909560740274378720000006724353591900198829_);fill:#263238;" d="M504.6,588.3
		c-0.1,0.1-0.2,0.3-1,0.5c-0.4,0.1-0.8,0.3-1.5,0.4c-0.6,0.2-1.4,0.4-2.1,0.6l3.3,9.4c0.4-0.1,0.8-0.3,1.5-0.4
		c0.6-0.2,1.4-0.4,2.1-0.6c1.6-0.6,3.7-1.6,5.4-3.6L504.6,588.3z M499.1,591.6c2.2,1.4,4.6,2.8,6.8,4.1l5.2-8.5
		c-2.3-1.4-4.5-2.8-6.8-4.1L499.1,591.6z M506.7,594.6v-7.3h-10v7.3H506.7z M508.5,591.5l3.9,3.2l3.7-4.4l-4.9-3L508.5,591.5z
		 M501.7,587.3l2.6-4.3l-7.6-4.7v9H501.7z M501.7,594.6h-5v7l6.6-2.3L501.7,594.6z"/>
</g>
<path class="st1" d="M384.9,439c39.6,24.7,63.6,63.2,68,109.6c-8.1,0-18.3,0-26.4,0c-2.2-2.5-2.2-8.8-2.8-11.8
	c-5.8-28.5-19.6-52-43.1-69.5c-2.5-1.8-5.5-3.2-6.6-6.5C377,453.3,380.6,446,384.9,439z"/>
<g>
	<defs>
		<path id="SVGID_00000021811370552409627070000017674684838797322674_" d="M384.9,439c39.6,24.7,63.6,63.2,68,109.6
			c-8.1,0-18.3,0-26.4,0c-2.2-2.5-2.2-8.8-2.8-11.8c-5.8-28.5-19.6-52-43.1-69.5c-2.5-1.8-5.5-3.2-6.6-6.5
			C377,453.3,380.6,446,384.9,439z"/>
	</defs>
	<clipPath id="SVGID_00000151508034527472813240000017223297788155015849_">
		<use xlink:href="#SVGID_00000021811370552409627070000017674684838797322674_"  style="overflow:visible;"/>
	</clipPath>
	<path style="clip-path:url(#SVGID_00000151508034527472813240000017223297788155015849_);fill:#263238;" d="M378.6,462.8
		c3-7.4,6.4-14.5,10.6-21.1l-8.5-5.3c-4.5,7.3-8.2,14.9-11.4,22.7L378.6,462.8z M383.5,463.4c-0.7-0.5-1.5-1.1-2.1-1.5
		c-0.6-0.4-1.1-0.8-1.5-1.1c-0.8-0.6-1-1-1.2-1.4l-9.5,3.1c0.9,2.9,2.7,4.8,4.4,6.1c0.8,0.6,1.6,1.2,2.3,1.6
		c0.7,0.5,1.2,0.8,1.7,1.2L383.5,463.4z M428.5,535.9c-6-29.6-20.4-54.2-45-72.5l-6,8c22.4,16.7,35.7,39,41.2,66.4L428.5,535.9z
		 M430.2,545.4c0.1,0.1-0.1-0.1-0.3-0.7c-0.2-0.6-0.4-1.5-0.5-2.5c-0.2-1-0.3-2-0.4-3.1c-0.1-1-0.3-2.2-0.5-3.2l-9.8,2
		c0.1,0.5,0.2,1.2,0.3,2.3c0.1,1,0.3,2.3,0.4,3.5c0.2,1.2,0.5,2.7,0.9,4c0.4,1.3,1.1,2.9,2.3,4.2L430.2,545.4z M452.9,543.7
		C452.9,543.7,452.9,543.7,452.9,543.7C452.8,543.7,452.8,543.7,452.9,543.7c-0.1,0-0.1,0-0.1,0c0,0,0,0,0,0s0,0,0,0s0,0,0,0
		c0,0,0,0,0,0c0,0,0,0,0,0s0,0,0,0s0,0,0,0c0,0,0,0,0,0c0,0,0,0,0,0s0,0,0,0c0,0,0,0,0,0s0,0,0,0c0,0,0,0,0,0c0,0,0,0,0,0s0,0,0,0
		s0,0,0,0s0,0,0,0s0,0,0,0s0,0,0,0c0,0,0,0,0,0c0,0,0,0,0,0c0,0,0,0,0,0c0,0,0,0,0,0c0,0,0,0,0,0c0,0,0,0,0,0c0,0,0,0,0,0
		c0,0,0,0,0,0s0,0,0,0c0,0,0,0,0,0s0,0,0,0c0,0,0,0,0,0s0,0,0,0s0,0,0,0c0,0,0,0,0,0s0,0,0,0c0,0,0,0,0,0s0,0,0,0c0,0,0,0,0,0
		s0,0,0,0c0,0,0,0,0,0c0,0,0,0,0,0s0,0,0,0c0,0,0,0,0,0s0,0,0,0c0,0,0,0,0,0s0,0,0,0s0,0,0,0c0,0,0,0,0,0s0,0,0,0c0,0,0,0,0,0
		s0,0,0,0s0,0,0,0c0,0,0,0,0,0s0,0-0.1,0c0,0,0,0-0.1,0s0,0-0.1,0s0,0-0.1,0c0,0,0,0-0.1,0s0,0-0.1,0s0,0-0.1,0c0,0,0,0-0.1,0
		s0,0-0.1,0c0,0,0,0-0.1,0c0,0,0,0-0.1,0s0,0-0.1,0c0,0,0,0-0.1,0c0,0,0,0-0.1,0c0,0,0,0-0.1,0s0,0-0.1,0s0,0-0.1,0s0,0-0.1,0
		c0,0,0,0-0.1,0s0,0-0.1,0s0,0-0.1,0s0,0-0.1,0s0,0-0.1,0c0,0,0,0-0.1,0c0,0,0,0-0.1,0c0,0,0,0-0.1,0c0,0,0,0-0.1,0s0,0-0.1,0
		s0,0-0.1,0c0,0,0,0-0.1,0s0,0-0.1,0s0,0-0.1,0c0,0,0,0-0.1,0s0,0-0.1,0c0,0,0,0-0.1,0c0,0,0,0-0.1,0c0,0,0,0-0.1,0c0,0,0,0-0.1,0
		c0,0,0,0-0.1,0c0,0,0,0-0.1,0c0,0,0,0-0.1,0c0,0,0,0-0.1,0s0,0-0.1,0s0,0-0.1,0c0,0,0,0-0.1,0s0,0-0.1,0s0,0-0.1,0s0,0-0.1,0
		c0,0,0,0-0.1,0c0,0,0,0-0.1,0c0,0,0,0-0.1,0c0,0,0,0-0.1,0c0,0,0,0-0.1,0s0,0-0.1,0c0,0,0,0-0.1,0c0,0,0,0-0.1,0s0,0-0.1,0
		s0,0-0.1,0c0,0,0,0-0.1,0c0,0,0,0-0.1,0s0,0-0.1,0s0,0-0.1,0c0,0,0,0-0.1,0c0,0,0,0-0.1,0c0,0,0,0-0.1,0c0,0,0,0-0.1,0
		c0,0,0,0-0.1,0s0,0-0.1,0s0,0-0.1,0c0,0,0,0-0.1,0s0,0-0.1,0s0,0-0.1,0c0,0,0,0-0.1,0c0,0,0,0-0.1,0c0,0,0,0-0.1,0s0,0-0.1,0
		s0,0-0.1,0c0,0,0,0-0.1,0c0,0,0,0-0.1,0s0,0-0.1,0s0,0-0.1,0c0,0,0,0-0.1,0c0,0,0,0-0.1,0s0,0-0.1,0s0,0-0.1,0c0,0,0,0-0.1,0
		c0,0,0,0-0.1,0s0,0-0.1,0s0,0-0.1,0s0,0-0.1,0c0,0,0,0-0.1,0c0,0,0,0-0.1,0c0,0,0,0-0.1,0s0,0-0.1,0s0,0-0.1,0c0,0,0,0-0.1,0
		s0,0-0.1,0s0,0-0.1,0s0,0-0.1,0s0,0-0.1,0c0,0,0,0-0.1,0s0,0-0.1,0s0,0-0.1,0s0,0-0.1,0c0,0,0,0-0.1,0c0,0,0,0-0.1,0c0,0,0,0-0.1,0
		c0,0,0,0-0.1,0s0,0-0.1,0s0,0-0.1,0c0,0,0,0-0.1,0c0,0,0,0-0.1,0s0,0-0.1,0s0,0-0.1,0s0,0-0.1,0c0,0,0,0-0.1,0c0,0,0,0-0.1,0
		s0,0-0.1,0s0,0-0.1,0s0,0-0.1,0s0,0-0.1,0c0,0,0,0-0.1,0c0,0,0,0-0.1,0c0,0,0,0-0.1,0c0,0,0,0-0.1,0s0,0-0.1,0s0,0-0.1,0
		c0,0,0,0-0.1,0s0,0-0.1,0c0,0,0,0-0.1,0c0,0,0,0-0.1,0s0,0-0.1,0s0,0-0.1,0s0,0-0.1,0s0,0-0.1,0s0,0-0.1,0s0,0-0.1,0s0,0-0.1,0
		c0,0,0,0-0.1,0c0,0,0,0-0.1,0c0,0,0,0-0.1,0s0,0-0.1,0s0,0-0.1,0c0,0,0,0-0.1,0s0,0-0.1,0s0,0-0.1,0c0,0,0,0-0.1,0c0,0,0,0-0.1,0
		c0,0,0,0-0.1,0s0,0-0.1,0c0,0,0,0-0.1,0s0,0-0.1,0s0,0-0.1,0s0,0-0.1,0c0,0,0,0-0.1,0c0,0,0,0-0.1,0c0,0,0,0-0.1,0s0,0-0.1,0
		c0,0,0,0-0.1,0c0,0,0,0-0.1,0s0,0-0.1,0s0,0-0.1,0s0,0-0.1,0s0,0-0.1,0s0,0-0.1,0s0,0-0.1,0s0,0-0.1,0c0,0,0,0-0.1,0c0,0,0,0-0.1,0
		c0,0,0,0-0.1,0c0,0,0,0-0.1,0c0,0,0,0-0.1,0s0,0-0.1,0s0,0-0.1,0s0,0-0.1,0s0,0-0.1,0s0,0-0.1,0s0,0-0.1,0s0,0-0.1,0s0,0-0.1,0
		s0,0-0.1,0s0,0-0.1,0s0,0-0.1,0s0,0-0.1,0s0,0-0.1,0c0,0,0,0-0.1,0s0,0-0.1,0c0,0,0,0-0.1,0s0,0-0.1,0c0,0,0,0-0.1,0c0,0,0,0-0.1,0
		s0,0-0.1,0s0,0-0.1,0s0,0-0.1,0c0,0,0,0-0.1,0c0,0,0,0-0.1,0c0,0,0,0-0.1,0c0,0,0,0-0.1,0c0,0,0,0-0.1,0c0,0,0,0-0.1,0s0,0-0.1,0
		s0,0-0.1,0s0,0-0.1,0s0,0-0.1,0s0,0-0.1,0s0,0-0.1,0s0,0-0.1,0s0,0-0.1,0c0,0,0,0-0.1,0c0,0,0,0-0.1,0c0,0,0,0-0.1,0s0,0-0.1,0
		s0,0-0.1,0c0,0,0,0-0.1,0s0,0-0.1,0s0,0-0.1,0s0,0-0.1,0s0,0-0.1,0s0,0-0.1,0s0,0-0.1,0s0,0-0.1,0s0,0-0.1,0c0,0,0,0-0.1,0
		s0,0-0.1,0c0,0,0,0-0.1,0s0,0-0.1,0s0,0-0.1,0s0,0-0.1,0c0,0,0,0-0.1,0c0,0,0,0-0.1,0c0,0,0,0-0.1,0c0,0,0,0-0.1,0c0,0,0,0-0.1,0
		c0,0,0,0-0.1,0s0,0-0.1,0c0,0,0,0-0.1,0s0,0-0.1,0s0,0-0.1,0s0,0-0.1,0c0,0,0,0-0.1,0s0,0-0.1,0s0,0-0.1,0s0,0-0.1,0c0,0,0,0-0.1,0
		c0,0,0,0-0.1,0c0,0,0,0-0.1,0c0,0,0,0-0.1,0s0,0-0.1,0c0,0,0,0-0.1,0s0,0-0.1,0s0,0-0.1,0s0,0-0.1,0s0,0-0.1,0s0,0-0.1,0
		c0,0,0,0-0.1,0c0,0,0,0-0.1,0s0,0-0.1,0c0,0,0,0-0.1,0s0,0-0.1,0s0,0-0.1,0s0,0-0.1,0c0,0,0,0-0.1,0c0,0,0,0-0.1,0c0,0,0,0-0.1,0
		s0,0-0.1,0s0,0-0.1,0s0,0-0.1,0s0,0-0.1,0c0,0,0,0-0.1,0c0,0,0,0-0.1,0c0,0,0,0-0.1,0s0,0-0.1,0s0,0-0.1,0s0,0-0.1,0c0,0,0,0-0.1,0
		s0,0-0.1,0c0,0,0,0-0.1,0c0,0,0,0-0.1,0c0,0,0,0-0.1,0s0,0-0.1,0s0,0-0.1,0c0,0,0,0-0.1,0s0,0-0.1,0c0,0,0,0-0.1,0c0,0,0,0-0.1,0
		s0,0-0.1,0s0,0-0.1,0c0,0,0,0-0.1,0s0,0-0.1,0c0,0,0,0-0.1,0c0,0,0,0-0.1,0s0,0-0.1,0s0,0-0.1,0s0,0-0.1,0c0,0,0,0-0.1,0s0,0-0.1,0
		s0,0-0.1,0s0,0-0.1,0c0,0,0,0-0.1,0s0,0-0.1,0c0,0,0,0-0.1,0s0,0-0.1,0c0,0,0,0-0.1,0c0,0,0,0-0.1,0s0,0-0.1,0c0,0,0,0-0.1,0
		s0,0-0.1,0s0,0-0.1,0s0,0-0.1,0c0,0,0,0-0.1,0c0,0,0,0-0.1,0s0,0-0.1,0s0,0-0.1,0s0,0-0.1,0s0,0-0.1,0c0,0,0,0-0.1,0s0,0-0.1,0
		s0,0-0.1,0s0,0-0.1,0c0,0,0,0-0.1,0c0,0,0,0-0.1,0s0,0-0.1,0s0,0-0.1,0c0,0,0,0-0.1,0c0,0,0,0-0.1,0s0,0-0.1,0c0,0,0,0-0.1,0
		c0,0,0,0-0.1,0s0,0-0.1,0s0,0-0.1,0s0,0-0.1,0c0,0,0,0-0.1,0c0,0,0,0-0.1,0s0,0-0.1,0s0,0-0.1,0c0,0,0,0-0.1,0c0,0,0,0-0.1,0
		c0,0,0,0-0.1,0c0,0,0,0-0.1,0s0,0-0.1,0s0,0-0.1,0s0,0-0.1,0s0,0-0.1,0s0,0-0.1,0s0,0-0.1,0c0,0,0,0-0.1,0s0,0-0.1,0s0,0-0.1,0
		c0,0,0,0-0.1,0c0,0,0,0-0.1,0s0,0-0.1,0s0,0-0.1,0c0,0,0,0-0.1,0s0,0-0.1,0s0,0-0.1,0c0,0,0,0-0.1,0c0,0,0,0-0.1,0s0,0-0.1,0
		c0,0,0,0-0.1,0c0,0,0,0-0.1,0s0,0-0.1,0s0,0-0.1,0c0,0,0,0-0.1,0s0,0-0.1,0s0,0-0.1,0c0,0,0,0-0.1,0c0,0,0,0-0.1,0c0,0,0,0-0.1,0
		c0,0,0,0-0.1,0c0,0,0,0-0.1,0s0,0-0.1,0c0,0,0,0-0.1,0s0,0-0.1,0s0,0-0.1,0c0,0,0,0-0.1,0s0,0-0.1,0s0,0-0.1,0c0,0,0,0-0.1,0
		s0,0-0.1,0s0,0-0.1,0c0,0,0,0-0.1,0c0,0,0,0-0.1,0c0,0,0,0-0.1,0c0,0,0,0-0.1,0s0,0-0.1,0c0,0,0,0-0.1,0s0,0-0.1,0s0,0-0.1,0
		c0,0,0,0-0.1,0c0,0,0,0-0.1,0c0,0,0,0-0.1,0c0,0,0,0-0.1,0s0,0-0.1,0c0,0,0,0-0.1,0c0,0,0,0-0.1,0s0,0-0.1,0c0,0,0,0-0.1,0
		s0,0-0.1,0c0,0,0,0-0.1,0c0,0,0,0-0.1,0s0,0,0,0c0,0,0,0,0,0s0,0,0,0s0,0,0,0c0,0,0,0,0,0s0,0,0,0c0,0,0,0,0,0s0,0,0,0s0,0,0,0
		c0,0,0,0,0,0s0,0,0,0c0,0,0,0,0,0s0,0,0,0c0,0,0,0,0,0c0,0,0,0,0,0c0,0,0,0,0,0c0,0,0,0,0,0s0,0,0,0s0,0,0,0s0,0,0,0c0,0,0,0,0,0
		s0,0,0,0s0,0,0,0c0,0,0,0,0,0s0,0,0,0c0,0,0,0,0,0s0,0,0,0c0,0,0,0,0,0s0,0,0,0s0,0,0,0c0,0,0,0,0,0c0,0,0,0,0,0s0,0,0,0s0,0,0,0
		c0,0,0,0,0,0s0,0,0,0c0,0,0,0,0,0c0,0,0,0,0,0c0,0,0,0,0,0s0,0,0,0c0,0,0,0,0,0s0,0,0,0s0,0,0,0s0,0,0,0s0,0,0,0c0,0,0,0,0,0
		s0,0,0,0c0,0,0,0,0,0c0,0,0,0,0,0s0,0,0,0s0,0,0,0c0,0,0,0,0,0s0,0,0,0c0,0,0,0,0,0c0,0,0,0,0,0s0,0,0,0v10c0,0,0,0,0,0s0,0,0,0
		c0,0,0,0,0,0c0,0,0,0,0,0s0,0,0,0c0,0,0,0,0,0s0,0,0,0s0,0,0,0c0,0,0,0,0,0c0,0,0,0,0,0s0,0,0,0c0,0,0,0,0,0s0,0,0,0s0,0,0,0
		s0,0,0,0s0,0,0,0c0,0,0,0,0,0s0,0,0,0c0,0,0,0,0,0c0,0,0,0,0,0c0,0,0,0,0,0s0,0,0,0c0,0,0,0,0,0s0,0,0,0s0,0,0,0c0,0,0,0,0,0
		c0,0,0,0,0,0s0,0,0,0s0,0,0,0c0,0,0,0,0,0s0,0,0,0c0,0,0,0,0,0s0,0,0,0c0,0,0,0,0,0s0,0,0,0s0,0,0,0c0,0,0,0,0,0s0,0,0,0s0,0,0,0
		s0,0,0,0c0,0,0,0,0,0c0,0,0,0,0,0c0,0,0,0,0,0c0,0,0,0,0,0s0,0,0,0c0,0,0,0,0,0s0,0,0,0c0,0,0,0,0,0s0,0,0,0s0,0,0,0c0,0,0,0,0,0
		s0,0,0,0c0,0,0,0,0,0s0,0,0,0s0,0,0,0c0,0,0,0,0,0s0,0,0.1,0c0,0,0,0,0.1,0c0,0,0,0,0.1,0s0,0,0.1,0c0,0,0,0,0.1,0s0,0,0.1,0
		c0,0,0,0,0.1,0c0,0,0,0,0.1,0s0,0,0.1,0c0,0,0,0,0.1,0c0,0,0,0,0.1,0c0,0,0,0,0.1,0c0,0,0,0,0.1,0s0,0,0.1,0s0,0,0.1,0
		c0,0,0,0,0.1,0s0,0,0.1,0c0,0,0,0,0.1,0c0,0,0,0,0.1,0c0,0,0,0,0.1,0c0,0,0,0,0.1,0s0,0,0.1,0s0,0,0.1,0c0,0,0,0,0.1,0s0,0,0.1,0
		s0,0,0.1,0c0,0,0,0,0.1,0s0,0,0.1,0s0,0,0.1,0c0,0,0,0,0.1,0s0,0,0.1,0c0,0,0,0,0.1,0c0,0,0,0,0.1,0c0,0,0,0,0.1,0c0,0,0,0,0.1,0
		c0,0,0,0,0.1,0s0,0,0.1,0s0,0,0.1,0c0,0,0,0,0.1,0s0,0,0.1,0s0,0,0.1,0c0,0,0,0,0.1,0c0,0,0,0,0.1,0s0,0,0.1,0c0,0,0,0,0.1,0
		c0,0,0,0,0.1,0s0,0,0.1,0s0,0,0.1,0c0,0,0,0,0.1,0s0,0,0.1,0s0,0,0.1,0c0,0,0,0,0.1,0c0,0,0,0,0.1,0s0,0,0.1,0s0,0,0.1,0
		c0,0,0,0,0.1,0s0,0,0.1,0s0,0,0.1,0s0,0,0.1,0s0,0,0.1,0s0,0,0.1,0s0,0,0.1,0c0,0,0,0,0.1,0c0,0,0,0,0.1,0c0,0,0,0,0.1,0
		c0,0,0,0,0.1,0s0,0,0.1,0s0,0,0.1,0c0,0,0,0,0.1,0c0,0,0,0,0.1,0s0,0,0.1,0s0,0,0.1,0s0,0,0.1,0c0,0,0,0,0.1,0c0,0,0,0,0.1,0
		s0,0,0.1,0c0,0,0,0,0.1,0c0,0,0,0,0.1,0s0,0,0.1,0s0,0,0.1,0c0,0,0,0,0.1,0c0,0,0,0,0.1,0s0,0,0.1,0s0,0,0.1,0s0,0,0.1,0
		c0,0,0,0,0.1,0s0,0,0.1,0s0,0,0.1,0s0,0,0.1,0s0,0,0.1,0c0,0,0,0,0.1,0c0,0,0,0,0.1,0s0,0,0.1,0s0,0,0.1,0s0,0,0.1,0c0,0,0,0,0.1,0
		s0,0,0.1,0c0,0,0,0,0.1,0c0,0,0,0,0.1,0s0,0,0.1,0c0,0,0,0,0.1,0s0,0,0.1,0c0,0,0,0,0.1,0s0,0,0.1,0s0,0,0.1,0s0,0,0.1,0
		c0,0,0,0,0.1,0s0,0,0.1,0s0,0,0.1,0s0,0,0.1,0c0,0,0,0,0.1,0c0,0,0,0,0.1,0s0,0,0.1,0c0,0,0,0,0.1,0s0,0,0.1,0s0,0,0.1,0
		c0,0,0,0,0.1,0c0,0,0,0,0.1,0s0,0,0.1,0c0,0,0,0,0.1,0s0,0,0.1,0s0,0,0.1,0c0,0,0,0,0.1,0c0,0,0,0,0.1,0c0,0,0,0,0.1,0s0,0,0.1,0
		c0,0,0,0,0.1,0s0,0,0.1,0s0,0,0.1,0s0,0,0.1,0c0,0,0,0,0.1,0c0,0,0,0,0.1,0c0,0,0,0,0.1,0s0,0,0.1,0s0,0,0.1,0s0,0,0.1,0s0,0,0.1,0
		c0,0,0,0,0.1,0c0,0,0,0,0.1,0c0,0,0,0,0.1,0s0,0,0.1,0s0,0,0.1,0s0,0,0.1,0c0,0,0,0,0.1,0s0,0,0.1,0c0,0,0,0,0.1,0c0,0,0,0,0.1,0
		s0,0,0.1,0s0,0,0.1,0s0,0,0.1,0s0,0,0.1,0s0,0,0.1,0c0,0,0,0,0.1,0s0,0,0.1,0c0,0,0,0,0.1,0c0,0,0,0,0.1,0c0,0,0,0,0.1,0
		c0,0,0,0,0.1,0s0,0,0.1,0s0,0,0.1,0s0,0,0.1,0c0,0,0,0,0.1,0s0,0,0.1,0s0,0,0.1,0s0,0,0.1,0c0,0,0,0,0.1,0s0,0,0.1,0c0,0,0,0,0.1,0
		c0,0,0,0,0.1,0c0,0,0,0,0.1,0c0,0,0,0,0.1,0c0,0,0,0,0.1,0c0,0,0,0,0.1,0s0,0,0.1,0s0,0,0.1,0s0,0,0.1,0c0,0,0,0,0.1,0s0,0,0.1,0
		c0,0,0,0,0.1,0s0,0,0.1,0s0,0,0.1,0s0,0,0.1,0s0,0,0.1,0s0,0,0.1,0s0,0,0.1,0s0,0,0.1,0s0,0,0.1,0c0,0,0,0,0.1,0s0,0,0.1,0
		s0,0,0.1,0c0,0,0,0,0.1,0c0,0,0,0,0.1,0c0,0,0,0,0.1,0s0,0,0.1,0s0,0,0.1,0s0,0,0.1,0s0,0,0.1,0s0,0,0.1,0s0,0,0.1,0s0,0,0.1,0
		s0,0,0.1,0c0,0,0,0,0.1,0c0,0,0,0,0.1,0c0,0,0,0,0.1,0c0,0,0,0,0.1,0c0,0,0,0,0.1,0c0,0,0,0,0.1,0s0,0,0.1,0s0,0,0.1,0s0,0,0.1,0
		c0,0,0,0,0.1,0c0,0,0,0,0.1,0s0,0,0.1,0c0,0,0,0,0.1,0s0,0,0.1,0c0,0,0,0,0.1,0s0,0,0.1,0s0,0,0.1,0s0,0,0.1,0s0,0,0.1,0s0,0,0.1,0
		s0,0,0.1,0s0,0,0.1,0s0,0,0.1,0s0,0,0.1,0s0,0,0.1,0s0,0,0.1,0s0,0,0.1,0s0,0,0.1,0c0,0,0,0,0.1,0c0,0,0,0,0.1,0c0,0,0,0,0.1,0
		c0,0,0,0,0.1,0c0,0,0,0,0.1,0s0,0,0.1,0s0,0,0.1,0s0,0,0.1,0s0,0,0.1,0s0,0,0.1,0s0,0,0.1,0s0,0,0.1,0c0,0,0,0,0.1,0c0,0,0,0,0.1,0
		s0,0,0.1,0c0,0,0,0,0.1,0c0,0,0,0,0.1,0c0,0,0,0,0.1,0s0,0,0.1,0s0,0,0.1,0s0,0,0.1,0c0,0,0,0,0.1,0s0,0,0.1,0c0,0,0,0,0.1,0
		c0,0,0,0,0.1,0c0,0,0,0,0.1,0s0,0,0.1,0s0,0,0.1,0c0,0,0,0,0.1,0s0,0,0.1,0s0,0,0.1,0c0,0,0,0,0.1,0c0,0,0,0,0.1,0c0,0,0,0,0.1,0
		s0,0,0.1,0s0,0,0.1,0s0,0,0.1,0s0,0,0.1,0s0,0,0.1,0s0,0,0.1,0s0,0,0.1,0c0,0,0,0,0.1,0c0,0,0,0,0.1,0s0,0,0.1,0c0,0,0,0,0.1,0
		s0,0,0.1,0s0,0,0.1,0c0,0,0,0,0.1,0c0,0,0,0,0.1,0c0,0,0,0,0.1,0c0,0,0,0,0.1,0s0,0,0.1,0s0,0,0.1,0s0,0,0.1,0s0,0,0.1,0
		c0,0,0,0,0.1,0c0,0,0,0,0.1,0s0,0,0.1,0s0,0,0.1,0s0,0,0.1,0c0,0,0,0,0.1,0c0,0,0,0,0.1,0s0,0,0.1,0s0,0,0.1,0c0,0,0,0,0.1,0
		c0,0,0,0,0.1,0c0,0,0,0,0.1,0c0,0,0,0,0.1,0s0,0,0.1,0s0,0,0.1,0s0,0,0.1,0c0,0,0,0,0.1,0s0,0,0.1,0s0,0,0.1,0s0,0,0.1,0s0,0,0.1,0
		c0,0,0,0,0.1,0s0,0,0.1,0s0,0,0.1,0c0,0,0,0,0.1,0c0,0,0,0,0.1,0c0,0,0,0,0.1,0s0,0,0.1,0s0,0,0.1,0s0,0,0.1,0c0,0,0,0,0.1,0
		c0,0,0,0,0.1,0s0,0,0.1,0s0,0,0.1,0c0,0,0,0,0.1,0c0,0,0,0,0.1,0s0,0,0.1,0s0,0,0.1,0c0,0,0,0,0.1,0c0,0,0,0,0.1,0s0,0,0.1,0
		s0,0,0.1,0c0,0,0,0,0.1,0c0,0,0,0,0.1,0c0,0,0,0,0.1,0s0,0,0.1,0s0,0,0.1,0c0,0,0,0,0.1,0s0,0,0.1,0s0,0,0.1,0c0,0,0,0,0.1,0
		c0,0,0,0,0.1,0c0,0,0,0,0.1,0c0,0,0,0,0.1,0c0,0,0,0,0.1,0s0,0,0.1,0s0,0,0.1,0c0,0,0,0,0.1,0c0,0,0,0,0.1,0s0,0,0.1,0s0,0,0.1,0
		c0,0,0,0,0.1,0c0,0,0,0,0.1,0s0,0,0.1,0c0,0,0,0,0.1,0c0,0,0,0,0.1,0c0,0,0,0,0.1,0c0,0,0,0,0.1,0c0,0,0,0,0.1,0s0,0,0.1,0
		s0,0,0.1,0s0,0,0.1,0c0,0,0,0,0.1,0s0,0,0.1,0s0,0,0.1,0c0,0,0,0,0.1,0c0,0,0,0,0.1,0c0,0,0,0,0.1,0c0,0,0,0,0.1,0c0,0,0,0,0.1,0
		c0,0,0,0,0.1,0c0,0,0,0,0.1,0c0,0,0,0,0.1,0s0,0,0.1,0c0,0,0,0,0.1,0s0,0,0.1,0s0,0,0.1,0c0,0,0,0,0.1,0s0,0,0.1,0s0,0,0.1,0
		c0,0,0,0,0.1,0c0,0,0,0,0.1,0c0,0,0,0,0.1,0c0,0,0,0,0.1,0s0,0,0.1,0s0,0,0.1,0s0,0,0.1,0s0,0,0.1,0c0,0,0,0,0.1,0s0,0,0.1,0
		s0,0,0.1,0s0,0,0.1,0c0,0,0,0,0.1,0c0,0,0,0,0.1,0c0,0,0,0,0.1,0s0,0,0.1,0c0,0,0,0,0.1,0c0,0,0,0,0.1,0s0,0,0.1,0c0,0,0,0,0.1,0
		s0,0,0.1,0s0,0,0.1,0c0,0,0,0,0.1,0s0,0,0.1,0s0,0,0.1,0c0,0,0,0,0.1,0s0,0,0,0c0,0,0,0,0,0s0,0,0,0s0,0,0,0c0,0,0,0,0,0s0,0,0,0
		c0,0,0,0,0,0s0,0,0,0s0,0,0,0c0,0,0,0,0,0s0,0,0,0c0,0,0,0,0,0s0,0,0,0c0,0,0,0,0,0c0,0,0,0,0,0s0,0,0,0c0,0,0,0,0,0s0,0,0,0
		c0,0,0,0,0,0s0,0,0,0c0,0,0,0,0,0s0,0,0,0s0,0,0,0c0,0,0,0,0,0s0,0,0,0c0,0,0,0,0,0s0,0,0,0c0,0,0,0,0,0c0,0,0,0,0,0c0,0,0,0,0,0
		c0,0,0,0,0,0c0,0,0,0,0,0c0,0,0,0,0,0c0,0,0,0,0,0c0,0,0,0,0,0s0,0,0,0s0,0,0,0s0,0,0,0s0,0,0,0s0,0,0,0c0,0,0,0,0,0c0,0,0,0,0,0
		s0,0,0,0c0,0,0,0,0,0s0,0,0,0c0,0,0,0,0,0c0,0,0,0,0,0s0,0,0,0s0,0,0,0c0,0,0,0,0,0c0,0,0,0,0,0s0,0,0,0s0,0,0,0c0,0,0,0,0,0
		c0,0,0,0,0,0c0,0,0,0,0,0V543.7z M382.3,443.3c38.3,23.8,61.4,61,65.6,105.8l10-0.9c-4.5-48-29.4-87.9-70.3-113.4L382.3,443.3z
		 M374,461l-4.6-1.9l-0.7,1.7l0.6,1.7L374,461z M380.5,467.4l-3,4l0,0L380.5,467.4z M423.6,536.9l4.9-1l0,0L423.6,536.9z
		 M426.5,548.7l-3.8,3.3l1.5,1.7h2.3V548.7z M452.9,548.7v5h5.5l-0.5-5.5L452.9,548.7z M384.9,439l2.6-4.2l-4.2-2.6l-2.6,4.2
		L384.9,439z"/>
</g>
<g>
	<defs>
		<path id="SVGID_00000173120456975356702970000011126638455024402840_" d="M325.2,571.8c-11,5.3-22.9,1-27.4-9.8
			c-4.4-10.6,0.9-22.3,12-26.3c1.7-0.6,3.4-1,5.1-1.5c3.6,0.3,7.3,0.4,10.3,2.9c0.7,2.6-1.4,4-2.7,5.6c-6.1,7.7-6.1,15.7,0,23.5
			C323.8,567.9,325.9,569.2,325.2,571.8z"/>
	</defs>
	<clipPath id="SVGID_00000091714811071160884050000015036246690923080351_">
		<use xlink:href="#SVGID_00000173120456975356702970000011126638455024402840_"  style="overflow:visible;"/>
	</clipPath>
	<path style="clip-path:url(#SVGID_00000091714811071160884050000015036246690923080351_);fill:#263238;" d="M318.6,569.3
		c0.5,0.6,1.1,1.2,1.3,1.5c0.4,0.4,0.5,0.6,0.6,0.7c0,0.1-0.1-0.1-0.1-0.4c-0.1-0.3,0-0.6,0-0.7l9.6,2.8c0.9-3.1,0-5.6-1.2-7.4
		c-0.5-0.8-1.1-1.4-1.5-1.8c-0.5-0.5-0.6-0.7-0.8-0.9L318.6,569.3z M318.6,539.6c-3.6,4.5-5.7,9.5-5.7,14.8c0,5.3,2.1,10.3,5.7,14.8
		l7.8-6.2c-2.5-3.2-3.5-6.1-3.5-8.6c0-2.6,1-5.4,3.5-8.6L318.6,539.6z M320.4,538.3c0-0.1-0.1-0.3,0-0.6c0.1-0.3,0.2-0.4,0.1-0.3
		c-0.1,0.1-0.2,0.3-0.6,0.7c-0.3,0.3-0.8,0.9-1.3,1.5l7.9,6.2c0.2-0.2,0.4-0.4,0.8-0.9c0.4-0.4,1-1,1.5-1.8c1.2-1.7,2.1-4.2,1.3-7.3
		L320.4,538.3z M314.4,539.2c4.3,0.4,6.1,0.5,7.6,1.8l6.5-7.6c-4.5-3.8-10.2-3.8-13.1-4.1L314.4,539.2z M311.5,540.4
		c1.5-0.5,2.9-0.9,4.8-1.4l-2.8-9.6c-1.4,0.4-3.5,1-5.3,1.6L311.5,540.4z M302.4,560.1c-3.3-7.9,0.6-16.6,9.1-19.7l-3.4-9.4
		c-13.7,4.9-20.5,19.5-15,32.9L302.4,560.1z M323,567.3c-8.5,4.1-17.3,0.8-20.6-7.3l-9.2,3.8c5.7,13.7,20.8,18.9,34.2,12.4
		L323,567.3z M322.5,566.2l3.9-3.1l0,0L322.5,566.2z M322.5,542.7l3.9,3.1l0,0l0,0L322.5,542.7z M325.2,537.1l4.8-1.3l-0.4-1.5
		l-1.2-1L325.2,537.1z M314.9,534.2l0.5-5l-1-0.1l-0.9,0.3L314.9,534.2z M309.8,535.7l-1.7-4.7l0,0l0,0L309.8,535.7z M297.7,562
		l-4.6,1.9l0,0L297.7,562z M325.2,571.8l2.2,4.5l2-1l0.6-2.1L325.2,571.8z"/>
</g>
<g>
	<defs>
		<path id="SVGID_00000007397324316173350880000008714103754446842810_" d="M729.5,536.2c1.8,0.9,3.7,1.8,5.5,2.7
			c0.7,2-0.7,3.3-1.7,4.8c-6.7,9.7-6.7,15.9,0,25.6c1,1.5,2.4,2.7,1.7,4.8c-8.6,4-16.9,2.6-23-3.8c-5.7-5.9-7-15.3-3.3-22.9
			c0.7-1.4,1.5-2.7,2.2-4.1C716.2,538.4,722.3,535.9,729.5,536.2L729.5,536.2z"/>
	</defs>
	<clipPath id="SVGID_00000155854283899891778920000003537456326319872650_">
		<use xlink:href="#SVGID_00000007397324316173350880000008714103754446842810_"  style="overflow:visible;"/>
	</clipPath>
	<path style="clip-path:url(#SVGID_00000155854283899891778920000003537456326319872650_);fill:#263238;" d="M729.5,541.2
		L729.5,541.2l0-10h0V541.2z M714.3,546.9c4.4-4,9.2-6,14.9-5.7l0.5-10c-8.7-0.4-16.1,2.7-22.2,8.3L714.3,546.9z M713.2,549.5
		c0.6-1.2,1.3-2.3,2.1-3.8l-8.7-4.9c-0.7,1.2-1.6,2.8-2.4,4.3L713.2,549.5z M715.6,566.8c-4.2-4.4-5.3-11.5-2.4-17.3l-9-4.4
		c-4.6,9.4-3,21.1,4.2,28.6L715.6,566.8z M732.9,569.5c-3.6,1.6-6.8,2.1-9.5,1.6c-2.7-0.5-5.4-1.8-7.8-4.3l-7.2,6.9
		c3.7,3.9,8.3,6.4,13.4,7.3c5,0.8,10.3,0,15.3-2.4L732.9,569.5z M729.2,572.1c0.2,0.3,0.4,0.5,0.5,0.7c0.2,0.2,0.3,0.3,0.4,0.5
		c0.1,0.1,0.2,0.2,0.2,0.3c0,0.1,0.1,0.1,0.1,0.1c0,0-0.1-0.2-0.1-0.5c0-0.4,0-0.6,0.1-0.8l9.4,3.4c0.9-2.6,0.4-4.9-0.4-6.6
		c-0.4-0.7-0.8-1.4-1.1-1.8c-0.4-0.5-0.5-0.7-0.7-0.9L729.2,572.1z M729.2,540.8c-3.6,5.2-5.9,10.2-5.9,15.6
		c0,5.5,2.3,10.5,5.9,15.6l8.2-5.7c-3.1-4.5-4.1-7.5-4.1-10c0-2.5,1-5.4,4.1-10L729.2,540.8z M730.3,540.5c-0.1-0.2-0.1-0.4-0.1-0.8
		c0-0.3,0.1-0.5,0.1-0.5c0,0,0,0-0.1,0.1c0,0.1-0.1,0.2-0.2,0.3c-0.1,0.2-0.2,0.3-0.4,0.5c-0.1,0.2-0.3,0.4-0.5,0.7l8.2,5.7
		c0.2-0.3,0.3-0.4,0.7-1c0.3-0.4,0.7-1,1.1-1.8c0.9-1.7,1.4-4,0.5-6.5L730.3,540.5z M727.4,540.7c0.9,0.4,1.8,0.9,2.7,1.3
		c0.9,0.4,1.8,0.9,2.8,1.3l4.3-9c-0.9-0.4-1.8-0.9-2.7-1.3c-0.9-0.4-1.8-0.9-2.8-1.3L727.4,540.7z M729.5,536.2l-0.2,5l0.1,0h0.1
		V536.2z M710.9,543.3l-3.4-3.7l-0.6,0.5l-0.4,0.7L710.9,543.3z M708.7,547.3l-4.5-2.2l0,0L708.7,547.3z M712,570.2l-3.6,3.5l0,0
		L712,570.2z M735,574l2.1,4.5l1.9-0.9l0.7-2L735,574z M733.3,569.3l4.1-2.8l0,0l0,0L733.3,569.3z M733.3,543.7l-4.1-2.8l0,0
		L733.3,543.7z M735,538.9l4.7-1.7l-0.7-2l-1.9-0.9L735,538.9z M729.5,536.2l2.2-4.5l-1-0.5h-1.1V536.2z"/>
</g>
<g>
	<defs>
		<path id="SVGID_00000092433490528165746410000009830783965214700207_" d="M325.2,571.8c-2.3-4-6.6-6.4-8-11.2
			c-3-10,1.6-17,8.1-23.5c3.6,1.1,5.5,4.2,8,6.6c3.5,7,3.7,14.1,0.1,21.1C330.8,567.5,328.8,570.6,325.2,571.8L325.2,571.8z"/>
	</defs>
	<clipPath id="SVGID_00000155842652429348123600000016692733613098026921_">
		<use xlink:href="#SVGID_00000092433490528165746410000009830783965214700207_"  style="overflow:visible;"/>
	</clipPath>
	<path style="clip-path:url(#SVGID_00000155842652429348123600000016692733613098026921_);fill:#263238;" d="M325.1,576.8
		L325.1,576.8l0-10h0V576.8z M329.7,561.4c-0.7,0.8-1.4,1.6-2,2.2c-0.6,0.7-1.1,1.3-1.6,1.8c-1,1-1.7,1.5-2.5,1.7l3.1,9.5
		c2.9-0.9,5-2.6,6.5-4.2c0.8-0.8,1.5-1.6,2.1-2.2c0.6-0.7,1.1-1.3,1.6-1.8L329.7,561.4z M328.7,546c2.9,5.7,2.9,11,0.1,16.6l8.9,4.5
		c4.3-8.5,4.1-17.2-0.1-25.6L328.7,546z M323.7,541.9c0.7,0.2,1.5,0.7,2.4,1.6c0.5,0.5,1,1,1.6,1.7c0.6,0.6,1.2,1.4,2,2.1l7.1-7
		c-0.5-0.5-1-1.1-1.6-1.7c-0.6-0.6-1.3-1.4-2-2.2c-1.5-1.5-3.6-3.1-6.4-4L323.7,541.9z M321.9,559.2c-1.2-3.9-0.8-6.9,0.3-9.7
		c1.2-2.9,3.5-5.8,6.6-8.9l-7.1-7c-3.4,3.4-6.7,7.3-8.7,12.1c-2,4.9-2.5,10.3-0.6,16.4L321.9,559.2z M329.5,569.3
		c-1.5-2.5-3.7-4.7-4.9-6.1c-1.4-1.6-2.2-2.7-2.6-4l-9.6,2.9c1.1,3.5,3.1,6,4.8,7.8c1.8,2,2.9,3.1,3.8,4.5L329.5,569.3z
		 M325.1,571.8l-1.5-4.8l1.5,9.8V571.8z M333.3,564.9l3.6,3.5l0.5-0.6l0.3-0.7L333.3,564.9z M333.2,543.7l4.5-2.3l-0.4-0.7l-0.6-0.6
		L333.2,543.7z M325.2,537.1l1.5-4.8l-2.9-0.9l-2.1,2.2L325.2,537.1z M317.1,560.6l4.8-1.5l0,0L317.1,560.6z M325.2,571.8v5h8.8
		l-4.5-7.5L325.2,571.8z"/>
</g>
<g>
	<defs>
		<path id="SVGID_00000147202028069524347080000009127506943310613910_" d="M735,574c-3.9-5.2-8.3-9.8-8.4-17.3
			c-0.1-7.7,4.2-12.6,8.4-17.9C750.1,547.8,750.1,565.2,735,574z"/>
	</defs>
	<clipPath id="SVGID_00000092426622594328754900000006944141292975825284_">
		<use xlink:href="#SVGID_00000147202028069524347080000009127506943310613910_"  style="overflow:visible;"/>
	</clipPath>
	<path style="clip-path:url(#SVGID_00000092426622594328754900000006944141292975825284_);fill:#263238;" d="M732.5,543.2
		c6.3,3.7,8.8,8.8,8.8,13.3c0,4.5-2.6,9.6-8.8,13.3l5.1,8.6c8.8-5.2,13.8-13.3,13.8-21.9c0-8.6-5-16.7-13.8-21.9L732.5,543.2z
		 M731.6,556.7c-0.1-5.6,2.8-9.1,7.3-14.7l-7.8-6.2c-3.9,4.9-9.6,11.3-9.5,21.1L731.6,556.7z M739,571c-4.4-5.7-7.3-8.9-7.4-14.3
		l-10,0.1c0.1,9.5,5.9,15.6,9.4,20.2L739,571z M735,538.9l2.5-4.3l-3.8-2.2l-2.7,3.4L735,538.9z M726.6,556.8l-5,0.1v0L726.6,556.8z
		 M735,574l-4,3l2.7,3.5l3.8-2.2L735,574z"/>
</g>
<path class="st1" d="M293.5,670.5c-21.2-3.6-34.2-10.8-38-14l6,11L302,688c20.4,1.2,30.5-0.2,33-1L293.5,670.5z"/>
<path class="st1" d="M335,426c-12-3.2-28.7-2.3-35.5-1.5L257,444v11c9.6-5.6,23.3-9.7,29-11L335,426z"/>
<path class="st1" d="M743.5,425.5c-14-3.6-43.7,0.2-54,2.5l6,16l11-4L743.5,425.5z"/>
<path class="st1" d="M695,668c-13.2-3.2-24.2-9.3-28-12l11,15.5l30.5,16c18,2,31.2,0.8,35.5,0L695,668z"/>
<path class="st0" d="M771.5,362.5c8.4-14,6.5-27.2,4.5-32l-18.5,27l-25,6.5l-18-1.5c-2.8,0.8-4.2,5.3-4.5,7.5v2l26.5,10.5
	L771.5,362.5z"/>
<polygon class="st1" points="384,271 362,271.5 362,292 370,313 399.5,313 "/>
<path class="st0" d="M511.5,528.5c-4.4-5.2-12.8-7.8-16.5-8.5l-10.5,29c2.8-3.6,11.3-1.8,14-1L511.5,528.5z"/>
<circle class="st1" cx="316.5" cy="554" r="15.5"/>
<circle class="st1" cx="726.5" cy="556" r="15.5"/>
</svg>
