<?xml version="1.0" encoding="utf-8"?>
<!-- Generator: Adobe Illustrator 26.3.1, SVG Export Plug-In . SVG Version: 6.00 Build 0)  -->
<svg version="1.1" id="Layer_1" xmlns="http://www.w3.org/2000/svg" xmlns:xlink="http://www.w3.org/1999/xlink" x="0px" y="0px"
	 viewBox="0 0 1024 850" style="enable-background:new 0 0 1024 850;" xml:space="preserve">
<style type="text/css">
	.st0{fill:#F1F5F8;}
	.st1{fill:#394249;}
	.st2{fill:#56C3C5;}
	.st3{fill:#3DB6B8;}
	.st4{fill:#CAD8E1;}
	.st5{fill:#EDEEEF;}
</style>
<g>
	<circle class="st0" cx="512" cy="455" r="345"/>
	<path class="st1" d="M862.5,572.2c-4.3,55-50.4,106-106.5,117.7c-5.2,1.1-10.3,2.8-15.8,2.6c-16.8-3.8-32.8-9.6-47.4-18.9
		c-5.1-3.2-9.9-6.9-14.5-10.7c-2-1.6-5.1-3.2-3.4-6.9c2.9-1,5.2,0.8,7.6,1.8c66.7,27.9,140-11.7,153.3-82.8
		c10.8-57.8-29.2-116.5-86.8-127.8c-15.6-3-31-2.9-46.5,0.3c-1.7,0.4-3.5,0.9-5.3,0.5c-3.5-1.8-3.9-5-3.4-8.4
		c1.3-3.1,4.2-4.4,6.9-5.9c12-6.4,24.4-11.4,37.9-13.4c0.6-0.1,1.2-0.5,1.7-0.9c28.2,3,53.3,13.5,74.9,31.9
		c26.8,23,42.7,52,47.3,87.1c1.1,1.4,1.2,3.1,1.2,4.8c0.3,2.5-0.8,5.2,1.4,7.4v8c-2.2,2.2-1.1,5-1.3,7.6
		C863.6,568.2,863.9,570.4,862.5,572.2L862.5,572.2z"/>
	<path class="st1" d="M328.5,692.4c-69.8,7.5-129.9-38.3-147-100c-1.7-6.3-1.9-13-4.6-19.1c0-11.6,0-23.2,0-34.9
		c1.8-7,3.4-14,5.4-20.9c15-52.4,60.8-91.6,114.8-98.1c10.4-1.3,20.9-1.5,31.3-0.1c1.2,4.4-2.6,3.9-4.7,4.4
		c-21.9,5.2-41.1,15.6-58.4,29.7c-1,0.9-1.9,1.9-2.7,2.9c-10,8.1-21.5,14.4-30.2,24.3c-15.6,17.8-25.9,38-28.3,61.6
		c-4.8,46.3,13.1,82.1,51.5,107.9c2.4,1.6,4.9,3.1,6.9,5.3c15,14.1,32.5,24,52.2,30c3.6,1.1,7.3,2.1,10.9,3.1
		C327.6,689,330.1,689.4,328.5,692.4L328.5,692.4z"/>
	<path class="st2" d="M694.4,439.4c0.5,2.7,1.2,5.4,2.9,7.7c4.7,5.3,5.5,12.4,8.4,18.6c7.6,19.9,14.9,40,22.5,59.9
		c1.2,3.2,3.3,6.5,1.8,10.2c-6.6,1.8-12.8,4.6-19.1,7c-3.1-1.6-3.8-4.7-4.9-7.6c-7.6-20.3-15.1-40.7-23-60.9
		c-2.1-6.8-5.1-13.3-7.2-20.1c-2.1-5.4-4-10.8-6.1-16.2c-0.9-2.2-2-4.5-1-7.1c-4.9-13.2-9.7-26.3-15-40.6
		c-43.5,48.1-86.5,95.6-129.5,143.1c-6.6-2.8-11-8.5-16.4-12.9c-0.1-0.7,0.1-1.4,0.4-2c10.8-14,23.4-26.4,35-39.6
		c18.9-21.4,38.3-42.4,57.3-63.7c12.7-14.1,25.6-28,38-42.3c1.8-2.1,4.8-4.1,3-7.5c-1.5-2.8-4.6-2.3-7.3-2.3
		c-64.3-0.1-128.6,0-193,0c-6.7,0-7,0.5-4.6,6.9c16.7,45.7,34.2,91.1,51,136.8c1,2.7,2.3,5.4,1.1,8.4c-5.7,4.3-12.7,5.6-19.4,7.4
		c-3-1.5-3.4-4.5-4.4-7.2c-16.2-43.9-33-87.6-49.1-131.5c-0.3-0.8-0.3-1.8-1.2-2.3c-9.5,19.2-19.1,38.2-28.6,57.4
		c-3.9,7.1-7.3,14.4-10.9,21.7c-3.3,6.2-6.4,12.5-9.4,18.9c-9.8,19-19.1,38.3-28.7,57.3c-1.3,2.6-2.3,5.3-4.3,7.5
		c-0.5,0.4-1,0.7-1.7,0.9c-3.6-1.2-5.4-5-9-6.2c-3-1.9-6.8-1.3-9.8-3.4c-1-3.2,1-5.6,2.2-8.1c9.9-19.9,19.8-39.8,29.8-59.7
		c3.3-6.3,6.4-12.6,9.5-19c4.3-6.7,5.7-15.1,12-20.6c12.6-25.1,25.1-50.1,37.9-75.1c1.5-2.8,0.6-5.1-0.3-7.6
		c-3.2-9.5-8-18.4-9.7-28.4c0.6-1.1,1.6-1.6,2.8-1.9c5.6,0.2,11-2.3,16.6-2.1c3,7.7,6.1,15.3,8.9,23c1.1,3.2,2.8,4.4,6.3,4.4
		c67.1-0.1,134.3-0.1,201.4,0c4.1,0,5.2-1,3.5-5c-2.8-6.8-5.2-13.7-7.8-20.6c-3.9-10.4,0-16.2,11.3-16.9c7.8,2.7,13,11.3,12.7,21.3
		c12.9,34.6,25.8,69.1,38.7,103.7C692.3,428.1,694,433.5,694.4,439.4L694.4,439.4z"/>
	<path class="st1" d="M413.2,313.6c-5.1,3-10.4,4.4-16.3,3.4c-18.3-3.6-30.2-17.5-29.9-35.1c0.1-6.6,1.2-8.9,6.9-13.9
		c-7.1,0.1-14,0.2-20.8,0c-2.6-0.1-5.4,0.4-7.4-2c3.6-1.6,7.5-0.8,11.2-0.8c31.9,0.2,63.8,0.4,95.7,0.7c13.9,0.1,24.4,6.3,31.4,18.2
		c5,8.4,2.2,13-7.7,13.1c-11.8,0.1-23.7,0.3-35.5-0.1c-10.3-0.4-18.3,2.7-23.7,11.9C416.1,310.7,414.6,312.1,413.2,313.6
		L413.2,313.6z"/>
	<path class="st3" d="M706.9,362.8c3.7-5.8,9.1-8,15.8-8c3.8,0,7.6,0.1,11.3-0.1c8.1-0.5,14.1-6.4,14.3-13.9
		c0.2-7.2-5.1-13.4-12.9-14.4c-6.5-0.8-12-2.9-16.1-8.1c-5.5-5.8-5-14.6,1-19.8c7.7-8.3,17.1-7.5,26.5-4.6
		c19.1,5.8,30.6,18.7,34.8,38.2c-5.4,23.1-23.8,37.7-47.6,37.9c-4.5,0-8.9,0.2-13.4-0.1C715,369.5,710,367.9,706.9,362.8
		L706.9,362.8z"/>
	<path class="st1" d="M345.7,266h32.8c-12.4,8.3-11.3,18.6-7.2,28.8c4,10.2,11.5,17.2,22.2,20.6c1.2,0.4,2.4,1.1,3.6,1.6
		c-1,0.2-2,0.4-3,0.5c-9.2-0.1-18.3-0.1-27.5-0.3c-18.1-0.4-33.2-14.4-35-32.4C330.4,274.3,335.5,267.5,345.7,266z"/>
	<path class="st1" d="M365.9,428.6c-3.6,7.3-7.2,14.6-10.8,21.9c-3,1.1-5.7,0-8.5-0.8c-25.8-7.4-51.2-6.3-76.1,4.1
		c-2.8,1.2-5.6,3.1-8.9,1.8c6.5-8.5,15.7-13.5,24.6-18.8c12.5-7.4,25.8-12.9,40.3-15.3c1.3-0.2,1.8-1.2,2-2.3
		C341.5,420.5,353.8,424.1,365.9,428.6L365.9,428.6z"/>
	<path class="st3" d="M706.9,362.8c20.4,9.9,39.8,7.5,57.9-5.6c6.8-5,11-12.1,14.2-19.8c0.8-1.8,1.1-3.8,2.6-5.3
		c5.3,27.5-14.8,56.2-48.2,57.1c-4.4,0.1-8.9,0.3-13.3-0.3C706.4,387,700.5,375,706.9,362.8z"/>
	<path class="st3" d="M720.3,298.5c-4,6.4-3.9,13-1,19.8c-2.6,1.6-5.5,1.6-8.4,1.6c-20.4,0-40.9,0-61.3,0c-1.5-3.7-3.2-7.3-4.3-11
		c-1.4-4.7-4.2-8.1-8.5-10.3C664.6,298.5,692.4,298.5,720.3,298.5L720.3,298.5z"/>
	<path class="st1" d="M694.4,439.4c-2-5.3-4.1-10.6-6.1-15.9c17.1-4.3,34.4-6.3,52-4.2c-4.1,4.7-10.2,4.2-15.4,5.8
		C714,428.7,704,433.5,694.4,439.4z"/>
	<path class="st1" d="M668.7,431.1c2.8,7.7,5.7,15.5,8.5,23.2c-0.9,2.5-3.1,3.7-5.2,4.9c-31.1,18-50.1,44.9-55.3,80.2
		c-4.7,32,3.1,61.4,24,87c8.6,10.5,19,18.7,30.4,25.8c1.6,1,3.9,1.5,3.4,4.2c11.2,12.5,25.7,20.1,40.7,26.7
		c7.5,3.3,15.4,5.5,23.5,6.8c1.9,0.3,2.2,0.9,1.5,2.5c-70.4,7.5-130.3-39.9-146.7-100.9c-16.5-61.6,11.8-127.2,69.1-157.5
		C664.7,433.1,666.7,432.1,668.7,431.1L668.7,431.1z"/>
	<path class="st1" d="M328.5,692.5c-3.6-4.2-9.1-3.6-13.7-5c-19.4-6-36.5-16-52-29c-0.6-0.5-0.8-1.5-1.2-2.3
		c3.4-1.3,6.1,0.8,8.9,1.9c44.5,17.3,84.8,9.9,120.1-21.6c17.8-15.9,28.1-36.7,32.8-60.2c0.8-3.7,0.1-8.2,4.2-10.8
		c7.8-0.8,15.7-2.5,23.2,1.3c-3.9,61.5-51.2,113.5-113.2,124.4C334.7,691.7,331.8,693.3,328.5,692.5L328.5,692.5z"/>
	<path class="st2" d="M450.9,566.7h-24.4c-6.9,3.8-14.4,1.4-21.6,1.9c-22,0.3-44.1,0.1-66.2,0.1c-2,0-4-0.1-5.9-0.8
		c-1-0.5-2.3-1.2-2-2.4c1.8-6.8,0.2-13.6,0.4-20.4l0.1-0.1c2.3-1.5,4.9-2,7.6-2c21.8,0.1,43.7-0.3,65.5,0.1c7.2-0.1,14.4-0.2,21.6,0
		c7.9,0.1,15.8-0.6,23.7,0.4c0.8,0.2,1.5,0.6,2.2,1c2.2,7.2,1.9,14.5,0,21.7C451.7,566.6,451.3,566.7,450.9,566.7L450.9,566.7z"/>
	<path class="st3" d="M452.1,566.4c-1-7-1-14,0-20.9c0.5-9,9.3-20.8,17.3-23.2c6-3.4,12.7-5.2,19.4-6.6c7.4-2.4,13.9-0.6,19.7,4.4
		c0,0.3,0,0.5,0,0.8c-0.1,0.9-0.5,1.8-1.3,2.2c-9.6,5.5-14.4,14.6-18.8,24.2c-4.9,4.3-6.5,9.8-6.4,16.2c0.2,7.6,0.1,15.1,0,22.7
		c0,2.8,0.4,5.8-1.9,8.2C465.8,589.9,457.4,579.7,452.1,566.4L452.1,566.4z"/>
	<path class="st3" d="M488.3,545.6c2.7-11.6,9.8-19.6,20.1-24.9c6.6,2.5,10.8,8.1,15.7,12.8c4.5,9.1,7.7,18.4,5.7,28.8
		c-2.5,13.1-9.2,22.8-21.4,28.6c-3.9,0.5-6.4-1.5-8-4.7c-1.5-6.8-1.1-13.8-0.6-20.6C500.5,556,498,548.9,488.3,545.6L488.3,545.6z"
		/>
	<path class="st4" d="M488.3,545.6c9.3,0.2,13,3.7,13.1,12.7c0.1,9.5,0.2,19,0.3,28.5c1.4,2.4,1.6,4.8,0,7.3c-0.1,0.3-0.2,0.7-0.4,1
		c-1.1,8.6-0.5,17.3-0.4,25.9c0.1,4.6-1.7,6.5-6.1,6.7c-2,0.1-4,0.1-6,0.1c-7.5-0.3-8-0.9-8.1-8.6c-0.1-8,0.3-16-0.2-24
		c-0.2-0.3-0.4-0.6-0.4-0.9c0.1-11.7,0.4-23.5,0.4-35.2C480.5,552.8,482.5,548.2,488.3,545.6L488.3,545.6z"/>
	<path class="st4" d="M480.6,595.1c2,7.9,0.7,15.8,0.8,23.8c0,5,1,7.2,6.6,6.9c14.6-0.6,11.9,1.7,12.4-12.4c0.2-6.1-1.4-12.4,1-18.4
		c0.1,7.8,0.5,15.6,0.1,23.4c-0.3,5.5,0.8,8.5,7.1,7.4c2.7-0.5,5.3,0.3,7.6,1.9c3.7,2.6,5,6.2,4.2,10.5c-0.8,4.4-3.6,7.6-7.9,7.9
		c-14.2,1.1-28.5,1.1-42.8,0c-5.5-0.4-8.6-4.7-8.3-10.4s3.7-8.9,9.1-9.9c1.5-0.3,3.1-0.3,4.7-0.1c4.3,0.6,5.3-1.3,5.2-5.3
		C480.2,612.1,480.5,603.6,480.6,595.1L480.6,595.1z"/>
	<path class="st3" d="M501.7,594.1v-7.3c2.2,1.4,4.5,2.8,6.8,4.1C506.7,593,504.1,593.2,501.7,594.1z"/>
	<path class="st5" d="M674.5,656.5c-23.5-13.5-41.7-31.9-52.2-57.3c-23-55.1,0-115.9,54.9-145c2.4,6.6,4.8,13.1,7.2,19.7
		c-1.3,3.2-4.3,4.4-6.9,6.1c-47,31.7-55.5,93.7-18.2,136.2c14.8,16.9,33.9,26.5,56.5,29.2c49,5.9,88.3-28.1,98-66.6
		c14.2-56.9-25.8-107.1-77.1-112.6c-8.6-0.9-16.9-0.3-25.3,0.6c-2.4,0.3-4.9,1.2-7-0.7c-2.8-6.1-5.3-12.4-7-18.9
		c59.7-18.2,126.2,22.3,139.4,84.9c15.7,74.3-44.2,142.5-119.9,136.3C701.9,667.2,688.1,662.4,674.5,656.5L674.5,656.5z"/>
	<path class="st5" d="M405.1,566.7c7.1,0,14.3,0,21.4,0c-3.7,49.9-45.7,94-95.2,100.7c-24.5,3.3-47.5-0.9-69.6-11.4
		c-25.2-14.6-43.9-34.8-53.7-62.5c-17.8-50.1,1.5-105,47-133.6c2.3-1.4,4.5-2.8,6.8-4.3c18-8.4,36.8-13.4,56.9-12.5
		c12.6,0.5,24.7,3.3,36.6,7.4c-3.1,6.1-6.2,12.2-9.3,18.2c-2.5,1.9-5.2,0.7-7.7,0.1c-35.1-8.6-65.5,0-90.3,26.2
		c-15.4,16.3-23.3,36-23.6,58.8c-0.4,32.3,12.8,57.7,38.7,76.1c32.2,22.9,74.9,21.6,106.2-2.6c18.2-14.1,29.6-32.5,33.9-55.2
		C403.4,570.2,403.5,568.2,405.1,566.7L405.1,566.7z"/>
	<path class="st1" d="M384.9,438.5c39.6,24.7,61.6,60.2,66,106.6c-8.1,0-16.3,0-24.4,0c-2.2-2.5-2.2-5.8-2.8-8.8
		c-5.8-28.5-19.6-52-43.1-69.5c-2.5-1.8-5.5-3.2-6.6-6.5C377,452.8,380.6,445.5,384.9,438.5z"/>
	<path class="st5" d="M374,460.4c30.9,19.9,48.3,48.2,52.5,84.7c-7.1,0-14.3,0-21.4,0c-3-28.4-16.5-50.4-40.5-65.8
		C367.1,472.7,370.2,466.4,374,460.4L374,460.4z"/>
	<path class="st1" d="M323.2,573.3c-11,5.3-22.9,1-27.4-9.8c-4.4-10.6,0.9-22.3,12-26.3c1.7-0.6,3.4-1,5.1-1.5
		c3.6,0.3,7.3,0.4,10.3,2.9c0.7,2.6-1.4,4-2.7,5.6c-6.1,7.7-6.1,15.7,0,23.5C321.8,569.3,323.9,570.6,323.2,573.3z"/>
	<path class="st1" d="M729.5,535.7c1.8,0.9,3.7,1.8,5.5,2.7c0.7,2-0.7,3.3-1.7,4.8c-6.7,9.7-6.7,15.9,0,25.6c1,1.5,2.4,2.7,1.7,4.8
		c-8.6,4-16.9,2.6-23-3.8c-5.7-5.9-7-15.3-3.3-22.9c0.7-1.4,1.5-2.7,2.2-4.1C716.2,537.9,722.3,535.3,729.5,535.7L729.5,535.7z"/>
	<path class="st1" d="M323.2,573.3c-2.3-4-6.6-6.4-8-11.2c-3-10,1.6-17,8.1-23.5c3.6,1.1,5.5,4.2,8,6.6c3.5,7,3.7,14.1,0.1,21.1
		C328.8,568.9,326.8,572.1,323.2,573.3L323.2,573.3z"/>
	<path class="st1" d="M735,573.5c-3.9-5.2-8.3-9.8-8.4-17.3c-0.1-7.7,4.2-12.6,8.4-17.9C750.1,547.2,750.1,564.7,735,573.5z"/>
	<polygon class="st4" points="480.5,569.5 501,577 502,616.5 480,617 	"/>
</g>
</svg>
