<?xml version="1.0" encoding="utf-8"?>
<!-- Generator: Adobe Illustrator 26.3.1, SVG Export Plug-In . SVG Version: 6.00 Build 0)  -->
<svg version="1.1" id="Layer_1" xmlns="http://www.w3.org/2000/svg" xmlns:xlink="http://www.w3.org/1999/xlink" x="0px" y="0px"
	 viewBox="0 0 1024 850" style="enable-background:new 0 0 1024 850;" xml:space="preserve">
<style type="text/css">
	.st0{fill:#F1F5F8;}
	.st1{fill:none;stroke:#263238;stroke-width:7;}
	.st2{fill:#394249;stroke:#263238;stroke-width:7;}
</style>
<g>
	<circle class="st0" cx="512" cy="455" r="345"/>
	<path class="st1" d="M529.7,129.6c0-5.8,0.2-11.6,0-17.4c-0.1-2.9,0.6-5.5,3-7.8h5.8c2.3,1.7,4.8,3.5,4.2,6.3
		c-3.4,16.8,6.7,31,14.2,45.7c25.1,49.4,50.3,98.9,75.5,148.3c36.1,70.7,72.2,141.4,108.3,212.1c18.7,36.6,37.4,73.1,56.1,109.7
		c0.4,0.7,0.6,1.4,0.8,2.2c-3.6,2.7-7.8,1.8-11.9,1.3c-3.8-1.2-4.9-4-6.2-6.6c-7.4-15-15.2-29.9-23-44.8
		C686.4,441.2,616.2,303.9,546,166.5c0.2,0.6,0.2,1.1,0.2,1.7c-0.9,26.6,1.6,53.2,1.7,79.9c0.2,23.8,0.3,47.6,1.6,71.3
		c1,18.8-0.2,37.7,1.2,56.5c1.6,20.4-0.1,40.7,1.5,61c1.5,18.7-0.2,37.3,1.4,55.9c1.6,19.8,0.4,39.6,1.5,59.3
		c0.5,9.1,1.3,18.2,1.2,27.3c0.4,7.5,0.1,15.1,0.1,22.6c0,2.3,0,4.6-1.9,6.5c-8.3,2.3-16.6,2.7-24.8-0.3c0-18.1-0.3-63.2,0.1-81.3
		c0.1-5.1-1.8-6.3-8.1-6.3c-69.8,0.2-139.5,0.1-209.3,0.1c-2.4,0-4.9,0.2-7.1-0.3c-5.5-1.3-5.5-5.2-0.1-9c8.8-0.4,17.4-1.9,26.3-1.9
		c60.6,0.1,121.2,0.1,181.8,0.1c2.4,0,4.8-0.1,7.2,0c4.9,0.1,6.9-1.8,6.8-5.6c-0.1-2.3,0-4.6,0-6.9c0-125.9,0-224.8,0-350.7
		C527.5,140.8,527.8,135.2,529.7,129.6L529.7,129.6z"/>
	<path class="st1" d="M529.7,129.6c0,49.9,0.1,99.7,0.1,149.6c0,75.7-0.1,151.4,0.1,227.1c0,4.7-1.4,6.3-8.2,6.3
		c-72.1-0.2-144.2-0.1-216.4-0.1c0.2-0.1,0.4-0.4,0.5-0.4c11.2,0.9,13.5-5.2,16.8-11.2c20.1-36.7,40.4-73.2,60.8-109.8
		c23-41.2,46.2-82.2,69.2-123.4c18.7-33.6,37.2-67.3,55.9-101C515.4,154.4,522.6,142,529.7,129.6L529.7,129.6z"/>
	<path class="st1" d="M784.3,629c4.4,0,8.8,0,13.3,0c4.8,0.3,9.1,1.9,10.9,8.9c1.7,6.8-1.3,11.1-4.4,15.3
		c-11.4,15.5-22.7,30.9-34,46.4c-3.2,1.5-6.6,1.4-9.9,1.4c-182.4,0-364.7,0-547-0.1c-4.2,0-8.7,1.3-12.4-3.1
		c15.3-22.1,30.2-44.7,51.3-56.9c13.6-7.8,27.8-11.6,42.5-11.8c7.8-0.1,15.7,2,23.4-1.5c2.3-0.9,4.6-1.5,7-1.5
		c21.9,0.1,43.8-0.2,65.7,0.1c96.7-0.3,193.4-0.4,290.1,0c31.5-0.4,63-0.1,94.6-0.1C778.5,626.1,781.6,626.7,784.3,629z"/>
	<path class="st1" d="M569.6,675.7c-1.2,0.5-140.7,2.3-173.3,2.3S287,671.2,287,671.2s111.3-4.3,145.9-6.9S569.6,675.7,569.6,675.7z
		"/>
	<path class="st1" d="M200.4,698.6c187,0,374.1,0,561.1,0.1c3,0,6.3-1.5,9,1.6c-13.2,20.1-29.6,31.3-49.4,33.4
		c-1.9,0.2-3.8,0.1-5.8,0.1c-168.5,0-337.1,0-505.6,0.1c-7.5,0-13.5-2.7-15.9-12.8C191.5,711.8,194.2,704,200.4,698.6L200.4,698.6z"
		/>
	<path class="st1" d="M681.3,628.4c-97,0-194,0-291,0.1c-0.2-0.5-0.5-1-0.2-1.3c7.2-9.3,14.8-18.2,25.1-24.4
		c38.2-0.1,76.5-0.1,114.7-0.2c8.2,0,16.4,0,24.6,0c2.6-2.3,5.8-2.1,8.9-2.1c25.6,0,51.1-0.1,76.7,0c11.5,0,21.7,3.2,29.2,12.5
		C673.3,618.1,680,621,681.3,628.4L681.3,628.4z"/>
	<path class="st2" d="M415.2,602.7c-8.3,8.6-16.6,17.1-24.9,25.7c-21.9,0-43.8,0.1-65.7,0c-2.3,0-4.8,0.7-6.9-1.1
		c5.4-18.8,10.8-37.6,16.2-56.5c0.8-2.9,2.2-5.7-3-6.3c-3-0.4-4.6-3.3-4.1-6.6c0.5-3.7,2.9-5.6,6.4-5.6c20.1-0.1,40.2-0.2,60.3,0.1
		c6.5,0.1,10.4,4.5,12,10.6C408.7,576.3,411.9,589.5,415.2,602.7z"/>
	<path class="st2" d="M363,615.5c-6,0-12-0.1-18,0c-4.1,0.1-5.6-1.3-4.5-5.6c3.4-13.1,6.6-26.4,9.8-39.6c0.9-3.7,2.7-5.5,7-5.4
		c9.1,0.4,18.2,0.4,27.3,0c4.4-0.2,5.9,2,6.8,5.6c1.9,7.6,3.9,15.2,5.6,22.9c2.8,12.5-4.8,21.9-17.6,22
		C374,615.6,368.5,615.5,363,615.5L363,615.5z"/>
</g>
</svg>
