<?xml version="1.0" encoding="utf-8"?>
<!-- Generator: Adobe Illustrator 26.3.1, SVG Export Plug-In . SVG Version: 6.00 Build 0)  -->
<svg version="1.1" id="Layer_1" xmlns="http://www.w3.org/2000/svg" xmlns:xlink="http://www.w3.org/1999/xlink" x="0px" y="0px"
	 viewBox="0 0 1024 850" style="enable-background:new 0 0 1024 850;" xml:space="preserve">
<style type="text/css">
	.st0{fill:#F1F5F8;}
	.st1{fill:#56C3C5;}
	.st2{fill:#EDEEEF;}
	.st3{fill:#3DB6B8;}
	.st4{fill:#394249;}
	.st5{fill:#303B43;}
	.st6{fill:#35A9AB;}
	.st7{fill:#EC6567;}
	.st8{fill:#E6E6E6;}
	.st9{fill:#CAD8E1;}
	.st10{opacity:0.33;fill:#3DB6B8;enable-background:new    ;}
</style>
<circle class="st0" cx="512" cy="425" r="345"/>
<g>
	<path class="st1" d="M103,529.4c0,15.8,2.3,37.4,17.2,41.2c10.4,2.7,24.7,4.8,44,5.2c3.9,0.1,9.4,0.4,16.2,0.9
		c0.2-2.3,0.4-4.8,0.6-7.3c0.3-3.3,0.8-6.5,1.6-9.5c7.9-34.4,39.6-56.3,67.6-56.3c30.5,0,50.9,10.5,69.7,38.2
		c6.7,9.9,10.3,21.5,12.1,32.3c1.1,6.4,1.5,12.5,1.7,17.9l352.9,5.5h15.8c0.2-5.4,0.5-11.6,1-18.7c0.2-1.9,0.3-3.8,0.5-5.8
		c3.8-39.8,38.6-65.8,69.2-65.8c30.6,0,51,10.5,69.7,38.2c7.1,10.4,10.6,22.8,12.3,34.2c1,6.5,1.4,12.7,1.4,18
		c0,0,31.4,4.5,47.9-4.4c3.4-1.8,8.6-8,11-12.3c0.6-1.1,1-2,1.2-2.8c1.9-7.9,4.8-23.2,4.3-40.8c-0.2-6.1-0.8-12.6-2-19.1
		c-0.9-5-2.2-10-3.9-15c-4.5-13.1-16-23-31.1-30.7c-29.2-14.9-71.9-21.4-103.6-26.3c-48.1-7.5-61.8-13.8-88.2-30
		c-26.5-16.1-75.5-45.7-132.1-61.8c-56.5-16.1-171.2-14.2-239.6,4C254.1,376.1,200,407.7,200,407.7s-51,5.7-72.3,12.2
		c-4.6,1.4-7.8,2.9-8.9,4.3c-2.1,2.9-3.8,6.6-5.2,10.9c-0.6,1.8-1.2,3.7-1.7,5.6c-3.9,14.7-5.1,32.6-5.3,39.6c0,0.7,0,1.3,0,1.7
		L103,529.4L103,529.4z"/>
	<path class="st2" d="M840.4,473c21.7,29.5,50.1,45.8,78.6,45.4c-0.7-3.9-1.6-7.9-2.8-11.8c-0.3-1-0.6-2.1-1-3.2
		c-4.5-13.1-16-23-31.1-30.7C869.6,469.9,854.9,470.2,840.4,473L840.4,473z"/>
	<path class="st3" d="M113.7,435.1c54.8,3,415.1,22.5,486.4,24.7c77.2,2.5,251.1,26.1,251.1,26.1l-10.8-13c0,0-26.1-6.2-87.2-17.2
		c-61.1-11-188.2-19.6-278.5-21.1c-76.4-1.3-284.6-11.6-346.9-14.8c-4.6,1.4-7.8,2.9-8.9,4.3C116.8,427.1,115.1,430.8,113.7,435.1
		L113.7,435.1z"/>
	<path class="st3" d="M683,566.3c-1.4,0.5-160.8,2.7-198.1,2.7c-37.3,0-124.9-7.8-124.9-7.8s127.2-4.9,166.7-7.8
		C566.2,550.4,683,566.3,683,566.3z"/>
	<path class="st4" d="M279.8,424.2l159.7,6.7l34.9,1.5l164.6,6.9l1.2-7.7l2.1-14.5c-4.9-3-10.1-6-15.6-9.2
		c-40.2-22.5-61.3-29.7-94.7-40.7c-33.4-11-68.4-11-68.4-11l-40.3-0.6l-40.3,3.2c-30.8,4.7-60.1,15-80.9,38.6
		c-0.1,0.1-0.1,0.1-0.2,0.2C293.5,407.2,285.4,416.8,279.8,424.2L279.8,424.2z"/>
	<path class="st5" d="M456,356.4l6.5,75.4l18,1l-10.8-76.6L456,356.4z"/>
	<path class="st6" d="M294.8,455.9l0,0.4c0.4,4.5,6.1,5.8,7.9,5.9c8.9,0.4,30.9,1.4,32.9,0.8c1.3-0.4,2.6-1.1,3.5-2.2
		c0.5-0.6,0.9-1.3,1.1-2c0.7-2.3-0.9-5.3-3.1-6c-2.5-0.8-30.8-1.8-37.5-1.8C298.3,451.1,294.6,451.8,294.8,455.9L294.8,455.9z"/>
	<path class="st7" d="M106.7,480.3c19.9-2.9,36.6-10.3,48.4-36.5c-0.2-0.1-0.4-0.1-0.6-0.2c-12.7-3.7-28.4-5.5-42.5-2.9
		c-1.9,7-3.1,14.7-3.9,21.6C107.1,469.9,106.8,476.6,106.7,480.3L106.7,480.3z"/>
	<path class="st5" d="M702.4,597.6l41.1-16.4l46.1-6.3l67,22.7c-0.1-14.6-2.6-35.8-13.7-52.2c-18.8-27.7-39.2-38.2-69.7-38.2
		c-30.5,0-65.4,26-69.2,65.8C703,582.7,702.6,590.8,702.4,597.6L702.4,597.6z"/>
	<path class="st5" d="M180.4,576.8l42.4-9.2l67.6,4.2l43.2,20.2c-0.4-14.5-3.1-34.6-13.7-50.2c-18.8-27.7-39.2-38.2-69.7-38.2
		s-65.4,26-69.2,65.8C180.8,572,180.6,574.5,180.4,576.8L180.4,576.8z"/>
	<path class="st4" d="M715.5,582.4c0,36.4,28.6,66,63.9,66c21.4,0,40.3-10.8,51.9-27.4c7.6-10.9,12.1-24.1,12.1-38.5
		c0-36.4-28.6-66-63.9-66c-24.1,0-45.1,13.8-55.9,34.1C718.4,559.9,715.5,570.8,715.5,582.4z"/>
	<path class="st2" d="M808.6,542.8c-4.5,7-9.6,13.3-14.9,19.5c-5.2,6.2-10.8,12-16.5,17.7c-5.7,5.6-11.6,11.1-17.8,16.2
		c-6.2,5.2-12.5,10.1-19.4,14.5l9.4,10.5c4.7-6.8,9.9-13,15.4-19c5.4-6,11.1-11.7,17-17.2c5.8-5.5,11.8-10.9,18.1-15.9
		c6.3-5.1,12.7-9.9,19.7-14.2L808.6,542.8L808.6,542.8z"/>
	<path class="st2" d="M772.9,533.1c1.6,8.2,2.4,16.4,2.9,24.6c0.5,8.2,0.6,16.4,0.5,24.6c-0.2,8.2-0.6,16.3-1.5,24.5
		c-0.8,8.2-1.9,16.3-3.8,24.4l13.8,0.5c-1.4-8.2-1.9-16.4-2.1-24.6c-0.3-8.2-0.2-16.4,0.2-24.5c0.3-8.2,0.9-16.3,1.9-24.5
		c0.9-8.2,2.2-16.3,4.2-24.4L772.9,533.1L772.9,533.1z"/>
	<path class="st2" d="M741.1,552.3c6.8,4.6,12.9,9.9,18.9,15.3c6,5.4,11.7,11.1,17.2,17c5.5,5.9,10.7,12,15.7,18.4
		c5,6.3,9.8,12.9,14,20l10.1-9.7c-6.6-4.8-12.6-10.2-18.4-15.9c-5.8-5.6-11.3-11.5-16.7-17.5c-5.4-6-10.6-12.2-15.5-18.7
		c-4.9-6.5-9.6-13.1-13.7-20.4L741.1,552.3L741.1,552.3z"/>
	<path class="st2" d="M731.7,589.1c8-1.7,15.9-2.4,23.9-2.9c7.9-0.5,15.9-0.7,23.8-0.5c7.9,0.2,15.8,0.7,23.7,1.5
		c7.9,0.8,15.8,1.9,23.7,3.9l0.5-14.3c-8,1.4-15.9,1.9-23.9,2.2c-7.9,0.3-15.9,0.2-23.8-0.2c-7.9-0.3-15.8-0.9-23.7-1.9
		c-7.9-1-15.8-2.2-23.7-4.4L731.7,589.1L731.7,589.1z"/>
	<path class="st8" d="M779.5,530.6c27.7,0,50.3,23.3,50.3,51.8c0,28.6-22.5,51.8-50.3,51.8c-27.7,0-50.3-23.3-50.3-51.8
		C729.2,553.8,751.8,530.6,779.5,530.6z M742.8,609c2.4,3.6,5.3,6.8,8.6,9.5c5.8,4.8,12.7,8.1,20.3,9.5c2.5,0.4,5.1,0.7,7.8,0.7
		c1.6,0,3.3-0.1,4.9-0.3c7.7-0.9,14.8-3.7,20.9-8.1c3.5-2.5,6.6-5.5,9.2-8.9c4.6-6,7.9-13.1,9.2-21c0.5-2.6,0.7-5.3,0.7-8
		c0-1.7-0.1-3.4-0.3-5.1c-0.8-7.6-3.4-14.6-7.3-20.7c-2.7-4.2-6.1-7.9-10-11c-5.3-4.2-11.7-7.3-18.5-8.6c-2.8-0.6-5.8-0.9-8.8-0.9
		c-2,0-4,0.1-5.9,0.4c-7,0.9-13.4,3.5-19,7.4c-4.1,2.8-7.7,6.3-10.7,10.4c-4.1,5.5-7,12-8.4,19.1c-0.6,2.9-0.9,6-0.9,9.1
		c0,2.1,0.1,4.1,0.4,6.1C735.9,596,738.7,603,742.8,609L742.8,609z"/>
	<path class="st2" d="M771.3,584c-1.2-4.4,1.4-9,5.7-10.2s8.7,1.4,9.9,5.8c1.2,4.4-1.4,9-5.7,10.2C776.9,591,772.5,588.4,771.3,584z
		"/>
	<path class="st9" d="M770.3,578.3c0.1-0.2,0.1-0.4,0.2-0.6c1-2.3,2.9-4.1,5.2-5c0.2-0.1,0.4-0.1,0.6-0.2c0.9-0.3,1.8-0.4,2.8-0.4
		c1.6,0,3.1,0.4,4.3,1.1c0.1,0.1,0.2,0.1,0.3,0.2c2.1,1.2,3.7,3.3,4.3,5.7c0,0,0,0.1,0,0.1c0.2,0.8,0.3,1.7,0.3,2.6
		c0,1.5-0.3,2.9-0.9,4.2c0,0,0,0.1,0,0.1c-1,2.1-2.7,3.8-4.9,4.7c-1.1,0.5-2.3,0.8-3.6,0.8c-1.1,0-2.2-0.2-3.1-0.6
		c-0.1,0-0.1,0-0.2-0.1c-2.2-0.8-4-2.5-5-4.6c-0.1-0.2-0.2-0.4-0.3-0.6c-0.5-1.2-0.8-2.5-0.8-3.8
		C769.7,580.6,769.9,579.4,770.3,578.3L770.3,578.3z M776.1,588c0.6,0.3,1.2,0.5,1.9,0.6c0.4,0.1,0.7,0.1,1,0.1
		c0.6,0,1.1-0.1,1.6-0.2c0.7-0.2,1.4-0.5,2-0.9c0.7-0.5,1.3-1.1,1.8-1.8c0.4-0.6,0.8-1.3,1-2c0.2-0.6,0.3-1.3,0.3-2
		c0-0.2,0-0.3,0-0.5c-0.1-0.8-0.2-1.6-0.5-2.3c-0.4-1.1-1.1-2-2-2.7c-0.4-0.4-0.9-0.7-1.4-0.9c-0.8-0.4-1.7-0.6-2.7-0.6
		c-0.5,0-0.9,0.1-1.4,0.1c-0.5,0.1-0.9,0.2-1.3,0.5c-1.4,0.6-2.5,1.7-3.2,3c-0.2,0.4-0.4,0.9-0.5,1.4c-0.2,0.6-0.3,1.3-0.3,2
		c0,0.9,0.2,1.7,0.5,2.5c0.2,0.4,0.4,0.9,0.6,1.3C774.1,586.6,775,587.5,776.1,588L776.1,588z"/>
	<path class="st4" d="M193.1,582.4c0,36.4,28.6,66,63.9,66c21.4,0,40.3-10.8,51.9-27.4c7.6-10.9,12.1-24.1,12.1-38.5
		c0-36.4-28.6-66-63.9-66c-24.1,0-45.1,13.8-55.9,34.1C196,559.9,193.1,570.8,193.1,582.4z"/>
	<path class="st2" d="M286.2,542.8c-4.5,7-9.6,13.3-14.9,19.5c-5.2,6.2-10.8,12-16.5,17.7c-5.7,5.6-11.6,11.1-17.8,16.2
		c-6.2,5.2-12.5,10.1-19.4,14.5l9.4,10.5c4.7-6.8,9.9-13,15.4-19c5.4-6,11.1-11.7,17-17.2c5.8-5.5,11.8-10.9,18.1-15.9
		c6.3-5.1,12.7-9.9,19.7-14.2L286.2,542.8L286.2,542.8z"/>
	<path class="st2" d="M250.5,533.1c1.6,8.2,2.4,16.4,2.9,24.6c0.5,8.2,0.6,16.4,0.5,24.6c-0.2,8.2-0.6,16.3-1.5,24.5
		c-0.8,8.2-1.9,16.3-3.8,24.4l13.8,0.5c-1.4-8.2-1.9-16.4-2.1-24.6c-0.3-8.2-0.2-16.4,0.2-24.5c0.3-8.2,0.9-16.3,1.9-24.5
		c0.9-8.2,2.2-16.3,4.2-24.4L250.5,533.1L250.5,533.1z"/>
	<path class="st2" d="M218.7,552.3c6.8,4.6,12.9,9.9,18.9,15.3c6,5.4,11.7,11.1,17.2,17c5.5,5.9,10.7,12,15.7,18.4
		c5,6.3,9.8,12.9,14,20l10.1-9.7c-6.6-4.8-12.6-10.2-18.4-15.9c-5.8-5.6-11.3-11.5-16.7-17.5c-5.4-6-10.6-12.2-15.5-18.7
		c-4.9-6.5-9.6-13.1-13.7-20.4L218.7,552.3L218.7,552.3z"/>
	<path class="st2" d="M209.3,589.1c8-1.7,15.9-2.4,23.9-2.9c7.9-0.5,15.9-0.7,23.8-0.5c7.9,0.2,15.8,0.7,23.7,1.5
		c7.9,0.8,15.8,1.9,23.7,3.9l0.5-14.3c-8,1.4-15.9,1.9-23.9,2.2c-7.9,0.3-15.9,0.2-23.8-0.2c-7.9-0.3-15.8-0.9-23.7-1.9
		c-7.9-1-15.8-2.2-23.7-4.4L209.3,589.1z"/>
	<path class="st8" d="M257.1,530.6c27.7,0,50.3,23.3,50.3,51.8c0,28.6-22.5,51.8-50.3,51.8c-27.7,0-50.3-23.3-50.3-51.8
		C206.8,553.8,229.4,530.6,257.1,530.6z M220.3,609c2.4,3.6,5.3,6.8,8.6,9.5c5.8,4.8,12.7,8.1,20.3,9.5c2.5,0.4,5.1,0.7,7.8,0.7
		c1.6,0,3.3-0.1,4.9-0.3c7.7-0.9,14.8-3.7,20.9-8.1c3.5-2.5,6.6-5.5,9.2-8.9c4.6-6,7.9-13.1,9.2-21c0.5-2.6,0.7-5.3,0.7-8
		c0-1.7-0.1-3.4-0.3-5.1c-0.8-7.6-3.4-14.6-7.3-20.7c-2.7-4.2-6.1-7.9-10-11c-5.3-4.2-11.7-7.3-18.5-8.6c-2.8-0.6-5.8-0.9-8.8-0.9
		c-2,0-4,0.1-5.9,0.4c-7,0.9-13.4,3.5-19,7.4c-4.1,2.8-7.7,6.3-10.7,10.4c-4.1,5.5-7,12-8.4,19.1c-0.6,2.9-0.9,6-0.9,9.1
		c0,2.1,0.1,4.1,0.4,6.1C213.5,596,216.3,603,220.3,609L220.3,609z"/>
	<path class="st9" d="M247.9,578.3c0.1-0.2,0.1-0.4,0.2-0.6c1-2.3,2.9-4.1,5.2-5c0.2-0.1,0.4-0.1,0.6-0.2c0.9-0.3,1.8-0.4,2.8-0.4
		c1.6,0,3.1,0.4,4.3,1.1c0.1,0.1,0.2,0.1,0.3,0.2c2.1,1.2,3.7,3.3,4.3,5.7c0,0,0,0.1,0,0.1c0.2,0.8,0.3,1.7,0.3,2.6
		c0,1.5-0.3,2.9-0.9,4.2c0,0,0,0.1,0,0.1c-1,2.1-2.7,3.8-4.9,4.7c-1.1,0.5-2.3,0.8-3.6,0.8c-1.1,0-2.1-0.2-3.1-0.6
		c-0.1,0-0.1,0-0.2-0.1c-2.2-0.8-4-2.5-5-4.6c-0.1-0.2-0.2-0.4-0.3-0.6c-0.5-1.2-0.8-2.5-0.8-3.8
		C247.2,580.6,247.5,579.4,247.9,578.3L247.9,578.3z M253.7,588c0.6,0.3,1.2,0.5,1.9,0.6c0.4,0.1,0.7,0.1,1,0.1
		c0.6,0,1.1-0.1,1.6-0.2c0.7-0.2,1.4-0.5,2-0.9c0.7-0.5,1.3-1.1,1.8-1.8c0.4-0.6,0.8-1.3,1-2c0.2-0.6,0.3-1.3,0.3-2
		c0-0.2,0-0.3,0-0.5c-0.1-0.8-0.2-1.6-0.5-2.3c-0.4-1.1-1.1-2-2-2.7c-0.4-0.4-0.9-0.7-1.4-0.9c-0.8-0.4-1.7-0.6-2.7-0.6
		c-0.5,0-0.9,0.1-1.4,0.1c-0.5,0.1-0.9,0.2-1.3,0.5c-1.4,0.6-2.5,1.7-3.2,3c-0.2,0.4-0.4,0.9-0.5,1.4c-0.2,0.6-0.3,1.3-0.3,2
		c0,0.9,0.2,1.7,0.5,2.5c0.2,0.4,0.4,0.9,0.6,1.3C251.7,586.6,252.6,587.5,253.7,588z"/>
	<path class="st4" d="M888,580.8c9.6,1,19.2,0.1,28.7-2.6c1.9-7.9,4.8-23.2,4.3-40.8c-6,1.7-11.9,3.9-17.8,6.6
		C894.4,548.2,891.5,567.4,888,580.8L888,580.8z"/>
	<path class="st3" d="M617.4,438.9c3.4-9.9,8.8-19,15.7-26.7c1.5-1.7,3.8-2.4,6-1.8c6.4,1.9,12.8,4.9,17.1,10.1
		c4.4,5.4,6.1,13.6,2.5,19.6C645.5,445.1,630.8,443,617.4,438.9L617.4,438.9z"/>
	<path class="st6" d="M487.8,463.2l0,0.4c0.3,4.5,5.9,6,7.8,6.1c8.9,0.6,30.8,2.2,32.9,1.6c1.3-0.3,2.6-1.1,3.5-2.1
		c0.5-0.6,0.9-1.2,1.2-2c0.7-2.3-0.7-5.3-2.9-6.1c-2.5-0.9-30.7-2.5-37.5-2.7C491.3,458.5,487.7,459.1,487.8,463.2L487.8,463.2z"/>
	<path class="st1" d="M644.8,414.5c-2.1-0.9-4.4-1.6-6.7-1.3c-3.2,0.5-5.7,2.8-7.6,5.2c-2.5,3.1-4.6,6.4-6.2,9.9
		c-0.3,0.7-0.6,1.4-0.2,2.1c0.4,0.7,1.4,0.9,2.2,1.1c9.9,1.9,20.3,3.8,29.9,0.9c2.9-0.9,2.5-2,1.7-4.2c-0.7-1.9-1.7-3.8-3-5.5
		C652.5,419.2,649,416.4,644.8,414.5L644.8,414.5z"/>
	<path class="st10" d="M267.3,485.6c0.7,0.3-28.5-6.3-59.7,13.5c-28.5,18.1-37.6,55.7-37.6,55.7s-0.3-26.8,17.4-53.4
		C205,474.8,241.5,473,267.3,485.6L267.3,485.6z"/>
	<path class="st10" d="M754.6,497.8c-0.6,0.4,27.6-9.6,60.8,6.4C845.7,518.8,859,555,859,555s-2.7-26.7-23.2-51
		C815.4,479.8,778.9,482.3,754.6,497.8L754.6,497.8z"/>
</g>
</svg>
