<?xml version="1.0" encoding="utf-8"?>
<!-- Generator: Adobe Illustrator 26.3.1, SVG Export Plug-In . SVG Version: 6.00 Build 0)  -->
<svg version="1.1" id="Layer_1" xmlns="http://www.w3.org/2000/svg" xmlns:xlink="http://www.w3.org/1999/xlink" x="0px" y="0px"
	 viewBox="0 0 1024 850" style="enable-background:new 0 0 1024 850;" xml:space="preserve">
<style type="text/css">
	.st0{fill:#F1F5F8;}
	.st1{fill:none;stroke:#263238;stroke-width:7;}
	.st2{fill:#303B43;}
	.st3{fill:#394249;stroke:#263238;stroke-width:7;}
	.st4{fill:#303B43;stroke:#303B43;stroke-width:7;}
	.st5{fill:#3DB6B8;}
	.st6{fill:#FFFFFF;filter:url(#Adobe_OpacityMaskFilter);}
	.st7{mask:url(#path-17-inside-1_337_7746_00000122703549864659085130000006712193804677662132_);fill:#263238;}
	.st8{fill:#FFFFFF;filter:url(#Adobe_OpacityMaskFilter_00000158001773077132112940000000908000857704294301_);}
	.st9{mask:url(#path-20-inside-2_337_7746_00000106841382086186640270000002652767596973569925_);fill:#263238;}
	.st10{fill:#FFFFFF;filter:url(#Adobe_OpacityMaskFilter_00000181800697190910789470000012984723535583982216_);}
	.st11{mask:url(#path-27-inside-3_337_7746_00000004545284761943832770000003697752859837196216_);fill:#263238;}
	.st12{fill:#FFFFFF;filter:url(#Adobe_OpacityMaskFilter_00000010292158848854079840000004611782729071372704_);}
	.st13{mask:url(#path-29-inside-4_337_7746_00000065076883049674224760000000672009423323997092_);fill:#263238;}
	.st14{fill:#394249;}
	.st15{fill:#EDEEEF;}
	.st16{fill:#E6E6E6;}
	.st17{fill:#CAD8E1;}
	.st18{fill:#FFFFFF;filter:url(#Adobe_OpacityMaskFilter_00000163043385472238630310000004488985521655208867_);}
	.st19{mask:url(#path-43-inside-5_337_7746_00000149355841962129052980000012362850723151372443_);fill:#263238;}
	.st20{fill:#FFFFFF;filter:url(#Adobe_OpacityMaskFilter_00000068651894872705650330000003204279015257702277_);}
	.st21{mask:url(#path-45-inside-6_337_7746_00000014609452474676522790000004195229553229106343_);fill:#263238;}
	.st22{fill:#394249;stroke:#394249;stroke-width:7;}
</style>
<g>
	<circle class="st0" cx="512" cy="425" r="345"/>
	<g>
		<path class="st1" d="M110.1,482.7l-3.6,46.8v0.3c0,7.8,0.6,16.7,2.8,24.1c2.3,7.4,6,12.3,11.7,13.7c10.1,2.6,24.2,4.7,43.2,5.1h0
			c3.3,0.1,7.7,0.3,12.9,0.7c0.1-1.3,0.2-2.6,0.4-3.9l0,0c0.3-3.4,0.9-6.7,1.6-10c8.3-36,41.4-59,71.1-59c15.7,0,29,2.7,40.9,9.1
			c11.9,6.4,22.1,16.4,31.7,30.6l0,0c7.1,10.4,10.8,22.6,12.6,33.7c0.9,5.3,1.4,10.4,1.6,15l349.6,5.5h0H699
			c0.2-4.6,0.5-9.8,0.9-15.5l0,0l0,0c0-0.4,0.1-0.9,0.1-1.4c0.1-1.4,0.3-2.9,0.4-4.5c3.9-41.7,40.4-69,72.7-69c15.7,0,29,2.7,41,9.1
			c11.9,6.4,22.1,16.4,31.7,30.6l0,0c7.5,11,11.1,23.9,12.9,35.6c0.8,5.5,1.2,10.7,1.4,15.4c0.6,0.1,1.3,0.1,2,0.2
			c3.1,0.3,7.5,0.6,12.3,0.6c9.8,0,21.1-1.1,28.5-5.1c1.1-0.6,2.9-2.2,4.9-4.4c1.9-2.2,3.6-4.6,4.7-6.4c0.6-1,0.8-1.6,0.8-1.8l0,0
			l0,0c1.8-7.7,4.7-22.7,4.2-39.9v0c-0.2-6-0.7-12.3-1.9-18.6l0,0l0,0c-0.9-4.8-2.1-9.7-3.7-14.5l0,0c-4.1-11.8-14.6-21.2-29.4-28.8
			c-28.5-14.5-70.4-21-102.3-25.9l-0.3,0l0,0c-24.1-3.7-39.8-7.2-52.9-11.9c-13.1-4.7-23.4-10.4-36.6-18.5
			c-26.5-16.1-75.2-45.5-131.2-61.5l0,0c-27.8-7.9-70.2-11.5-114.3-10.7c-44.1,0.7-89.6,5.8-123.4,14.7c-33,8.8-62.9,21-84.6,31.1
			c-10.8,5-19.6,9.5-25.7,12.7c-3,1.6-5.4,2.9-7,3.8c-0.8,0.4-1.4,0.8-1.8,1c-0.2,0.1-0.4,0.2-0.5,0.3l-0.1,0.1l0,0l0,0l0,0
			l-0.6,0.4l-0.7,0.1l-0.4-3.5c0.4,3.5,0.4,3.5,0.4,3.5l0,0h0l0,0l-0.1,0c-0.1,0-0.2,0-0.4,0c-0.2,0-0.4,0-0.6,0.1
			c-0.3,0-0.6,0.1-1,0.1c-1.4,0.2-3.5,0.4-6,0.7c-5.1,0.6-12.1,1.5-19.8,2.6c-15.4,2.2-33.3,5.2-43.6,8.4h0c-2.2,0.7-4,1.3-5.3,2
			c-1.3,0.6-1.7,1-1.8,1c0,0,0,0,0,0c-1.8,2.4-3.4,5.8-4.7,9.9l0,0l0,0c-0.6,1.7-1.1,3.5-1.6,5.3l0,0c-3.8,14.3-5,31.9-5.2,38.8v0
			l0,0c0,0.6,0,1.1,0,1.6v0.1L110.1,482.7z"/>
		<path class="st2" d="M702.4,597.6l41.1-16.4l46.1-6.3l67,22.7c-0.1-14.6-2.6-35.8-13.7-52.2c-18.8-27.7-39.2-38.2-69.7-38.2
			c-30.5,0-65.4,26-69.2,65.8C703,582.7,702.6,590.8,702.4,597.6L702.4,597.6z"/>
		<path class="st2" d="M180.4,576.8l42.4-9.2l67.6,4.2l43.2,20.2c-0.4-14.5-3.1-34.6-13.7-50.2c-18.8-27.7-39.2-38.2-69.7-38.2
			s-65.4,26-69.2,65.8C180.8,572,180.6,574.5,180.4,576.8L180.4,576.8z"/>
		<path class="st1" d="M882.9,476.4c-11.9-2.2-24-2.2-36.1-0.5c19.5,24.5,43.8,38.2,68,39.3c-0.5-2.4-1.2-4.8-1.9-7.2
			c-0.1-0.2-0.1-0.3-0.2-0.5c-0.3-0.9-0.5-1.7-0.8-2.5l0,0l0,0C907.8,493.2,897.4,483.9,882.9,476.4z"/>
		<path class="st1" d="M600.2,456.8L600.2,456.8c38.8,1.2,101.7,7.8,154.8,14c26.6,3.1,50.7,6.2,68.2,8.4c8,1,14.7,1.9,19.5,2.6
			l-4.3-5.2c0,0-0.1,0-0.1,0c-0.8-0.2-2.1-0.5-3.8-0.8c-3.4-0.7-8.6-1.9-15.6-3.3c-14.1-2.9-35.9-7.2-66.4-12.7
			c-60.8-11-187.7-19.5-277.9-21h0c-76.2-1.3-283.4-11.5-346.4-14.7c-2,0.6-3.5,1.2-4.7,1.8c-1.3,0.6-1.7,1-1.8,1c0,0,0,0,0,0
			c-1.1,1.5-2.1,3.4-3.1,5.6l2.1,0.1C193.8,436.4,531.4,454.6,600.2,456.8z"/>
		<path class="st1" d="M484.9,566c18.6,0,67.8-0.5,112.4-1.1c12.9-0.2,25.4-0.4,36.7-0.5c-4.8-0.5-9.7-1.1-14.8-1.6
			c-34.2-3.6-72.9-6.8-92.3-5.4c-19.8,1.5-61.6,3.4-98.3,5c-3.4,0.1-6.7,0.3-10,0.4C442.8,564.5,468.7,566,484.9,566z"/>
		<path class="st3" d="M286.7,421.5l152.9,6.4h0l34.9,1.5l0,0l161.4,6.8l0.7-4.6l0,0l1.8-12.2c-4.2-2.6-8.8-5.2-13.6-7.9
			c-40-22.4-60.7-29.5-94.1-40.5c-16.4-5.4-33.2-8.1-46-9.5c-6.4-0.7-11.7-1-15.5-1.2c-1.9-0.1-3.3-0.1-4.3-0.2c-0.5,0-0.9,0-1.1,0
			c-0.1,0-0.2,0-0.3,0h-0.1h0h0h0l0,0h0l0,0l-40.1-0.6l-40,3.2c-30.3,4.7-58.6,14.7-78.6,37.4c0,0-0.1,0.1-0.1,0.1l0,0l-0.2,0.2
			C298,407.8,291.8,415.1,286.7,421.5z"/>
		<path class="st4" d="M466.7,360.2l-6.9,0.1l5.9,68.6l10.8,0.6L466.7,360.2z"/>
		<path class="st1" d="M334.7,460.1C334.7,460.1,334.8,460.1,334.7,460.1c0.8-0.2,1.4-0.6,1.8-1.1c0.2-0.3,0.3-0.5,0.4-0.7l0,0l0,0
			c0-0.1,0.1-0.5-0.2-1c-0.3-0.5-0.5-0.6-0.6-0.6c0,0,0,0,0,0l0,0l0,0c0,0,0,0-0.1,0c-0.2,0-0.5-0.1-1.2-0.2c-1-0.1-2.3-0.2-3.8-0.3
			c-3.1-0.2-7-0.4-11.1-0.6c-8.2-0.3-16.9-0.6-20.2-0.6h0c-0.1,0-0.2,0-0.5,0.1c-0.2,0.1-0.4,0.1-0.5,0.2c-0.1,0.1-0.1,0.1-0.1,0.1
			c0,0-0.1,0.2-0.1,0.7l-3.5,0.2l3.5-0.1l0,0.2c0.1,0.6,0.5,1.2,1.6,1.8c1.2,0.6,2.5,0.9,3,0.9c4.4,0.2,12.1,0.6,19,0.8
			c3.4,0.1,6.6,0.2,9,0.2c1.2,0,2.2,0,3,0C334.3,460.1,334.5,460.1,334.7,460.1z M334.9,460.1C334.9,460.1,334.9,460.1,334.9,460.1
			C334.9,460.1,334.9,460.1,334.9,460.1z"/>
		<path class="st1" d="M111.5,463.2L111.5,463.2c-0.6,5.1-1,9.8-1.2,13.4c8-1.5,15.1-3.9,21.6-8.3c6.7-4.5,12.9-11.3,18.2-21.9
			c-10.9-2.8-23.6-4-35.3-2.2C113.3,450.4,112.2,457.1,111.5,463.2z"/>
		<path class="st1" d="M726.2,552.6L726.2,552.6c10.3-19.3,30.2-32.2,52.9-32.2c33.3,0,60.4,27.9,60.4,62.5
			c0,13.7-4.3,26.3-11.4,36.5L726.2,552.6z M726.2,552.6c-4.8,8.9-7.6,19.3-7.6,30.2c0,34.6,27.2,62.5,60.4,62.5 M726.2,552.6
			l52.9,92.7 M779.1,645.3c20.2,0,38-10.2,49-25.9L779.1,645.3z"/>
		<path class="st1" d="M797.3,566.8c5.2-4.3,10.7-8.4,16.5-12.2l-5.2-5.7c-4,5.7-8.2,11-12.6,16.1c-4,4.7-8.2,9.3-12.5,13.7
			C788,574.6,792.6,570.6,797.3,566.8z M761.9,600.3c2.4-2.7,4.8-5.2,7.3-7.8c-2.6,2.3-5.2,4.6-7.9,6.8c-5.2,4.4-10.5,8.6-16.3,12.5
			l3.8,4.2C752.9,610.5,757.3,605.3,761.9,600.3z"/>
		<path class="st1" d="M780.9,558.1c0.8-6.8,1.8-13.7,3.3-20.6l-7.5-0.2c1.1,7,1.7,13.9,2.1,20.8c0.4,5.6,0.5,11.1,0.6,16.6
			C779.8,569.1,780.2,563.6,780.9,558.1z M778.6,598.6c-0.2,3-0.5,6-0.8,8.9c-0.7,6.9-1.6,13.8-3,20.7l5.5,0.2
			c-0.9-7-1.3-14-1.5-20.9C778.7,604.6,778.7,601.6,778.6,598.6z"/>
		<path class="st1" d="M795.8,600.4c-2.5-2.4-4.9-4.8-7.2-7.2c2.3,2.7,4.5,5.4,6.6,8.1c4.2,5.3,8.3,10.8,12,16.7l4-3.9
			C805.8,609.8,800.7,605.1,795.8,600.4z M774.8,578c-4-4.6-7.8-9.3-11.5-14.2c-4.1-5.4-8.1-10.9-11.7-16.9l-5.5,5.4
			c5.6,4.1,10.8,8.6,15.8,13.2C766.4,569.5,770.7,573.7,774.8,578z"/>
		<path class="st1" d="M755,580.8c-6.6-0.8-13.2-1.8-19.9-3.4l-0.2,7.9c6.7-1.2,13.4-1.8,20-2.2c6.6-0.5,13.2-0.6,19.7-0.6
			C768.1,582.2,761.5,581.6,755,580.8z M803,584.2c6.6,0.7,13.3,1.6,19.9,3l0.2-5.8c-6.8,1-13.5,1.4-20.1,1.6
			c-4.1,0.2-8.1,0.2-12.1,0.2C794.9,583.4,799,583.7,803,584.2z"/>
		<path class="st5" d="M779.1,531c27.7,0,50.3,23.3,50.3,51.8c0,28.6-22.5,51.8-50.3,51.8c-27.7,0-50.3-23.3-50.3-51.8
			C728.8,554.3,751.3,531,779.1,531z M742.3,609.4c2.4,3.6,5.3,6.8,8.6,9.5c5.8,4.8,12.7,8.1,20.3,9.5c2.5,0.4,5.1,0.7,7.8,0.7
			c1.6,0,3.3-0.1,4.9-0.3c7.7-0.9,14.8-3.7,20.9-8.1c3.5-2.5,6.6-5.5,9.2-8.9c4.6-6,7.9-13.1,9.2-21c0.5-2.6,0.7-5.3,0.7-8
			c0-1.7-0.1-3.4-0.3-5.1c-0.8-7.6-3.4-14.6-7.3-20.7c-2.7-4.2-6.1-7.9-10-11c-5.3-4.2-11.7-7.3-18.5-8.6c-2.8-0.6-5.8-0.9-8.8-0.9
			c-2,0-4,0.1-5.9,0.4c-7,0.9-13.4,3.5-19,7.4c-4.1,2.8-7.7,6.3-10.7,10.4c-4.1,5.5-7,12-8.4,19.1c-0.6,2.9-0.9,6-0.9,9.1
			c0,2.1,0.1,4.1,0.4,6.1C735.5,596.5,738.3,603.5,742.3,609.4L742.3,609.4z"/>
		<defs>
			<filter id="Adobe_OpacityMaskFilter" filterUnits="userSpaceOnUse" x="721.8" y="524" width="114.5" height="117.7">
				<feColorMatrix  type="matrix" values="1 0 0 0 0  0 1 0 0 0  0 0 1 0 0  0 0 0 1 0"/>
			</filter>
		</defs>
		
			<mask maskUnits="userSpaceOnUse" x="721.8" y="524" width="114.5" height="117.7" id="path-17-inside-1_337_7746_00000122703549864659085130000006712193804677662132_">
			<path class="st6" d="M779.1,531c27.7,0,50.3,23.3,50.3,51.8c0,28.6-22.5,51.8-50.3,51.8c-27.7,0-50.3-23.3-50.3-51.8
				C728.8,554.3,751.3,531,779.1,531z M742.3,609.4c2.4,3.6,5.3,6.8,8.6,9.5c5.8,4.8,12.7,8.1,20.3,9.5c2.5,0.4,5.1,0.7,7.8,0.7
				c1.6,0,3.3-0.1,4.9-0.3c7.7-0.9,14.8-3.7,20.9-8.1c3.5-2.5,6.6-5.5,9.2-8.9c4.6-6,7.9-13.1,9.2-21c0.5-2.6,0.7-5.3,0.7-8
				c0-1.7-0.1-3.4-0.3-5.1c-0.8-7.6-3.4-14.6-7.3-20.7c-2.7-4.2-6.1-7.9-10-11c-5.3-4.2-11.7-7.3-18.5-8.6c-2.8-0.6-5.8-0.9-8.8-0.9
				c-2,0-4,0.1-5.9,0.4c-7,0.9-13.4,3.5-19,7.4c-4.1,2.8-7.7,6.3-10.7,10.4c-4.1,5.5-7,12-8.4,19.1c-0.6,2.9-0.9,6-0.9,9.1
				c0,2.1,0.1,4.1,0.4,6.1C735.5,596.5,738.3,603.5,742.3,609.4L742.3,609.4z"/>
		</mask>
		<path class="st7" d="M742.3,609.4l-5.8,3.9l10.8-8.8L742.3,609.4z M751,619l4.5-5.4l0,0L751,619z M771.3,628.5l-1.2,6.9l0,0
			L771.3,628.5z M783.9,628.9l-0.8-6.9l0,0l0,0L783.9,628.9z M804.8,620.7l-4.1-5.7l0,0l0,0L804.8,620.7z M814.1,611.8l-5.5-4.3l0,0
			L814.1,611.8z M823.3,590.8l-6.9-1.2l0,0l0,0L823.3,590.8z M823.7,577.8l-7,0.8l0,0l0,0L823.7,577.8z M816.3,557.1l-5.9,3.8l0,0
			l0,0L816.3,557.1z M806.3,546.1l4.3-5.5l0,0l0,0L806.3,546.1z M787.8,537.4l-1.4,6.9l0,0l0,0L787.8,537.4z M773.1,537l1,6.9l0,0
			l0,0L773.1,537z M754.1,544.4l4,5.8l0,0l0,0L754.1,544.4z M743.4,554.7l5.6,4.2l0,0l0,0L743.4,554.7z M735,573.8l-6.9-1.3l0,0
			L735,573.8z M734.6,589l6.9-0.9l0,0l0,0L734.6,589z M742.3,609.4l5.8-4l-10.8,8.8L742.3,609.4z M779.1,524
			c31.8,0,57.3,26.6,57.3,58.8h-14c0-24.9-19.6-44.8-43.3-44.8V524z M836.3,582.9c0,32.2-25.5,58.8-57.3,58.8v-14
			c23.6,0,43.3-19.9,43.3-44.8H836.3z M779.1,641.7c-31.8,0-57.3-26.6-57.3-58.8h14c0,24.9,19.6,44.8,43.3,44.8V641.7z M721.8,582.9
			c0-32.2,25.5-58.8,57.3-58.8v14c-23.6,0-43.3,19.9-43.3,44.8H721.8z M748.1,605.5c2.1,3,4.5,5.8,7.3,8.1l-8.9,10.8
			c-3.8-3.2-7.2-6.9-10-11L748.1,605.5z M755.5,613.6c4.9,4,10.7,6.9,17.1,8l-2.5,13.8c-8.8-1.6-16.9-5.5-23.6-11L755.5,613.6z
			 M772.5,621.6c2.2,0.4,4.3,0.6,6.5,0.6v14c-3.1,0-6.1-0.3-9-0.8L772.5,621.6z M779.1,622.2c1.4,0,2.8-0.1,4-0.2l1.7,13.9
			c-1.9,0.2-3.9,0.3-5.7,0.3V622.2z M783.2,621.9c6.5-0.7,12.5-3.1,17.5-6.8l8.2,11.3c-7,5.1-15.3,8.4-24.2,9.4L783.2,621.9z
			 M800.7,615.1c2.9-2.1,5.5-4.7,7.8-7.6l11,8.6c-3,3.9-6.6,7.4-10.7,10.3L800.7,615.1z M808.5,607.5c3.9-5,6.7-11.1,7.8-17.8
			l13.8,2.3c-1.5,9-5.2,17.3-10.6,24.1L808.5,607.5z M816.4,589.6c0.4-2.1,0.6-4.4,0.6-6.7h14c0,3.1-0.2,6.2-0.8,9.2L816.4,589.6z
			 M816.9,582.8c0-1.5-0.1-2.9-0.2-4.3l13.9-1.6c0.2,2,0.3,3.9,0.3,5.9H816.9z M816.7,578.5c-0.7-6.5-2.9-12.4-6.2-17.6l11.7-7.7
			c4.5,7,7.5,15,8.4,23.7L816.7,578.5z M810.5,560.9c-2.3-3.6-5.2-6.7-8.5-9.4l8.7-11c4.5,3.6,8.4,7.8,11.6,12.7L810.5,560.9z
			 M802,551.6c-4.5-3.6-9.8-6.1-15.5-7.3l2.8-13.7c8,1.6,15.3,5.1,21.5,10L802,551.6z M786.4,544.3c-2.4-0.5-4.8-0.7-7.3-0.7v-14
			c3.5,0,6.9,0.3,10.2,1L786.4,544.3z M779.1,543.6c-1.7,0-3.3,0.1-4.9,0.3l-2-13.9c2.3-0.3,4.6-0.5,6.9-0.5V543.6z M774.1,543.9
			c-5.8,0.8-11.2,3-15.9,6.2l-8-11.5c6.4-4.5,13.9-7.5,22-8.6L774.1,543.9z M758.1,550.1c-3.5,2.4-6.5,5.4-9.1,8.8l-11.2-8.3
			c3.4-4.6,7.6-8.7,12.4-12L758.1,550.1z M749.1,558.9c-3.5,4.7-6,10.2-7.1,16.2l-13.7-2.7c1.6-8.1,4.9-15.6,9.7-21.9L749.1,558.9z
			 M741.9,575.1c-0.5,2.5-0.7,5.1-0.7,7.7h-14c0-3.5,0.3-7,1-10.4L741.9,575.1z M741.2,582.9c0,1.8,0.1,3.5,0.3,5.1l-13.9,1.9
			c-0.3-2.3-0.5-4.6-0.5-7H741.2z M741.5,588.1c0.8,6.4,3.1,12.3,6.6,17.4l-11.6,7.9c-4.7-6.9-7.8-14.9-8.9-23.6L741.5,588.1z
			 M737.3,614.3L737.3,614.3l10-9.8l0,0L737.3,614.3z"/>
		<path class="st1" d="M777.4,577.6c-2.3,0.7-3.9,3.2-3.2,5.9c0.7,2.6,3.3,4.1,5.6,3.4c2.3-0.7,3.9-3.2,3.2-5.9
			C782.3,578.4,779.8,577,777.4,577.6z"/>
		<path class="st5" d="M769.9,578.8c0.1-0.2,0.1-0.4,0.2-0.6c1-2.3,2.9-4.1,5.2-5c0.2-0.1,0.4-0.1,0.6-0.2c0.9-0.3,1.8-0.4,2.8-0.4
			c1.6,0,3.1,0.4,4.3,1.1c0.1,0.1,0.2,0.1,0.3,0.2c2.1,1.2,3.7,3.3,4.3,5.7c0,0,0,0.1,0,0.1c0.2,0.8,0.4,1.7,0.4,2.6
			c0,1.5-0.3,2.9-0.9,4.2c0,0,0,0.1,0,0.1c-1,2.1-2.7,3.8-4.9,4.7c-1.1,0.5-2.3,0.8-3.6,0.8c-1.1,0-2.2-0.2-3.1-0.6
			c-0.1,0-0.1,0-0.2-0.1c-2.2-0.8-4-2.5-5-4.6c-0.1-0.2-0.2-0.4-0.3-0.6c-0.5-1.2-0.8-2.5-0.8-3.8
			C769.2,581,769.4,579.8,769.9,578.8L769.9,578.8z M775.7,588.5c0.6,0.3,1.2,0.5,1.9,0.6c0.4,0.1,0.7,0.1,1,0.1
			c0.6,0,1.1-0.1,1.6-0.2c0.7-0.2,1.4-0.5,2-0.9c0.7-0.5,1.3-1.1,1.8-1.8c0.4-0.6,0.8-1.3,1-2c0.2-0.6,0.3-1.3,0.3-2
			c0-0.2,0-0.3,0-0.5c-0.1-0.8-0.2-1.6-0.5-2.3c-0.4-1.1-1.1-2-2-2.7c-0.4-0.4-0.9-0.7-1.4-0.9c-0.8-0.4-1.7-0.6-2.7-0.6
			c-0.5,0-0.9,0.1-1.4,0.1c-0.5,0.1-0.9,0.3-1.3,0.5c-1.4,0.6-2.5,1.7-3.2,3c-0.2,0.4-0.4,0.9-0.5,1.4c-0.2,0.6-0.3,1.3-0.3,2
			c0,0.9,0.2,1.7,0.5,2.5c0.2,0.4,0.4,0.9,0.6,1.3C773.7,587.1,774.6,588,775.7,588.5L775.7,588.5z"/>
		<defs>
			
				<filter id="Adobe_OpacityMaskFilter_00000150097669181296805650000002513924841926601656_" filterUnits="userSpaceOnUse" x="762.2" y="565.6" width="32.8" height="33.4">
				<feColorMatrix  type="matrix" values="1 0 0 0 0  0 1 0 0 0  0 0 1 0 0  0 0 0 1 0"/>
			</filter>
		</defs>
		
			<mask maskUnits="userSpaceOnUse" x="762.2" y="565.6" width="32.8" height="33.4" id="path-20-inside-2_337_7746_00000106841382086186640270000002652767596973569925_">
			<path style="fill:#FFFFFF;filter:url(#Adobe_OpacityMaskFilter_00000150097669181296805650000002513924841926601656_);" d="
				M769.9,578.8c0.1-0.2,0.1-0.4,0.2-0.6c1-2.3,2.9-4.1,5.2-5c0.2-0.1,0.4-0.1,0.6-0.2c0.9-0.3,1.8-0.4,2.8-0.4
				c1.6,0,3.1,0.4,4.3,1.1c0.1,0.1,0.2,0.1,0.3,0.2c2.1,1.2,3.7,3.3,4.3,5.7c0,0,0,0.1,0,0.1c0.2,0.8,0.4,1.7,0.4,2.6
				c0,1.5-0.3,2.9-0.9,4.2c0,0,0,0.1,0,0.1c-1,2.1-2.7,3.8-4.9,4.7c-1.1,0.5-2.3,0.8-3.6,0.8c-1.1,0-2.2-0.2-3.1-0.6
				c-0.1,0-0.1,0-0.2-0.1c-2.2-0.8-4-2.5-5-4.6c-0.1-0.2-0.2-0.4-0.3-0.6c-0.5-1.2-0.8-2.5-0.8-3.8
				C769.2,581,769.4,579.8,769.9,578.8L769.9,578.8z M775.7,588.5c0.6,0.3,1.2,0.5,1.9,0.6c0.4,0.1,0.7,0.1,1,0.1
				c0.6,0,1.1-0.1,1.6-0.2c0.7-0.2,1.4-0.5,2-0.9c0.7-0.5,1.3-1.1,1.8-1.8c0.4-0.6,0.8-1.3,1-2c0.2-0.6,0.3-1.3,0.3-2
				c0-0.2,0-0.3,0-0.5c-0.1-0.8-0.2-1.6-0.5-2.3c-0.4-1.1-1.1-2-2-2.7c-0.4-0.4-0.9-0.7-1.4-0.9c-0.8-0.4-1.7-0.6-2.7-0.6
				c-0.5,0-0.9,0.1-1.4,0.1c-0.5,0.1-0.9,0.3-1.3,0.5c-1.4,0.6-2.5,1.7-3.2,3c-0.2,0.4-0.4,0.9-0.5,1.4c-0.2,0.6-0.3,1.3-0.3,2
				c0,0.9,0.2,1.7,0.5,2.5c0.2,0.4,0.4,0.9,0.6,1.3C773.7,587.1,774.6,588,775.7,588.5L775.7,588.5z"/>
		</mask>
		<path class="st9" d="M769.9,578.8l6.7,1.9l-13.7-1.9H769.9z M770.1,578.2l6.4,2.9l0,0.1l0,0.1L770.1,578.2z M775.3,573.2l2.8,6.4
			l-0.2,0.1l-0.2,0.1L775.3,573.2z M775.9,573l2.4,6.6l-0.2,0.1l-0.2,0.1L775.9,573z M783,573.7l-3.2,6.2l-0.1-0.1l-0.1-0.1
			L783,573.7z M783.3,573.9l-3.5,6.1l-0.4-0.2l-0.4-0.3L783.3,573.9z M787.7,579.6l6.8-1.8l0.2,0.9v0.9H787.7z M787.7,579.6
			l-6.8,1.8l-0.2-0.9v-0.9H787.7z M787.1,586.4l-5,4.9l-3.4-3.5l2.2-4.4L787.1,586.4z M787.1,586.5l-6.3-2.9l0.5-1.1l0.8-0.8
			L787.1,586.5z M782.3,591.2l-2.9-6.4l0.1,0l0.1,0L782.3,591.2z M775.5,591.4v-7h1.3l1.2,0.4L775.5,591.4z M775.4,591.3l2.5-6.6
			l1.5,0.6l1.1,1.1L775.4,591.3z M770.3,586.7l6.1-3.4l0.1,0.2l0.1,0.2L770.3,586.7z M770,586.1l-6.3,3.1l-0.1-0.2l-0.1-0.2
			L770,586.1z M769.9,578.8l-6.5-2.6l13.5,2.6H769.9z M780.3,589l-1.7-6.8l0.1,0l0.1,0L780.3,589z M782.3,588.1l3.9,5.8l0,0l0,0
			L782.3,588.1z M784.1,586.3l-5.8-3.9l0.1-0.2l0.1-0.1L784.1,586.3z M785.1,584.3l-6.7-1.9l0,0l0,0L785.1,584.3z M785.3,581.8
			l-6.9,1.1l-0.1-0.3l0-0.3L785.3,581.8z M784.8,579.5l-6.4,2.7l0-0.1l0-0.1L784.8,579.5z M782.8,576.8l-4.4,5.5l-0.1,0l-0.1,0
			L782.8,576.8z M781.4,575.9l-2.7,6.5l0,0l0,0L781.4,575.9z M777.3,575.5l-1.7-6.8l0.2,0l0.2,0L777.3,575.5z M775.9,575.9l3.2,6.2
			l-0.2,0.1l-0.2,0.1L775.9,575.9z M772.7,579l-6.2-3.2l0-0.1l0-0.1L772.7,579z M772.2,580.3l-6.8-1.8l0-0.1l0-0.1L772.2,580.3z
			 M772.4,584.8l6.5-2.5l0,0.1l0,0.1L772.4,584.8z M773,586.1l5.8-4l0.1,0.1l0.1,0.1L773,586.1z M763.1,576.9
			c0.2-0.7,0.5-1.3,0.7-1.7l12.6,6.1c0-0.1,0.1-0.1,0.1-0.2c0-0.1,0.1-0.2,0.1-0.4L763.1,576.9z M763.7,575.3c1.8-3.9,5-7.1,9.1-8.7
			l5,13.1c-0.5,0.2-1,0.6-1.4,1.4L763.7,575.3z M772.5,566.8c0.7-0.3,1.3-0.5,1.4-0.5l4,13.4c-0.1,0-0.1,0-0.1,0c0,0,0,0,0,0
			c0,0,0.2-0.1,0.3-0.1L772.5,566.8z M773.5,566.4c1.7-0.6,3.5-0.9,5.1-0.9v14c-0.1,0-0.3,0-0.3,0c-0.1,0-0.1,0-0.1,0L773.5,566.4z
			 M778.7,565.6c2.7,0,5.4,0.7,7.7,2l-6.8,12.2c-0.2-0.1-0.5-0.2-0.9-0.2V565.6z M786.2,567.4c0.1,0,0.7,0.4,1.4,0.9l-8.6,11.1
			c0.2,0.2,0.5,0.3,0.6,0.4c0.1,0.1,0.2,0.1,0.1,0.1L786.2,567.4z M786.8,567.8c3.7,2.2,6.4,5.7,7.6,9.9l-13.5,3.7
			c-0.2-0.7-0.6-1.2-1.1-1.5L786.8,567.8z M794.7,579.6c0-0.6-0.1-1.1-0.2-1.4c0-0.2-0.1-0.4-0.1-0.5c0-0.2-0.1-0.3-0.1-0.4
			c0-0.1-0.1-0.2-0.1-0.3c0-0.1-0.1-0.1-0.1-0.2c0,0,0-0.1-0.1-0.1c0,0,0,0,0,0c0,0,0,0,0,0c0,0,0,0,0,0c0,0,0,0,0,0
			c0,0,0,0.1,0.1,0.1c0,0.1,0.1,0.1,0.1,0.2c0,0.1,0.1,0.2,0.1,0.3c0,0.1,0.1,0.3,0.1,0.4c0,0.2,0.1,0.3,0.1,0.5
			C794.6,578.6,794.7,579.1,794.7,579.6l-14,0.1c0,0.6,0.1,1.1,0.2,1.4c0,0.2,0.1,0.4,0.1,0.5c0,0.2,0.1,0.3,0.1,0.4
			c0,0.1,0.1,0.2,0.1,0.3c0,0.1,0.1,0.1,0.1,0.2c0,0,0,0.1,0.1,0.1c0,0,0,0,0,0c0,0,0,0,0,0c0,0,0,0,0,0c0,0,0,0,0,0
			c0,0,0-0.1-0.1-0.1c0-0.1-0.1-0.1-0.1-0.2c0-0.1-0.1-0.2-0.1-0.3c0-0.1-0.1-0.3-0.1-0.4c0-0.2-0.1-0.3-0.1-0.5
			c-0.1-0.4-0.2-0.9-0.2-1.5H794.7z M794.5,577.9c0.3,1.3,0.6,2.8,0.6,4.4h-14c0-0.2,0-0.5-0.1-0.9L794.5,577.9z M795,582.3
			c0,2.5-0.5,5-1.7,7.2l-12.6-6.2c0.1-0.2,0.2-0.6,0.2-1.1H795z M792.1,581.6c0.9,0.9,1.6,2.1,1.9,3.6c0.3,1.4,0.1,2.6-0.2,3.5
			c-0.3,0.8-0.6,1.5-0.9,1.8c-0.1,0.2-0.3,0.4-0.4,0.5c-0.1,0.1-0.1,0.1-0.2,0.2c0,0-0.1,0.1-0.1,0.1c0,0,0,0,0,0c0,0,0,0,0,0
			c0,0,0,0,0,0c0,0,0,0,0,0c0,0,0,0-5-4.9c-5-4.9-5-4.9-5-4.9c0,0,0,0,0,0c0,0,0,0,0,0c0,0,0,0,0,0c0,0,0,0,0,0c0,0-0.1,0.1-0.1,0.1
			c-0.1,0.1-0.1,0.1-0.2,0.2c-0.1,0.1-0.3,0.3-0.4,0.5c-0.3,0.4-0.6,1-0.9,1.8c-0.3,0.9-0.5,2.1-0.2,3.5c0.3,1.5,1,2.6,1.8,3.5
			L792.1,581.6z M793.5,589.4c-1.7,3.7-4.7,6.6-8.4,8.2l-5.5-12.9c0.5-0.2,1-0.7,1.3-1.2L793.5,589.4z M785.2,597.6
			c-2.1,1-4.3,1.4-6.5,1.4v-14c0.4,0,0.6-0.1,0.7-0.1L785.2,597.6z M778.7,599c-1.9,0-3.8-0.3-5.6-1l4.9-13.1
			c0.2,0.1,0.4,0.1,0.7,0.1V599z M775.5,598.4c-0.9,0-1.9-0.2-3-0.7c-1-0.5-1.8-1.1-2.2-1.6l10.1-9.7c-0.4-0.4-1-1-2-1.4
			c-1-0.5-2-0.6-2.8-0.6V598.4z M772.9,597.9c-3.9-1.5-7-4.4-8.9-8.1l12.6-6.2c0.3,0.5,0.7,0.9,1.2,1.1L772.9,597.9z M764.2,590.1
			c-0.2-0.4-0.4-0.8-0.5-1l12.6-6.1c0.1,0.1,0.1,0.2,0.1,0.3c0,0.1,0,0.1,0,0L764.2,590.1z M763.5,588.8c-0.8-2-1.3-4.2-1.3-6.5h14
			c0,0.4,0.1,0.8,0.2,1.1L763.5,588.8z M762.2,582.3c0-2,0.4-4.1,1.1-6.1l13,5.2c-0.1,0.2-0.1,0.5-0.1,0.9H762.2z M776.9,578.8
			L776.9,578.8l-14,0v0H776.9z M778.9,582.3C778.9,582.3,778.9,582.2,778.9,582.3c-0.1,0-0.1,0-0.2-0.1l-2.2,13.8
			c-1.5-0.2-2.8-0.7-4-1.3L778.9,582.3z M778.7,582.2C778.7,582.2,778.7,582.2,778.7,582.2l-0.1,14c-0.7,0-1.4-0.1-2.1-0.2
			L778.7,582.2z M778.6,582.2c-0.1,0-0.1,0-0.1,0c0,0,0,0,0,0l3.5,13.6c-1,0.3-2.1,0.4-3.4,0.4V582.2z M778.7,582.2
			c-0.2,0-0.2,0.1-0.3,0.1c0,0,0,0,0,0l7.7,11.7c-1.1,0.8-2.6,1.5-4.3,1.9L778.7,582.2z M778.4,582.3
			C778.4,582.3,778.4,582.3,778.4,582.3c-0.1,0.1-0.1,0.1-0.2,0.2l11.7,7.7c-1,1.5-2.3,2.8-3.7,3.7L778.4,582.3z M778.5,582.1
			c-0.1,0.1-0.1,0.2-0.1,0.2c0,0,0,0,0,0l13.4,3.9c-0.4,1.4-1.1,2.9-2.1,4.2L778.5,582.1z M778.4,582.3
			C778.4,582.3,778.4,582.3,778.4,582.3C778.4,582.3,778.4,582.3,778.4,582.3C778.4,582.3,778.4,582.3,778.4,582.3
			C778.4,582.3,778.4,582.3,778.4,582.3l14,0c0,1.5-0.2,2.8-0.6,4L778.4,582.3z M778.4,582.3C778.4,582.2,778.4,582.2,778.4,582.3
			c0,0.1,0,0.3,0.1,0.6l13.8-2.2c0.1,0.8,0.1,1.5,0.1,1.6H778.4z M778.3,582.2C778.3,582.2,778.3,582.2,778.3,582.2
			C778.3,582.2,778.3,582.2,778.3,582.2C778.3,582.2,778.4,582.2,778.3,582.2l12.9-5.5c0.6,1.4,1,3,1.1,4.6L778.3,582.2z
			 M778.3,582.1C778.3,582.1,778.3,582.2,778.3,582.1c0.1,0.1,0.1,0.1,0.1,0.1l8.8-10.9c1.8,1.4,3.2,3.3,4.1,5.6L778.3,582.1z
			 M778.3,582.2c0,0,0.1,0.1,0.4,0.2l5.4-12.9c1.2,0.5,2.3,1.2,3.2,2L778.3,582.2z M778.6,582.3
			C778.5,582.3,778.5,582.3,778.6,582.3l0.1-14c2,0,3.9,0.5,5.5,1.2L778.6,582.3z M778.6,582.3C778.7,582.3,778.7,582.3,778.6,582.3
			c0,0,0,0-0.1,0l-2.5-13.8c0.7-0.1,1.6-0.3,2.6-0.3V582.3z M778.9,582.3C778.8,582.3,778.8,582.3,778.9,582.3c0,0,0.1,0,0.2-0.1
			l-6.4-12.4c1.1-0.6,2.2-0.9,2.9-1.1L778.9,582.3z M778.8,582.3C778.8,582.3,778.8,582.3,778.8,582.3c0.1-0.1,0.1-0.1,0.1-0.1
			C778.9,582.2,778.9,582.3,778.8,582.3l-12.2-6.7c1.4-2.5,3.6-4.7,6.5-6L778.8,582.3z M778.9,582.2
			C778.9,582.2,778.9,582.2,778.9,582.2C778.9,582.2,778.9,582.2,778.9,582.2C778.9,582.2,778.9,582.2,778.9,582.2l-13.5-3.8
			c0.3-0.9,0.6-1.8,1.1-2.7L778.9,582.2z M778.9,582.1c0,0.2,0,0.2,0,0.2h-14c0-1.4,0.2-2.7,0.5-3.8L778.9,582.1z M778.9,582.3
			C778.9,582.3,778.9,582.3,778.9,582.3C778.9,582.3,778.9,582.3,778.9,582.3C778.9,582.3,778.9,582.3,778.9,582.3
			C778.9,582.3,778.9,582.3,778.9,582.3l-13.1,5c-0.6-1.6-0.9-3.3-0.9-5H778.9z M778.9,582.4c0,0,0-0.1,0-0.1c0,0-0.1-0.1-0.1-0.2
			l-11.5,8c-0.7-1-1.1-1.9-1.5-2.9L778.9,582.4z M778.9,582.3C778.9,582.3,778.9,582.3,778.9,582.3c0,0-0.1-0.1-0.2-0.1l-6.2,12.6
			c-2.3-1.1-4.2-2.9-5.5-4.9L778.9,582.3z"/>
		<path class="st1" d="M204.2,552.6L204.2,552.6c10.3-19.3,30.2-32.2,52.9-32.2c33.3,0,60.4,27.9,60.4,62.5
			c0,13.7-4.3,26.3-11.4,36.5L204.2,552.6z M204.2,552.6c-4.8,8.9-7.6,19.3-7.6,30.2c0,34.6,27.2,62.5,60.4,62.5 M204.2,552.6
			l52.9,92.7 M257.1,645.3c20.2,0,38-10.2,49-25.9L257.1,645.3z"/>
		<path class="st1" d="M261.6,578.7c4.5-4.1,9-8.1,13.8-11.9c5.2-4.3,10.7-8.4,16.5-12.2l-5.2-5.7c-4,5.7-8.2,11-12.6,16.1
			C270,569.7,265.8,574.3,261.6,578.7z M239.9,600.3c2.4-2.7,4.8-5.2,7.3-7.8c-2.6,2.3-5.2,4.6-7.9,6.8c-5.2,4.4-10.6,8.6-16.3,12.5
			l3.8,4.2C230.9,610.5,235.3,605.3,239.9,600.3z"/>
		<path class="st1" d="M258.9,558.1c0.8-6.8,1.8-13.7,3.3-20.6l-7.5-0.2c1.1,7,1.7,13.9,2.1,20.8c0.4,5.6,0.5,11.1,0.6,16.6
			C257.8,569.1,258.2,563.6,258.9,558.1z M256.6,598.6c-0.2,3-0.5,6-0.8,8.9c-0.7,6.9-1.6,13.8-3,20.7l5.4,0.2
			c-0.9-7-1.3-14-1.5-20.9C256.7,604.6,256.7,601.6,256.6,598.6z"/>
		<path class="st1" d="M273.8,600.4c-2.5-2.4-4.9-4.8-7.2-7.2c2.3,2.7,4.5,5.4,6.6,8.1c4.2,5.3,8.3,10.8,12,16.7l4-3.9
			C283.8,609.8,278.7,605.1,273.8,600.4z M239.9,565.5c4.5,4,8.8,8.2,13,12.5c-4-4.6-7.8-9.3-11.5-14.2c-4.1-5.4-8.1-10.9-11.7-16.9
			l-5.5,5.4C229.7,556.5,234.9,560.9,239.9,565.5z"/>
		<path class="st1" d="M281,583c-4.1,0.2-8.1,0.2-12.1,0.2c4,0.3,8.1,0.6,12.1,1c6.6,0.7,13.3,1.6,19.9,3l0.2-5.8
			C294.4,582.3,287.7,582.8,281,583z M252.6,582.6c-6.6-0.4-13.1-0.9-19.7-1.8c-6.6-0.8-13.2-1.8-19.9-3.4l-0.2,7.9
			c6.7-1.2,13.4-1.8,20-2.2C239.5,582.7,246.1,582.5,252.6,582.6z"/>
		<path class="st5" d="M257.1,531c27.7,0,50.3,23.3,50.3,51.8c0,28.6-22.5,51.8-50.3,51.8c-27.7,0-50.3-23.3-50.3-51.8
			C206.8,554.3,229.3,531,257.1,531z M220.3,609.4c2.4,3.6,5.3,6.8,8.6,9.5c5.8,4.8,12.7,8.1,20.3,9.5c2.5,0.4,5.1,0.7,7.8,0.7
			c1.6,0,3.3-0.1,4.9-0.3c7.7-0.9,14.8-3.7,20.9-8.1c3.5-2.5,6.6-5.5,9.2-8.9c4.6-6,7.9-13.1,9.2-21c0.5-2.6,0.7-5.3,0.7-8
			c0-1.7-0.1-3.4-0.3-5.1c-0.8-7.6-3.4-14.6-7.3-20.7c-2.7-4.2-6.1-7.9-10-11c-5.3-4.2-11.7-7.3-18.5-8.6c-2.8-0.6-5.8-0.9-8.8-0.9
			c-2,0-4,0.1-5.9,0.4c-7,0.9-13.4,3.5-19,7.4c-4.1,2.8-7.7,6.3-10.7,10.4c-4.1,5.5-7,12-8.4,19.1c-0.6,2.9-0.9,6-0.9,9.1
			c0,2.1,0.1,4.1,0.4,6.1C213.5,596.5,216.3,603.5,220.3,609.4L220.3,609.4z"/>
		<defs>
			
				<filter id="Adobe_OpacityMaskFilter_00000094602242518133741310000014852003741900743350_" filterUnits="userSpaceOnUse" x="199.8" y="524" width="114.5" height="117.7">
				<feColorMatrix  type="matrix" values="1 0 0 0 0  0 1 0 0 0  0 0 1 0 0  0 0 0 1 0"/>
			</filter>
		</defs>
		
			<mask maskUnits="userSpaceOnUse" x="199.8" y="524" width="114.5" height="117.7" id="path-27-inside-3_337_7746_00000004545284761943832770000003697752859837196216_">
			<path style="fill:#FFFFFF;filter:url(#Adobe_OpacityMaskFilter_00000094602242518133741310000014852003741900743350_);" d="
				M257.1,531c27.7,0,50.3,23.3,50.3,51.8c0,28.6-22.5,51.8-50.3,51.8c-27.7,0-50.3-23.3-50.3-51.8C206.8,554.3,229.3,531,257.1,531
				z M220.3,609.4c2.4,3.6,5.3,6.8,8.6,9.5c5.8,4.8,12.7,8.1,20.3,9.5c2.5,0.4,5.1,0.7,7.8,0.7c1.6,0,3.3-0.1,4.9-0.3
				c7.7-0.9,14.8-3.7,20.9-8.1c3.5-2.5,6.6-5.5,9.2-8.9c4.6-6,7.9-13.1,9.2-21c0.5-2.6,0.7-5.3,0.7-8c0-1.7-0.1-3.4-0.3-5.1
				c-0.8-7.6-3.4-14.6-7.3-20.7c-2.7-4.2-6.1-7.9-10-11c-5.3-4.2-11.7-7.3-18.5-8.6c-2.8-0.6-5.8-0.9-8.8-0.9c-2,0-4,0.1-5.9,0.4
				c-7,0.9-13.4,3.5-19,7.4c-4.1,2.8-7.7,6.3-10.7,10.4c-4.1,5.5-7,12-8.4,19.1c-0.6,2.9-0.9,6-0.9,9.1c0,2.1,0.1,4.1,0.4,6.1
				C213.5,596.5,216.3,603.5,220.3,609.4L220.3,609.4z"/>
		</mask>
		<path class="st11" d="M220.3,609.4l-5.8,3.9l10.8-8.8L220.3,609.4z M229,619l4.5-5.4l0,0L229,619z M249.3,628.5l-1.2,6.9l0,0
			L249.3,628.5z M261.9,628.9l-0.8-6.9l0,0l0,0L261.9,628.9z M282.8,620.7l-4.1-5.7l0,0l0,0L282.8,620.7z M292.1,611.8l-5.5-4.3l0,0
			L292.1,611.8z M301.3,590.8l-6.9-1.2l0,0l0,0L301.3,590.8z M301.7,577.8l-7,0.8l0,0l0,0L301.7,577.8z M294.3,557.1l-5.9,3.8l0,0
			l0,0L294.3,557.1z M284.3,546.1l4.3-5.5l0,0l0,0L284.3,546.1z M265.8,537.4l-1.4,6.9l0,0l0,0L265.8,537.4z M251.1,537l1,6.9l0,0
			l0,0L251.1,537z M232.1,544.4l4,5.8l0,0l0,0L232.1,544.4z M221.4,554.7l5.6,4.2l0,0l0,0L221.4,554.7z M213,573.8l-6.9-1.3l0,0
			L213,573.8z M212.6,589l6.9-0.9l0,0l0,0L212.6,589z M220.3,609.4l5.8-4l-10.8,8.8L220.3,609.4z M257.1,524
			c31.8,0,57.3,26.6,57.3,58.8h-14c0-24.9-19.6-44.8-43.3-44.8V524z M314.3,582.9c0,32.2-25.5,58.8-57.3,58.8v-14
			c23.6,0,43.3-19.9,43.3-44.8H314.3z M257.1,641.7c-31.8,0-57.3-26.6-57.3-58.8h14c0,24.9,19.6,44.8,43.3,44.8V641.7z M199.8,582.9
			c0-32.2,25.5-58.8,57.3-58.8v14c-23.6,0-43.3,19.9-43.3,44.8H199.8z M226.1,605.5c2.1,3,4.5,5.8,7.3,8.1l-8.9,10.8
			c-3.8-3.2-7.2-6.9-10-11L226.1,605.5z M233.4,613.6c4.9,4,10.7,6.9,17.1,8l-2.5,13.8c-8.8-1.6-16.9-5.5-23.6-11L233.4,613.6z
			 M250.5,621.6c2.2,0.4,4.3,0.6,6.5,0.6v14c-3.1,0-6.1-0.3-9-0.8L250.5,621.6z M257.1,622.2c1.4,0,2.8-0.1,4-0.2l1.7,13.9
			c-1.9,0.2-3.9,0.3-5.7,0.3V622.2z M261.2,621.9c6.5-0.7,12.5-3.1,17.5-6.8l8.2,11.3c-7,5.1-15.3,8.4-24.2,9.4L261.2,621.9z
			 M278.7,615.1c2.9-2.1,5.5-4.7,7.8-7.6l11,8.6c-3,3.9-6.6,7.4-10.7,10.3L278.7,615.1z M286.5,607.5c3.9-5,6.7-11.1,7.8-17.8
			l13.8,2.3c-1.5,9-5.2,17.3-10.6,24.1L286.5,607.5z M294.4,589.6c0.4-2.1,0.6-4.4,0.6-6.7h14c0,3.1-0.2,6.2-0.8,9.2L294.4,589.6z
			 M294.9,582.8c0-1.5-0.1-2.9-0.2-4.3l13.9-1.6c0.2,2,0.3,3.9,0.3,5.9H294.9z M294.7,578.5c-0.7-6.5-2.9-12.5-6.2-17.6l11.7-7.7
			c4.5,7,7.5,15,8.4,23.7L294.7,578.5z M288.5,560.9c-2.3-3.6-5.2-6.7-8.5-9.4l8.7-11c4.5,3.6,8.4,7.8,11.6,12.7L288.5,560.9z
			 M280,551.6c-4.5-3.6-9.8-6.1-15.5-7.3l2.8-13.7c8,1.6,15.3,5.1,21.5,10L280,551.6z M264.4,544.3c-2.4-0.5-4.8-0.7-7.3-0.7v-14
			c3.5,0,6.9,0.3,10.2,1L264.4,544.3z M257.1,543.6c-1.7,0-3.3,0.1-4.9,0.3l-2-13.9c2.3-0.3,4.6-0.5,6.9-0.5V543.6z M252.1,543.9
			c-5.8,0.8-11.2,3-15.9,6.2l-8-11.5c6.4-4.5,13.9-7.5,22-8.6L252.1,543.9z M236.1,550.1c-3.5,2.4-6.5,5.4-9.1,8.8l-11.2-8.3
			c3.4-4.6,7.6-8.7,12.4-12L236.1,550.1z M227.1,558.9c-3.5,4.7-6,10.2-7.1,16.2l-13.7-2.7c1.6-8.1,4.9-15.6,9.7-21.9L227.1,558.9z
			 M219.9,575.1c-0.5,2.5-0.7,5.1-0.7,7.7h-14c0-3.5,0.3-7,1-10.4L219.9,575.1z M219.2,582.9c0,1.8,0.1,3.5,0.3,5.1l-13.9,1.9
			c-0.3-2.3-0.5-4.6-0.5-7H219.2z M219.5,588.1c0.8,6.4,3.1,12.3,6.6,17.4l-11.6,7.9c-4.7-6.9-7.8-14.9-8.9-23.6L219.5,588.1z
			 M215.3,614.3L215.3,614.3l10-9.8l0,0L215.3,614.3z"/>
		<path class="st5" d="M247.9,578.8c0.1-0.2,0.1-0.4,0.2-0.6c1-2.3,2.9-4.1,5.2-5c0.2-0.1,0.4-0.1,0.6-0.2c0.9-0.3,1.8-0.4,2.8-0.4
			c1.6,0,3.1,0.4,4.3,1.1c0.1,0.1,0.2,0.1,0.3,0.2c2.1,1.2,3.7,3.3,4.3,5.7c0,0,0,0.1,0,0.1c0.2,0.8,0.4,1.7,0.4,2.6
			c0,1.5-0.3,2.9-0.9,4.2c0,0,0,0.1,0,0.1c-1,2.1-2.7,3.8-4.9,4.7c-1.1,0.5-2.3,0.8-3.6,0.8c-1.1,0-2.2-0.2-3.1-0.6
			c-0.1,0-0.1,0-0.2-0.1c-2.2-0.8-4-2.5-5-4.6c-0.1-0.2-0.2-0.4-0.3-0.6c-0.5-1.2-0.8-2.5-0.8-3.8
			C247.2,581,247.4,579.8,247.9,578.8L247.9,578.8z M253.7,588.5c0.6,0.3,1.2,0.5,1.9,0.6c0.4,0.1,0.7,0.1,1,0.1
			c0.6,0,1.1-0.1,1.6-0.2c0.7-0.2,1.4-0.5,2-0.9c0.7-0.5,1.3-1.1,1.8-1.8c0.4-0.6,0.8-1.3,1-2c0.2-0.6,0.3-1.3,0.3-2
			c0-0.2,0-0.3,0-0.5c-0.1-0.8-0.2-1.6-0.5-2.3c-0.4-1.1-1.1-2-2-2.7c-0.4-0.4-0.9-0.7-1.4-0.9c-0.8-0.4-1.7-0.6-2.7-0.6
			c-0.5,0-0.9,0.1-1.4,0.1c-0.5,0.1-0.9,0.3-1.3,0.5c-1.4,0.6-2.5,1.7-3.2,3c-0.2,0.4-0.4,0.9-0.5,1.4c-0.2,0.6-0.3,1.3-0.3,2
			c0,0.9,0.2,1.7,0.5,2.5c0.2,0.4,0.4,0.9,0.6,1.3C251.7,587.1,252.6,588,253.7,588.5z"/>
		<defs>
			
				<filter id="Adobe_OpacityMaskFilter_00000054968184030562747200000017955141088139074693_" filterUnits="userSpaceOnUse" x="240.2" y="565.6" width="32.8" height="33.4">
				<feColorMatrix  type="matrix" values="1 0 0 0 0  0 1 0 0 0  0 0 1 0 0  0 0 0 1 0"/>
			</filter>
		</defs>
		
			<mask maskUnits="userSpaceOnUse" x="240.2" y="565.6" width="32.8" height="33.4" id="path-29-inside-4_337_7746_00000065076883049674224760000000672009423323997092_">
			<path style="fill:#FFFFFF;filter:url(#Adobe_OpacityMaskFilter_00000054968184030562747200000017955141088139074693_);" d="
				M247.9,578.8c0.1-0.2,0.1-0.4,0.2-0.6c1-2.3,2.9-4.1,5.2-5c0.2-0.1,0.4-0.1,0.6-0.2c0.9-0.3,1.8-0.4,2.8-0.4
				c1.6,0,3.1,0.4,4.3,1.1c0.1,0.1,0.2,0.1,0.3,0.2c2.1,1.2,3.7,3.3,4.3,5.7c0,0,0,0.1,0,0.1c0.2,0.8,0.4,1.7,0.4,2.6
				c0,1.5-0.3,2.9-0.9,4.2c0,0,0,0.1,0,0.1c-1,2.1-2.7,3.8-4.9,4.7c-1.1,0.5-2.3,0.8-3.6,0.8c-1.1,0-2.2-0.2-3.1-0.6
				c-0.1,0-0.1,0-0.2-0.1c-2.2-0.8-4-2.5-5-4.6c-0.1-0.2-0.2-0.4-0.3-0.6c-0.5-1.2-0.8-2.5-0.8-3.8
				C247.2,581,247.4,579.8,247.9,578.8L247.9,578.8z M253.7,588.5c0.6,0.3,1.2,0.5,1.9,0.6c0.4,0.1,0.7,0.1,1,0.1
				c0.6,0,1.1-0.1,1.6-0.2c0.7-0.2,1.4-0.5,2-0.9c0.7-0.5,1.3-1.1,1.8-1.8c0.4-0.6,0.8-1.3,1-2c0.2-0.6,0.3-1.3,0.3-2
				c0-0.2,0-0.3,0-0.5c-0.1-0.8-0.2-1.6-0.5-2.3c-0.4-1.1-1.1-2-2-2.7c-0.4-0.4-0.9-0.7-1.4-0.9c-0.8-0.4-1.7-0.6-2.7-0.6
				c-0.5,0-0.9,0.1-1.4,0.1c-0.5,0.1-0.9,0.3-1.3,0.5c-1.4,0.6-2.5,1.7-3.2,3c-0.2,0.4-0.4,0.9-0.5,1.4c-0.2,0.6-0.3,1.3-0.3,2
				c0,0.9,0.2,1.7,0.5,2.5c0.2,0.4,0.4,0.9,0.6,1.3C251.7,587.1,252.6,588,253.7,588.5z"/>
		</mask>
		<path class="st13" d="M247.9,578.8l6.7,1.9l-13.7-1.9H247.9z M248.1,578.2l6.4,2.9l0,0.1l0,0.1L248.1,578.2z M253.3,573.2l2.8,6.4
			l-0.2,0.1l-0.2,0.1L253.3,573.2z M253.9,573l2.4,6.6l-0.2,0.1l-0.2,0.1L253.9,573z M261,573.7l-3.2,6.2l-0.1-0.1l-0.1-0.1
			L261,573.7z M261.3,573.9l-3.5,6.1l-0.4-0.2l-0.4-0.3L261.3,573.9z M265.7,579.6l6.8-1.8l0.2,0.9v0.9H265.7z M265.7,579.6
			l-6.8,1.8l-0.2-0.9v-0.9H265.7z M265.1,586.4l-5,4.9l-3.4-3.5l2.2-4.4L265.1,586.4z M265.1,586.5l-6.3-2.9l0.5-1.1l0.8-0.8
			L265.1,586.5z M260.3,591.2l-2.9-6.4l0.1,0l0.1,0L260.3,591.2z M253.5,591.4v-7h1.3l1.2,0.4L253.5,591.4z M253.4,591.3l2.5-6.6
			l1.5,0.6l1.1,1.1L253.4,591.3z M248.3,586.7l6.1-3.4l0.1,0.2l0.1,0.2L248.3,586.7z M248,586.1l-6.3,3.1l-0.1-0.2l-0.1-0.2
			L248,586.1z M247.9,578.8l-6.5-2.6l13.5,2.6H247.9z M253.7,588.5l3.1-6.3l0.1,0l0.1,0L253.7,588.5z M258.3,589l-1.7-6.8l0.1,0
			l0.1,0L258.3,589z M260.3,588.1l3.9,5.8l0,0l0,0L260.3,588.1z M262.1,586.3l-5.8-3.9l0.1-0.2l0.1-0.1L262.1,586.3z M263.1,584.3
			l-6.7-1.9l0,0l0,0L263.1,584.3z M263.3,581.8l-6.9,1.1l-0.1-0.3l0-0.3L263.3,581.8z M262.8,579.5l-6.4,2.7l0-0.1l0-0.1
			L262.8,579.5z M260.8,576.8l-4.4,5.5l-0.1,0l-0.1,0L260.8,576.8z M259.4,575.9l-2.7,6.5l0,0l0,0L259.4,575.9z M255.3,575.5
			l-1.7-6.8l0.2,0l0.2,0L255.3,575.5z M253.9,575.9l3.2,6.2l-0.2,0.1l-0.2,0.1L253.9,575.9z M250.7,579l-6.2-3.2l0-0.1l0-0.1
			L250.7,579z M250.2,580.3l-6.8-1.8l0-0.1l0-0.1L250.2,580.3z M250.4,584.8l6.5-2.5l0,0.1l0,0.1L250.4,584.8z M251,586.1l5.8-4
			l0.1,0.1l0.1,0.1L251,586.1z M241.1,576.9c0.2-0.7,0.5-1.3,0.7-1.7l12.6,6.1c0-0.1,0.1-0.1,0.1-0.2c0-0.1,0.1-0.2,0.1-0.4
			L241.1,576.9z M241.7,575.3c1.8-3.9,5-7.1,9.1-8.7l5,13.1c-0.5,0.2-1,0.6-1.4,1.4L241.7,575.3z M250.5,566.8
			c0.7-0.3,1.3-0.5,1.4-0.5l4,13.4c-0.1,0-0.1,0-0.1,0c0,0,0,0,0,0c0.1,0,0.2-0.1,0.3-0.1L250.5,566.8z M251.5,566.4
			c1.7-0.6,3.5-0.9,5.1-0.9v14c-0.1,0-0.3,0-0.3,0c-0.1,0-0.1,0-0.1,0L251.5,566.4z M256.7,565.6c2.7,0,5.4,0.7,7.7,2l-6.8,12.2
			c-0.2-0.1-0.5-0.2-0.9-0.2V565.6z M264.2,567.4c0.1,0,0.7,0.4,1.4,0.9l-8.6,11.1c0.2,0.2,0.5,0.3,0.6,0.4c0.1,0.1,0.2,0.1,0.1,0.1
			L264.2,567.4z M264.8,567.8c3.7,2.2,6.4,5.7,7.6,9.9l-13.5,3.7c-0.2-0.7-0.6-1.2-1.1-1.5L264.8,567.8z M272.7,579.6
			c0-0.6-0.1-1-0.2-1.4c0-0.2-0.1-0.4-0.1-0.5c0-0.2-0.1-0.3-0.1-0.4c0-0.1-0.1-0.2-0.1-0.3c0-0.1-0.1-0.1-0.1-0.2
			c0-0.1,0-0.1-0.1-0.1c0,0,0,0,0,0c0,0,0,0,0,0c0,0,0,0,0,0c0,0,0,0,0,0c0,0,0,0.1,0.1,0.1c0,0.1,0.1,0.1,0.1,0.2s0.1,0.2,0.1,0.3
			c0,0.1,0.1,0.3,0.1,0.4c0,0.2,0.1,0.3,0.1,0.5C272.6,578.6,272.7,579.1,272.7,579.6l-14,0.1c0,0.6,0.1,1,0.2,1.4
			c0,0.2,0.1,0.4,0.1,0.5s0.1,0.3,0.1,0.4c0,0.1,0.1,0.2,0.1,0.3c0,0.1,0.1,0.1,0.1,0.2c0,0.1,0,0.1,0.1,0.1c0,0,0,0,0,0
			c0,0,0,0,0,0c0,0,0,0,0,0c0,0,0,0,0,0c0,0,0-0.1-0.1-0.1c0-0.1-0.1-0.1-0.1-0.2c0-0.1-0.1-0.2-0.1-0.3c0-0.1-0.1-0.3-0.1-0.4
			s-0.1-0.3-0.1-0.5c-0.1-0.4-0.2-0.9-0.2-1.5H272.7z M272.5,577.9c0.3,1.3,0.6,2.8,0.6,4.4h-14c0-0.2,0-0.5-0.1-0.9L272.5,577.9z
			 M273,582.3c0,2.5-0.5,5-1.7,7.2l-12.6-6.2c0.1-0.2,0.2-0.6,0.2-1.1H273z M270.1,581.6c0.9,0.9,1.6,2.1,1.9,3.6
			c0.3,1.4,0.1,2.6-0.2,3.5c-0.3,0.8-0.6,1.5-0.9,1.8c-0.1,0.2-0.3,0.4-0.4,0.5c-0.1,0.1-0.1,0.1-0.2,0.2c0,0-0.1,0.1-0.1,0.1
			c0,0,0,0,0,0c0,0,0,0,0,0c0,0,0,0,0,0c0,0,0,0,0,0c0,0,0,0-5-4.9c-5-4.9-5-4.9-5-4.9c0,0,0,0,0,0c0,0,0,0,0,0c0,0,0,0,0,0
			c0,0,0,0,0,0c0,0-0.1,0.1-0.1,0.1c-0.1,0.1-0.1,0.1-0.2,0.2c-0.1,0.1-0.3,0.3-0.4,0.5c-0.3,0.4-0.6,1-0.9,1.8
			c-0.3,0.9-0.5,2.1-0.2,3.5c0.3,1.5,1,2.6,1.8,3.5L270.1,581.6z M271.5,589.4c-1.7,3.7-4.7,6.6-8.4,8.2l-5.5-12.9
			c0.5-0.2,1-0.7,1.3-1.2L271.5,589.4z M263.2,597.6c-2.1,1-4.3,1.4-6.5,1.4v-14c0.4,0,0.6-0.1,0.7-0.1L263.2,597.6z M256.7,599
			c-1.9,0-3.8-0.3-5.6-1l4.9-13.1c0.2,0.1,0.4,0.1,0.7,0.1V599z M253.5,598.4c-0.9,0-1.9-0.2-3-0.7c-1-0.5-1.8-1.1-2.2-1.6l10.1-9.7
			c-0.4-0.4-1-1-2-1.4c-1-0.5-2-0.6-2.8-0.6V598.4z M250.9,597.9c-3.9-1.5-7-4.4-8.9-8.1l12.6-6.2c0.3,0.5,0.7,0.9,1.2,1.1
			L250.9,597.9z M242.2,590.1c-0.2-0.4-0.4-0.8-0.5-1l12.6-6.1c0.1,0.1,0.1,0.2,0.1,0.3c0,0.1,0,0.1,0,0L242.2,590.1z M241.5,588.8
			c-0.8-2-1.3-4.2-1.3-6.5h14c0,0.4,0.1,0.8,0.2,1.1L241.5,588.8z M240.2,582.3c0-2,0.4-4.1,1.1-6.1l13,5.2
			c-0.1,0.2-0.1,0.5-0.1,0.9H240.2z M254.9,578.8L254.9,578.8l-14,0v0H254.9z M256.9,582.3C256.9,582.3,256.9,582.2,256.9,582.3
			c-0.1,0-0.1,0-0.2-0.1l-2.2,13.8c-1.5-0.2-2.8-0.7-4-1.3L256.9,582.3z M256.7,582.2C256.7,582.2,256.7,582.2,256.7,582.2l-0.1,14
			c-0.7,0-1.4-0.1-2.1-0.2L256.7,582.2z M256.6,582.2c-0.1,0-0.1,0-0.1,0c0,0,0,0,0,0l3.5,13.6c-1,0.3-2.1,0.4-3.4,0.4V582.2z
			 M256.7,582.2c-0.2,0-0.2,0.1-0.3,0.1c0,0,0,0,0,0l7.7,11.7c-1.1,0.8-2.6,1.5-4.3,1.9L256.7,582.2z M256.4,582.3
			C256.4,582.3,256.4,582.3,256.4,582.3c-0.1,0.1-0.1,0.1-0.2,0.2l11.7,7.7c-1,1.5-2.3,2.8-3.7,3.7L256.4,582.3z M256.5,582.1
			c-0.1,0.1-0.1,0.2-0.1,0.2c0,0,0,0,0,0l13.4,3.9c-0.4,1.4-1.1,2.9-2.1,4.2L256.5,582.1z M256.4,582.3
			C256.4,582.3,256.4,582.3,256.4,582.3C256.4,582.3,256.4,582.3,256.4,582.3C256.4,582.3,256.4,582.3,256.4,582.3
			C256.4,582.3,256.4,582.3,256.4,582.3l14,0c0,1.5-0.2,2.8-0.6,4L256.4,582.3z M256.4,582.3C256.4,582.2,256.4,582.2,256.4,582.3
			c0,0.1,0,0.3,0.1,0.6l13.8-2.2c0.1,0.8,0.1,1.5,0.1,1.6H256.4z M256.4,582.2C256.3,582.2,256.3,582.2,256.4,582.2
			C256.3,582.2,256.3,582.2,256.4,582.2C256.4,582.2,256.4,582.2,256.4,582.2l12.9-5.5c0.6,1.4,1,3,1.1,4.6L256.4,582.2z
			 M256.3,582.1C256.3,582.1,256.3,582.2,256.3,582.1c0.1,0.1,0.1,0.1,0.1,0.1l8.8-10.9c1.8,1.4,3.2,3.3,4.1,5.6L256.3,582.1z
			 M256.3,582.2c0,0,0.1,0.1,0.4,0.2l5.4-12.9c1.2,0.5,2.3,1.2,3.2,2L256.3,582.2z M256.6,582.3
			C256.5,582.3,256.5,582.3,256.6,582.3l0.1-14c2,0,3.9,0.5,5.5,1.2L256.6,582.3z M256.6,582.3C256.7,582.3,256.7,582.3,256.6,582.3
			c0,0,0,0-0.1,0l-2.5-13.8c0.7-0.1,1.6-0.3,2.6-0.3V582.3z M256.9,582.3C256.8,582.3,256.8,582.3,256.9,582.3c0,0,0.1,0,0.2-0.1
			l-6.4-12.4c1.1-0.6,2.2-0.9,2.9-1.1L256.9,582.3z M256.8,582.3C256.8,582.3,256.8,582.3,256.8,582.3c0.1-0.1,0.1-0.1,0.1-0.1
			C256.9,582.2,256.9,582.3,256.8,582.3l-12.2-6.7c1.4-2.5,3.6-4.7,6.5-6L256.8,582.3z M256.9,582.2
			C256.9,582.2,256.9,582.2,256.9,582.2C256.9,582.2,256.9,582.2,256.9,582.2C256.9,582.2,256.9,582.2,256.9,582.2l-13.5-3.8
			c0.3-0.9,0.6-1.8,1.1-2.7L256.9,582.2z M256.9,582.1c0,0.2,0,0.2,0,0.2h-14c0-1.4,0.2-2.7,0.5-3.8L256.9,582.1z M256.9,582.3
			C256.9,582.3,256.9,582.3,256.9,582.3C256.9,582.3,256.9,582.3,256.9,582.3C256.9,582.3,256.9,582.3,256.9,582.3
			C256.9,582.3,256.9,582.3,256.9,582.3l-13.1,5c-0.6-1.6-0.9-3.3-0.9-5H256.9z M256.9,582.4c0,0,0-0.1,0-0.1c0,0-0.1-0.1-0.1-0.2
			l-11.5,8c-0.7-1-1.1-1.9-1.5-2.9L256.9,582.4z M256.9,582.3C256.9,582.3,256.9,582.3,256.9,582.3c0,0-0.1-0.1-0.2-0.1l-6.2,12.6
			c-2.3-1.1-4.2-2.9-5.5-4.9L256.9,582.3z"/>
		<path class="st14" d="M193.1,582.4c0,36.4,28.6,66,63.9,66c21.4,0,40.3-10.8,51.9-27.4c7.6-10.9,12.1-24.1,12.1-38.5
			c0-36.4-28.6-66-63.9-66c-24.1,0-45.1,13.8-55.9,34.1C196,559.9,193.1,570.8,193.1,582.4z"/>
		<path class="st15" d="M286.2,542.8c-4.5,7-9.6,13.3-14.9,19.5c-5.2,6.2-10.8,12-16.5,17.7c-5.7,5.6-11.6,11.1-17.8,16.2
			c-6.2,5.2-12.5,10.1-19.4,14.5l9.4,10.5c4.7-6.8,9.9-13,15.4-19c5.4-6,11.1-11.7,17-17.2c5.8-5.5,11.8-10.9,18.1-15.9
			c6.3-5.1,12.7-9.9,19.7-14.2L286.2,542.8L286.2,542.8z"/>
		<path class="st15" d="M250.5,533.1c1.6,8.2,2.4,16.4,2.9,24.6c0.5,8.2,0.6,16.4,0.5,24.6c-0.2,8.2-0.6,16.3-1.5,24.5
			c-0.8,8.2-1.9,16.3-3.8,24.4l13.8,0.5c-1.4-8.2-1.9-16.4-2.1-24.6c-0.3-8.2-0.2-16.4,0.2-24.5c0.3-8.2,0.9-16.3,1.9-24.5
			c0.9-8.2,2.2-16.3,4.2-24.4L250.5,533.1L250.5,533.1z"/>
		<path class="st15" d="M218.6,552.3c6.8,4.6,12.9,9.9,18.9,15.3c6,5.4,11.7,11.1,17.2,17c5.5,5.9,10.7,12,15.7,18.4
			c5,6.3,9.8,12.9,14,20l10.1-9.7c-6.6-4.8-12.6-10.2-18.4-15.9c-5.8-5.6-11.3-11.5-16.7-17.5c-5.4-6-10.6-12.2-15.5-18.7
			c-4.9-6.5-9.6-13.1-13.7-20.4L218.6,552.3L218.6,552.3z"/>
		<path class="st15" d="M209.3,589.1c8-1.7,15.9-2.4,23.9-2.9c7.9-0.5,15.9-0.7,23.8-0.5c7.9,0.2,15.8,0.7,23.7,1.5
			c7.9,0.8,15.8,1.9,23.7,3.9l0.5-14.3c-8,1.4-15.9,1.9-23.9,2.2c-7.9,0.3-15.9,0.2-23.8-0.2c-7.9-0.3-15.8-0.9-23.7-1.9
			c-7.9-1-15.8-2.2-23.7-4.4L209.3,589.1z"/>
		<path class="st16" d="M257.1,530.6c27.7,0,50.3,23.3,50.3,51.8c0,28.6-22.5,51.8-50.3,51.8c-27.7,0-50.3-23.3-50.3-51.8
			C206.8,553.8,229.3,530.6,257.1,530.6z M220.3,609c2.4,3.6,5.3,6.8,8.6,9.5c5.8,4.8,12.7,8.1,20.3,9.5c2.5,0.4,5.1,0.7,7.8,0.7
			c1.6,0,3.3-0.1,4.9-0.3c7.7-0.9,14.8-3.7,20.9-8.1c3.5-2.5,6.6-5.5,9.2-8.9c4.6-6,7.9-13.1,9.2-21c0.5-2.6,0.7-5.3,0.7-8
			c0-1.7-0.1-3.4-0.3-5.1c-0.8-7.6-3.4-14.6-7.3-20.7c-2.7-4.2-6.1-7.9-10-11c-5.3-4.2-11.7-7.3-18.5-8.6c-2.8-0.6-5.8-0.9-8.8-0.9
			c-2,0-4,0.1-5.9,0.4c-7,0.9-13.4,3.5-19,7.4c-4.1,2.8-7.7,6.3-10.7,10.4c-4.1,5.5-7,12-8.4,19.1c-0.6,2.9-0.9,6-0.9,9.1
			c0,2.1,0.1,4.1,0.4,6.1C213.5,596,216.3,603,220.3,609L220.3,609z"/>
		<path class="st17" d="M247.9,578.3c0.1-0.2,0.1-0.4,0.2-0.6c1-2.3,2.9-4.1,5.2-5c0.2-0.1,0.4-0.1,0.6-0.2c0.9-0.3,1.8-0.4,2.8-0.4
			c1.6,0,3.1,0.4,4.3,1.1c0.1,0.1,0.2,0.1,0.3,0.2c2.1,1.2,3.7,3.3,4.3,5.7c0,0,0,0.1,0,0.1c0.2,0.8,0.4,1.7,0.4,2.6
			c0,1.5-0.3,2.9-0.9,4.2c0,0,0,0.1,0,0.1c-1,2.1-2.7,3.8-4.9,4.7c-1.1,0.5-2.3,0.8-3.6,0.8c-1.1,0-2.2-0.2-3.1-0.6
			c-0.1,0-0.1,0-0.2-0.1c-2.2-0.8-4-2.5-5-4.6c-0.1-0.2-0.2-0.4-0.3-0.6c-0.5-1.2-0.8-2.5-0.8-3.8
			C247.2,580.6,247.4,579.4,247.9,578.3L247.9,578.3z M253.7,588c0.6,0.3,1.2,0.5,1.9,0.6c0.4,0.1,0.7,0.1,1,0.1
			c0.6,0,1.1-0.1,1.6-0.2c0.7-0.2,1.4-0.5,2-0.9c0.7-0.5,1.3-1.1,1.8-1.8c0.4-0.6,0.8-1.3,1-2c0.2-0.6,0.3-1.3,0.3-2
			c0-0.2,0-0.3,0-0.5c-0.1-0.8-0.2-1.6-0.5-2.3c-0.4-1.1-1.1-2-2-2.7c-0.4-0.4-0.9-0.7-1.4-0.9c-0.8-0.4-1.7-0.6-2.7-0.6
			c-0.5,0-0.9,0.1-1.4,0.1c-0.5,0.1-0.9,0.2-1.3,0.5c-1.4,0.6-2.5,1.7-3.2,3c-0.2,0.4-0.4,0.9-0.5,1.4c-0.2,0.6-0.3,1.3-0.3,2
			c0,0.9,0.2,1.7,0.5,2.5c0.2,0.4,0.4,0.9,0.6,1.3C251.7,586.6,252.6,587.5,253.7,588z"/>
		<path class="st1" d="M726.2,552.6L726.2,552.6c10.3-19.3,30.2-32.2,52.9-32.2c33.3,0,60.4,27.9,60.4,62.5
			c0,13.7-4.3,26.3-11.4,36.5L726.2,552.6z M726.2,552.6c-4.8,8.9-7.6,19.3-7.6,30.2c0,34.6,27.2,62.5,60.4,62.5 M726.2,552.6
			l52.9,92.7 M779.1,645.3c20.2,0,38-10.2,49-25.9L779.1,645.3z"/>
		<path class="st1" d="M783.6,578.7c4.5-4.1,9-8.1,13.8-11.9c5.2-4.3,10.7-8.4,16.5-12.2l-5.2-5.7c-4,5.7-8.2,11-12.6,16.1
			C792,569.7,787.8,574.3,783.6,578.7z M761.9,600.3c2.4-2.7,4.8-5.2,7.3-7.8c-2.6,2.3-5.2,4.6-7.9,6.8c-5.2,4.4-10.5,8.6-16.3,12.5
			l3.8,4.2C752.9,610.5,757.3,605.3,761.9,600.3z"/>
		<path class="st1" d="M780.9,558.1c0.8-6.8,1.8-13.7,3.3-20.6l-7.5-0.2c1.1,7,1.7,13.9,2.1,20.8c0.4,5.6,0.5,11.1,0.6,16.6
			C779.8,569.1,780.2,563.6,780.9,558.1z M778.6,598.6c-0.2,3-0.5,6-0.8,8.9c-0.7,6.9-1.6,13.8-3,20.7l5.5,0.2
			c-0.9-7-1.3-14-1.5-20.9C778.7,604.6,778.7,601.6,778.6,598.6z"/>
		<path class="st1" d="M795.8,600.4c-2.5-2.4-4.9-4.8-7.2-7.2c2.3,2.7,4.5,5.4,6.6,8.1c4.2,5.3,8.3,10.8,12,16.7l4-3.9
			C805.8,609.8,800.7,605.1,795.8,600.4z M761.9,565.5c4.5,4,8.8,8.2,13,12.5c-4-4.6-7.8-9.3-11.5-14.2c-4.1-5.4-8.1-10.9-11.7-16.9
			l-5.5,5.4C751.7,556.5,756.9,560.9,761.9,565.5z"/>
		<path class="st1" d="M803,583c-4.1,0.2-8.1,0.2-12.1,0.2c4,0.3,8.1,0.6,12.1,1c6.6,0.7,13.3,1.6,19.9,3l0.2-5.8
			C816.4,582.3,809.7,582.8,803,583z M774.6,582.6c-6.5-0.4-13.1-0.9-19.7-1.8c-6.6-0.8-13.2-1.8-19.9-3.4l-0.2,7.9
			c6.7-1.2,13.4-1.8,20-2.2C761.5,582.7,768.1,582.5,774.6,582.6z"/>
		<path class="st5" d="M779.1,531c27.7,0,50.3,23.3,50.3,51.8c0,28.6-22.5,51.8-50.3,51.8c-27.7,0-50.3-23.3-50.3-51.8
			C728.8,554.3,751.3,531,779.1,531z M742.3,609.4c2.4,3.6,5.3,6.8,8.6,9.5c5.8,4.8,12.7,8.1,20.3,9.5c2.5,0.4,5.1,0.7,7.8,0.7
			c1.6,0,3.3-0.1,4.9-0.3c7.7-0.9,14.8-3.7,20.9-8.1c3.5-2.5,6.6-5.5,9.2-8.9c4.6-6,7.9-13.1,9.2-21c0.5-2.6,0.7-5.3,0.7-8
			c0-1.7-0.1-3.4-0.3-5.1c-0.8-7.6-3.4-14.6-7.3-20.7c-2.7-4.2-6.1-7.9-10-11c-5.3-4.2-11.7-7.3-18.5-8.6c-2.8-0.6-5.8-0.9-8.8-0.9
			c-2,0-4,0.1-5.9,0.4c-7,0.9-13.4,3.5-19,7.4c-4.1,2.8-7.7,6.3-10.7,10.4c-4.1,5.5-7,12-8.4,19.1c-0.6,2.9-0.9,6-0.9,9.1
			c0,2.1,0.1,4.1,0.4,6.1C735.5,596.5,738.3,603.5,742.3,609.4L742.3,609.4z"/>
		<defs>
			
				<filter id="Adobe_OpacityMaskFilter_00000074422591416229074350000010018269718711287454_" filterUnits="userSpaceOnUse" x="721.8" y="524" width="114.5" height="117.7">
				<feColorMatrix  type="matrix" values="1 0 0 0 0  0 1 0 0 0  0 0 1 0 0  0 0 0 1 0"/>
			</filter>
		</defs>
		
			<mask maskUnits="userSpaceOnUse" x="721.8" y="524" width="114.5" height="117.7" id="path-43-inside-5_337_7746_00000149355841962129052980000012362850723151372443_">
			<path style="fill:#FFFFFF;filter:url(#Adobe_OpacityMaskFilter_00000074422591416229074350000010018269718711287454_);" d="
				M779.1,531c27.7,0,50.3,23.3,50.3,51.8c0,28.6-22.5,51.8-50.3,51.8c-27.7,0-50.3-23.3-50.3-51.8C728.8,554.3,751.3,531,779.1,531
				z M742.3,609.4c2.4,3.6,5.3,6.8,8.6,9.5c5.8,4.8,12.7,8.1,20.3,9.5c2.5,0.4,5.1,0.7,7.8,0.7c1.6,0,3.3-0.1,4.9-0.3
				c7.7-0.9,14.8-3.7,20.9-8.1c3.5-2.5,6.6-5.5,9.2-8.9c4.6-6,7.9-13.1,9.2-21c0.5-2.6,0.7-5.3,0.7-8c0-1.7-0.1-3.4-0.3-5.1
				c-0.8-7.6-3.4-14.6-7.3-20.7c-2.7-4.2-6.1-7.9-10-11c-5.3-4.2-11.7-7.3-18.5-8.6c-2.8-0.6-5.8-0.9-8.8-0.9c-2,0-4,0.1-5.9,0.4
				c-7,0.9-13.4,3.5-19,7.4c-4.1,2.8-7.7,6.3-10.7,10.4c-4.1,5.5-7,12-8.4,19.1c-0.6,2.9-0.9,6-0.9,9.1c0,2.1,0.1,4.1,0.4,6.1
				C735.5,596.5,738.3,603.5,742.3,609.4L742.3,609.4z"/>
		</mask>
		<path class="st19" d="M742.3,609.4l-5.8,3.9l10.8-8.8L742.3,609.4z M751,619l4.5-5.4l0,0L751,619z M771.3,628.5l-1.2,6.9l0,0
			L771.3,628.5z M783.9,628.9l-0.8-6.9l0,0l0,0L783.9,628.9z M804.8,620.7l-4.1-5.7l0,0l0,0L804.8,620.7z M814.1,611.8l-5.5-4.3l0,0
			L814.1,611.8z M823.3,590.8l-6.9-1.2l0,0l0,0L823.3,590.8z M823.7,577.8l-7,0.8l0,0l0,0L823.7,577.8z M816.3,557.1l-5.9,3.8l0,0
			l0,0L816.3,557.1z M806.3,546.1l4.3-5.5l0,0l0,0L806.3,546.1z M787.8,537.4l-1.4,6.9l0,0l0,0L787.8,537.4z M773.1,537l1,6.9l0,0
			l0,0L773.1,537z M754.1,544.4l4,5.8l0,0l0,0L754.1,544.4z M743.4,554.7l5.6,4.2l0,0l0,0L743.4,554.7z M735,573.8l-6.9-1.3l0,0
			L735,573.8z M734.6,589l6.9-0.9l0,0l0,0L734.6,589z M742.3,609.4l5.8-4l-10.8,8.8L742.3,609.4z M779.1,524
			c31.8,0,57.3,26.6,57.3,58.8h-14c0-24.9-19.6-44.8-43.3-44.8V524z M836.3,582.9c0,32.2-25.5,58.8-57.3,58.8v-14
			c23.6,0,43.3-19.9,43.3-44.8H836.3z M779.1,641.7c-31.8,0-57.3-26.6-57.3-58.8h14c0,24.9,19.6,44.8,43.3,44.8V641.7z M721.8,582.9
			c0-32.2,25.5-58.8,57.3-58.8v14c-23.6,0-43.3,19.9-43.3,44.8H721.8z M748.1,605.5c2.1,3,4.5,5.8,7.3,8.1l-8.9,10.8
			c-3.8-3.2-7.2-6.9-10-11L748.1,605.5z M755.5,613.6c4.9,4,10.7,6.9,17.1,8l-2.5,13.8c-8.8-1.6-16.9-5.5-23.6-11L755.5,613.6z
			 M772.5,621.6c2.2,0.4,4.3,0.6,6.5,0.6v14c-3.1,0-6.1-0.3-9-0.8L772.5,621.6z M779.1,622.2c1.4,0,2.8-0.1,4-0.2l1.7,13.9
			c-1.9,0.2-3.9,0.3-5.7,0.3V622.2z M783.2,621.9c6.5-0.7,12.5-3.1,17.5-6.8l8.2,11.3c-7,5.1-15.3,8.4-24.2,9.4L783.2,621.9z
			 M800.7,615.1c2.9-2.1,5.5-4.7,7.8-7.6l11,8.6c-3,3.9-6.6,7.4-10.7,10.3L800.7,615.1z M808.5,607.5c3.9-5,6.7-11.1,7.8-17.8
			l13.8,2.3c-1.5,9-5.2,17.3-10.6,24.1L808.5,607.5z M816.4,589.6c0.4-2.1,0.6-4.4,0.6-6.7h14c0,3.1-0.2,6.2-0.8,9.2L816.4,589.6z
			 M816.9,582.8c0-1.5-0.1-2.9-0.2-4.3l13.9-1.6c0.2,2,0.3,3.9,0.3,5.9H816.9z M816.7,578.5c-0.7-6.5-2.9-12.5-6.2-17.6l11.7-7.7
			c4.5,7,7.5,15,8.4,23.7L816.7,578.5z M810.5,560.9c-2.3-3.6-5.2-6.7-8.5-9.4l8.7-11c4.5,3.6,8.4,7.8,11.6,12.7L810.5,560.9z
			 M802,551.6c-4.5-3.6-9.8-6.1-15.5-7.3l2.8-13.7c8,1.6,15.3,5.1,21.5,10L802,551.6z M786.4,544.3c-2.4-0.5-4.8-0.7-7.3-0.7v-14
			c3.5,0,6.9,0.3,10.2,1L786.4,544.3z M779.1,543.6c-1.7,0-3.3,0.1-4.9,0.3l-2-13.9c2.3-0.3,4.6-0.5,6.9-0.5V543.6z M774.1,543.9
			c-5.8,0.8-11.2,3-15.9,6.2l-8-11.5c6.4-4.5,13.9-7.5,22-8.6L774.1,543.9z M758.1,550.1c-3.5,2.4-6.5,5.4-9.1,8.8l-11.2-8.3
			c3.4-4.6,7.6-8.7,12.4-12L758.1,550.1z M749.1,558.9c-3.5,4.7-6,10.2-7.1,16.2l-13.7-2.7c1.6-8.1,4.9-15.6,9.7-21.9L749.1,558.9z
			 M741.9,575.1c-0.5,2.5-0.7,5.1-0.7,7.7h-14c0-3.5,0.3-7,1-10.4L741.9,575.1z M741.2,582.9c0,1.8,0.1,3.5,0.3,5.1l-13.9,1.9
			c-0.3-2.3-0.5-4.6-0.5-7H741.2z M741.5,588.1c0.8,6.4,3.1,12.3,6.6,17.4l-11.6,7.9c-4.7-6.9-7.8-14.9-8.9-23.6L741.5,588.1z
			 M737.3,614.3L737.3,614.3l10-9.8l0,0L737.3,614.3z"/>
		<path class="st5" d="M769.9,578.8c0.1-0.2,0.1-0.4,0.2-0.6c1-2.3,2.9-4.1,5.2-5c0.2-0.1,0.4-0.1,0.6-0.2c0.9-0.3,1.8-0.4,2.8-0.4
			c1.6,0,3.1,0.4,4.3,1.1c0.1,0.1,0.2,0.1,0.3,0.2c2.1,1.2,3.7,3.3,4.3,5.7c0,0,0,0.1,0,0.1c0.2,0.8,0.4,1.7,0.4,2.6
			c0,1.5-0.3,2.9-0.9,4.2c0,0,0,0.1,0,0.1c-1,2.1-2.7,3.8-4.9,4.7c-1.1,0.5-2.3,0.8-3.6,0.8c-1.1,0-2.2-0.2-3.1-0.6
			c-0.1,0-0.1,0-0.2-0.1c-2.2-0.8-4-2.5-5-4.6c-0.1-0.2-0.2-0.4-0.3-0.6c-0.5-1.2-0.8-2.5-0.8-3.8
			C769.2,581,769.4,579.8,769.9,578.8L769.9,578.8z M775.7,588.5c0.6,0.3,1.2,0.5,1.9,0.6c0.4,0.1,0.7,0.1,1,0.1
			c0.6,0,1.1-0.1,1.6-0.2c0.7-0.2,1.4-0.5,2-0.9c0.7-0.5,1.3-1.1,1.8-1.8c0.4-0.6,0.8-1.3,1-2c0.2-0.6,0.3-1.3,0.3-2
			c0-0.2,0-0.3,0-0.5c-0.1-0.8-0.2-1.6-0.5-2.3c-0.4-1.1-1.1-2-2-2.7c-0.4-0.4-0.9-0.7-1.4-0.9c-0.8-0.4-1.7-0.6-2.7-0.6
			c-0.5,0-0.9,0.1-1.4,0.1c-0.5,0.1-0.9,0.3-1.3,0.5c-1.4,0.6-2.5,1.7-3.2,3c-0.2,0.4-0.4,0.9-0.5,1.4c-0.2,0.6-0.3,1.3-0.3,2
			c0,0.9,0.2,1.7,0.5,2.5c0.2,0.4,0.4,0.9,0.6,1.3C773.7,587.1,774.6,588,775.7,588.5z"/>
		<defs>
			
				<filter id="Adobe_OpacityMaskFilter_00000116196307830116121450000008078610956627979173_" filterUnits="userSpaceOnUse" x="762.2" y="565.6" width="32.8" height="33.4">
				<feColorMatrix  type="matrix" values="1 0 0 0 0  0 1 0 0 0  0 0 1 0 0  0 0 0 1 0"/>
			</filter>
		</defs>
		
			<mask maskUnits="userSpaceOnUse" x="762.2" y="565.6" width="32.8" height="33.4" id="path-45-inside-6_337_7746_00000014609452474676522790000004195229553229106343_">
			<path style="fill:#FFFFFF;filter:url(#Adobe_OpacityMaskFilter_00000116196307830116121450000008078610956627979173_);" d="
				M769.9,578.8c0.1-0.2,0.1-0.4,0.2-0.6c1-2.3,2.9-4.1,5.2-5c0.2-0.1,0.4-0.1,0.6-0.2c0.9-0.3,1.8-0.4,2.8-0.4
				c1.6,0,3.1,0.4,4.3,1.1c0.1,0.1,0.2,0.1,0.3,0.2c2.1,1.2,3.7,3.3,4.3,5.7c0,0,0,0.1,0,0.1c0.2,0.8,0.4,1.7,0.4,2.6
				c0,1.5-0.3,2.9-0.9,4.2c0,0,0,0.1,0,0.1c-1,2.1-2.7,3.8-4.9,4.7c-1.1,0.5-2.3,0.8-3.6,0.8c-1.1,0-2.2-0.2-3.1-0.6
				c-0.1,0-0.1,0-0.2-0.1c-2.2-0.8-4-2.5-5-4.6c-0.1-0.2-0.2-0.4-0.3-0.6c-0.5-1.2-0.8-2.5-0.8-3.8
				C769.2,581,769.4,579.8,769.9,578.8L769.9,578.8z M775.7,588.5c0.6,0.3,1.2,0.5,1.9,0.6c0.4,0.1,0.7,0.1,1,0.1
				c0.6,0,1.1-0.1,1.6-0.2c0.7-0.2,1.4-0.5,2-0.9c0.7-0.5,1.3-1.1,1.8-1.8c0.4-0.6,0.8-1.3,1-2c0.2-0.6,0.3-1.3,0.3-2
				c0-0.2,0-0.3,0-0.5c-0.1-0.8-0.2-1.6-0.5-2.3c-0.4-1.1-1.1-2-2-2.7c-0.4-0.4-0.9-0.7-1.4-0.9c-0.8-0.4-1.7-0.6-2.7-0.6
				c-0.5,0-0.9,0.1-1.4,0.1c-0.5,0.1-0.9,0.3-1.3,0.5c-1.4,0.6-2.5,1.7-3.2,3c-0.2,0.4-0.4,0.9-0.5,1.4c-0.2,0.6-0.3,1.3-0.3,2
				c0,0.9,0.2,1.7,0.5,2.5c0.2,0.4,0.4,0.9,0.6,1.3C773.7,587.1,774.6,588,775.7,588.5z"/>
		</mask>
		<path class="st21" d="M769.9,578.8l6.7,1.9l-13.7-1.9H769.9z M770.1,578.2l6.4,2.9l0,0.1l0,0.1L770.1,578.2z M775.3,573.2l2.8,6.4
			l-0.2,0.1l-0.2,0.1L775.3,573.2z M775.9,573l2.4,6.6l-0.2,0.1l-0.2,0.1L775.9,573z M783,573.7l-3.2,6.2l-0.1-0.1l-0.1-0.1
			L783,573.7z M783.3,573.9l-3.5,6.1l-0.4-0.2l-0.4-0.3L783.3,573.9z M787.7,579.6l6.8-1.8l0.2,0.9v0.9H787.7z M787.7,579.6
			l-6.8,1.8l-0.2-0.9v-0.9H787.7z M787.1,586.4l-5,4.9l-3.4-3.5l2.2-4.4L787.1,586.4z M787.1,586.5l-6.3-2.9l0.5-1.1l0.8-0.8
			L787.1,586.5z M782.3,591.2l-2.9-6.4l0.1,0l0.1,0L782.3,591.2z M775.5,591.4v-7h1.3l1.2,0.4L775.5,591.4z M775.4,591.3l2.5-6.6
			l1.5,0.6l1.1,1.1L775.4,591.3z M770.3,586.7l6.1-3.4l0.1,0.2l0.1,0.2L770.3,586.7z M770,586.1l-6.3,3.1l-0.1-0.2l-0.1-0.2
			L770,586.1z M769.9,578.8l-6.5-2.6l13.5,2.6H769.9z M775.7,588.5l3.1-6.3l0.1,0l0.1,0L775.7,588.5z M780.3,589l-1.7-6.8l0.1,0
			l0.1,0L780.3,589z M782.3,588.1l3.9,5.8l0,0l0,0L782.3,588.1z M784.1,586.3l-5.8-3.9l0.1-0.2l0.1-0.1L784.1,586.3z M785.1,584.3
			l-6.7-1.9l0,0l0,0L785.1,584.3z M785.3,581.8l-6.9,1.1l-0.1-0.3l0-0.3L785.3,581.8z M784.8,579.5l-6.4,2.7l0-0.1l0-0.1
			L784.8,579.5z M782.8,576.8l-4.4,5.5l-0.1,0l-0.1,0L782.8,576.8z M781.4,575.9l-2.7,6.5l0,0l0,0L781.4,575.9z M777.3,575.5
			l-1.7-6.8l0.2,0l0.2,0L777.3,575.5z M775.9,575.9l3.2,6.2l-0.2,0.1l-0.2,0.1L775.9,575.9z M772.7,579l-6.2-3.2l0-0.1l0-0.1
			L772.7,579z M772.2,580.3l-6.8-1.8l0-0.1l0-0.1L772.2,580.3z M772.4,584.8l6.5-2.5l0,0.1l0,0.1L772.4,584.8z M773,586.1l5.8-4
			l0.1,0.1l0.1,0.1L773,586.1z M763.1,576.9c0.2-0.7,0.5-1.3,0.7-1.7l12.6,6.1c0-0.1,0.1-0.1,0.1-0.2c0-0.1,0.1-0.2,0.1-0.4
			L763.1,576.9z M763.7,575.3c1.8-3.9,5-7.1,9.1-8.7l5,13.1c-0.5,0.2-1,0.6-1.4,1.4L763.7,575.3z M772.5,566.8
			c0.7-0.3,1.3-0.5,1.4-0.5l4,13.4c-0.1,0-0.1,0-0.1,0c0,0,0,0,0,0c0.1,0,0.2-0.1,0.3-0.1L772.5,566.8z M773.5,566.4
			c1.7-0.6,3.5-0.9,5.1-0.9v14c-0.1,0-0.3,0-0.3,0c-0.1,0-0.1,0-0.1,0L773.5,566.4z M778.7,565.6c2.7,0,5.4,0.7,7.7,2l-6.8,12.2
			c-0.2-0.1-0.5-0.2-0.9-0.2V565.6z M786.2,567.4c0.1,0,0.7,0.4,1.4,0.9l-8.6,11.1c0.2,0.2,0.5,0.3,0.6,0.4c0.1,0.1,0.2,0.1,0.1,0.1
			L786.2,567.4z M786.8,567.8c3.7,2.2,6.4,5.7,7.6,9.9l-13.5,3.7c-0.2-0.7-0.6-1.2-1.1-1.5L786.8,567.8z M794.7,579.6
			c0-0.6-0.1-1-0.2-1.4c0-0.2-0.1-0.4-0.1-0.5c0-0.2-0.1-0.3-0.1-0.4c0-0.1-0.1-0.2-0.1-0.3c0-0.1-0.1-0.1-0.1-0.2
			c0-0.1,0-0.1-0.1-0.1c0,0,0,0,0,0c0,0,0,0,0,0c0,0,0,0,0,0c0,0,0,0,0,0c0,0,0,0.1,0.1,0.1c0,0.1,0.1,0.1,0.1,0.2
			c0,0.1,0.1,0.2,0.1,0.3c0,0.1,0.1,0.3,0.1,0.4c0,0.2,0.1,0.3,0.1,0.5C794.6,578.6,794.7,579.1,794.7,579.6l-14,0.1
			c0,0.6,0.1,1,0.2,1.4c0,0.2,0.1,0.4,0.1,0.5c0,0.2,0.1,0.3,0.1,0.4c0,0.1,0.1,0.2,0.1,0.3c0,0.1,0.1,0.1,0.1,0.2
			c0,0.1,0,0.1,0.1,0.1c0,0,0,0,0,0c0,0,0,0,0,0c0,0,0,0,0,0c0,0,0,0,0,0c0,0,0-0.1-0.1-0.1c0-0.1-0.1-0.1-0.1-0.2
			c0-0.1-0.1-0.2-0.1-0.3c0-0.1-0.1-0.3-0.1-0.4s-0.1-0.3-0.1-0.5c-0.1-0.4-0.2-0.9-0.2-1.5H794.7z M794.5,577.9
			c0.3,1.3,0.6,2.8,0.6,4.4h-14c0-0.2,0-0.5-0.1-0.9L794.5,577.9z M795,582.3c0,2.5-0.5,5-1.7,7.2l-12.6-6.2
			c0.1-0.2,0.2-0.6,0.2-1.1H795z M792.1,581.6c0.9,0.9,1.6,2.1,1.9,3.6c0.3,1.4,0.1,2.6-0.2,3.5c-0.3,0.8-0.6,1.5-0.9,1.8
			c-0.1,0.2-0.3,0.4-0.4,0.5c-0.1,0.1-0.1,0.1-0.2,0.2c0,0-0.1,0.1-0.1,0.1c0,0,0,0,0,0c0,0,0,0,0,0c0,0,0,0,0,0c0,0,0,0,0,0
			c0,0,0,0-5-4.9c-5-4.9-5-4.9-5-4.9c0,0,0,0,0,0c0,0,0,0,0,0c0,0,0,0,0,0c0,0,0,0,0,0c0,0-0.1,0.1-0.1,0.1
			c-0.1,0.1-0.1,0.1-0.2,0.2c-0.1,0.1-0.3,0.3-0.4,0.5c-0.3,0.4-0.6,1-0.9,1.8c-0.3,0.9-0.5,2.1-0.2,3.5c0.3,1.5,1,2.6,1.8,3.5
			L792.1,581.6z M793.5,589.4c-1.7,3.7-4.7,6.6-8.4,8.2l-5.5-12.9c0.5-0.2,1-0.7,1.3-1.2L793.5,589.4z M785.2,597.6
			c-2.1,1-4.3,1.4-6.5,1.4v-14c0.4,0,0.6-0.1,0.7-0.1L785.2,597.6z M778.7,599c-1.9,0-3.8-0.3-5.6-1l4.9-13.1
			c0.2,0.1,0.4,0.1,0.7,0.1V599z M775.5,598.4c-0.9,0-1.9-0.2-3-0.7c-1-0.5-1.8-1.1-2.2-1.6l10.1-9.7c-0.4-0.4-1-1-2-1.4
			c-1-0.5-2-0.6-2.8-0.6V598.4z M772.9,597.9c-3.9-1.5-7-4.4-8.9-8.1l12.6-6.2c0.3,0.5,0.7,0.9,1.2,1.1L772.9,597.9z M764.2,590.1
			c-0.2-0.4-0.4-0.8-0.5-1l12.6-6.1c0.1,0.1,0.1,0.2,0.1,0.3c0,0.1,0,0.1,0,0L764.2,590.1z M763.5,588.8c-0.8-2-1.3-4.2-1.3-6.5h14
			c0,0.4,0.1,0.8,0.2,1.1L763.5,588.8z M762.2,582.3c0-2,0.4-4.1,1.1-6.1l13,5.2c-0.1,0.2-0.1,0.5-0.1,0.9H762.2z M776.9,578.8
			L776.9,578.8l-14,0v0H776.9z M778.9,582.3C778.9,582.3,778.9,582.2,778.9,582.3c-0.1,0-0.1,0-0.2-0.1l-2.2,13.8
			c-1.5-0.2-2.8-0.7-4-1.3L778.9,582.3z M778.7,582.2C778.7,582.2,778.7,582.2,778.7,582.2l-0.1,14c-0.7,0-1.4-0.1-2.1-0.2
			L778.7,582.2z M778.6,582.2c-0.1,0-0.1,0-0.1,0c0,0,0,0,0,0l3.5,13.6c-1,0.3-2.1,0.4-3.4,0.4V582.2z M778.7,582.2
			c-0.2,0-0.2,0.1-0.3,0.1c0,0,0,0,0,0l7.7,11.7c-1.1,0.8-2.6,1.5-4.3,1.9L778.7,582.2z M778.4,582.3
			C778.4,582.3,778.4,582.3,778.4,582.3c-0.1,0.1-0.1,0.1-0.2,0.2l11.7,7.7c-1,1.5-2.3,2.8-3.7,3.7L778.4,582.3z M778.5,582.1
			c-0.1,0.1-0.1,0.2-0.1,0.2c0,0,0,0,0,0l13.4,3.9c-0.4,1.4-1.1,2.9-2.1,4.2L778.5,582.1z M778.4,582.3
			C778.4,582.3,778.4,582.3,778.4,582.3C778.4,582.3,778.4,582.3,778.4,582.3C778.4,582.3,778.4,582.3,778.4,582.3
			C778.4,582.3,778.4,582.3,778.4,582.3l14,0c0,1.5-0.2,2.8-0.6,4L778.4,582.3z M778.4,582.3C778.4,582.2,778.4,582.2,778.4,582.3
			c0,0.1,0,0.3,0.1,0.6l13.8-2.2c0.1,0.8,0.1,1.5,0.1,1.6H778.4z M778.3,582.2C778.3,582.2,778.3,582.2,778.3,582.2
			C778.3,582.2,778.3,582.2,778.3,582.2C778.3,582.2,778.4,582.2,778.3,582.2l12.9-5.5c0.6,1.4,1,3,1.1,4.6L778.3,582.2z
			 M778.3,582.1C778.3,582.1,778.3,582.2,778.3,582.1c0.1,0.1,0.1,0.1,0.1,0.1l8.8-10.9c1.8,1.4,3.2,3.3,4.1,5.6L778.3,582.1z
			 M778.3,582.2c0,0,0.1,0.1,0.4,0.2l5.4-12.9c1.2,0.5,2.3,1.2,3.2,2L778.3,582.2z M778.6,582.3
			C778.5,582.3,778.5,582.3,778.6,582.3l0.1-14c2,0,3.9,0.5,5.5,1.2L778.6,582.3z M778.6,582.3C778.7,582.3,778.7,582.3,778.6,582.3
			c0,0,0,0-0.1,0l-2.5-13.8c0.7-0.1,1.6-0.3,2.6-0.3V582.3z M778.9,582.3C778.8,582.3,778.8,582.3,778.9,582.3c0,0,0.1,0,0.2-0.1
			l-6.4-12.4c1.1-0.6,2.2-0.9,2.9-1.1L778.9,582.3z M778.8,582.3C778.8,582.3,778.8,582.3,778.8,582.3c0.1-0.1,0.1-0.1,0.1-0.1
			C778.9,582.2,778.9,582.3,778.8,582.3l-12.2-6.7c1.4-2.5,3.6-4.7,6.5-6L778.8,582.3z M778.9,582.2
			C778.9,582.2,778.9,582.2,778.9,582.2C778.9,582.2,778.9,582.2,778.9,582.2C778.9,582.2,778.9,582.2,778.9,582.2l-13.5-3.8
			c0.3-0.9,0.6-1.8,1.1-2.7L778.9,582.2z M778.9,582.1c0,0.2,0,0.2,0,0.2h-14c0-1.4,0.2-2.7,0.5-3.8L778.9,582.1z M778.9,582.3
			C778.9,582.3,778.9,582.3,778.9,582.3C778.9,582.3,778.9,582.3,778.9,582.3C778.9,582.3,778.9,582.3,778.9,582.3
			C778.9,582.3,778.9,582.3,778.9,582.3l-13.1,5c-0.6-1.6-0.9-3.3-0.9-5H778.9z M778.9,582.4c0,0,0-0.1,0-0.1c0,0-0.1-0.1-0.1-0.2
			l-11.5,8c-0.7-1-1.1-1.9-1.5-2.9L778.9,582.4z M778.9,582.3C778.9,582.3,778.9,582.3,778.9,582.3c0,0-0.1-0.1-0.2-0.1l-6.2,12.6
			c-2.3-1.1-4.2-2.9-5.5-4.9L778.9,582.3z"/>
		<path class="st14" d="M715.1,582.4c0,36.4,28.6,66,63.9,66c21.4,0,40.3-10.8,51.9-27.4c7.6-10.9,12.1-24.1,12.1-38.5
			c0-36.4-28.6-66-63.9-66c-24.1,0-45.1,13.8-55.9,34.1C718,559.9,715.1,570.8,715.1,582.4z"/>
		<path class="st15" d="M808.2,542.8c-4.5,7-9.6,13.3-14.9,19.5c-5.2,6.2-10.8,12-16.5,17.7c-5.7,5.6-11.6,11.1-17.8,16.2
			c-6.2,5.2-12.5,10.1-19.4,14.5l9.4,10.5c4.7-6.8,9.9-13,15.4-19c5.4-6,11.1-11.7,17-17.2c5.8-5.5,11.8-10.9,18.1-15.9
			c6.3-5.1,12.7-9.9,19.7-14.2L808.2,542.8L808.2,542.8z"/>
		<path class="st15" d="M772.5,533.1c1.6,8.2,2.4,16.4,2.9,24.6c0.5,8.2,0.6,16.4,0.5,24.6c-0.2,8.2-0.6,16.3-1.5,24.5
			c-0.8,8.2-1.9,16.3-3.8,24.4l13.8,0.5c-1.4-8.2-1.9-16.4-2.1-24.6c-0.3-8.2-0.2-16.4,0.2-24.5c0.3-8.2,0.9-16.3,1.9-24.5
			c0.9-8.2,2.2-16.3,4.2-24.4L772.5,533.1L772.5,533.1z"/>
		<path class="st15" d="M740.6,552.3c6.8,4.6,12.9,9.9,18.9,15.3c6,5.4,11.7,11.1,17.2,17c5.5,5.9,10.7,12,15.7,18.4
			c5,6.3,9.8,12.9,14,20l10.1-9.7c-6.6-4.8-12.6-10.2-18.4-15.9c-5.8-5.6-11.3-11.5-16.7-17.5c-5.4-6-10.6-12.2-15.5-18.7
			c-4.9-6.5-9.6-13.1-13.7-20.4L740.6,552.3L740.6,552.3z"/>
		<path class="st15" d="M731.3,589.1c8-1.7,15.9-2.4,23.9-2.9c7.9-0.5,15.9-0.7,23.8-0.5c7.9,0.2,15.8,0.7,23.7,1.5
			c7.9,0.8,15.8,1.9,23.7,3.9l0.5-14.3c-8,1.4-15.9,1.9-23.9,2.2c-7.9,0.3-15.9,0.2-23.8-0.2c-7.9-0.3-15.8-0.9-23.7-1.9
			c-7.9-1-15.8-2.2-23.7-4.4L731.3,589.1z"/>
		<path class="st16" d="M779.1,530.6c27.7,0,50.3,23.3,50.3,51.8c0,28.6-22.5,51.8-50.3,51.8c-27.7,0-50.3-23.3-50.3-51.8
			C728.8,553.8,751.3,530.6,779.1,530.6z M742.3,609c2.4,3.6,5.3,6.8,8.6,9.5c5.8,4.8,12.7,8.1,20.3,9.5c2.5,0.4,5.1,0.7,7.8,0.7
			c1.6,0,3.3-0.1,4.9-0.3c7.7-0.9,14.8-3.7,20.9-8.1c3.5-2.5,6.6-5.5,9.2-8.9c4.6-6,7.9-13.1,9.2-21c0.5-2.6,0.7-5.3,0.7-8
			c0-1.7-0.1-3.4-0.3-5.1c-0.8-7.6-3.4-14.6-7.3-20.7c-2.7-4.2-6.1-7.9-10-11c-5.3-4.2-11.7-7.3-18.5-8.6c-2.8-0.6-5.8-0.9-8.8-0.9
			c-2,0-4,0.1-5.9,0.4c-7,0.9-13.4,3.5-19,7.4c-4.1,2.8-7.7,6.3-10.7,10.4c-4.1,5.5-7,12-8.4,19.1c-0.6,2.9-0.9,6-0.9,9.1
			c0,2.1,0.1,4.1,0.4,6.1C735.5,596,738.3,603,742.3,609L742.3,609z"/>
		<path class="st17" d="M769.9,578.3c0.1-0.2,0.1-0.4,0.2-0.6c1-2.3,2.9-4.1,5.2-5c0.2-0.1,0.4-0.1,0.6-0.2c0.9-0.3,1.8-0.4,2.8-0.4
			c1.6,0,3.1,0.4,4.3,1.1c0.1,0.1,0.2,0.1,0.3,0.2c2.1,1.2,3.7,3.3,4.3,5.7c0,0,0,0.1,0,0.1c0.2,0.8,0.4,1.7,0.4,2.6
			c0,1.5-0.3,2.9-0.9,4.2c0,0,0,0.1,0,0.1c-1,2.1-2.7,3.8-4.9,4.7c-1.1,0.5-2.3,0.8-3.6,0.8c-1.1,0-2.2-0.2-3.1-0.6
			c-0.1,0-0.1,0-0.2-0.1c-2.2-0.8-4-2.5-5-4.6c-0.1-0.2-0.2-0.4-0.3-0.6c-0.5-1.2-0.8-2.5-0.8-3.8
			C769.2,580.6,769.4,579.4,769.9,578.3L769.9,578.3z M775.7,588c0.6,0.3,1.2,0.5,1.9,0.6c0.4,0.1,0.7,0.1,1,0.1
			c0.6,0,1.1-0.1,1.6-0.2c0.7-0.2,1.4-0.5,2-0.9c0.7-0.5,1.3-1.1,1.8-1.8c0.4-0.6,0.8-1.3,1-2c0.2-0.6,0.3-1.3,0.3-2
			c0-0.2,0-0.3,0-0.5c-0.1-0.8-0.2-1.6-0.5-2.3c-0.4-1.1-1.1-2-2-2.7c-0.4-0.4-0.9-0.7-1.4-0.9c-0.8-0.4-1.7-0.6-2.7-0.6
			c-0.5,0-0.9,0.1-1.4,0.1c-0.5,0.1-0.9,0.2-1.3,0.5c-1.4,0.6-2.5,1.7-3.2,3c-0.2,0.4-0.4,0.9-0.5,1.4c-0.2,0.6-0.3,1.3-0.3,2
			c0,0.9,0.2,1.7,0.5,2.5c0.2,0.4,0.4,0.9,0.6,1.3C773.7,586.6,774.6,587.5,775.7,588z"/>
		<path class="st22" d="M893.3,574.3c-0.3,1.3-0.6,2.5-0.9,3.8c7.1,0.3,14.3-0.4,21.3-2.3c1.6-7.4,3.7-19.4,3.8-33.2
			c-4.3,1.4-8.6,3.1-12.8,5.1l0,0c-1.3,0.6-2.7,2-4.1,4.2c-1.4,2.3-2.6,5.2-3.6,8.6C895.5,564.9,894.4,569.6,893.3,574.3z"/>
		<path class="st1" d="M635.6,415c-5.8,6.4-10.4,14-13.7,22.1c11.6,3.1,23.6,4.3,34.2,0.7c1.9-4.3,0.7-10.3-2.8-14.6
			c-3.7-4.5-9.3-7.2-15.4-9C637.3,414,636.3,414.2,635.6,415L635.6,415z"/>
		<path class="st1" d="M491.4,462.9c0,0-0.1,0.2-0.1,0.5l0,0.3l0,0.2c0.1,0.6,0.4,1.2,1.5,1.8c1.2,0.7,2.5,0.9,3,1c0,0,0,0,0,0l0,0
			c4.4,0.3,12.1,0.9,18.9,1.3c3.4,0.2,6.6,0.4,9,0.4c1.2,0,2.2,0.1,3,0c0.4,0,0.6,0,0.8,0c0,0,0.1,0,0.1,0c0.7-0.2,1.3-0.6,1.7-1
			c0.2-0.3,0.4-0.5,0.4-0.7l0,0l0,0c0-0.1,0.1-0.5-0.2-1c-0.2-0.5-0.5-0.6-0.5-0.7c0,0,0,0,0,0l0,0l0,0c0,0,0,0-0.1,0
			c-0.2,0-0.5-0.1-1.2-0.2c-1-0.1-2.2-0.3-3.8-0.4c-3.1-0.3-7-0.6-11.1-0.8c-8.2-0.5-16.9-1-20.2-1.1l0,0c-0.1,0-0.3,0-0.5,0.1
			c-0.2,0.1-0.4,0.1-0.5,0.2C491.4,462.8,491.4,462.8,491.4,462.9z M527.7,468.4C527.7,468.4,527.7,468.4,527.7,468.4
			C527.7,468.4,527.7,468.4,527.7,468.4z"/>
	</g>
</g>
</svg>
