<?xml version="1.0" encoding="utf-8"?>
<!-- Generator: Adobe Illustrator 26.3.1, SVG Export Plug-In . SVG Version: 6.00 Build 0)  -->
<svg version="1.1" id="Layer_1" xmlns="http://www.w3.org/2000/svg" xmlns:xlink="http://www.w3.org/1999/xlink" x="0px" y="0px"
	 viewBox="0 0 1024 868" style="enable-background:new 0 0 1024 868;" xml:space="preserve">
<style type="text/css">
	.st0{fill:#F1F5F8;}
	.st1{fill:#303B43;}
	.st2{fill:#FFFFFF;filter:url(#Adobe_OpacityMaskFilter);}
	.st3{mask:url(#path-4-inside-1_507_1021_00000124138971536485518450000011927847141724058546_);fill:#263238;}
	.st4{fill:none;stroke:#263238;stroke-width:7;}
	.st5{fill:#394249;}
	.st6{fill:#3D3D3D;}
	.st7{fill:#E6E6E6;}
	.st8{fill:#CAD8E1;}
	.st9{fill:#394249;stroke:#263238;stroke-width:7;}
	.st10{fill:none;stroke:#263238;stroke-width:5;}
	.st11{fill:#FFFFFF;filter:url(#Adobe_OpacityMaskFilter_00000062160046622387155620000001682289575251186323_);}
	.st12{mask:url(#path-46-inside-2_507_1021_00000109023198612472638650000002384617854500812188_);fill:#263238;}
	.st13{fill:#263238;}
	.st14{fill:#FFFFFF;filter:url(#Adobe_OpacityMaskFilter_00000173123259840090300030000004540971317165948073_);}
	.st15{mask:url(#path-49-inside-3_507_1021_00000156553483216149097890000001942916114926803626_);fill:#263238;}
	.st16{fill:#EBEBEB;}
</style>
<g>
	<circle class="st0" cx="507.4" cy="422.4" r="345"/>
	<path class="st1" d="M199.1,582.4v5.4l2.4,1.6c6.8,4.6,14.8,7.1,23,7.1H301l35.3,10.5h78.2c6.1,0,12-2.4,16.3-6.8h38.4
		c5.6,5.6,13.2,8.7,21.1,8.7h127.8c4.8,0,9.3-1.9,12.7-5.2h39.3c5.4,5.4,12.7,8.4,20.2,8.4h112.4l12.7-12.7h65
		c6.1,0,11.9-2.4,16.2-6.7l-8.2-8.4L199.1,582.4z"/>
	<defs>
		<filter id="Adobe_OpacityMaskFilter" filterUnits="userSpaceOnUse" x="87.8" y="454.6" width="65.8" height="40.7">
			<feColorMatrix  type="matrix" values="1 0 0 0 0  0 1 0 0 0  0 0 1 0 0  0 0 0 1 0"/>
		</filter>
	</defs>
	
		<mask maskUnits="userSpaceOnUse" x="87.8" y="454.6" width="65.8" height="40.7" id="path-4-inside-1_507_1021_00000124138971536485518450000011927847141724058546_">
		<path class="st2" d="M100,488.3h5.5h5.5l40.6-11.4l-10.1-2.1c-14.9-3.1-29.5-7.5-43.6-13.2h-7.3"/>
	</mask>
	<path class="st3" d="M97.9,471.9l3.3-1.1l-0.2-0.5l-0.3-0.4L97.9,471.9z M101.4,482.9l3.4,0.9l0.3-1l-0.3-1L101.4,482.9z
		 M87.8,463.6L95,474l5.7-4l-7.3-10.4L87.8,463.6z M94.6,473l3.5,11l6.7-2.1l-3.5-11L94.6,473z M98.1,482.1l-1.4,5.3l6.8,1.8
		l1.4-5.3L98.1,482.1z M111,488.3v7h1l0.9-0.3L111,488.3z M151.6,476.8l1.9,6.7l-0.5-13.6L151.6,476.8z M141.5,474.7l-1.4,6.9h0
		L141.5,474.7z M97.9,461.6l2.6-6.5l-1.2-0.5h-1.3V461.6z M112.9,495l40.6-11.4l-3.8-13.5l-40.6,11.4L112.9,495z M153.1,470
		l-10.1-2.1l-2.9,13.7l10.1,2.1L153.1,470z M143,467.9c-14.5-3-28.7-7.3-42.5-12.8l-5.2,13c14.5,5.8,29.5,10.3,44.8,13.5L143,467.9z
		 M97.9,454.6h-7.3v14h7.3V454.6z M100,495.3h5.5v-14H100V495.3z M105.5,495.3h5.5v-14h-5.5V495.3z"/>
	<path class="st4" d="M934,514.6v-1.9v-0.1c0,0,0,0,0-0.1v0v0l0-0.1l0-0.1c0-1.2-0.4-2.4-0.9-3.5l0,0l0,0c-0.4-0.8-0.9-1.6-1.6-2.2
		l0,0l0,0c-0.8-0.8-1.7-1.4-2.8-1.9l0,0c-10.8-4.5-21.9-8-33.2-10.6h0c-11.3-2.6-22.9-4.2-34.5-4.8c0,0,0,0,0,0L683.8,480h0
		c-1.7-0.1-3.3-0.6-4.8-1.3l0,0l0,0c-4.7-2.3-9.8-3.5-15-3.5h-5.7h-1.1l-0.9-0.7l-78.2-57l0,0l-3.9-2.9l0,0l0,0
		c-1.5-1.1-3.2-1.8-5.1-2.1c-17.5-2.7-96.7-13-192.3-1.1l0,0c-27.7,3.4-54.4,12-79.1,24.9l-33.2,17.5c-9.2,4.8-18.8,8.7-28.6,11.8
		l0,0c-10.2,3.1-20.7,5.2-31.3,6.3l0,0l-37.9,4h0c-23,2.4-45.4,9-66,19.4c-2.8,1.4-5.6,2.9-8.3,4.4c-1.7,1-3.2,2.1-4.4,3.4l0,0l0,0
		c-1.2,1.2-2.3,2.5-3.1,3.9l0,0l0,0c0,0.1-0.1,0.1-0.1,0.1c0,0,0,0.1-0.1,0.1c0,0,0,0,0,0l0,0l0,0c0,0,0,0,0,0
		c-0.1,0.2-0.3,0.5,0.5,2.1c0.1,0.2,0.2,0.4,0.3,0.6c0.7,1.5,1.9,4,1.9,6.7l0,0l0,10.5l0,0c0,15.5,2.6,30.3,14.1,37.3l0,0
		 M101,564.8 M814.4,790.6 M934,514.6h-4.7h-3.5v3.2l-5.6,27.9l-0.3,1.5l0.9,1.2l3,4l-17.4,37.1h-15.3c-0.3,0-0.6-0.2-0.7-0.4l0,0
		l0,0c-1.3-2.8-4-4.6-7.1-4.6H200l-7.2-4.5l-0.7-0.5l-0.9-0.1l-74.7-5 M131.6,711.8 M949.1,652.1 M101,564.8l15.5,9.5 M101,564.8
		l15.5,9.5"/>
	<path class="st4" d="M890.5,589L890.5,589L890.5,589c-1.3-2.8-4.1-4.7-7.1-4.7H200.1l-7.2-4.5l-0.7-0.5l-0.9-0.1l-74.7-5l-15.5-9.5
		c0,0,0,0,0,0c0,0,0,0,0,0c-5.7-3.5-8.5-8.3-10-14.3c-1.5-6.1-1.6-13.2-1.6-21.1v-7.9h836.3l-1.2,29.5l-18,38.3h-15.3
		C890.8,589.4,890.6,589.2,890.5,589z"/>
	<path class="st4" d="M107.7,573.8l-1.1-0.1l-0.1,0h-0.1c-1.8,0-3.6-0.7-5-1.9l0,0l-22.2-19.9c0,0,0,0,0,0c-2.7-2.4-4.2-5.9-4.2-9.5
		v-26c0-1.1,0.9-2,2-2h8.7c0.4,0,0.8,0.4,0.8,0.8v21.7v0c0,6.2,2.2,13.3,6.3,18.3L107.7,573.8z"/>
	<path class="st4" d="M927.7,544.1l4.2-20.8c0.4,0.7,0.7,1.4,1,2.3c0.8,2.4,1.2,5.1,1,7.9c-0.3,2.7-1.2,5.4-3,7.7
		C930.1,542.3,929,543.2,927.7,544.1z"/>
	<path class="st4" d="M919.2,563.2l4.4-13.4h10.7c3,0,5.4,2.8,4.8,5.8l-1,5.5c0,0,0,0,0,0c-0.5,2.6-1.8,5-3.8,6.7l0,0l-5.4,4.7
		c0,0,0,0,0,0c-2.1,1.8-3.8,4-5,6.4l-3.5,7v0c-1.1,2.1-3.2,3.5-5.6,3.5H903l15.8-25.5l0.2-0.4L919.2,563.2z"/>
	<path class="st5" d="M311.4,640.1c29.3-11.8,43.6-45.2,31.8-74.5s-45.2-43.6-74.5-31.8c-29.3,11.8-43.6,45.2-31.8,74.5
		C248.7,637.7,282.1,651.9,311.4,640.1z"/>
	<path class="st6" d="M312,608.8c12.1-12.1,12.1-31.7,0-43.8c-12.1-12.1-31.7-12.1-43.8,0c-12.1,12.1-12.1,31.7,0,43.8
		C280.3,620.9,299.9,620.9,312,608.8z"/>
	<path class="st7" d="M290.1,604.7c9.8,0,17.8-8,17.8-17.8c0-9.8-8-17.8-17.8-17.8c-9.8,0-17.8,8-17.8,17.8
		C272.3,596.7,280.3,604.7,290.1,604.7z"/>
	<path class="st5" d="M299.4,580.2c1.4,0,2.5-1.1,2.5-2.5c0-1.4-1.1-2.5-2.5-2.5s-2.5,1.1-2.5,2.5
		C296.9,579.1,298,580.2,299.4,580.2z"/>
	<path class="st5" d="M278.3,577.7c0,1.4,1.1,2.5,2.5,2.5s2.5-1.1,2.5-2.5c0-1.4-1.1-2.5-2.5-2.5S278.3,576.4,278.3,577.7z"/>
	<path class="st5" d="M296.9,596.6c0,1.4,1.1,2.5,2.5,2.5s2.5-1.1,2.5-2.5s-1.1-2.5-2.5-2.5S296.9,595.2,296.9,596.6z"/>
	<path class="st5" d="M278.3,596.6c0,1.4,1.1,2.5,2.5,2.5s2.5-1.1,2.5-2.5s-1.1-2.5-2.5-2.5S278.3,595.2,278.3,596.6z"/>
	<path class="st8" d="M281.5,616.2l3.2-23.9l-23.9,3.2v-17l23.9,3.2l-3.2-23.9h17.1l-3.2,23.9l23.9-3.2v17l-23.9-3.2l3.2,23.9H281.5
		z"/>
	<path class="st7" d="M290.1,556c17.1,0,31,13.9,31,31c0,17.1-13.9,31-31,31s-31-13.9-31-31C259.1,569.8,273,556,290.1,556z
		 M290.1,550.7c-20,0-36.2,16.2-36.2,36.2c0,20,16.2,36.2,36.2,36.2c20,0,36.2-16.2,36.2-36.2C326.3,567,310,550.7,290.1,550.7z"/>
	<path class="st8" d="M290.1,559.9c14.9,0,27,12.1,27,27c0,14.9-12.1,27-27,27s-27-12.1-27-27C263,572,275.2,559.9,290.1,559.9z
		 M290.1,556c-17.1,0-31,13.9-31,31c0,17.1,13.9,31,31,31c17.1,0,31-13.9,31-31C321,569.8,307.2,556,290.1,556z"/>
	<path class="st8" d="M293.4,586.9h-6.6l-3.8-28.7h14.3L293.4,586.9z"/>
	<path class="st8" d="M290.1,590.2v-6.6l28.7-3.8v14.3L290.1,590.2z"/>
	<path class="st8" d="M286.8,586.9h6.6l3.8,28.8h-14.3L286.8,586.9z"/>
	<path class="st8" d="M290.1,583.6v6.6l-28.8,3.8v-14.3L290.1,583.6z"/>
	<path class="st5" d="M286.1,586.9c0,2.2,1.8,3.9,3.9,3.9c2.2,0,3.9-1.8,3.9-3.9c0-2.2-1.8-3.9-3.9-3.9
		C287.9,583,286.1,584.8,286.1,586.9z"/>
	<path class="st5" d="M783.7,643.4c31.2-5,52.5-34.4,47.5-65.6c-5-31.2-34.4-52.5-65.6-47.5c-31.2,5-52.5,34.4-47.5,65.6
		C723,627.2,752.4,648.4,783.7,643.4z"/>
	<path class="st5" d="M780.4,617.3c16.8-3.2,27.8-19.4,24.6-36.2c-3.2-16.8-19.4-27.8-36.2-24.6c-16.8,3.2-27.8,19.4-24.6,36.2
		C747.4,609.5,763.6,620.5,780.4,617.3z"/>
	<path class="st7" d="M774.6,604.7c9.8,0,17.8-8,17.8-17.8s-8-17.8-17.8-17.8c-9.8,0-17.8,8-17.8,17.8S764.8,604.7,774.6,604.7z"/>
	<path class="st5" d="M781.4,577.7c0,1.4,1.1,2.5,2.5,2.5c1.4,0,2.5-1.1,2.5-2.5c0-1.4-1.1-2.5-2.5-2.5
		C782.6,575.2,781.4,576.4,781.4,577.7z"/>
	<path class="st5" d="M762.8,577.7c0,1.4,1.1,2.5,2.5,2.5c1.4,0,2.5-1.1,2.5-2.5c0-1.4-1.1-2.5-2.5-2.5
		C763.9,575.2,762.8,576.4,762.8,577.7z"/>
	<path class="st5" d="M781.4,596.6c0,1.4,1.1,2.5,2.5,2.5c1.4,0,2.5-1.1,2.5-2.5s-1.1-2.5-2.5-2.5
		C782.6,594.1,781.4,595.2,781.4,596.6z"/>
	<path class="st5" d="M762.8,596.6c0,1.4,1.1,2.5,2.5,2.5c1.4,0,2.5-1.1,2.5-2.5s-1.1-2.5-2.5-2.5
		C763.9,594.1,762.8,595.2,762.8,596.6z"/>
	<path class="st8" d="M766.1,616.2l3.2-23.9l-23.9,3.2v-17l23.9,3.2l-3.2-23.9h17l-3.2,23.9l23.9-3.2v17l-23.9-3.2l3.2,23.9H766.1z"
		/>
	<path class="st7" d="M774.6,556c17.1,0,31,13.9,31,31c0,17.1-13.9,31-31,31s-31-13.9-31-31C743.6,569.8,757.5,556,774.6,556z
		 M774.6,550.7c-20,0-36.2,16.2-36.2,36.2c0,20,16.2,36.2,36.2,36.2c20,0,36.2-16.2,36.2-36.2C810.8,567,794.5,550.7,774.6,550.7z"
		/>
	<path class="st8" d="M774.6,559.9c14.9,0,27,12.1,27,27c0,14.9-12.1,27-27,27c-14.9,0-27-12.1-27-27
		C747.6,572,759.7,559.9,774.6,559.9z M774.6,556c-17.1,0-31,13.9-31,31c0,17.1,13.9,31,31,31c17.1,0,31-13.9,31-31
		C805.6,569.8,791.7,556,774.6,556z"/>
	<path class="st8" d="M777.9,586.9h-6.6l-3.8-28.7h14.3L777.9,586.9z"/>
	<path class="st8" d="M774.6,590.2v-6.6l28.8-3.8v14.3L774.6,590.2z"/>
	<path class="st8" d="M771.3,586.9h6.6l3.8,28.8h-14.3L771.3,586.9z"/>
	<path class="st8" d="M774.6,583.6v6.6l-28.7,3.8v-14.3L774.6,583.6z"/>
	<path class="st5" d="M774.6,590.9c2.2,0,3.9-1.8,3.9-3.9c0-2.2-1.8-3.9-3.9-3.9s-3.9,1.8-3.9,3.9
		C770.7,589.1,772.4,590.9,774.6,590.9z"/>
	<path class="st5" d="M658.3,471.8l-25-0.5l-4.1-0.1c0,0-0.1,0-0.2,0h-0.2c-1,0-1.9-0.4-2.6-1.1l-0.2-0.2c0,0-0.1,0-0.1-0.1
		l-54.1-53.2c-0.7-0.7-0.2-1.8,0.7-1.8h6.7c0.5,0,1,0.2,1.4,0.5l1.3,1l74.2,54.1L658.3,471.8L658.3,471.8L658.3,471.8z"/>
	<path class="st9" d="M561.5,418.3l57.5,55.4H451.9l-6.6-52.9l56-2.5H561.5z"/>
	<path class="st9" d="M441.3,472.4l-78.5-13.9c6.8-15.1,20.5-26.1,36.9-29.2l0,0l34.9-6.6L441.3,472.4z"/>
	<path class="st10" d="M602.8,464.4L602.8,464.4c0.1,0,0.1,0.1,0.2,0.2s0.2,0.4,0.2,0.6c0,0.2-0.1,0.4-0.2,0.6
		c-0.1,0.1-0.2,0.2-0.2,0.2l0,0l-3.8,1.2c0,0,0,0,0,0c-4.5,1.4-9.2,2.2-14,2.3v-8.6c4.7,0.1,9.3,0.9,13.9,2.3c0,0,0,0,0,0
		L602.8,464.4z"/>
	<path class="st4" d="M592.2,472l3,0.7c0.4,0.5,1,1.1,1.7,1.8c0.1,0,0.1,0.1,0.2,0.1h-5.5C591.9,473.8,592.2,472.9,592.2,472z"/>
	<defs>
		
			<filter id="Adobe_OpacityMaskFilter_00000003091078005463365920000008952953030198847126_" filterUnits="userSpaceOnUse" x="581.7" y="458.7" width="32.8" height="26.4">
			<feColorMatrix  type="matrix" values="1 0 0 0 0  0 1 0 0 0  0 0 1 0 0  0 0 0 1 0"/>
		</filter>
	</defs>
	
		<mask maskUnits="userSpaceOnUse" x="581.7" y="458.7" width="32.8" height="26.4" id="path-46-inside-2_507_1021_00000109023198612472638650000002384617854500812188_">
		<path style="fill:#FFFFFF;filter:url(#Adobe_OpacityMaskFilter_00000003091078005463365920000008952953030198847126_);" d="
			M605.3,475.3c1.2,0.3,2.1,1.5,2.1,2.8h-1.9c-7.2-1.2-11.2-7.3-11.2-7.3l-5.7-1.3v-2l8.5,2C597.2,469.5,600,473.9,605.3,475.3
			L605.3,475.3z"/>
	</mask>
	<path class="st12" d="M605.3,475.3h-7v5.4l5.2,1.4L605.3,475.3z M607.4,478.1v7h7v-7H607.4z M605.5,478.1l-1.1,6.9l0.6,0.1h0.6
		V478.1z M594.4,470.8l5.9-3.8l-1.5-2.4L596,464L594.4,470.8z M588.7,469.5h-7v5.6l5.4,1.3L588.7,469.5z M588.7,467.6l1.6-6.8
		l-8.6-2v8.8H588.7z M597.2,469.5l5.9-3.8l-1.5-2.4l-2.8-0.6L597.2,469.5z M605.3,475.3h7v-5.4l-5.2-1.4L605.3,475.3z M603.5,482.1
		c-1.9-0.5-3.1-2.2-3.1-4h14c0-4.4-2.9-8.4-7.4-9.6L603.5,482.1z M607.4,471.1h-1.9v14h1.9V471.1z M606.7,471.2
		c-1.9-0.3-3.5-1.3-4.8-2.4c-0.6-0.5-1.1-1.1-1.4-1.4c-0.1-0.2-0.2-0.3-0.3-0.4c0,0,0,0,0,0c0,0,0,0,0,0c0,0,0,0,0,0c0,0,0,0,0,0
		c0,0,0,0,0,0c0,0,0,0,0,0c0,0,0,0-5.9,3.8c-5.9,3.8-5.9,3.8-5.9,3.8c0,0,0,0,0,0c0,0,0,0,0,0c0,0,0,0,0,0c0,0,0,0,0,0
		c0,0,0.1,0.1,0.1,0.1c0.1,0.1,0.1,0.2,0.2,0.3c0.2,0.3,0.5,0.6,0.8,1c0.7,0.8,1.6,1.9,2.9,3c2.5,2.2,6.5,4.9,11.8,5.8L606.7,471.2z
		 M596,464l-5.7-1.3l-3.2,13.6l5.7,1.3L596,464z M595.7,469.5v-2h-14v2H595.7z M587.1,474.4l8.5,2l3.2-13.6l-8.5-2L587.1,474.4z
		 M597.2,469.5c-5.9,3.8-5.9,3.8-5.9,3.8c0,0,0,0,0,0c0,0,0,0,0,0c0,0,0,0,0,0c0,0,0,0,0,0c0,0,0,0.1,0.1,0.1
		c0.1,0.1,0.1,0.2,0.2,0.3c0.2,0.2,0.4,0.5,0.6,0.8c0.5,0.6,1.3,1.5,2.2,2.4c1.9,1.8,4.9,4,9,5.1l3.6-13.5c-1.2-0.3-2.2-1-3.1-1.8
		c-0.4-0.4-0.7-0.7-0.9-0.9c-0.1-0.1-0.1-0.2-0.2-0.2c0,0,0,0,0,0c0,0,0,0,0,0c0,0,0,0,0,0c0,0,0,0,0,0c0,0,0,0,0,0c0,0,0,0,0,0
		C603,465.7,603,465.7,597.2,469.5z M598.3,475.3L598.3,475.3l14,0v0H598.3z"/>
	<path class="st13" d="M453,490.5c-1.9,0-3.5-1.5-3.5-3.5v-2.2c0-1.2,1-2.2,2.2-2.2h4.7v4.4C456.4,488.9,454.9,490.5,453,490.5
		L453,490.5z"/>
	<defs>
		
			<filter id="Adobe_OpacityMaskFilter_00000005252073512197485600000003872701078337920178_" filterUnits="userSpaceOnUse" x="445" y="475.6" width="35.4" height="17">
			<feColorMatrix  type="matrix" values="1 0 0 0 0  0 1 0 0 0  0 0 1 0 0  0 0 0 1 0"/>
		</filter>
	</defs>
	
		<mask maskUnits="userSpaceOnUse" x="445" y="475.6" width="35.4" height="17" id="path-49-inside-3_507_1021_00000156553483216149097890000001942916114926803626_">
		<path style="fill:#FFFFFF;filter:url(#Adobe_OpacityMaskFilter_00000005252073512197485600000003872701078337920178_);" d="
			M473.4,482.6H452v3h21.4V482.6z"/>
	</mask>
	<path class="st15" d="M452,482.6v-7h-7v7H452z M473.4,482.6h7v-7h-7V482.6z M473.4,485.6v7h7v-7H473.4z M452,485.6h-7v7h7V485.6z
		 M452,489.6h21.4v-14H452V489.6z M466.4,482.6v3h14v-3H466.4z M473.4,478.6H452v14h21.4V478.6z M459,485.6v-3h-14v3H459z"/>
	<path class="st13" d="M473.5,488.6c1.6,0,3-1.3,3-3c0-1.6-1.3-3-3-3c-1.6,0-3,1.3-3,3C470.5,487.2,471.8,488.6,473.5,488.6z"/>
	<path class="st16" d="M455.1,494.1c0,1.2-1,2.2-2.2,2.2c-1.2,0-2.2-1-2.2-2.2c0-1.2,1-2.2,2.2-2.2
		C454.1,491.9,455.1,492.9,455.1,494.1z"/>
	<path class="st16" d="M454.2,486.6c0,0.7-0.6,1.3-1.3,1.3s-1.3-0.6-1.3-1.3s0.6-1.3,1.3-1.3S454.2,485.9,454.2,486.6z"/>
</g>
</svg>
