<?xml version="1.0" encoding="utf-8"?>
<!-- Generator: Adobe Illustrator 26.3.1, SVG Export Plug-In . SVG Version: 6.00 Build 0)  -->
<svg version="1.1" id="Layer_1" xmlns="http://www.w3.org/2000/svg" xmlns:xlink="http://www.w3.org/1999/xlink" x="0px" y="0px"
	 viewBox="0 0 1024 868" style="enable-background:new 0 0 1024 868;" xml:space="preserve">
<style type="text/css">
	.st0{fill:#F1F5F8;}
	.st1{fill:#303B43;}
	.st2{fill:#35A9AB;}
	.st3{fill:#56C3C5;}
	.st4{fill:#3DB6B8;}
	.st5{fill:#EBEBEB;}
	.st6{fill:#161E30;}
	.st7{fill:#394249;}
	.st8{fill:#3D3D3D;}
	.st9{fill:#E6E6E6;}
	.st10{fill:#CAD8E1;}
</style>
<g>
	<circle class="st0" cx="512.4" cy="434" r="345"/>
	<path class="st1" d="M204,581.2v18.2l2.4,1.6c6.8,4.6,14.8,7.1,23,7.1h76.6l35.3,10.5h78.2c6.1,0,12-2.4,16.3-6.8h38.4
		c5.6,5.6,13.2,8.7,21.1,8.7h127.8c4.8,0,9.3-1.9,12.7-5.2h39.3c5.4,5.4,12.7,8.4,20.2,8.4h112.4l12.7-12.7h65
		c6.1,0,11.9-2.4,16.2-6.7v-23.2H204z"/>
	<path class="st2" d="M105,499.8h11l40.6-11.4l-10.1-2.1c-14.9-3.1-29.5-7.5-43.6-13.2h-7.3"/>
	<path class="st3" d="M934.3,529.6l-5.6,28.2l13,4.4l-28,42.2h-17.5c-1.7,0-3.2-1-3.9-2.6c-0.7-1.5-2.2-2.5-3.9-2.5H204l-8-5
		l-75.6-5.1l-16.3-10c-13.2-8.1-21.2-22.5-21.2-38v-11.6c0-4.4,1.2-8.7,3.3-12.4c0.1-0.1,0.2-0.3,0.3-0.4c1-1.7,2.2-3.2,3.7-4.6
		c1.5-1.5,3.3-2.9,5.2-4c2.8-1.6,5.6-3.1,8.5-4.5c21-10.6,43.8-17.3,67.3-19.7l37.9-4c10.4-1.1,20.7-3.2,30.6-6.2
		c9.7-3,19-6.8,28-11.5l33.2-17.5c25-13.1,52.2-21.8,80.3-25.3c96-11.9,175.5-1.6,193.2,1.1c2.4,0.4,4.7,1.3,6.6,2.7l3.9,2.9
		l78.2,57h5.7c5.7,0,11.4,1.3,16.5,3.9c1.1,0.5,2.3,0.9,3.5,0.9l177.2,9.3c11.9,0.6,23.6,2.3,35.1,4.9c11.5,2.6,22.8,6.2,33.8,10.8
		c1.5,0.6,2.8,1.5,4,2.7c0.9,0.9,1.7,2,2.2,3.2c0.7,1.5,1.2,3.2,1.2,4.9c0,0.2,0,0.3,0,0.5v5.4L934.3,529.6L934.3,529.6z"/>
	<path class="st2" d="M942.5,523.8c-35.3-7.3-71.5-11-107.6-11H416.5c-25.4,0-51-2.3-76-6.9l-4.3-0.8c-37-6.7-74.7-8.5-112.1-5.1
		L90.2,512.2c1.5-1.5,3.3-2.9,5.2-4c2.8-1.6,5.6-3.1,8.5-4.5L223.4,493c38.1-3.5,76.4-1.7,114,5.2l4.3,0.8
		c24.6,4.5,49.7,6.7,74.7,6.7h418.4c34.9,0,69.8,3.4,104.1,10.1c0.9,0.9,1.7,2,2.2,3.2C941.9,520.4,942.4,522.1,942.5,523.8
		L942.5,523.8z"/>
	<path class="st4" d="M941.7,562.2l-28,42.2h-17.5c-1.7,0-3.2-1-3.9-2.6c-0.7-1.5-2.2-2.5-3.9-2.5H204l-8-5l-75.6-5.1l-16.3-10
		c-13.2-8.1-21.2-22.5-21.2-38v-11.6h851.4l-5.6,28.2L941.7,562.2L941.7,562.2z"/>
	<path class="st2" d="M173.7,529.6L157.3,546h155.4l16.7-16.4H173.7z"/>
	<path class="st2" d="M682.7,529.6L666.4,546h155.4l16.7-16.4H682.7z"/>
	<path class="st5" d="M90.5,522.5h-8.7c-3,0-5.5,2.5-5.5,5.5v26c0,4.6,2,9,5.4,12.1l22.2,19.9c2,1.8,4.6,2.8,7.3,2.8l9.1,0.5
		l-20-24.7c-3.5-4.2-5.4-9.5-5.4-15l0-22.8C94.8,524.4,92.9,522.5,90.5,522.5L90.5,522.5z"/>
	<path class="st6" d="M937.1,529.6h-2.8l-6.4,32.2C947.6,555.7,943.5,534.9,937.1,529.6z"/>
	<path class="st5" d="M926,557.8h13.2c5.2,0,9.2,4.7,8.3,9.9l-1,5.5c-0.6,3.4-2.4,6.5-5,8.8l-5.5,4.7c-1.7,1.5-3.1,3.3-4.1,5.3
		l-3.5,7c-1.6,3.3-5,5.4-8.8,5.4h-18l19.1-30.9l0.6-11.4C921.5,559.8,923.5,557.8,926,557.8z"/>
	<path class="st7" d="M316.4,651.6c29.3-11.8,43.6-45.2,31.8-74.5s-45.2-43.6-74.5-31.8c-29.4,11.8-43.6,45.2-31.8,74.5
		C253.7,649.2,287,663.4,316.4,651.6z"/>
	<path class="st8" d="M316.9,620.4c12.1-12.1,12.1-31.7,0-43.8c-12.1-12.1-31.7-12.1-43.8,0c-12.1,12.1-12.1,31.7,0,43.8
		C285.2,632.5,304.8,632.5,316.9,620.4z"/>
	<path class="st9" d="M295,616.2c9.8,0,17.8-8,17.8-17.8c0-9.8-8-17.8-17.8-17.8c-9.8,0-17.8,8-17.8,17.8
		C277.2,608.3,285.2,616.2,295,616.2z"/>
	<path class="st7" d="M304.3,591.7c1.4,0,2.5-1.1,2.5-2.5c0-1.4-1.1-2.5-2.5-2.5s-2.5,1.1-2.5,2.5
		C301.9,590.6,303,591.7,304.3,591.7z"/>
	<path class="st7" d="M283.2,589.3c0,1.4,1.1,2.5,2.5,2.5s2.5-1.1,2.5-2.5c0-1.4-1.1-2.5-2.5-2.5S283.2,587.9,283.2,589.3z"/>
	<path class="st7" d="M301.9,608.1c0,1.4,1.1,2.5,2.5,2.5s2.5-1.1,2.5-2.5s-1.1-2.5-2.5-2.5S301.9,606.8,301.9,608.1z"/>
	<path class="st7" d="M283.2,608.1c0,1.4,1.1,2.5,2.5,2.5s2.5-1.1,2.5-2.5s-1.1-2.5-2.5-2.5S283.2,606.8,283.2,608.1z"/>
	<path class="st10" d="M286.5,627.7l3.2-23.9l-23.9,3.2v-17l23.9,3.2l-3.2-23.9h17.1l-3.2,23.9l23.9-3.2v17l-23.9-3.2l3.2,23.9
		H286.5z"/>
	<path class="st9" d="M295,567.5c17.1,0,31,13.9,31,31c0,17.1-13.9,31-31,31s-31-13.9-31-31C264,581.4,277.9,567.5,295,567.5z
		 M295,562.3c-20,0-36.2,16.2-36.2,36.2c0,20,16.2,36.2,36.2,36.2c20,0,36.2-16.2,36.2-36.2C331.2,578.5,315,562.3,295,562.3z"/>
	<path class="st10" d="M295,571.4c14.9,0,27,12.1,27,27c0,14.9-12.1,27-27,27s-27-12.1-27-27C268,583.6,280.1,571.4,295,571.4z
		 M295,567.5c-17.1,0-31,13.9-31,31c0,17.1,13.9,31,31,31c17.1,0,31-13.9,31-31C326,581.4,312.1,567.5,295,567.5z"/>
	<path class="st10" d="M298.3,598.5h-6.6l-3.8-28.7h14.3L298.3,598.5z"/>
	<path class="st10" d="M295,601.8v-6.6l28.7-3.8v14.3L295,601.8z"/>
	<path class="st10" d="M291.7,598.5h6.6l3.8,28.8h-14.3L291.7,598.5z"/>
	<path class="st10" d="M295,595.2v6.6l-28.8,3.8v-14.3L295,595.2z"/>
	<path class="st7" d="M291.1,598.5c0,2.2,1.8,3.9,3.9,3.9c2.2,0,3.9-1.8,3.9-3.9c0-2.2-1.8-3.9-3.9-3.9
		C292.8,594.5,291.1,596.3,291.1,598.5z"/>
	<path class="st7" d="M788.6,655c31.2-5,52.5-34.4,47.5-65.6c-5-31.2-34.4-52.5-65.6-47.5c-31.2,5-52.5,34.4-47.5,65.6
		C728,638.7,757.4,660,788.6,655z"/>
	<path class="st7" d="M785.4,628.8c16.8-3.2,27.8-19.4,24.6-36.2c-3.2-16.8-19.4-27.8-36.2-24.6c-16.8,3.2-27.8,19.4-24.6,36.2
		C752.4,621.1,768.6,632.1,785.4,628.8z"/>
	<path class="st9" d="M779.5,616.3c9.8,0,17.8-8,17.8-17.8s-8-17.8-17.8-17.8c-9.8,0-17.8,8-17.8,17.8S769.7,616.3,779.5,616.3z"/>
	<path class="st7" d="M786.4,589.3c0,1.4,1.1,2.5,2.5,2.5c1.4,0,2.5-1.1,2.5-2.5c0-1.4-1.1-2.5-2.5-2.5
		C787.5,586.8,786.4,587.9,786.4,589.3z"/>
	<path class="st7" d="M767.7,589.3c0,1.4,1.1,2.5,2.5,2.5c1.4,0,2.5-1.1,2.5-2.5c0-1.4-1.1-2.5-2.5-2.5
		C768.8,586.8,767.7,587.9,767.7,589.3z"/>
	<path class="st7" d="M786.4,608.1c0,1.4,1.1,2.5,2.5,2.5c1.4,0,2.5-1.1,2.5-2.5s-1.1-2.5-2.5-2.5
		C787.5,605.6,786.4,606.8,786.4,608.1z"/>
	<path class="st7" d="M767.7,608.1c0,1.4,1.1,2.5,2.5,2.5c1.4,0,2.5-1.1,2.5-2.5s-1.1-2.5-2.5-2.5
		C768.8,605.6,767.7,606.8,767.7,608.1z"/>
	<path class="st10" d="M771,627.7l3.2-23.9l-23.9,3.2v-17l23.9,3.2l-3.2-23.9h17l-3.2,23.9l23.9-3.2v17l-23.9-3.2l3.2,23.9H771z"/>
	<path class="st9" d="M779.5,567.5c17.1,0,31,13.9,31,31c0,17.1-13.9,31-31,31s-31-13.9-31-31C748.6,581.4,762.4,567.5,779.5,567.5z
		 M779.5,562.3c-20,0-36.2,16.2-36.2,36.2c0,20,16.2,36.2,36.2,36.2c20,0,36.2-16.2,36.2-36.2C815.7,578.5,799.5,562.3,779.5,562.3z
		"/>
	<path class="st10" d="M779.5,571.5c14.9,0,27,12.1,27,27c0,14.9-12.1,27-27,27c-14.9,0-27-12.1-27-27
		C752.5,583.6,764.6,571.5,779.5,571.5z M779.5,567.5c-17.1,0-31,13.9-31,31c0,17.1,13.9,31,31,31c17.1,0,31-13.9,31-31
		C810.5,581.4,796.6,567.5,779.5,567.5z"/>
	<path class="st10" d="M782.8,598.5h-6.6l-3.8-28.7h14.3L782.8,598.5z"/>
	<path class="st10" d="M779.5,601.8v-6.6l28.8-3.8v14.3L779.5,601.8z"/>
	<path class="st10" d="M776.2,598.5h6.6l3.8,28.8h-14.3L776.2,598.5z"/>
	<path class="st10" d="M779.5,595.2v6.6l-28.7,3.8v-14.3L779.5,595.2z"/>
	<path class="st7" d="M779.5,602.4c2.2,0,3.9-1.8,3.9-3.9c0-2.2-1.8-3.9-3.9-3.9s-3.9,1.8-3.9,3.9
		C775.6,600.7,777.4,602.4,779.5,602.4z"/>
	<path class="st7" d="M663.2,483.3l-25-0.5l-4.1-0.1c0,0-0.1,0-0.2,0h-0.2c-1,0-1.9-0.4-2.6-1.1l-0.2-0.2c0,0-0.1,0-0.1-0.1
		l-54.1-53.2c-0.7-0.7-0.2-1.8,0.7-1.8h6.7c0.5,0,1,0.2,1.4,0.5l1.3,1l74.2,54.1L663.2,483.3L663.2,483.3L663.2,483.3z"/>
	<path class="st7" d="M568.2,426.6c-0.2-0.2-0.5-0.3-0.8-0.3h-61.1l-58.6,2.6c-0.7,0-1.2,0.7-1.2,1.4l7.2,57.4
		c0.1,0.6,0.6,1.1,1.2,1.1h174.8c1.1,0,1.6-1.3,0.8-2.1L568.2,426.6L568.2,426.6z"/>
	<path class="st7" d="M450.3,488.3l-7.7-57.2c-0.1-0.5-0.5-0.8-1-0.7l-37.6,7.1c-18.7,3.5-34.1,16.6-40.8,34.4
		c-0.2,0.5,0.1,1,0.6,1.1L450.3,488.3L450.3,488.3z"/>
	<path class="st3" d="M588.4,470c5.4,0,10.9,0.8,16.1,2.4l3.9,1.2c1.3,0.4,2.2,1.7,2.2,3.2c0,1.5-0.9,2.8-2.2,3.2l-3.8,1.2
		c-5.3,1.6-10.7,2.4-16.2,2.4c-0.5,0-1-0.5-1-1.1V471C587.5,470.5,587.9,470,588.4,470L588.4,470z"/>
	<path class="st2" d="M610.2,486.9c-5.3-1.4-8.1-5.8-8.1-5.8l-8.5-2v4.3c0,1.5-1.2,2.7-2.7,2.7h-1c-1.9,0-3.5,1.6-3.5,3.5h26
		C612.4,488.4,611.5,487.2,610.2,486.9z"/>
	<path class="st3" d="M610.2,486.9c1.2,0.3,2.1,1.5,2.1,2.8h-1.9c-7.2-1.2-11.2-7.3-11.2-7.3l-5.7-1.3v-2l8.5,2
		C602.1,481.1,605,485.5,610.2,486.9L610.2,486.9z"/>
	<path class="st2" d="M610.7,477c-0.1,1.4-0.9,2.6-2.2,3l-3.8,1.2c-5.3,1.6-10.7,2.4-16.2,2.4c-0.5,0-1-0.5-1-1.1V477H610.7z"/>
	<path class="st2" d="M128,549.8h-16.6c-1,0-1.8,0.8-1.8,1.8v8.4c0,1,0.8,1.8,1.8,1.8H128c1,0,1.8-0.8,1.8-1.8v-8.4
		C129.9,550.6,129.1,549.8,128,549.8z"/>
	<path class="st2" d="M909.9,561.5h-16.6c-1,0-1.8,0.8-1.8,1.8v8.4c0,1,0.8,1.8,1.8,1.8h16.6c1,0,1.8-0.8,1.8-1.8v-8.4
		C911.7,562.3,910.9,561.5,909.9,561.5z"/>
	<path class="st2" d="M414.3,522.4c-7.3,1-14.5,1.5-21.9,1.7l1.7-1.4c-0.4,3.6-1.3,8.8-1.8,12.4c-0.6,3.6-1.6,8.8-2.3,12.4l-1.7-2
		c7.2,0.3,14.4,0.7,21.6,1.7c-5.4,0.8-10.8,1.2-16.2,1.5c-1.8,0.1-3.6,0.2-5.4,0.2c-1.1,0-1.9-1-1.7-2c0.7-5.8,1.9-12.9,3-18.6
		c0.4-2.1,0.8-4.2,1.2-6.3c0.2-0.8,0.9-1.4,1.7-1.4C399.7,520.9,407,521.4,414.3,522.4L414.3,522.4z"/>
	<path class="st2" d="M408.8,555.5c-7.3,1-14.5,1.5-21.9,1.7l1.7-1.4c-0.4,3.6-1.3,8.8-1.8,12.5c-0.6,3.6-1.6,8.8-2.3,12.4l-1.7-2
		c7.2,0.3,14.4,0.7,21.6,1.7c-5.4,0.8-10.8,1.2-16.2,1.5c-1.8,0.1-3.6,0.2-5.4,0.2c-1.1,0-1.9-1-1.7-2c0.7-5.8,1.9-12.9,3-18.6
		c0.4-2.1,0.8-4.2,1.2-6.3c0.2-0.8,0.9-1.4,1.7-1.4C394.3,554,401.5,554.4,408.8,555.5L408.8,555.5z"/>
	<path class="st2" d="M242.8,475.9c23.1-4.5,46.7-9.4,70.3-6c11.7,1.5,23.1,5,34.4,8.2c11.3,3.2,22.5,6.7,33.5,10.6
		c-11.6-1.8-23.1-4.1-34.5-6.6c-11.4-2.4-22.6-5.6-34.1-7C289.2,471.5,266.1,475.6,242.8,475.9z"/>
	<path class="st2" d="M359.2,460.9c8.2-16.1,19.5-27.6,37.6-32c9.9-2,19.7-3.1,29.8-3.9c-6.4,2-12.8,3.7-19.3,5.2
		c-12.8,2.4-25,7.2-34.7,16.2C367.7,450.7,363.8,456.1,359.2,460.9z"/>
	<path class="st2" d="M457.9,502.1c-1.9,0-3.5-1.5-3.5-3.5v-2.2c0-1.2,1-2.2,2.2-2.2h4.7v4.4C461.4,500.5,459.8,502.1,457.9,502.1
		L457.9,502.1z"/>
	<path class="st2" d="M478.4,494.2H457v3h21.4V494.2z"/>
	<path class="st2" d="M478.4,500.1c1.6,0,3-1.3,3-3c0-1.6-1.3-3-3-3c-1.6,0-3,1.3-3,3C475.4,498.8,476.7,500.1,478.4,500.1z"/>
	<path class="st5" d="M460,505.6c0,1.2-1,2.2-2.2,2.2c-1.2,0-2.2-1-2.2-2.2c0-1.2,1-2.2,2.2-2.2C459.1,503.5,460,504.4,460,505.6z"
		/>
	<path class="st5" d="M459.2,498.1c0,0.7-0.6,1.3-1.3,1.3s-1.3-0.6-1.3-1.3s0.6-1.3,1.3-1.3S459.2,497.4,459.2,498.1z"/>
</g>
</svg>
