<?xml version="1.0" encoding="utf-8"?>
<!-- Generator: Adobe Illustrator 26.3.1, SVG Export Plug-In . SVG Version: 6.00 Build 0)  -->
<svg version="1.1" id="Layer_1" xmlns="http://www.w3.org/2000/svg" xmlns:xlink="http://www.w3.org/1999/xlink" x="0px" y="0px"
	 viewBox="0 0 1024 850" style="enable-background:new 0 0 1024 850;" xml:space="preserve">
<style type="text/css">
	.st0{fill:#F1F5F8;}
	.st1{fill:#263238;}
	.st2{fill:#FFFFFF;stroke:#FFFFFF;stroke-width:8;}
	.st3{fill:#394249;stroke:#263238;stroke-width:8;}
	.st4{fill:#56C3C5;stroke:#56C3C5;stroke-width:8;}
</style>
<circle class="st0" cx="512" cy="425" r="345"/>
<path class="st1" d="M606.2,440.2c19.4,0,38.8,0,58.2,0c42.4,0.1,75.5,30.7,77.7,73.1c1.2,22.9,1.2,45.9,0,68.8
	c-2,40.7-31.9,70.7-72.5,72.9c-23.7,1.3-47.6,1.4-71.3-0.1c-39-2.4-70-34.5-70.7-73.8c-0.7-41.6-0.3-83.3-0.2-124.9
	c0-9.6,6.8-15.9,16.5-15.9C564.7,440.2,585.4,440.2,606.2,440.2L606.2,440.2z"/>
<path class="st1" d="M417.4,409.7c-19.2,0-38.5,0.1-57.7,0c-39.1-0.2-69.7-25.7-77-64.1c-0.4-2.3-0.7-4.7-0.8-7
	c-0.7-23.9-1.3-47.9,0.1-71.8c2.3-39.6,32.1-69.4,71.6-71.7c23.9-1.4,47.9-1.4,71.8,0.1c39.9,2.5,70.7,35.1,71.1,75
	c0.5,41,0.2,82,0.1,123c0,10.2-6.6,16.5-17,16.6C458.9,409.7,438.2,409.7,417.4,409.7L417.4,409.7z"/>
<path class="st2" d="M554,476L554,476c0-2.1,0.2-5,2.4-7c2.1-1.9,4.9-2,6.7-2l0,0c19.2,0.1,38.3,0.1,57.5,0.1c14.4,0,28.8,0,43.2,0
	c15,0,28,5.3,37.2,14.5s14.5,22.1,14.6,37.1l0,0c0.1,19.4,0.1,38.8,0,58.2c-0.1,15-5.3,28-14.5,37.2s-22.2,14.4-37.2,14.5l0,0
	c-19.2,0.1-38.5,0.1-57.7,0l0,0c-15.2-0.1-28.2-5.2-37.4-14.5c-9.3-9.2-14.5-22.2-14.6-37.4L554,476z M554,476
	c0.2,13,0.2,26,0.1,39.1 M554,476l0.1,39.1 M554.1,515.1c0,4.7,0,9.3,0,14 M554.1,515.1v14 M554.1,529.1c0,4.8,0,9.6,0,14.4
	 M554.1,529.1v14.4 M554.1,543.6c0,11,0,22.1,0,33.2V543.6z M563.1,471L563.1,471L563.1,471z"/>
<path class="st3" d="M554.1,330.4L554.1,330.4 M554.1,330.4L554.1,330.4"/>
<path class="st2" d="M462.6,467.1L462.6,467.1 M462.6,467.1L462.6,467.1"/>
<g>
	<path class="st1" d="M417.4,440.3c20.7,0,41.5,0,62.2,0c10.4,0,17,6.4,17,16.6c0.1,41,0.4,82-0.1,123c-0.4,39.9-31.2,72.5-71.1,75
		c-23.9,1.5-47.9,1.4-71.8,0.1c-39.5-2.3-69.3-32.1-71.6-71.7c-1.4-23.9-0.7-47.9-0.1-71.8c0.1-2.3,0.3-4.7,0.8-7
		c7.3-38.4,37.9-63.9,77-64.1C379,440.1,398.2,440.2,417.4,440.3L417.4,440.3z"/>
</g>
<g>
	<path class="st1" d="M606.7,409.7c-20.7,0-41.5,0-62.2,0c-10.4,0-17-6.4-17-16.6c-0.1-41-0.4-82,0.1-123
		c0.4-39.9,31.2-72.5,71.1-75c23.9-1.5,47.9-1.4,71.8-0.1c39.5,2.3,69.3,32.1,71.6,71.7c1.4,23.9,0.7,47.9,0.1,71.8
		c-0.1,2.3-0.3,4.7-0.8,7c-7.3,38.4-37.9,63.9-77,64.1C645.2,409.8,625.9,409.7,606.7,409.7L606.7,409.7z"/>
</g>
<path class="st2" d="M460.8,467L460.8,467c2.1,0,5,0.2,7,2.4c1.9,2.1,2,4.9,2,6.7l0,0c-0.1,19.2-0.1,38.3-0.1,57.5
	c0,14.4,0,28.8,0,43.2c0,15-5.3,28-14.5,37.2s-22.1,14.5-37.1,14.6l0,0c-19.4,0.1-38.8,0.1-58.2,0c-15-0.1-28-5.3-37.2-14.5
	s-14.4-22.2-14.5-37.2l0,0c-0.1-19.2-0.1-38.5,0-57.7l0,0c0.1-15.2,5.2-28.2,14.5-37.4c9.2-9.3,22.2-14.5,37.4-14.6L460.8,467z
	 M460.8,467c-13,0.2-26,0.2-39.1,0.1 M460.8,467l-39.1,0.1 M421.7,467.1c-4.7,0-9.3,0-14,0 M421.7,467.1h-14 M407.7,467.1
	c-4.8,0-9.6,0-14.4,0 M407.7,467.1h-14.4 M393.2,467.1c-11,0-22.1,0-33.2,0H393.2z M465.8,476.1L465.8,476.1L465.8,476.1z"/>
<path class="st2" d="M469.8,374.4L469.8,374.4c0,2.1-0.2,5-2.4,7c-2.1,1.9-4.9,2-6.7,2l0,0c-19.2-0.1-38.3-0.1-57.5-0.1
	c-14.4,0-28.8,0-43.2,0c-15,0-28-5.3-37.2-14.5s-14.5-22.1-14.6-37.1l0,0c-0.1-19.4-0.1-38.8,0-58.2c0.1-15,5.3-28,14.5-37.2
	s22.2-14.4,37.2-14.5l0,0c19.2-0.1,38.5-0.1,57.7,0l0,0c15.2,0.1,28.2,5.2,37.4,14.5c9.3,9.2,14.5,22.2,14.6,37.4L469.8,374.4z
	 M469.8,374.4c-0.2-13-0.2-26-0.1-39.1 M469.8,374.4l-0.1-39.1 M469.7,335.3c0-4.7,0-9.3,0-14 M469.7,335.3v-14 M469.7,321.3
	c0-4.8,0-9.6,0-14.4 M469.7,321.3v-14.4 M469.7,306.8c0-11,0-22.1,0-33.2V306.8z M460.7,379.4L460.7,379.4L460.7,379.4z"/>
<path class="st4" d="M563,383.4L563,383.4c-2.1,0-5-0.2-7-2.4c-1.9-2.1-2-4.9-2-6.7l0,0c0.1-19.2,0.1-38.3,0.1-57.5
	c0-14.4,0-28.8,0-43.2c0-15,5.3-28,14.5-37.2s22.1-14.5,37.1-14.6l0,0c19.4-0.1,38.8-0.1,58.2,0c15,0.1,28,5.3,37.2,14.5
	s14.4,22.2,14.5,37.2l0,0c0.1,19.2,0.1,38.5,0,57.7l0,0c-0.1,15.2-5.2,28.2-14.5,37.4c-9.2,9.3-22.2,14.5-37.4,14.6L563,383.4z
	 M563,383.4c13-0.2,26-0.2,39.1-0.1 M563,383.4l39.1-0.1 M602.1,383.3c4.7,0,9.3,0,14,0 M602.1,383.3h14 M616.1,383.3
	c4.8,0,9.6,0,14.4,0 M616.1,383.3h14.4 M630.6,383.3c11,0,22.1,0,33.2,0H630.6z M558,374.3L558,374.3L558,374.3z"/>
</svg>
