<?xml version="1.0" encoding="utf-8"?>
<!-- Generator: Adobe Illustrator 26.3.1, SVG Export Plug-In . SVG Version: 6.00 Build 0)  -->
<svg version="1.1" id="Layer_1" xmlns="http://www.w3.org/2000/svg" xmlns:xlink="http://www.w3.org/1999/xlink" x="0px" y="0px"
	 viewBox="0 0 1024 868" style="enable-background:new 0 0 1024 868;" xml:space="preserve">
<style type="text/css">
	.st0{fill:#F1F5F8;}
	.st1{fill:#3DB6B8;}
	.st2{fill:#394249;}
	.st3{fill:#56C3C5;}
	.st4{fill:#EDEEEF;}
	.st5{fill:#35A9AB;}
	.st6{fill:#FD9B74;}
	.st7{fill:#FFFFFF;}
</style>
<g>
	<circle class="st0" cx="512" cy="434" r="345"/>
	<path class="st1" d="M797,577.8v53.5c-5.8,24.3-22.1,37.3-47.2,37.3c-20.2,0-40.3,0-60.4,0c-2.8,0-5.6,0.2-8.2-0.9
		c-6.8-5-12-11.5-18.1-17.3c-8.2-7.8-16.9-14.4-28.3-16.6c-3.9-0.7-7.7-0.9-11.6-0.9c-75.2,0-150.5,0.1-225.7-0.1
		c-15.4,0-28.1,5.5-39,15.9c-6.6,6.3-12.4,13.3-19.6,18.9c-2.3,1-4.7,0.9-7.1,0.9c-20,0-39.9,0.4-59.9-0.1
		c-18.9-0.4-33.1-9.2-41.7-26.4c-1.7-3.4-1.8-7.1-2.8-10.7V560c0.1-18.4-2.4-37.1,5.3-54.8c1-2.3,1.5-4.9,3.4-6.8
		c2.1,2.1,2.2,5,2.9,7.7c4,15.3,15,25,30.5,25.3c23.9,0.6,47.8,0.1,71.7,0.2c4.1,0,6.9-2.1,9.7-4.7c3.1-2.8,5.3-6.8,9.9-7.8
		c4.2,0.8,6.4,4.3,9,7c3.7,3.9,7.9,5.5,13.3,5.5c29.6-0.1,59.3,0.1,88.9-0.2c7.3-0.1,12.8,2,17.6,7.4c4.6,5.3,9.8,10.1,14.9,15
		c5.9,5.7,9.4,5.7,15.2,0.1c5.7-5.5,11.4-11.1,16.9-16.9c3.7-3.9,7.9-5.5,13.3-5.5c29.3,0.2,58.5-0.1,87.8,0.2
		c7.8,0.1,14.1-1.5,19.1-7.8c1.7-2.1,3.6-4.3,6.6-4.8c3.5,0.3,5.6,3,7.5,5.3c4.7,5.7,10.4,7.4,17.6,7.3c20.6-0.4,41.1-0.1,61.7-0.1
		c19.6,0,30.4-8.4,35.5-27.1c0.6-2.1,0.7-4.4,2.5-6.1c4.4,6.8,6.2,14.6,7.8,22.4c0.3,1.2-0.1,2.6,1.1,3.5V577.8z"/>
	<path class="st2" d="M689.9,667.2c21.6,0,43.1,0.1,64.7,0c19.5,0,34.3-11.7,40.6-31.7c0.4-1.3,0.3-3,1.7-3.8v58.9
		c-3.5,10.2-9.1,18.1-19.6,20.4c-2.2,0.5-4.4,0.7-6.6,0.7c-20.9,0-41.7,0.1-62.6,0c-16.2,0-26.4-11.2-26.5-28.9
		c0-5.2,0-10.4-0.1-15.5C681.6,667.3,689.9,667.2,689.9,667.2L689.9,667.2z"/>
	<path class="st3" d="M702.8,407.3c1.3,2.5,3,4.6,5.1,6.5c6.2,6.3,12.1,12.9,17,20.2c8,8.4,20.6,17.2,29.2,24.9
		c-0.1,2.8-5.6-0.6-7,0.5c-21.8,8.6-43.4,17.8-65.4,26c-10.4,3.9-19,9.6-25.9,18.1c-8.2,11.8-19.6,14.1-33.4,13.6
		c-26.1-0.9-52.3-0.2-78.4-0.4c-5.8,0-10.4,1.6-14.3,5.9c-4.1,4.5-8.6,8.7-13,13c-3.1,3.1-6,3.1-9.1,0c-4.4-4.3-8.8-8.5-13-13
		c-3.9-4.3-8.4-6-14.3-6c-29.1,0.2-58.2-0.2-87.4,0.3c-8.1,0.1-14.4-2-19.4-8.3c-1.5-1.9-3.2-3.6-5.1-5.1
		c-7.7-10.5-18.9-15.5-30.6-20c-20.1-7.7-40-15.7-59.8-24c-1.5-1.4-4.6-0.3-5.1-3.3c8.7-7.6,18.4-14.1,26.5-22.4
		c5.1-7.2,10.8-13.9,17-20.2c1.7-2.2,3.4-4.4,5.1-6.5c2.7-0.8,5.5-0.9,8.3-0.9c121.6,0,243.1,0,364.7,0
		C697.3,406.4,700.1,406.6,702.8,407.3L702.8,407.3z"/>
	<path class="st2" d="M702.7,407.3c-1.7,1.7-3.9,0.9-5.8,0.9c-123.2,0-246.4,0-369.6,0c-1.9,0-4.1,0.7-5.8-1
		c10.1-14.6,16-31.2,23.5-47c12.8-26.8,33.8-41.1,63.6-41.1c69.4-0.1,138.7-0.2,208.1,0c28.9,0.1,49.4,14.4,62,40.1
		C686.6,375.3,692.5,392.4,702.7,407.3L702.7,407.3z"/>
	<path class="st3" d="M681.2,666.9c-3,0-5.9,0.1-8.9,0.1c-106.8,0-213.6,0-320.4,0l-13.4-0.1c7.8-8.2,15.5-16.5,24.1-23.8
		c9.7-8.2,21-11.9,33.8-11.9c75.1,0.1,150.2,0.2,225.3-0.1c15.1-0.1,28,4.3,38.8,14.8C667.6,652.7,674.3,659.9,681.2,666.9
		L681.2,666.9z"/>
	<path class="st4" d="M278.4,458.4c24.7,9.9,49.3,20,74.1,29.7c7.2,2.8,11,9,16.2,13.9c3.5,6.4,0.5,13.2-8,17.7
		c-1.3,1.1-2.8,2-3.7,3.3c-6.3,8.7-14.7,10.9-25.2,10.5c-19.6-0.8-39.3-0.2-59-0.2c-21.7,0-35.2-12.9-36.8-34.8
		c3.7-11.3,10.8-20.4,19.4-28.2c4.7-4.3,9.3-8.9,15.2-11.7C273.2,457.5,275.8,457.8,278.4,458.4L278.4,458.4z"/>
	<path class="st4" d="M655.4,502c7-9.4,16.7-14.5,27.5-18.5c21.5-8,42.6-16.8,63.9-25.2c2.2-0.4,4.4-0.9,6.6,0.1
		c12,9.1,23.8,18.4,30.8,32.3c1.3,2.5,4.3,4.2,3.8,7.6c-1.6,21.7-15.4,34.7-36.9,34.8c-21.7,0-43.4-0.2-65.1,0.1
		c-6.3,0.1-11.1-1.6-15.1-6.4c-2.2-2.7-5.1-4.8-7.6-7.2c-4.5-1.7-6.9-5.4-9-9.4C652.8,507.3,653.5,504.6,655.4,502L655.4,502z"/>
	<path class="st2" d="M326.5,667.1c4,0,8,0.1,12,0.1c0,6.1,0,12.2-0.1,18.3c-0.4,14.3-10.4,25.8-23.1,26c-21.7,0.3-43.4,0.3-65.1,0
		c-12.5-0.1-22.9-11.6-23.1-25.5c-0.2-18.1,0-36.3,0.1-54.4c2.9,7.8,5.5,15.7,11,21.9c7.9,8.7,17.3,13.5,28.4,13.6
		C286.6,667.2,306.6,667.1,326.5,667.1L326.5,667.1z"/>
	<path class="st5" d="M724.8,434.1c-6.5-6-12.5-12.5-17-20.2c0.1-7.2,0.1-14.5,0.2-21.7c0.1-7.3,3.3-10.6,10.5-10.6
		c13.7-0.1,27.4-0.1,41.1,0c7.3,0,10.6,3.2,10.7,10.4c0.1,7.8,0.1,15.6,0,23.4c0,6.7-2.2,9.5-8.7,10.8c-10.9,2.3-21.7,4.4-32.6,6.6
		C727.5,433.1,726.2,433.7,724.8,434.1L724.8,434.1z"/>
	<path class="st5" d="M316.4,413.8c-4.5,7.7-10.4,14.3-17,20.2c-11.9-3.5-24.2-5-36.3-7.8c-7-1.6-9.2-4-9.2-10.9
		c-0.1-7.8-0.1-15.6,0-23.4c0.1-7,3.3-10.4,10.1-10.4c14.1-0.1,28.2-0.1,42.2,0c6.5,0,9.8,3.4,10,10
		C316.3,399,316.3,406.4,316.4,413.8z"/>
	<path class="st6" d="M278.4,458.4c-2.6,0-5.2,0-7.8,0c0.4-1.1,1.2-1.7,2.3-2C274.3,458.2,277,456.4,278.4,458.4L278.4,458.4z"/>
	<path class="st5" d="M655.4,502c-1.8,4.9-0.3,8.8,3.3,12.3c1.7,1.6,3.7,3,4.6,5.3c-0.6,0.4-1.4,0.7-1.8,1.3
		c-7.5,10.8-17.9,12.8-30.4,12.4c-27.8-0.8-55.6-0.2-83.5-0.3c-3.6,0-6.3,0.9-8.8,3.6c-6.2,6.6-12.8,13-19.2,19.4
		c-5.5,5.4-9.9,5.4-15.4,0c-6.5-6.4-13-12.7-19.2-19.4c-2.5-2.7-5.2-3.6-8.8-3.6c-31,0.1-62-0.1-92.9,0.2
		c-6.3,0.1-11.1-1.5-15.1-6.4c-2.2-2.7-5.1-4.8-7.6-7.3c0.9-2.3,3-3.7,4.6-5.3c3.6-3.5,5.2-7.4,3.3-12.3c0.8,0.7,1.9,1.3,2.5,2.2
		c6.7,9.7,15.9,11.7,27.3,11.4c27.9-0.8,55.9-0.2,83.9-0.3c4.8,0,8.5,1.4,11.8,4.9c4.9,5.3,10.2,10.2,15.2,15.4c2,2.1,3.4,2.1,5.4,0
		c5-5.2,10.3-10.1,15.2-15.4c3.3-3.5,6.9-5,11.8-5c30.9,0.2,61.9,0,92.8,0.2c5.3,0,9.2-1.2,12.5-5.3
		C649.6,507.2,652.7,504.7,655.4,502L655.4,502z"/>
	<path class="st7" d="M526.5,466.5c15.8,6,16.5,11.3,3.3,22.7c-5.6,4.8-10.9,9.9-16.4,14.8c-5,4.4-10.2,4.6-13.9,0.6
		c-3.8-4.1-3.3-9.1,1.6-13.7c1.5-1.5,3.2-2.8,4.8-4.2c1.5-1.4,3-2.9,4.9-4.7c-2.6-0.8-4.7-1.2-6.6-2c-7-2.7-8.8-10.3-3.4-15.5
		c7.4-7.1,15.2-13.9,22.9-20.6c4.7-4,9.9-3.7,13.4,0.3c3.1,3.6,2.6,9-1.4,13c-1.6,1.7-3.5,3.1-5.1,4.8
		C529.3,463.5,527,464.2,526.5,466.5L526.5,466.5z"/>
</g>
</svg>
