<svg width="1024" height="850" viewBox="0 0 1024 850" fill="none" xmlns="http://www.w3.org/2000/svg">
<circle cx="509" cy="425" r="345" fill="#F1F5F8"/>
<path d="M298.211 715.999C336.987 715.999 368.421 684.565 368.421 645.789C368.421 607.013 336.987 575.578 298.211 575.578C259.434 575.578 228 607.013 228 645.789C228 684.565 259.434 715.999 298.211 715.999Z" fill="#292F33"/>
<path d="M298.209 692.597C324.06 692.597 345.017 671.64 345.017 645.79C345.017 619.939 324.06 598.982 298.209 598.982C272.359 598.982 251.402 619.939 251.402 645.79C251.402 671.64 272.359 692.597 298.209 692.597Z" fill="#CAD8E1"/>
<path d="M719.476 715.999C758.253 715.999 789.687 684.565 789.687 645.789C789.687 607.013 758.253 575.578 719.476 575.578C680.7 575.578 649.266 607.013 649.266 645.789C649.266 684.565 680.7 715.999 719.476 715.999Z" fill="#292F33"/>
<path d="M719.473 692.597C745.324 692.597 766.28 671.64 766.28 645.79C766.28 619.939 745.324 598.982 719.473 598.982C693.622 598.982 672.666 619.939 672.666 645.79C672.666 671.64 693.622 692.597 719.473 692.597Z" fill="#CAD8E1"/>
<path d="M633.849 649.627C633.802 648.348 633.662 647.084 633.662 645.789C633.662 623.03 642.703 601.203 658.796 585.11C674.889 569.017 696.716 559.976 719.475 559.976C738.354 559.976 755.766 566.154 769.933 576.483L783.819 557.682C765.165 543.964 742.615 536.567 719.459 536.572C690.493 536.572 662.714 548.079 642.232 568.561C621.75 589.043 610.243 616.823 610.243 645.789C610.243 647.38 610.414 648.925 610.477 650.501L633.849 649.627ZM315.826 561.801C335.094 565.843 352.387 576.386 364.803 591.664C377.22 606.941 384.007 626.024 384.024 645.711L438.632 645.758C438.617 578.043 390.671 521.532 326.873 508.301C323.253 525.931 319.446 544.342 315.826 561.801Z" fill="#56C3C5"/>
<path d="M296.571 653.559C294.55 653.125 292.783 651.907 291.657 650.173C290.531 648.439 290.138 646.33 290.564 644.307L384.209 203.727C384.644 201.706 385.861 199.939 387.595 198.813C389.329 197.688 391.439 197.295 393.462 197.72C395.483 198.155 397.25 199.372 398.376 201.106C399.501 202.84 399.894 204.949 399.469 206.973L305.823 647.552C305.389 649.573 304.171 651.34 302.437 652.466C300.703 653.592 298.594 653.985 296.571 653.559Z" fill="#263238"/>
<path d="M323.534 564.05L308.275 560.805C304.232 559.936 300.699 557.501 298.447 554.033C296.195 550.565 295.409 546.346 296.261 542.3L315.717 450.73C316.586 446.687 319.021 443.154 322.489 440.902C325.957 438.65 330.175 437.865 334.222 438.716L349.481 441.961C357.875 443.74 363.289 452.072 361.494 460.466L342.054 552.02C341.178 556.063 338.74 559.595 335.271 561.848C331.802 564.102 327.583 564.893 323.534 564.05Z" fill="#56C3C5"/>
<path d="M373.101 221.78L342.568 215.289C336.506 213.983 331.208 210.33 327.831 205.129C324.455 199.928 323.274 193.602 324.547 187.533C325.854 181.47 329.506 176.171 334.707 172.792C339.907 169.413 346.233 168.228 352.303 169.496L382.822 175.987C388.883 177.294 394.181 180.947 397.558 186.148C400.935 191.349 402.116 197.675 400.842 203.744C399.539 209.805 395.89 215.104 390.692 218.483C385.494 221.863 379.17 223.048 373.101 221.78Z" fill="#263238"/>
<path d="M397.131 180.448C391.061 179.171 384.733 180.35 379.531 183.727C374.329 187.104 370.677 192.405 369.374 198.469L348.295 297.669C347.448 301.714 348.236 305.931 350.487 309.398C352.738 312.865 356.269 315.301 360.309 316.173L375.568 319.418C379.614 320.266 383.831 319.478 387.298 317.227C390.765 314.976 393.2 311.445 394.073 307.405L415.151 208.205C416.424 202.136 415.244 195.81 411.867 190.609C408.49 185.408 403.192 181.755 397.131 180.448Z" fill="#56C3C5"/>
<path d="M448.071 237.71L402.294 227.975C396.232 226.668 390.934 223.015 387.558 217.814C384.181 212.613 383 206.287 384.273 200.218C385.58 194.156 389.233 188.858 394.434 185.482C399.635 182.105 405.961 180.924 412.03 182.197L457.807 191.933C463.869 193.24 469.167 196.893 472.544 202.094C475.92 207.295 477.101 213.621 475.828 219.69C474.525 225.753 470.873 231.054 465.671 234.431C460.469 237.809 454.141 238.988 448.071 237.71Z" fill="#263238"/>
<path d="M476.125 219.751C475.573 222.839 474.405 225.785 472.692 228.412C470.978 231.04 468.754 233.297 466.152 235.048C463.549 236.799 460.621 238.009 457.541 238.606C454.461 239.203 451.293 239.175 448.224 238.523C445.156 237.871 442.25 236.609 439.679 234.812C437.108 233.015 434.924 230.719 433.258 228.061C431.592 225.403 430.477 222.437 429.979 219.34C429.482 216.243 429.613 213.077 430.363 210.031C431.817 204.131 435.508 199.028 440.656 195.801C445.805 192.573 452.006 191.475 457.95 192.737C463.893 194 469.113 197.524 472.505 202.566C475.897 207.607 477.195 213.77 476.125 219.751Z" fill="#172025"/>
<path d="M777.046 578.699C783.422 578.699 788.591 573.53 788.591 567.153C788.591 560.777 783.422 555.607 777.046 555.607C770.669 555.607 765.5 560.777 765.5 567.153C765.5 573.53 770.669 578.699 777.046 578.699Z" fill="#3DB6B8"/>
<path d="M719.476 669.192H407.429C394.557 669.192 384.025 658.66 384.025 645.788C384.025 632.916 394.557 622.385 407.429 622.385H719.476C732.348 622.385 742.88 632.916 742.88 645.788C742.88 658.66 732.348 669.192 719.476 669.192Z" fill="#3DB6B8"/>
</svg>
