<svg width="1024" height="850" viewBox="0 0 1024 850" fill="none" xmlns="http://www.w3.org/2000/svg">
<circle cx="509" cy="425" r="345" fill="#F1F5F8"/>
<path d="M298.211 715.999C336.987 715.999 368.421 684.565 368.421 645.789C368.421 607.013 336.987 575.578 298.211 575.578C259.434 575.578 228 607.013 228 645.789C228 684.565 259.434 715.999 298.211 715.999Z" fill="#292F33"/>
<path d="M298 710C333.346 710 362 681.346 362 646C362 610.654 333.346 582 298 582C262.654 582 234 610.654 234 646C234 681.346 262.654 710 298 710Z" fill="#394249"/>
<path d="M298.209 692.597C324.06 692.597 345.017 671.64 345.017 645.79C345.017 619.939 324.06 598.982 298.209 598.982C272.359 598.982 251.402 619.939 251.402 645.79C251.402 671.64 272.359 692.597 298.209 692.597Z" fill="#F1F5F8"/>
<path d="M719.476 715.999C758.253 715.999 789.687 684.565 789.687 645.789C789.687 607.013 758.253 575.578 719.476 575.578C680.7 575.578 649.266 607.013 649.266 645.789C649.266 684.565 680.7 715.999 719.476 715.999Z" fill="#292F33"/>
<path d="M719.5 709C754.57 709 783 680.57 783 645.5C783 610.43 754.57 582 719.5 582C684.43 582 656 610.43 656 645.5C656 680.57 684.43 709 719.5 709Z" fill="#394249"/>
<path d="M719.473 692.597C745.324 692.597 766.28 671.64 766.28 645.79C766.28 619.939 745.324 598.982 719.473 598.982C693.622 598.982 672.666 619.939 672.666 645.79C672.666 671.64 693.622 692.597 719.473 692.597Z" fill="#F1F5F8"/>
<path d="M780.302 558.236L769.378 573.027C755.184 563.268 738.017 557.476 719.475 557.476C696.053 557.476 673.59 566.78 657.028 583.342C646.376 593.994 638.726 607.088 634.623 621.307C634.226 622.684 633.972 623.564 633.813 624.111C633.813 624.111 633.813 624.111 633.813 624.111C633.783 624.176 633.761 624.231 633.749 624.26C633.726 624.316 633.698 624.395 633.663 624.5H615.341C615.344 624.252 615.347 624.002 615.35 623.75C615.356 623.267 615.362 622.776 615.364 622.28C619.773 602.759 629.624 584.704 643.999 570.329C664.013 550.316 691.156 539.072 719.459 539.072H719.46C741.246 539.068 762.485 545.77 780.302 558.236ZM318.773 559.901C322.073 543.982 325.513 527.343 328.813 511.28C382.802 523.509 424.773 567.413 434.161 622.421C434.225 622.796 434.284 623.134 434.338 623.439C434.303 623.589 434.281 623.72 434.266 623.816C434.233 624.036 434.208 624.279 434.189 624.539L405.46 625L404.891 625.009L404.382 625.264L393.382 630.764L392.908 631.001L392.571 631.41L386.268 639.058C384.902 621.18 378.118 604.082 366.744 590.087C354.49 575.01 337.623 564.413 318.773 559.901Z" stroke="#263238" stroke-width="5"/>
<path d="M296.571 653.559C294.55 653.125 292.783 651.907 291.657 650.173C290.531 648.439 290.138 646.33 290.564 644.307L384.209 203.727C384.644 201.706 385.861 199.939 387.595 198.813C389.329 197.688 391.439 197.295 393.462 197.72C395.483 198.155 397.25 199.372 398.376 201.106C399.501 202.84 399.894 204.949 399.469 206.973L305.823 647.552C305.389 649.573 304.171 651.34 302.437 652.466C300.703 653.592 298.594 653.985 296.571 653.559Z" fill="#263238"/>
<path d="M349.481 441.961L334.222 438.716C330.175 437.865 325.957 438.65 322.489 440.902C319.021 443.154 316.586 446.687 315.717 450.73L349.481 441.961ZM349.481 441.961C357.875 443.74 363.289 452.072 361.494 460.466L349.481 441.961ZM318.162 451.252C318.892 447.857 320.937 444.89 323.85 442.999C326.763 441.108 330.306 440.447 333.704 441.162C333.705 441.162 333.706 441.162 333.707 441.162L348.961 444.407L348.962 444.407C356.005 445.899 360.555 452.902 359.05 459.943L359.049 459.946L339.611 551.491C339.61 551.493 339.61 551.494 339.61 551.496C338.872 554.892 336.823 557.859 333.909 559.752C330.995 561.645 327.451 562.31 324.048 561.603C324.047 561.603 324.045 561.603 324.043 561.602L308.8 558.36C308.799 558.36 308.799 558.36 308.798 558.36C305.403 557.63 302.435 555.585 300.544 552.672C298.653 549.759 297.992 546.216 298.707 542.817C298.707 542.817 298.707 542.816 298.707 542.815L318.161 451.255C318.162 451.254 318.162 451.253 318.162 451.252Z" stroke="#263238" stroke-width="5"/>
<path d="M373.101 221.78L342.568 215.289C336.506 213.983 331.208 210.33 327.831 205.129C324.455 199.928 323.274 193.602 324.547 187.533C325.854 181.47 329.506 176.171 334.707 172.792C339.907 169.413 346.233 168.228 352.303 169.496L382.822 175.987C388.883 177.294 394.181 180.947 397.558 186.148C400.935 191.349 402.116 197.675 400.842 203.744C399.539 209.805 395.89 215.104 390.692 218.483C385.494 221.863 379.17 223.048 373.101 221.78Z" fill="#263238"/>
<path d="M380.893 185.824C385.538 182.808 391.189 181.754 396.61 182.893C402.023 184.062 406.754 187.325 409.77 191.97C412.787 196.616 413.842 202.267 412.705 207.689C412.705 207.69 412.705 207.691 412.705 207.691L391.629 306.877C391.629 306.878 391.628 306.88 391.628 306.881C390.894 310.274 388.848 313.24 385.936 315.13C383.025 317.021 379.483 317.683 376.086 316.973C376.084 316.972 376.082 316.972 376.081 316.972L360.837 313.729C357.442 312.996 354.475 310.95 352.583 308.037C350.693 305.125 350.031 301.583 350.741 298.185C350.742 298.184 350.742 298.182 350.742 298.181L371.818 198.994C371.818 198.993 371.819 198.992 371.819 198.992C372.983 193.575 376.246 188.841 380.893 185.824Z" stroke="#263238" stroke-width="5"/>
<path d="M448.071 237.71L402.294 227.975C396.232 226.668 390.934 223.015 387.558 217.814C384.181 212.613 383 206.287 384.273 200.218C385.58 194.156 389.233 188.858 394.434 185.482C399.635 182.105 405.961 180.924 412.03 182.197L457.807 191.933C463.869 193.24 469.167 196.893 472.544 202.094C475.92 207.295 477.101 213.621 475.828 219.69C474.525 225.753 470.873 231.054 465.671 234.431C460.469 237.809 454.141 238.988 448.071 237.71Z" fill="#263238"/>
<path d="M476.125 219.751C475.573 222.839 474.405 225.785 472.692 228.412C470.978 231.04 468.754 233.297 466.152 235.048C463.549 236.799 460.621 238.009 457.541 238.606C454.461 239.203 451.293 239.175 448.224 238.523C445.156 237.871 442.25 236.609 439.679 234.812C437.108 233.015 434.924 230.719 433.258 228.061C431.592 225.403 430.477 222.437 429.979 219.34C429.482 216.243 429.613 213.077 430.363 210.031C431.817 204.131 435.508 199.028 440.656 195.801C445.805 192.573 452.006 191.475 457.95 192.737C463.893 194 469.113 197.524 472.505 202.566C475.897 207.607 477.195 213.77 476.125 219.751Z" fill="#172025"/>
<path d="M786.091 567.153C786.091 572.149 782.041 576.199 777.045 576.199C774.379 576.199 772.391 575.319 771.279 574.276C770.306 573.363 770.064 572.442 770.259 571.643L779.833 558.421C780.09 558.465 780.397 558.554 780.754 558.711C781.537 559.057 782.411 559.673 783.238 560.538C784.914 562.291 786.091 564.737 786.091 567.153Z" stroke="#263238" stroke-width="5"/>
<path d="M719.476 666.692H407.429C395.938 666.692 386.525 657.28 386.525 645.788C386.525 634.297 395.938 624.885 407.429 624.885H719.476C730.968 624.885 740.38 634.297 740.38 645.788C740.38 657.28 730.968 666.692 719.476 666.692Z" stroke="#263238" stroke-width="5"/>
</svg>
