<?xml version="1.0" encoding="utf-8"?>
<!-- Generator: Adobe Illustrator 26.3.1, SVG Export Plug-In . SVG Version: 6.00 Build 0)  -->
<svg version="1.1" id="Layer_1" xmlns="http://www.w3.org/2000/svg" xmlns:xlink="http://www.w3.org/1999/xlink" x="0px" y="0px"
	 viewBox="0 0 1024 850" style="enable-background:new 0 0 1024 850;" xml:space="preserve">
<style type="text/css">
	.st0{fill:#F1F5F8;}
	.st1{fill:#56C3C5;}
	.st2{fill:#3DB6B8;}
	.st3{fill:#DDE6EC;}
	.st4{fill:#CAD8E1;}
	.st5{fill:#373737;}
	.st6{fill:#394249;}
</style>
<g>
	<circle class="st0" cx="512" cy="455" r="345"/>
	<path class="st1" d="M93,340.3c35.8,0.6,27.5-5.7,43.9,31.6c8.2,18.6,15.8,37.5,23.7,56.2c-2,2.9-4.9,3.2-7.7,3.2
		c-10.7,0.1-21.4,0.8-32.1-0.5c-4.7-1-6.2-5.4-7.4-9.9c-6.8-25.5-15.9-50.3-20.4-76.6V340.3z"/>
	<path class="st1" d="M93,514.3c9.2-15.7,14.7-33.5,22.6-50c2-2.2,4.4-2.3,6.8-1.8c6.1,1.9,12.3,0.9,18.5,1
		c4.6,0.9,10.3-1.3,12.2,6.5c-8.1,12.8-16.2,25.7-24.4,38.5c-3.7,5.8-8.6,8.1-14.8,8.3c-7,0.3-14.9,1.5-20.9,1.5V514.3L93,514.3z"/>
	<path class="st1" d="M382.2,498.7c-1.8-4.1-3.6-8.2-5.4-12.3c0.3-3.3,2.4-5.2,4.3-7.1c24.9-24.5,50-48.5,74.7-73.3
		c10.3-10.3,21.9-15,35.5-14.5c8.8,0.3,17.7,1.2,26.5-1.1c9.3-2.3,12.4-6.7,13.2-17.8c0.3-4.9-0.9-10.1,2.2-14.4
		c12.1,0,24.3,0,36.4-0.2c3,0,6.3,1.2,8.7-2.2c5.7-0.5,11.6,0,16.7-3.9c-0.2,6.5,3.7,6.2,7.6,6.2c5.1-0.1,10.3-0.9,14.9,3.1
		c5.2,4.6,7.2,10.6,7.1,18.2c-0.2,12.7,0,12.7,11.2,12.7c14,0,28.1-0.2,42.1,0.1c13.3,0.3,25.8,4.9,37.6,11.8
		c1.6,0.9,2.9,2.1,3.5,4.1c-9.1,4.7-12,12.7-8.7,24.1c5.5,18.9,10.9,37.8,16.3,56.8c1,3.4,3.7,7.3-0.4,10.7
		c-9.6,1.4-19.2,2.4-28.8-0.6c-0.4-24.7-7.4-48-11.5-72c-2.1-12.3-4.2-14-15.2-14.2c-23.1-0.6-23.3-0.6-23.1,26.8
		c0.2,18.9-1.4,38,1.4,56.9c0.2,1.1-0.5,1.8-1.1,2.6c-8.9,2.6-17.8,3-26.6-0.4c0.8-21.9,0.6-43.7,0.6-65.6c0-18-1.7-20-17.3-20.1
		c-13.4-0.1-26.9-0.2-40.3,0.1c-10.6,0.2-12.8,2.5-12.7,14.7c0.2,22.6-1.5,45.3,1.2,67.8c0.2,1.4-0.2,2.6-1.2,3.5
		c-3.4,2.4-7.2,1.7-10.9,1.8c-48.9,0.1-97.8,0.1-146.7,0C389.8,501.1,385.7,501.7,382.2,498.7L382.2,498.7z"/>
	<path class="st2" d="M533.1,358.3c0.3,32.4-2.2,37-29.8,34.9c-24.2-1.8-41.9,9.3-59,27.2c-21.8,22.8-44.9,44.1-67.5,66
		c-3.8-3.8-8.2-5.7-13.2-6.1c-44.2-2.7-88.3-5.5-132.5-8.3c-23.1-1.5-46.2-2.8-69.2-4.4c-3.2-0.2-6.2-0.7-8.7,2.3
		c-3.3-4.2-7.8-3.7-12-3.7c-6.1-2.7-12.8,0.7-18.9-2c-2.2,0-4.4,0-6.6,0c-0.2-2.6-2-3.8-3.3-5.5c-7.2-10.6-5.4-19.4,6.4-30.5
		c13.9-0.1,27.9-0.2,41.8-0.3c65.5,0.1,131.1,0.2,196.6,0.3c7.8,0,14.4-3.8,20.8-8.4c20.9-15.2,42.6-28.5,64.6-41.3
		C471.2,362,501.2,354.8,533.1,358.3L533.1,358.3z"/>
	<path class="st1" d="M364,453c-0.9,0.4-108,1.8-133.1,1.8s-83.9-5.2-83.9-5.2s85.5-3.3,112-5.3S364,453,364,453z"/>
	<path class="st2" d="M540,479.7c-0.6,0.3-66.2,1.3-81.6,1.3s-51.4-3.9-51.4-3.9s52.4-2.4,68.7-3.9C491.9,471.7,540,479.7,540,479.7
		z"/>
	<path class="st2" d="M397.3,534.7c-8-8.7-10.5-20.8-14-32.2c1.4-6.3,5.8-2.9,8.5-2.9c49.2-0.3,98.5,0.5,147.7-0.5
		c18.8-0.4,37.7-1,56.5-1.7c12.3-0.5,24.5,1.8,36.7,2.1c13.2,0.4,26.1-2.3,39.3-2.2c16.3,0.1,32.4,3.4,48.8,2.1
		c3.1-0.3,6.3,0.5,9.1-1.9c12.5-6.4,25.8-10,38.4-16c2.4-1.2,5-1.4,7.4,0.2c14.7,4.2,29.5,7.9,44,12.8c17.2,5.7,21.8,23.7,10.9,40.3
		c-4.8,2.5-9.9,2.9-15.1,2.9c-134.3,0-268.6,0-403,0C407.3,537.6,402.2,537,397.3,534.7L397.3,534.7z"/>
	<path class="st3" d="M397.3,534.7c3.4-0.1,6.9-0.3,10.3-0.3c137.5,0,275.1,0,412.6,0c3.4,0,6.9,0.2,10.3,0.2
		c-7.4,9.5-18,11.1-27.6,14.5c-31.7,11.2-64,18.5-97.3,19.5c-8.2,0.3-16.4,1.7-24.7,1.7c-4.8,4.5-10.6,2.6-16,2.9
		c-46.9,0.1-93.8,1.1-140.7-0.5c-5.4-2.5-11.8,0.3-16.8-4.4c-13.4-2.7-26.8-5.2-40.1-8c-21.8-4.5-43.5-9.7-63.8-20.5
		C401.1,538.6,398.6,537.6,397.3,534.7L397.3,534.7z"/>
	<path class="st4" d="M507.4,568.3c5.1,0.8,10.5-1.8,15.4,1.9c1.9,4.6,0.8,9.2,0.1,13.7c-1.7,10.8-3.6,21.6-5.5,32.4
		c-2,12.2-1.6,12.9,9.5,13c5.1,0.1,10.3,0,15.5,0c39.5,0,79.1,0,118.6,0c10.9,0,11.4-0.7,9.3-13.2c-1.9-11.1-3.8-22.2-5.7-33.4
		c-0.7-4.2-1.8-8.5,0.8-12.5h15.4c3,18.6,6.1,37.2,9.1,55.8c0.7,4.1,2.6,6.1,6.5,6.1c25.1-0.1,50.6,3.1,73-15.3
		c4.6-3.8,10.2-4.6,13.1,2.6c2.8,6.8-1.8,10.2-6.2,13.1c-16.4,11.1-33.5,16.5-53,16.3c-91.1-0.8-182.2-0.4-273.3-0.4
		c-2.6,0-5.1,0-7.7-0.1c-4.3,0-7.3-1.8-7.3-7.4c0-5.6,2.6-8.8,7.4-8.9c10.9-0.2,21.8-0.1,32.7-0.1c14.3,0,22.8-8.3,25.5-24.8
		C502.9,594.3,505.2,581.3,507.4,568.3L507.4,568.3z"/>
	<path class="st5" d="M925.2,288c7.4,7.2,6.9,11.7-1.7,16.6c-1.9,0.8-4,0.6-6,0.6c-119.2,0-195.3,0-314.5,0.1
		c-4.1,0-8.2,0.3-10.1-5.2c-1.8-5.2-0.2-9,3.9-11.7c2.4-1.8,5-1,7.5-1c119-0.1,195-0.1,314.1,0C920.7,287.3,923,286.9,925.2,288
		L925.2,288z"/>
	<path class="st5" d="M269.3,304.4c-7.4-6.5-7.4-10.1-0.1-16.5c2.5-1.1,5.1-0.6,7.6-0.6c118.2,0,171.8,0,290,0
		c2.6,0,5.1-0.5,7.7,0.6c0.5,0.2,1,0.3,1.5,0.5c4.4,2.8,4.6,7.3,3.2,12.1c-1.3,4.6-4.5,4.9-8.3,4.9c-118.7-0.2-172.7-0.1-291.4-0.2
		C276.1,305.2,272.6,306,269.3,304.4L269.3,304.4z"/>
	<path class="st6" d="M775.7,481.6c-14.4,5.7-28.8,11.3-43.2,17c-1.7,0.7-3.4,1.3-5-0.5c-6.7-14.7-9.6-31-14.3-46.4
		c-2.9-9.3-5.5-18.7-8.1-28.1c-3.3-11.8-2-14,8.7-14.6c1.7-0.1,3.4-0.4,5-0.6c12.6,5.2,21.5,16.3,30.2,27.2
		C759.8,449.3,769.3,464.3,775.7,481.6L775.7,481.6z"/>
	<path class="st3" d="M269.3,304.4c62.1-0.1,59.6-0.2,121.8-0.2c58.7-0.1,117.4,0,176.1,0c11.2,0,13-3.4,8.8-15.8
		c6.9-1,13.8-0.9,20.8-0.1c-5.3,12.2-3.3,15.9,8.9,15.9c116.6,0,190.1,0,306.6,0c3.7,0,7.4,0.3,11.1,0.5c-3.1,2.7-6.7,1.4-10,1.4
		c-115.4,0.1-187.8,0.2-303.2-0.1c-8.2,0-12.4,1.2-12.3,12.5c0.2,11.2-1.9,25.9-3,37.1c-4.5,2.5-10.6,3-16.8,0.5
		c-1.3-13.9-2.8-27.7-3.9-41.6c-0.5-7.1-3.6-8.4-9.1-8.3c-27.5,0.3-55,0.1-82.5,0.1c-89.1,0-113.5,0-202.6-0.1
		C276.5,306.1,272.6,307.4,269.3,304.4L269.3,304.4z"/>
	<path class="st5" d="M925.2,288c-116.7,0-190.3,0.1-306.9,0.1c-7.2,0-14.3,0.1-21.4,0.2c2.6-3.1,5.9-2.1,8.9-2.1
		c118.1-0.1,193.2-0.1,311.3,0C919.8,286.2,922.8,285.3,925.2,288L925.2,288z"/>
	<path class="st5" d="M574.6,287.9c-70.1,0.1-140.2,0.2-210.3,0.2c-53.2,0-41.8-0.1-95-0.2c2.7-2.9,6-1.7,9-1.7
		c117.3-0.1,170-0.1,287.3,0C568.6,286.2,571.9,285.1,574.6,287.9L574.6,287.9z"/>
	<path class="st1" d="M727.6,498.1c1.7,0.2,3.3,0.4,5,0.5c-3,3-6.6,1.7-9.9,1.7c-109.6,0.1-219.1,0.1-328.7,0.2
		c-3.5,0-7.5-1.7-10.6,2c-1.2-0.9-1.3-2.3-1.2-3.8c49.1-0.1,98.3-0.2,147.4-0.3c7.4,0,14.8-0.2,22.3-0.2c2.5-2.9,5.7-2.9,8.8-3
		c17.1-0.2,34.2-0.2,51.4,0c3.1,0,6.3,0.1,8.8,2.9c9.1,0,18.2,0,27.3,0c1.7-2.2,3.9-2.7,6.2-2.8c12-0.5,24-0.5,36,0
		c2.3,0.1,4.5,0.7,6.2,2.8C706.9,498.1,717.2,498.1,727.6,498.1L727.6,498.1z"/>
	<path class="st1" d="M122.2,464.3c6.3,1,12.9-2.2,18.9,2C134.8,465.4,128.2,468.6,122.2,464.3z"/>
	<path class="st6" d="M620.8,498.1c-23,0-46,0-69,0c-2.7-3.4-3.5-7.3-3.4-11.9c0.1-20.6,0-41.3,0.1-61.9c0-10.9,2.3-13.6,11.6-13.7
		c17.4-0.1,34.9-0.2,52.3,0c9.2,0.1,11.7,3.1,11.8,13.6c0.1,20.6-0.1,41.3,0.1,61.9C624.3,490.8,623.4,494.7,620.8,498.1
		L620.8,498.1z"/>
	<path class="st6" d="M696.5,498.1c-16.1,0-32.3,0-48.4,0c-2.3-3.1-3.4-6.6-3.4-10.9c0.2-21.3,0.2-42.5,0-63.8
		c-0.1-8.8,3.2-13,10.7-12.8c35.7,0.5,28-5.2,35.8,32c2.9,13.8,5.2,27.9,8.1,41.7C700.4,489.8,699.9,494.2,696.5,498.1L696.5,498.1z
		"/>
</g>
</svg>
