<?xml version="1.0" encoding="utf-8"?>
<!-- Generator: Adobe Illustrator 26.3.1, SVG Export Plug-In . SVG Version: 6.00 Build 0)  -->
<svg version="1.1" id="Layer_1" xmlns="http://www.w3.org/2000/svg" xmlns:xlink="http://www.w3.org/1999/xlink" x="0px" y="0px"
	 viewBox="0 0 1024 850" style="enable-background:new 0 0 1024 850;" xml:space="preserve">
<style type="text/css">
	.st0{fill:#F1F5F8;}
	.st1{clip-path:url(#SVGID_00000028321966145742391560000013401772552606832575_);fill:#263238;}
	.st2{clip-path:url(#SVGID_00000076563787947524958040000007055970487876885686_);fill:#263238;}
	.st3{clip-path:url(#SVGID_00000031906007086539386850000015126993868026346659_);fill:#263238;}
	.st4{clip-path:url(#SVGID_00000043436041164466250100000005440245901467217848_);fill:#263238;}
	.st5{clip-path:url(#SVGID_00000156586353125473280500000018092582701744148384_);fill:#263238;}
	.st6{fill:#3DB6B8;}
	.st7{clip-path:url(#SVGID_00000041270159788762649070000005282754388189526147_);fill:#263238;}
	.st8{clip-path:url(#SVGID_00000044868729486607941520000000053054650624478883_);fill:#263238;}
	.st9{clip-path:url(#SVGID_00000141421210595300264020000004151503479932963747_);fill:#263238;}
	.st10{clip-path:url(#SVGID_00000130630809647757711040000000355051782283327406_);fill:#263238;}
	.st11{fill:#394249;}
	.st12{clip-path:url(#SVGID_00000000195997960200826890000010440131047098358685_);fill:#263238;}
	.st13{clip-path:url(#SVGID_00000174578865802263197570000014923133680225088140_);fill:#263238;}
	.st14{clip-path:url(#SVGID_00000085226551421642537630000015810845864173780891_);fill:#263238;}
	.st15{clip-path:url(#SVGID_00000072258889261730320520000012987488909870385831_);fill:#263238;}
	.st16{fill:#373737;}
	.st17{clip-path:url(#SVGID_00000049191718073987787850000009645261964300068794_);fill:#263238;}
	.st18{clip-path:url(#SVGID_00000150100671207803821100000018246290536730243251_);fill:#263238;}
	.st19{fill:#56C3C5;}
	.st20{clip-path:url(#SVGID_00000159433583770286206520000012973785667953674651_);fill:#263238;}
</style>
<g>
	<circle class="st0" cx="512" cy="455" r="345"/>
	<g>
		<defs>
			<path id="SVGID_1_" d="M93,343.3c35.8,0.6,27.5-5.7,43.9,31.6c8.2,18.6,15.8,37.5,23.7,56.2c-2,2.9-4.9,3.2-7.7,3.2
				c-10.7,0.1-21.4,0.8-32.1-0.5c-4.7-1-6.2-5.4-7.4-9.9c-6.8-25.5-15.9-50.3-20.4-76.6V343.3z"/>
		</defs>
		<clipPath id="SVGID_00000140705905045875277700000008196617473058898876_">
			<use xlink:href="#SVGID_1_"  style="overflow:visible;"/>
		</clipPath>
		<path style="clip-path:url(#SVGID_00000140705905045875277700000008196617473058898876_);fill:#263238;" d="M100,347.3v-4H86v4
			H100z M120.2,422.1c-7.1-26.4-15.8-50-20.3-76l-13.8,2.4c4.6,26.7,14,52.5,20.6,77.2L120.2,422.1z M122.3,427
			c-0.1,0-0.2,0-0.2-0.1c0,0,0,0,0,0c0,0-0.1-0.1-0.4-0.4c-0.5-0.8-1-2.1-1.6-4.4l-13.5,3.6c0.6,2.2,1.5,5.4,3.2,8.1
			c1.9,3,4.9,5.8,9.4,6.8L122.3,427z M152.9,427.3c-11.3,0.1-21.1,0.8-31.2-0.4l-1.6,13.9c11.3,1.3,22.8,0.6,33,0.5L152.9,427.3z
			 M154.9,427C154.8,427.1,154.8,427.1,154.9,427C154.9,427.1,154.9,427.1,154.9,427c-0.1,0.1-0.3,0.1-0.6,0.1
			c-0.4,0-0.8,0.1-1.4,0.1l0.1,14c3,0,9.2-0.3,13.4-6.2L154.9,427z M130.5,377.7c8.2,18.5,15.7,37.2,23.7,56.1l12.9-5.4
			c-7.8-18.7-15.5-37.7-23.8-56.4L130.5,377.7z M92.9,350.3c4.6,0.1,8.4,0,11.7,0c3.3,0,5.8-0.1,8-0.1c4.5,0.1,5.3,0.6,5.6,0.8
			c0.5,0.3,1.5,1.4,3.6,6.1c1,2.2,2.1,4.9,3.5,8.4c1.4,3.4,3.1,7.4,5.2,12.2l12.8-5.6c-2-4.6-3.7-8.5-5.1-11.9
			c-1.4-3.3-2.6-6.3-3.7-8.7c-2-4.6-4.3-9-8.3-11.8c-4.1-2.9-8.9-3.3-13.5-3.4c-2.4,0-5.2,0-8.4,0.1c-3.2,0-6.9,0.1-11.3,0
			L92.9,350.3z M93,347.3h-7v0.6l0.1,0.6L93,347.3z M113.4,423.9l-6.8,1.8l0,0L113.4,423.9z M120.8,433.8l-1.5,6.8l0.3,0.1l0.3,0
			L120.8,433.8z M152.9,434.3l0,7l0,0L152.9,434.3z M160.6,431.1l5.7,4l2.2-3.2l-1.5-3.6L160.6,431.1z M136.9,374.8l-6.4,2.8l0,0
			L136.9,374.8z M93,343.3l0.1-7l-7.1-0.1v7.1H93z"/>
	</g>
	<g>
		<defs>
			<path id="SVGID_00000031193524637536775840000014467738988327692472_" d="M93,510.3c9.2-15.7,14.7-33.5,22.6-50
				c2-2.2,4.4-2.3,6.8-1.8c6.1,1.9,12.3,0.9,18.5,1c4.6,0.9,10.3-1.3,12.2,6.5c-8.1,12.8-16.2,25.7-24.4,38.5
				c-3.7,5.8-8.6,8.1-14.8,8.3c-7,0.3-14.9,1.5-20.9,1.5V510.3L93,510.3z"/>
		</defs>
		<clipPath id="SVGID_00000012430058050767267600000009775728720445644973_">
			<use xlink:href="#SVGID_00000031193524637536775840000014467738988327692472_"  style="overflow:visible;"/>
		</clipPath>
		<path style="clip-path:url(#SVGID_00000012430058050767267600000009775728720445644973_);fill:#263238;" d="M86,510.3L86,510.3
			l14,0v0H86z M100,514.3v-4H86v4H100z M113.6,505.8c-3.7,0.2-7.7,0.6-11.2,0.9c-3.6,0.3-6.8,0.6-9.4,0.6v14c3.4,0,7.2-0.3,10.7-0.7
			c3.7-0.3,7.2-0.7,10.5-0.8L113.6,505.8z M122.8,500.7c-1.3,2-2.6,3.1-3.9,3.8c-1.3,0.7-3,1.2-5.3,1.3l0.6,14
			c3.9-0.2,7.8-1,11.4-2.9c3.6-2,6.6-4.9,9-8.6L122.8,500.7z M147.2,462.2c-8.1,12.8-16.2,25.7-24.4,38.5l11.8,7.5
			c8.2-12.8,16.3-25.7,24.4-38.5L147.2,462.2z M139.7,466.4c1.8,0.3,3.6,0.4,4.6,0.4c1.3,0,1.8,0.1,2.1,0.2c0.2,0-0.1,0-0.3-0.3
			c-0.2-0.2,0-0.1,0.3,0.9l13.6-3.3c-0.7-2.8-1.9-5.3-3.8-7.4c-2-2.1-4.3-3.1-6.4-3.6c-1.9-0.5-3.8-0.5-4.9-0.6
			c-1.4-0.1-2-0.1-2.5-0.2L139.7,466.4z M120.4,465.2c4,1.2,7.9,1.4,11.2,1.5c1.7,0,3.3-0.1,4.8-0.1c1.5,0,2.9-0.1,4.3,0l0.3-14
			c-1.7,0-3.4,0-5,0.1c-1.6,0-3,0.1-4.4,0.1c-2.8,0-5.1-0.2-7.2-0.8L120.4,465.2z M120.8,465c0,0,0,0-0.2,0.1
			c-0.1,0.1-0.3,0.1-0.4,0.1c-0.1,0-0.1,0,0.1,0c0.2,0,0.4,0,0.8,0.1l2.5-13.8c-3.4-0.6-8.9-0.8-13.3,4L120.8,465z M99,513.8
			c4.8-8.3,8.7-17,12.2-25.5c3.6-8.7,6.8-16.9,10.7-24.9l-12.6-6.1c-4.1,8.4-7.5,17.3-11,25.6c-3.5,8.4-7,16.4-11.4,23.8L99,513.8z
			 M93,514.3h-7v7h7V514.3z M113.9,512.8l-0.3-7l0,0l0,0L113.9,512.8z M128.7,504.4l-5.9-3.8l0,0L128.7,504.4z M153.1,466l5.9,3.7
			l1.6-2.5l-0.7-2.9L153.1,466z M140.9,459.5l1.3-6.9l-0.6-0.1l-0.6,0L140.9,459.5z M122.5,458.5l2-6.7l-0.4-0.1l-0.4-0.1
			L122.5,458.5z M115.6,460.3l-5.2-4.7l-0.7,0.7l-0.4,0.9L115.6,460.3z M93,510.3h-7v25.8l13-22.3L93,510.3z"/>
	</g>
	<g>
		<defs>
			<path id="SVGID_00000114774212174814868900000000510590348647505596_" d="M382.2,498.7c-1.8-4.1-3.6-8.2-5.4-12.3
				c0.3-3.3,2.4-5.2,4.3-7.1c24.9-24.5,50-48.5,74.7-73.3c10.3-10.3,21.9-15,35.5-14.5c8.8,0.3,17.7,1.2,26.5-1.1
				c9.3-2.3,12.4-6.7,13.2-17.8c0.3-4.9-0.9-10.1,2.2-14.4c12.1,0,24.3,0,36.4-0.2c3,0,6.3,1.2,8.7-2.2c5.7-0.5,11.6,0,16.7-3.9
				c-0.2,6.5,3.7,6.2,7.6,6.2c5.1-0.1,10.3-0.9,14.9,3.1c5.2,4.6,7.2,10.6,7.1,18.2c-0.2,12.7,0,12.7,11.2,12.7
				c14,0,28.1-0.2,42.1,0.1c13.3,0.3,25.8,4.9,37.6,11.8c1.6,0.9,2.9,2.1,3.5,4.1c-9.1,4.7-6.8,12.2-3.5,23.6
				c5.5,18.9,9.8,38.1,15.2,57c1,3.4-0.4,7.6-4.5,11c-9.6,1.4-19.2,2.4-28.8-0.6c-0.4-24.7-7.4-48-11.5-72
				c-2.1-12.3-4.2-14-15.2-14.2c-23.1-0.6-23.3-0.6-23.1,26.8c0.2,18.9-1.4,38,1.4,56.9c0.2,1.1-0.5,1.8-1.1,2.6
				c-8.9,2.6-17.8,3-26.6-0.4c0.8-21.9,0.6-43.7,0.6-65.6c0-18-1.7-20-17.3-20.1c-13.4-0.1-26.9-0.2-40.3,0.1
				c-10.6,0.2-12.8,2.5-12.7,14.7c0.2,22.6-1.5,45.3,1.2,67.8c0.2,1.4-0.2,2.6-1.2,3.5c-3.4,2.4-7.2,1.7-10.9,1.8
				c-48.9,0.1-97.8,0.1-146.7,0C389.8,501.1,385.7,501.7,382.2,498.7L382.2,498.7z"/>
		</defs>
		<clipPath id="SVGID_00000067937675450783098880000004780249281578213049_">
			<use xlink:href="#SVGID_00000114774212174814868900000000510590348647505596_"  style="overflow:visible;"/>
		</clipPath>
		<path style="clip-path:url(#SVGID_00000067937675450783098880000004780249281578213049_);fill:#263238;" d="M382.2,491.7
			L382.2,491.7l0,14h0V491.7z M393.8,494.1c-0.6,0-1.1,0-1.6,0c-0.5,0-1,0-1.4,0c-0.9,0-1.6,0-2.1-0.1c-1-0.1-1.5-0.3-1.9-0.7
			l-9.1,10.7c6,5.1,13.6,4.1,16.1,4.1V494.1z M540.5,494.1c-48.9,0.1-97.8,0.1-146.7,0l0,14c48.9,0.1,97.8,0.1,146.7,0L540.5,494.1z
			 M547.4,493.6c-0.4,0.3-0.9,0.5-1.9,0.5c-0.6,0-1.2,0-2.1,0c-0.8,0-1.9-0.1-3,0l0.1,14c0.9,0,4,0.1,6,0c2.6-0.2,5.7-0.9,8.8-3
			L547.4,493.6z M545.6,496.7c0-0.2,0-0.6,0.1-1.2c0.2-0.5,0.5-1,0.8-1.3l9.7,10.1c2.7-2.6,3.7-6,3.3-9.4L545.6,496.7z M544.3,428.1
			c0.2,21.8-1.5,45.5,1.3,68.5l13.9-1.6c-2.6-22.1-0.9-43.6-1.2-67L544.3,428.1z M563.9,406.4c-5,0.1-11.3,0.5-15.5,5.2
			c-2.1,2.3-3,5.1-3.5,7.8c-0.5,2.6-0.6,5.6-0.6,8.8l14-0.1c0-2.9,0.1-4.8,0.3-6c0.2-1.2,0.5-1.3,0.3-1.1c-0.3,0.3-0.4,0.2,0.4,0
			c0.9-0.2,2.4-0.4,4.8-0.4L563.9,406.4z M604.4,406.3c-13.4,0-26.9-0.2-40.5,0.1l0.2,14c13.4-0.2,26.7-0.1,40.2,0L604.4,406.3z
			 M628.7,433.4c0-4.5-0.1-8.5-0.6-11.8c-0.5-3.3-1.5-6.7-3.9-9.6c-2.6-3-5.9-4.3-9.1-5c-3.1-0.6-6.7-0.8-10.6-0.8l0,14
			c3.9,0,6.3,0.2,7.9,0.5c1.5,0.3,1.5,0.6,1.3,0.4c-0.1-0.1,0.4,0.3,0.7,2.5c0.3,2.2,0.4,5.2,0.4,9.7H628.7z M628.1,499.3
			c0.8-22,0.6-44.1,0.6-65.9h-14c0,22,0.3,43.6-0.6,65.3L628.1,499.3z M645.8,492.6c-7.9,2.3-15.1,2.5-22.2-0.2l-5,13.1
			c10.7,4.1,21.2,3.4,31.1,0.6L645.8,492.6z M641.9,497.9c-0.1-0.6-0.1-1.2,0.1-1.8c0.1-0.6,0.3-1,0.5-1.2c0.1-0.2,0.2-0.3,0.1-0.2
			c0,0-0.1,0.1-0.2,0.2c-0.1,0.1-0.2,0.2-0.3,0.4l11.2,8.4c0,0,0-0.1,0.1-0.2c0.1-0.1,0.2-0.2,0.3-0.4c0.2-0.3,0.6-0.8,0.9-1.4
			c0.8-1.4,1.5-3.4,1.1-5.9L641.9,497.9z M640.4,440c0.2,18.1-1.4,38.3,1.4,57.8l13.9-2c-2.7-18.3-1.1-36.1-1.3-55.9L640.4,440z
			 M670.7,406.2c-5.6-0.1-10.5-0.3-14.3,0.1c-3.9,0.4-8.3,1.5-11.4,5.2c-3,3.4-3.8,7.9-4.2,12c-0.4,4.3-0.3,9.8-0.3,16.5l14-0.1
			c-0.1-7-0.1-11.7,0.2-15.1c0.3-3.6,0.9-4.2,0.8-4.1c-0.3,0.3-0.3-0.2,2.4-0.5c2.7-0.3,6.5-0.2,12.5-0.1L670.7,406.2z M692.6,426.2
			c-0.5-3.2-1.1-6-2-8.5c-0.9-2.5-2.2-5-4.4-7.1c-4.4-4-10.4-4.3-15.5-4.4l-0.3,14c2.7,0.1,4.3,0.2,5.4,0.4c1,0.2,1.1,0.4,0.9,0.3
			c-0.1-0.1,0.2,0.2,0.7,1.4c0.5,1.3,0.9,3.2,1.4,6.2L692.6,426.2z M704.2,499.3c-0.2-13-2.2-25.4-4.5-37.5
			c-2.4-12.3-5.1-23.6-7.1-35.5l-13.8,2.3c2,12,4.9,24.4,7.2,35.9c2.3,11.8,4.1,23.3,4.3,35.1L704.2,499.3z M724.9,493.1
			c-9.6,1.4-17.8,2.1-25.6-0.4l-4.2,13.3c11.2,3.6,22.3,2.3,31.9,0.9L724.9,493.1z M723.8,490.9c0,0.1,0.3,1.6-2.2,3.6l8.8,10.9
			c5.8-4.7,8.8-11.6,6.9-18.4L723.8,490.9z M708.6,433.9c2.7,9.3,5.1,18.8,7.6,28.3c2.4,9.5,4.9,19.1,7.6,28.7l13.5-3.8
			c-2.7-9.4-5.1-18.8-7.5-28.3c-2.4-9.5-4.9-19.1-7.7-28.7L708.6,433.9z M715.6,402.2c-3.1,1.6-5.7,3.7-7.5,6.4
			c-1.9,2.8-2.6,5.9-2.7,8.8c-0.2,5.3,1.6,11.3,3.1,16.5l13.5-3.9c-1.8-6.2-2.7-9.6-2.6-12.1c0-1,0.2-1.4,0.4-1.7
			c0.2-0.3,0.7-0.9,2.2-1.7L715.6,402.2z M711.8,410.3c0.2,0.1,0.3,0.2,0.4,0.3c0.1,0.1,0.1,0.1,0.1,0.1c0,0-0.1-0.1-0.1-0.1
			c0-0.1-0.1-0.1-0.1-0.1l13.4-4c-1.3-4.4-4.3-6.8-6.7-8.2L711.8,410.3z M677.5,399.4c11.8,0.2,23.1,4.3,34.2,10.9l7.1-12.1
			c-12.5-7.4-26.2-12.5-41-12.8L677.5,399.4z M635.6,399.4c14.2,0,28-0.2,41.9,0.1l0.3-14c-14.1-0.3-28.4-0.1-42.2-0.1V399.4z
			 M617.4,379.5c-0.1,3.1-0.1,5.9,0.1,8.1c0.2,2.1,0.7,5.3,3,7.8c2.4,2.7,5.6,3.4,7.7,3.7c2.1,0.3,4.8,0.3,7.4,0.3v-14
			c-3,0-4.6,0-5.6-0.1c-1-0.1,0-0.2,1,0.9c0.9,0.9,0.7,1.7,0.5,0.2c-0.1-1.3-0.1-3.3-0.1-6.6L617.4,379.5z M612.7,366.6
			c3.3,2.9,4.8,6.6,4.7,12.9l14,0.3c0.2-9.1-2.2-17.3-9.4-23.6L612.7,366.6z M602.5,365.3c3.2,0,4.8-0.2,6.8,0
			c1.5,0.2,2.5,0.6,3.4,1.4l9.2-10.5c-7.1-6.2-15.9-4.9-19.6-4.8L602.5,365.3z M587.9,351.9c-0.1,2.2,0.2,4.6,1.2,6.7
			c1,2.3,2.8,4.1,4.9,5.2c1.9,1,3.8,1.3,5.1,1.4c1.3,0.1,2.7,0.1,3.5,0l-0.2-14c-0.6,0-0.9,0-1.4,0c-0.4,0-0.7,0-0.9,0
			c-0.2,0-0.3,0-0.2,0c0,0,0.2,0.1,0.5,0.2c0.3,0.1,0.6,0.4,0.9,0.7c0.3,0.3,0.5,0.6,0.6,0.8c0.1,0.2,0.1,0.3,0.1,0.2
			c0-0.1,0-0.4,0-0.9L587.9,351.9z M578.8,363c1.9-0.2,6-0.3,9-0.7c3.6-0.5,7.5-1.7,11.3-4.6l-8.5-11.1c-1.3,1-2.8,1.6-4.9,1.9
			c-2.7,0.4-4.3,0.3-8.1,0.6L578.8,363z M569.5,365.2c0.4,0,0.7,0,1.7,0.1c0.8,0.1,2,0.1,3.4,0c3.2-0.3,6.6-1.6,9.3-5.3l-11.4-8.1
			c0,0,0.1-0.2,0.5-0.4c0.3-0.2,0.6-0.2,0.5-0.2c-0.2,0-0.4,0-1.2,0c-0.6,0-1.7-0.1-2.8-0.1L569.5,365.2z M533.1,365.3
			c12.1,0,24.3,0,36.4-0.2l-0.2-14c-12.1,0.1-24.1,0.1-36.3,0.1L533.1,365.3z M537.9,373.2c0.1-1.5,0.1-3.1,0.1-4.3
			c0-1.3,0-2.3,0-3.2c0.1-1.8,0.4-2.6,0.8-3.2l-11.4-8.2c-2.7,3.7-3.3,7.6-3.5,10.7c-0.1,1.5,0,3,0,4.2c0,1.3,0,2.2,0,3.1
			L537.9,373.2z M519.5,397.3c5.4-1.4,10.3-3.6,13.7-8.3c3.2-4.4,4.3-9.9,4.7-15.8l-14-0.9c-0.3,5.1-1.2,7.3-2,8.5
			c-0.7,0.9-2,2-5.9,3L519.5,397.3z M491,398.6c8.2,0.3,18.5,1.3,28.5-1.3l-3.5-13.6c-7.5,1.9-15.1,1.2-24.5,0.9L491,398.6z
			 M460.8,411c9-9,18.7-12.9,30.2-12.4l0.5-14c-15.6-0.6-29.1,5-40.7,16.5L460.8,411z M386,484.3c24.8-24.4,50-48.6,74.8-73.3
			l-9.9-9.9c-24.7,24.7-49.7,48.7-74.7,73.2L386,484.3z M383.7,487c0-0.2,0-0.3,0.2-0.6c0.1-0.2,0.3-0.4,0.7-0.8
			c0.4-0.4,0.7-0.7,1.3-1.3l-9.8-10c-1.5,1.5-5.9,5.1-6.4,11.5L383.7,487z M388.6,495.9c-1.8-4.1-3.6-8.1-5.4-12.3l-12.8,5.6
			c1.8,4.1,3.6,8.2,5.4,12.3L388.6,495.9z M382.2,498.7l4.5-5.3l-2-1.7h-2.6V498.7z M393.8,501.1l0-7h0V501.1z M540.5,501.1l0,7h0
			l0,0L540.5,501.1z M551.4,499.3l4,5.8l0.5-0.3l0.4-0.4L551.4,499.3z M552.5,495.8l-7,0.8l0,0l0,0L552.5,495.8z M551.3,428l7-0.1v0
			L551.3,428z M564.1,413.4l-0.1-7l0,0L564.1,413.4z M604.4,413.3l0,7h0L604.4,413.3z M621.1,499l-7-0.3l-0.2,5l4.7,1.8L621.1,499z
			 M647.7,499.4l1.9,6.7l2.3-0.7l1.4-1.9L647.7,499.4z M648.8,496.8l-6.9,1l0,0l0,0L648.8,496.8z M647.4,439.9l-7,0.1l0,0
			L647.4,439.9z M670.5,413.2l-0.2,7l0,0L670.5,413.2z M685.7,427.4l-6.9,1.2l0,0L685.7,427.4z M697.2,499.4l-7,0.1l0.1,5l4.8,1.5
			L697.2,499.4z M726,500l1,6.9l1.9-0.3l1.5-1.2L726,500z M730.5,489l-6.7,1.9l0,0L730.5,489z M715.3,432l-6.7,1.9l0,0L715.3,432z
			 M718.8,408.4l3.2,6.2l5.2-2.7l-1.7-5.6L718.8,408.4z M715.3,404.3l3.6-6l0,0L715.3,404.3z M677.7,392.4l-0.2,7l0,0L677.7,392.4z
			 M624.4,379.6l-7-0.1l0,0l0,0L624.4,379.6z M617.3,361.4l4.6-5.3l0,0l0,0L617.3,361.4z M602.4,358.3l0.1,7l0,0L602.4,358.3z
			 M594.9,352.1l7,0.2l0.3-14.6l-11.6,8.9L594.9,352.1z M578.2,356l-0.6-7l-3.2,0.3l-1.9,2.6L578.2,356z M569.5,358.2l-0.1-7l0,0
			l0,0L569.5,358.2z M533.1,358.3l0-7l-3.6,0l-2.1,2.9L533.1,358.3z M530.9,372.7l-7-0.5v0L530.9,372.7z M517.8,390.5l-1.7-6.8l0,0
			l0,0L517.8,390.5z M491.3,391.6l0.3-7h0L491.3,391.6z M455.8,406.1l5,4.9l0,0L455.8,406.1z M381.1,479.3l-4.9-5l0,0L381.1,479.3z
			 M376.8,486.4l-7-0.6l-0.1,1.8l0.7,1.6L376.8,486.4z M382.2,498.7l-6.4,2.8l1.8,4.2h4.6V498.7z"/>
	</g>
	<g>
		<defs>
			<path id="SVGID_00000091710812334089641550000014343399252753680546_" d="M538.1,358.3c0.3,32.4-8,43.3-35.6,41.2
				c-24.2-1.8-36.2,3.1-53.3,20.9c-21.8,22.8-44.9,44.1-67.5,66c-3.8-3.8-8.2-5.7-13.2-6.1c-44.2-2.7-88.3-5.5-132.5-8.3
				c-23.1-1.5-46.2-2.8-69.2-4.4c-3.2-0.2-8.8,0-8.8,0l-11.9-1.5l-19.1-0.7c-2.2,0-4.2-1.2-6.4-1.2c-2.1-2.8-2-3.8-3.3-5.5
				c-7.2-10.6-5.4-19.4,6.4-30.5c13.9-0.1,27.9-0.2,41.8-0.3c65.5,0.1,131.1,0.2,196.6,0.3c7.8,0,14.4-3.8,20.8-8.4
				c20.9-15.2,42.6-28.5,64.6-41.3C476.2,362,506.2,354.8,538.1,358.3L538.1,358.3z"/>
		</defs>
		<clipPath id="SVGID_00000022533709933691332560000002452840415715271065_">
			<use xlink:href="#SVGID_00000091710812334089641550000014343399252753680546_"  style="overflow:visible;"/>
		</clipPath>
		<path style="clip-path:url(#SVGID_00000022533709933691332560000002452840415715271065_);fill:#263238;" d="M538.1,365.3
			L538.1,365.3l0-14h0V365.3z M451,384.7c27.5-15.9,56-22.7,86.2-19.4l1.5-13.9c-33.5-3.7-65,3.9-94.8,21.2L451,384.7z M387,425.5
			c20.6-15,42.1-28.1,64-40.9l-7-12.1c-22.1,12.8-44,26.3-65.2,41.6L387,425.5z M362.2,435.3c10.1,0,18.3-5,24.9-9.8l-8.2-11.3
			c-6.2,4.5-11.2,7.1-16.6,7.1V435.3z M165.6,435c32.8,0.1,65.5,0.1,98.3,0.1c32.8,0,65.5,0.1,98.3,0.1l0-14
			c-32.8-0.1-65.5-0.1-98.3-0.1c-32.8,0-65.5-0.1-98.3-0.1L165.6,435z M123.8,435.3c7-0.1,13.9-0.1,20.9-0.1c7,0,13.9-0.1,20.9-0.1
			l-0.1-14c-7,0.1-13.9,0.1-20.9,0.1c-7,0-13.9,0.1-20.9,0.1L123.8,435.3z M123.1,454.8c-2.9-4.3-3.4-7.2-2.9-9.7
			c0.6-2.8,2.8-6.6,8.3-11.8l-9.6-10.2c-6.3,5.9-10.9,12.1-12.4,19.1c-1.5,7.4,0.7,14.1,5,20.4L123.1,454.8z M126.2,460.1
			c-0.8-1-1-1.6-1.3-2c-0.2-0.5-0.8-1.8-1.8-3.2l-11.5,7.9c0.2,0.3,0.2,0.4,0.8,1.5c0.6,1.1,1.3,2.5,2.7,4.3L126.2,460.1z
			 M127,458.5c0.1,0,0,0-1.3-0.3c-0.9-0.3-2.9-0.9-5.2-0.9l0.2,14c-0.1,0,0,0,1.2,0.3c0.9,0.2,2.9,0.9,5.1,0.9V458.5z M146.4,459.2
			l-19.1-0.7l-0.5,14l19.1,0.7L146.4,459.2z M158.8,460.7l-11.9-1.5l-1.7,13.9l11.9,1.5L158.8,460.7z M167.3,460.7
			c-1.9-0.1-4.4-0.1-6.2-0.1c-0.9,0-1.8,0-2.4,0.1c-0.3,0-0.5,0-0.7,0c-0.1,0-0.2,0-0.2,0c0,0,0,0-0.1,0c0,0,0,0,0,0c0,0,0,0,0,0
			c0,0,0,0,0,0c0,0,0,0,0,0c0,0,0,0,0.3,7c0.3,7,0.3,7,0.3,7c0,0,0,0,0,0c0,0,0,0,0,0c0,0,0,0,0,0c0,0,0,0,0,0c0,0,0,0,0,0
			c0,0,0.1,0,0.2,0c0.1,0,0.4,0,0.6,0c0.6,0,1.3,0,2.2-0.1c1.8,0,3.7,0,5,0.1L167.3,460.7z M236.5,465.1
			c-23.1-1.5-46.2-2.8-69.2-4.4l-1,14c23.1,1.6,46.2,3,69.3,4.4L236.5,465.1z M368.9,473.4c-44.2-2.7-88.3-5.5-132.5-8.3l-0.9,14
			c44.1,2.8,88.3,5.5,132.5,8.3L368.9,473.4z M386.7,481.5c-5-5-11-7.6-17.7-8.1l-0.9,14c3.3,0.2,6.1,1.4,8.8,4L386.7,481.5z
			 M444.2,415.6c-21.7,22.7-44.6,43.7-67.3,65.8l9.8,10c22.4-21.7,45.7-43.2,67.7-66.2L444.2,415.6z M503,392.5
			c-12.6-1-22.9-0.2-32.4,3.6c-9.5,3.8-17.6,10.3-26.5,19.5l10.1,9.7c8.3-8.6,14.7-13.5,21.5-16.2c6.8-2.7,14.6-3.5,26.2-2.6
			L503,392.5z M531.1,358.4c0.2,16.1-2,24.6-5.7,28.9c-3.2,3.8-9.2,6.2-22.4,5.2l-1.1,14c14.4,1.1,26.4-0.9,34.1-10.1
			c7.3-8.6,9.2-21.9,9-38.1L531.1,358.4z M538.1,358.3l-0.8,7l0.4,0h0.4V358.3z M447.5,378.6l-3.5-6.1l0,0L447.5,378.6z
			 M382.9,419.9l-4.1-5.7l0,0L382.9,419.9z M362.2,428.3l0,7h0V428.3z M165.6,428l0-7l0,0l0,0L165.6,428z M123.8,428.3l-0.1-7
			l-2.7,0l-2,1.9L123.8,428.3z M117.4,458.8l-5.8,3.9l0,0l0,0L117.4,458.8z M120.6,464.3l-5.6,4.2l2.1,2.8l3.5,0L120.6,464.3z
			 M127,465.5l0.3-7l-0.1,0H127V465.5z M146.1,466.2l0.8-6.9l-0.3,0l-0.3,0L146.1,466.2z M158,467.7l-0.8,6.9l0.6,0.1l0.6,0
			L158,467.7z M166.8,467.7l-0.5,7l0,0L166.8,467.7z M236,472.1l0.4-7h0L236,472.1z M368.5,480.4l0.5-7l0,0l0,0L368.5,480.4z
			 M381.7,486.4l-4.9,5l4.9,4.8l4.9-4.8L381.7,486.4z M449.2,420.4l-5.1-4.8l0,0L449.2,420.4z M502.5,399.5l0.5-7l0,0L502.5,399.5z
			 M538.1,358.3l7-0.1l-0.1-6.9h-6.9V358.3z"/>
	</g>
	<g>
		<defs>
			<path id="SVGID_00000092431749342198275830000001516613416413154195_" d="M364,453c-0.9,0.4-108,1.8-133.1,1.8
				s-83.9-5.2-83.9-5.2s85.5-3.3,112-5.3S364,453,364,453z"/>
		</defs>
		<clipPath id="SVGID_00000092418988029714753590000016589249988658240416_">
			<use xlink:href="#SVGID_00000092431749342198275830000001516613416413154195_"  style="overflow:visible;"/>
		</clipPath>
		<path style="clip-path:url(#SVGID_00000092418988029714753590000016589249988658240416_);fill:#263238;" d="M258.5,437.3
			c14-1.1,41,1.2,63.7,3.6c11.5,1.2,22.2,2.5,30,3.5c3.9,0.5,7.1,0.9,9.3,1.2c1.1,0.1,2,0.3,2.6,0.3c0.3,0,0.5,0.1,0.7,0.1
			c0.1,0,0.1,0,0.2,0c0,0,0,0,0,0c0,0,0,0,0,0c0,0,0,0,0,0c0,0,0,0-0.9,6.9c-0.9,6.9-0.9,6.9-0.9,6.9c0,0,0,0,0,0c0,0,0,0,0,0
			c0,0,0,0,0,0c0,0-0.1,0-0.2,0c-0.1,0-0.4,0-0.7-0.1c-0.6-0.1-1.4-0.2-2.5-0.3c-2.2-0.3-5.3-0.7-9.2-1.2c-7.7-1-18.3-2.2-29.7-3.4
			c-23.1-2.4-48.7-4.5-61.2-3.6L258.5,437.3z M147,449.5c-0.3-7-0.3-7-0.3-7c0,0,0,0,0,0c0,0,0,0,0,0c0,0,0,0,0,0c0,0,0.1,0,0.2,0
			c0.2,0,0.4,0,0.7,0c0.6,0,1.6-0.1,2.8-0.1c2.4-0.1,5.8-0.2,10-0.4c8.4-0.3,19.9-0.8,32.3-1.3c24.7-1.1,52.6-2.4,65.7-3.4l1,14
			c-13.4,1-41.5,2.3-66.2,3.4c-12.4,0.5-23.9,1-32.3,1.3c-4.2,0.2-7.7,0.3-10.1,0.4c-1.2,0-2.1,0.1-2.8,0.1c-0.3,0-0.6,0-0.7,0
			c-0.1,0-0.1,0-0.2,0c0,0,0,0,0,0c0,0,0,0,0,0c0,0,0,0,0,0C147.3,456.5,147.3,456.5,147,449.5z M230.9,461.7
			c-12.8,0-34-1.3-51.9-2.6c-9-0.7-17.1-1.3-23.1-1.8c-3-0.2-5.4-0.5-7-0.6c-0.8-0.1-1.5-0.1-1.9-0.2c-0.2,0-0.4,0-0.5,0
			c-0.1,0-0.1,0-0.1,0c0,0,0,0,0,0c0,0,0,0,0,0c0,0,0,0,0,0c0,0,0,0,0.6-7c0.6-7,0.6-7,0.6-7c0,0,0,0,0,0c0,0,0,0,0,0c0,0,0,0,0,0
			c0,0,0.1,0,0.1,0c0.1,0,0.3,0,0.5,0c0.4,0,1.1,0.1,1.9,0.2c1.7,0.1,4,0.3,7,0.6c5.9,0.5,14,1.1,22.9,1.8
			c17.9,1.3,38.6,2.6,50.8,2.6V461.7z M366.5,459.5c-0.5,0.2-1,0.3-1.1,0.3c-0.2,0-0.4,0.1-0.4,0.1c-0.2,0-0.4,0-0.4,0.1
			c-0.2,0-0.4,0-0.5,0c-0.3,0-0.7,0-1.1,0c-0.9,0-2.1,0.1-3.7,0.1c-3.1,0.1-7.5,0.2-12.7,0.3c-10.6,0.2-24.8,0.4-39.9,0.6
			c-30,0.4-63.1,0.8-75.7,0.8v-14c12.5,0,45.4-0.4,75.5-0.8c15-0.2,29.3-0.4,39.8-0.6c5.3-0.1,9.6-0.2,12.7-0.2
			c1.5,0,2.7-0.1,3.5-0.1c0.4,0,0.7,0,0.8,0c0.1,0,0.1,0,0,0c0,0-0.1,0-0.3,0c-0.1,0-0.2,0-0.4,0.1c-0.1,0-0.6,0.1-1.1,0.3
			L366.5,459.5z M147,449.5l-0.6,7l0.4-14L147,449.5z M364,453l0.9-6.9l26.9,3.7l-25.3,9.8L364,453z"/>
	</g>
	<path class="st6" d="M540,479.7c-0.6,0.3-66.2,1.3-81.6,1.3s-51.4-3.9-51.4-3.9s52.4-2.4,68.7-3.9C491.9,471.7,540,479.7,540,479.7
		z"/>
	<g>
		<defs>
			<path id="SVGID_00000066516004400821551330000012130728348779325334_" d="M540,479.7c-0.6,0.3-66.2,1.3-81.6,1.3
				s-51.4-3.9-51.4-3.9s52.4-2.4,68.7-3.9S540,479.7,540,479.7z"/>
		</defs>
		<clipPath id="SVGID_00000024704886335366656150000006877901284291903423_">
			<use xlink:href="#SVGID_00000066516004400821551330000012130728348779325334_"  style="overflow:visible;"/>
		</clipPath>
		<path style="clip-path:url(#SVGID_00000024704886335366656150000006877901284291903423_);fill:#263238;" d="M475,466.2
			c9.1-0.8,26,0.9,39.8,2.7c7.1,0.9,13.7,1.9,18.5,2.6c2.4,0.4,4.4,0.7,5.7,0.9c0.7,0.1,1.2,0.2,1.6,0.3c0.2,0,0.3,0.1,0.4,0.1
			c0,0,0.1,0,0.1,0c0,0,0,0,0,0c0,0,0,0,0,0c0,0,0,0,0,0c0,0,0,0-1.1,6.9c-1.1,6.9-1.1,6.9-1.1,6.9c0,0,0,0,0,0c0,0,0,0,0,0
			c0,0,0,0,0,0c0,0-0.1,0-0.1,0c-0.1,0-0.2,0-0.4-0.1c-0.3-0.1-0.9-0.1-1.5-0.2c-1.3-0.2-3.3-0.5-5.6-0.9
			c-4.7-0.7-11.2-1.7-18.1-2.6c-14.3-1.8-29.5-3.3-36.8-2.7L475,466.2z M407,477.1c-0.3-7-0.3-7-0.3-7c0,0,0,0,0,0c0,0,0,0,0,0
			c0,0,0,0,0,0c0,0,0.1,0,0.1,0c0.1,0,0.2,0,0.4,0c0.4,0,1,0,1.7-0.1c1.5-0.1,3.6-0.2,6.1-0.3c5.2-0.3,12.2-0.6,19.8-1
			c15.2-0.8,32.2-1.8,40.2-2.5l1.3,13.9c-8.3,0.8-25.6,1.7-40.7,2.5c-7.6,0.4-14.6,0.8-19.8,1c-2.6,0.1-4.7,0.2-6.2,0.3
			c-0.7,0-1.3,0.1-1.7,0.1c-0.2,0-0.3,0-0.4,0c-0.1,0-0.1,0-0.1,0c0,0,0,0,0,0c0,0,0,0,0,0c0,0,0,0,0,0
			C407.3,484.1,407.3,484.1,407,477.1z M458.4,488c-8,0-21.2-1-32.1-2c-5.5-0.5-10.5-1-14.2-1.3c-1.8-0.2-3.3-0.3-4.3-0.4
			c-0.5-0.1-0.9-0.1-1.2-0.1c-0.1,0-0.2,0-0.3,0c0,0-0.1,0-0.1,0c0,0,0,0,0,0c0,0,0,0,0,0c0,0,0,0,0,0c0,0,0,0,0.8-7
			c0.8-7,0.8-7,0.8-7c0,0,0,0,0,0c0,0,0,0,0,0c0,0,0,0,0,0c0,0,0,0,0.1,0c0.1,0,0.2,0,0.3,0c0.3,0,0.7,0.1,1.2,0.1
			c1,0.1,2.5,0.3,4.3,0.4c3.6,0.4,8.6,0.8,14,1.3c11,1,23.5,1.9,30.9,1.9V488z M543,486c-0.6,0.3-1.1,0.4-1.3,0.5
			c-0.2,0.1-0.4,0.1-0.5,0.1c-0.2,0-0.4,0.1-0.5,0.1c-0.2,0-0.4,0-0.5,0c-0.2,0-0.5,0-0.8,0c-0.6,0-1.3,0.1-2.3,0.1
			c-1.9,0.1-4.6,0.1-7.8,0.2c-6.5,0.1-15.2,0.3-24.4,0.4c-18.4,0.3-38.7,0.6-46.4,0.6v-14c7.6,0,27.8-0.3,46.2-0.6
			c9.2-0.1,17.9-0.3,24.4-0.4c3.2-0.1,5.9-0.1,7.7-0.2c0.9,0,1.6-0.1,2.1-0.1c0.2,0,0.4,0,0.4,0c0,0,0,0-0.1,0c0,0-0.2,0-0.4,0.1
			c-0.1,0-0.3,0-0.5,0.1c-0.1,0-0.7,0.2-1.3,0.4L543,486z M407,477.1l-0.8,7l0.4-14L407,477.1z M540,479.7l1.1-6.9l22.2,3.7L543,486
			L540,479.7z"/>
	</g>
	<g>
		<defs>
			<path id="SVGID_00000162354428493410677690000012271133898620109497_" d="M397.3,530.7c-8-8.7-10.5-20.8-14-32.2
				c1.4-6.3,5.8-2.9,8.5-2.9c49.2-0.3,98.5,0.5,147.7-0.5c18.8-0.4,37.7-1,56.5-1.7c12.3-0.5,24.5,1.8,36.7,2.1
				c13.2,0.4,26.1-2.3,39.3-2.2c16.3,0.1,32.4,3.4,48.8,2.1c3.1-0.3,6.3,0.5,9.1-1.9c12.5-6.4,25.8-10,38.4-16
				c2.4-1.2,5-1.4,7.4,0.2c14.7,4.2,29.5,7.9,44,12.8c17.2,5.7,21.8,23.7,10.9,40.3c-4.8,2.5-9.9,2.9-15.1,2.9
				c-134.3,0-268.6,0-403,0C407.3,533.6,402.2,533,397.3,530.7L397.3,530.7z"/>
		</defs>
		<clipPath id="SVGID_00000180330961249709719330000008814093463292985527_">
			<use xlink:href="#SVGID_00000162354428493410677690000012271133898620109497_"  style="overflow:visible;"/>
		</clipPath>
		<path style="clip-path:url(#SVGID_00000180330961249709719330000008814093463292985527_);fill:#263238;" d="M397.4,523.7
			L397.4,523.7l0,14h0V523.7z M412.5,526.6c-4.8,0-8.6-0.5-12.1-2.2l-6.1,12.6c6.2,3,12.6,3.6,18.2,3.6V526.6z M815.5,526.6
			c-134.3,0-268.6,0-403,0l0,14c134.3,0,268.6,0,403,0L815.5,526.6z M827.4,524.4c-3.3,1.7-7.1,2.2-11.9,2.2v14
			c5.6,0,12-0.5,18.3-3.7L827.4,524.4z M817.5,497c6.5,2.2,10.1,6.4,11.4,11.2c1.3,5,0.4,11.6-4.2,18.5l11.7,7.7
			c6.3-9.6,8.6-20.2,6.1-29.8c-2.6-9.7-9.9-17.4-20.5-20.9L817.5,497z M773.8,484.3c15,4.3,29.4,7.9,43.7,12.7l4.4-13.3
			c-14.7-4.9-29.9-8.7-44.3-12.9L773.8,484.3z M771.4,483.8c0.6-0.3,0.8-0.3,0.8-0.3c0,0-0.1,0-0.2,0c-0.1,0-0.1,0,0,0l7.6-11.8
			c-5.1-3.3-10.4-2.4-14.2-0.6L771.4,483.8z M733.2,499.7c5.8-3,11.9-5.4,18.4-7.8c6.4-2.4,13.2-4.9,19.8-8.1l-6.1-12.6
			c-6,2.9-12.1,5.2-18.7,7.7c-6.4,2.4-13.2,5.1-19.8,8.5L733.2,499.7z M721.4,502.3c0.5,0,1,0,1.8,0c0.7,0,1.8,0,2.9-0.1
			c2.4-0.2,5.4-0.9,8.3-3.3l-9-10.7c0,0,0,0,0,0c0,0-0.2,0.1-0.6,0.1c-0.4,0-0.9,0-1.7,0.1c-0.7,0-1.8,0-2.9,0.1L721.4,502.3z
			 M672.1,500.2c7.8,0,15.5,0.8,23.8,1.5c8.2,0.7,16.8,1.3,25.5,0.6l-1.1-14c-7.6,0.6-15.2,0.1-23.3-0.6c-7.9-0.7-16.4-1.6-24.9-1.6
			L672.1,500.2z M632.6,502.4c7.1,0.2,14-0.4,20.5-1c6.6-0.6,12.8-1.2,19-1.2l0.1-14c-7,0-13.9,0.7-20.3,1.2
			c-6.6,0.6-12.7,1.1-18.8,1L632.6,502.4z M596.3,500.3c5.7-0.2,11.5,0.2,17.5,0.7c6,0.5,12.4,1.2,18.8,1.4l0.4-14
			c-5.8-0.2-11.6-0.8-17.9-1.3c-6.1-0.5-12.6-1-19.3-0.8L596.3,500.3z M539.7,502c18.9-0.4,37.8-1,56.6-1.7l-0.5-14
			c-18.8,0.7-37.6,1.3-56.4,1.7L539.7,502z M391.9,502.5c49-0.2,98.5,0.5,147.8-0.5l-0.3-14c-49.2,1-98.2,0.3-147.6,0.5L391.9,502.5
			z M390.2,500c0.2-0.8,0.2-0.2-0.7,0.6c-0.5,0.4-1,0.7-1.6,0.9c-0.5,0.2-0.9,0.2-1,0.2c-0.1,0-0.2,0,0,0c0.2,0,0.4,0.1,0.9,0.2
			c0.4,0.1,1,0.3,1.6,0.4c0.6,0.1,1.5,0.3,2.5,0.3v-14c0.4,0,0.6,0.1-0.5-0.2c-0.7-0.2-2.3-0.6-4-0.7c-2-0.1-4.7,0.4-7,2.4
			c-2.2,1.9-3.2,4.5-3.8,6.8L390.2,500z M402.5,525.9c-3.2-3.5-5.4-7.7-7.3-12.8c-2-5.3-3.3-10.6-5.1-16.7l-13.4,4.1
			c1.6,5.3,3.3,11.7,5.4,17.5c2.2,6,5.2,12.1,10.1,17.4L402.5,525.9z M397.4,530.7l3.1-6.3l-1.4-0.7h-1.6V530.7z M412.5,533.6v7h0
			L412.5,533.6z M815.5,533.6l0,7h0V533.6z M830.6,530.6l3.2,6.2l1.6-0.8l1-1.5L830.6,530.6z M819.8,490.4l2.2-6.6l0,0L819.8,490.4z
			 M775.8,477.6l-3.8,5.9l0.9,0.6l1,0.3L775.8,477.6z M768.4,477.4l-3-6.3l0,0l0,0L768.4,477.4z M730,493.5l-3.2-6.2l-0.7,0.4
			l-0.6,0.5L730,493.5z M720.9,495.3l0.5,7l0,0l0,0L720.9,495.3z M672.1,493.2l0,7l0,0L672.1,493.2z M632.8,495.4l0.2-7l0,0
			L632.8,495.4z M596.1,493.3l0.3,7l0,0L596.1,493.3z M539.6,495l-0.1-7l0,0L539.6,495z M391.9,495.5v7h0l0,0L391.9,495.5z
			 M383.4,498.5l-6.8-1.5l-0.4,1.8l0.5,1.8L383.4,498.5z M397.3,530.7l-5.2,4.7l2.1,2.3h3.1V530.7z"/>
	</g>
	<g>
		<defs>
			<path id="SVGID_00000106838772487422321190000006172948913775580807_" d="M397.3,526.7c3.4-0.1,6.9-0.3,10.3-0.3
				c137.5,0,275.1,0,412.6,0c3.4,0,6.9,0.2,10.3,0.2c-7.4,9.5-18,11.1-27.6,14.5c-31.7,11.2-64,18.5-97.3,19.5
				c-8.2,0.3-16.4,1.7-24.7,1.7c-4.8,4.5-10.6,2.6-16,2.9c-46.9,0.1-93.8,1.1-140.7-0.5c-5.4-2.5-11.8,0.3-16.8-4.4
				c-13.4-2.7-26.8-5.2-40.1-8c-21.8-4.5-43.5-9.7-63.8-20.5C401.1,530.6,398.6,529.6,397.3,526.7L397.3,526.7z"/>
		</defs>
		<clipPath id="SVGID_00000001635667275108102290000004451053973477485979_">
			<use xlink:href="#SVGID_00000106838772487422321190000006172948913775580807_"  style="overflow:visible;"/>
		</clipPath>
		<path style="clip-path:url(#SVGID_00000001635667275108102290000004451053973477485979_);fill:#263238;" d="M397.3,533.7
			L397.3,533.7l0-14h0V533.7z M406.7,525.6c-0.3-0.2-0.7-0.3-0.9-0.5c-0.3-0.1-0.5-0.3-0.8-0.4c-0.5-0.2-0.7-0.4-0.9-0.6
			c-0.3-0.2-0.3-0.3-0.4-0.3l-12.8,5.7c2.5,5.6,7.8,7.7,9.3,8.5L406.7,525.6z M468.7,545.4c-21.8-4.5-42.6-9.6-62-19.8l-6.5,12.4
			c21.3,11.2,43.8,16.6,65.7,21.1L468.7,545.4z M508.7,553.4c-13.4-2.7-26.7-5.2-40-8l-2.9,13.7c13.4,2.8,26.8,5.4,40.2,8
			L508.7,553.4z M527.1,558.4c-4.2-2-9.1-1.9-11-2c-2.5-0.2-3.3-0.5-3.9-1.1l-9.6,10.2c4.3,4.1,9.3,4.7,12.6,4.9
			c3.9,0.3,4.9,0.2,6.1,0.8L527.1,558.4z M664.8,558.2c-47.1,0.1-93.7,1.1-140.4-0.5l-0.5,14c47,1.6,94.2,0.6,140.9,0.5L664.8,558.2
			z M676,557.2c-0.8,0.8-1.6,1.1-3.3,1.2c-1,0-2,0-3.5-0.1c-1.3-0.1-3.1-0.2-4.8-0.1l0.8,14c0.9-0.1,2,0,3.4,0.1
			c1.3,0.1,3,0.2,4.8,0.1c3.8-0.2,8.2-1.2,12.3-4.9L676,557.2z M705.3,553.6c-4.4,0.1-8.7,0.6-12.8,1c-4.1,0.4-8,0.7-11.7,0.7l0,14
			c4.5,0,9-0.4,13.1-0.8c4.2-0.4,8.1-0.8,11.9-0.9L705.3,553.6z M800.6,534.5c-31.2,11-62.8,18.1-95.2,19.1l0.4,14
			c34.2-1,67.3-8.5,99.5-19.9L800.6,534.5z M825,522.4c-2.7,3.5-6.1,5.7-10.1,7.4c-2.1,0.9-4.3,1.6-6.7,2.4c-2.3,0.7-5,1.5-7.6,2.4
			l4.6,13.2c2.3-0.8,4.5-1.5,7.1-2.3c2.5-0.8,5.2-1.7,7.9-2.8c5.5-2.3,11.2-5.7,15.8-11.7L825,522.4z M820.2,533.4
			c3.3,0,6.5,0.1,10.1,0.2l0.3-14c-3.2-0.1-6.9-0.2-10.5-0.2V533.4z M407.6,533.4c0.3,0,0.5,0,0.8,0s0.5,0,0.8,0c0.3,0,0.5,0,0.8,0
			s0.5,0,0.8,0c0.3,0,0.5,0,0.8,0c0.3,0,0.5,0,0.8,0s0.5,0,0.8,0c0.3,0,0.5,0,0.8,0s0.5,0,0.8,0s0.5,0,0.8,0c0.3,0,0.5,0,0.8,0
			s0.5,0,0.8,0s0.5,0,0.8,0c0.3,0,0.5,0,0.8,0s0.5,0,0.8,0c0.3,0,0.5,0,0.8,0c0.3,0,0.5,0,0.8,0s0.5,0,0.8,0c0.3,0,0.5,0,0.8,0
			s0.5,0,0.8,0s0.5,0,0.8,0c0.3,0,0.5,0,0.8,0s0.5,0,0.8,0s0.5,0,0.8,0c0.3,0,0.5,0,0.8,0s0.5,0,0.8,0s0.5,0,0.8,0
			c0.3,0,0.5,0,0.8,0s0.5,0,0.8,0c0.3,0,0.5,0,0.8,0c0.3,0,0.5,0,0.8,0s0.5,0,0.8,0c0.3,0,0.5,0,0.8,0s0.5,0,0.8,0s0.5,0,0.8,0
			c0.3,0,0.5,0,0.8,0s0.5,0,0.8,0s0.5,0,0.8,0c0.3,0,0.5,0,0.8,0s0.5,0,0.8,0s0.5,0,0.8,0c0.3,0,0.5,0,0.8,0s0.5,0,0.8,0
			s0.5,0,0.8,0c0.3,0,0.5,0,0.8,0s0.5,0,0.8,0s0.5,0,0.8,0c0.3,0,0.5,0,0.8,0s0.5,0,0.8,0s0.5,0,0.8,0c0.3,0,0.5,0,0.8,0
			s0.5,0,0.8,0s0.5,0,0.8,0c0.3,0,0.5,0,0.8,0c0.3,0,0.5,0,0.8,0s0.5,0,0.8,0c0.3,0,0.5,0,0.8,0c0.3,0,0.5,0,0.8,0s0.5,0,0.8,0
			c0.3,0,0.5,0,0.8,0c0.3,0,0.5,0,0.8,0s0.5,0,0.8,0s0.5,0,0.8,0c0.3,0,0.5,0,0.8,0s0.5,0,0.8,0s0.5,0,0.8,0c0.3,0,0.5,0,0.8,0
			s0.5,0,0.8,0s0.5,0,0.8,0c0.3,0,0.5,0,0.8,0c0.3,0,0.5,0,0.8,0s0.5,0,0.8,0s0.5,0,0.8,0c0.3,0,0.5,0,0.8,0s0.5,0,0.8,0
			s0.5,0,0.8,0c0.3,0,0.5,0,0.8,0c0.3,0,0.5,0,0.8,0s0.5,0,0.8,0s0.5,0,0.8,0c0.3,0,0.5,0,0.8,0c0.3,0,0.5,0,0.8,0s0.5,0,0.8,0
			s0.5,0,0.8,0c0.3,0,0.5,0,0.8,0c0.3,0,0.5,0,0.8,0s0.5,0,0.8,0s0.5,0,0.8,0c0.3,0,0.5,0,0.8,0c0.3,0,0.5,0,0.8,0s0.5,0,0.8,0
			s0.5,0,0.8,0c0.3,0,0.5,0,0.8,0c0.3,0,0.5,0,0.8,0s0.5,0,0.8,0s0.5,0,0.8,0c0.3,0,0.5,0,0.8,0c0.3,0,0.5,0,0.8,0
			c0.3,0,0.5,0,0.8,0s0.5,0,0.8,0s0.5,0,0.8,0c0.3,0,0.5,0,0.8,0c0.3,0,0.5,0,0.8,0c0.3,0,0.5,0,0.8,0s0.5,0,0.8,0s0.5,0,0.8,0
			c0.3,0,0.5,0,0.8,0c0.3,0,0.5,0,0.8,0c0.3,0,0.5,0,0.8,0s0.5,0,0.8,0s0.5,0,0.8,0s0.5,0,0.8,0c0.3,0,0.5,0,0.8,0
			c0.3,0,0.5,0,0.8,0c0.3,0,0.5,0,0.8,0s0.5,0,0.8,0s0.5,0,0.8,0s0.5,0,0.8,0c0.3,0,0.5,0,0.8,0c0.3,0,0.5,0,0.8,0
			c0.3,0,0.5,0,0.8,0c0.3,0,0.5,0,0.8,0s0.5,0,0.8,0s0.5,0,0.8,0s0.5,0,0.8,0s0.5,0,0.8,0c0.3,0,0.5,0,0.8,0c0.3,0,0.5,0,0.8,0
			c0.3,0,0.5,0,0.8,0c0.3,0,0.5,0,0.8,0s0.5,0,0.8,0c0.3,0,0.5,0,0.8,0c0.3,0,0.5,0,0.8,0c0.3,0,0.5,0,0.8,0c0.3,0,0.5,0,0.8,0
			c0.3,0,0.5,0,0.8,0c0.3,0,0.5,0,0.8,0c0.3,0,0.5,0,0.8,0c0.3,0,0.5,0,0.8,0c0.3,0,0.5,0,0.8,0c0.3,0,0.5,0,0.8,0
			c0.3,0,0.5,0,0.8,0c0.3,0,0.5,0,0.8,0c0.3,0,0.5,0,0.8,0c0.3,0,0.5,0,0.8,0c0.3,0,0.5,0,0.8,0c0.3,0,0.5,0,0.8,0
			c0.3,0,0.5,0,0.8,0c0.3,0,0.5,0,0.8,0c0.3,0,0.5,0,0.8,0c0.3,0,0.5,0,0.8,0c0.3,0,0.5,0,0.8,0c0.3,0,0.5,0,0.8,0
			c0.3,0,0.5,0,0.8,0c0.3,0,0.5,0,0.8,0c0.3,0,0.5,0,0.8,0c0.3,0,0.5,0,0.8,0c0.3,0,0.5,0,0.8,0c0.3,0,0.5,0,0.8,0
			c0.3,0,0.5,0,0.8,0c0.3,0,0.5,0,0.8,0c0.3,0,0.5,0,0.8,0c0.3,0,0.5,0,0.8,0c0.3,0,0.5,0,0.8,0c0.3,0,0.5,0,0.8,0
			c0.3,0,0.5,0,0.8,0c0.3,0,0.5,0,0.8,0c0.3,0,0.5,0,0.8,0c0.3,0,0.5,0,0.8,0c0.3,0,0.5,0,0.8,0c0.3,0,0.5,0,0.8,0
			c0.3,0,0.5,0,0.8,0c0.3,0,0.5,0,0.8,0s0.5,0,0.8,0s0.5,0,0.8,0s0.5,0,0.8,0s0.5,0,0.8,0s0.5,0,0.8,0s0.5,0,0.8,0
			c0.3,0,0.5,0,0.8,0c0.3,0,0.5,0,0.8,0c0.3,0,0.5,0,0.8,0c0.3,0,0.5,0,0.8,0c0.3,0,0.5,0,0.8,0c0.3,0,0.5,0,0.8,0
			c0.3,0,0.5,0,0.8,0c0.3,0,0.5,0,0.8,0s0.5,0,0.8,0s0.5,0,0.8,0s0.5,0,0.8,0s0.5,0,0.8,0c0.3,0,0.5,0,0.8,0c0.3,0,0.5,0,0.8,0
			c0.3,0,0.5,0,0.8,0c0.3,0,0.5,0,0.8,0c0.3,0,0.5,0,0.8,0s0.5,0,0.8,0s0.5,0,0.8,0s0.5,0,0.8,0s0.5,0,0.8,0c0.3,0,0.5,0,0.8,0
			c0.3,0,0.5,0,0.8,0c0.3,0,0.5,0,0.8,0c0.3,0,0.5,0,0.8,0s0.5,0,0.8,0s0.5,0,0.8,0s0.5,0,0.8,0c0.3,0,0.5,0,0.8,0
			c0.3,0,0.5,0,0.8,0c0.3,0,0.5,0,0.8,0s0.5,0,0.8,0s0.5,0,0.8,0s0.5,0,0.8,0c0.3,0,0.5,0,0.8,0c0.3,0,0.5,0,0.8,0
			c0.3,0,0.5,0,0.8,0s0.5,0,0.8,0s0.5,0,0.8,0c0.3,0,0.5,0,0.8,0c0.3,0,0.5,0,0.8,0c0.3,0,0.5,0,0.8,0s0.5,0,0.8,0s0.5,0,0.8,0
			c0.3,0,0.5,0,0.8,0c0.3,0,0.5,0,0.8,0c0.3,0,0.5,0,0.8,0s0.5,0,0.8,0s0.5,0,0.8,0c0.3,0,0.5,0,0.8,0c0.3,0,0.5,0,0.8,0
			s0.5,0,0.8,0s0.5,0,0.8,0c0.3,0,0.5,0,0.8,0c0.3,0,0.5,0,0.8,0s0.5,0,0.8,0s0.5,0,0.8,0c0.3,0,0.5,0,0.8,0c0.3,0,0.5,0,0.8,0
			s0.5,0,0.8,0s0.5,0,0.8,0c0.3,0,0.5,0,0.8,0c0.3,0,0.5,0,0.8,0s0.5,0,0.8,0s0.5,0,0.8,0c0.3,0,0.5,0,0.8,0c0.3,0,0.5,0,0.8,0
			s0.5,0,0.8,0c0.3,0,0.5,0,0.8,0c0.3,0,0.5,0,0.8,0s0.5,0,0.8,0s0.5,0,0.8,0c0.3,0,0.5,0,0.8,0s0.5,0,0.8,0s0.5,0,0.8,0
			c0.3,0,0.5,0,0.8,0s0.5,0,0.8,0s0.5,0,0.8,0c0.3,0,0.5,0,0.8,0s0.5,0,0.8,0s0.5,0,0.8,0c0.3,0,0.5,0,0.8,0s0.5,0,0.8,0
			s0.5,0,0.8,0c0.3,0,0.5,0,0.8,0s0.5,0,0.8,0c0.3,0,0.5,0,0.8,0s0.5,0,0.8,0s0.5,0,0.8,0c0.3,0,0.5,0,0.8,0s0.5,0,0.8,0
			s0.5,0,0.8,0c0.3,0,0.5,0,0.8,0s0.5,0,0.8,0c0.3,0,0.5,0,0.8,0s0.5,0,0.8,0s0.5,0,0.8,0c0.3,0,0.5,0,0.8,0s0.5,0,0.8,0
			c0.3,0,0.5,0,0.8,0s0.5,0,0.8,0c0.3,0,0.5,0,0.8,0s0.5,0,0.8,0s0.5,0,0.8,0s0.5,0,0.8,0s0.5,0,0.8,0c0.3,0,0.5,0,0.8,0
			s0.5,0,0.8,0c0.3,0,0.5,0,0.8,0s0.5,0,0.8,0c0.3,0,0.5,0,0.8,0s0.5,0,0.8,0c0.3,0,0.5,0,0.8,0s0.5,0,0.8,0c0.3,0,0.5,0,0.8,0
			s0.5,0,0.8,0c0.3,0,0.5,0,0.8,0s0.5,0,0.8,0c0.3,0,0.5,0,0.8,0s0.5,0,0.8,0c0.3,0,0.5,0,0.8,0s0.5,0,0.8,0c0.3,0,0.5,0,0.8,0
			s0.5,0,0.8,0c0.3,0,0.5,0,0.8,0s0.5,0,0.8,0c0.3,0,0.5,0,0.8,0s0.5,0,0.8,0s0.5,0,0.8,0s0.5,0,0.8,0s0.5,0,0.8,0
			c0.3,0,0.5,0,0.8,0s0.5,0,0.8,0c0.3,0,0.5,0,0.8,0s0.5,0,0.8,0s0.5,0,0.8,0s0.5,0,0.8,0s0.5,0,0.8,0c0.3,0,0.5,0,0.8,0
			s0.5,0,0.8,0s0.5,0,0.8,0c0.3,0,0.5,0,0.8,0s0.5,0,0.8,0s0.5,0,0.8,0s0.5,0,0.8,0s0.5,0,0.8,0c0.3,0,0.5,0,0.8,0s0.5,0,0.8,0
			s0.5,0,0.8,0c0.3,0,0.5,0,0.8,0s0.5,0,0.8,0s0.5,0,0.8,0c0.3,0,0.5,0,0.8,0s0.5,0,0.8,0s0.5,0,0.8,0s0.5,0,0.8,0s0.5,0,0.8,0
			s0.5,0,0.8,0s0.5,0,0.8,0c0.3,0,0.5,0,0.8,0s0.5,0,0.8,0s0.5,0,0.8,0s0.5,0,0.8,0s0.5,0,0.8,0s0.5,0,0.8,0s0.5,0,0.8,0
			s0.5,0,0.8,0s0.5,0,0.8,0s0.5,0,0.8,0s0.5,0,0.8,0s0.5,0,0.8,0c0.3,0,0.5,0,0.8,0s0.5,0,0.8,0s0.5,0,0.8,0s0.5,0,0.8,0
			s0.5,0,0.8,0c0.3,0,0.5,0,0.8,0s0.5,0,0.8,0s0.5,0,0.8,0s0.5,0,0.8,0s0.5,0,0.8,0s0.5,0,0.8,0c0.3,0,0.5,0,0.8,0s0.5,0,0.8,0
			s0.5,0,0.8,0s0.5,0,0.8,0s0.5,0,0.8,0s0.5,0,0.8,0s0.5,0,0.8,0c0.3,0,0.5,0,0.8,0s0.5,0,0.8,0s0.5,0,0.8,0s0.5,0,0.8,0
			s0.5,0,0.8,0s0.5,0,0.8,0s0.5,0,0.8,0s0.5,0,0.8,0s0.5,0,0.8,0s0.5,0,0.8,0s0.5,0,0.8,0s0.5,0,0.8,0s0.5,0,0.8,0s0.5,0,0.8,0
			c0.3,0,0.5,0,0.8,0s0.5,0,0.8,0s0.5,0,0.8,0s0.5,0,0.8,0s0.5,0,0.8,0s0.5,0,0.8,0s0.5,0,0.8,0s0.5,0,0.8,0s0.5,0,0.8,0
			s0.5,0,0.8,0c0.3,0,0.5,0,0.8,0s0.5,0,0.8,0s0.5,0,0.8,0s0.5,0,0.8,0s0.5,0,0.8,0s0.5,0,0.8,0s0.5,0,0.8,0s0.5,0,0.8,0
			s0.5,0,0.8,0s0.5,0,0.8,0s0.5,0,0.8,0s0.5,0,0.8,0s0.5,0,0.8,0s0.5,0,0.8,0c0.3,0,0.5,0,0.8,0s0.5,0,0.8,0s0.5,0,0.8,0
			s0.5,0,0.8,0s0.5,0,0.8,0s0.5,0,0.8,0s0.5,0,0.8,0c0.3,0,0.5,0,0.8,0s0.5,0,0.8,0s0.5,0,0.8,0s0.5,0,0.8,0s0.5,0,0.8,0
			s0.5,0,0.8,0s0.5,0,0.8,0s0.5,0,0.8,0s0.5,0,0.8,0s0.5,0,0.8,0c0.3,0,0.5,0,0.8,0s0.5,0,0.8,0s0.5,0,0.8,0s0.5,0,0.8,0
			c0.3,0,0.5,0,0.8,0s0.5,0,0.8,0s0.5,0,0.8,0s0.5,0,0.8,0c0.3,0,0.5,0,0.8,0s0.5,0,0.8,0s0.5,0,0.8,0c0.3,0,0.5,0,0.8,0
			s0.5,0,0.8,0s0.5,0,0.8,0s0.5,0,0.8,0s0.5,0,0.8,0s0.5,0,0.8,0s0.5,0,0.8,0s0.5,0,0.8,0s0.5,0,0.8,0c0.3,0,0.5,0,0.8,0
			s0.5,0,0.8,0s0.5,0,0.8,0c0.3,0,0.5,0,0.8,0s0.5,0,0.8,0s0.5,0,0.8,0s0.5,0,0.8,0s0.5,0,0.8,0c0.3,0,0.5,0,0.8,0s0.5,0,0.8,0
			c0.3,0,0.5,0,0.8,0s0.5,0,0.8,0s0.5,0,0.8,0s0.5,0,0.8,0s0.5,0,0.8,0s0.5,0,0.8,0s0.5,0,0.8,0s0.5,0,0.8,0s0.5,0,0.8,0
			c0.3,0,0.5,0,0.8,0s0.5,0,0.8,0c0.3,0,0.5,0,0.8,0s0.5,0,0.8,0s0.5,0,0.8,0s0.5,0,0.8,0s0.5,0,0.8,0c0.3,0,0.5,0,0.8,0
			s0.5,0,0.8,0c0.3,0,0.5,0,0.8,0s0.5,0,0.8,0c0.3,0,0.5,0,0.8,0s0.5,0,0.8,0s0.5,0,0.8,0c0.3,0,0.5,0,0.8,0s0.5,0,0.8,0
			c0.3,0,0.5,0,0.8,0s0.5,0,0.8,0s0.5,0,0.8,0c0.3,0,0.5,0,0.8,0s0.5,0,0.8,0s0.5,0,0.8,0c0.3,0,0.5,0,0.8,0s0.5,0,0.8,0
			s0.5,0,0.8,0c0.3,0,0.5,0,0.8,0s0.5,0,0.8,0s0.5,0,0.8,0c0.3,0,0.5,0,0.8,0c0.3,0,0.5,0,0.8,0s0.5,0,0.8,0s0.5,0,0.8,0
			c0.3,0,0.5,0,0.8,0c0.3,0,0.5,0,0.8,0s0.5,0,0.8,0s0.5,0,0.8,0c0.3,0,0.5,0,0.8,0c0.3,0,0.5,0,0.8,0s0.5,0,0.8,0s0.5,0,0.8,0
			c0.3,0,0.5,0,0.8,0c0.3,0,0.5,0,0.8,0c0.3,0,0.5,0,0.8,0s0.5,0,0.8,0s0.5,0,0.8,0s0.5,0,0.8,0c0.3,0,0.5,0,0.8,0
			c0.3,0,0.5,0,0.8,0c0.3,0,0.5,0,0.8,0c0.3,0,0.5,0,0.8,0v-14c-0.3,0-0.5,0-0.8,0c-0.3,0-0.5,0-0.8,0c-0.3,0-0.5,0-0.8,0
			c-0.3,0-0.5,0-0.8,0c-0.3,0-0.5,0-0.8,0s-0.5,0-0.8,0s-0.5,0-0.8,0s-0.5,0-0.8,0c-0.3,0-0.5,0-0.8,0c-0.3,0-0.5,0-0.8,0
			c-0.3,0-0.5,0-0.8,0s-0.5,0-0.8,0s-0.5,0-0.8,0c-0.3,0-0.5,0-0.8,0c-0.3,0-0.5,0-0.8,0s-0.5,0-0.8,0s-0.5,0-0.8,0
			c-0.3,0-0.5,0-0.8,0c-0.3,0-0.5,0-0.8,0s-0.5,0-0.8,0s-0.5,0-0.8,0c-0.3,0-0.5,0-0.8,0c-0.3,0-0.5,0-0.8,0s-0.5,0-0.8,0
			s-0.5,0-0.8,0c-0.3,0-0.5,0-0.8,0s-0.5,0-0.8,0s-0.5,0-0.8,0c-0.3,0-0.5,0-0.8,0s-0.5,0-0.8,0s-0.5,0-0.8,0c-0.3,0-0.5,0-0.8,0
			s-0.5,0-0.8,0s-0.5,0-0.8,0c-0.3,0-0.5,0-0.8,0s-0.5,0-0.8,0c-0.3,0-0.5,0-0.8,0s-0.5,0-0.8,0s-0.5,0-0.8,0c-0.3,0-0.5,0-0.8,0
			s-0.5,0-0.8,0c-0.3,0-0.5,0-0.8,0s-0.5,0-0.8,0c-0.3,0-0.5,0-0.8,0s-0.5,0-0.8,0s-0.5,0-0.8,0s-0.5,0-0.8,0s-0.5,0-0.8,0
			c-0.3,0-0.5,0-0.8,0s-0.5,0-0.8,0c-0.3,0-0.5,0-0.8,0s-0.5,0-0.8,0s-0.5,0-0.8,0s-0.5,0-0.8,0s-0.5,0-0.8,0s-0.5,0-0.8,0
			s-0.5,0-0.8,0s-0.5,0-0.8,0s-0.5,0-0.8,0c-0.3,0-0.5,0-0.8,0s-0.5,0-0.8,0c-0.3,0-0.5,0-0.8,0s-0.5,0-0.8,0s-0.5,0-0.8,0
			s-0.5,0-0.8,0s-0.5,0-0.8,0c-0.3,0-0.5,0-0.8,0s-0.5,0-0.8,0s-0.5,0-0.8,0c-0.3,0-0.5,0-0.8,0s-0.5,0-0.8,0s-0.5,0-0.8,0
			s-0.5,0-0.8,0s-0.5,0-0.8,0s-0.5,0-0.8,0s-0.5,0-0.8,0s-0.5,0-0.8,0s-0.5,0-0.8,0c-0.3,0-0.5,0-0.8,0s-0.5,0-0.8,0s-0.5,0-0.8,0
			c-0.3,0-0.5,0-0.8,0s-0.5,0-0.8,0s-0.5,0-0.8,0s-0.5,0-0.8,0c-0.3,0-0.5,0-0.8,0s-0.5,0-0.8,0s-0.5,0-0.8,0s-0.5,0-0.8,0
			c-0.3,0-0.5,0-0.8,0s-0.5,0-0.8,0s-0.5,0-0.8,0s-0.5,0-0.8,0s-0.5,0-0.8,0s-0.5,0-0.8,0s-0.5,0-0.8,0s-0.5,0-0.8,0s-0.5,0-0.8,0
			s-0.5,0-0.8,0c-0.3,0-0.5,0-0.8,0s-0.5,0-0.8,0s-0.5,0-0.8,0s-0.5,0-0.8,0s-0.5,0-0.8,0s-0.5,0-0.8,0s-0.5,0-0.8,0
			c-0.3,0-0.5,0-0.8,0s-0.5,0-0.8,0s-0.5,0-0.8,0s-0.5,0-0.8,0s-0.5,0-0.8,0s-0.5,0-0.8,0s-0.5,0-0.8,0s-0.5,0-0.8,0s-0.5,0-0.8,0
			s-0.5,0-0.8,0s-0.5,0-0.8,0s-0.5,0-0.8,0s-0.5,0-0.8,0s-0.5,0-0.8,0c-0.3,0-0.5,0-0.8,0s-0.5,0-0.8,0s-0.5,0-0.8,0s-0.5,0-0.8,0
			s-0.5,0-0.8,0s-0.5,0-0.8,0s-0.5,0-0.8,0s-0.5,0-0.8,0s-0.5,0-0.8,0s-0.5,0-0.8,0c-0.3,0-0.5,0-0.8,0s-0.5,0-0.8,0s-0.5,0-0.8,0
			s-0.5,0-0.8,0s-0.5,0-0.8,0s-0.5,0-0.8,0s-0.5,0-0.8,0s-0.5,0-0.8,0s-0.5,0-0.8,0s-0.5,0-0.8,0s-0.5,0-0.8,0s-0.5,0-0.8,0
			s-0.5,0-0.8,0s-0.5,0-0.8,0c-0.3,0-0.5,0-0.8,0s-0.5,0-0.8,0s-0.5,0-0.8,0s-0.5,0-0.8,0s-0.5,0-0.8,0s-0.5,0-0.8,0s-0.5,0-0.8,0
			c-0.3,0-0.5,0-0.8,0s-0.5,0-0.8,0s-0.5,0-0.8,0s-0.5,0-0.8,0s-0.5,0-0.8,0s-0.5,0-0.8,0c-0.3,0-0.5,0-0.8,0s-0.5,0-0.8,0
			s-0.5,0-0.8,0s-0.5,0-0.8,0s-0.5,0-0.8,0c-0.3,0-0.5,0-0.8,0s-0.5,0-0.8,0s-0.5,0-0.8,0s-0.5,0-0.8,0s-0.5,0-0.8,0s-0.5,0-0.8,0
			s-0.5,0-0.8,0s-0.5,0-0.8,0s-0.5,0-0.8,0s-0.5,0-0.8,0s-0.5,0-0.8,0s-0.5,0-0.8,0c-0.3,0-0.5,0-0.8,0s-0.5,0-0.8,0s-0.5,0-0.8,0
			s-0.5,0-0.8,0s-0.5,0-0.8,0s-0.5,0-0.8,0s-0.5,0-0.8,0c-0.3,0-0.5,0-0.8,0s-0.5,0-0.8,0s-0.5,0-0.8,0c-0.3,0-0.5,0-0.8,0
			s-0.5,0-0.8,0s-0.5,0-0.8,0c-0.3,0-0.5,0-0.8,0s-0.5,0-0.8,0s-0.5,0-0.8,0s-0.5,0-0.8,0s-0.5,0-0.8,0c-0.3,0-0.5,0-0.8,0
			s-0.5,0-0.8,0s-0.5,0-0.8,0c-0.3,0-0.5,0-0.8,0s-0.5,0-0.8,0s-0.5,0-0.8,0s-0.5,0-0.8,0s-0.5,0-0.8,0c-0.3,0-0.5,0-0.8,0
			s-0.5,0-0.8,0c-0.3,0-0.5,0-0.8,0s-0.5,0-0.8,0s-0.5,0-0.8,0s-0.5,0-0.8,0s-0.5,0-0.8,0c-0.3,0-0.5,0-0.8,0s-0.5,0-0.8,0
			c-0.3,0-0.5,0-0.8,0s-0.5,0-0.8,0c-0.3,0-0.5,0-0.8,0s-0.5,0-0.8,0c-0.3,0-0.5,0-0.8,0s-0.5,0-0.8,0c-0.3,0-0.5,0-0.8,0
			s-0.5,0-0.8,0c-0.3,0-0.5,0-0.8,0s-0.5,0-0.8,0c-0.3,0-0.5,0-0.8,0s-0.5,0-0.8,0c-0.3,0-0.5,0-0.8,0s-0.5,0-0.8,0
			c-0.3,0-0.5,0-0.8,0s-0.5,0-0.8,0c-0.3,0-0.5,0-0.8,0s-0.5,0-0.8,0c-0.3,0-0.5,0-0.8,0s-0.5,0-0.8,0s-0.5,0-0.8,0s-0.5,0-0.8,0
			s-0.5,0-0.8,0c-0.3,0-0.5,0-0.8,0s-0.5,0-0.8,0c-0.3,0-0.5,0-0.8,0s-0.5,0-0.8,0c-0.3,0-0.5,0-0.8,0s-0.5,0-0.8,0s-0.5,0-0.8,0
			c-0.3,0-0.5,0-0.8,0s-0.5,0-0.8,0c-0.3,0-0.5,0-0.8,0s-0.5,0-0.8,0s-0.5,0-0.8,0c-0.3,0-0.5,0-0.8,0s-0.5,0-0.8,0s-0.5,0-0.8,0
			c-0.3,0-0.5,0-0.8,0s-0.5,0-0.8,0c-0.3,0-0.5,0-0.8,0s-0.5,0-0.8,0s-0.5,0-0.8,0c-0.3,0-0.5,0-0.8,0s-0.5,0-0.8,0s-0.5,0-0.8,0
			c-0.3,0-0.5,0-0.8,0s-0.5,0-0.8,0s-0.5,0-0.8,0c-0.3,0-0.5,0-0.8,0s-0.5,0-0.8,0s-0.5,0-0.8,0c-0.3,0-0.5,0-0.8,0s-0.5,0-0.8,0
			s-0.5,0-0.8,0c-0.3,0-0.5,0-0.8,0c-0.3,0-0.5,0-0.8,0s-0.5,0-0.8,0c-0.3,0-0.5,0-0.8,0c-0.3,0-0.5,0-0.8,0s-0.5,0-0.8,0
			s-0.5,0-0.8,0c-0.3,0-0.5,0-0.8,0c-0.3,0-0.5,0-0.8,0s-0.5,0-0.8,0s-0.5,0-0.8,0c-0.3,0-0.5,0-0.8,0c-0.3,0-0.5,0-0.8,0
			s-0.5,0-0.8,0s-0.5,0-0.8,0c-0.3,0-0.5,0-0.8,0c-0.3,0-0.5,0-0.8,0s-0.5,0-0.8,0s-0.5,0-0.8,0c-0.3,0-0.5,0-0.8,0
			c-0.3,0-0.5,0-0.8,0s-0.5,0-0.8,0s-0.5,0-0.8,0c-0.3,0-0.5,0-0.8,0c-0.3,0-0.5,0-0.8,0c-0.3,0-0.5,0-0.8,0s-0.5,0-0.8,0
			s-0.5,0-0.8,0c-0.3,0-0.5,0-0.8,0c-0.3,0-0.5,0-0.8,0c-0.3,0-0.5,0-0.8,0s-0.5,0-0.8,0s-0.5,0-0.8,0c-0.3,0-0.5,0-0.8,0
			c-0.3,0-0.5,0-0.8,0c-0.3,0-0.5,0-0.8,0s-0.5,0-0.8,0s-0.5,0-0.8,0s-0.5,0-0.8,0c-0.3,0-0.5,0-0.8,0c-0.3,0-0.5,0-0.8,0
			c-0.3,0-0.5,0-0.8,0s-0.5,0-0.8,0s-0.5,0-0.8,0s-0.5,0-0.8,0c-0.3,0-0.5,0-0.8,0c-0.3,0-0.5,0-0.8,0c-0.3,0-0.5,0-0.8,0
			c-0.3,0-0.5,0-0.8,0s-0.5,0-0.8,0s-0.5,0-0.8,0s-0.5,0-0.8,0s-0.5,0-0.8,0c-0.3,0-0.5,0-0.8,0c-0.3,0-0.5,0-0.8,0
			c-0.3,0-0.5,0-0.8,0c-0.3,0-0.5,0-0.8,0c-0.3,0-0.5,0-0.8,0s-0.5,0-0.8,0s-0.5,0-0.8,0s-0.5,0-0.8,0s-0.5,0-0.8,0
			c-0.3,0-0.5,0-0.8,0c-0.3,0-0.5,0-0.8,0c-0.3,0-0.5,0-0.8,0c-0.3,0-0.5,0-0.8,0c-0.3,0-0.5,0-0.8,0c-0.3,0-0.5,0-0.8,0
			c-0.3,0-0.5,0-0.8,0c-0.3,0-0.5,0-0.8,0s-0.5,0-0.8,0s-0.5,0-0.8,0s-0.5,0-0.8,0s-0.5,0-0.8,0s-0.5,0-0.8,0s-0.5,0-0.8,0
			c-0.3,0-0.5,0-0.8,0c-0.3,0-0.5,0-0.8,0c-0.3,0-0.5,0-0.8,0c-0.3,0-0.5,0-0.8,0c-0.3,0-0.5,0-0.8,0c-0.3,0-0.5,0-0.8,0
			c-0.3,0-0.5,0-0.8,0c-0.3,0-0.5,0-0.8,0c-0.3,0-0.5,0-0.8,0c-0.3,0-0.5,0-0.8,0c-0.3,0-0.5,0-0.8,0c-0.3,0-0.5,0-0.8,0
			c-0.3,0-0.5,0-0.8,0c-0.3,0-0.5,0-0.8,0c-0.3,0-0.5,0-0.8,0c-0.3,0-0.5,0-0.8,0c-0.3,0-0.5,0-0.8,0c-0.3,0-0.5,0-0.8,0
			c-0.3,0-0.5,0-0.8,0c-0.3,0-0.5,0-0.8,0c-0.3,0-0.5,0-0.8,0c-0.3,0-0.5,0-0.8,0c-0.3,0-0.5,0-0.8,0c-0.3,0-0.5,0-0.8,0
			c-0.3,0-0.5,0-0.8,0c-0.3,0-0.5,0-0.8,0c-0.3,0-0.5,0-0.8,0c-0.3,0-0.5,0-0.8,0c-0.3,0-0.5,0-0.8,0c-0.3,0-0.5,0-0.8,0
			c-0.3,0-0.5,0-0.8,0c-0.3,0-0.5,0-0.8,0c-0.3,0-0.5,0-0.8,0c-0.3,0-0.5,0-0.8,0c-0.3,0-0.5,0-0.8,0c-0.3,0-0.5,0-0.8,0
			c-0.3,0-0.5,0-0.8,0c-0.3,0-0.5,0-0.8,0c-0.3,0-0.5,0-0.8,0c-0.3,0-0.5,0-0.8,0c-0.3,0-0.5,0-0.8,0c-0.3,0-0.5,0-0.8,0
			s-0.5,0-0.8,0c-0.3,0-0.5,0-0.8,0c-0.3,0-0.5,0-0.8,0c-0.3,0-0.5,0-0.8,0c-0.3,0-0.5,0-0.8,0s-0.5,0-0.8,0s-0.5,0-0.8,0
			s-0.5,0-0.8,0s-0.5,0-0.8,0c-0.3,0-0.5,0-0.8,0c-0.3,0-0.5,0-0.8,0c-0.3,0-0.5,0-0.8,0c-0.3,0-0.5,0-0.8,0s-0.5,0-0.8,0
			s-0.5,0-0.8,0s-0.5,0-0.8,0c-0.3,0-0.5,0-0.8,0c-0.3,0-0.5,0-0.8,0c-0.3,0-0.5,0-0.8,0s-0.5,0-0.8,0s-0.5,0-0.8,0s-0.5,0-0.8,0
			c-0.3,0-0.5,0-0.8,0c-0.3,0-0.5,0-0.8,0c-0.3,0-0.5,0-0.8,0s-0.5,0-0.8,0s-0.5,0-0.8,0c-0.3,0-0.5,0-0.8,0c-0.3,0-0.5,0-0.8,0
			c-0.3,0-0.5,0-0.8,0s-0.5,0-0.8,0s-0.5,0-0.8,0c-0.3,0-0.5,0-0.8,0c-0.3,0-0.5,0-0.8,0c-0.3,0-0.5,0-0.8,0s-0.5,0-0.8,0
			s-0.5,0-0.8,0c-0.3,0-0.5,0-0.8,0c-0.3,0-0.5,0-0.8,0s-0.5,0-0.8,0s-0.5,0-0.8,0c-0.3,0-0.5,0-0.8,0c-0.3,0-0.5,0-0.8,0
			s-0.5,0-0.8,0s-0.5,0-0.8,0c-0.3,0-0.5,0-0.8,0c-0.3,0-0.5,0-0.8,0s-0.5,0-0.8,0s-0.5,0-0.8,0c-0.3,0-0.5,0-0.8,0
			c-0.3,0-0.5,0-0.8,0s-0.5,0-0.8,0s-0.5,0-0.8,0c-0.3,0-0.5,0-0.8,0c-0.3,0-0.5,0-0.8,0s-0.5,0-0.8,0s-0.5,0-0.8,0
			c-0.3,0-0.5,0-0.8,0s-0.5,0-0.8,0s-0.5,0-0.8,0c-0.3,0-0.5,0-0.8,0c-0.3,0-0.5,0-0.8,0s-0.5,0-0.8,0s-0.5,0-0.8,0
			c-0.3,0-0.5,0-0.8,0s-0.5,0-0.8,0s-0.5,0-0.8,0c-0.3,0-0.5,0-0.8,0s-0.5,0-0.8,0s-0.5,0-0.8,0c-0.3,0-0.5,0-0.8,0
			c-0.3,0-0.5,0-0.8,0s-0.5,0-0.8,0c-0.3,0-0.5,0-0.8,0c-0.3,0-0.5,0-0.8,0s-0.5,0-0.8,0c-0.3,0-0.5,0-0.8,0c-0.3,0-0.5,0-0.8,0
			s-0.5,0-0.8,0s-0.5,0-0.8,0c-0.3,0-0.5,0-0.8,0s-0.5,0-0.8,0s-0.5,0-0.8,0c-0.3,0-0.5,0-0.8,0s-0.5,0-0.8,0s-0.5,0-0.8,0
			c-0.3,0-0.5,0-0.8,0s-0.5,0-0.8,0s-0.5,0-0.8,0c-0.3,0-0.5,0-0.8,0s-0.5,0-0.8,0s-0.5,0-0.8,0c-0.3,0-0.5,0-0.8,0s-0.5,0-0.8,0
			s-0.5,0-0.8,0c-0.3,0-0.5,0-0.8,0s-0.5,0-0.8,0s-0.5,0-0.8,0c-0.3,0-0.5,0-0.8,0s-0.5,0-0.8,0c-0.3,0-0.5,0-0.8,0
			c-0.3,0-0.5,0-0.8,0s-0.5,0-0.8,0c-0.3,0-0.5,0-0.8,0s-0.5,0-0.8,0s-0.5,0-0.8,0c-0.3,0-0.5,0-0.8,0s-0.5,0-0.8,0s-0.5,0-0.8,0
			c-0.3,0-0.5,0-0.8,0s-0.5,0-0.8,0s-0.5,0-0.8,0c-0.3,0-0.5,0-0.8,0s-0.5,0-0.8,0c-0.3,0-0.5,0-0.8,0c-0.3,0-0.5,0-0.8,0
			s-0.5,0-0.8,0c-0.3,0-0.5,0-0.8,0s-0.5,0-0.8,0s-0.5,0-0.8,0c-0.3,0-0.5,0-0.8,0s-0.5,0-0.8,0s-0.5,0-0.8,0c-0.3,0-0.5,0-0.8,0
			s-0.5,0-0.8,0c-0.3,0-0.5,0-0.8,0c-0.3,0-0.5,0-0.8,0s-0.5,0-0.8,0c-0.3,0-0.5,0-0.8,0s-0.5,0-0.8,0V533.4z M397.5,533.7
			c3.6-0.1,6.8-0.3,10.1-0.3v-14c-3.6,0-7.3,0.2-10.5,0.3L397.5,533.7z M397.3,526.7v-7h-10.8l4.4,9.8L397.3,526.7z M403.4,531.8
			l-3.3,6.2l0,0L403.4,531.8z M467.2,552.3l1.4-6.9l0,0L467.2,552.3z M507.4,560.3l4.8-5.1l-1.5-1.4l-2-0.4L507.4,560.3z
			 M524.2,564.7l-3,6.3l1.3,0.6l1.4,0L524.2,564.7z M664.8,565.2l0,7l0.2,0l0.2,0L664.8,565.2z M680.8,562.3l0-7l-2.8,0l-2,1.9
			L680.8,562.3z M705.6,560.6l-0.2-7l0,0L705.6,560.6z M802.9,541.1l-2.3-6.6l0,0L802.9,541.1z M830.5,526.6l5.5,4.3l8.5-11
			l-13.9-0.3L830.5,526.6z M397.3,526.7v7h0.1l0.1,0L397.3,526.7z"/>
	</g>
	<g>
		<defs>
			<path id="SVGID_00000078741589939115650820000003674622980446807685_" d="M507.4,557.3c5.1,0.8,10.5-1.8,15.4,1.9
				c1.9,4.6,0.8,9.2,0.1,13.7c-1.7,10.8-3.6,21.6-5.5,32.4c-2,12.2-1.6,12.9,9.5,13c5.1,0.1,10.3,0,15.5,0c39.5,0,79.1,0,118.6,0
				c10.9,0,11.4-0.7,9.3-13.2c-1.9-11.1-3.8-22.2-5.7-33.4c-0.7-4.2-1.8-8.5,0.8-12.5h15.4c3,18.6,6.1,37.2,9.1,55.8
				c0.7,4.1,2.6,6.1,6.5,6.1c25.1-0.1,50.6,3.1,73-15.3c4.6-3.8,10.2-4.6,13.1,2.6c2.8,6.8-1.8,10.2-6.2,13.1
				c-16.4,11.1-33.5,16.5-53,16.3c-91.1-0.8-182.2-0.4-273.3-0.4c-2.6,0-5.1,0-7.7-0.1c-4.3,0-7.3-1.8-7.3-7.4s2.6-8.8,7.4-8.9
				c10.9-0.2,21.8-0.1,32.7-0.1c14.3,0,22.8-8.3,25.5-24.8C502.9,583.3,505.2,570.3,507.4,557.3L507.4,557.3z"/>
		</defs>
		<clipPath id="SVGID_00000171680155742711832320000010720174837723548341_">
			<use xlink:href="#SVGID_00000078741589939115650820000003674622980446807685_"  style="overflow:visible;"/>
		</clipPath>
		<path style="clip-path:url(#SVGID_00000171680155742711832320000010720174837723548341_);fill:#263238;" d="M502.1,552.7
			L502.1,552.7l10.6,9.2l0,0L502.1,552.7z M507.6,597.5c2.2-13,4.5-26,6.7-39l-13.8-2.4c-2.3,13-4.6,26-6.8,39.1L507.6,597.5z
			 M475.1,628.1c8.6,0,16.2-2.5,22-8.2c5.7-5.5,8.9-13.3,10.5-22.5l-13.8-2.3c-1.2,7.4-3.6,12-6.4,14.7c-2.7,2.6-6.5,4.2-12.2,4.2
			V628.1z M442.6,628.2c10.8-0.2,21.6-0.1,32.5-0.1v-14c-10.8,0-21.8-0.1-32.8,0.1L442.6,628.2z M442.1,630.1c0-1.8,0.4-2.2,0.3-2.1
			c-0.1,0.1-0.2,0.2-0.3,0.2c0,0,0.1-0.1,0.5-0.1l-0.3-14c-4,0.1-7.9,1.5-10.7,4.9c-2.6,3.2-3.5,7.2-3.5,11H442.1z M442.4,630.6
			c-0.3,0-0.5,0-0.7,0c-0.2,0-0.3,0-0.3-0.1c-0.1,0,0.1,0,0.4,0.3c0.1,0.1,0.2,0.2,0.3,0.3c0.1,0.1,0.1,0.2,0.1,0.2
			c0,0-0.1-0.3-0.1-1.1h-14c0,4,1.1,8.1,4.4,11.1c3.1,2.8,7,3.4,9.9,3.4V630.6z M450.2,630.6c-2.5,0-5.1,0-7.7,0l-0.1,14
			c2.6,0,5.2,0.1,7.8,0.1V630.6z M723.5,631c-91.1-0.8-182.3-0.4-273.4-0.4v14c91.1,0,182.2-0.5,273.2,0.4L723.5,631z M772.5,615.9
			c-15.3,10.4-31,15.3-49,15.1l-0.1,14c20.9,0.2,39.5-5.7,57-17.5L772.5,615.9z M776.2,611.2c0.4,0.9,0.3,1.2,0.3,1.3
			c0,0,0,0-0.1,0.2c-0.2,0.3-0.5,0.7-1.2,1.2c-0.7,0.6-1.5,1.2-2.6,1.9l7.8,11.6c2-1.4,5.5-3.7,7.7-7.1c2.7-4.1,3.2-9.1,1-14.5
			L776.2,611.2z M773.9,611.3c0.7-0.6,1.4-1,1.8-1.1c0.4-0.2,0.5-0.1,0.3-0.1c-0.1,0-0.2,0-0.4-0.1c-0.1-0.1-0.2-0.1-0.2-0.1
			c0,0,0.3,0.3,0.8,1.4l12.9-5.3c-2.1-5.2-6-9.2-11.7-9.7c-5-0.5-9.4,1.9-12.3,4.4L773.9,611.3z M696.6,628.2
			c23.8-0.1,52.6,3.5,77.4-16.9l-8.9-10.8c-19.9,16.4-42.2,13.6-68.5,13.7L696.6,628.2z M683.1,616.2c0.5,2.8,1.5,6.1,4.2,8.5
			c2.7,2.6,6.2,3.4,9.3,3.4v-14c-0.4,0-0.5-0.1-0.3,0c0.1,0,0.2,0.1,0.3,0.1c0.1,0.1,0.3,0.2,0.4,0.3c0.2,0.2,0.3,0.4,0.3,0.3
			c0,0-0.1-0.1-0.1-0.3c0-0.2-0.1-0.4-0.2-0.7L683.1,616.2z M674,560.5c3,18.6,6.1,37.2,9.1,55.8l13.8-2.3
			c-3.1-18.6-6.1-37.2-9.1-55.8L674,560.5z M665.4,566.3h15.4v-14h-15.4V566.3z M671.5,570.6c-0.4-2.5-0.7-3.9-0.7-5.3
			c0-1.1,0.2-1.7,0.5-2.2l-11.6-7.8c-4.5,6.8-2.5,14.4-1.9,17.5L671.5,570.6z M677.2,604c-0.9-5.6-1.9-11.1-2.8-16.7
			c-0.9-5.6-1.9-11.1-2.8-16.7l-13.8,2.3c0.9,5.6,1.9,11.1,2.8,16.7c0.9,5.6,1.9,11.1,2.8,16.7L677.2,604z M661,625.3
			c2.6,0,5.3,0,7.5-0.4c2.3-0.4,5.5-1.4,7.7-4.5c2-2.9,2.1-6.1,2-8.3c-0.1-2.3-0.5-5.1-1.1-8.2l-13.8,2.3c0.5,3.2,0.8,5.2,0.9,6.5
			c0,0.6,0,0.8,0,0.8c0-0.1,0.1-0.6,0.5-1.2c1-1.4,2.2-1.4,1.4-1.3c-0.9,0.1-2.4,0.2-5.2,0.2V625.3z M542.4,625.3
			c39.5,0,79.1,0,118.6,0l0-14c-39.5,0-79.1,0-118.6,0V625.3z M526.8,625.3c5.2,0.1,10.5,0,15.5,0v-14c-5.2,0-10.3,0.1-15.4,0
			L526.8,625.3z M510.5,604.2c-0.5,3-0.9,5.8-1,8.1c-0.1,2.2,0,5.4,2.1,8.3c2.2,3,5.5,4,7.7,4.4c2.2,0.4,4.9,0.4,7.5,0.5l0.2-14
			c-2.9,0-4.4-0.1-5.3-0.3c-0.9-0.2,0.3-0.2,1.2,1.2c0.8,1.1,0.5,1.9,0.6,0.5c0-1.3,0.3-3.2,0.8-6.3L510.5,604.2z M515.9,571.9
			c-1.7,10.8-3.6,21.4-5.4,32.3l13.8,2.3c1.8-10.7,3.8-21.6,5.5-32.5L515.9,571.9z M516.3,561.9c1,2.3,0.5,4.4-0.4,10l13.8,2.1
			c0.5-3.5,2.3-10.7-0.6-17.5L516.3,561.9z M506.3,564.2c2,0.3,3.9,0.3,5.3,0.2c1.8-0.1,2.5-0.2,3.7-0.2c1.9-0.1,2.6,0.2,3.1,0.6
			l8.5-11.1c-4.3-3.3-8.8-3.6-12-3.5c-1.3,0-3.3,0.2-4.1,0.3c-1.1,0.1-1.9,0-2.4,0L506.3,564.2z M507.4,557.3l6.9,1.2l4.3-25
			l-16.6,19.2L507.4,557.3z M500.7,596.3l-6.9-1.2l0,0l0,0L500.7,596.3z M442.5,621.2l-0.1-7l0,0l0,0L442.5,621.2z M442.4,637.6
			l0.1-7l0,0h0V637.6z M723.5,638l-0.1,7l0,0L723.5,638z M776.5,621.7l-3.9-5.8l0,0l0,0L776.5,621.7z M782.6,608.5l6.5-2.7l0,0
			L782.6,608.5z M769.5,605.9l-4.4-5.4l0,0L769.5,605.9z M696.5,621.2v7h0l0,0L696.5,621.2z M690,615.1l-6.9,1.1l0,0l0,0L690,615.1z
			 M680.9,559.3l6.9-1.1l-1-5.9h-5.9V559.3z M665.4,559.3v-7h-3.7l-2.1,3.1L665.4,559.3z M664.6,571.8l6.9-1.2l0,0L664.6,571.8z
			 M670.3,605.2l6.9-1.2l0,0L670.3,605.2z M661,618.3v-7h0L661,618.3z M526.9,618.3l-0.1,7l0,0L526.9,618.3z M517.4,605.3l-6.9-1.2
			l0,0L517.4,605.3z M522.8,573l6.9,1.1l0,0l0,0L522.8,573z M522.8,559.2l6.5-2.7l-0.7-1.7l-1.5-1.1L522.8,559.2z M507.4,557.3
			l-5.3-4.6l-8.2,9.6l12.5,1.9L507.4,557.3z"/>
	</g>
	<path class="st11" d="M925.2,288c7.4,7.2,6.9,11.7-1.7,16.6c-1.9,0.8-4,0.6-6,0.6c-119.2,0-195.3,0-314.5,0.1
		c-4.1,0-8.2,0.3-10.1-5.2c-1.8-5.2-0.2-9,3.9-11.7c2.4-1.8,5-1,7.5-1c119-0.1,195-0.1,314.1,0C920.7,287.3,923,286.9,925.2,288
		L925.2,288z"/>
	<g>
		<defs>
			<path id="SVGID_00000181800147575054943790000006577117348083555740_" d="M925.2,288c7.4,7.2,6.9,11.7-1.7,16.6
				c-1.9,0.8-4,0.6-6,0.6c-119.2,0-195.3,0-314.5,0.1c-4.1,0-8.2,0.3-10.1-5.2c-1.8-5.2-0.2-9,3.9-11.7c2.4-1.8,5-1,7.5-1
				c119-0.1,195-0.1,314.1,0C920.7,287.3,923,286.9,925.2,288L925.2,288z"/>
		</defs>
		<clipPath id="SVGID_00000111177999396247158210000007066229548032376471_">
			<use xlink:href="#SVGID_00000181800147575054943790000006577117348083555740_"  style="overflow:visible;"/>
		</clipPath>
		<path style="clip-path:url(#SVGID_00000111177999396247158210000007066229548032376471_);fill:#263238;" d="M930.5,292.6
			L930.5,292.6l-10.6-9.2l0,0L930.5,292.6z M918.4,294.3c0.8,0,1.5,0,2-0.1c0.6,0,0.9,0,1.2,0c0.5,0,0.5,0.1,0.2,0l6.7-12.3
			c-2.4-1.3-4.7-1.6-6.5-1.6c-0.8,0-1.6,0-2.2,0c-0.7,0-1,0-1.4,0V294.3z M604.3,294.3c119-0.1,195-0.1,314.1,0l0-14
			c-119-0.1-195-0.1-314.1,0L604.3,294.3z M601,293.9c-0.1,0.1-0.3,0.2-0.5,0.2c-0.1,0-0.1,0,0.1,0c0.3,0,0.6,0,1.3,0.1
			c0.6,0,1.5,0.1,2.4,0.1v-14c-0.3,0-0.7,0-1.4-0.1c-0.6,0-1.6-0.1-2.6-0.1c-2.1,0-5,0.5-7.7,2.5L601,293.9z M599.6,297.8
			c-0.5-1.5-0.3-2.1-0.3-2.2c0.1-0.2,0.3-0.7,1.4-1.4l-7.8-11.7c-2.9,1.9-5.5,4.7-6.8,8.4c-1.3,3.8-1,7.7,0.2,11.4L599.6,297.8z
			 M603,298.3c-1.2,0-1.9,0-2.6,0c-0.7,0-0.9-0.1-0.9-0.1c0,0,0.1,0,0.1,0.1c0.1,0.1,0.2,0.1,0.2,0.2c0.1,0.1,0,0-0.2-0.6l-13.3,4.5
			c1.6,4.6,4.5,7.6,8.5,9c3.2,1.1,6.7,0.9,8.2,0.9V298.3z M917.6,298.2c-119.2,0-195.3,0-314.5,0.1l0,14
			c119.2-0.1,195.3-0.1,314.5-0.1V298.2z M920.8,298.2c0.1,0,0,0-0.5,0c-0.3,0-0.6,0-1.1,0c-0.4,0-1.1,0-1.7,0v14
			c0.3,0,2.2,0.1,3.3,0c1.5-0.1,3.4-0.3,5.4-1.1L920.8,298.2z M920.3,293c1.6,1.6,2.5,2.7,2.9,3.4c0.4,0.7,0.2,0.6,0.2,0.1
			c0.1-0.6,0.3-0.7-0.1-0.3c-0.5,0.5-1.4,1.3-3.3,2.3l6.9,12.2c4.4-2.5,9.7-6.4,10.3-12.8c0.6-6.2-3.5-11.2-7.2-14.9L920.3,293z
			 M925.2,288.1l-3.3,6.2l5,2.7l3.7-4.3L925.2,288.1z M918.4,287.3l0,7h0V287.3z M604.3,287.3v7h0L604.3,287.3z M596.8,288.3
			l3.9,5.8l0.1-0.1l0.1-0.1L596.8,288.3z M592.9,300l6.6-2.3l0,0L592.9,300z M603,305.3v7h0L603,305.3z M923.5,304.7l2.7,6.5
			l0.4-0.2l0.4-0.2L923.5,304.7z M925.2,288l4.9-5l-5.3-5.2l-4.9,5.7L925.2,288z"/>
	</g>
	<path class="st11" d="M269.3,304.4c-7.4-6.5-7.4-10.1-0.1-16.5c2.5-1.1,5.1-0.6,7.6-0.6c118.2,0,171.8,0,290,0
		c2.6,0,5.1-0.5,7.7,0.6c0.5,0.2,1,0.3,1.5,0.5c4.4,2.8,4.6,7.3,3.2,12.1c-1.3,4.6-4.5,4.9-8.3,4.9c-118.7-0.2-172.7-0.1-291.4-0.2
		C276.1,305.2,272.6,306,269.3,304.4L269.3,304.4z"/>
	<g>
		<defs>
			<path id="SVGID_00000018219933236921939960000015630417205029481347_" d="M269.3,304.4c-7.4-6.5-7.4-10.1-0.1-16.5
				c2.5-1.1,5.1-0.6,7.6-0.6c118.2,0,171.8,0,290,0c2.6,0,5.1-0.5,7.7,0.6c0.5,0.2,1,0.3,1.5,0.5c4.4,2.8,4.6,7.3,3.2,12.1
				c-1.3,4.6-4.5,4.9-8.3,4.9c-118.7-0.2-172.7-0.1-291.4-0.2C276.1,305.2,272.6,306,269.3,304.4L269.3,304.4z"/>
		</defs>
		<clipPath id="SVGID_00000134236148969217548600000012577869201298142395_">
			<use xlink:href="#SVGID_00000018219933236921939960000015630417205029481347_"  style="overflow:visible;"/>
		</clipPath>
		<path style="clip-path:url(#SVGID_00000134236148969217548600000012577869201298142395_);fill:#263238;" d="M269.3,297.4
			L269.3,297.4l0,14h0V297.4z M279.5,298.2c-1.1,0-2.2,0.1-3,0.1c-0.9,0.1-1.5,0.1-2.2,0.1c-1.2,0-1.7-0.1-2-0.3l-6.1,12.6
			c3,1.5,5.9,1.7,8.1,1.7c1.1,0,2.2-0.1,3-0.1c0.9-0.1,1.5-0.1,2.1-0.1V298.2z M571,298.4c-118.7-0.2-172.8-0.1-291.4-0.2l0,14
			c118.7,0.1,172.7,0,291.4,0.2L571,298.4z M572.5,298.6c-0.1,0.4-0.2,0.4,0,0.2c0.2-0.2,0.4-0.4,0.6-0.5c0.1-0.1,0.1,0-0.3,0
			c-0.4,0.1-1,0.1-1.9,0.1v14c1.8,0,5,0,8-1.4c3.6-1.6,5.9-4.7,7.1-8.6L572.5,298.6z M572.3,294.3c0.4,0.3,0.5,0.4,0.6,0.5
			c0,0.1,0.1,0.2,0.1,0.4c0.1,0.5,0.1,1.6-0.4,3.4l13.4,3.9c0.8-2.9,1.4-6.5,0.7-10.1c-0.8-3.9-3.1-7.4-6.8-9.8L572.3,294.3z
			 M572.5,294.6c0,0,1.1,0.4,1.5,0.5l4.1-13.4c-0.6-0.2-0.5-0.2-1.4-0.5L572.5,294.6z M566.9,294.3c0.8,0,1.6,0,2.2-0.1
			c0.7,0,1.1,0,1.5,0c0.8,0,1,0.1,1.1,0.1l5.6-12.8c-2.4-1.1-4.7-1.3-6.5-1.3c-0.9,0-1.7,0-2.3,0c-0.7,0-1.2,0.1-1.6,0.1V294.3z
			 M276.9,294.3c0.2,0,0.5,0,0.7,0s0.5,0,0.7,0s0.5,0,0.7,0s0.5,0,0.7,0c0.2,0,0.5,0,0.7,0s0.5,0,0.7,0c0.2,0,0.5,0,0.7,0
			c0.2,0,0.5,0,0.7,0s0.5,0,0.7,0s0.5,0,0.7,0c0.2,0,0.5,0,0.7,0c0.2,0,0.5,0,0.7,0s0.5,0,0.7,0c0.2,0,0.4,0,0.7,0
			c0.2,0,0.4,0,0.7,0s0.4,0,0.7,0s0.4,0,0.7,0c0.2,0,0.4,0,0.7,0c0.2,0,0.4,0,0.7,0c0.2,0,0.4,0,0.7,0c0.2,0,0.4,0,0.7,0
			c0.2,0,0.4,0,0.7,0c0.2,0,0.4,0,0.7,0s0.4,0,0.7,0c0.2,0,0.4,0,0.7,0s0.4,0,0.7,0c0.2,0,0.4,0,0.7,0s0.4,0,0.7,0
			c0.2,0,0.4,0,0.7,0s0.4,0,0.7,0s0.4,0,0.7,0c0.2,0,0.4,0,0.6,0c0.2,0,0.4,0,0.6,0c0.2,0,0.4,0,0.6,0c0.2,0,0.4,0,0.6,0
			c0.2,0,0.4,0,0.6,0c0.2,0,0.4,0,0.6,0s0.4,0,0.6,0s0.4,0,0.6,0s0.4,0,0.6,0c0.2,0,0.4,0,0.6,0s0.4,0,0.6,0s0.4,0,0.6,0
			s0.4,0,0.6,0c0.2,0,0.4,0,0.6,0s0.4,0,0.6,0c0.2,0,0.4,0,0.6,0c0.2,0,0.4,0,0.6,0c0.2,0,0.4,0,0.6,0c0.2,0,0.4,0,0.6,0
			s0.4,0,0.6,0s0.4,0,0.6,0c0.2,0,0.4,0,0.6,0c0.2,0,0.4,0,0.6,0s0.4,0,0.6,0s0.4,0,0.6,0s0.4,0,0.6,0c0.2,0,0.4,0,0.6,0
			c0.2,0,0.4,0,0.6,0c0.2,0,0.4,0,0.6,0c0.2,0,0.4,0,0.6,0s0.4,0,0.6,0c0.2,0,0.4,0,0.6,0c0.2,0,0.4,0,0.6,0c0.2,0,0.4,0,0.6,0
			c0.2,0,0.4,0,0.6,0c0.2,0,0.4,0,0.6,0s0.4,0,0.6,0c0.2,0,0.4,0,0.6,0c0.2,0,0.4,0,0.6,0s0.4,0,0.6,0s0.4,0,0.6,0
			c0.2,0,0.4,0,0.6,0c0.2,0,0.4,0,0.6,0c0.2,0,0.4,0,0.6,0s0.4,0,0.6,0c0.2,0,0.4,0,0.6,0s0.4,0,0.6,0s0.4,0,0.6,0
			c0.2,0,0.4,0,0.6,0c0.2,0,0.4,0,0.6,0c0.2,0,0.4,0,0.6,0c0.2,0,0.4,0,0.6,0c0.2,0,0.4,0,0.6,0c0.2,0,0.4,0,0.6,0s0.4,0,0.6,0
			s0.4,0,0.6,0c0.2,0,0.4,0,0.6,0c0.2,0,0.4,0,0.6,0s0.4,0,0.6,0c0.2,0,0.4,0,0.6,0s0.4,0,0.6,0s0.4,0,0.6,0c0.2,0,0.4,0,0.6,0
			s0.4,0,0.6,0c0.2,0,0.4,0,0.6,0c0.2,0,0.4,0,0.6,0s0.4,0,0.6,0s0.4,0,0.6,0c0.2,0,0.4,0,0.6,0s0.4,0,0.6,0s0.4,0,0.6,0
			c0.2,0,0.4,0,0.6,0s0.4,0,0.6,0s0.4,0,0.6,0s0.4,0,0.6,0c0.2,0,0.4,0,0.6,0c0.2,0,0.4,0,0.6,0c0.2,0,0.4,0,0.6,0s0.4,0,0.6,0
			c0.2,0,0.4,0,0.6,0c0.2,0,0.4,0,0.6,0c0.2,0,0.4,0,0.6,0s0.4,0,0.6,0c0.2,0,0.4,0,0.6,0c0.2,0,0.4,0,0.6,0c0.2,0,0.4,0,0.6,0
			s0.4,0,0.6,0s0.4,0,0.6,0c0.2,0,0.4,0,0.6,0s0.4,0,0.6,0s0.4,0,0.6,0s0.4,0,0.6,0c0.2,0,0.4,0,0.6,0s0.4,0,0.6,0
			c0.2,0,0.4,0,0.6,0c0.2,0,0.4,0,0.6,0s0.4,0,0.6,0s0.4,0,0.6,0s0.4,0,0.5,0s0.4,0,0.5,0s0.4,0,0.5,0s0.4,0,0.5,0
			c0.2,0,0.4,0,0.5,0s0.4,0,0.5,0s0.4,0,0.5,0s0.4,0,0.5,0s0.4,0,0.5,0c0.2,0,0.4,0,0.5,0s0.4,0,0.5,0c0.2,0,0.4,0,0.5,0
			c0.2,0,0.4,0,0.5,0s0.4,0,0.5,0s0.4,0,0.5,0s0.4,0,0.5,0s0.4,0,0.5,0s0.4,0,0.5,0s0.4,0,0.5,0c0.2,0,0.4,0,0.5,0
			c0.2,0,0.4,0,0.5,0c0.2,0,0.4,0,0.5,0s0.4,0,0.5,0s0.4,0,0.5,0c0.2,0,0.4,0,0.5,0c0.2,0,0.4,0,0.5,0s0.4,0,0.5,0
			c0.2,0,0.4,0,0.5,0c0.2,0,0.4,0,0.5,0s0.4,0,0.5,0s0.4,0,0.5,0s0.4,0,0.5,0s0.4,0,0.5,0s0.4,0,0.5,0s0.4,0,0.5,0s0.4,0,0.5,0
			s0.4,0,0.5,0c0.2,0,0.4,0,0.5,0c0.2,0,0.4,0,0.5,0c0.2,0,0.4,0,0.5,0s0.4,0,0.5,0c0.2,0,0.3,0,0.5,0c0.2,0,0.3,0,0.5,0
			s0.3,0,0.5,0c0.2,0,0.3,0,0.5,0s0.3,0,0.5,0s0.3,0,0.5,0s0.3,0,0.5,0s0.3,0,0.5,0s0.3,0,0.5,0c0.2,0,0.3,0,0.5,0
			c0.2,0,0.3,0,0.5,0c0.2,0,0.3,0,0.5,0c0.2,0,0.3,0,0.5,0c0.2,0,0.3,0,0.5,0c0.2,0,0.3,0,0.5,0c0.2,0,0.3,0,0.5,0
			c0.2,0,0.3,0,0.5,0s0.3,0,0.5,0s0.3,0,0.5,0c0.2,0,0.3,0,0.5,0c0.2,0,0.3,0,0.5,0c0.2,0,0.3,0,0.5,0c0.2,0,0.3,0,0.5,0
			c0.2,0,0.3,0,0.5,0c0.2,0,0.3,0,0.5,0c0.2,0,0.3,0,0.5,0c0.2,0,0.3,0,0.5,0s0.3,0,0.5,0c0.2,0,0.3,0,0.5,0s0.3,0,0.5,0
			s0.3,0,0.5,0c0.2,0,0.3,0,0.5,0s0.3,0,0.5,0c0.2,0,0.3,0,0.5,0c0.2,0,0.3,0,0.5,0s0.3,0,0.5,0s0.3,0,0.5,0c0.2,0,0.3,0,0.5,0
			c0.2,0,0.3,0,0.5,0c0.2,0,0.3,0,0.5,0c0.2,0,0.3,0,0.5,0s0.3,0,0.5,0c0.2,0,0.3,0,0.5,0c0.2,0,0.3,0,0.5,0c0.2,0,0.3,0,0.5,0
			s0.3,0,0.5,0c0.2,0,0.3,0,0.5,0s0.3,0,0.5,0c0.2,0,0.3,0,0.5,0s0.3,0,0.5,0s0.3,0,0.5,0s0.3,0,0.5,0c0.2,0,0.3,0,0.5,0
			c0.2,0,0.3,0,0.5,0c0.2,0,0.3,0,0.5,0c0.2,0,0.3,0,0.5,0c0.2,0,0.3,0,0.5,0c0.2,0,0.3,0,0.5,0s0.3,0,0.5,0s0.3,0,0.5,0
			c0.2,0,0.3,0,0.5,0s0.3,0,0.5,0s0.3,0,0.5,0c0.2,0,0.3,0,0.5,0c0.2,0,0.3,0,0.5,0s0.3,0,0.5,0s0.3,0,0.5,0c0.2,0,0.3,0,0.5,0
			c0.2,0,0.3,0,0.5,0c0.2,0,0.3,0,0.5,0s0.3,0,0.5,0s0.3,0,0.5,0c0.2,0,0.3,0,0.5,0c0.2,0,0.3,0,0.5,0s0.3,0,0.5,0s0.3,0,0.5,0
			c0.2,0,0.3,0,0.5,0c0.2,0,0.3,0,0.5,0s0.3,0,0.5,0c0.2,0,0.3,0,0.5,0s0.3,0,0.5,0s0.3,0,0.5,0c0.2,0,0.3,0,0.5,0s0.3,0,0.5,0
			s0.3,0,0.5,0c0.2,0,0.3,0,0.5,0s0.3,0,0.5,0c0.2,0,0.3,0,0.5,0s0.3,0,0.5,0s0.3,0,0.5,0c0.2,0,0.3,0,0.5,0s0.3,0,0.5,0
			s0.3,0,0.5,0c0.2,0,0.3,0,0.5,0s0.3,0,0.5,0c0.2,0,0.3,0,0.5,0c0.2,0,0.3,0,0.5,0s0.3,0,0.5,0s0.3,0,0.5,0c0.2,0,0.3,0,0.5,0
			c0.2,0,0.3,0,0.5,0s0.3,0,0.5,0s0.3,0,0.5,0c0.2,0,0.3,0,0.5,0c0.2,0,0.3,0,0.5,0c0.2,0,0.3,0,0.5,0s0.3,0,0.5,0s0.3,0,0.5,0
			c0.2,0,0.3,0,0.5,0c0.2,0,0.3,0,0.5,0s0.3,0,0.5,0c0.2,0,0.3,0,0.5,0c0.2,0,0.3,0,0.5,0s0.3,0,0.5,0s0.3,0,0.5,0
			c0.2,0,0.3,0,0.5,0c0.2,0,0.3,0,0.5,0c0.2,0,0.3,0,0.5,0c0.2,0,0.3,0,0.5,0c0.2,0,0.3,0,0.5,0c0.2,0,0.3,0,0.5,0s0.3,0,0.5,0
			s0.3,0,0.5,0s0.3,0,0.5,0c0.2,0,0.3,0,0.5,0s0.3,0,0.5,0c0.2,0,0.3,0,0.5,0s0.3,0,0.5,0c0.2,0,0.3,0,0.5,0c0.2,0,0.3,0,0.5,0
			c0.2,0,0.3,0,0.5,0s0.3,0,0.5,0c0.2,0,0.3,0,0.5,0c0.2,0,0.3,0,0.5,0c0.2,0,0.3,0,0.5,0s0.3,0,0.5,0s0.3,0,0.5,0s0.3,0,0.5,0
			c0.2,0,0.3,0,0.5,0c0.2,0,0.3,0,0.5,0s0.3,0,0.5,0c0.2,0,0.3,0,0.5,0s0.3,0,0.5,0s0.3,0,0.5,0c0.2,0,0.3,0,0.5,0s0.3,0,0.5,0
			s0.3,0,0.5,0c0.2,0,0.3,0,0.5,0c0.2,0,0.3,0,0.5,0c0.2,0,0.3,0,0.5,0c0.2,0,0.3,0,0.5,0s0.3,0,0.5,0c0.2,0,0.3,0,0.5,0
			c0.2,0,0.3,0,0.5,0s0.3,0,0.5,0c0.2,0,0.3,0,0.5,0c0.2,0,0.3,0,0.5,0c0.2,0,0.3,0,0.5,0c0.2,0,0.3,0,0.5,0c0.2,0,0.3,0,0.5,0
			s0.3,0,0.5,0c0.2,0,0.3,0,0.5,0c0.2,0,0.3,0,0.5,0c0.2,0,0.3,0,0.5,0c0.2,0,0.3,0,0.5,0s0.3,0,0.5,0s0.3,0,0.5,0s0.3,0,0.5,0
			s0.3,0,0.5,0c0.2,0,0.3,0,0.5,0s0.3,0,0.5,0c0.2,0,0.3,0,0.5,0c0.2,0,0.3,0,0.5,0c0.2,0,0.4,0,0.5,0c0.2,0,0.4,0,0.5,0
			c0.2,0,0.4,0,0.5,0s0.4,0,0.5,0c0.2,0,0.4,0,0.5,0s0.4,0,0.5,0s0.4,0,0.5,0s0.4,0,0.5,0s0.4,0,0.5,0s0.4,0,0.5,0s0.4,0,0.5,0
			s0.4,0,0.5,0c0.2,0,0.4,0,0.5,0c0.2,0,0.4,0,0.5,0s0.4,0,0.5,0c0.2,0,0.4,0,0.5,0c0.2,0,0.4,0,0.5,0c0.2,0,0.4,0,0.5,0
			s0.4,0,0.5,0s0.4,0,0.5,0c0.2,0,0.4,0,0.5,0c0.2,0,0.4,0,0.5,0s0.4,0,0.5,0s0.4,0,0.5,0s0.4,0,0.5,0s0.4,0,0.5,0s0.4,0,0.5,0
			s0.4,0,0.5,0c0.2,0,0.4,0,0.5,0c0.2,0,0.4,0,0.5,0s0.4,0,0.5,0c0.2,0,0.4,0,0.5,0s0.4,0,0.5,0c0.2,0,0.4,0,0.5,0s0.4,0,0.5,0
			s0.4,0,0.5,0c0.2,0,0.4,0,0.5,0s0.4,0,0.5,0c0.2,0,0.4,0,0.5,0s0.4,0,0.5,0s0.4,0,0.6,0c0.2,0,0.4,0,0.6,0s0.4,0,0.6,0
			s0.4,0,0.6,0c0.2,0,0.4,0,0.6,0s0.4,0,0.6,0c0.2,0,0.4,0,0.6,0s0.4,0,0.6,0c0.2,0,0.4,0,0.6,0s0.4,0,0.6,0c0.2,0,0.4,0,0.6,0
			c0.2,0,0.4,0,0.6,0s0.4,0,0.6,0c0.2,0,0.4,0,0.6,0c0.2,0,0.4,0,0.6,0c0.2,0,0.4,0,0.6,0s0.4,0,0.6,0c0.2,0,0.4,0,0.6,0
			c0.2,0,0.4,0,0.6,0s0.4,0,0.6,0s0.4,0,0.6,0c0.2,0,0.4,0,0.6,0c0.2,0,0.4,0,0.6,0c0.2,0,0.4,0,0.6,0s0.4,0,0.6,0s0.4,0,0.6,0
			s0.4,0,0.6,0c0.2,0,0.4,0,0.6,0s0.4,0,0.6,0c0.2,0,0.4,0,0.6,0c0.2,0,0.4,0,0.6,0s0.4,0,0.6,0s0.4,0,0.6,0s0.4,0,0.6,0
			s0.4,0,0.6,0s0.4,0,0.6,0c0.2,0,0.4,0,0.6,0s0.4,0,0.6,0s0.4,0,0.6,0c0.2,0,0.4,0,0.6,0s0.4,0,0.6,0c0.2,0,0.4,0,0.6,0
			c0.2,0,0.4,0,0.6,0s0.4,0,0.6,0c0.2,0,0.4,0,0.6,0s0.4,0,0.6,0c0.2,0,0.4,0,0.6,0s0.4,0,0.6,0c0.2,0,0.4,0,0.6,0
			c0.2,0,0.4,0,0.6,0s0.4,0,0.6,0c0.2,0,0.4,0,0.6,0c0.2,0,0.4,0,0.6,0s0.4,0,0.6,0s0.4,0,0.6,0c0.2,0,0.4,0,0.6,0
			c0.2,0,0.4,0,0.6,0c0.2,0,0.4,0,0.6,0s0.4,0,0.6,0s0.4,0,0.6,0c0.2,0,0.4,0,0.6,0c0.2,0,0.4,0,0.6,0c0.2,0,0.4,0,0.6,0
			c0.2,0,0.4,0,0.6,0c0.2,0,0.4,0,0.6,0c0.2,0,0.4,0,0.6,0c0.2,0,0.4,0,0.6,0s0.4,0,0.6,0s0.4,0,0.6,0s0.4,0,0.6,0s0.4,0,0.6,0
			c0.2,0,0.4,0,0.6,0s0.4,0,0.6,0s0.4,0,0.6,0c0.2,0,0.4,0,0.6,0s0.4,0,0.6,0s0.4,0,0.6,0c0.2,0,0.4,0,0.6,0s0.4,0,0.6,0
			c0.2,0,0.4,0,0.6,0c0.2,0,0.4,0,0.6,0c0.2,0,0.4,0,0.6,0c0.2,0,0.4,0,0.6,0s0.4,0,0.6,0c0.2,0,0.4,0,0.6,0s0.4,0,0.6,0
			s0.4,0,0.6,0c0.2,0,0.4,0,0.6,0c0.2,0,0.4,0,0.6,0s0.4,0,0.6,0c0.2,0,0.4,0,0.6,0s0.4,0,0.6,0s0.4,0,0.6,0c0.2,0,0.4,0,0.6,0
			s0.4,0,0.6,0c0.2,0,0.4,0,0.6,0s0.4,0,0.6,0c0.2,0,0.4,0,0.6,0s0.4,0,0.7,0s0.4,0,0.7,0s0.4,0,0.7,0c0.2,0,0.4,0,0.7,0
			c0.2,0,0.4,0,0.7,0c0.2,0,0.4,0,0.7,0c0.2,0,0.4,0,0.7,0c0.2,0,0.4,0,0.7,0c0.2,0,0.4,0,0.7,0s0.4,0,0.7,0s0.4,0,0.7,0
			c0.2,0,0.4,0,0.7,0s0.4,0,0.7,0s0.4,0,0.7,0c0.2,0,0.4,0,0.7,0s0.4,0,0.7,0c0.2,0,0.4,0,0.7,0c0.2,0,0.4,0,0.7,0s0.4,0,0.7,0
			c0.2,0,0.5,0,0.7,0c0.2,0,0.5,0,0.7,0c0.2,0,0.5,0,0.7,0c0.2,0,0.5,0,0.7,0c0.2,0,0.5,0,0.7,0c0.2,0,0.5,0,0.7,0s0.5,0,0.7,0
			c0.2,0,0.5,0,0.7,0s0.5,0,0.7,0c0.2,0,0.5,0,0.7,0s0.5,0,0.7,0s0.5,0,0.7,0v-14c-0.2,0-0.5,0-0.7,0s-0.5,0-0.7,0s-0.5,0-0.7,0
			c-0.2,0-0.5,0-0.7,0s-0.5,0-0.7,0c-0.2,0-0.5,0-0.7,0s-0.5,0-0.7,0c-0.2,0-0.5,0-0.7,0c-0.2,0-0.5,0-0.7,0c-0.2,0-0.5,0-0.7,0
			c-0.2,0-0.5,0-0.7,0c-0.2,0-0.5,0-0.7,0c-0.2,0-0.5,0-0.7,0s-0.4,0-0.7,0c-0.2,0-0.4,0-0.7,0c-0.2,0-0.4,0-0.7,0s-0.4,0-0.7,0
			c-0.2,0-0.4,0-0.7,0s-0.4,0-0.7,0s-0.4,0-0.7,0c-0.2,0-0.4,0-0.7,0s-0.4,0-0.7,0s-0.4,0-0.7,0c-0.2,0-0.4,0-0.7,0
			c-0.2,0-0.4,0-0.7,0c-0.2,0-0.4,0-0.7,0c-0.2,0-0.4,0-0.7,0c-0.2,0-0.4,0-0.7,0c-0.2,0-0.4,0-0.7,0s-0.4,0-0.7,0s-0.4,0-0.7,0
			s-0.4,0-0.6,0c-0.2,0-0.4,0-0.6,0s-0.4,0-0.6,0c-0.2,0-0.4,0-0.6,0s-0.4,0-0.6,0c-0.2,0-0.4,0-0.6,0s-0.4,0-0.6,0s-0.4,0-0.6,0
			c-0.2,0-0.4,0-0.6,0s-0.4,0-0.6,0c-0.2,0-0.4,0-0.6,0c-0.2,0-0.4,0-0.6,0s-0.4,0-0.6,0s-0.4,0-0.6,0c-0.2,0-0.4,0-0.6,0
			s-0.4,0-0.6,0c-0.2,0-0.4,0-0.6,0c-0.2,0-0.4,0-0.6,0c-0.2,0-0.4,0-0.6,0c-0.2,0-0.4,0-0.6,0s-0.4,0-0.6,0c-0.2,0-0.4,0-0.6,0
			s-0.4,0-0.6,0s-0.4,0-0.6,0c-0.2,0-0.4,0-0.6,0s-0.4,0-0.6,0s-0.4,0-0.6,0c-0.2,0-0.4,0-0.6,0s-0.4,0-0.6,0s-0.4,0-0.6,0
			s-0.4,0-0.6,0s-0.4,0-0.6,0c-0.2,0-0.4,0-0.6,0c-0.2,0-0.4,0-0.6,0c-0.2,0-0.4,0-0.6,0c-0.2,0-0.4,0-0.6,0c-0.2,0-0.4,0-0.6,0
			c-0.2,0-0.4,0-0.6,0c-0.2,0-0.4,0-0.6,0s-0.4,0-0.6,0s-0.4,0-0.6,0c-0.2,0-0.4,0-0.6,0c-0.2,0-0.4,0-0.6,0c-0.2,0-0.4,0-0.6,0
			s-0.4,0-0.6,0s-0.4,0-0.6,0c-0.2,0-0.4,0-0.6,0c-0.2,0-0.4,0-0.6,0s-0.4,0-0.6,0c-0.2,0-0.4,0-0.6,0c-0.2,0-0.4,0-0.6,0
			s-0.4,0-0.6,0c-0.2,0-0.4,0-0.6,0s-0.4,0-0.6,0c-0.2,0-0.4,0-0.6,0s-0.4,0-0.6,0c-0.2,0-0.4,0-0.6,0c-0.2,0-0.4,0-0.6,0
			s-0.4,0-0.6,0c-0.2,0-0.4,0-0.6,0s-0.4,0-0.6,0s-0.4,0-0.6,0c-0.2,0-0.4,0-0.6,0s-0.4,0-0.6,0s-0.4,0-0.6,0s-0.4,0-0.6,0
			s-0.4,0-0.6,0s-0.4,0-0.6,0c-0.2,0-0.4,0-0.6,0c-0.2,0-0.4,0-0.6,0s-0.4,0-0.6,0c-0.2,0-0.4,0-0.6,0s-0.4,0-0.6,0s-0.4,0-0.6,0
			s-0.4,0-0.6,0c-0.2,0-0.4,0-0.6,0c-0.2,0-0.4,0-0.6,0c-0.2,0-0.4,0-0.6,0s-0.4,0-0.6,0s-0.4,0-0.6,0c-0.2,0-0.4,0-0.6,0
			c-0.2,0-0.4,0-0.6,0s-0.4,0-0.6,0c-0.2,0-0.4,0-0.6,0c-0.2,0-0.4,0-0.6,0c-0.2,0-0.4,0-0.6,0s-0.4,0-0.6,0c-0.2,0-0.4,0-0.6,0
			c-0.2,0-0.4,0-0.6,0s-0.4,0-0.6,0c-0.2,0-0.4,0-0.6,0s-0.4,0-0.6,0c-0.2,0-0.4,0-0.6,0s-0.4,0-0.6,0c-0.2,0-0.4,0-0.6,0
			s-0.4,0-0.6,0s-0.4,0-0.6,0c-0.2,0-0.4,0-0.6,0s-0.4,0-0.5,0s-0.4,0-0.5,0c-0.2,0-0.4,0-0.5,0s-0.4,0-0.5,0c-0.2,0-0.4,0-0.5,0
			s-0.4,0-0.5,0s-0.4,0-0.5,0c-0.2,0-0.4,0-0.5,0s-0.4,0-0.5,0c-0.2,0-0.4,0-0.5,0s-0.4,0-0.5,0c-0.2,0-0.4,0-0.5,0
			c-0.2,0-0.4,0-0.5,0s-0.4,0-0.5,0s-0.4,0-0.5,0s-0.4,0-0.5,0s-0.4,0-0.5,0s-0.4,0-0.5,0s-0.4,0-0.5,0c-0.2,0-0.4,0-0.5,0
			c-0.2,0-0.4,0-0.5,0s-0.4,0-0.5,0s-0.4,0-0.5,0c-0.2,0-0.4,0-0.5,0c-0.2,0-0.4,0-0.5,0c-0.2,0-0.4,0-0.5,0s-0.4,0-0.5,0
			c-0.2,0-0.4,0-0.5,0c-0.2,0-0.4,0-0.5,0s-0.4,0-0.5,0s-0.4,0-0.5,0s-0.4,0-0.5,0s-0.4,0-0.5,0s-0.4,0-0.5,0s-0.4,0-0.5,0
			s-0.4,0-0.5,0c-0.2,0-0.4,0-0.5,0s-0.4,0-0.5,0c-0.2,0-0.4,0-0.5,0c-0.2,0-0.4,0-0.5,0c-0.2,0-0.4,0-0.5,0c-0.2,0-0.3,0-0.5,0
			c-0.2,0-0.3,0-0.5,0s-0.3,0-0.5,0c-0.2,0-0.3,0-0.5,0s-0.3,0-0.5,0s-0.3,0-0.5,0s-0.3,0-0.5,0s-0.3,0-0.5,0c-0.2,0-0.3,0-0.5,0
			c-0.2,0-0.3,0-0.5,0c-0.2,0-0.3,0-0.5,0c-0.2,0-0.3,0-0.5,0s-0.3,0-0.5,0c-0.2,0-0.3,0-0.5,0c-0.2,0-0.3,0-0.5,0
			c-0.2,0-0.3,0-0.5,0c-0.2,0-0.3,0-0.5,0c-0.2,0-0.3,0-0.5,0s-0.3,0-0.5,0c-0.2,0-0.3,0-0.5,0c-0.2,0-0.3,0-0.5,0s-0.3,0-0.5,0
			c-0.2,0-0.3,0-0.5,0c-0.2,0-0.3,0-0.5,0c-0.2,0-0.3,0-0.5,0c-0.2,0-0.3,0-0.5,0s-0.3,0-0.5,0s-0.3,0-0.5,0c-0.2,0-0.3,0-0.5,0
			s-0.3,0-0.5,0s-0.3,0-0.5,0c-0.2,0-0.3,0-0.5,0s-0.3,0-0.5,0c-0.2,0-0.3,0-0.5,0c-0.2,0-0.3,0-0.5,0s-0.3,0-0.5,0s-0.3,0-0.5,0
			s-0.3,0-0.5,0c-0.2,0-0.3,0-0.5,0c-0.2,0-0.3,0-0.5,0c-0.2,0-0.3,0-0.5,0s-0.3,0-0.5,0c-0.2,0-0.3,0-0.5,0c-0.2,0-0.3,0-0.5,0
			c-0.2,0-0.3,0-0.5,0s-0.3,0-0.5,0c-0.2,0-0.3,0-0.5,0s-0.3,0-0.5,0c-0.2,0-0.3,0-0.5,0s-0.3,0-0.5,0s-0.3,0-0.5,0s-0.3,0-0.5,0
			c-0.2,0-0.3,0-0.5,0c-0.2,0-0.3,0-0.5,0c-0.2,0-0.3,0-0.5,0c-0.2,0-0.3,0-0.5,0c-0.2,0-0.3,0-0.5,0c-0.2,0-0.3,0-0.5,0
			s-0.3,0-0.5,0s-0.3,0-0.5,0c-0.2,0-0.3,0-0.5,0c-0.2,0-0.3,0-0.5,0s-0.3,0-0.5,0c-0.2,0-0.3,0-0.5,0c-0.2,0-0.3,0-0.5,0
			s-0.3,0-0.5,0s-0.3,0-0.5,0c-0.2,0-0.3,0-0.5,0c-0.2,0-0.3,0-0.5,0c-0.2,0-0.3,0-0.5,0s-0.3,0-0.5,0s-0.3,0-0.5,0
			c-0.2,0-0.3,0-0.5,0c-0.2,0-0.3,0-0.5,0s-0.3,0-0.5,0s-0.3,0-0.5,0c-0.2,0-0.3,0-0.5,0c-0.2,0-0.3,0-0.5,0s-0.3,0-0.5,0
			c-0.2,0-0.3,0-0.5,0s-0.3,0-0.5,0s-0.3,0-0.5,0c-0.2,0-0.3,0-0.5,0s-0.3,0-0.5,0s-0.3,0-0.5,0c-0.2,0-0.3,0-0.5,0s-0.3,0-0.5,0
			c-0.2,0-0.3,0-0.5,0s-0.3,0-0.5,0s-0.3,0-0.5,0c-0.2,0-0.3,0-0.5,0s-0.3,0-0.5,0s-0.3,0-0.5,0c-0.2,0-0.3,0-0.5,0s-0.3,0-0.5,0
			c-0.2,0-0.3,0-0.5,0c-0.2,0-0.3,0-0.5,0s-0.3,0-0.5,0s-0.3,0-0.5,0c-0.2,0-0.3,0-0.5,0c-0.2,0-0.3,0-0.5,0s-0.3,0-0.5,0
			s-0.3,0-0.5,0c-0.2,0-0.3,0-0.5,0c-0.2,0-0.3,0-0.5,0c-0.2,0-0.3,0-0.5,0s-0.3,0-0.5,0s-0.3,0-0.5,0c-0.2,0-0.3,0-0.5,0
			c-0.2,0-0.3,0-0.5,0s-0.3,0-0.5,0s-0.3,0-0.5,0c-0.2,0-0.3,0-0.5,0s-0.3,0-0.5,0s-0.3,0-0.5,0c-0.2,0-0.3,0-0.5,0
			c-0.2,0-0.3,0-0.5,0c-0.2,0-0.3,0-0.5,0c-0.2,0-0.3,0-0.5,0c-0.2,0-0.3,0-0.5,0c-0.2,0-0.3,0-0.5,0s-0.3,0-0.5,0s-0.3,0-0.5,0
			s-0.3,0-0.5,0c-0.2,0-0.3,0-0.5,0s-0.3,0-0.5,0c-0.2,0-0.3,0-0.5,0s-0.3,0-0.5,0c-0.2,0-0.3,0-0.5,0c-0.2,0-0.3,0-0.5,0
			c-0.2,0-0.3,0-0.5,0s-0.3,0-0.5,0c-0.2,0-0.3,0-0.5,0c-0.2,0-0.3,0-0.5,0c-0.2,0-0.3,0-0.5,0c-0.2,0-0.3,0-0.5,0s-0.3,0-0.5,0
			s-0.3,0-0.5,0c-0.2,0-0.3,0-0.5,0c-0.2,0-0.3,0-0.5,0s-0.3,0-0.5,0c-0.2,0-0.3,0-0.5,0s-0.3,0-0.5,0s-0.3,0-0.5,0
			c-0.2,0-0.3,0-0.5,0s-0.3,0-0.5,0c-0.2,0-0.3,0-0.5,0c-0.2,0-0.3,0-0.5,0c-0.2,0-0.3,0-0.5,0c-0.2,0-0.3,0-0.5,0
			c-0.2,0-0.3,0-0.5,0c-0.2,0-0.3,0-0.5,0c-0.2,0-0.3,0-0.5,0c-0.2,0-0.3,0-0.5,0s-0.3,0-0.5,0s-0.3,0-0.5,0c-0.2,0-0.3,0-0.5,0
			c-0.2,0-0.3,0-0.5,0c-0.2,0-0.3,0-0.5,0c-0.2,0-0.3,0-0.5,0c-0.2,0-0.3,0-0.5,0c-0.2,0-0.3,0-0.5,0c-0.2,0-0.3,0-0.5,0
			c-0.2,0-0.3,0-0.5,0s-0.3,0-0.5,0s-0.3,0-0.5,0s-0.3,0-0.5,0s-0.3,0-0.5,0s-0.3,0-0.5,0c-0.2,0-0.3,0-0.5,0s-0.3,0-0.5,0
			c-0.2,0-0.3,0-0.5,0c-0.2,0-0.3,0-0.5,0s-0.4,0-0.5,0c-0.2,0-0.4,0-0.5,0c-0.2,0-0.4,0-0.5,0c-0.2,0-0.4,0-0.5,0s-0.4,0-0.5,0
			s-0.4,0-0.5,0s-0.4,0-0.5,0s-0.4,0-0.5,0s-0.4,0-0.5,0s-0.4,0-0.5,0s-0.4,0-0.5,0s-0.4,0-0.5,0c-0.2,0-0.4,0-0.5,0
			c-0.2,0-0.4,0-0.5,0s-0.4,0-0.5,0c-0.2,0-0.4,0-0.5,0c-0.2,0-0.4,0-0.5,0s-0.4,0-0.5,0s-0.4,0-0.5,0c-0.2,0-0.4,0-0.5,0
			c-0.2,0-0.4,0-0.5,0c-0.2,0-0.4,0-0.5,0s-0.4,0-0.5,0s-0.4,0-0.5,0s-0.4,0-0.5,0s-0.4,0-0.5,0s-0.4,0-0.5,0s-0.4,0-0.5,0
			c-0.2,0-0.4,0-0.5,0c-0.2,0-0.4,0-0.5,0s-0.4,0-0.5,0c-0.2,0-0.4,0-0.5,0s-0.4,0-0.5,0s-0.4,0-0.5,0s-0.4,0-0.5,0s-0.4,0-0.5,0
			c-0.2,0-0.4,0-0.5,0s-0.4,0-0.5,0s-0.4,0-0.5,0s-0.4,0-0.5,0s-0.4,0-0.6,0s-0.4,0-0.6,0s-0.4,0-0.6,0c-0.2,0-0.4,0-0.6,0
			c-0.2,0-0.4,0-0.6,0s-0.4,0-0.6,0c-0.2,0-0.4,0-0.6,0s-0.4,0-0.6,0s-0.4,0-0.6,0s-0.4,0-0.6,0c-0.2,0-0.4,0-0.6,0s-0.4,0-0.6,0
			s-0.4,0-0.6,0c-0.2,0-0.4,0-0.6,0c-0.2,0-0.4,0-0.6,0c-0.2,0-0.4,0-0.6,0s-0.4,0-0.6,0c-0.2,0-0.4,0-0.6,0c-0.2,0-0.4,0-0.6,0
			c-0.2,0-0.4,0-0.6,0s-0.4,0-0.6,0c-0.2,0-0.4,0-0.6,0c-0.2,0-0.4,0-0.6,0c-0.2,0-0.4,0-0.6,0s-0.4,0-0.6,0s-0.4,0-0.6,0
			s-0.4,0-0.6,0c-0.2,0-0.4,0-0.6,0s-0.4,0-0.6,0s-0.4,0-0.6,0c-0.2,0-0.4,0-0.6,0s-0.4,0-0.6,0s-0.4,0-0.6,0c-0.2,0-0.4,0-0.6,0
			c-0.2,0-0.4,0-0.6,0s-0.4,0-0.6,0c-0.2,0-0.4,0-0.6,0s-0.4,0-0.6,0s-0.4,0-0.6,0c-0.2,0-0.4,0-0.6,0s-0.4,0-0.6,0
			c-0.2,0-0.4,0-0.6,0c-0.2,0-0.4,0-0.6,0s-0.4,0-0.6,0s-0.4,0-0.6,0c-0.2,0-0.4,0-0.6,0c-0.2,0-0.4,0-0.6,0c-0.2,0-0.4,0-0.6,0
			c-0.2,0-0.4,0-0.6,0c-0.2,0-0.4,0-0.6,0c-0.2,0-0.4,0-0.6,0s-0.4,0-0.6,0s-0.4,0-0.6,0c-0.2,0-0.4,0-0.6,0s-0.4,0-0.6,0
			c-0.2,0-0.4,0-0.6,0c-0.2,0-0.4,0-0.6,0c-0.2,0-0.4,0-0.6,0s-0.4,0-0.6,0s-0.4,0-0.6,0c-0.2,0-0.4,0-0.6,0c-0.2,0-0.4,0-0.6,0
			s-0.4,0-0.6,0c-0.2,0-0.4,0-0.6,0c-0.2,0-0.4,0-0.6,0c-0.2,0-0.4,0-0.6,0c-0.2,0-0.4,0-0.6,0c-0.2,0-0.4,0-0.6,0s-0.4,0-0.6,0
			c-0.2,0-0.4,0-0.6,0c-0.2,0-0.4,0-0.6,0c-0.2,0-0.4,0-0.6,0c-0.2,0-0.4,0-0.6,0s-0.4,0-0.6,0s-0.4,0-0.6,0s-0.4,0-0.6,0
			c-0.2,0-0.4,0-0.6,0c-0.2,0-0.4,0-0.6,0s-0.4,0-0.6,0s-0.4,0-0.6,0c-0.2,0-0.4,0-0.6,0c-0.2,0-0.4,0-0.6,0c-0.2,0-0.4,0-0.6,0
			c-0.2,0-0.4,0-0.6,0s-0.4,0-0.6,0c-0.2,0-0.4,0-0.6,0s-0.4,0-0.6,0s-0.4,0-0.6,0s-0.4,0-0.6,0c-0.2,0-0.4,0-0.6,0s-0.4,0-0.6,0
			s-0.4,0-0.6,0s-0.4,0-0.6,0c-0.2,0-0.4,0-0.6,0c-0.2,0-0.4,0-0.6,0c-0.2,0-0.4,0-0.6,0c-0.2,0-0.4,0-0.6,0c-0.2,0-0.4,0-0.6,0
			c-0.2,0-0.4,0-0.7,0s-0.4,0-0.7,0s-0.4,0-0.7,0c-0.2,0-0.4,0-0.7,0s-0.4,0-0.7,0c-0.2,0-0.4,0-0.7,0s-0.4,0-0.7,0
			c-0.2,0-0.4,0-0.7,0s-0.4,0-0.7,0c-0.2,0-0.4,0-0.7,0c-0.2,0-0.4,0-0.7,0c-0.2,0-0.4,0-0.7,0c-0.2,0-0.4,0-0.7,0
			c-0.2,0-0.4,0-0.7,0c-0.2,0-0.4,0-0.7,0s-0.4,0-0.7,0s-0.4,0-0.7,0c-0.2,0-0.4,0-0.7,0c-0.2,0-0.4,0-0.7,0s-0.5,0-0.7,0
			c-0.2,0-0.5,0-0.7,0c-0.2,0-0.5,0-0.7,0s-0.5,0-0.7,0s-0.5,0-0.7,0c-0.2,0-0.5,0-0.7,0c-0.2,0-0.5,0-0.7,0s-0.5,0-0.7,0
			c-0.2,0-0.5,0-0.7,0s-0.5,0-0.7,0s-0.5,0-0.7,0s-0.5,0-0.7,0V294.3z M272.1,294.3c0.1,0,0.3-0.1,1.1-0.1c0.4,0,0.9,0,1.5,0
			c0.6,0,1.4,0.1,2.2,0.1v-14c-0.5,0-0.9,0-1.6-0.1c-0.6,0-1.5-0.1-2.3,0c-1.8,0-4.1,0.2-6.5,1.3L272.1,294.3z M273.9,299.1
			c-1.7-1.5-2.5-2.4-3-3.1c-0.4-0.6-0.2-0.5-0.2,0c0,0.6-0.2,0.7,0.1,0.1c0.4-0.6,1.3-1.6,2.9-3l-9.2-10.6
			c-3.6,3.1-7.9,7.5-7.9,13.5c0,5.9,4.3,10.3,7.9,13.5L273.9,299.1z M269.3,304.4l3.1-6.3l-1.5-0.7h-1.6V304.4z M279.5,305.2l0-7h0
			V305.2z M570.9,305.4l0,7h0V305.4z M579.3,300.5l-6.7-2l0,0l0,0L579.3,300.5z M576,288.4l3.8-5.9L579,282l-0.9-0.3L576,288.4z
			 M574.6,287.9l-2.8,6.4l0.3,0.1l0.4,0.1L574.6,287.9z M269.2,287.9l-2.8-6.4l-1,0.4l-0.8,0.7L269.2,287.9z M269.3,304.4l-4.6,5.3
			l2,1.7h2.6V304.4z"/>
	</g>
	<path class="st11" d="M775.7,481.6c-14.4,5.7-28.8,11.3-43.2,17c-1.7,0.7-3.4,1.3-5-0.5c-7.1-16.5-9-29.2-13.8-44.6
		c-2.9-9.3-5.6-17.1-8.3-26.5c-3.3-11.8-2.4-17.4,8.3-18c1.7-0.1,3.4-0.4,5-0.6c12.6,5.2,21.5,16.3,30.2,27.2
		C759.8,449.3,769.3,464.3,775.7,481.6L775.7,481.6z"/>
	<g>
		<defs>
			<path id="SVGID_00000062151017514306947490000016563517545536618915_" d="M775.7,481.6c-14.4,5.7-28.8,11.3-43.2,17
				c-1.7,0.7-3.4,1.3-5-0.5c-7.1-16.5-9-29.2-13.8-44.6c-2.9-9.3-5.6-17.1-8.3-26.5c-3.3-11.8-2.4-17.4,8.3-18
				c1.7-0.1,3.4-0.4,5-0.6c12.6,5.2,21.5,16.3,30.2,27.2C759.8,449.3,769.3,464.3,775.7,481.6L775.7,481.6z"/>
		</defs>
		<clipPath id="SVGID_00000130614710908633782250000010869310563989955977_">
			<use xlink:href="#SVGID_00000062151017514306947490000016563517545536618915_"  style="overflow:visible;"/>
		</clipPath>
		<path style="clip-path:url(#SVGID_00000130614710908633782250000010869310563989955977_);fill:#263238;" d="M768.7,481.6
			L768.7,481.6l14,0v0H768.7z M743.5,439.9c10.5,13.3,19.6,27.7,25.7,44.1l13.1-4.9c-6.7-18.2-16.7-33.9-27.8-47.9L743.5,439.9z
			 M716.1,414.9c10.6,4.4,18.5,13.9,27.3,25.1l11-8.7c-8.4-10.7-18.4-23.3-33-29.3L716.1,414.9z M714.2,416c1.9-0.1,4.4-0.5,5.5-0.6
			l-1.7-13.9c-2.3,0.3-3.2,0.5-4.6,0.6L714.2,416z M712.2,425.1c-0.8-2.8-1.2-4.9-1.4-6.5c-0.2-1.6,0-2.2,0.1-2.3c0,0,0,0,0,0.1
			c0,0-0.1,0.1-0.1,0.1c-0.1,0.1-0.1,0.1,0,0.1c0.3-0.2,1.3-0.5,3.4-0.6l-0.8-14c-6.2,0.4-12.8,2.4-15.5,9.3c-1.1,2.9-1.2,6-0.9,8.7
			c0.3,2.8,1,5.8,1.8,8.9L712.2,425.1z M720.5,451.4c-3-9.7-5.6-17-8.2-26.3l-13.5,3.8c2.7,9.5,5.6,17.7,8.3,26.7L720.5,451.4z
			 M734,495.4c-6.9-16.1-8.4-27.4-13.5-43.9l-13.4,4.1c4.4,14.3,6.8,28.4,14,45.3L734,495.4z M729.8,492.2c-0.4,0.2-0.5,0.2-0.5,0.2
			c0,0,0.2-0.1,0.7-0.1c0.5,0,1.1,0.1,1.8,0.4c0.6,0.3,1,0.7,1.2,0.9l-10.6,9.1c2.1,2.4,4.8,3.6,7.8,3.6c2.4,0,4.4-0.9,5.2-1.2
			L729.8,492.2z M773.2,475.1c-7.2,2.8-14.4,5.7-21.6,8.5c-7.2,2.8-14.4,5.7-21.6,8.5l5.1,13c7.2-2.8,14.4-5.7,21.6-8.5
			c7.2-2.8,14.4-5.7,21.6-8.5L773.2,475.1z M775.7,481.6h7v-1.3l-0.4-1.2L775.7,481.6z M749,435.6l5.5-4.3l0,0L749,435.6z
			 M718.8,408.4l2.7-6.5l-1.7-0.7l-1.8,0.2L718.8,408.4z M713.8,409l0.4,7l0,0l0,0L713.8,409z M705.5,427l-6.7,1.9l0,0L705.5,427z
			 M713.8,453.5l-6.7,2.1l0,0L713.8,453.5z M727.6,498.1l-6.4,2.8l0.4,1l0.7,0.8L727.6,498.1z M732.5,498.6l-2.6-6.5l-0.1,0l-0.1,0
			L732.5,498.6z M775.7,481.6l2.6,6.5l4.4-1.7v-4.8H775.7z"/>
	</g>
	<g>
		<defs>
			<path id="SVGID_00000116215479949811792010000000806088935135751843_" d="M269.3,304.4c62.1-0.1,59.6-0.2,121.8-0.2
				c58.7-0.1,117.4,0,176.1,0c11.2,0,13-3.4,8.8-15.8c6.9-1,13.8-0.9,20.8-0.1c-5.3,12.2-3.3,15.9,8.9,15.9c116.6,0,190.1,0,306.6,0
				c3.7,0,7.4,0.3,11.1,0.5c-3.1,2.7-6.7,1.4-10,1.4c-115.4,0.1-187.8,0.2-303.2-0.1c-8.2,0-12.4,1.2-12.3,12.5
				c0.2,11.2-1.9,25.9-3,37.1c-4.5,2.5-10.6,3-16.8,0.5c-1.3-13.9-2.8-27.7-3.9-41.6c-0.5-7.1-3.6-8.4-9.1-8.3
				c-27.5,0.3-55,0.1-82.5,0.1c-89.1,0-113.5,0-202.6-0.1C276.5,306.1,272.6,307.4,269.3,304.4L269.3,304.4z"/>
		</defs>
		<clipPath id="SVGID_00000013154600854900248100000009765705555185541306_">
			<use xlink:href="#SVGID_00000116215479949811792010000000806088935135751843_"  style="overflow:visible;"/>
		</clipPath>
		<path style="clip-path:url(#SVGID_00000013154600854900248100000009765705555185541306_);fill:#263238;" d="M269.3,297.4
			L269.3,297.4l0,14h0V297.4z M280.1,299.1c-1.3,0-2.5,0.1-3.3,0.2c-1,0.1-1.5,0.1-2,0.1c-0.4,0-0.6-0.1-0.6-0.1c0,0,0,0,0,0
			c0,0,0,0-0.1-0.1l-9.5,10.3c3.3,3,6.9,3.8,9.9,3.8c1.3,0,2.6-0.1,3.5-0.2c1-0.1,1.6-0.1,2.1-0.1V299.1z M482.8,299.1
			c-89.1,0-113.5,0-202.6-0.1l0,14c89.1,0.1,113.5,0.1,202.6,0.1V299.1z M565.2,299c-27.4,0.3-54.9,0.1-82.4,0.1v14
			c27.4,0,55,0.1,82.5-0.1L565.2,299z M581.3,313.8c-0.3-4.3-1.5-8.8-5.3-11.8c-3.5-2.8-7.9-3.1-10.8-3l0.1,14
			c1.1,0,1.8,0.1,2.1,0.1c0.3,0.1,0.1,0.1-0.2-0.2c-0.3-0.3-0.4-0.5-0.3-0.3c0.1,0.2,0.3,0.9,0.4,2.2L581.3,313.8z M585.1,355.3
			c-1.3-14-2.8-27.7-3.8-41.5l-14,1c1,14,2.6,28,3.9,41.8L585.1,355.3z M591.6,349.4c-2.5,1.4-6.4,1.9-10.8,0.1l-5.3,13
			c8.1,3.3,16.4,2.8,22.9-0.8L591.6,349.4z M591,318.5c0.1,10.7-1.8,24.6-3,36.2l13.9,1.4c1.1-10.8,3.2-26.1,3.1-37.9L591,318.5z
			 M610.3,299c-3.8,0-9.4,0.1-13.7,3.6c-4.7,3.9-5.7,9.9-5.6,16l14-0.2c-0.1-5.2,1-5.4,0.5-5c-0.2,0.1-0.1,0,0.7-0.2
			c0.9-0.2,2.1-0.2,4.1-0.2V299z M913.6,299.1c-115.4,0.1-187.8,0.2-303.2-0.1l0,14c115.4,0.3,187.8,0.2,303.2,0.1L913.6,299.1z
			 M918.9,299.4c0,0,0,0,0.1,0c0,0-0.1,0-0.5,0c-0.4,0-1,0-1.8-0.1c-0.8-0.1-2-0.2-3.2-0.2v14c0.4,0,1,0,1.9,0.1
			c0.8,0.1,2,0.2,3.3,0.2c2.7,0,6.2-0.6,9.4-3.4L918.9,299.4z M912.4,311.2c3.5,0,6.8,0.3,10.8,0.5l0.7-14
			c-3.4-0.2-7.5-0.5-11.5-0.5V311.2z M605.8,311.2c116.6,0,190.1,0,306.6,0l0-14c-116.6,0-190.1,0-306.6,0V311.2z M590.4,285.5
			c-1.4,3.2-2.5,6.3-3,9.2c-0.5,2.8-0.6,6.3,1.3,9.5c1.9,3.4,5,5,7.9,5.9c2.8,0.8,6,1.1,9.3,1.1v-14c-2.8,0-4.4-0.2-5.3-0.5
			c-0.8-0.2-0.1-0.2,0.4,0.7c0.4,0.8,0.1,1,0.3-0.2c0.2-1.2,0.8-3.2,2.1-6L590.4,285.5z M577.1,295.3c6.2-0.9,12.5-0.8,19-0.1
			l1.5-13.9c-7.3-0.8-14.9-1-22.5,0.1L577.1,295.3z M567.2,311.2c3,0,6.1-0.2,8.7-1c2.8-0.9,5.8-2.6,7.6-5.8c1.7-3,1.8-6.3,1.4-9.1
			c-0.3-2.8-1.2-5.9-2.3-9.1l-13.3,4.5c1,2.9,1.5,4.9,1.7,6.3c0.2,1.4-0.1,1.2,0.2,0.6c0.5-0.9,1.1-0.9,0.6-0.8
			c-0.7,0.2-2.1,0.4-4.7,0.4V311.2z M391.1,311.2c58.7-0.1,117.4,0,176.1,0v-14c-58.7,0-117.4-0.1-176.1,0L391.1,311.2z
			 M269.3,311.4c62.2-0.1,59.6-0.2,121.8-0.2l0-14c-62.1,0.1-59.7,0.2-121.8,0.2L269.3,311.4z M269.3,304.4l4.7-5.2l-2-1.8h-2.7
			V304.4z M280.1,306.1l0-7h0V306.1z M565.2,306l0.1,7l0,0L565.2,306z M574.3,314.4l-7,0.5l0,0L574.3,314.4z M578.2,356l-7,0.7
			l0.4,4.2l3.9,1.6L578.2,356z M595,355.5l3.4,6.1l3.2-1.8l0.4-3.6L595,355.5z M598,318.4l-7,0.1l0,0l0,0L598,318.4z M610.3,306l0-7
			h0h0V306z M913.6,306.1v-7h0L913.6,306.1z M923.5,304.7l4.6,5.3l13.1-11.4l-17.4-0.8L923.5,304.7z M912.4,304.2l0,7h0V304.2z
			 M596.8,288.3l6.4,2.8l3.8-8.7l-9.5-1L596.8,288.3z M576.1,288.4l-1-6.9l-8.3,1.2l2.7,8L576.1,288.4z M391.1,304.2l0,7h0
			L391.1,304.2z M269.3,304.4l0-7l0,14V304.4z"/>
	</g>
	<path class="st16" d="M925.2,288c-116.7,0-190.3,0.1-306.9,0.1c-7.2,0-14.3,0.1-21.4,0.2c2.6-3.1,5.9-2.1,8.9-2.1
		c118.1-0.1,193.2-0.1,311.3,0C919.8,286.2,922.8,285.3,925.2,288L925.2,288z"/>
	<g>
		<defs>
			<path id="SVGID_00000072992948458852239280000000241483899409863358_" d="M925.2,288c-116.7,0-190.3,0.1-306.9,0.1
				c-7.2,0-14.3,0.1-21.4,0.2c2.6-3.1,5.9-2.1,8.9-2.1c118.1-0.1,193.2-0.1,311.3,0C919.8,286.2,922.8,285.3,925.2,288L925.2,288z"
				/>
		</defs>
		<clipPath id="SVGID_00000043423019945153042040000005771502706004330934_">
			<use xlink:href="#SVGID_00000072992948458852239280000000241483899409863358_"  style="overflow:visible;"/>
		</clipPath>
		<path style="clip-path:url(#SVGID_00000043423019945153042040000005771502706004330934_);fill:#263238;" d="M932.2,288.1
			L932.2,288.1l-14,0v0H932.2z M917,293.2c1,0,2-0.1,2.5-0.1c0.7,0,1,0,1.1,0c0.1,0,0,0-0.3-0.1c-0.3-0.1-0.5-0.3-0.5-0.4l10.7-9.1
			c-2.7-3.1-5.9-4.2-8.7-4.4c-1.2-0.1-2.4,0-3.1,0c-0.9,0.1-1.3,0.1-1.7,0.1V293.2z M605.7,293.2c118.1-0.1,193.2-0.1,311.3,0l0-14
			c-118.1-0.1-193.2-0.1-311.3,0L605.7,293.2z M602.2,292.8c0,0-0.1,0.1-0.4,0.2c-0.2,0.1-0.3,0.1-0.2,0.1c0.2,0,0.6,0,1.3,0
			c0.6,0,1.7,0.1,2.7,0.1v-14c-0.5,0-0.9,0-1.9-0.1c-0.8-0.1-2-0.1-3.4,0c-3,0.3-6.4,1.4-9.1,4.7L602.2,292.8z M618.2,281.2
			c-7.2,0-14.4,0.1-21.5,0.2l0.1,14c7.2-0.1,14.3-0.2,21.4-0.2V281.2z M925.2,281c-116.7,0-190.3,0.1-306.9,0.1l0,14
			c116.7-0.1,190.3-0.1,306.9-0.1L925.2,281z M925.2,288.1l-5.3,4.5l12.3,14.5v-19H925.2z M917,286.2l0,7h0V286.2z M605.7,286.2v7h0
			L605.7,286.2z M596.8,288.3l-5.4-4.5l-9.5,11.6l15-0.1L596.8,288.3z M618.2,288.2v7h0L618.2,288.2z M925.2,288h7v-7l-7,0
			L925.2,288z"/>
	</g>
	<path class="st16" d="M574.6,287.9c-70.1,0.1-140.2,0.2-210.3,0.2c-53.2,0-41.8-0.1-95-0.2c2.7-2.9,6-1.7,9-1.7
		c117.3-0.1,170-0.1,287.3,0C568.6,286.2,571.9,285.1,574.6,287.9L574.6,287.9z"/>
	<g>
		<defs>
			<path id="SVGID_00000032617124293792685830000005794331469278328200_" d="M574.6,287.9c-70.1,0.1-140.2,0.2-210.3,0.2
				c-53.2,0-41.8-0.1-95-0.2c2.7-2.9,6-1.7,9-1.7c117.3-0.1,170-0.1,287.3,0C568.6,286.2,571.9,285.1,574.6,287.9L574.6,287.9z"/>
		</defs>
		<clipPath id="SVGID_00000161626504260683406160000012885472671799880586_">
			<use xlink:href="#SVGID_00000032617124293792685830000005794331469278328200_"  style="overflow:visible;"/>
		</clipPath>
		<path style="clip-path:url(#SVGID_00000161626504260683406160000012885472671799880586_);fill:#263238;" d="M574.6,294.9
			L574.6,294.9l0-14h0V294.9z M565.5,293.2c1.1,0,2.2-0.1,2.9-0.2c0.8-0.1,1.2-0.1,1.5-0.1c0.2,0,0.2,0,0,0c-0.1,0-0.2-0.1-0.3-0.2
			c-0.1-0.1-0.1-0.1-0.1-0.1l10.2-9.6c-2.9-3.1-6.4-4-9.2-4.1c-1.3-0.1-2.4,0-3.2,0.1c-0.9,0.1-1.3,0.1-1.7,0.1V293.2z M278.2,293.2
			c117.3-0.1,170-0.1,287.3,0l0-14c-117.3-0.1-170-0.1-287.3,0L278.2,293.2z M274.4,292.7c0,0,0,0-0.1,0.1c-0.1,0.1-0.2,0.1-0.3,0.2
			c-0.2,0.1-0.3,0.1-0.1,0.1c0.3,0,0.7,0,1.4,0.1c0.6,0.1,1.8,0.2,2.9,0.2v-14c-0.4,0-0.8,0-1.7-0.1c-0.8-0.1-2-0.2-3.2-0.1
			c-2.9,0.1-6.3,1-9.2,4.2L274.4,292.7z M364.3,281.1c-53.3,0-41.7-0.1-95-0.2l0,14c53.1,0,41.9,0.2,95,0.2V281.1z M574.6,280.9
			c-70.1,0.1-140.2,0.2-210.3,0.2v14c70.1,0,140.2-0.1,210.3-0.2L574.6,280.9z M574.6,287.9l-5.1,4.8l2.1,2.2h3V287.9z M565.5,286.2
			l0,7h0V286.2z M278.2,286.2v7h0L278.2,286.2z M269.2,288l-5.2-4.7L253.3,295l15.9,0L269.2,288z M574.6,287.9l0,7l0-14V287.9z"/>
	</g>
	<path class="st19" d="M122.2,464.3c6.3,1,12.9-2.2,18.9,2C134.8,465.4,128.2,468.6,122.2,464.3z"/>
	<g>
		<defs>
			<path id="SVGID_00000132799797773231429740000017136365496470271625_" d="M122.2,464.3c6.3,1,12.9-2.2,18.9,2
				C134.8,465.4,128.2,468.6,122.2,464.3z"/>
		</defs>
		<clipPath id="SVGID_00000163063599440024696030000015584038123984674972_">
			<use xlink:href="#SVGID_00000132799797773231429740000017136365496470271625_"  style="overflow:visible;"/>
		</clipPath>
		<path style="clip-path:url(#SVGID_00000163063599440024696030000015584038123984674972_);fill:#263238;" d="M142.1,459.3
			c-2.3-0.3-4.4-0.3-6.2-0.1c-2.2,0.1-3,0.3-4.7,0.4c-2.6,0.1-3.8-0.2-5-1l-8.1,11.4c4.9,3.5,9.9,3.7,13.7,3.5
			c1.5-0.1,3.9-0.3,4.9-0.4c1.4-0.1,2.4-0.1,3.3,0L142.1,459.3z M121.1,471.2c2.3,0.4,4.5,0.3,6.3,0.2c0.9-0.1,1.8-0.1,2.6-0.2
			c0.8-0.1,1.5-0.1,2.2-0.2c2.6-0.1,3.9,0.2,5,0.9l8-11.5c-4.9-3.4-9.9-3.6-13.7-3.4c-0.9,0-1.8,0.1-2.6,0.2
			c-0.8,0.1-1.5,0.1-2.2,0.2c-1.4,0.1-2.4,0.1-3.2-0.1L121.1,471.2z M141.1,466.3l-1,6.9l5-12.7L141.1,466.3z"/>
	</g>
	<path class="st11" d="M621.5,497c-21.5,0-47.5,0-69,0c-1-6.5-0.5-6-1-10.5c-1.8-16-0.5-40.1-0.4-60.1c0-10.5,2.2-13.2,10.9-13.3
		c16.3-0.1,32.6-0.1,49,0c8.6,0.1,11,3,11,13.2c0.1,20-0.1,40.1,0.1,60.1C622,490.9,622,494.5,621.5,497z"/>
	<path class="st11" d="M693,496.5c-16-1.5-27-1.5-44,0.5c-2.1-2.9-2-7.2-2-11.3c0.1-20.2,0-42.2,0.5-59.7c-0.1-8.4,3-13,9-13.5
		c31.7,0.5,26.5-4.8,33.5,30.5c3.5,13.5,3.5,20,6,38c1,5.1,1.5,9.5,1,16L693,496.5z"/>
</g>
</svg>
