<?xml version="1.0" encoding="utf-8"?>
<!-- Generator: Adobe Illustrator 26.3.1, SVG Export Plug-In . SVG Version: 6.00 Build 0)  -->
<svg version="1.1" id="Layer_1" xmlns="http://www.w3.org/2000/svg" xmlns:xlink="http://www.w3.org/1999/xlink" x="0px" y="0px"
	 viewBox="0 0 1024 850" style="enable-background:new 0 0 1024 850;" xml:space="preserve">
<style type="text/css">
	.st0{fill:#F1F5F8;}
	.st1{fill:#DDE6EC;}
	.st2{fill:#BCD2E1;}
	.st3{fill:#56C3C5;}
	.st4{fill:#3DB6B8;}
	.st5{fill:#EC6567;}
	.st6{fill:#394249;}
	.st7{fill:#EDEEEF;}
	.st8{fill:#303B43;}
	.st9{fill:#CAD8E1;}
</style>
<g>
	<circle class="st0" cx="512" cy="455" r="345"/>
	<path class="st1" d="M501,288.1c50.2,0,100.5,0.1,150.7,0c3.9,0,6.7,1.1,9.2,4c5.8,6.5,11.7,12.9,17.7,19.2c2,2.1,1.9,3.7-0.1,5.8
		c-6.3,6.7-12.6,13.4-18.8,20.3c-1.6,1.7-3.4,2.1-5.6,2.4c-9.5,1.5-16.9-1.5-22.5-9.3c-2.1-3-4.4-2.8-6.8,0c-1.7,2-3.7,3.8-5.6,5.6
		c-3.4,3.4-4.1,3.4-7.7-0.1c-1.9-1.9-3.9-3.6-5.6-5.6c-2.3-2.8-4.3-2.4-6.6,0c-2.1,2.2-4.4,4.2-6.4,6.5c-2,2.2-3.7,2.2-5.7,0.1
		c-2.3-2.4-4.7-4.6-6.9-7c-2-2.1-3.7-2.2-5.7-0.1c-2.3,2.5-4.9,4.8-7.2,7.3c-1.8,1.9-3.3,2-5.1,0c-2.2-2.4-4.7-4.6-6.9-7
		c-2.1-2.2-4.3-2.8-6.3,0c-5.7,8.3-13.6,10.4-23.2,9.6c-8.3-0.7-16.6-0.1-25-0.1c-1-1.1-0.6-2.4-0.3-3.6c1.5-6.2,2.7-12.5,3-19
		c0-1.1,0.2-2.3,1.3-3c2.2-1,4.5-0.7,6.7-0.7c36.4,0,72.8,0,109.2,0c2.1,0,4.3,0.2,6.4-0.4s3.7-1.9,3.8-4.2c0.1-2.3-1.5-3.6-3.5-4.4
		c-2.3-0.9-4.7-0.7-7.1-0.7c-36.5,0-73,0-109.5,0c-2.1,0-4.3,0.2-6.4-0.5c-1.1-0.5-1.6-1.6-1.9-2.7c-0.7-3.3-1.4-6.6-2.2-9.9
		C500.2,289.7,500.3,288.8,501,288.1L501,288.1z"/>
	<path class="st2" d="M377.4,356.3c-6.8-9.2-14.6-17.7-17.6-29.3c-3.7-14.2-1.8-27.6,6.3-39.8c5.2-7.9,11-15.4,16.6-23
		c3.7-4.9,8.7-7.9,14.8-7.9c21.6-0.1,43.2,0,64.7,0c1,0.4,1.6,1.1,2.1,2c2.8,5,4.8,10.4,6.4,15.9c0.3,1.1,1.2,2.7-0.8,3.4
		c-7.1-1.3-14.3-0.3-21.4-0.7c-6.1,0.1-12.1,0-18.2,0.1c-12.4,0-12.3,0-12.4,12.6c0,5.9,0,8.8-0.3,17.8c0,6,0,5,0,12.7
		c0,10.9,0.2,15.6,0.3,23.4c0.1,6.4,1.4,7.8,7.8,7.8c7.3,0,14.6,0.2,21.9-0.2c1.8,0.3,9.5-0.8,10.6,1.3c-3.1,3.9-13.2,4.9-17.6,4.9
		c-12.1,0.2-24.2,0-36.3,0.1c-7.2,0-14.4,0-21.5,0C381,357.5,379.1,357.4,377.4,356.3z"/>
	<path class="st2" d="M470.7,277.3c-1.7-7.4-4.7-14.2-8.3-20.9c4,0,8.1-0.3,12.1-0.1c6,0.4,10.7,3.4,14.3,8.1
		c5.4,7.2,9.1,15.3,12.2,23.7c1,4.8,2.1,9.5,3.1,14.3c2.3,3.9,2.5,8,0.8,12.2c0.1,8.6-1.8,16.8-3.8,25c-3,7.9-6.5,15.5-11.3,22.5
		c-4.6,6.7-10.8,9.9-18.8,9.9c-23.1,0-46.2-0.1-69.2,0.1c-8.9,0.1-15.9-3-20.8-10.6c-1.1-1.8-2.3-3.5-3.5-5.3c21.2,0,42.3,0,63.5,0
		c4.3,0,8.2-1.1,11.6-3.8c0.3-0.3,0.6-0.6,1-0.8c3.7-0.7,7.4-0.3,11.2-0.3c3.6,0,6-1.4,6.9-5c0.6-1.6,0.3-3.3,0.4-4.9
		c0.6-16.6-1.2-33.3-0.9-49.9c0-2-0.1-4,0.2-6c0.7-2.1,0.7-4.2-0.3-6.2C470.7,278.7,470.7,278,470.7,277.3L470.7,277.3z"/>
	<path class="st2" d="M504.9,314.6c-0.3-4.1-0.5-8.1-0.8-12.2c39.6,0,79.2,0,118.9,0.1c1.6,0,3.2-0.1,4.9,0.4c3,0.9,4.9,2.8,5,5.9
		c0.1,2.8-2.8,5.4-6,5.8c-1.1,0.1-2.3,0-3.4,0C583.9,314.6,544.4,314.6,504.9,314.6L504.9,314.6z"/>
	<path class="st0" d="M397.1,314.2c0,7.7,0,15.4,0,23.1c0,2.2,0.5,4.8-2.3,5.9c-2.9,1.1-4-1.4-5.3-3.2c-2.1-2.8-4.2-5.7-6.2-8.6
		c-7.5-10.7-7.7-23.6-0.3-34.3c2.3-3.4,4.9-6.7,7.3-10.1c1.1-1.5,2.4-2.7,4.4-2c2.1,0.7,2.4,2.4,2.4,4.2
		C397.1,297.6,397.1,305.9,397.1,314.2z"/>
	<path class="st3" d="M899.1,603.8l0.4,12.2c-2.4,2.7-5.7,2-8.8,2.2c-3.1,0.2-6.2,0.5-9.1,1.9c-5,2.5-7.3,6.4-6.7,12
		c0.7,6.3,5.1,8.5,10.5,9.8c4.7,1.1,10-1.3,14.2,2.6c0.6,9.3-1.6,18.8,1.4,28c-1.5,1.7-3.5,2.3-5.6,2.3c-11.7,0.1-23.4,1.1-35-0.6
		c-4.9-2.4-4.8-7.2-5.2-11.5c-5-51.3-63.1-91.4-119.1-61.6c-24.7,13.2-38.2,34.9-41.7,62.7c-0.4,3.3-0.1,6.9-3.2,9.3
		c-3.6,2.1-7.6,1.9-11.5,1.9c-111.8,0-223.6,0-335.5,0c-3.9,0-7.9,0.2-11.5-1.7c-3.3-2.2-3.1-5.7-3.5-9.1
		c-4.5-33.6-22.3-57-54.2-68.6c-40-14.6-84.5,5.5-101.2,45.1c-2,4.7-2.6,10.2-7.3,13.5c-10.8-0.3-21.1-3.7-31.5-6.1
		c-8.4-2-16-2.7-22.2,4.8c-0.7,0.8-1.8,1-2.8,0.7v-64.3c4.1-3.3,8.9-1.9,13.5-2.1c5.2-0.2,10.4,0.3,15.5-1.2
		c9.4-2.7,12.1-10.5,7-18.8c-1.4-2.2-5.9-4.1-1.4-7.5c3.8-1.4,7.8-1.1,11.7-1.1c181.2,0,362.3-0.5,543.5,0.3
		c46.1,0.2,92.5,2.4,137.9,12.6c7.8,1.8,16.2,2.2,22.6,7.9c1.8,2.7,0.7,5.6,0.8,8.4c0.2,7.4,3.5,11.1,10.9,11.7
		c7.3,0.7,14.7-0.5,21.9,0.8C896,600.9,897.8,601.9,899.1,603.8L899.1,603.8L899.1,603.8z"/>
	<path class="st4" d="M670,637.3c-1.4,0.5-160.8,2.7-198.1,2.7S347,632.2,347,632.2s127.2-4.9,166.7-7.8
		C553.2,621.4,670,637.3,670,637.3z"/>
	<path class="st3" d="M110,653.7c5.7-8.9,13.3-11,23.5-8c10.9,3.3,22.1,5.4,33.2,8c1.4,1.4,2.1,3.2,1.8,4.9
		c-1.4,7.7,0.9,15.7-2.6,23.1c-13.4-3.1-26.7-6.3-40.2-9.1c-7-1.5-12.6-4.4-15.7-11.1L110,653.7L110,653.7z"/>
	<path class="st5" d="M142.8,561.2c10,9.1,11.2,18.2,2.9,24.5c-3.8,2.9-8.5,3.5-13.2,3.6c-7.5,0.1-15,0.1-22.5,0.1V569l6.6-6.2
		C125,556.7,133.8,557.5,142.8,561.2L142.8,561.2z"/>
	<path class="st4" d="M142.9,561.2c-8.8,0.3-17.7-1.5-26.3,1.5c1-3.8,1.9-7.6,3-11.4c4-14,14.3-19.8,27.8-21.6
		c23.8-3.3,47.5-6.6,71.3-10c1-0.1,2-0.6,3-0.9c4.1-0.7,8.2-0.4,12.4,0.3c21.8,3.4,43.5,7.8,65.4,10.5c6.2,0.8,12.4,1.1,18.7,0.8
		c13.9,0,27.7-0.2,41.5,0c14.2-0.1,28.4-0.3,42.5,0c55.8-0.4,111.6-0.2,167.3-0.2c14.7,0,29.4-0.1,44.1,0.1
		c9.3-0.3,18.6-0.1,27.9-0.1c2.9,0,5.6,0.9,8.2,2.1c13.3,0.6,26.5,1.1,39.8,1.7c57.4,2.5,114.3,8.2,169.1,26.7
		c8.9,3,17.6,6.6,24.9,12.7c0.5,2.7-1.8,3.2-3.4,3.2c-7.2-0.3-13.5,2.4-20.1,4.5c-9.7-6.3-21.1-7.1-31.9-9.2
		c-24.5-4.8-49.3-6.5-74.2-8.3c-47.4-3.4-94.9-2.8-142.3-2.8c-152.9-0.1-305.8,0-458.6,0C149.6,561.1,146.2,561.1,142.9,561.2
		L142.9,561.2L142.9,561.2z"/>
	<path class="st6" d="M165.9,681.7c-1.6-9.4,0.7-18.7,0.8-28.1c5.7-18,14.7-33.7,29.5-46.1c34.7-29,87.9-23.6,116.3,11.7
		c12.3,15.3,18.4,32.5,19.2,51.8c3.1,10.2,1.8,19.7-4.7,28.3c-20.4,50.6-76.3,71-121,43.8C183.2,729.1,169.6,708.5,165.9,681.7
		L165.9,681.7z"/>
	<path class="st6" d="M691.7,671.1c0.8-42.5,32.6-73.7,67.1-80.8c46.1-9.5,93.4,24.5,98.3,71.4c0.4,3.6,0.9,7.3,1.4,10.9
		c2.1,9.7,1.2,18.8-4.7,27.1c-9.9,22.9-25.3,40.6-49,49.7c-43.9,16.9-89.6-4.2-108.3-49.7C690,690.9,688.6,681.3,691.7,671.1
		L691.7,671.1L691.7,671.1z"/>
	<path class="st3" d="M614.1,532.7l-44.6,0.1c1.8-6.4-0.6-11-4.8-16.1c-14.5-17.1-29-34.2-43-51.7c-5.8-7.2-12.8-12.2-22.3-12.7
		c-2.8-0.8-5.7-0.6-8.6-0.6c-37.4,0-74.7,0-112.1,0c-11.9,0-21.7,3.5-30,12.5c-10.9,11.7-22.5,22.5-33.7,33.9
		c-11.2,11.5-11.1,19.1,0.3,30.6c1.1,1.1,2.2,2.2,2.1,4c-19.6,0.9-38.6-4-57.8-6.9c-12.7-1.9-25.3-4.6-38-6.9
		c25.2-22.3,50.6-44.5,76.9-65.6c15.7-12.7,34.4-17.4,54-17.4c60.1-0.2,120.2-0.2,180.4,0c15.6,0.1,30.5,3.6,43.1,13.8
		c-5,3.5-10.6,1.3-15.9,1.9c-3.3,0.4-7.2-0.3-9,3.3c-2,3.9,0.6,6.9,3,9.8c15.3,18.4,30.9,36.6,45.8,55.3
		C603.9,525.2,610.7,527,614.1,532.7L614.1,532.7z"/>
	<path class="st3" d="M691.8,671.1c0.3,9.7,1.8,19.3,4.8,28.6c-104.3,0-208.7,0-313,0c-18.8,0-37.6-0.2-56.5-0.2
		c2.9-9.2,4.4-18.6,4.7-28.3c2.8,2,6,1.5,9.1,1.5h341.8C685.8,672.5,689,673,691.8,671.1L691.8,671.1z"/>
	<path class="st6" d="M614.1,532.7c-14.7-5.9-21.7-19.9-31.6-30.8c-10.6-11.9-20.5-24.4-30.7-36.7c-2.8-3.3-5.6-6.8-3.5-11.2
		c2-4.1,6.3-4.1,10.3-4.1c5.7,0,11.5-0.1,17.2-0.2c12.8,9,21.4,22,31.5,33.5c14.3,16.3,28.2,32.9,42.2,49.4
		C637.8,533.6,626,533,614.1,532.7L614.1,532.7L614.1,532.7z"/>
	<path class="st3" d="M853.8,699.6c1.6-9,3.1-18.1,4.7-27.1c14.2,0,28.3,0,42.5,0c7.8,1.7,12.5,6.8,12.3,13.5
		c-0.1,7-5.7,13.1-13.7,13.3C884.4,699.8,869.1,699.6,853.8,699.6L853.8,699.6z"/>
	<path class="st4" d="M899.7,644.5c-4.4-0.1-8.8,0-13.2-0.2c-7.9-0.4-13-4.6-13.8-11.1c-1.1-8.4,2.5-13.6,10.7-16.3
		c5.3-1.7,10.8-0.4,16.2-1c4,1.7,8.5,2.4,11.2,6.5C916.8,631.5,911.5,643,899.7,644.5L899.7,644.5z"/>
	<path class="st7" d="M860.1,581.4c4-5,9.2-6.8,15.5-6.4c2.6,0.2,5.6,1.2,7.9-1.3c6.5,6.1,11.6,13.2,14.2,22c0.6,3.1,3,7.1-3.4,6.5
		c-6.7,0-13.5,0.2-20.2,0.1C860.8,601.9,855.8,594.4,860.1,581.4L860.1,581.4z"/>
	<path class="st6" d="M501.2,451.1c6.8-0.5,12.5,2.3,16.6,7.2c17.8,20.8,35.3,41.8,52.9,62.8c3.5,4.2,2.4,8.2-1.2,11.7
		c-55.9,0-111.8,0-167.6,0c-2.5-2.9-2-6.2-1.5-9.6c2.9-20,6.4-40,9.8-60c0.6-3.3,0.9-6.8,4-9c3.2-2.4,6.4-3.9,10.7-3.8
		c23.9,0.2,47.8,0.1,71.8,0.1C498.2,450.5,499.8,450.3,501.2,451.1L501.2,451.1z"/>
	<path class="st6" d="M501.2,451.1c-21.9,0.1-43.8,0.1-65.8,0.1c-7.4,0-14.9-1-21,4.7c-7.3-4.4-15.2-2.5-22.9-2.2
		c-4.1,0.2-4.6,4.5-5.7,7.6c-6.9,20.8-13.9,41.6-20.8,62.4c-1.1,3.4-1.9,7.2-5.5,9.1c-14-0.1-28.1-0.1-42.1-0.2
		c-8-4.8-14.1-10.6-12.9-21.2c0.6-5.7,3.6-9.7,7.2-13.4c12.9-13,25.9-25.8,38.7-38.9c6-6.1,13.4-9.2,21.7-9.2
		c41.5-0.1,83.1-0.1,124.6,0C498.2,450,499.7,450.7,501.2,451.1L501.2,451.1L501.2,451.1z"/>
	<path class="st8" d="M359.5,532.9c8.4-24.9,16.9-49.7,25-74.7c1.7-5.3,4-7.8,9.8-7.1c4.9,0.6,9.9,0.2,14.8,0.1
		c3.5-0.1,5.6,0.9,5.3,4.8c-4.1,13.6-5.2,27.7-7.7,41.6c-2.1,11.7-4.6,23.3-4.9,35.2C387.7,533.9,373.6,533.7,359.5,532.9
		L359.5,532.9z"/>
	<path class="st7" d="M248.1,727.3c-30.2-0.4-55.2-25.8-54.9-55.9c0.3-30.2,25.9-55.6,55.8-55.1c30.4,0.5,55.6,26.2,55,55.9
		C303.3,702.7,278,727.6,248.1,727.3L248.1,727.3z"/>
	<path class="st7" d="M830.3,671.8c0,30.1-25.4,55.5-55.4,55.5c-30.1-0.1-55.4-25.4-55.4-55.5s25.5-55.5,55.5-55.4
		C805.1,616.4,830.3,641.7,830.3,671.8z"/>
	<path class="st9" d="M249.2,644.3c14.6,0.1,27.4,13,27.2,27.7c-0.2,14.8-12.8,26.9-27.6,27.3c-14.3,0.4-28.6-12.8-27.5-28.6
		C222.2,655.7,233.5,644.2,249.2,644.3L249.2,644.3L249.2,644.3z"/>
	<path class="st9" d="M802.1,671.7c0,15.9-11.7,27.5-27.5,27.5c-14.8,0-27.4-12.7-27.4-27.4c0-14.7,12.7-27.5,27.4-27.5
		C790.4,644.3,802.1,655.9,802.1,671.7z"/>
	<path class="st3" d="M548,543.6c2.9-8.4,7.5-16.3,13.4-22.9c1.3-1.5,3.3-2.1,5.1-1.5c5.5,1.6,10.9,4.2,14.6,8.6
		c3.8,4.6,5.2,11.6,2.2,16.8C572.1,548.9,559.5,547.1,548,543.6L548,543.6z"/>
	<path class="st4" d="M571.5,522.7c-1.8-0.8-3.7-1.4-5.7-1.1c-2.8,0.4-4.8,2.4-6.5,4.4c-2.1,2.6-3.9,5.5-5.3,8.4
		c-0.3,0.6-0.5,1.2-0.2,1.8c0.3,0.6,1.2,0.8,1.9,0.9c8.4,1.6,17.4,3.3,25.6,0.8c2.5-0.7,2.1-1.7,1.4-3.6c-0.6-1.7-1.5-3.2-2.5-4.7
		C578.1,526.7,575,524.3,571.5,522.7L571.5,522.7z"/>
</g>
</svg>
