<?xml version="1.0" encoding="utf-8"?>
<!-- Generator: Adobe Illustrator 26.3.1, SVG Export Plug-In . SVG Version: 6.00 Build 0)  -->
<svg version="1.1" id="Layer_1" xmlns="http://www.w3.org/2000/svg" xmlns:xlink="http://www.w3.org/1999/xlink" x="0px" y="0px"
	 viewBox="0 0 1024 850" style="enable-background:new 0 0 1024 850;" xml:space="preserve">
<style type="text/css">
	.st0{fill:#F1F5F8;}
	.st1{fill:#303B43;}
	.st2{clip-path:url(#SVGID_00000031888462131657565050000002718722470281022091_);fill:#263238;}
	.st3{clip-path:url(#SVGID_00000063624992762289732980000011771383206243649959_);fill:#263238;}
	.st4{clip-path:url(#SVGID_00000112593487966189173920000017503100265185597850_);fill:#263238;}
	.st5{clip-path:url(#SVGID_00000070079905657127115430000015970005755928736411_);fill:#263238;}
	.st6{clip-path:url(#SVGID_00000062166768534114613870000003951029121447816351_);fill:#263238;}
	.st7{fill:#35A9AB;}
	.st8{clip-path:url(#SVGID_00000158733555726322489840000012782960988347518898_);fill:#263238;}
	.st9{clip-path:url(#SVGID_00000042007506111080133700000012112149022717115574_);fill:#263238;}
	.st10{clip-path:url(#SVGID_00000128456292902001619190000000931851159164371629_);fill:#263238;}
	.st11{fill:#394249;}
	.st12{clip-path:url(#SVGID_00000000192747506176244990000016014023676561192070_);fill:#263238;}
	.st13{clip-path:url(#SVGID_00000020367550653520547330000000595431717822473350_);fill:#263238;}
	.st14{clip-path:url(#SVGID_00000003102136348822731960000001403917301775100040_);fill:#263238;}
	.st15{clip-path:url(#SVGID_00000064356097536081461340000006124194413631606402_);fill:#263238;}
	.st16{clip-path:url(#SVGID_00000078767941876497015600000008412382871968358581_);fill:#263238;}
	.st17{clip-path:url(#SVGID_00000143600746153714687500000017954291795081958796_);fill:#263238;}
	.st18{clip-path:url(#SVGID_00000022557556590849182780000006797007470726093969_);fill:#263238;}
	.st19{fill:#FFFFFF;}
	.st20{clip-path:url(#SVGID_00000117672929463146898350000005914341152620897426_);fill:#263238;}
	.st21{clip-path:url(#SVGID_00000002377369357249247710000016419374136128513937_);fill:#263238;}
	.st22{clip-path:url(#SVGID_00000038406588308973486130000013862265169828460417_);fill:#263238;}
	.st23{clip-path:url(#SVGID_00000155148881186823337610000015555230284356995735_);fill:#263238;}
	.st24{clip-path:url(#SVGID_00000033336598528575842460000000709743530250399630_);fill:#263238;}
	.st25{fill:#E6E6E6;}
	.st26{clip-path:url(#SVGID_00000045591401742956054900000007349331978147375778_);fill:#263238;}
	.st27{fill:#CAD8E1;}
	.st28{clip-path:url(#SVGID_00000133524392242585085990000014005008268501203112_);fill:#263238;}
	.st29{fill:#EDEEEF;}
	.st30{clip-path:url(#SVGID_00000012472726988625800330000017229695772799070906_);fill:#263238;}
	.st31{clip-path:url(#SVGID_00000057828425573370442540000005568276568794911648_);fill:#263238;}
	.st32{clip-path:url(#SVGID_00000002373686966048768820000000328398808090786487_);fill:#263238;}
	.st33{clip-path:url(#SVGID_00000011742408443104793490000008069499330881955969_);fill:#263238;}
	.st34{clip-path:url(#SVGID_00000071521142557212817260000009463701129279165066_);fill:#263238;}
	.st35{clip-path:url(#SVGID_00000178924699617901671900000012405926751896088237_);fill:#263238;}
	.st36{clip-path:url(#SVGID_00000009552027594899881100000003628607376437815205_);fill:#263238;}
</style>
<g>
	<circle class="st0" cx="512" cy="455" r="345"/>
	<g>
		<path class="st1" d="M788.5,593.5l26.5-10l59.5,5.5l23,2c-0.3-12.3,7.5-14-2-38.5C884,528.6,865,517,839.5,517
			c-25.5,0-54.8,25.1-58,58.8c-0.2,2.1-0.4,11.2-0.5,13.2L788.5,593.5z"/>
		<path class="st1" d="M147.5,590l30.5-10l57,2.5l33.5,10c-0.3-12.3-0.1-29.8-9-43.1C248,525.5,226.8,517,201.3,517
			s-54.7,22.1-57.8,55.8c-0.2,2.1-0.4,11.2-0.5,13.2L147.5,590z"/>
		<g>
			<defs>
				<path id="SVGID_1_" d="M774.2,466.5c0,0,135.3,1.1,154.4,21.5c0,0,8.8,7.8,10.7,20.4s4.7,28.8,3.4,44.2s-6.9,42.6-6.9,42.6
					h-40.1c0,0,12.5-53-29.7-70.2c-15.2-6.2-33.1-6.6-48.1,0c-18.2,8-37.5,27.4-28.3,70.2L443,594.1L442,410.4l177.8-3.4
					c18.9,0.1,37.6,3.6,55.2,10.5c1.9,0.8,3.8,1.6,5.6,2.4c17,7.7,78.2,46.8,78.2,46.8L774.2,466.5L774.2,466.5z"/>
			</defs>
			<clipPath id="SVGID_00000108294865118477316890000016280100515013422506_">
				<use xlink:href="#SVGID_1_"  style="overflow:visible;"/>
			</clipPath>
			<path style="clip-path:url(#SVGID_00000108294865118477316890000016280100515013422506_);fill:#263238;" d="M774.2,459.5
				L774.2,459.5l0,14h0V459.5z M758.8,473.7l15.5-0.3l-0.2-14l-15.5,0.3L758.8,473.7z M677.6,426.3c8,3.6,27.1,15.1,44.7,25.9
				c8.7,5.4,16.8,10.5,22.8,14.3c3,1.9,5.4,3.4,7.1,4.5c0.9,0.5,1.5,1,2,1.2c0.2,0.1,0.4,0.3,0.5,0.3c0.1,0,0.1,0.1,0.1,0.1
				c0,0,0,0,0,0c0,0,0,0,0,0c0,0,0,0,0,0c0,0,0,0,3.8-5.9c3.8-5.9,3.8-5.9,3.8-5.9c0,0,0,0,0,0c0,0,0,0,0,0c0,0,0,0,0,0
				c0,0-0.1,0-0.1-0.1c-0.1-0.1-0.3-0.2-0.5-0.3c-0.5-0.3-1.1-0.7-2-1.3c-1.7-1.1-4.2-2.7-7.2-4.5c-6-3.8-14.2-8.9-23-14.3
				c-17.3-10.6-37.2-22.6-46.2-26.7L677.6,426.3z M672.3,424c1.8,0.7,3.6,1.5,5.3,2.2l5.8-12.8c-1.9-0.9-3.9-1.7-6-2.5L672.3,424z
				 M619.7,414c18.1,0.1,35.9,3.4,52.6,10l5.1-13c-18.4-7.3-38-10.9-57.7-11L619.7,414z M442.1,417.4l177.8-3.4l-0.3-14l-177.8,3.4
				L442.1,417.4z M450,594.1L449,410.3l-14,0.1l1.1,183.8L450,594.1z M789.8,588.1L443,587.1l0,14l346.7,0.9L789.8,588.1z
				 M815.2,518.5c-10.1,4.5-20.9,12.2-27.8,25.2c-6.9,13-9.4,30.3-4.5,52.9l13.7-3c-4.4-20.2-1.8-33.9,3.2-43.4
				c5-9.5,13-15.4,21.1-18.9L815.2,518.5z M868.7,518.4c-16.8-6.8-36.6-7.4-53.5,0.1l5.6,12.8c13.1-5.8,29-5.5,42.6,0.1L868.7,518.4
				z M895.8,595.1c6.8,1.6,6.8,1.6,6.8,1.6c0,0,0,0,0,0c0,0,0,0,0,0c0,0,0,0,0-0.1c0,0,0-0.1,0-0.2c0-0.1,0.1-0.3,0.1-0.5
				c0.1-0.5,0.2-1.1,0.4-1.9c0.3-1.6,0.6-3.9,0.9-6.8c0.5-5.6,0.8-13.4-0.4-21.8c-2.4-16.9-10.7-37.2-35-47l-5.3,13
				c17.9,7.3,24.4,22,26.4,36c1,7,0.8,13.6,0.3,18.5c-0.2,2.4-0.5,4.4-0.8,5.7c-0.1,0.7-0.2,1.2-0.3,1.5c0,0.2-0.1,0.3-0.1,0.4
				c0,0,0,0.1,0,0.1c0,0,0,0,0,0c0,0,0,0,0,0c0,0,0,0,0,0C889,593.5,889,593.5,895.8,595.1z M935.9,588.1h-40.1v14h40.1V588.1z
				 M935.8,551.9c-0.6,7.3-2.3,17.7-3.8,26.4c-0.8,4.3-1.5,8.2-2.1,10.9c-0.3,1.4-0.5,2.5-0.6,3.3c-0.1,0.4-0.1,0.7-0.2,0.9
				c0,0.1,0,0.2,0,0.2c0,0,0,0,0,0.1c0,0,0,0,0,0c0,0,0,0,0,0c0,0,0,0,0,0c0,0,0,0,6.9,1.4c6.9,1.4,6.9,1.4,6.9,1.4c0,0,0,0,0,0
				c0,0,0,0,0,0c0,0,0,0,0,0c0,0,0,0,0-0.1c0-0.1,0-0.1,0-0.2c0-0.2,0.1-0.5,0.2-0.9c0.2-0.8,0.4-1.9,0.7-3.3
				c0.6-2.8,1.3-6.7,2.1-11.2c1.6-8.7,3.3-19.7,4-27.7L935.8,551.9z M932.4,509.3c1.9,12.8,4.6,28.2,3.4,42.6l14,1.1
				c1.3-16.3-1.7-33.5-3.5-45.8L932.4,509.3z M928.7,487.9c-4.7,5.2-4.7,5.2-4.7,5.2c0,0,0,0,0,0c0,0,0,0,0,0c0,0,0,0,0,0
				c0,0,0,0,0,0c0,0,0,0,0,0c0,0,0.1,0.1,0.2,0.2c0.2,0.2,0.4,0.4,0.8,0.8c0.7,0.7,1.6,1.9,2.6,3.3c2,2.9,4.1,7,4.9,11.9l13.8-2.1
				c-1.1-7.6-4.4-13.7-7.2-17.8c-1.4-2.1-2.8-3.7-3.8-4.8c-0.5-0.6-1-1-1.3-1.3c-0.2-0.2-0.3-0.3-0.4-0.4c-0.1,0-0.1-0.1-0.1-0.1
				c0,0,0,0,0,0c0,0,0,0,0,0c0,0,0,0,0,0c0,0,0,0,0,0C933.3,482.7,933.3,482.7,928.7,487.9z M774.2,466.5c-0.1,7-0.1,7-0.1,7
				c0,0,0,0,0,0c0,0,0,0,0,0c0,0,0,0,0.1,0c0.1,0,0.2,0,0.3,0c0.3,0,0.6,0,1.1,0c1,0,2.4,0,4.3,0.1c3.7,0.1,9,0.2,15.5,0.4
				c12.9,0.4,30.3,1.2,48.3,2.6c18,1.4,36.4,3.4,51.4,6.3c7.5,1.4,14,3.1,19,4.9c5.3,1.9,8.2,3.7,9.4,5l10.2-9.6
				c-3.6-3.8-9.1-6.5-14.9-8.6c-6-2.1-13.2-3.9-21.1-5.5c-15.8-3-34.8-5.1-53-6.5c-18.3-1.4-35.9-2.2-48.9-2.6
				c-6.5-0.2-11.9-0.3-15.7-0.4c-1.9,0-3.4-0.1-4.4-0.1c-0.5,0-0.9,0-1.2,0c-0.1,0-0.2,0-0.3,0c0,0-0.1,0-0.1,0c0,0,0,0,0,0
				c0,0,0,0,0,0C774.3,459.5,774.3,459.5,774.2,466.5z M774.2,466.5l0.1,7l-0.1-14V466.5z M758.7,466.7l-3.8,5.9l1.8,1.1l2.1,0
				L758.7,466.7z M680.5,419.9l2.9-6.4l0,0L680.5,419.9z M674.9,417.5l2.6-6.5l0,0L674.9,417.5z M619.7,407l0.1-7l-0.1,0l-0.1,0
				L619.7,407z M442,410.4l-0.1-7l-6.9,0.1l0,6.9L442,410.4z M443,594.1l-7,0l0,6.9l6.9,0L443,594.1z M789.7,595.1l0,7l8.7,0
				l-1.8-8.5L789.7,595.1z M818,524.9l-2.8-6.4l0,0L818,524.9z M866.1,524.9l-2.6,6.5l0,0L866.1,524.9z M895.8,595.1l-6.8-1.6
				l-2,8.6h8.8V595.1z M935.9,595.1v7h5.7l1.2-5.6L935.9,595.1z M928.7,487.9l-5.1,4.8l0.2,0.2l0.2,0.2L928.7,487.9z M774.2,466.5
				v-7l-0.1,14L774.2,466.5z"/>
		</g>
		<g>
			<defs>
				<path id="SVGID_00000020358317939014260910000007735452759559454139_" d="M921,584c5.5,0.6,11.6,1.6,17,0c1.1-4.6,4-23.5,4-25
					c-3.4,1-8.9,2.2-12.3,3.8C924.7,565.2,923,576.2,921,584L921,584z"/>
			</defs>
			<clipPath id="SVGID_00000065778925987602716670000010426410638931622043_">
				<use xlink:href="#SVGID_00000020358317939014260910000007735452759559454139_"  style="overflow:visible;"/>
			</clipPath>
			<path style="clip-path:url(#SVGID_00000065778925987602716670000010426410638931622043_);fill:#263238;" d="M921,577L921,577
				l0,14h0V577z M932.7,569.1c0.5-0.2,0.3-0.4-0.2,0.5c-0.5,0.8-1.1,2.1-1.6,3.9c-1.2,3.8-1.9,7.6-3.1,12.2l-13.5-3.6
				c0.8-3.2,2-8.7,3.3-12.9c0.7-2.2,1.7-4.7,2.9-6.8c1.3-2.1,3.2-4.5,6.2-5.9L932.7,569.1z M943.9,565.7c-4.1,1.1-8.5,2.1-11.1,3.4
				l-6-12.6c4.1-2,10.6-3.5,13.4-4.3L943.9,565.7z M931.2,582.4c0.5-2,1.4-7.5,2.3-13.1c0.4-2.7,0.8-5.3,1.1-7.3
				c0.1-1,0.3-1.8,0.3-2.5c0.1-0.8,0.1-0.8,0.1-0.5h14c0,0.7-0.1,1.7-0.2,2.2c-0.1,0.7-0.2,1.7-0.4,2.7c-0.3,2.1-0.7,4.8-1.1,7.6
				c-0.9,5.4-1.9,11.6-2.5,14.2L931.2,582.4z M921.7,577c6.3,0.7,10.6,1.4,14.3,0.3l3.8,13.5c-7.1,2-14.9,0.7-19.7,0.2L921.7,577z
				 M921,584v7h-9.1l2.3-8.8L921,584z M929.7,562.8l3,6.3l0,0l0,0L929.7,562.8z M942,559l-1.9-6.7l8.9-2.5v9.2H942z M938,584
				l6.8,1.6l-0.9,4l-3.9,1.1L938,584z M921,584v-7h0.4l0.4,0L921,584z"/>
		</g>
		<g>
			<defs>
				<path id="SVGID_00000106826982182453265160000002670583464066691488_" d="M902.8,481.2c7.9,20,23.3,32.7,37.7,34.8
					c-0.5-3.5-1-7-1.5-9.5c-0.1-0.7-0.9-3.3-1-4c-1-3.5-6.1-13-12.9-17.4c-4.1-2.6-11.1-5.6-24.1-8.1L902.8,481.2z"/>
			</defs>
			<clipPath id="SVGID_00000044136025577426333830000002244980218532370083_">
				<use xlink:href="#SVGID_00000106826982182453265160000002670583464066691488_"  style="overflow:visible;"/>
			</clipPath>
			<path style="clip-path:url(#SVGID_00000044136025577426333830000002244980218532370083_);fill:#263238;" d="M907.5,474.3l1.8,4.2
				l-12.9,5.4l-1.8-4.2L907.5,474.3z M921.3,491c-3.1-2-9.1-4.7-21.6-7.1l2.6-13.7c13.5,2.6,21.4,5.8,26.6,9.1L921.3,491z
				 M931.3,504.4c-0.2-0.8-1.3-3.4-3.4-6.4c-2-3-4.3-5.6-6.6-7l7.6-11.8c4.5,2.9,8.2,7.3,10.7,11c2.5,3.7,4.4,7.6,5.2,10.3
				L931.3,504.4z M932,507.1c0,0.2,0,0.4,0.1,0.4c0,0,0,0.1,0,0.1c0,0,0,0,0,0c0,0,0,0,0,0c0,0,0-0.1,0-0.1c-0.1-0.3-0.2-0.6-0.3-1
				c-0.1-0.4-0.2-0.9-0.4-1.3c-0.1-0.2-0.1-0.5-0.2-0.7c0-0.2-0.1-0.6-0.2-1.1l13.9-1.6c0-0.3-0.1-0.5-0.1-0.4c0,0,0,0.1,0.1,0.2
				c0.1,0.3,0.2,0.6,0.3,1.1c0.1,0.4,0.3,0.9,0.4,1.3c0.1,0.2,0.1,0.5,0.2,0.8c0,0.2,0.1,0.7,0.2,1.2L932,507.1z M933.6,517
				c-0.5-3.6-1-6.9-1.4-9.1l13.7-2.7c0.5,2.7,1.1,6.5,1.6,9.9L933.6,517z M909.3,478.6c7.2,18.3,20.9,28.8,32.3,30.5l-2.1,13.8
				c-17.5-2.6-34.6-17.5-43.2-39.2L909.3,478.6z M901,477l-6.5,2.7l-5.1-12.1l12.9,2.5L901,477z M925.1,485.1l3.8-5.9L925.1,485.1z
				 M938,502.5l6.7-1.9l0.2,0.5l0.1,0.6L938,502.5z M939,506.5l-6.9,1.4l-0.1-0.4l0-0.4L939,506.5z M940.5,516l6.9-1l1.3,9.3
				l-9.3-1.4L940.5,516z M902.8,481.2l6.5-2.7l0,0.1l0,0.1L902.8,481.2z"/>
		</g>
		<g>
			<defs>
				<path id="SVGID_00000094593740468744039910000001093233820292279939_" d="M775,559.3c-1.4,0.5-160.8,2.7-198.1,2.7
					S452,554.2,452,554.2s127.2-4.9,166.7-7.8S775,559.3,775,559.3z"/>
			</defs>
			<clipPath id="SVGID_00000124136441676337982810000007560415486728360603_">
				<use xlink:href="#SVGID_00000094593740468744039910000001093233820292279939_"  style="overflow:visible;"/>
			</clipPath>
			<path style="clip-path:url(#SVGID_00000124136441676337982810000007560415486728360603_);fill:#263238;" d="M618.2,539.4
				c20.5-1.5,60.3,1.8,94.2,5.4c17.1,1.8,33,3.7,44.6,5.2c5.8,0.7,10.5,1.3,13.8,1.8c1.6,0.2,2.9,0.4,3.8,0.5c0.4,0.1,0.8,0.1,1,0.1
				c0.1,0,0.2,0,0.3,0c0,0,0.1,0,0.1,0c0,0,0,0,0,0c0,0,0,0,0,0c0,0,0,0-0.9,6.9c-0.9,6.9-0.9,6.9-0.9,6.9c0,0,0,0,0,0c0,0,0,0,0,0
				c0,0,0,0-0.1,0c-0.1,0-0.1,0-0.2,0c-0.2,0-0.5-0.1-1-0.1c-0.9-0.1-2.1-0.3-3.8-0.5c-3.3-0.4-8-1-13.7-1.8
				c-11.5-1.4-27.3-3.3-44.3-5.1c-34.3-3.6-72.7-6.8-91.7-5.4L618.2,539.4z M452,554.2c-0.3-7-0.3-7-0.3-7c0,0,0,0,0,0c0,0,0,0,0,0
				c0,0,0,0,0.1,0c0.1,0,0.2,0,0.3,0c0.2,0,0.6,0,1.1,0c0.9,0,2.3-0.1,4.1-0.2c3.6-0.1,8.7-0.3,14.9-0.6c12.5-0.5,29.7-1.2,48-2
				c36.8-1.6,78.3-3.5,98-5l1,14c-19.9,1.5-61.7,3.5-98.4,5c-18.4,0.8-35.5,1.5-48.1,2c-6.3,0.3-11.4,0.5-15,0.6
				c-1.8,0.1-3.2,0.1-4.1,0.2c-0.5,0-0.8,0-1.1,0c-0.1,0-0.2,0-0.3,0c0,0-0.1,0-0.1,0c0,0,0,0,0,0c0,0,0,0,0,0
				C452.3,561.2,452.3,561.2,452,554.2z M576.9,569c-18.9,0-50.4-2-76.9-3.9c-13.3-1-25.5-2-34.3-2.7c-4.4-0.4-8-0.7-10.5-0.9
				c-1.2-0.1-2.2-0.2-2.9-0.2c-0.3,0-0.6-0.1-0.7-0.1c-0.1,0-0.1,0-0.2,0c0,0,0,0,0,0c0,0,0,0,0,0c0,0,0,0,0,0c0,0,0,0,0.6-7
				c0.6-7,0.6-7,0.6-7c0,0,0,0,0,0c0,0,0,0,0,0c0,0,0,0,0,0c0,0,0.1,0,0.2,0c0.2,0,0.4,0,0.7,0.1c0.6,0.1,1.6,0.1,2.8,0.2
				c2.5,0.2,6,0.5,10.4,0.9c8.8,0.7,20.9,1.7,34.1,2.7c26.6,2,57.6,3.9,75.9,3.9V569z M777.5,565.9c-0.5,0.2-1,0.3-1.1,0.3
				c-0.2,0-0.4,0.1-0.5,0.1c-0.2,0-0.4,0-0.5,0.1c-0.2,0-0.5,0-0.7,0c-0.4,0-1,0-1.6,0.1c-1.3,0-3.1,0.1-5.4,0.2
				c-4.6,0.1-11.1,0.2-19,0.4c-15.7,0.3-37,0.6-59.3,0.9c-44.7,0.6-93.9,1.1-112.6,1.1v-14c18.6,0,67.7-0.5,112.4-1.1
				c22.3-0.3,43.6-0.6,59.3-0.9c7.9-0.1,14.3-0.3,18.9-0.4c2.3-0.1,4-0.1,5.3-0.1c0.6,0,1,0,1.3-0.1c0.1,0,0.2,0,0.2,0
				c0,0-0.1,0-0.2,0c-0.1,0-0.2,0-0.4,0.1c-0.1,0-0.5,0.1-1.1,0.3L777.5,565.9z M452,554.2l-0.6,7l0.4-14L452,554.2z M775,559.3
				l0.9-6.9l26.9,3.7l-25.3,9.8L775,559.3z"/>
		</g>
		<g>
			<defs>
				<path id="SVGID_00000026131677494792799030000003729306711356879011_" d="M88.5,524.1c0,0,9.4-34.3,13.8-40.1
					c4.5-5.8,4.9-12,18.7-14.3c13.8-2.2,47.3-6.2,47.3-6.2s70.2-39.7,83.2-44.7s34.8-7.8,65.7-8.4c30.9-0.6,129.5,0,129.5,0v183.8
					H265.6c0,0,4.8-73.7-59.1-73.2c-64,0.5-59.1,70.5-59.1,70.5s-53.6-3.2-61.6-19.7c-8-16.5-5.3-45.5-5.3-45.5L88.5,524.1
					L88.5,524.1z"/>
			</defs>
			<clipPath id="SVGID_00000175320248187549934700000005109052525061618111_">
				<use xlink:href="#SVGID_00000026131677494792799030000003729306711356879011_"  style="overflow:visible;"/>
			</clipPath>
			<path style="clip-path:url(#SVGID_00000175320248187549934700000005109052525061618111_);fill:#263238;" d="M83.5,519.2
				L83.5,519.2l9.9,9.9l0,0L83.5,519.2z M82.3,533.1l8-2.2l-3.8-13.5l-8,2.2L82.3,533.1z M92.1,568.8c-3.3-6.9-4.7-17-5-26.1
				c-0.2-4.4-0.1-8.4,0-11.2c0.1-1.4,0.1-2.6,0.2-3.3c0-0.4,0-0.7,0.1-0.9c0-0.1,0-0.2,0-0.2c0,0,0,0,0,0c0,0,0,0,0,0c0,0,0,0,0,0
				c0,0,0,0,0,0c0,0,0,0-7-0.6c-7-0.6-7-0.6-7-0.6c0,0,0,0,0,0c0,0,0,0,0,0c0,0,0,0,0,0c0,0,0,0,0,0.1c0,0.1,0,0.2,0,0.3
				c0,0.2,0,0.6-0.1,1c-0.1,0.9-0.1,2.1-0.2,3.7c-0.1,3.1-0.2,7.4,0,12.3c0.3,9.5,1.7,22.1,6.4,31.7L92.1,568.8z M147.4,591.5
				c0.4-7,0.4-7,0.4-7c0,0,0,0,0,0c0,0,0,0,0,0c0,0,0,0,0,0c0,0-0.1,0-0.1,0c-0.1,0-0.2,0-0.4,0c-0.4,0-0.9-0.1-1.6-0.1
				c-1.4-0.1-3.5-0.3-6-0.6c-5-0.5-11.7-1.4-18.7-2.8c-7-1.4-13.9-3.2-19.4-5.6c-5.9-2.5-8.6-4.9-9.5-6.7l-12.6,6.1
				c3.2,6.5,10.1,10.7,16.6,13.4c6.8,2.9,14.8,4.9,22.2,6.4c7.5,1.5,14.6,2.4,19.9,3c2.6,0.3,4.8,0.5,6.4,0.6
				c0.8,0.1,1.4,0.1,1.8,0.1c0.2,0,0.4,0,0.5,0c0.1,0,0.1,0,0.1,0c0,0,0,0,0,0c0,0,0,0,0,0c0,0,0,0,0,0
				C146.9,598.5,146.9,598.5,147.4,591.5z M206.4,514c-17.4,0.1-30.6,5-40.5,12.7c-9.8,7.6-15.9,17.6-19.6,27.2
				c-3.7,9.6-5.2,19.1-5.8,26.1c-0.3,3.5-0.4,6.5-0.3,8.5c0,1,0,1.9,0.1,2.5c0,0.3,0,0.5,0,0.7c0,0.1,0,0.2,0,0.2c0,0,0,0,0,0.1
				c0,0,0,0,0,0c0,0,0,0,0,0c0,0,0,0,7-0.5s7-0.5,7-0.5c0,0,0,0,0,0c0,0,0,0,0,0c0,0,0,0,0,0c0,0,0,0,0-0.1c0-0.1,0-0.3,0-0.5
				c0-0.4,0-1.1,0-2c0-1.7,0-4.3,0.3-7.3c0.5-6.1,1.8-14.2,4.9-22.2c3.1-7.9,7.8-15.6,15.1-21.2c7.2-5.6,17.4-9.6,32-9.8L206.4,514z
				 M265.6,594.2c7,0.5,7,0.4,7,0.4c0,0,0,0,0,0c0,0,0,0,0,0c0,0,0,0,0-0.1c0-0.1,0-0.1,0-0.2c0-0.2,0-0.4,0-0.7c0-0.6,0-1.5,0-2.6
				c0-2.2-0.1-5.2-0.4-8.9c-0.6-7.3-2.1-17.2-5.8-27.1c-3.7-10-9.7-20.3-19.5-28.2c-9.9-7.9-23.2-12.9-40.6-12.8l0.1,14
				c14.5-0.1,24.6,4,31.7,9.7c7.3,5.8,12,13.8,15.1,22.1c3.1,8.4,4.4,16.9,4.9,23.4c0.3,3.2,0.3,5.9,0.3,7.8c0,0.9,0,1.6,0,2.1
				c0,0.2,0,0.4,0,0.5c0,0.1,0,0.1,0,0.1c0,0,0,0,0,0c0,0,0,0,0,0c0,0,0,0,0,0C258.6,593.7,258.6,593.7,265.6,594.2z M446.7,587.2
				H265.6v14h181.2V587.2z M439.7,410.4v183.8h14V410.4H439.7z M317.3,417.4c15.4-0.3,47.7-0.3,76.2-0.2c14.3,0,27.5,0.1,37.3,0.1
				c4.9,0,8.8,0,11.6,0.1c1.4,0,2.5,0,3.2,0c0.4,0,0.6,0,0.8,0c0.1,0,0.2,0,0.2,0c0,0,0,0,0.1,0c0,0,0,0,0,0c0,0,0,0,0,0s0,0,0-7
				c0-7,0-7,0-7c0,0,0,0,0,0c0,0,0,0,0,0c0,0,0,0-0.1,0c0,0-0.1,0-0.2,0c-0.2,0-0.5,0-0.8,0c-0.7,0-1.8,0-3.2,0
				c-2.8,0-6.7,0-11.6-0.1c-9.7,0-23-0.1-37.3-0.1c-28.5-0.1-61-0.1-76.5,0.2L317.3,417.4z M254,425.3c11.7-4.5,32.5-7.3,63.4-8
				l-0.3-14c-31,0.6-53.9,3.5-68,8.9L254,425.3z M168.3,463.5c3.4,6.1,3.4,6.1,3.4,6.1c0,0,0,0,0,0c0,0,0,0,0,0c0,0,0,0,0,0
				c0,0,0.1,0,0.1-0.1c0.1-0.1,0.3-0.2,0.6-0.3c0.5-0.3,1.3-0.7,2.2-1.3c1.9-1.1,4.7-2.7,8.1-4.6c6.8-3.8,15.9-8.9,25.5-14.2
				c9.6-5.3,19.5-10.7,27.9-15.1c8.5-4.5,14.9-7.7,17.7-8.7l-5-13.1c-3.7,1.4-10.9,5-19.2,9.4c-8.5,4.4-18.5,9.9-28.1,15.2
				c-9.6,5.3-18.8,10.4-25.6,14.2c-3.4,1.9-6.2,3.5-8.1,4.6c-1,0.5-1.7,1-2.3,1.3c-0.3,0.1-0.5,0.3-0.6,0.3c-0.1,0-0.1,0.1-0.2,0.1
				c0,0,0,0,0,0c0,0,0,0,0,0c0,0,0,0,0,0C164.9,457.4,164.9,457.4,168.3,463.5z M122.1,476.6c6.8-1.1,18.5-2.6,28.6-3.9
				c5-0.6,9.6-1.2,13-1.6c1.7-0.2,3-0.4,4-0.5c0.5-0.1,0.8-0.1,1.1-0.1c0.1,0,0.2,0,0.3,0c0,0,0.1,0,0.1,0c0,0,0,0,0,0c0,0,0,0,0,0
				c0,0,0,0,0,0c0,0,0,0-0.8-7c-0.8-7-0.8-7-0.8-7c0,0,0,0,0,0c0,0,0,0,0,0c0,0,0,0,0,0c0,0,0,0-0.1,0c-0.1,0-0.2,0-0.3,0
				c-0.2,0-0.6,0.1-1.1,0.1c-0.9,0.1-2.3,0.3-4,0.5c-3.4,0.4-8,1-13,1.6c-10.1,1.3-22,2.9-29.1,4L122.1,476.6z M107.8,488.2
				c1.4-1.8,2.5-3.7,3.3-5c0.9-1.4,1.5-2.3,2.1-3c1.1-1.2,3.1-2.7,8.9-3.7l-2.2-13.8c-8,1.3-13.2,4-16.9,7.9
				c-1.7,1.8-2.9,3.7-3.8,5.2c-1,1.6-1.6,2.7-2.5,3.8L107.8,488.2z M88.5,524.1c6.8,1.8,6.8,1.8,6.8,1.8c0,0,0,0,0,0c0,0,0,0,0,0
				c0,0,0,0,0,0c0,0,0,0,0-0.1c0-0.1,0-0.2,0.1-0.3c0.1-0.2,0.2-0.6,0.3-1.1c0.3-0.9,0.6-2.3,1.1-3.9c0.9-3.3,2.2-7.7,3.7-12.3
				c1.4-4.6,3-9.3,4.4-13.2c0.7-1.9,1.4-3.6,2-4.9c0.3-0.6,0.5-1.1,0.8-1.5c0.2-0.4,0.3-0.5,0.3-0.5l-11.1-8.5
				c-1.1,1.4-2,3.2-2.7,4.7c-0.8,1.7-1.6,3.7-2.4,5.8c-1.6,4.2-3.2,9.2-4.7,13.9c-1.5,4.7-2.8,9.3-3.8,12.6c-0.5,1.7-0.9,3.1-1.1,4
				c-0.1,0.5-0.2,0.9-0.3,1.1c0,0.1-0.1,0.2-0.1,0.3c0,0,0,0.1,0,0.1c0,0,0,0,0,0c0,0,0,0,0,0c0,0,0,0,0,0
				C81.7,522.3,81.7,522.3,88.5,524.1z M88.5,524.1l5,4.9l18.8-18.8l-25.6,7.1L88.5,524.1z M80.4,526.3l-1.9-6.7l-4.6,1.3l-0.4,4.8
				L80.4,526.3z M85.8,571.8l-6.3,3.1l0,0L85.8,571.8z M147.4,591.5l-0.4,7l7.9,0.5l-0.6-7.9L147.4,591.5z M206.5,521l-0.1-7h0
				L206.5,521z M265.6,594.2l-7-0.5l-0.5,7.5h7.5V594.2z M446.7,594.2v7h7v-7H446.7z M446.7,410.4h7v-7l-7,0L446.7,410.4z
				 M317.2,410.4l0.1,7h0L317.2,410.4z M168.3,463.5l0.8,7l1.4-0.2l1.2-0.7L168.3,463.5z M88.5,524.1l-6.8-1.8l-6.9,25.4l18.6-18.7
				L88.5,524.1z"/>
		</g>
		<polygon class="st0" points="459,561 436,561.9 430,587 456,587 		"/>
		<polygon class="st0" points="460,474 436,474 431,566 457,566 		"/>
		<polygon class="st0" points="459,417 435,417 430,488 456,488 		"/>
		<path class="st7" d="M438.1,483.9l0,0.2c0.3,2.8,3.8,3.6,4.9,3.7c5.5,0.3,19.1,0.9,20.4,0.5c0.8-0.2,1.6-0.7,2.1-1.3
			c0.3-0.4,0.6-0.8,0.7-1.2c0.4-1.4-0.5-3.3-1.9-3.7c-1.5-0.5-19.1-1.1-23.2-1.1C440.2,480.9,438,481.3,438.1,483.9z"/>
		<g>
			<defs>
				<path id="SVGID_00000071525866295499122510000013979278353476246157_" d="M438.1,483.9l0,0.2c0.3,2.8,3.8,3.6,4.9,3.7
					c5.5,0.3,19.1,0.9,20.4,0.5c0.8-0.2,1.6-0.7,2.1-1.3c0.3-0.4,0.6-0.8,0.7-1.2c0.4-1.4-0.5-3.3-1.9-3.7
					c-1.5-0.5-19.1-1.1-23.2-1.1C440.2,480.9,438,481.3,438.1,483.9z"/>
			</defs>
			<clipPath id="SVGID_00000092451648425233929680000011543799576917392563_">
				<use xlink:href="#SVGID_00000071525866295499122510000013979278353476246157_"  style="overflow:visible;"/>
			</clipPath>
			<path style="clip-path:url(#SVGID_00000092451648425233929680000011543799576917392563_);fill:#263238;" d="M441,487.9
				c0.3,0,0.6,0,0.9-0.1c0.3-0.1,0.7-0.2,1.2-0.5c0.5-0.3,1.1-0.9,1.6-1.8c0.4-0.8,0.5-1.6,0.5-2l-14,0.7c-0.2-3.8,1.6-6.9,4.3-8.7
				c2.2-1.4,4.4-1.7,5.7-1.7L441,487.9z M462.1,488.7c0.7,0.2,1.1,0.2,0.2,0.1c-0.5-0.1-1.2-0.1-2.2-0.2c-1.8-0.1-4.2-0.2-6.8-0.3
				c-5.1-0.2-10.4-0.4-12.3-0.4l0.1-14c2.2,0,7.8,0.2,12.9,0.4c2.6,0.1,5.1,0.2,7.1,0.4c1,0.1,1.9,0.1,2.7,0.2
				c0.4,0,1.7,0.2,2.7,0.5L462.1,488.7z M459.5,483.8c-0.4,1.4-0.1,2.4,0.2,2.9c0.3,0.5,1,1.5,2.5,2l4.1-13.4
				c2.9,0.9,4.8,3.1,5.8,4.9c1,1.9,1.6,4.6,0.8,7.4L459.5,483.8z M460.2,482.4c-0.2,0.3-0.5,0.7-0.7,1.4l13.5,3.8
				c-0.5,1.6-1.3,2.9-2.1,3.9L460.2,482.4z M461.4,481.6c-0.2,0-0.3,0.1-0.5,0.2c-0.2,0.1-0.4,0.3-0.6,0.5l10.5,9.2
				c-1.6,1.8-3.6,2.9-5.4,3.4L461.4,481.6z M443.4,480.8c2.8,0.1,7.5,0.4,11.7,0.5c2.1,0.1,4,0.1,5.5,0.1c0.7,0,1.3,0,1.6,0
				c0.2,0,0.2,0,0.2,0c0,0-0.1,0-0.2,0c-0.1,0-0.4,0.1-0.8,0.2l4.1,13.4c-0.8,0.3-1.5,0.3-1.8,0.3c-0.4,0-0.7,0.1-1,0.1
				c-0.7,0-1.4,0-2.2,0c-1.6,0-3.7-0.1-5.8-0.1c-4.3-0.1-9.1-0.4-11.9-0.5L443.4,480.8z M445.1,483.5c-0.1-0.8-0.4-1.5-0.8-2
				c-0.4-0.4-0.7-0.6-0.7-0.6c-0.1,0,0,0,0.1,0c0.1,0,0.1,0-0.2,0l-0.8,14c-1.4-0.1-3.6-0.5-5.7-1.6c-2.1-1.1-5.4-3.7-5.8-8.4
				L445.1,483.5z M445.1,483.7l0,0.2l-14,0.5l0-0.2L445.1,483.7z M441.1,480.9l0,7l0,0L441.1,480.9z M464.3,482l-2.1,6.7l-0.1,0
				l-0.1,0L464.3,482z M466.2,485.7l-6.7-1.9l0,0l0,0L466.2,485.7z M465.5,487l5.3,4.5l0,0l0,0L465.5,487z M463.4,488.3l-2.1-6.7
				l0,0l0,0L463.4,488.3z M443,487.8l-0.3,7l0,0l0,0L443,487.8z M438.1,484.2l-7,0.7l0-0.2l0-0.2L438.1,484.2z"/>
		</g>
		<path class="st7" d="M561.1,484.9l0,0.2c0.3,2.8,3.8,3.6,4.9,3.7c5.5,0.3,19.1,0.9,20.4,0.5c0.8-0.2,1.6-0.7,2.1-1.3
			c0.3-0.4,0.6-0.8,0.7-1.2c0.4-1.4-0.5-3.3-1.9-3.7c-1.5-0.5-19.1-1.1-23.2-1.1C563.2,481.9,561,482.3,561.1,484.9z"/>
		<g>
			<defs>
				<path id="SVGID_00000121278152594488457680000008129981423615508665_" d="M561.1,484.9l0,0.2c0.3,2.8,3.8,3.6,4.9,3.7
					c5.5,0.3,19.1,0.9,20.4,0.5c0.8-0.2,1.6-0.7,2.1-1.3c0.3-0.4,0.6-0.8,0.7-1.2c0.4-1.4-0.5-3.3-1.9-3.7
					c-1.5-0.5-19.1-1.1-23.2-1.1C563.2,481.9,561,482.3,561.1,484.9z"/>
			</defs>
			<clipPath id="SVGID_00000092425915534998333300000015927608136944845746_">
				<use xlink:href="#SVGID_00000121278152594488457680000008129981423615508665_"  style="overflow:visible;"/>
			</clipPath>
			<path style="clip-path:url(#SVGID_00000092425915534998333300000015927608136944845746_);fill:#263238;" d="M564,488.9
				c0.3,0,0.6,0,0.9-0.1c0.3-0.1,0.7-0.2,1.2-0.5c0.5-0.3,1.1-0.9,1.6-1.8c0.4-0.8,0.5-1.6,0.5-2l-14,0.7c-0.2-3.8,1.6-6.9,4.3-8.7
				c2.2-1.4,4.4-1.7,5.7-1.7L564,488.9z M585.1,489.7c0.7,0.2,1.1,0.2,0.2,0.1c-0.5-0.1-1.2-0.1-2.2-0.2c-1.8-0.1-4.2-0.2-6.8-0.3
				c-5.1-0.2-10.4-0.4-12.3-0.4l0.1-14c2.2,0,7.8,0.2,12.9,0.4c2.6,0.1,5.1,0.2,7.1,0.4c1,0.1,1.9,0.1,2.7,0.2
				c0.4,0,1.7,0.2,2.7,0.5L585.1,489.7z M582.5,484.8c-0.4,1.4-0.1,2.4,0.2,2.9c0.3,0.5,1,1.5,2.5,2l4.1-13.4
				c2.9,0.9,4.8,3.1,5.8,4.9c1,1.9,1.6,4.6,0.8,7.4L582.5,484.8z M583.2,483.4c-0.2,0.3-0.5,0.7-0.7,1.4l13.5,3.8
				c-0.5,1.6-1.3,2.9-2.1,3.9L583.2,483.4z M584.4,482.6c-0.2,0-0.3,0.1-0.5,0.2c-0.2,0.1-0.4,0.3-0.6,0.5l10.5,9.2
				c-1.6,1.8-3.6,2.9-5.4,3.4L584.4,482.6z M566.4,481.8c2.8,0.1,7.5,0.4,11.7,0.5c2.1,0.1,4,0.1,5.5,0.1c0.7,0,1.3,0,1.6,0
				c0.2,0,0.2,0,0.2,0c0,0-0.1,0-0.2,0c-0.1,0-0.4,0.1-0.8,0.2l4.1,13.4c-0.8,0.3-1.5,0.3-1.8,0.3c-0.4,0-0.7,0.1-1,0.1
				c-0.7,0-1.4,0-2.2,0c-1.6,0-3.7-0.1-5.8-0.1c-4.3-0.1-9.1-0.4-11.9-0.5L566.4,481.8z M568.1,484.5c-0.1-0.8-0.4-1.5-0.8-2
				c-0.4-0.4-0.7-0.6-0.7-0.6c-0.1,0,0,0,0.1,0c0.1,0,0.1,0-0.2,0l-0.8,14c-1.4-0.1-3.6-0.5-5.7-1.6c-2.1-1.1-5.4-3.7-5.8-8.4
				L568.1,484.5z M568.1,484.7l0,0.2l-14,0.5l0-0.2L568.1,484.7z M564.1,481.9l0,7l0,0L564.1,481.9z M587.3,483l-2.1,6.7l-0.1,0
				l-0.1,0L587.3,483z M589.2,486.7l-6.7-1.9l0,0l0,0L589.2,486.7z M588.5,488l5.3,4.5l0,0l0,0L588.5,488z M586.4,489.3l-2.1-6.7
				l0,0l0,0L586.4,489.3z M566,488.8l-0.3,7l0,0l0,0L566,488.8z M561.1,485.2l-7,0.7l0-0.2l0-0.2L561.1,485.2z"/>
		</g>
		<g>
			<defs>
				<path id="SVGID_00000099658655114328020390000001268913839410775999_" d="M88.5,524.1h12.4l9.7-30.2l-2.6-18.2
					c0,0-6.5,8.5-8.5,13.8S88.5,524.1,88.5,524.1L88.5,524.1z"/>
			</defs>
			<clipPath id="SVGID_00000117662706296903697650000005255981394640362635_">
				<use xlink:href="#SVGID_00000099658655114328020390000001268913839410775999_"  style="overflow:visible;"/>
			</clipPath>
			<path style="clip-path:url(#SVGID_00000117662706296903697650000005255981394640362635_);fill:#263238;" d="M81.5,524.1
				L81.5,524.1l14,0v0H81.5z M93,486.9c-1.1,2.9-4,11.9-6.4,19.7c-1.3,4-2.5,7.8-3.3,10.7c-0.4,1.4-0.8,2.6-1.1,3.4
				c-0.1,0.4-0.2,0.7-0.3,0.9c0,0.1-0.1,0.2-0.1,0.2c0,0,0,0,0,0.1c0,0,0,0,0,0c0,0,0,0,0,0c0,0,0,0,0,0s0,0,6.7,2.1
				c6.7,2.1,6.7,2.1,6.7,2.1c0,0,0,0,0,0c0,0,0,0,0,0c0,0,0,0,0,0c0,0,0,0,0-0.1c0-0.1,0-0.1,0.1-0.2c0.1-0.2,0.2-0.5,0.3-0.9
				c0.2-0.8,0.6-2,1-3.4c0.9-2.8,2.1-6.6,3.3-10.6c2.5-8.1,5.2-16.5,6.2-18.9L93,486.9z M108,475.6c-5.6-4.3-5.6-4.3-5.6-4.3
				c0,0,0,0,0,0c0,0,0,0,0,0c0,0,0,0,0,0c0,0,0,0,0,0c0,0,0,0-0.1,0.1c-0.1,0.1-0.1,0.2-0.2,0.3c-0.2,0.3-0.5,0.6-0.8,1.1
				c-0.7,0.9-1.6,2.2-2.6,3.7c-1.9,2.8-4.4,6.8-5.7,10.3l13.1,5c0.7-1.9,2.4-4.7,4.3-7.5c0.9-1.3,1.7-2.5,2.3-3.3
				c0.3-0.4,0.5-0.7,0.7-1c0.1-0.1,0.1-0.2,0.2-0.2c0,0,0,0,0-0.1c0,0,0,0,0,0c0,0,0,0,0,0c0,0,0,0,0,0c0,0,0,0,0,0
				C113.6,479.9,113.6,479.9,108,475.6z M117.5,492.9l-2.6-18.2l-13.9,1.9l2.6,18.2L117.5,492.9z M107.6,526.2l9.7-30.2l-13.3-4.3
				L94.2,522L107.6,526.2z M88.5,531.1h12.4v-14H88.5V531.1z M88.5,524.1l-6.7-2.1l-0.3,1v1.1H88.5z M108,475.6l6.9-1l-2.3-16.6
				l-10.2,13.3L108,475.6z M110.6,493.9l6.7,2.1l0.5-1.5l-0.2-1.6L110.6,493.9z M100.9,524.1v7h5.1l1.6-4.9L100.9,524.1z
				 M88.5,524.1h-7v7h7V524.1z"/>
		</g>
		<path class="st11" d="M238.3,473.6l37.4-42.5c2.1-2.2,5-3.4,8-3.4h108.2l6,46.3L238.3,473.6z"/>
		<g>
			<defs>
				<path id="SVGID_00000075145108622377956210000017874204607436729773_" d="M238.3,473.6l37.4-42.5c2.1-2.2,5-3.4,8-3.4h108.2
					l6,46.3L238.3,473.6z"/>
			</defs>
			<clipPath id="SVGID_00000109741128222729457230000011555719605678243004_">
				<use xlink:href="#SVGID_00000075145108622377956210000017874204607436729773_"  style="overflow:visible;"/>
			</clipPath>
			<path style="clip-path:url(#SVGID_00000109741128222729457230000011555719605678243004_);fill:#263238;" d="M397.9,467
				l-159.6-0.4l0,14l159.6,0.4L397.9,467z M385,428.6l6,46.3l13.9-1.8l-6-46.3L385,428.6z M283.7,434.7h108.2v-14H283.7V434.7z
				 M280.7,436c0.8-0.8,1.9-1.3,3-1.3v-14c-5,0-9.7,2-13.1,5.6L280.7,436z M243.5,478.2l37.4-42.5l-10.5-9.2L233,469L243.5,478.2z
				 M397.9,474l0,7l8,0l-1-7.9L397.9,474z M391.9,427.7l6.9-0.9l-0.8-6.1h-6.2V427.7z M275.7,431.1l-5.1-4.8l-0.1,0.1l-0.1,0.1
				L275.7,431.1z M238.3,473.6L233,469l-10.2,11.6l15.4,0L238.3,473.6z"/>
		</g>
		<path class="st11" d="M560.8,427.7l13.6,46.5h138.5c0,0-44.3-29.8-54.3-35.8s-21.9-11.2-34.9-10.6S560.8,427.7,560.8,427.7
			L560.8,427.7z"/>
		<g>
			<defs>
				<path id="SVGID_00000116208012067512184970000018281521940795832707_" d="M560.8,427.7l13.6,46.5h138.5c0,0-44.3-29.8-54.3-35.8
					c-10-6.1-21.9-11.2-34.9-10.6C610.6,428.3,560.8,427.7,560.8,427.7L560.8,427.7z"/>
			</defs>
			<clipPath id="SVGID_00000039132230244580748850000016468718621465349817_">
				<use xlink:href="#SVGID_00000116208012067512184970000018281521940795832707_"  style="overflow:visible;"/>
			</clipPath>
			<path style="clip-path:url(#SVGID_00000039132230244580748850000016468718621465349817_);fill:#263238;" d="M560.8,420.7
				L560.8,420.7l0,14h0V420.7z M623.3,420.7c-6.3,0.3-21.8,0.3-36,0.2c-7,0-13.6-0.1-18.5-0.1c-2.4,0-4.4,0-5.8-0.1
				c-0.7,0-1.2,0-1.6,0c-0.2,0-0.3,0-0.4,0c0,0-0.1,0-0.1,0c0,0,0,0,0,0c0,0,0,0,0,0c0,0,0,0,0,0c0,0,0,0-0.1,7s-0.1,7-0.1,7
				c0,0,0,0,0,0c0,0,0,0,0,0c0,0,0,0,0,0c0,0,0.1,0,0.1,0c0.1,0,0.2,0,0.4,0c0.4,0,0.9,0,1.6,0c1.4,0,3.4,0,5.8,0.1
				c4.9,0,11.5,0.1,18.6,0.1c14,0.1,29.9,0.1,36.7-0.2L623.3,420.7z M662.2,432.3c-10.5-6.4-23.8-12.3-38.9-11.6l0.6,14
				c11-0.5,21.4,3.8,31,9.6L662.2,432.3z M712.9,474.1c3.9-5.8,3.9-5.8,3.9-5.8c0,0,0,0,0,0c0,0,0,0,0,0c0,0,0,0,0,0
				c0,0-0.1,0-0.1-0.1c-0.1-0.1-0.2-0.1-0.4-0.3c-0.3-0.2-0.8-0.5-1.4-1c-1.2-0.8-3-2-5.2-3.5c-4.3-2.9-10.2-6.8-16.4-10.9
				c-12.3-8.2-26-17.2-31.2-20.3l-7.3,12c4.9,2.9,18.3,11.8,30.7,20c6.2,4.1,12,8,16.3,10.9c2.2,1.4,3.9,2.6,5.2,3.4
				c0.6,0.4,1.1,0.7,1.4,1c0.2,0.1,0.3,0.2,0.4,0.2c0,0,0.1,0,0.1,0.1c0,0,0,0,0,0c0,0,0,0,0,0c0,0,0,0,0,0
				C709,479.9,709,479.9,712.9,474.1z M574.4,481.1h138.5v-14H574.4V481.1z M554.1,429.6l13.6,46.5l13.4-3.9l-13.6-46.5L554.1,429.6
				z M560.8,427.7l0.1-7l0,0h0V427.7z M712.9,474.1v7h23l-19.1-12.8L712.9,474.1z M574.4,474.1l-6.7,2l1.5,5h5.2V474.1z
				 M560.8,427.7v-7h-9.3l2.6,9L560.8,427.7z"/>
		</g>
		<g>
			<defs>
				<path id="SVGID_00000121989228564112747850000005945420595573612428_" d="M672,416.4l-15.9,7.7l77.3,50l25.3-7.4
					C727.7,446.4,687.6,421.4,672,416.4L672,416.4z"/>
			</defs>
			<clipPath id="SVGID_00000071545595075001484490000014209254508173709235_">
				<use xlink:href="#SVGID_00000121989228564112747850000005945420595573612428_"  style="overflow:visible;"/>
			</clipPath>
			<path style="clip-path:url(#SVGID_00000071545595075001484490000014209254508173709235_);fill:#263238;" d="M672,423.4L672,423.4
				l0-14h0V423.4z M762.5,460.9c-15.5-10.2-33.4-21.6-49.4-31.1c-15.7-9.3-30.3-17.3-39.1-20l-4.2,13.3c6.9,2.2,20.2,9.2,36.1,18.7
				c15.7,9.3,33.4,20.6,48.8,30.8L762.5,460.9z M735.3,480.8l25.3-7.4l-3.9-13.4l-25.3,7.4L735.3,480.8z M652.3,430l77.3,50
				l7.6-11.8l-77.3-50L652.3,430z M668.9,410.1l-15.9,7.7l6.1,12.6l15.9-7.7L668.9,410.1z M672,416.4v-7l-2.1,13.7L672,416.4z
				 M758.7,466.7l2,6.7l14.5-4.2l-12.7-8.3L758.7,466.7z M733.3,474.1l-3.8,5.9l2.7,1.7l3.1-0.9L733.3,474.1z M656.1,424.1l-3.1-6.3
				l-11.2,5.4l10.4,6.8L656.1,424.1z M672,416.4l3.1,6.3l-3.1-13.3V416.4z"/>
		</g>
		<polygon class="st11" points="387.5,427.7 392.7,474.1 579.6,474.1 565.6,427.7 		"/>
		<g>
			<defs>
				<polygon id="SVGID_00000091000141928828260890000009990678828463127222_" points="387.5,427.7 392.7,474.1 579.6,474.1 
					565.6,427.7 				"/>
			</defs>
			<clipPath id="SVGID_00000052089094046463183650000003341734735336292520_">
				<use xlink:href="#SVGID_00000091000141928828260890000009990678828463127222_"  style="overflow:visible;"/>
			</clipPath>
			<path style="clip-path:url(#SVGID_00000052089094046463183650000003341734735336292520_);fill:#263238;" d="M565.6,420.7
				l-178.1,0l0,14l178.1,0L565.6,420.7z M586.3,472.1l-14-46.5l-13.4,4l14,46.5L586.3,472.1z M392.7,481.1h186.9v-14H392.7V481.1z
				 M380.5,428.4l5.3,46.5l13.9-1.6l-5.3-46.5L380.5,428.4z M565.6,427.7l6.7-2l-1.5-5l-5.2,0L565.6,427.7z M579.6,474.1v7h9.4
				l-2.7-9L579.6,474.1z M392.7,474.1l-7,0.8l0.7,6.2h6.3V474.1z M387.5,427.7l0-7l-7.8,0l0.9,7.8L387.5,427.7z"/>
		</g>
		<polygon class="st1" points="299.3,427.7 280.8,473.5 299.3,473.5 317.9,427.7 		"/>
		<g>
			<defs>
				<path id="SVGID_00000011011394731522091480000013489139705464387772_" d="M575,559.3c-1.3,0.5-155.3,2.7-191.3,2.7
					S263,554.2,263,554.2s122.9-4.9,161-7.8C462.2,543.4,575,559.3,575,559.3z"/>
			</defs>
			<clipPath id="SVGID_00000123415257725233765620000011044809075941368457_">
				<use xlink:href="#SVGID_00000011011394731522091480000013489139705464387772_"  style="overflow:visible;"/>
			</clipPath>
			<path style="clip-path:url(#SVGID_00000123415257725233765620000011044809075941368457_);fill:#263238;" d="M423.5,539.4
				c19.9-1.5,58.3,1.8,91.1,5.4c16.5,1.8,31.9,3.7,43.1,5.2c5.6,0.7,10.2,1.3,13.3,1.8c1.6,0.2,2.8,0.4,3.7,0.5
				c0.4,0.1,0.7,0.1,1,0.1c0.1,0,0.2,0,0.2,0c0,0,0,0,0.1,0c0,0,0,0,0,0c0,0,0,0,0,0c0,0,0,0-1,6.9c-1,6.9-1,6.9-1,6.9c0,0,0,0,0,0
				c0,0,0,0,0,0c0,0,0,0-0.1,0c-0.1,0-0.1,0-0.2,0c-0.2,0-0.5-0.1-0.9-0.1c-0.8-0.1-2.1-0.3-3.6-0.5c-3.1-0.4-7.7-1-13.3-1.8
				c-11.1-1.4-26.4-3.3-42.8-5.1c-33.1-3.6-70.2-6.8-88.5-5.4L423.5,539.4z M263,554.2c-0.3-7-0.3-7-0.3-7c0,0,0,0,0,0c0,0,0,0,0,0
				c0,0,0,0,0.1,0c0.1,0,0.1,0,0.3,0c0.2,0,0.6,0,1,0c0.9,0,2.2-0.1,4-0.2c3.4-0.1,8.4-0.3,14.4-0.6c12.1-0.5,28.7-1.2,46.4-2
				c35.5-1.6,75.7-3.5,94.6-5l1.1,14c-19.2,1.5-59.6,3.5-95.1,5c-17.8,0.8-34.3,1.5-46.4,2c-6.1,0.3-11,0.5-14.4,0.6
				c-1.7,0.1-3.1,0.1-4,0.2c-0.5,0-0.8,0-1,0c-0.1,0-0.2,0-0.3,0c0,0-0.1,0-0.1,0c0,0,0,0,0,0c0,0,0,0,0,0
				C263.3,561.2,263.3,561.2,263,554.2z M383.7,569c-18.3,0-48.7-2-74.4-3.9c-12.9-1-24.6-2-33.1-2.7c-4.3-0.4-7.7-0.7-10.1-0.9
				c-1.2-0.1-2.1-0.2-2.8-0.2c-0.3,0-0.6-0.1-0.7-0.1c-0.1,0-0.1,0-0.2,0c0,0,0,0,0,0c0,0,0,0,0,0c0,0,0,0,0,0c0,0,0,0,0.6-7
				c0.6-7,0.6-7,0.6-7c0,0,0,0,0,0c0,0,0,0,0,0c0,0,0,0,0,0c0,0,0.1,0,0.2,0c0.2,0,0.4,0,0.7,0.1c0.6,0.1,1.5,0.1,2.7,0.2
				c2.4,0.2,5.8,0.5,10.1,0.9c8.5,0.7,20.2,1.7,33,2.7c25.7,2,55.6,3.9,73.3,3.9V569z M577.6,565.8c-0.6,0.2-1,0.3-1.2,0.4
				c-0.2,0-0.4,0.1-0.5,0.1c-0.2,0-0.4,0-0.5,0.1c-0.2,0-0.4,0-0.6,0c-0.4,0-0.9,0-1.6,0.1c-1.3,0-3,0.1-5.2,0.2
				c-4.4,0.1-10.7,0.2-18.3,0.4c-15.2,0.3-35.7,0.6-57.3,0.9c-43.2,0.6-90.7,1.1-108.8,1.1v-14c17.9,0,65.4-0.5,108.6-1.1
				c21.6-0.3,42.1-0.6,57.2-0.9c7.6-0.1,13.8-0.3,18.2-0.4c2.2-0.1,3.9-0.1,5.1-0.1c0.6,0,1,0,1.3-0.1c0.1,0,0.2,0,0.1,0
				c0,0-0.1,0-0.3,0c-0.1,0-0.2,0-0.4,0.1c-0.1,0-0.6,0.1-1.1,0.3L577.6,565.8z M263,554.2l-0.6,7l0.4-14L263,554.2z M575,559.3
				l1-6.9l25.9,3.7l-24.3,9.8L575,559.3z"/>
		</g>
		<g>
			<defs>
				<path id="SVGID_00000049926682574487048260000005185494545906177208_" d="M690,484.4c2.2-6.3,5.6-12.2,10-17.1
					c1-1.1,2.4-1.6,3.8-1.1c4.1,1.2,8.2,3.1,10.9,6.5c2.8,3.4,3.9,8.7,1.6,12.5C708,488.3,698.6,487,690,484.4L690,484.4z"/>
			</defs>
			<clipPath id="SVGID_00000103984570020655432360000000174295237281951364_">
				<use xlink:href="#SVGID_00000049926682574487048260000005185494545906177208_"  style="overflow:visible;"/>
			</clipPath>
			<path style="clip-path:url(#SVGID_00000103984570020655432360000000174295237281951364_);fill:#263238;" d="M697,484.4L697,484.4
				l-14,0v0H697z M718.9,491.7c-10.6,4-21.9,2.1-30.9-0.6l4.1-13.4c8.1,2.5,15.7,3.3,21.9,0.9L718.9,491.7z M720.2,468.2
				c4.1,5,6.5,13.5,2.2,20.6l-12-7.2c0.2-0.3,0.3-0.8,0.2-1.8c-0.1-1-0.6-2-1.2-2.7L720.2,468.2z M705.8,459.4
				c4.6,1.4,10.3,3.8,14.3,8.7l-10.8,8.9c-1.5-1.8-4-3.1-7.5-4.2L705.8,459.4z M694.8,462.6c2.6-2.9,6.9-4.4,11-3.2l-4,13.4
				c1.4,0.4,2.7-0.1,3.4-0.9L694.8,462.6z M683.4,482.1c2.5-7.2,6.4-13.8,11.4-19.5l10.4,9.3c-3.8,4.2-6.7,9.3-8.6,14.7L683.4,482.1
				z M690,484.4h-7v-9.5l9,2.8L690,484.4z M716.4,485.1l6,3.6l-1.3,2.1l-2.3,0.9L716.4,485.1z M714.8,472.6l5.4-4.5l0,0L714.8,472.6
				z M703.8,466.1l2-6.7l0,0L703.8,466.1z M700,467.3l5.2,4.7l0,0L700,467.3z M690,484.4l6.6,2.3l-13.6-2.3H690z"/>
		</g>
		<g>
			<defs>
				<path id="SVGID_00000081630793346998141250000009899020474447413678_" d="M707.6,468.8c-1.3-0.6-2.8-1-4.3-0.8
					c-2.1,0.3-3.6,1.8-4.8,3.3c-1.6,2-2.9,4.1-4,6.3c-0.2,0.4-0.4,0.9-0.2,1.3c0.2,0.4,0.9,0.6,1.4,0.7c6.3,1.2,13,2.4,19.1,0.6
					c1.8-0.6,1.6-1.3,1.1-2.7c-0.4-1.2-1.1-2.4-1.9-3.5C712.5,471.8,710.2,470,707.6,468.8L707.6,468.8z"/>
			</defs>
			<clipPath id="SVGID_00000150803597702152130460000005673967479281234317_">
				<use xlink:href="#SVGID_00000081630793346998141250000009899020474447413678_"  style="overflow:visible;"/>
			</clipPath>
			<path style="clip-path:url(#SVGID_00000150803597702152130460000005673967479281234317_);fill:#263238;" d="M707.6,461.8
				L707.6,461.8l0,14h0V461.8z M708.4,478.1c-0.9-1.2-2.1-2.2-3.7-2.9l5.7-12.8c3.7,1.7,6.9,4.3,9.3,7.5L708.4,478.1z M709.4,479.9
				c-0.2-0.6-0.5-1.2-0.9-1.8l11.3-8.3c1.2,1.6,2.1,3.4,2.8,5.3L709.4,479.9z M712.9,473.5c0.1,0-0.4,0.1-1.1,0.6
				c-0.9,0.7-1.8,1.8-2.2,3.4c-0.3,1.4-0.1,2.4,0,2.6c0,0.2,0.1,0.2-0.1-0.2l13.2-4.8c0.1,0.2,0.3,0.9,0.5,1.7c0.2,0.7,0.5,2.2,0,4
				c-1.1,4.4-5,5.7-6.2,6.1L712.9,473.5z M697.1,472.7c6.6,1.3,11.6,2,15.8,0.8l4,13.4c-8,2.4-16.4,0.7-22.5-0.4L697.1,472.7z
				 M700.4,475.4c-1-1.7-2.3-2.3-2.8-2.5c-0.5-0.2-0.8-0.2-0.5-0.2l-2.7,13.7c-0.3-0.1-1.2-0.2-2.2-0.6c-0.9-0.4-2.8-1.3-4-3.5
				L700.4,475.4z M700.8,480.5c-0.1,0.1,0.2-0.3,0.3-1c0.2-0.8,0.3-2.4-0.7-4.1l-12.1,7c-1.2-2.1-1.1-4.2-0.9-5.5
				c0.2-1.2,0.7-2.1,0.8-2.4L700.8,480.5z M703.9,475.6c-1.3,1.5-2.3,3.2-3.1,4.9l-12.6-6c1.3-2.7,2.9-5.3,4.9-7.7L703.9,475.6z
				 M704.3,474.9c0.4-0.1,0.6-0.2,0.5-0.1c-0.1,0-0.2,0.1-0.3,0.3c-0.2,0.2-0.3,0.4-0.5,0.6l-10.9-8.8c1.4-1.7,4.4-5.1,9.3-5.8
				L704.3,474.9z M704.7,475.2c-0.2-0.1-0.3-0.1-0.5-0.2c-0.1,0-0.2-0.1-0.3-0.1c-0.1,0,0,0,0.3,0l-1.9-13.9
				c3.4-0.5,6.4,0.6,8.1,1.4L704.7,475.2z M707.6,468.8l-2.9,6.4l2.9-13.4V468.8z M714.1,474l-5.6,4.1l0,0L714.1,474z M715.9,477.5
				l6.6-2.4l0,0L715.9,477.5z M714.9,480.2l2,6.7l0,0L714.9,480.2z M695.8,479.6l-1.3,6.9l0,0L695.8,479.6z M694.3,478.9l6.1-3.5
				l0,0l0,0L694.3,478.9z M694.5,477.5l-6.3-3l0,0L694.5,477.5z M698.5,471.2l-5.4-4.4l0,0L698.5,471.2z M703.3,467.9l1,6.9l0,0
				L703.3,467.9z M707.6,468.8l2.9-6.4l-2.9,13.4V468.8z"/>
		</g>
		<path class="st19" d="M110.5,484.5c-6.8,8.8-13.2,33-15.5,44l8.5,19.5l19-26.5L110.5,484.5z"/>
		<g>
			<defs>
				<path id="SVGID_00000128475655546716187500000002297063406684017808_" d="M158,581.8c0,28.1,22.1,50.8,49.3,50.8
					c16.5,0,31.1-8.3,40-21.1c5.8-8.4,9.3-18.6,9.3-29.7c0-28.1-22.1-50.8-49.3-50.8c-18.6,0-34.7,10.6-43.1,26.3
					C160.2,564.5,158,572.9,158,581.8z"/>
			</defs>
			<clipPath id="SVGID_00000105413245614801761230000013405399488032259995_">
				<use xlink:href="#SVGID_00000128475655546716187500000002297063406684017808_"  style="overflow:visible;"/>
			</clipPath>
			<path style="clip-path:url(#SVGID_00000105413245614801761230000013405399488032259995_);fill:#263238;" d="M170.3,560.6
				c-3.4,6.3-5.3,13.5-5.3,21.3h-14c0-10.1,2.5-19.6,7-27.9L170.3,560.6z M207.3,538c-15.8,0-29.7,9-37,22.6l-12.3-6.6
				c9.5-17.8,28-29.9,49.3-29.9V538z M249.6,581.8c0-24.4-19.1-43.8-42.3-43.8v-14c31.3,0,56.3,26.1,56.3,57.8H249.6z M241.5,607.5
				c5-7.2,8-16.1,8-25.7h14c0,12.6-3.9,24.2-10.5,33.7L241.5,607.5z M207.3,625.7c14,0,26.5-7.1,34.3-18.1l11.5,8
				c-10.2,14.6-26.8,24.1-45.7,24.1V625.7z M165,581.8c0,24.4,19.1,43.8,42.3,43.8v14c-31.3,0-56.3-26.1-56.3-57.8H165z
				 M164.2,557.3l6.2,3.3l0,0l0,0L164.2,557.3z M247.3,611.5l5.7,4l0,0L247.3,611.5z"/>
		</g>
		<g>
			<defs>
				<path id="SVGID_00000008827977377956444790000017270948862659036296_" d="M229.8,551.3c-3.5,5.4-7.4,10.3-11.5,15
					c-4,4.8-8.3,9.3-12.7,13.7c-4.4,4.3-9,8.5-13.7,12.5c-4.7,4-9.6,7.8-15,11.2l7.3,8.1c3.6-5.3,7.7-10,11.9-14.6
					c4.2-4.6,8.6-9,13.1-13.3c4.5-4.3,9.1-8.4,14-12.3c4.8-3.9,9.8-7.7,15.2-10.9L229.8,551.3L229.8,551.3z"/>
			</defs>
			<clipPath id="SVGID_00000066484906101002424260000000300435508995307688_">
				<use xlink:href="#SVGID_00000008827977377956444790000017270948862659036296_"  style="overflow:visible;"/>
			</clipPath>
			<path style="clip-path:url(#SVGID_00000066484906101002424260000000300435508995307688_);fill:#263238;" d="M226.6,557.5
				L226.6,557.5l6.4-12.4l0,0L226.6,557.5z M233.1,565.4l-8.5-9.3l10.3-9.4l8.5,9.3L233.1,565.4z M218.7,566.1c4.9-4,10.2-8,16-11.5
				l7.2,12c-5,3-9.7,6.6-14.4,10.4L218.7,566.1z M204.3,578.8c4.6-4.4,9.4-8.6,14.4-12.7l8.8,10.9c-4.7,3.7-9.1,7.7-13.5,11.9
				L204.3,578.8z M190.8,592.4c4.3-4.8,8.9-9.3,13.5-13.7l9.6,10.2c-4.4,4.2-8.7,8.4-12.7,12.9L190.8,592.4z M178.4,607.8
				c3.9-5.6,8.1-10.7,12.5-15.4l10.3,9.4c-4.1,4.5-7.9,9-11.3,13.9L178.4,607.8z M182.1,599l7.3,8.1l-10.4,9.4l-7.3-8.1L182.1,599z
				 M196.4,597.9c-4.9,4.1-10,8.1-15.8,11.7l-7.4-11.9c4.9-3.1,9.6-6.7,14.2-10.6L196.4,597.9z M210.5,585
				c-4.5,4.4-9.2,8.8-14.2,12.9l-9-10.8c4.6-3.8,9-7.9,13.3-12.1L210.5,585z M223.6,570.9c-4.2,4.9-8.6,9.6-13.1,14.1l-9.9-9.9
				c4.3-4.3,8.4-8.7,12.3-13.2L223.6,570.9z M235.6,555.1c-3.7,5.8-7.9,10.9-12,15.8l-10.6-9.1c4-4.6,7.7-9.2,10.9-14.2L235.6,555.1
				z M229.8,551.3l3.2-6.2l1.1,0.6l0.8,0.9L229.8,551.3z M238.3,560.6l5.2-4.7l5.8,6.3l-7.3,4.4L238.3,560.6z M223.1,571.6l4.4,5.4
				l0,0l0,0L223.1,571.6z M209.1,583.8l4.8,5.1l0,0l0,0L209.1,583.8z M196,597.1l5.2,4.7l0,0l0,0L196,597.1z M184.2,611.7l5.8,4
				l-5,7.3l-5.9-6.6L184.2,611.7z M176.9,603.7l-5.2,4.7l-5.6-6.2l7.1-4.4L176.9,603.7z M191.9,592.5l-4.5-5.4l0,0l0,0L191.9,592.5z
				 M205.6,580l4.9,5l0,0l0,0L205.6,580z M218.3,566.3l-5.3-4.5l0,0l0,0L218.3,566.3z M229.8,551.3l-5.9-3.8l3.4-5.3l5.6,2.9
				L229.8,551.3z"/>
		</g>
		<g>
			<defs>
				<path id="SVGID_00000074419071263372625770000013045447005549556651_" d="M202.2,543.9c1.2,6.3,1.8,12.7,2.2,19
					c0.4,6.3,0.5,12.6,0.4,18.9c-0.2,6.3-0.5,12.6-1.1,18.9c-0.6,6.3-1.5,12.6-2.9,18.8l10.7,0.4c-1-6.3-1.5-12.7-1.6-19
					c-0.2-6.3-0.1-12.6,0.1-18.9c0.3-6.3,0.7-12.6,1.5-18.9c0.7-6.3,1.7-12.6,3.3-18.8L202.2,543.9z"/>
			</defs>
			<clipPath id="SVGID_00000052072495017511542440000015585948129293961623_">
				<use xlink:href="#SVGID_00000074419071263372625770000013045447005549556651_"  style="overflow:visible;"/>
			</clipPath>
			<path style="clip-path:url(#SVGID_00000052072495017511542440000015585948129293961623_);fill:#263238;" d="M214.4,551.2
				l-12.4-0.4l0.4-14l12.4,0.4L214.4,551.2z M204.4,562.2c0.7-6.4,1.7-13.1,3.4-19.7l13.6,3.4c-1.5,5.8-2.4,11.8-3.1,17.9
				L204.4,562.2z M202.9,581.6c0.3-6.4,0.7-12.9,1.5-19.4l13.9,1.7c-0.7,6.1-1.2,12.1-1.4,18.3L202.9,581.6z M202.8,601.1
				c-0.2-6.5-0.1-13,0.1-19.5l14,0.6c-0.3,6.2-0.4,12.3-0.1,18.4L202.8,601.1z M204.5,620.9c-1.1-6.8-1.5-13.4-1.7-19.9l14-0.4
				c0.2,6.2,0.6,12.1,1.6,18.1L204.5,620.9z M201,612.4l10.7,0.4l-0.5,14l-10.7-0.4L201,612.4z M210.7,601.3
				c-0.6,6.4-1.5,13.1-3.1,19.7l-13.6-3.2c1.4-5.8,2.2-11.7,2.8-17.9L210.7,601.3z M211.8,581.9c-0.2,6.4-0.5,12.9-1.2,19.4
				l-13.9-1.5c0.6-6,1-12.1,1.1-18.3L211.8,581.9z M211.4,562.4c0.4,6.5,0.5,13,0.4,19.5l-14-0.2c0.1-6.2,0-12.3-0.4-18.4
				L211.4,562.4z M209.1,542.5c1.3,6.8,1.9,13.4,2.3,19.9l-14,0.8c-0.4-6.2-0.9-12.1-2.1-18L209.1,542.5z M214.7,544.2l0.2-7
				l8.7,0.3l-2.1,8.5L214.7,544.2z M211.4,563l7,0.8l0,0l0,0L211.4,563z M209.9,581.9l7,0.3l0,0l0,0L209.9,581.9z M209.8,600.8
				l7-0.2l0,0l0,0L209.8,600.8z M211.4,619.8l6.9-1.1l1.4,8.4l-8.5-0.3L211.4,619.8z M200.8,619.4l-0.3,7l-8.5-0.3l2-8.3
				L200.8,619.4z M203.7,600.6l-7-0.7l0,0l0,0L203.7,600.6z M204.8,581.7l7,0.1l0,0l0,0L204.8,581.7z M204.4,562.8l-7,0.4l0,0l0,0
				L204.4,562.8z"/>
		</g>
		<g>
			<defs>
				<path id="SVGID_00000182530754846487221840000012047576597115957429_" d="M177.7,558.6c5.2,3.6,10,7.6,14.6,11.8
					c4.6,4.2,9,8.6,13.3,13.1c4.2,4.6,8.3,9.3,12.1,14.2c3.9,4.9,7.6,9.9,10.8,15.4l7.8-7.5c-5.1-3.7-9.7-7.9-14.2-12.2
					c-4.5-4.3-8.7-8.8-12.9-13.5c-4.1-4.6-8.1-9.4-11.9-14.4c-3.8-5-7.4-10.1-10.6-15.7L177.7,558.6L177.7,558.6z"/>
			</defs>
			<clipPath id="SVGID_00000169550298718687713270000011881159907994901127_">
				<use xlink:href="#SVGID_00000182530754846487221840000012047576597115957429_"  style="overflow:visible;"/>
			</clipPath>
			<path style="clip-path:url(#SVGID_00000169550298718687713270000011881159907994901127_);fill:#263238;" d="M184,561.7L184,561.7
				l-12.6-6.1l0,0L184,561.7z M191.6,554.9l-9,8.8l-9.8-10l9-8.8L191.6,554.9z M191.8,569.8c-3.9-5.1-7.7-10.5-11.1-16.5l12.2-6.9
				c2.9,5.2,6.4,10,10.1,14.9L191.8,569.8z M204,584.6c-4.2-4.7-8.4-9.7-12.3-14.8l11.2-8.4c3.6,4.8,7.5,9.4,11.5,14L204,584.6z
				 M217.2,598.5c-4.7-4.5-9-9.1-13.3-13.9l10.5-9.3c4,4.6,8.1,8.9,12.5,13.1L217.2,598.5z M232.1,611.3c-5.5-4-10.3-8.4-14.9-12.9
				l9.8-10c4.3,4.2,8.7,8.1,13.4,11.6L232.1,611.3z M223.6,608.1l7.8-7.5l9.7,10.1l-7.8,7.5L223.6,608.1z M223.1,593.4
				c4,5,7.9,10.3,11.4,16.2l-12.1,7.1c-3-5.1-6.5-9.9-10.3-14.6L223.1,593.4z M210.6,578.8c4.3,4.7,8.5,9.5,12.5,14.6l-11,8.6
				c-3.7-4.7-7.6-9.3-11.8-13.7L210.6,578.8z M196.9,565.3c4.8,4.3,9.3,8.9,13.7,13.5l-10.2,9.6c-4.2-4.4-8.4-8.7-12.8-12.7
				L196.9,565.3z M181.6,552.9c5.6,3.8,10.6,8.1,15.3,12.4l-9.4,10.3c-4.5-4.1-9-7.9-13.8-11.2L181.6,552.9z M177.7,558.6l-6.3-3.1
				l0.5-1.1l0.9-0.9L177.7,558.6z M186.7,549.8l-4.9-5l6.5-6.3l4.5,7.9L186.7,549.8z M197.3,565.5l5.6-4.2l0,0l0,0L197.3,565.5z
				 M209.2,579.9l5.2-4.7l0,0l0,0L209.2,579.9z M222.1,593.4l4.8-5.1l0,0l0,0L222.1,593.4z M236.3,605.7l4.1-5.6l6.7,4.9l-6,5.8
				L236.3,605.7z M228.4,613.2l4.9,5l-6.4,6.1l-4.5-7.6L228.4,613.2z M217.6,597.7l-5.5,4.3l0,0l0,0L217.6,597.7z M205.5,583.6
				l5.1-4.8l0,0l0,0L205.5,583.6z M192.2,570.5l-4.7,5.2l0,0l0,0L192.2,570.5z M177.7,558.6l-4,5.8l-5-3.4l2.6-5.4L177.7,558.6z"/>
		</g>
		<g>
			<defs>
				<path id="SVGID_00000143576062141278931080000008172658656801097618_" d="M170.5,587c6.1-1.3,12.3-1.9,18.4-2.3
					c6.1-0.4,12.2-0.5,18.3-0.4c6.1,0.2,12.2,0.5,18.3,1.2c6.1,0.6,12.2,1.5,18.2,3l0.4-11c-6.2,1.1-12.3,1.5-18.4,1.7
					c-6.1,0.2-12.2,0.1-18.3-0.2c-6.1-0.3-12.2-0.7-18.3-1.5c-6.1-0.7-12.2-1.7-18.2-3.4L170.5,587z"/>
			</defs>
			<clipPath id="SVGID_00000121255643030500155770000014541235172773445034_">
				<use xlink:href="#SVGID_00000143576062141278931080000008172658656801097618_"  style="overflow:visible;"/>
			</clipPath>
			<path style="clip-path:url(#SVGID_00000121255643030500155770000014541235172773445034_);fill:#263238;" d="M177.8,574.4
				l-0.4,12.8l-14-0.4l0.4-12.8L177.8,574.4z M188.2,584.5c-6.3-0.8-12.7-1.8-19.2-3.6l3.7-13.5c5.6,1.5,11.3,2.4,17.3,3.2
				L188.2,584.5z M207.1,586.1c-6.3-0.3-12.6-0.7-18.9-1.6l1.8-13.9c5.8,0.8,11.7,1.2,17.7,1.4L207.1,586.1z M226,586.2
				c-6.4,0.2-12.7,0.1-18.9-0.2l0.7-14c6,0.3,11.9,0.4,17.7,0.1L226,586.2z M245.3,584.4c-6.6,1.2-13.1,1.6-19.4,1.8l-0.4-14
				c6-0.2,11.7-0.6,17.4-1.6L245.3,584.4z M236.7,588.3l0.4-11l14,0.5l-0.4,11L236.7,588.3z M226.2,578.6c6.2,0.7,12.7,1.6,19.2,3.2
				l-3.4,13.6c-5.6-1.4-11.3-2.2-17.3-2.8L226.2,578.6z M207.4,577.3c6.2,0.2,12.5,0.5,18.9,1.2l-1.5,13.9c-5.8-0.6-11.7-1-17.7-1.1
				L207.4,577.3z M188.4,577.8c6.4-0.4,12.7-0.5,18.9-0.4l-0.2,14c-6-0.1-11.9,0-17.7,0.4L188.4,577.8z M169,580.2
				c6.6-1.4,13.1-2,19.4-2.4l0.9,14c-6,0.4-11.7,1-17.4,2.1L169,580.2z M170.8,574.2l-7-0.2l0.2-8.9l8.6,2.3L170.8,574.2z
				 M189.1,577.6l0.8-6.9l0,0l0,0L189.1,577.6z M207.4,579.1l0.3-7l0,0l0,0L207.4,579.1z M225.7,579.2l-0.3-7l0,0l0,0L225.7,579.2z
				 M244.1,577.5l-1.2-6.9l8.5-1.5l-0.3,8.6L244.1,577.5z M243.7,588.5l7,0.2l-0.3,8.7l-8.4-2.1L243.7,588.5z M225.5,585.5l-0.7,7
				l0,0l0,0L225.5,585.5z M207.2,584.3l0.1-7l0,0l0,0L207.2,584.3z M188.8,584.7l0.5,7l0,0l0,0L188.8,584.7z M170.5,587l1.4,6.9
				l-8.7,1.8l0.2-8.8L170.5,587z"/>
		</g>
		<path class="st25" d="M179,602.3c1.9,2.8,4.1,5.2,6.7,7.3c4.4,3.7,9.8,6.3,15.7,7.3c1.9,0.3,3.9,0.5,6,0.5c1.3,0,2.5-0.1,3.8-0.2
			c5.9-0.7,11.4-2.9,16.1-6.3c2.7-1.9,5.1-4.3,7.1-6.9c3.6-4.6,6.1-10.1,7.1-16.2c0.4-2,0.5-4.1,0.5-6.1c0-1.3-0.1-2.6-0.2-3.9
			c-0.6-5.8-2.6-11.3-5.6-15.9c-2.1-3.3-4.7-6.1-7.7-8.5c-4.1-3.3-9-5.6-14.3-6.7c-2.2-0.5-4.4-0.7-6.7-0.7c-1.6,0-3.1,0.1-4.6,0.3
			c-5.4,0.7-10.3,2.7-14.6,5.7c-3.2,2.2-6,4.9-8.3,8c-3.2,4.2-5.4,9.3-6.5,14.7c-0.4,2.3-0.7,4.6-0.7,7c0,1.6,0.1,3.2,0.3,4.7
			C173.7,592.4,175.8,597.7,179,602.3L179,602.3z M207.3,541.9c21.4,0,38.7,17.9,38.7,40s-17.4,40-38.7,40s-38.7-17.9-38.7-40
			S185.9,541.9,207.3,541.9z"/>
		<g>
			<defs>
				<path id="SVGID_00000090294541088093169530000000013541394287347613_" d="M179,602.3c1.9,2.8,4.1,5.2,6.7,7.3
					c4.4,3.7,9.8,6.3,15.7,7.3c1.9,0.3,3.9,0.5,6,0.5c1.3,0,2.5-0.1,3.8-0.2c5.9-0.7,11.4-2.9,16.1-6.3c2.7-1.9,5.1-4.3,7.1-6.9
					c3.6-4.6,6.1-10.1,7.1-16.2c0.4-2,0.5-4.1,0.5-6.1c0-1.3-0.1-2.6-0.2-3.9c-0.6-5.8-2.6-11.3-5.6-15.9c-2.1-3.3-4.7-6.1-7.7-8.5
					c-4.1-3.3-9-5.6-14.3-6.7c-2.2-0.5-4.4-0.7-6.7-0.7c-1.6,0-3.1,0.1-4.6,0.3c-5.4,0.7-10.3,2.7-14.6,5.7c-3.2,2.2-6,4.9-8.3,8
					c-3.2,4.2-5.4,9.3-6.5,14.7c-0.4,2.3-0.7,4.6-0.7,7c0,1.6,0.1,3.2,0.3,4.7C173.7,592.4,175.8,597.7,179,602.3L179,602.3z
					 M207.3,541.9c21.4,0,38.7,17.9,38.7,40s-17.4,40-38.7,40s-38.7-17.9-38.7-40S185.9,541.9,207.3,541.9z"/>
			</defs>
			<clipPath id="SVGID_00000057828427354556880400000010187757005081468607_">
				<use xlink:href="#SVGID_00000090294541088093169530000000013541394287347613_"  style="overflow:visible;"/>
			</clipPath>
			<path style="clip-path:url(#SVGID_00000057828427354556880400000010187757005081468607_);fill:#263238;" d="M174,607.2L174,607.2
				l10-9.8l0,0L174,607.2z M180,585.7c0.6,4.7,2.3,9,4.8,12.7l-11.6,7.9c-3.8-5.5-6.3-11.9-7.1-18.9L180,585.7z M179.7,581.8
				c0,1.3,0.1,2.5,0.2,3.8l-13.9,1.9c-0.3-1.9-0.4-3.7-0.4-5.6H179.7z M180.2,576.2c-0.4,1.8-0.5,3.7-0.5,5.7h-14
				c0-2.8,0.3-5.6,0.8-8.3L180.2,576.2z M185.5,564.3c-2.5,3.4-4.4,7.5-5.2,11.9l-13.7-2.7c1.3-6.5,4-12.5,7.7-17.6L185.5,564.3z
				 M192.1,557.9c-2.5,1.7-4.8,3.9-6.6,6.4l-11.2-8.3c2.7-3.7,6.1-7,9.9-9.6L192.1,557.9z M203.7,553.4c-4.2,0.6-8.2,2.2-11.6,4.5
				l-8-11.5c5.2-3.6,11.2-6,17.7-6.9L203.7,553.4z M207.3,553.1c-1.2,0-2.4,0.1-3.6,0.2l-2-13.9c1.8-0.3,3.7-0.4,5.6-0.4V553.1z
				 M212.6,553.7c-1.7-0.4-3.5-0.5-5.3-0.5v-14c2.8,0,5.5,0.3,8.2,0.8L212.6,553.7z M223.9,559c-3.3-2.6-7.1-4.4-11.3-5.3l2.8-13.7
				c6.4,1.3,12.3,4.1,17.2,8L223.9,559z M230.2,565.8c-1.7-2.6-3.8-4.9-6.2-6.8l8.7-11c3.6,2.8,6.7,6.3,9.3,10.2L230.2,565.8z
				 M234.7,578.7c-0.5-4.7-2.1-9.1-4.5-12.8l11.7-7.7c3.6,5.6,6,12.1,6.7,19L234.7,578.7z M234.9,581.8c0-1.1-0.1-2.1-0.2-3.1
				l13.9-1.6c0.2,1.6,0.3,3.2,0.3,4.7H234.9z M234.5,586.7c0.3-1.5,0.4-3.2,0.4-4.9h14c0,2.5-0.2,4.9-0.6,7.4L234.5,586.7z
				 M228.8,599.8c2.9-3.7,4.9-8.1,5.7-13l13.8,2.3c-1.2,7.2-4.2,13.8-8.5,19.3L228.8,599.8z M223.1,605.4c2.1-1.5,4-3.4,5.7-5.5
				l11,8.6c-2.4,3.1-5.3,5.9-8.5,8.3L223.1,605.4z M210.3,610.3c4.7-0.5,9.1-2.3,12.8-5l8.2,11.3c-5.6,4.1-12.3,6.8-19.4,7.6
				L210.3,610.3z M207.3,610.5c1,0,2-0.1,2.9-0.2l1.7,13.9c-1.6,0.2-3.1,0.3-4.6,0.3V610.5z M202.5,610.1c1.6,0.3,3.2,0.4,4.8,0.4
				v14c-2.5,0-4.9-0.2-7.2-0.6L202.5,610.1z M190.1,604.3c3.6,3,7.8,5,12.4,5.8l-2.5,13.8c-7.1-1.3-13.6-4.4-18.9-8.8L190.1,604.3z
				 M184.8,598.4c1.5,2.2,3.3,4.2,5.4,5.9l-8.9,10.8c-3.1-2.5-5.7-5.5-8-8.8L184.8,598.4z M161.6,581.8c0-25.7,20.3-47,45.7-47v14
				c-17.3,0-31.7,14.6-31.7,33H161.6z M207.3,628.8c-25.4,0-45.7-21.3-45.7-47h14c0,18.4,14.4,33,31.7,33V628.8z M253,581.8
				c0,25.7-20.3,47-45.7,47v-14c17.3,0,31.7-14.6,31.7-33H253z M207.3,534.9c25.4,0,45.7,21.3,45.7,47h-14c0-18.4-14.4-33-31.7-33
				V534.9z M179,602.3l5.8-4l-10.8,8.8L179,602.3z M173,586.5l6.9-0.9l0,0l0,0L173,586.5z M173.4,574.9l-6.9-1.3l0,0L173.4,574.9z
				 M179.8,560.2l5.6,4.2l0,0l0,0L179.8,560.2z M188.1,552.2l4,5.8l0,0l0,0L188.1,552.2z M202.7,546.5l1,6.9l0,0l0,0L202.7,546.5z
				 M214,546.8l-1.4,6.9l0,0l0,0L214,546.8z M228.3,553.5l4.3-5.5l0,0l0,0L228.3,553.5z M236,562l-5.9,3.8l0,0l0,0L236,562z
				 M241.7,577.9l-7,0.8l0,0l0,0L241.7,577.9z M241.4,588l-6.9-1.2l0,0l0,0L241.4,588z M234.3,604.1l-5.5-4.3l0,0L234.3,604.1z
				 M227.2,611l-4.1-5.7l0,0l0,0L227.2,611z M211.1,617.3l-0.8-6.9l0,0l0,0L211.1,617.3z M201.3,617l-1.2,6.9l0,0L201.3,617z
				 M185.6,609.7l4.5-5.4l0,0L185.6,609.7z M179,602.3l-5.8,3.9l10.8-8.8L179,602.3z"/>
		</g>
		<path class="st27" d="M204.7,586.2c0.5,0.2,1,0.4,1.5,0.5c0.3,0,0.5,0.1,0.8,0.1c0.4,0,0.8-0.1,1.3-0.2c0.6-0.1,1.1-0.4,1.6-0.7
			c0.5-0.4,1-0.8,1.4-1.4c0.3-0.5,0.6-1,0.7-1.5c0.1-0.5,0.2-1,0.2-1.6c0-0.1,0-0.3,0-0.4c0-0.6-0.2-1.2-0.4-1.8
			c-0.3-0.8-0.9-1.5-1.6-2.1c-0.3-0.3-0.7-0.5-1.1-0.7c-0.6-0.3-1.3-0.5-2.1-0.5c-0.4,0-0.7,0-1.1,0.1c-0.4,0.1-0.7,0.2-1,0.4
			c-1.1,0.5-1.9,1.3-2.5,2.3c-0.2,0.3-0.3,0.7-0.4,1c-0.1,0.5-0.2,1-0.2,1.5c0,0.7,0.1,1.3,0.4,1.9c0.1,0.3,0.3,0.7,0.5,1
			C203.1,585.1,203.9,585.8,204.7,586.2z M200.2,578.7c0-0.2,0.1-0.3,0.2-0.4c0.8-1.8,2.3-3.2,4-3.9c0.1-0.1,0.3-0.1,0.4-0.2
			c0.7-0.2,1.4-0.3,2.1-0.3c1.2,0,2.4,0.3,3.4,0.9c0.1,0,0.2,0.1,0.2,0.2c1.6,0.9,2.8,2.5,3.4,4.4c0,0,0,0,0,0.1
			c0.2,0.6,0.3,1.3,0.3,2c0,1.2-0.2,2.2-0.7,3.2c0,0,0,0,0,0c-0.8,1.6-2.1,2.9-3.7,3.6c-0.8,0.4-1.8,0.6-2.8,0.6
			c-0.8,0-1.7-0.1-2.4-0.4c-0.1,0-0.1,0-0.1-0.1c-1.7-0.6-3.1-1.9-3.9-3.5c-0.1-0.2-0.2-0.3-0.2-0.5c-0.4-0.9-0.6-1.9-0.6-2.9
			C199.7,580.4,199.9,579.5,200.2,578.7L200.2,578.7z"/>
		<g>
			<defs>
				<path id="SVGID_00000023264790172204443640000017225720812824912530_" d="M204.7,586.2c0.5,0.2,1,0.4,1.5,0.5
					c0.3,0,0.5,0.1,0.8,0.1c0.4,0,0.8-0.1,1.3-0.2c0.6-0.1,1.1-0.4,1.6-0.7c0.5-0.4,1-0.8,1.4-1.4c0.3-0.5,0.6-1,0.7-1.5
					c0.1-0.5,0.2-1,0.2-1.6c0-0.1,0-0.3,0-0.4c0-0.6-0.2-1.2-0.4-1.8c-0.3-0.8-0.9-1.5-1.6-2.1c-0.3-0.3-0.7-0.5-1.1-0.7
					c-0.6-0.3-1.3-0.5-2.1-0.5c-0.4,0-0.7,0-1.1,0.1c-0.4,0.1-0.7,0.2-1,0.4c-1.1,0.5-1.9,1.3-2.5,2.3c-0.2,0.3-0.3,0.7-0.4,1
					c-0.1,0.5-0.2,1-0.2,1.5c0,0.7,0.1,1.3,0.4,1.9c0.1,0.3,0.3,0.7,0.5,1C203.1,585.1,203.9,585.8,204.7,586.2z M200.2,578.7
					c0-0.2,0.1-0.3,0.2-0.4c0.8-1.8,2.3-3.2,4-3.9c0.1-0.1,0.3-0.1,0.4-0.2c0.7-0.2,1.4-0.3,2.1-0.3c1.2,0,2.4,0.3,3.4,0.9
					c0.1,0,0.2,0.1,0.2,0.2c1.6,0.9,2.8,2.5,3.4,4.4c0,0,0,0,0,0.1c0.2,0.6,0.3,1.3,0.3,2c0,1.2-0.2,2.2-0.7,3.2c0,0,0,0,0,0
					c-0.8,1.6-2.1,2.9-3.7,3.6c-0.8,0.4-1.8,0.6-2.8,0.6c-0.8,0-1.7-0.1-2.4-0.4c-0.1,0-0.1,0-0.1-0.1c-1.7-0.6-3.1-1.9-3.9-3.5
					c-0.1-0.2-0.2-0.3-0.2-0.5c-0.4-0.9-0.6-1.9-0.6-2.9C199.7,580.4,199.9,579.5,200.2,578.7L200.2,578.7z"/>
			</defs>
			<clipPath id="SVGID_00000100347297935622688020000011221517622199353006_">
				<use xlink:href="#SVGID_00000023264790172204443640000017225720812824912530_"  style="overflow:visible;"/>
			</clipPath>
			<path style="clip-path:url(#SVGID_00000100347297935622688020000011221517622199353006_);fill:#263238;" d="M208.5,580.6
				c-0.1-0.1-0.2-0.3-0.3-0.4c-0.1-0.1-0.3-0.2-0.5-0.3l-6.2,12.6c-2-1-3.7-2.6-4.9-4.4L208.5,580.6z M208.7,580.9
				c0-0.1-0.1-0.3-0.3-0.6l-11.5,8c-0.6-0.9-1-1.8-1.3-2.6L208.7,580.9z M208.8,581.4c0-0.2,0-0.3-0.1-0.6l-13.1,5
				c-0.5-1.4-0.8-2.9-0.8-4.5H208.8z M208.8,581.7c0,0,0-0.1,0-0.3h-14c0-1.3,0.2-2.4,0.4-3.3L208.8,581.7z M208.6,582
				c0,0,0-0.1,0.1-0.1c0,0,0-0.1,0-0.1l-13.5-3.8c0.2-0.8,0.6-1.6,0.9-2.3L208.6,582z M207.7,582.9c0.5-0.2,0.7-0.5,0.8-0.7
				l-12.3-6.7c1.2-2.2,3.1-4.2,5.7-5.4L207.7,582.9z M207.6,582.9c-0.1,0,0.2,0,0.5-0.2l-6.4-12.4c1-0.5,2-0.8,2.6-0.9L207.6,582.9z
				 M207,583c0.1,0,0.1,0,0.2,0c0,0,0,0,0,0l-2.5-13.8c0.6-0.1,1.4-0.2,2.3-0.2V583z M206.3,582.9c0.1,0.1,0.4,0.1,0.7,0.1v-14
				c1.8,0,3.5,0.4,4.9,1L206.3,582.9z M205.7,582.5c0.1,0.1,0.3,0.3,0.7,0.4l5.4-12.9c1.1,0.5,2.1,1.1,2.9,1.8L205.7,582.5z
				 M205.2,581.9c0.1,0.3,0.3,0.6,0.6,0.8l8.8-10.9c1.6,1.3,2.9,3,3.7,4.9L205.2,581.9z M205.1,581.5c0,0.2,0,0.3,0.1,0.5l12.9-5.5
				c0.5,1.3,0.9,2.6,1,4L205.1,581.5z M205.1,581.4C205.1,581.3,205.1,581.4,205.1,581.4c0,0.2,0,0.4,0.1,0.7l13.8-2.2
				c0.1,0.8,0.1,1.5,0.1,1.5H205.1z M205.2,581c0,0,0,0.1,0,0.2c0,0.1,0,0.2,0,0.2h14c0,1.3-0.2,2.5-0.5,3.5L205.2,581z
				 M205.5,580.3c-0.2,0.3-0.3,0.5-0.4,0.7l13.4,3.9c-0.4,1.2-0.9,2.6-1.8,3.8L205.5,580.3z M205.9,580.1c-0.2,0.1-0.4,0.3-0.6,0.6
				l11.7,7.7c-0.9,1.4-2,2.5-3.3,3.3L205.9,580.1z M206.7,579.7c-0.2,0.1-0.4,0.1-0.5,0.2c-0.1,0-0.2,0.1-0.2,0.1l7.7,11.7
				c-1,0.7-2.3,1.3-3.9,1.7L206.7,579.7z M207,579.7c-0.1,0-0.2,0-0.3,0c-0.1,0-0.1,0-0.1,0l3.5,13.6c-0.9,0.2-1.9,0.4-3,0.4V579.7z
				 M207.3,579.8c-0.1,0-0.2,0-0.3,0v14c-0.6,0-1.3-0.1-1.9-0.2L207.3,579.8z M207.9,580c-0.2-0.1-0.4-0.2-0.6-0.2l-2.2,13.8
				c-1.3-0.2-2.5-0.6-3.6-1.2L207.9,580z M207.2,578.7L207.2,578.7l-14,0v0H207.2z M192.7,581.4c0-1.8,0.3-3.6,1-5.3l13,5.2
				c0,0,0-0.1,0,0c0,0,0,0.1,0,0.1H192.7z M193.8,587c-0.7-1.8-1.1-3.7-1.1-5.6h14c0,0.1,0,0.1,0,0.2c0,0,0,0.1,0,0.1L193.8,587z
				 M194.4,588.2c-0.2-0.3-0.4-0.7-0.4-0.8l12.6-6.1c0,0,0,0.1,0.1,0.1c0,0,0,0.1,0,0.1c0,0,0,0,0,0c0,0,0,0,0,0L194.4,588.2z
				 M202,594.9c-3.4-1.3-6.1-3.8-7.7-7l12.6-6.2c0,0,0,0,0,0.1c0,0,0,0,0,0L202,594.9z M204.6,595.4c-0.9,0-1.9-0.2-3-0.7
				c-1-0.5-1.7-1.1-2.2-1.5l10.1-9.7c-0.4-0.4-1.1-1-2-1.4c-1-0.5-2-0.6-2.8-0.6V595.4z M207,595.9c-1.7,0-3.3-0.3-4.9-0.9l4.9-13.1
				c-0.1,0-0.1,0-0.1,0V595.9z M212.7,594.7c-1.8,0.8-3.8,1.2-5.7,1.2v-14c0,0,0,0,0,0c0,0-0.1,0-0.1,0.1L212.7,594.7z M219.8,587.6
				c-1.5,3.2-4.1,5.7-7.3,7.1l-5.5-12.9c0,0,0,0,0.1-0.1c0,0,0.1-0.1,0.1-0.1L219.8,587.6z M218.5,579.7c0.9,0.9,1.6,2.1,1.9,3.6
				c0.3,1.4,0.1,2.6-0.2,3.5c-0.3,0.8-0.6,1.5-0.9,1.8c-0.1,0.2-0.3,0.4-0.4,0.5c-0.1,0.1-0.1,0.1-0.2,0.2c0,0-0.1,0.1-0.1,0.1
				c0,0,0,0,0,0c0,0,0,0,0,0c0,0,0,0,0,0c0,0,0,0,0,0c0,0,0,0-5-4.9s-5-4.9-5-4.9c0,0,0,0,0,0c0,0,0,0,0,0c0,0,0,0,0,0c0,0,0,0,0,0
				c0,0-0.1,0.1-0.1,0.1c-0.1,0.1-0.1,0.1-0.2,0.2c-0.1,0.1-0.3,0.3-0.4,0.5c-0.3,0.4-0.6,1-0.9,1.8c-0.3,0.9-0.5,2.1-0.2,3.5
				c0.3,1.5,1,2.6,1.8,3.5L218.5,579.7z M221.2,581.4c0,2.2-0.5,4.3-1.4,6.3l-12.6-6.2c0,0,0,0,0,0c0,0,0-0.1,0-0.1H221.2z
				 M220.7,577.6c0.3,1.1,0.5,2.4,0.5,3.8h-14c0,0,0-0.1,0-0.3L220.7,577.6z M220.9,579.3c0-0.6-0.1-1.1-0.2-1.4
				c0-0.2-0.1-0.4-0.1-0.5c0-0.2-0.1-0.3-0.1-0.4c0-0.1-0.1-0.2-0.1-0.3c0-0.1-0.1-0.1-0.1-0.2c0-0.1,0-0.1-0.1-0.1c0,0,0,0,0,0
				c0,0,0,0,0,0c0,0,0,0,0,0c0,0,0,0,0,0c0,0,0,0,0,0c0,0,0,0.1,0.1,0.1c0,0.1,0.1,0.1,0.1,0.2c0,0.1,0.1,0.2,0.1,0.3
				c0,0.1,0.1,0.3,0.1,0.4c0,0.2,0.1,0.3,0.1,0.5C220.9,578.3,221,578.8,220.9,579.3l-14,0.1c0,0.6,0.1,1.1,0.2,1.4
				c0,0.2,0.1,0.4,0.1,0.5c0,0.2,0.1,0.3,0.1,0.4c0,0.1,0.1,0.2,0.1,0.3c0,0.1,0.1,0.1,0.1,0.2c0,0.1,0,0.1,0.1,0.1c0,0,0,0,0,0
				c0,0,0,0,0,0c0,0,0,0,0,0c0,0,0,0,0,0c0,0,0,0,0,0c0,0,0-0.1-0.1-0.1c0-0.1-0.1-0.1-0.1-0.2c0-0.1-0.1-0.2-0.1-0.3
				c0-0.1-0.1-0.3-0.1-0.4c0-0.2-0.1-0.3-0.1-0.5c-0.1-0.4-0.2-0.9-0.2-1.5H220.9z M214.1,568.8c3.2,1.9,5.6,5,6.6,8.6l-13.5,3.7
				c0-0.1,0-0.1-0.1-0.1c0,0,0,0,0,0L214.1,568.8z M213.5,568.5c0,0,0.7,0.3,1.3,0.8l-8.6,11.1c0.3,0.2,0.5,0.3,0.6,0.4
				c0.1,0.1,0.2,0.1,0.2,0.1L213.5,568.5z M207,566.9c2.4,0,4.7,0.6,6.8,1.7l-6.8,12.2c0,0,0.1,0,0.1,0c0,0,0,0,0,0V566.9z
				 M202.5,567.7c1.5-0.6,3.1-0.8,4.5-0.8v14c0,0,0,0,0,0c0,0,0.1,0,0.2-0.1L202.5,567.7z M201.6,568c0.6-0.3,1.2-0.4,1.3-0.5
				l4,13.4c0,0,0,0,0,0c0,0,0,0,0,0c0,0,0,0,0,0c0,0,0,0,0,0c0.1,0,0.2-0.1,0.4-0.2L201.6,568z M194,575.4c1.5-3.4,4.3-6.1,7.9-7.5
				l5,13.1c0,0,0,0,0,0c0,0-0.1,0.1-0.1,0.2L194,575.4z M193.5,576.8c0.2-0.7,0.4-1.2,0.6-1.6l12.6,6.1c0-0.1,0.1-0.2,0.1-0.3
				c0-0.1,0.1-0.3,0.2-0.5L193.5,576.8z M202.6,584.3l5.8-4l0.1,0.1l0.1,0.1L202.6,584.3z M202.1,583.3l6.5-2.5l0,0.1l0,0.1
				L202.1,583.3z M202,579.9l-6.8-1.8l0-0.1l0-0.1L202,579.9z M202.4,578.8l-6.2-3.2l0-0.1l0-0.1L202.4,578.8z M204.9,576.5l3.2,6.2
				l-0.2,0.1l-0.2,0.1L204.9,576.5z M205.9,576.1l-1.7-6.8l0.2,0l0.2,0L205.9,576.1z M209.1,576.5l-2.7,6.5l0,0l0,0L209.1,576.5z
				 M210.2,577.2l-4.4,5.5l-0.1,0l-0.1,0L210.2,577.2z M211.7,579.3l-6.4,2.7l0-0.1l0-0.1L211.7,579.3z M212.1,581l-6.9,1.1
				l-0.1-0.3l0-0.3L212.1,581z M211.9,583l-6.7-1.9l0,0l0,0L211.9,583z M211.2,584.5l-5.8-3.9l0.1-0.2l0.1-0.2L211.2,584.5z
				 M209.8,585.9l3.9,5.8l0,0l0,0L209.8,585.9z M208.2,586.6l-1.7-6.8l0.1,0l0.1,0L208.2,586.6z M204.7,586.2l3.1-6.3l0.1,0l0.1,0
				L204.7,586.2z M200.2,578.7l-6.5-2.6l13.5,2.6H200.2z M200.3,584.3l-6.3,3.1l-0.1-0.2l-0.1-0.2L200.3,584.3z M200.5,584.8
				l6.1-3.4l0.1,0.2l0.1,0.2L200.5,584.8z M204.4,588.4l2.5-6.6l1.5,0.6l1.1,1.1L204.4,588.4z M204.6,588.4v-7h1.3l1.2,0.4
				L204.6,588.4z M209.8,588.3l-2.9-6.4l0.1,0l0.1,0L209.8,588.3z M213.5,584.6l-6.3-2.9l0.5-1.1l0.8-0.9L213.5,584.6z M213.5,584.6
				l-5,4.9l-3.4-3.5l2.2-4.4L213.5,584.6z M214,579.4l-6.8,1.8l-0.2-0.9v-0.9H214z M213.9,579.3l6.8-1.8l0.2,0.9v0.9H213.9z
				 M210.6,574.9l-3.5,6.1l-0.4-0.2l-0.4-0.3L210.6,574.9z M210.3,574.8l-3.2,6.2l-0.1-0.1l-0.1-0.1L210.3,574.8z M204.9,574.2
				l2.4,6.6l-0.2,0.1l-0.2,0.1L204.9,574.2z M204.4,574.4l2.8,6.4l-0.2,0.1l-0.2,0.1L204.4,574.4z M200.4,578.3l6.4,2.9l0,0.1l0,0.1
				L200.4,578.3z M200.2,578.7l6.7,1.9l-13.7-1.9H200.2z"/>
		</g>
		<path class="st11" d="M158.4,581.8c0,28.1,22.1,50.8,49.3,50.8c16.5,0,31.1-8.3,40-21.1c5.8-8.4,9.3-18.6,9.3-29.7
			c0-28.1-22.1-50.8-49.3-50.8c-18.6,0-34.7,10.6-43.1,26.3C160.7,564.5,158.4,572.9,158.4,581.8z"/>
		<path class="st29" d="M230.2,551.3c-3.5,5.4-7.4,10.3-11.5,15c-4,4.8-8.3,9.3-12.7,13.7c-4.4,4.3-9,8.5-13.7,12.5
			c-4.7,4-9.6,7.8-15,11.2l7.3,8.1c3.6-5.3,7.7-10,11.9-14.6c4.2-4.6,8.6-9,13.1-13.3c4.5-4.3,9.1-8.4,14-12.3
			c4.8-3.9,9.8-7.7,15.2-10.9L230.2,551.3L230.2,551.3z"/>
		<path class="st29" d="M202.7,543.9c1.2,6.3,1.8,12.7,2.2,19c0.4,6.3,0.5,12.6,0.4,18.9c-0.2,6.3-0.5,12.6-1.1,18.9
			c-0.6,6.3-1.5,12.6-2.9,18.8l10.7,0.4c-1-6.3-1.5-12.7-1.6-19c-0.2-6.3-0.1-12.6,0.1-18.9c0.3-6.3,0.7-12.6,1.5-18.9
			c0.7-6.3,1.7-12.6,3.3-18.8L202.7,543.9z"/>
		<path class="st29" d="M178.1,558.6c5.2,3.6,10,7.6,14.6,11.8c4.6,4.2,9,8.6,13.3,13.1c4.2,4.6,8.3,9.3,12.1,14.2
			c3.9,4.9,7.6,9.9,10.8,15.4l7.8-7.5c-5.1-3.7-9.7-7.9-14.2-12.2c-4.5-4.3-8.7-8.8-12.9-13.5c-4.1-4.6-8.1-9.4-11.9-14.4
			c-3.8-5-7.4-10.1-10.6-15.7L178.1,558.6L178.1,558.6z"/>
		<path class="st29" d="M170.9,587c6.1-1.3,12.3-1.9,18.4-2.3c6.1-0.4,12.2-0.5,18.3-0.4c6.1,0.2,12.2,0.5,18.3,1.2
			c6.1,0.6,12.2,1.5,18.2,3l0.4-11c-6.2,1.1-12.3,1.5-18.4,1.7c-6.1,0.2-12.2,0.1-18.3-0.2c-6.1-0.3-12.2-0.7-18.3-1.5
			c-6.1-0.7-12.2-1.7-18.2-3.4L170.9,587z"/>
		<path class="st25" d="M179.4,602.3c1.9,2.8,4.1,5.2,6.7,7.3c4.4,3.7,9.8,6.3,15.7,7.3c1.9,0.3,3.9,0.5,6,0.5
			c1.3,0,2.5-0.1,3.8-0.2c5.9-0.7,11.4-2.9,16.1-6.3c2.7-1.9,5.1-4.3,7.1-6.9c3.6-4.6,6.1-10.1,7.1-16.2c0.4-2,0.5-4.1,0.5-6.1
			c0-1.3-0.1-2.6-0.2-3.9c-0.6-5.8-2.6-11.3-5.6-15.9c-2.1-3.3-4.7-6.1-7.7-8.5c-4.1-3.3-9-5.6-14.3-6.7c-2.2-0.5-4.4-0.7-6.7-0.7
			c-1.6,0-3.1,0.1-4.6,0.3c-5.4,0.7-10.3,2.7-14.6,5.7c-3.2,2.2-6,4.9-8.3,8c-3.2,4.2-5.4,9.3-6.5,14.7c-0.4,2.3-0.7,4.6-0.7,7
			c0,1.6,0.1,3.2,0.3,4.7C174.2,592.4,176.3,597.7,179.4,602.3L179.4,602.3z M207.7,541.9c21.4,0,38.7,17.9,38.7,40
			s-17.4,40-38.7,40s-38.7-17.9-38.7-40S186.4,541.9,207.7,541.9z"/>
		<path class="st27" d="M205.1,586.2c0.5,0.2,1,0.4,1.5,0.5c0.3,0,0.5,0.1,0.8,0.1c0.4,0,0.8-0.1,1.3-0.2c0.6-0.1,1.1-0.4,1.6-0.7
			c0.5-0.4,1-0.8,1.4-1.4c0.3-0.5,0.6-1,0.7-1.5c0.1-0.5,0.2-1,0.2-1.6c0-0.1,0-0.3,0-0.4c0-0.6-0.2-1.2-0.4-1.8
			c-0.3-0.8-0.9-1.5-1.6-2.1c-0.3-0.3-0.7-0.5-1.1-0.7c-0.6-0.3-1.3-0.5-2.1-0.5c-0.4,0-0.7,0-1.1,0.1c-0.4,0.1-0.7,0.2-1,0.4
			c-1.1,0.5-1.9,1.3-2.5,2.3c-0.2,0.3-0.3,0.7-0.4,1c-0.1,0.5-0.2,1-0.2,1.5c0,0.7,0.1,1.3,0.4,1.9c0.1,0.3,0.3,0.7,0.5,1
			C203.6,585.1,204.3,585.8,205.1,586.2z M200.6,578.7c0-0.2,0.1-0.3,0.2-0.4c0.8-1.8,2.3-3.2,4-3.9c0.1-0.1,0.3-0.1,0.4-0.2
			c0.7-0.2,1.4-0.3,2.1-0.3c1.2,0,2.4,0.3,3.4,0.9c0.1,0,0.2,0.1,0.2,0.2c1.6,0.9,2.8,2.5,3.4,4.4c0,0,0,0,0,0.1
			c0.2,0.6,0.3,1.3,0.3,2c0,1.2-0.2,2.2-0.7,3.2c0,0,0,0,0,0c-0.8,1.6-2.1,2.9-3.7,3.6c-0.8,0.4-1.8,0.6-2.8,0.6
			c-0.8,0-1.7-0.1-2.4-0.4c-0.1,0-0.1,0-0.1-0.1c-1.7-0.6-3.1-1.9-3.9-3.5c-0.1-0.2-0.2-0.3-0.2-0.5c-0.4-0.9-0.6-1.9-0.6-2.9
			C200.1,580.4,200.3,579.5,200.6,578.7L200.6,578.7z"/>
		<g>
			<defs>
				<path id="SVGID_00000102518412387026877790000007144256336302737040_" d="M793,579.8c0,28.1,22.1,50.8,49.3,50.8
					c16.5,0,31.1-8.3,40-21.1c5.8-8.4,9.3-18.6,9.3-29.7c0-28.1-22.1-50.8-49.3-50.8c-18.6,0-34.7,10.6-43.1,26.3
					C795.2,562.5,793,570.9,793,579.8z"/>
			</defs>
			<clipPath id="SVGID_00000126306968386920691250000000407961613974397885_">
				<use xlink:href="#SVGID_00000102518412387026877790000007144256336302737040_"  style="overflow:visible;"/>
			</clipPath>
			<path style="clip-path:url(#SVGID_00000126306968386920691250000000407961613974397885_);fill:#263238;" d="M805.3,558.6
				c-3.4,6.3-5.3,13.5-5.3,21.3h-14c0-10.1,2.5-19.6,7-27.9L805.3,558.6z M842.3,536c-15.8,0-29.7,9-37,22.6l-12.3-6.6
				c9.5-17.8,28-29.9,49.3-29.9V536z M884.6,579.8c0-24.4-19.1-43.8-42.3-43.8v-14c31.3,0,56.3,26.1,56.3,57.8H884.6z M876.5,605.5
				c5-7.2,8-16.1,8-25.7h14c0,12.6-3.9,24.2-10.5,33.7L876.5,605.5z M842.3,623.7c14,0,26.5-7.1,34.3-18.1l11.5,8
				c-10.2,14.6-26.8,24.1-45.7,24.1V623.7z M800,579.8c0,24.4,19.1,43.8,42.3,43.8v14c-31.3,0-56.3-26.1-56.3-57.8H800z
				 M799.2,555.3l6.2,3.3l0,0l0,0L799.2,555.3z M882.3,609.5l5.7,4l0,0L882.3,609.5z"/>
		</g>
		<path class="st29" d="M864.8,549.3c-3.5,5.4-7.4,10.3-11.5,15c-4,4.8-8.3,9.3-12.7,13.7c-4.4,4.3-9,8.5-13.7,12.5
			c-4.7,4-9.6,7.8-15,11.2l7.3,8.1c3.6-5.3,7.7-10,11.9-14.6c4.2-4.6,8.6-9,13.1-13.3c4.5-4.3,9.1-8.4,14-12.3
			c4.8-3.9,9.8-7.7,15.2-10.9L864.8,549.3L864.8,549.3z"/>
		<g>
			<defs>
				<path id="SVGID_00000089542758988599858640000016227267570238281864_" d="M864.8,549.3c-3.5,5.4-7.4,10.3-11.5,15
					c-4,4.8-8.3,9.3-12.7,13.7c-4.4,4.3-9,8.5-13.7,12.5c-4.7,4-9.6,7.8-15,11.2l7.3,8.1c3.6-5.3,7.7-10,11.9-14.6
					c4.2-4.6,8.6-9,13.1-13.3c4.5-4.3,9.1-8.4,14-12.3c4.8-3.9,9.8-7.7,15.2-10.9L864.8,549.3L864.8,549.3z"/>
			</defs>
			<clipPath id="SVGID_00000141413916134951395240000002283985367847240889_">
				<use xlink:href="#SVGID_00000089542758988599858640000016227267570238281864_"  style="overflow:visible;"/>
			</clipPath>
			<path style="clip-path:url(#SVGID_00000141413916134951395240000002283985367847240889_);fill:#263238;" d="M861.6,555.5
				L861.6,555.5l6.4-12.4l0,0L861.6,555.5z M868.1,563.4l-8.5-9.3l10.3-9.4l8.5,9.3L868.1,563.4z M853.7,564.1c4.9-4,10.2-8,16-11.5
				l7.2,12c-5,3-9.7,6.6-14.4,10.4L853.7,564.1z M839.3,576.8c4.6-4.4,9.4-8.6,14.4-12.7l8.8,10.9c-4.7,3.7-9.1,7.7-13.5,11.9
				L839.3,576.8z M825.8,590.4c4.3-4.8,8.9-9.3,13.5-13.7l9.6,10.2c-4.4,4.2-8.7,8.4-12.7,12.9L825.8,590.4z M813.4,605.8
				c3.9-5.6,8.1-10.7,12.5-15.4l10.3,9.4c-4.1,4.5-7.9,9-11.3,13.9L813.4,605.8z M817.1,597l7.3,8.1l-10.4,9.4l-7.3-8.1L817.1,597z
				 M831.4,595.9c-4.9,4.1-10,8.1-15.8,11.7l-7.4-11.9c4.9-3.1,9.6-6.7,14.2-10.6L831.4,595.9z M845.5,583
				c-4.5,4.4-9.2,8.8-14.2,12.9l-9-10.8c4.6-3.8,9-7.9,13.3-12.1L845.5,583z M858.6,568.9c-4.2,4.9-8.6,9.6-13.1,14.1l-9.9-9.9
				c4.3-4.3,8.4-8.7,12.3-13.2L858.6,568.9z M870.6,553.1c-3.7,5.8-7.9,10.9-12,15.8l-10.6-9.1c4-4.6,7.7-9.2,10.9-14.2L870.6,553.1
				z M864.8,549.3l3.2-6.2l1.1,0.6l0.8,0.9L864.8,549.3z M873.3,558.6l5.2-4.7l5.8,6.3l-7.3,4.4L873.3,558.6z M858.1,569.6l4.4,5.4
				l0,0l0,0L858.1,569.6z M844.1,581.8l4.8,5.1l0,0l0,0L844.1,581.8z M831,595.1l5.2,4.7l0,0l0,0L831,595.1z M819.2,609.7l5.8,4
				l-5,7.3l-5.9-6.6L819.2,609.7z M811.9,601.7l-5.2,4.7l-5.6-6.2l7.1-4.4L811.9,601.7z M826.9,590.5l-4.5-5.4l0,0l0,0L826.9,590.5z
				 M840.6,578l4.9,5l0,0l0,0L840.6,578z M853.3,564.3l-5.3-4.5l0,0l0,0L853.3,564.3z M864.8,549.3l-5.9-3.8l3.4-5.3l5.6,2.9
				L864.8,549.3z"/>
		</g>
		<path class="st29" d="M837.2,541.9c1.2,6.3,1.8,12.7,2.2,19c0.4,6.3,0.5,12.6,0.4,18.9c-0.2,6.3-0.5,12.6-1.1,18.9
			c-0.6,6.3-1.5,12.6-2.9,18.8l10.7,0.4c-1-6.3-1.5-12.7-1.6-19c-0.2-6.3-0.1-12.6,0.1-18.9c0.3-6.3,0.7-12.6,1.5-18.9
			c0.7-6.3,1.7-12.6,3.3-18.8L837.2,541.9z"/>
		<g>
			<defs>
				<path id="SVGID_00000007423988451925141260000014115084207509646265_" d="M837.2,541.9c1.2,6.3,1.8,12.7,2.2,19
					c0.4,6.3,0.5,12.6,0.4,18.9c-0.2,6.3-0.5,12.6-1.1,18.9c-0.6,6.3-1.5,12.6-2.9,18.8l10.7,0.4c-1-6.3-1.5-12.7-1.6-19
					c-0.2-6.3-0.1-12.6,0.1-18.9c0.3-6.3,0.7-12.6,1.5-18.9c0.7-6.3,1.7-12.6,3.3-18.8L837.2,541.9z"/>
			</defs>
			<clipPath id="SVGID_00000170263320307841303240000015441914840380338307_">
				<use xlink:href="#SVGID_00000007423988451925141260000014115084207509646265_"  style="overflow:visible;"/>
			</clipPath>
			<path style="clip-path:url(#SVGID_00000170263320307841303240000015441914840380338307_);fill:#263238;" d="M849.4,549.2
				l-12.4-0.4l0.4-14l12.4,0.4L849.4,549.2z M839.4,560.2c0.7-6.4,1.7-13.1,3.4-19.7l13.6,3.4c-1.5,5.8-2.4,11.8-3.1,17.9
				L839.4,560.2z M837.9,579.6c0.3-6.4,0.7-12.9,1.5-19.4l13.9,1.7c-0.7,6.1-1.2,12.1-1.4,18.3L837.9,579.6z M837.8,599.1
				c-0.2-6.5-0.1-13,0.1-19.5l14,0.6c-0.3,6.2-0.4,12.3-0.1,18.4L837.8,599.1z M839.5,618.9c-1.1-6.8-1.5-13.4-1.7-19.9l14-0.4
				c0.2,6.2,0.6,12.1,1.6,18.1L839.5,618.9z M836,610.4l10.7,0.4l-0.5,14l-10.7-0.4L836,610.4z M845.7,599.3
				c-0.6,6.4-1.5,13.1-3.1,19.7l-13.6-3.2c1.4-5.8,2.2-11.7,2.8-17.9L845.7,599.3z M846.8,579.9c-0.2,6.4-0.5,12.9-1.2,19.4
				l-13.9-1.5c0.6-6,1-12.1,1.1-18.3L846.8,579.9z M846.4,560.4c0.4,6.5,0.5,13,0.4,19.5l-14-0.2c0.1-6.2,0-12.3-0.4-18.4
				L846.4,560.4z M844.1,540.5c1.3,6.8,1.9,13.4,2.3,19.9l-14,0.8c-0.4-6.2-0.9-12.1-2.1-18L844.1,540.5z M849.7,542.2l0.2-7
				l8.7,0.3l-2.1,8.5L849.7,542.2z M846.4,561l7,0.8l0,0l0,0L846.4,561z M844.9,579.9l7,0.3l0,0l0,0L844.9,579.9z M844.8,598.8
				l7-0.2l0,0l0,0L844.8,598.8z M846.4,617.8l6.9-1.1l1.4,8.4l-8.5-0.3L846.4,617.8z M835.8,617.4l-0.3,7l-8.5-0.3l2-8.3
				L835.8,617.4z M838.7,598.6l-7-0.7l0,0l0,0L838.7,598.6z M839.8,579.7l7,0.1l0,0l0,0L839.8,579.7z M839.4,560.8l-7,0.4l0,0l0,0
				L839.4,560.8z"/>
		</g>
		<path class="st29" d="M812.7,556.6c5.2,3.6,10,7.6,14.6,11.8c4.6,4.2,9,8.6,13.3,13.1c4.2,4.6,8.3,9.3,12.1,14.2
			c3.9,4.9,7.6,9.9,10.8,15.4l7.8-7.5c-5.1-3.7-9.7-7.9-14.2-12.2c-4.5-4.3-8.7-8.8-12.9-13.5c-4.1-4.6-8.1-9.4-11.9-14.4
			c-3.8-5-7.4-10.1-10.6-15.7L812.7,556.6L812.7,556.6z"/>
		<g>
			<defs>
				<path id="SVGID_00000147209860715932406630000015754995865289058963_" d="M812.7,556.6c5.2,3.6,10,7.6,14.6,11.8
					c4.6,4.2,9,8.6,13.3,13.1c4.2,4.6,8.3,9.3,12.1,14.2c3.9,4.9,7.6,9.9,10.8,15.4l7.8-7.5c-5.1-3.7-9.7-7.9-14.2-12.2
					c-4.5-4.3-8.7-8.8-12.9-13.5c-4.1-4.6-8.1-9.4-11.9-14.4c-3.8-5-7.4-10.1-10.6-15.7L812.7,556.6L812.7,556.6z"/>
			</defs>
			<clipPath id="SVGID_00000094600111254836945400000013607550302962671500_">
				<use xlink:href="#SVGID_00000147209860715932406630000015754995865289058963_"  style="overflow:visible;"/>
			</clipPath>
			<path style="clip-path:url(#SVGID_00000094600111254836945400000013607550302962671500_);fill:#263238;" d="M819,559.7L819,559.7
				l-12.6-6.1l0,0L819,559.7z M826.6,552.9l-9,8.8l-9.8-10l9-8.8L826.6,552.9z M826.8,567.8c-3.9-5.1-7.7-10.5-11.1-16.5l12.2-6.9
				c2.9,5.2,6.4,10,10.1,14.9L826.8,567.8z M839,582.6c-4.2-4.7-8.4-9.7-12.3-14.8l11.2-8.4c3.6,4.8,7.5,9.4,11.5,14L839,582.6z
				 M852.2,596.5c-4.7-4.5-9-9.1-13.3-13.9l10.5-9.3c4,4.6,8.1,8.9,12.5,13.1L852.2,596.5z M867.1,609.3c-5.5-4-10.3-8.4-14.9-12.9
				l9.8-10c4.3,4.2,8.7,8.1,13.4,11.6L867.1,609.3z M858.6,606.1l7.8-7.5l9.7,10.1l-7.8,7.5L858.6,606.1z M858.1,591.4
				c4,5,7.9,10.3,11.4,16.2l-12.1,7.1c-3-5.1-6.5-9.9-10.3-14.6L858.1,591.4z M845.6,576.8c4.3,4.7,8.5,9.5,12.5,14.6l-11,8.6
				c-3.7-4.7-7.6-9.3-11.8-13.7L845.6,576.8z M831.9,563.3c4.8,4.3,9.3,8.9,13.7,13.5l-10.2,9.6c-4.2-4.4-8.4-8.7-12.8-12.7
				L831.9,563.3z M816.6,550.9c5.6,3.8,10.6,8.1,15.3,12.4l-9.4,10.3c-4.5-4.1-9-7.9-13.8-11.2L816.6,550.9z M812.7,556.6l-6.3-3.1
				l0.5-1.1l0.9-0.9L812.7,556.6z M821.7,547.8l-4.9-5l6.5-6.3l4.5,7.9L821.7,547.8z M832.3,563.5l5.6-4.2l0,0l0,0L832.3,563.5z
				 M844.2,577.9l5.2-4.7l0,0l0,0L844.2,577.9z M857.1,591.4l4.8-5.1l0,0l0,0L857.1,591.4z M871.3,603.7l4.1-5.6l6.7,4.9l-6,5.8
				L871.3,603.7z M863.4,611.2l4.9,5l-6.4,6.1l-4.5-7.6L863.4,611.2z M852.6,595.7l-5.5,4.3l0,0l0,0L852.6,595.7z M840.5,581.6
				l5.1-4.8l0,0l0,0L840.5,581.6z M827.2,568.5l-4.7,5.2l0,0l0,0L827.2,568.5z M812.7,556.6l-4,5.8l-5-3.4l2.6-5.4L812.7,556.6z"/>
		</g>
		<path class="st29" d="M805.5,585c6.1-1.3,12.3-1.9,18.4-2.3c6.1-0.4,12.2-0.5,18.3-0.4c6.1,0.2,12.2,0.5,18.3,1.2
			c6.1,0.6,12.2,1.5,18.2,3l0.4-11c-6.2,1.1-12.3,1.5-18.4,1.7c-6.1,0.2-12.2,0.1-18.3-0.2c-6.1-0.3-12.2-0.7-18.3-1.5
			c-6.1-0.7-12.2-1.7-18.2-3.4L805.5,585z"/>
		<g>
			<defs>
				<path id="SVGID_00000169539008050188936610000004354518791708600991_" d="M805.5,585c6.1-1.3,12.3-1.9,18.4-2.3
					c6.1-0.4,12.2-0.5,18.3-0.4c6.1,0.2,12.2,0.5,18.3,1.2c6.1,0.6,12.2,1.5,18.2,3l0.4-11c-6.2,1.1-12.3,1.5-18.4,1.7
					c-6.1,0.2-12.2,0.1-18.3-0.2c-6.1-0.3-12.2-0.7-18.3-1.5c-6.1-0.7-12.2-1.7-18.2-3.4L805.5,585z"/>
			</defs>
			<clipPath id="SVGID_00000086654491756540496730000005955863978467451532_">
				<use xlink:href="#SVGID_00000169539008050188936610000004354518791708600991_"  style="overflow:visible;"/>
			</clipPath>
			<path style="clip-path:url(#SVGID_00000086654491756540496730000005955863978467451532_);fill:#263238;" d="M812.8,572.4
				l-0.4,12.8l-14-0.4l0.4-12.8L812.8,572.4z M823.2,582.5c-6.3-0.8-12.7-1.8-19.2-3.6l3.7-13.5c5.6,1.5,11.3,2.4,17.3,3.2
				L823.2,582.5z M842.1,584.1c-6.3-0.3-12.6-0.7-18.9-1.6l1.8-13.9c5.8,0.8,11.7,1.2,17.7,1.4L842.1,584.1z M861,584.2
				c-6.4,0.2-12.7,0.1-18.9-0.2l0.7-14c6,0.3,11.9,0.4,17.7,0.1L861,584.2z M880.3,582.4c-6.6,1.2-13.1,1.6-19.4,1.8l-0.4-14
				c6-0.2,11.7-0.6,17.4-1.6L880.3,582.4z M871.7,586.3l0.4-11l14,0.5l-0.4,11L871.7,586.3z M861.2,576.6c6.2,0.7,12.7,1.6,19.2,3.2
				l-3.4,13.6c-5.6-1.4-11.3-2.2-17.3-2.8L861.2,576.6z M842.4,575.3c6.2,0.2,12.5,0.5,18.9,1.2l-1.5,13.9c-5.8-0.6-11.7-1-17.7-1.1
				L842.4,575.3z M823.4,575.8c6.4-0.4,12.7-0.5,18.9-0.4l-0.2,14c-6-0.1-11.9,0-17.7,0.4L823.4,575.8z M804,578.2
				c6.6-1.4,13.1-2,19.4-2.4l0.9,14c-6,0.4-11.7,1-17.4,2.1L804,578.2z M805.8,572.2l-7-0.2l0.2-8.9l8.6,2.3L805.8,572.2z
				 M824.1,575.6l0.8-6.9l0,0l0,0L824.1,575.6z M842.4,577.1l0.3-7l0,0l0,0L842.4,577.1z M860.7,577.2l-0.3-7l0,0l0,0L860.7,577.2z
				 M879.1,575.5l-1.2-6.9l8.5-1.5l-0.3,8.6L879.1,575.5z M878.7,586.5l7,0.2l-0.3,8.7l-8.4-2.1L878.7,586.5z M860.5,583.5l-0.7,7
				l0,0l0,0L860.5,583.5z M842.2,582.3l0.1-7l0,0l0,0L842.2,582.3z M823.8,582.7l0.5,7l0,0l0,0L823.8,582.7z M805.5,585l1.4,6.9
				l-8.7,1.8l0.2-8.8L805.5,585z"/>
		</g>
		<path class="st25" d="M814,600.3c1.9,2.8,4.1,5.2,6.7,7.3c4.4,3.7,9.8,6.3,15.7,7.3c1.9,0.3,3.9,0.5,6,0.5c1.3,0,2.5-0.1,3.8-0.2
			c5.9-0.7,11.4-2.9,16.1-6.3c2.7-1.9,5.1-4.3,7.1-6.9c3.6-4.6,6.1-10.1,7.1-16.2c0.4-2,0.5-4.1,0.5-6.1c0-1.3-0.1-2.6-0.2-3.9
			c-0.6-5.8-2.6-11.3-5.6-15.9c-2.1-3.3-4.7-6.1-7.7-8.5c-4.1-3.3-9-5.6-14.3-6.7c-2.2-0.5-4.4-0.7-6.7-0.7c-1.6,0-3.1,0.1-4.6,0.3
			c-5.4,0.7-10.3,2.7-14.6,5.7c-3.2,2.2-6,4.9-8.3,8c-3.2,4.2-5.4,9.3-6.5,14.7c-0.4,2.3-0.7,4.6-0.7,7c0,1.6,0.1,3.2,0.3,4.7
			C808.7,590.4,810.8,595.7,814,600.3L814,600.3z M842.3,539.9c21.4,0,38.7,17.9,38.7,40s-17.4,40-38.7,40s-38.7-17.9-38.7-40
			S820.9,539.9,842.3,539.9z"/>
		<g>
			<defs>
				<path id="SVGID_00000144301350140728425390000003571007131187048321_" d="M814,600.3c1.9,2.8,4.1,5.2,6.7,7.3
					c4.4,3.7,9.8,6.3,15.7,7.3c1.9,0.3,3.9,0.5,6,0.5c1.3,0,2.5-0.1,3.8-0.2c5.9-0.7,11.4-2.9,16.1-6.3c2.7-1.9,5.1-4.3,7.1-6.9
					c3.6-4.6,6.1-10.1,7.1-16.2c0.4-2,0.5-4.1,0.5-6.1c0-1.3-0.1-2.6-0.2-3.9c-0.6-5.8-2.6-11.3-5.6-15.9c-2.1-3.3-4.7-6.1-7.7-8.5
					c-4.1-3.3-9-5.6-14.3-6.7c-2.2-0.5-4.4-0.7-6.7-0.7c-1.6,0-3.1,0.1-4.6,0.3c-5.4,0.7-10.3,2.7-14.6,5.7c-3.2,2.2-6,4.9-8.3,8
					c-3.2,4.2-5.4,9.3-6.5,14.7c-0.4,2.3-0.7,4.6-0.7,7c0,1.6,0.1,3.2,0.3,4.7C808.7,590.4,810.8,595.7,814,600.3L814,600.3z
					 M842.3,539.9c21.4,0,38.7,17.9,38.7,40s-17.4,40-38.7,40s-38.7-17.9-38.7-40S820.9,539.9,842.3,539.9z"/>
			</defs>
			<clipPath id="SVGID_00000101791428053506599170000011503311820993788054_">
				<use xlink:href="#SVGID_00000144301350140728425390000003571007131187048321_"  style="overflow:visible;"/>
			</clipPath>
			<path style="clip-path:url(#SVGID_00000101791428053506599170000011503311820993788054_);fill:#263238;" d="M809,605.2L809,605.2
				l10-9.8l0,0L809,605.2z M815,583.7c0.6,4.7,2.3,9,4.8,12.7l-11.6,7.9c-3.8-5.5-6.3-11.9-7.1-18.9L815,583.7z M814.7,579.8
				c0,1.3,0.1,2.5,0.2,3.8l-13.9,1.9c-0.3-1.9-0.4-3.7-0.4-5.6H814.7z M815.2,574.2c-0.4,1.8-0.5,3.7-0.5,5.7h-14
				c0-2.8,0.3-5.6,0.8-8.3L815.2,574.2z M820.5,562.3c-2.5,3.4-4.4,7.5-5.2,11.9l-13.7-2.7c1.3-6.5,4-12.5,7.7-17.6L820.5,562.3z
				 M827.1,555.9c-2.5,1.7-4.8,3.9-6.6,6.4l-11.2-8.3c2.7-3.7,6.1-7,9.9-9.6L827.1,555.9z M838.7,551.4c-4.2,0.6-8.2,2.2-11.6,4.5
				l-8-11.5c5.2-3.6,11.2-6,17.7-6.9L838.7,551.4z M842.3,551.1c-1.2,0-2.4,0.1-3.6,0.2l-2-13.9c1.8-0.3,3.7-0.4,5.6-0.4V551.1z
				 M847.6,551.7c-1.7-0.4-3.5-0.5-5.3-0.5v-14c2.8,0,5.5,0.3,8.2,0.8L847.6,551.7z M858.9,557c-3.3-2.6-7.1-4.4-11.3-5.3l2.8-13.7
				c6.4,1.3,12.3,4.1,17.2,8L858.9,557z M865.2,563.8c-1.7-2.6-3.8-4.9-6.2-6.8l8.7-11c3.6,2.8,6.7,6.3,9.3,10.2L865.2,563.8z
				 M869.7,576.7c-0.5-4.7-2.1-9.1-4.5-12.8l11.7-7.7c3.6,5.6,6,12.1,6.7,19L869.7,576.7z M869.9,579.8c0-1.1-0.1-2.1-0.2-3.1
				l13.9-1.6c0.2,1.6,0.3,3.2,0.3,4.7H869.9z M869.5,584.7c0.3-1.5,0.4-3.2,0.4-4.9h14c0,2.5-0.2,4.9-0.6,7.4L869.5,584.7z
				 M863.8,597.8c2.9-3.7,4.9-8.1,5.7-13l13.8,2.3c-1.2,7.2-4.2,13.8-8.5,19.3L863.8,597.8z M858.1,603.4c2.1-1.5,4-3.4,5.7-5.5
				l11,8.6c-2.4,3.1-5.3,5.9-8.5,8.3L858.1,603.4z M845.3,608.3c4.7-0.5,9.1-2.3,12.8-5l8.2,11.3c-5.6,4.1-12.3,6.8-19.4,7.6
				L845.3,608.3z M842.3,608.5c1,0,2-0.1,2.9-0.2l1.7,13.9c-1.6,0.2-3.1,0.3-4.6,0.3V608.5z M837.5,608.1c1.6,0.3,3.2,0.4,4.8,0.4
				v14c-2.5,0-4.9-0.2-7.2-0.6L837.5,608.1z M825.1,602.3c3.6,3,7.8,5,12.4,5.8l-2.5,13.8c-7.1-1.3-13.6-4.4-18.9-8.8L825.1,602.3z
				 M819.8,596.4c1.5,2.2,3.3,4.2,5.4,5.9l-8.9,10.8c-3.1-2.5-5.7-5.5-8-8.8L819.8,596.4z M796.6,579.8c0-25.7,20.3-47,45.7-47v14
				c-17.3,0-31.7,14.6-31.7,33H796.6z M842.3,626.8c-25.4,0-45.7-21.3-45.7-47h14c0,18.4,14.4,33,31.7,33V626.8z M888,579.8
				c0,25.7-20.3,47-45.7,47v-14c17.3,0,31.7-14.6,31.7-33H888z M842.3,532.9c25.4,0,45.7,21.3,45.7,47h-14c0-18.4-14.4-33-31.7-33
				V532.9z M814,600.3l5.8-4l-10.8,8.8L814,600.3z M808,584.5l6.9-0.9l0,0l0,0L808,584.5z M808.4,572.9l-6.9-1.3l0,0L808.4,572.9z
				 M814.8,558.2l5.6,4.2l0,0l0,0L814.8,558.2z M823.1,550.2l4,5.8l0,0l0,0L823.1,550.2z M837.7,544.5l1,6.9l0,0l0,0L837.7,544.5z
				 M849,544.8l-1.4,6.9l0,0l0,0L849,544.8z M863.3,551.5l4.3-5.5l0,0l0,0L863.3,551.5z M871,560l-5.9,3.8l0,0l0,0L871,560z
				 M876.7,575.9l-7,0.8l0,0l0,0L876.7,575.9z M876.4,586l-6.9-1.2l0,0l0,0L876.4,586z M869.3,602.1l-5.5-4.3l0,0L869.3,602.1z
				 M862.2,609l-4.1-5.7l0,0l0,0L862.2,609z M846.1,615.3l-0.8-6.9l0,0l0,0L846.1,615.3z M836.3,615l-1.2,6.9l0,0L836.3,615z
				 M820.6,607.7l4.5-5.4l0,0L820.6,607.7z M814,600.3l-5.8,3.9l10.8-8.8L814,600.3z"/>
		</g>
		<path class="st27" d="M839.7,584.2c0.5,0.2,1,0.4,1.5,0.5c0.3,0,0.5,0.1,0.8,0.1c0.4,0,0.8-0.1,1.3-0.2c0.6-0.1,1.1-0.4,1.6-0.7
			c0.5-0.4,1-0.8,1.4-1.4c0.3-0.5,0.6-1,0.7-1.5c0.1-0.5,0.2-1,0.2-1.6c0-0.1,0-0.3,0-0.4c0-0.6-0.2-1.2-0.4-1.8
			c-0.3-0.8-0.9-1.5-1.6-2.1c-0.3-0.3-0.7-0.5-1.1-0.7c-0.6-0.3-1.3-0.5-2.1-0.5c-0.4,0-0.7,0-1.1,0.1c-0.4,0.1-0.7,0.2-1,0.4
			c-1.1,0.5-1.9,1.3-2.5,2.3c-0.2,0.3-0.3,0.7-0.4,1c-0.1,0.5-0.2,1-0.2,1.5c0,0.7,0.1,1.3,0.4,1.9c0.1,0.3,0.3,0.7,0.5,1
			C838.1,583.1,838.9,583.8,839.7,584.2z M835.2,576.7c0-0.2,0.1-0.3,0.2-0.4c0.8-1.8,2.3-3.2,4-3.9c0.1-0.1,0.3-0.1,0.4-0.2
			c0.7-0.2,1.4-0.3,2.1-0.3c1.2,0,2.4,0.3,3.4,0.9c0.1,0,0.2,0.1,0.2,0.2c1.6,0.9,2.8,2.5,3.4,4.4c0,0,0,0,0,0.1
			c0.2,0.6,0.3,1.3,0.3,2c0,1.2-0.2,2.2-0.7,3.2c0,0,0,0,0,0c-0.8,1.6-2.1,2.9-3.7,3.6c-0.8,0.4-1.8,0.6-2.8,0.6
			c-0.8,0-1.7-0.1-2.4-0.4c-0.1,0-0.1,0-0.1-0.1c-1.7-0.6-3.1-1.9-3.9-3.5c-0.1-0.2-0.2-0.3-0.2-0.5c-0.4-0.9-0.6-1.9-0.6-2.9
			C834.7,578.4,834.9,577.5,835.2,576.7L835.2,576.7z"/>
		<g>
			<defs>
				<path id="SVGID_00000140724162185725838380000014800791716027252111_" d="M839.7,584.2c0.5,0.2,1,0.4,1.5,0.5
					c0.3,0,0.5,0.1,0.8,0.1c0.4,0,0.8-0.1,1.3-0.2c0.6-0.1,1.1-0.4,1.6-0.7c0.5-0.4,1-0.8,1.4-1.4c0.3-0.5,0.6-1,0.7-1.5
					c0.1-0.5,0.2-1,0.2-1.6c0-0.1,0-0.3,0-0.4c0-0.6-0.2-1.2-0.4-1.8c-0.3-0.8-0.9-1.5-1.6-2.1c-0.3-0.3-0.7-0.5-1.1-0.7
					c-0.6-0.3-1.3-0.5-2.1-0.5c-0.4,0-0.7,0-1.1,0.1c-0.4,0.1-0.7,0.2-1,0.4c-1.1,0.5-1.9,1.3-2.5,2.3c-0.2,0.3-0.3,0.7-0.4,1
					c-0.1,0.5-0.2,1-0.2,1.5c0,0.7,0.1,1.3,0.4,1.9c0.1,0.3,0.3,0.7,0.5,1C838.1,583.1,838.9,583.8,839.7,584.2z M835.2,576.7
					c0-0.2,0.1-0.3,0.2-0.4c0.8-1.8,2.3-3.2,4-3.9c0.1-0.1,0.3-0.1,0.4-0.2c0.7-0.2,1.4-0.3,2.1-0.3c1.2,0,2.4,0.3,3.4,0.9
					c0.1,0,0.2,0.1,0.2,0.2c1.6,0.9,2.8,2.5,3.4,4.4c0,0,0,0,0,0.1c0.2,0.6,0.3,1.3,0.3,2c0,1.2-0.2,2.2-0.7,3.2c0,0,0,0,0,0
					c-0.8,1.6-2.1,2.9-3.7,3.6c-0.8,0.4-1.8,0.6-2.8,0.6c-0.8,0-1.7-0.1-2.4-0.4c-0.1,0-0.1,0-0.1-0.1c-1.7-0.6-3.1-1.9-3.9-3.5
					c-0.1-0.2-0.2-0.3-0.2-0.5c-0.4-0.9-0.6-1.9-0.6-2.9C834.7,578.4,834.9,577.5,835.2,576.7L835.2,576.7z"/>
			</defs>
			<clipPath id="SVGID_00000000906388671298299890000003435041312955871161_">
				<use xlink:href="#SVGID_00000140724162185725838380000014800791716027252111_"  style="overflow:visible;"/>
			</clipPath>
			<path style="clip-path:url(#SVGID_00000000906388671298299890000003435041312955871161_);fill:#263238;" d="M843.5,578.6
				c-0.1-0.1-0.2-0.3-0.3-0.4c-0.1-0.1-0.3-0.2-0.5-0.3l-6.2,12.6c-2-1-3.7-2.6-4.9-4.4L843.5,578.6z M843.7,578.9
				c0-0.1-0.1-0.3-0.3-0.6l-11.5,8c-0.6-0.9-1-1.8-1.3-2.6L843.7,578.9z M843.8,579.4c0-0.2,0-0.3-0.1-0.6l-13.1,5
				c-0.5-1.4-0.8-2.9-0.8-4.5H843.8z M843.8,579.7c0,0,0-0.1,0-0.3h-14c0-1.3,0.2-2.4,0.4-3.3L843.8,579.7z M843.6,580
				c0,0,0-0.1,0.1-0.1c0,0,0-0.1,0-0.1l-13.5-3.8c0.2-0.8,0.6-1.6,0.9-2.3L843.6,580z M842.7,580.9c0.5-0.2,0.7-0.5,0.8-0.7
				l-12.3-6.7c1.2-2.2,3.1-4.2,5.7-5.4L842.7,580.9z M842.6,580.9c-0.1,0,0.2,0,0.5-0.2l-6.4-12.4c1-0.5,2-0.8,2.6-0.9L842.6,580.9z
				 M842,581c0.1,0,0.1,0,0.2,0c0,0,0,0,0,0l-2.5-13.8c0.6-0.1,1.4-0.2,2.3-0.2V581z M841.3,580.9c0.1,0.1,0.4,0.1,0.7,0.1v-14
				c1.8,0,3.5,0.4,4.9,1L841.3,580.9z M840.7,580.5c0.1,0.1,0.3,0.3,0.7,0.4l5.4-12.9c1.1,0.5,2.1,1.1,2.9,1.8L840.7,580.5z
				 M840.2,579.9c0.1,0.3,0.3,0.6,0.6,0.8l8.8-10.9c1.6,1.3,2.9,3,3.7,4.9L840.2,579.9z M840.1,579.5c0,0.2,0,0.3,0.1,0.5l12.9-5.5
				c0.5,1.3,0.9,2.6,1,4L840.1,579.5z M840.1,579.4C840.1,579.3,840.1,579.4,840.1,579.4c0,0.2,0,0.4,0.1,0.7l13.8-2.2
				c0.1,0.8,0.1,1.5,0.1,1.5H840.1z M840.2,579c0,0,0,0.1,0,0.2c0,0.1,0,0.2,0,0.2h14c0,1.3-0.2,2.5-0.5,3.5L840.2,579z
				 M840.5,578.3c-0.2,0.3-0.3,0.5-0.4,0.7l13.4,3.9c-0.4,1.2-0.9,2.6-1.8,3.8L840.5,578.3z M840.9,578.1c-0.2,0.1-0.4,0.3-0.6,0.6
				l11.7,7.7c-0.9,1.4-2,2.5-3.3,3.3L840.9,578.1z M841.7,577.7c-0.2,0.1-0.4,0.1-0.5,0.2c-0.1,0-0.2,0.1-0.2,0.1l7.7,11.7
				c-1,0.7-2.3,1.3-3.9,1.7L841.7,577.7z M842,577.7c-0.1,0-0.2,0-0.3,0c-0.1,0-0.1,0-0.1,0l3.5,13.6c-0.9,0.2-1.9,0.4-3,0.4V577.7z
				 M842.3,577.8c-0.1,0-0.2,0-0.3,0v14c-0.6,0-1.3-0.1-1.9-0.2L842.3,577.8z M842.9,578c-0.2-0.1-0.4-0.2-0.6-0.2l-2.2,13.8
				c-1.3-0.2-2.5-0.6-3.6-1.2L842.9,578z M842.2,576.7L842.2,576.7l-14,0v0H842.2z M827.7,579.4c0-1.8,0.3-3.6,1-5.3l13,5.2
				c0,0,0-0.1,0,0c0,0,0,0.1,0,0.1H827.7z M828.8,585c-0.7-1.8-1.1-3.7-1.1-5.6h14c0,0.1,0,0.1,0,0.2c0,0,0,0.1,0,0.1L828.8,585z
				 M829.4,586.2c-0.2-0.3-0.4-0.7-0.4-0.8l12.6-6.1c0,0,0,0.1,0.1,0.1c0,0,0,0.1,0,0.1c0,0,0,0,0,0c0,0,0,0,0,0L829.4,586.2z
				 M837,592.9c-3.4-1.3-6.1-3.8-7.7-7l12.6-6.2c0,0,0,0,0,0.1c0,0,0,0,0,0L837,592.9z M839.6,593.4c-0.9,0-1.9-0.2-3-0.7
				c-1-0.5-1.7-1.1-2.2-1.5l10.1-9.7c-0.4-0.4-1.1-1-2-1.4c-1-0.5-2-0.6-2.8-0.6V593.4z M842,593.9c-1.7,0-3.3-0.3-4.9-0.9l4.9-13.1
				c-0.1,0-0.1,0-0.1,0V593.9z M847.7,592.7c-1.8,0.8-3.8,1.2-5.7,1.2v-14c0,0,0,0,0,0c0,0-0.1,0-0.1,0.1L847.7,592.7z M854.8,585.6
				c-1.5,3.2-4.1,5.7-7.3,7.1l-5.5-12.9c0,0,0,0,0.1-0.1c0,0,0.1-0.1,0.1-0.1L854.8,585.6z M853.5,577.7c0.9,0.9,1.6,2.1,1.9,3.6
				c0.3,1.4,0.1,2.6-0.2,3.5c-0.3,0.8-0.6,1.5-0.9,1.8c-0.1,0.2-0.3,0.4-0.4,0.5c-0.1,0.1-0.1,0.1-0.2,0.2c0,0-0.1,0.1-0.1,0.1
				c0,0,0,0,0,0c0,0,0,0,0,0c0,0,0,0,0,0c0,0,0,0,0,0c0,0,0,0-5-4.9c-5-4.9-5-4.9-5-4.9c0,0,0,0,0,0c0,0,0,0,0,0c0,0,0,0,0,0
				c0,0,0,0,0,0c0,0-0.1,0.1-0.1,0.1c-0.1,0.1-0.1,0.1-0.2,0.2c-0.1,0.1-0.3,0.3-0.4,0.5c-0.3,0.4-0.6,1-0.9,1.8
				c-0.3,0.9-0.5,2.1-0.2,3.5c0.3,1.5,1,2.6,1.8,3.5L853.5,577.7z M856.2,579.4c0,2.2-0.5,4.3-1.4,6.3l-12.6-6.2c0,0,0,0,0,0
				c0,0,0-0.1,0-0.1H856.2z M855.7,575.6c0.3,1.1,0.5,2.4,0.5,3.8h-14c0,0,0-0.1,0-0.3L855.7,575.6z M855.9,577.3
				c0-0.6-0.1-1.1-0.2-1.4c0-0.2-0.1-0.4-0.1-0.5c0-0.2-0.1-0.3-0.1-0.4s-0.1-0.2-0.1-0.3c0-0.1-0.1-0.1-0.1-0.2
				c0-0.1,0-0.1-0.1-0.1c0,0,0,0,0,0c0,0,0,0,0,0c0,0,0,0,0,0c0,0,0,0,0,0c0,0,0,0,0,0c0,0,0,0.1,0.1,0.1c0,0.1,0.1,0.1,0.1,0.2
				c0,0.1,0.1,0.2,0.1,0.3c0,0.1,0.1,0.3,0.1,0.4c0,0.2,0.1,0.3,0.1,0.5C855.9,576.3,856,576.8,855.9,577.3l-14,0.1
				c0,0.6,0.1,1.1,0.2,1.4c0,0.2,0.1,0.4,0.1,0.5c0,0.2,0.1,0.3,0.1,0.4c0,0.1,0.1,0.2,0.1,0.3c0,0.1,0.1,0.1,0.1,0.2
				c0,0.1,0,0.1,0.1,0.1c0,0,0,0,0,0c0,0,0,0,0,0c0,0,0,0,0,0c0,0,0,0,0,0c0,0,0,0,0,0c0,0,0-0.1-0.1-0.1c0-0.1-0.1-0.1-0.1-0.2
				c0-0.1-0.1-0.2-0.1-0.3c0-0.1-0.1-0.3-0.1-0.4c0-0.2-0.1-0.3-0.1-0.5c-0.1-0.4-0.2-0.9-0.2-1.5H855.9z M849.1,566.8
				c3.2,1.9,5.6,5,6.6,8.6l-13.5,3.7c0-0.1,0-0.1-0.1-0.1c0,0,0,0,0,0L849.1,566.8z M848.5,566.5c0,0,0.7,0.3,1.3,0.8l-8.6,11.1
				c0.3,0.2,0.5,0.3,0.6,0.4c0.1,0.1,0.2,0.1,0.2,0.1L848.5,566.5z M842,564.9c2.4,0,4.7,0.6,6.8,1.7l-6.8,12.2c0,0,0.1,0,0.1,0
				c0,0,0,0,0,0V564.9z M837.5,565.7c1.5-0.6,3.1-0.8,4.5-0.8v14c0,0,0,0,0,0c0,0,0.1,0,0.2-0.1L837.5,565.7z M836.6,566
				c0.6-0.3,1.2-0.4,1.3-0.5l4,13.4c0,0,0,0,0,0c0,0,0,0,0,0c0,0,0,0,0,0c0,0,0,0,0,0c0.1,0,0.2-0.1,0.4-0.2L836.6,566z M829,573.4
				c1.5-3.4,4.3-6.1,7.9-7.5l5,13.1c0,0,0,0,0,0c0,0-0.1,0.1-0.1,0.2L829,573.4z M828.5,574.8c0.2-0.7,0.4-1.2,0.6-1.6l12.6,6.1
				c0-0.1,0.1-0.2,0.1-0.3c0-0.1,0.1-0.3,0.2-0.5L828.5,574.8z M837.6,582.3l5.8-4l0.1,0.1l0.1,0.1L837.6,582.3z M837.1,581.3
				l6.5-2.5l0,0.1l0,0.1L837.1,581.3z M837,577.9l-6.8-1.8l0-0.1l0-0.1L837,577.9z M837.4,576.8l-6.2-3.2l0-0.1l0-0.1L837.4,576.8z
				 M839.9,574.5l3.2,6.2l-0.2,0.1l-0.2,0.1L839.9,574.5z M840.9,574.1l-1.7-6.8l0.2,0l0.2,0L840.9,574.1z M844.1,574.5l-2.7,6.5
				l0,0l0,0L844.1,574.5z M845.2,575.2l-4.4,5.5l-0.1,0l-0.1,0L845.2,575.2z M846.7,577.3l-6.4,2.7l0-0.1l0-0.1L846.7,577.3z
				 M847.1,579l-6.9,1.1l-0.1-0.3l0-0.3L847.1,579z M846.9,581l-6.7-1.9l0,0l0,0L846.9,581z M846.2,582.5l-5.8-3.9l0.1-0.2l0.1-0.2
				L846.2,582.5z M844.8,583.9l3.9,5.8l0,0l0,0L844.8,583.9z M843.2,584.6l-1.7-6.8l0.1,0l0.1,0L843.2,584.6z M839.7,584.2l3.1-6.3
				l0.1,0l0.1,0L839.7,584.2z M835.2,576.7l-6.5-2.6l13.5,2.6H835.2z M835.3,582.3l-6.3,3.1l-0.1-0.2l-0.1-0.2L835.3,582.3z
				 M835.5,582.8l6.1-3.4l0.1,0.2l0.1,0.2L835.5,582.8z M839.4,586.4l2.5-6.6l1.5,0.6l1.1,1.1L839.4,586.4z M839.6,586.4v-7h1.3
				l1.2,0.4L839.6,586.4z M844.8,586.3l-2.9-6.4l0.1,0l0.1,0L844.8,586.3z M848.5,582.6l-6.3-2.9l0.5-1.1l0.8-0.9L848.5,582.6z
				 M848.5,582.6l-5,4.9l-3.4-3.5l2.2-4.4L848.5,582.6z M849,577.4l-6.8,1.8l-0.2-0.9v-0.9H849z M848.9,577.3l6.8-1.8l0.2,0.9v0.9
				H848.9z M845.6,572.9l-3.5,6.1l-0.4-0.2l-0.4-0.3L845.6,572.9z M845.3,572.8l-3.2,6.2l-0.1-0.1l-0.1-0.1L845.3,572.8z
				 M839.9,572.2l2.4,6.6l-0.2,0.1l-0.2,0.1L839.9,572.2z M839.4,572.4l2.8,6.4l-0.2,0.1l-0.2,0.1L839.4,572.4z M835.4,576.3
				l6.4,2.9l0,0.1l0,0.1L835.4,576.3z M835.2,576.7l6.7,1.9l-13.7-1.9H835.2z"/>
		</g>
		<path class="st11" d="M793.4,579.8c0,28.1,22.1,50.8,49.3,50.8c16.5,0,31.1-8.3,40-21.1c5.8-8.4,9.3-18.6,9.3-29.7
			c0-28.1-22.1-50.8-49.3-50.8c-18.6,0-34.7,10.6-43.1,26.3C795.7,562.5,793.4,570.9,793.4,579.8z"/>
		<path class="st29" d="M865.2,549.3c-3.5,5.4-7.4,10.3-11.5,15c-4,4.8-8.3,9.3-12.7,13.7c-4.4,4.3-9,8.5-13.7,12.5
			c-4.7,4-9.6,7.8-15,11.2l7.3,8.1c3.6-5.3,7.7-10,11.9-14.6c4.2-4.6,8.6-9,13.1-13.3c4.5-4.3,9.1-8.4,14-12.3
			c4.8-3.9,9.8-7.7,15.2-10.9L865.2,549.3L865.2,549.3z"/>
		<path class="st29" d="M837.7,541.9c1.2,6.3,1.8,12.7,2.2,19c0.4,6.3,0.5,12.6,0.4,18.9c-0.2,6.3-0.5,12.6-1.1,18.9
			c-0.6,6.3-1.5,12.6-2.9,18.8l10.7,0.4c-1-6.3-1.5-12.7-1.6-19c-0.2-6.3-0.1-12.6,0.1-18.9c0.3-6.3,0.7-12.6,1.5-18.9
			c0.7-6.3,1.7-12.6,3.3-18.8L837.7,541.9z"/>
		<path class="st29" d="M813.1,556.6c5.2,3.6,10,7.6,14.6,11.8c4.6,4.2,9,8.6,13.3,13.1c4.2,4.6,8.3,9.3,12.1,14.2
			c3.9,4.9,7.6,9.9,10.8,15.4l7.8-7.5c-5.1-3.7-9.7-7.9-14.2-12.2c-4.5-4.3-8.7-8.8-12.9-13.5c-4.1-4.6-8.1-9.4-11.9-14.4
			c-3.8-5-7.4-10.1-10.6-15.7L813.1,556.6L813.1,556.6z"/>
		<path class="st29" d="M805.9,585c6.1-1.3,12.3-1.9,18.4-2.3c6.1-0.4,12.2-0.5,18.3-0.4c6.1,0.2,12.2,0.5,18.3,1.2
			c6.1,0.6,12.2,1.5,18.2,3l0.4-11c-6.2,1.1-12.3,1.5-18.4,1.7c-6.1,0.2-12.2,0.1-18.3-0.2c-6.1-0.3-12.2-0.7-18.3-1.5
			c-6.1-0.7-12.2-1.7-18.2-3.4L805.9,585z"/>
		<path class="st25" d="M814.4,600.3c1.9,2.8,4.1,5.2,6.7,7.3c4.4,3.7,9.8,6.3,15.7,7.3c1.9,0.3,3.9,0.5,6,0.5
			c1.3,0,2.5-0.1,3.8-0.2c5.9-0.7,11.4-2.9,16.1-6.3c2.7-1.9,5.1-4.3,7.1-6.9c3.6-4.6,6.1-10.1,7.1-16.2c0.4-2,0.5-4.1,0.5-6.1
			c0-1.3-0.1-2.6-0.2-3.9c-0.6-5.8-2.6-11.3-5.6-15.9c-2.1-3.3-4.7-6.1-7.7-8.5c-4.1-3.3-9-5.6-14.3-6.7c-2.2-0.5-4.4-0.7-6.7-0.7
			c-1.6,0-3.1,0.1-4.6,0.3c-5.4,0.7-10.3,2.7-14.6,5.7c-3.2,2.2-6,4.9-8.3,8c-3.2,4.2-5.4,9.3-6.5,14.7c-0.4,2.3-0.7,4.6-0.7,7
			c0,1.6,0.1,3.2,0.3,4.7C809.2,590.4,811.3,595.7,814.4,600.3L814.4,600.3z M842.7,539.9c21.4,0,38.7,17.9,38.7,40
			s-17.4,40-38.7,40s-38.7-17.9-38.7-40S821.4,539.9,842.7,539.9z"/>
		<path class="st27" d="M840.1,584.2c0.5,0.2,1,0.4,1.5,0.5c0.3,0,0.5,0.1,0.8,0.1c0.4,0,0.8-0.1,1.3-0.2c0.6-0.1,1.1-0.4,1.6-0.7
			c0.5-0.4,1-0.8,1.4-1.4c0.3-0.5,0.6-1,0.7-1.5c0.1-0.5,0.2-1,0.2-1.6c0-0.1,0-0.3,0-0.4c0-0.6-0.2-1.2-0.4-1.8
			c-0.3-0.8-0.9-1.5-1.6-2.1c-0.3-0.3-0.7-0.5-1.1-0.7c-0.6-0.3-1.3-0.5-2.1-0.5c-0.4,0-0.7,0-1.1,0.1c-0.4,0.1-0.7,0.2-1,0.4
			c-1.1,0.5-1.9,1.3-2.5,2.3c-0.2,0.3-0.3,0.7-0.4,1c-0.1,0.5-0.2,1-0.2,1.5c0,0.7,0.1,1.3,0.4,1.9c0.1,0.3,0.3,0.7,0.5,1
			C838.6,583.1,839.3,583.8,840.1,584.2z M835.6,576.7c0-0.2,0.1-0.3,0.2-0.4c0.8-1.8,2.3-3.2,4-3.9c0.1-0.1,0.3-0.1,0.4-0.2
			c0.7-0.2,1.4-0.3,2.1-0.3c1.2,0,2.4,0.3,3.4,0.9c0.1,0,0.2,0.1,0.2,0.2c1.6,0.9,2.8,2.5,3.4,4.4c0,0,0,0,0,0.1
			c0.2,0.6,0.3,1.3,0.3,2c0,1.2-0.2,2.2-0.7,3.2c0,0,0,0,0,0c-0.8,1.6-2.1,2.9-3.7,3.6c-0.8,0.4-1.8,0.6-2.8,0.6
			c-0.8,0-1.7-0.1-2.4-0.4c-0.1,0-0.1,0-0.1-0.1c-1.7-0.6-3.1-1.9-3.9-3.5c-0.1-0.2-0.2-0.3-0.2-0.5c-0.4-0.9-0.6-1.9-0.6-2.9
			C835.1,578.4,835.3,577.5,835.6,576.7L835.6,576.7z"/>
	</g>
</g>
</svg>
