<?xml version="1.0" encoding="utf-8"?>
<!-- Generator: Adobe Illustrator 26.3.1, SVG Export Plug-In . SVG Version: 6.00 Build 0)  -->
<svg version="1.1" id="Layer_1" xmlns="http://www.w3.org/2000/svg" xmlns:xlink="http://www.w3.org/1999/xlink" x="0px" y="0px"
	 viewBox="0 0 1024 850" style="enable-background:new 0 0 1024 850;" xml:space="preserve">
<style type="text/css">
	.st0{fill:#F1F5F8;}
	.st1{fill:#303B43;}
	.st2{fill:#394249;}
	.st3{fill:#EDEEEF;}
	.st4{fill:#E6E6E6;}
	.st5{fill:#CAD8E1;}
	.st6{fill:#56C3C5;}
	.st7{fill:#3DB6B8;}
	.st8{fill:#35A9AB;}
	.st9{fill:#EC6567;}
</style>
<g>
	<circle class="st0" cx="512" cy="455" r="345"/>
	<path class="st1" d="M788.5,594.5l25-7.5l57-2l27.5,8.5c-0.3-12.3,4.4-31.8-4.5-45.1C882,524.5,860.8,516,835.3,516
		s-54.7,22.1-57.8,55.8c-0.2,2.1-0.4,11.2-0.5,13.2L788.5,594.5z"/>
	<path class="st2" d="M793,579.8c0,28.1,22.1,50.8,49.3,50.8c16.5,0,31.1-8.3,40-21.1c5.8-8.4,9.3-18.6,9.3-29.7
		c0-28.1-22.1-50.8-49.3-50.8c-18.6,0-34.7,10.6-43.1,26.3C795.2,562.5,793,570.9,793,579.8z"/>
	<path class="st3" d="M864.8,549.3c-3.5,5.4-7.4,10.3-11.5,15c-4,4.8-8.3,9.3-12.7,13.7c-4.4,4.3-9,8.5-13.7,12.5
		c-4.7,4-9.6,7.8-15,11.2l7.3,8.1c3.6-5.3,7.7-10,11.9-14.6c4.2-4.6,8.6-9,13.1-13.3c4.5-4.3,9.1-8.4,14-12.3
		c4.8-3.9,9.8-7.7,15.2-10.9L864.8,549.3L864.8,549.3z"/>
	<path class="st3" d="M837.2,541.9c1.2,6.3,1.8,12.7,2.2,19c0.4,6.3,0.5,12.6,0.4,18.9c-0.2,6.3-0.5,12.6-1.1,18.9
		c-0.6,6.3-1.5,12.6-2.9,18.8l10.7,0.4c-1-6.3-1.5-12.7-1.6-19c-0.2-6.3-0.1-12.6,0.1-18.9c0.3-6.3,0.7-12.6,1.5-18.9
		c0.7-6.3,1.7-12.6,3.3-18.8L837.2,541.9z"/>
	<path class="st3" d="M812.7,556.6c5.2,3.6,10,7.6,14.6,11.8c4.6,4.2,9,8.6,13.3,13.1c4.2,4.6,8.3,9.3,12.1,14.2
		c3.9,4.9,7.6,9.9,10.8,15.4l7.8-7.5c-5.1-3.7-9.7-7.9-14.2-12.2c-4.5-4.3-8.7-8.8-12.9-13.5c-4.1-4.6-8.1-9.4-11.9-14.4
		c-3.8-5-7.4-10.1-10.6-15.7L812.7,556.6L812.7,556.6z"/>
	<path class="st3" d="M805.5,585c6.1-1.3,12.3-1.9,18.4-2.3c6.1-0.4,12.2-0.5,18.3-0.4c6.1,0.2,12.2,0.5,18.3,1.2
		c6.1,0.6,12.2,1.5,18.2,3l0.4-11c-6.2,1.1-12.3,1.5-18.4,1.7c-6.1,0.2-12.2,0.1-18.3-0.2c-6.1-0.3-12.2-0.7-18.3-1.5
		c-6.1-0.7-12.2-1.7-18.2-3.4L805.5,585z"/>
	<path class="st4" d="M814,600.3c1.9,2.8,4.1,5.2,6.7,7.3c4.4,3.7,9.8,6.3,15.7,7.3c1.9,0.3,3.9,0.5,6,0.5c1.3,0,2.5-0.1,3.8-0.2
		c5.9-0.7,11.4-2.9,16.1-6.3c2.7-1.9,5.1-4.3,7.1-6.9c3.6-4.6,6.1-10.1,7.1-16.2c0.4-2,0.5-4.1,0.5-6.1c0-1.3-0.1-2.6-0.2-3.9
		c-0.6-5.8-2.6-11.3-5.6-15.9c-2.1-3.3-4.7-6.1-7.7-8.5c-4.1-3.3-9-5.6-14.3-6.7c-2.2-0.5-4.4-0.7-6.7-0.7c-1.6,0-3.1,0.1-4.6,0.3
		c-5.4,0.7-10.3,2.7-14.6,5.7c-3.2,2.2-6,4.9-8.3,8c-3.2,4.2-5.4,9.3-6.5,14.7c-0.4,2.3-0.7,4.6-0.7,7c0,1.6,0.1,3.2,0.3,4.7
		C808.7,590.4,810.8,595.7,814,600.3L814,600.3z M842.3,539.9c21.4,0,38.7,17.9,38.7,40s-17.4,40-38.7,40s-38.7-17.9-38.7-40
		S820.9,539.9,842.3,539.9z"/>
	<path class="st5" d="M839.7,584.2c0.5,0.2,1,0.4,1.5,0.5c0.3,0,0.5,0.1,0.8,0.1c0.4,0,0.8-0.1,1.3-0.2c0.6-0.1,1.1-0.4,1.6-0.7
		c0.5-0.4,1-0.8,1.4-1.4c0.3-0.5,0.6-1,0.7-1.5c0.1-0.5,0.2-1,0.2-1.6c0-0.1,0-0.3,0-0.4c0-0.6-0.2-1.2-0.4-1.8
		c-0.3-0.8-0.9-1.5-1.6-2.1c-0.3-0.3-0.7-0.5-1.1-0.7c-0.6-0.3-1.3-0.5-2.1-0.5c-0.4,0-0.7,0-1.1,0.1c-0.4,0.1-0.7,0.2-1,0.4
		c-1.1,0.5-1.9,1.3-2.5,2.3c-0.2,0.3-0.3,0.7-0.4,1c-0.1,0.5-0.2,1-0.2,1.5c0,0.7,0.1,1.3,0.4,1.9c0.1,0.3,0.3,0.7,0.5,1
		C838.1,583.1,838.9,583.8,839.7,584.2z M835.2,576.7c0-0.2,0.1-0.3,0.2-0.4c0.8-1.8,2.3-3.2,4-3.9c0.1-0.1,0.3-0.1,0.4-0.2
		c0.7-0.2,1.4-0.3,2.1-0.3c1.2,0,2.4,0.3,3.4,0.9c0.1,0,0.2,0.1,0.2,0.2c1.6,0.9,2.8,2.5,3.4,4.4c0,0,0,0,0,0.1
		c0.2,0.6,0.3,1.3,0.3,2c0,1.2-0.2,2.2-0.7,3.2c0,0,0,0,0,0c-0.8,1.6-2.1,2.9-3.7,3.6c-0.8,0.4-1.8,0.6-2.8,0.6
		c-0.8,0-1.7-0.1-2.4-0.4c-0.1,0-0.1,0-0.1-0.1c-1.7-0.6-3.1-1.9-3.9-3.5c-0.1-0.2-0.2-0.3-0.2-0.5c-0.4-0.9-0.6-1.9-0.6-2.9
		C834.7,578.4,834.9,577.5,835.2,576.7L835.2,576.7z"/>
	<path class="st6" d="M774.2,466.5c0,0,135.3,1.1,154.4,21.5c0,0,8.8,7.8,10.7,20.4s4.7,28.8,3.4,44.2c-1.3,15.3-6.9,42.6-6.9,42.6
		h-40.1c0,0,12.5-53-29.7-70.2c-15.2-6.2-33.1-6.6-48.1,0c-18.2,8-37.5,27.4-28.3,70.2L393,594.1l3.9-183.8l222.8-3.4
		c18.9,0.1,37.6,3.6,55.2,10.5c1.9,0.8,3.8,1.6,5.6,2.4c17,7.7,78.2,46.8,78.2,46.8L774.2,466.5L774.2,466.5z"/>
	<path class="st2" d="M921,584c5.5,0.6,11.6,1.6,17,0c1.1-4.6,4-23.5,4-25c-3.4,1-8.9,2.2-12.3,3.8C924.7,565.2,923,576.2,921,584
		L921,584z"/>
	<path class="st3" d="M902.8,481.2c7.9,20,23.3,32.7,37.7,34.8c-0.5-3.5-1-7-1.5-9.5c-0.1-0.7-0.9-3.3-1-4c-1-3.5-6.1-13-12.9-17.4
		c-4.1-2.6-11.1-5.6-24.1-8.1L902.8,481.2z"/>
	<path class="st7" d="M775,559.3c-1.4,0.5-160.8,2.7-198.1,2.7S452,554.2,452,554.2s127.2-4.9,166.7-7.8
		C658.2,543.4,775,559.3,775,559.3z"/>
	<path class="st1" d="M146.5,591l30.5-10l57,2.5l33.5,10c-0.3-12.3-0.1-29.8-9-43.1C247,526.5,225.8,518,200.3,518
		s-54.7,22.1-57.8,55.8c-0.2,2.1-0.4,11.2-0.5,13.2L146.5,591z"/>
	<path class="st2" d="M158,581.8c0,28.1,22.1,50.8,49.3,50.8c16.5,0,31.1-8.3,40-21.1c5.8-8.4,9.3-18.6,9.3-29.7
		c0-28.1-22.1-50.8-49.3-50.8c-18.6,0-34.7,10.6-43.1,26.3C160.2,564.5,158,572.9,158,581.8z"/>
	<path class="st3" d="M229.8,551.3c-3.5,5.4-7.4,10.3-11.5,15c-4,4.8-8.3,9.3-12.7,13.7c-4.4,4.3-9,8.5-13.7,12.5
		c-4.7,4-9.6,7.8-15,11.2l7.3,8.1c3.6-5.3,7.7-10,11.9-14.6c4.2-4.6,8.6-9,13.1-13.3c4.5-4.3,9.1-8.4,14-12.3
		c4.8-3.9,9.8-7.7,15.2-10.9L229.8,551.3L229.8,551.3z"/>
	<path class="st3" d="M202.2,543.9c1.2,6.3,1.8,12.7,2.2,19c0.4,6.3,0.5,12.6,0.4,18.9c-0.2,6.3-0.5,12.6-1.1,18.9
		c-0.6,6.3-1.5,12.6-2.9,18.8l10.7,0.4c-1-6.3-1.5-12.7-1.6-19c-0.2-6.3-0.1-12.6,0.1-18.9c0.3-6.3,0.7-12.6,1.5-18.9
		c0.7-6.3,1.7-12.6,3.3-18.8L202.2,543.9z"/>
	<path class="st3" d="M177.7,558.6c5.2,3.6,10,7.6,14.6,11.8c4.6,4.2,9,8.6,13.3,13.1c4.2,4.6,8.3,9.3,12.1,14.2
		c3.9,4.9,7.6,9.9,10.8,15.4l7.8-7.5c-5.1-3.7-9.7-7.9-14.2-12.2c-4.5-4.3-8.7-8.8-12.9-13.5c-4.1-4.6-8.1-9.4-11.9-14.4
		c-3.8-5-7.4-10.1-10.6-15.7L177.7,558.6L177.7,558.6z"/>
	<path class="st3" d="M170.5,587c6.1-1.3,12.3-1.9,18.4-2.3c6.1-0.4,12.2-0.5,18.3-0.4c6.1,0.2,12.2,0.5,18.3,1.2
		c6.1,0.6,12.2,1.5,18.2,3l0.4-11c-6.2,1.1-12.3,1.5-18.4,1.7c-6.1,0.2-12.2,0.1-18.3-0.2c-6.1-0.3-12.2-0.7-18.3-1.5
		c-6.1-0.7-12.2-1.7-18.2-3.4L170.5,587z"/>
	<path class="st4" d="M179,602.3c1.9,2.8,4.1,5.2,6.7,7.3c4.4,3.7,9.8,6.3,15.7,7.3c1.9,0.3,3.9,0.5,6,0.5c1.3,0,2.5-0.1,3.8-0.2
		c5.9-0.7,11.4-2.9,16.1-6.3c2.7-1.9,5.1-4.3,7.1-6.9c3.6-4.6,6.1-10.1,7.1-16.2c0.4-2,0.5-4.1,0.5-6.1c0-1.3-0.1-2.6-0.2-3.9
		c-0.6-5.8-2.6-11.3-5.6-15.9c-2.1-3.3-4.7-6.1-7.7-8.5c-4.1-3.3-9-5.6-14.3-6.7c-2.2-0.5-4.4-0.7-6.7-0.7c-1.6,0-3.1,0.1-4.6,0.3
		c-5.4,0.7-10.3,2.7-14.6,5.7c-3.2,2.2-6,4.9-8.3,8c-3.2,4.2-5.4,9.3-6.5,14.7c-0.4,2.3-0.7,4.6-0.7,7c0,1.6,0.1,3.2,0.3,4.7
		C173.7,592.4,175.8,597.7,179,602.3L179,602.3z M207.3,541.9c21.4,0,38.7,17.9,38.7,40s-17.4,40-38.7,40s-38.7-17.9-38.7-40
		S185.9,541.9,207.3,541.9z"/>
	<path class="st5" d="M204.7,586.2c0.5,0.2,1,0.4,1.5,0.5c0.3,0,0.5,0.1,0.8,0.1c0.4,0,0.8-0.1,1.3-0.2c0.6-0.1,1.1-0.4,1.6-0.7
		c0.5-0.4,1-0.8,1.4-1.4c0.3-0.5,0.6-1,0.7-1.5c0.1-0.5,0.2-1,0.2-1.6c0-0.1,0-0.3,0-0.4c0-0.6-0.2-1.2-0.4-1.8
		c-0.3-0.8-0.9-1.5-1.6-2.1c-0.3-0.3-0.7-0.5-1.1-0.7c-0.6-0.3-1.3-0.5-2.1-0.5c-0.4,0-0.7,0-1.1,0.1c-0.4,0.1-0.7,0.2-1,0.4
		c-1.1,0.5-1.9,1.3-2.5,2.3c-0.2,0.3-0.3,0.7-0.4,1c-0.1,0.5-0.2,1-0.2,1.5c0,0.7,0.1,1.3,0.4,1.9c0.1,0.3,0.3,0.7,0.5,1
		C203.1,585.1,203.9,585.8,204.7,586.2z M200.2,578.7c0-0.2,0.1-0.3,0.2-0.4c0.8-1.8,2.3-3.2,4-3.9c0.1-0.1,0.3-0.1,0.4-0.2
		c0.7-0.2,1.4-0.3,2.1-0.3c1.2,0,2.4,0.3,3.4,0.9c0.1,0,0.2,0.1,0.2,0.2c1.6,0.9,2.8,2.5,3.4,4.4c0,0,0,0,0,0.1
		c0.2,0.6,0.3,1.3,0.3,2c0,1.2-0.2,2.2-0.7,3.2c0,0,0,0,0,0c-0.8,1.6-2.1,2.9-3.7,3.6c-0.8,0.4-1.8,0.6-2.8,0.6
		c-0.8,0-1.7-0.1-2.4-0.4c-0.1,0-0.1,0-0.1-0.1c-1.7-0.6-3.1-1.9-3.9-3.5c-0.1-0.2-0.2-0.3-0.2-0.5c-0.4-0.9-0.6-1.9-0.6-2.9
		C199.7,580.4,199.9,579.5,200.2,578.7L200.2,578.7z"/>
	<path class="st6" d="M88.5,524.1c0,0,9.4-34.3,13.8-40.1s4.9-12,18.7-14.3s47.3-6.2,47.3-6.2s70.2-39.7,83.2-44.7
		c12.9-4.9,34.8-7.8,65.7-8.4c30.9-0.6,129.5,0,129.5,0v183.8H265.6c0,0,4.8-73.7-59.1-73.2c-64,0.5-59.1,70.5-59.1,70.5
		s-53.6-3.2-61.6-19.7c-8-16.5-5.3-45.5-5.3-45.5L88.5,524.1L88.5,524.1z"/>
	<path class="st8" d="M438.1,483.9l0,0.2c0.3,2.8,3.8,3.6,4.9,3.7c5.5,0.3,19.1,0.9,20.4,0.5c0.8-0.2,1.6-0.7,2.1-1.3
		c0.3-0.4,0.6-0.8,0.7-1.2c0.4-1.4-0.5-3.3-1.9-3.7c-1.5-0.5-19.1-1.1-23.2-1.1C440.2,480.9,438,481.3,438.1,483.9z"/>
	<path class="st8" d="M561.1,484.9l0,0.2c0.3,2.8,3.8,3.6,4.9,3.7c5.5,0.3,19.1,0.9,20.4,0.5c0.8-0.2,1.6-0.7,2.1-1.3
		c0.3-0.4,0.6-0.8,0.7-1.2c0.4-1.4-0.5-3.3-1.9-3.7c-1.5-0.5-19.1-1.1-23.2-1.1C563.2,481.9,561,482.3,561.1,484.9z"/>
	<path class="st9" d="M88.5,524.1h12.4l9.7-30.2l-2.6-18.2c0,0-6.5,8.5-8.5,13.8C97.5,494.8,88.5,524.1,88.5,524.1L88.5,524.1z"/>
	<path class="st2" d="M238.3,473.6l37.4-42.5c2.1-2.2,5-3.4,8-3.4h78.2V474L238.3,473.6z"/>
	<path class="st2" d="M560.8,427.7l13.6,46.5h138.5c0,0-44.3-29.8-54.3-35.8s-21.9-11.2-34.9-10.6S560.8,427.7,560.8,427.7
		L560.8,427.7z"/>
	<path class="st2" d="M672,416.4l-15.9,7.7l77.3,50l25.3-7.4C727.7,446.4,687.6,421.4,672,416.4L672,416.4z"/>
	<polygon class="st2" points="387.5,427.7 392.7,474.1 572.6,474.1 572.6,427.7 	"/>
	<polygon class="st2" points="560.8,427.7 512.5,427.7 526,474.1 574.4,474.1 	"/>
	<polygon class="st2" points="394.2,427.7 349.2,427.7 355.9,474.1 407.8,474.1 	"/>
	<polygon class="st1" points="399.2,427.7 380.7,474.1 399.2,474.1 417.7,427.7 	"/>
	<polygon class="st1" points="509.2,427.7 490.7,474.1 509.2,474.1 527.7,427.7 	"/>
	<polygon class="st1" points="299.3,427.7 280.8,473.5 299.3,473.5 317.9,427.7 	"/>
	<polygon class="st1" points="601.3,428.2 583,474.1 601.3,474.1 619.6,428.2 	"/>
	<path class="st7" d="M575,559.3c-1.3,0.5-155.3,2.7-191.3,2.7S263,554.2,263,554.2s122.9-4.9,161-7.8
		C462.2,543.4,575,559.3,575,559.3z"/>
	<path class="st7" d="M690,484.4c2.2-6.3,5.6-12.2,10-17.1c1-1.1,2.4-1.6,3.8-1.1c4.1,1.2,8.2,3.1,10.9,6.5
		c2.8,3.4,3.9,8.7,1.6,12.5C708,488.3,698.6,487,690,484.4L690,484.4z"/>
	<path class="st6" d="M707.6,468.8c-1.3-0.6-2.8-1-4.3-0.8c-2.1,0.3-3.6,1.8-4.8,3.3c-1.6,2-2.9,4.1-4,6.3c-0.2,0.4-0.4,0.9-0.2,1.3
		c0.2,0.4,0.9,0.6,1.4,0.7c6.3,1.2,13,2.4,19.1,0.6c1.8-0.6,1.6-1.3,1.1-2.7c-0.4-1.2-1.1-2.4-1.9-3.5
		C712.5,471.8,710.2,470,707.6,468.8L707.6,468.8z"/>
</g>
</svg>
