<svg width="1024" height="850" viewBox="0 0 1024 850" fill="none" xmlns="http://www.w3.org/2000/svg">
<circle cx="513" cy="425" r="345" fill="#F1F5F8"/>
<path d="M388.277 627.413C384.824 652.543 375.594 675.129 357.587 693.317C326.443 724.77 288.83 735.799 246.275 723.916C203.448 711.978 177.101 682.869 166.489 639.606C165.817 636.88 166.38 633.7 164 631.484V600.212C166.762 596.687 166.398 592.217 167.452 588.202C179.79 541.595 217.657 508.979 266.971 504.273C312.434 499.912 356.842 524.606 377.483 567.597C374.612 569.523 372.323 567.451 370.015 566.379C358.677 561.11 356.915 561.637 349.955 572.43C348.556 574.592 347.775 577.554 344.413 577.717C341.742 576.9 340.834 574.374 339.398 572.412C320.156 545.828 288.939 534.09 257.45 541.667C227.451 548.881 204.284 574.392 200.232 606.336C193.672 658.23 237.426 692.1 274.403 692.754C312.706 693.426 347.339 663.318 352.099 627.577C352.99 620.854 351.245 613.967 353.662 607.408C355.334 605.772 357.06 606.717 358.55 607.571C367.708 612.714 376.793 617.928 385.878 623.198C387.368 624.07 388.985 625.16 388.258 627.413H388.277Z" fill="#394249"/>
<path d="M639.773 647.508L637.175 652.014C631.542 651.306 625.909 651.251 620.24 651.251C573.851 651.288 527.462 651.033 481.073 651.397C464.556 651.524 453.581 644.092 446.44 629.919C444.314 625.686 441.589 621.725 440.317 617.091C440.099 612.367 444.187 611.131 447.004 608.878C455.507 603.5 463.411 597.213 471.97 591.925C474.332 590.472 476.476 587.982 479.819 589.399C482.945 594.578 484.998 600.302 489.559 604.717C502.042 616.819 520.103 617.818 532.368 606.661C546.395 593.906 547.885 576.026 536.147 561.944C534.276 559.709 531.659 558.092 530.496 555.257C523.592 543.719 514.579 533.707 506.948 522.696C505.349 520.389 501.86 518.317 504.476 514.574C512.853 508.014 521.702 502.091 530.169 495.659C534.694 492.224 539.636 490.825 545.342 490.88C562.313 491.062 579.284 490.989 596.273 490.934C614.28 490.862 622.638 482.394 623.002 464.206C623.111 459.027 622.257 453.794 623.874 448.688C624.237 447.98 624.764 447.435 625.455 447.035C628.471 445.727 631.669 446.054 634.812 446.054C652.892 445.999 670.99 446.181 689.069 445.981C703.078 445.836 710.328 439.785 713.326 426.266C713.926 420.651 711.437 415.764 709.692 410.694C708.82 408.168 707.494 405.734 707.875 402.899C705.677 392.778 700.789 383.602 697.718 373.772C695.011 365.105 698.717 359.49 707.857 358.236C710.346 359.545 712.055 361.525 713.29 364.069C721.667 381.149 731.315 397.557 739.892 414.528C748.377 431.317 760.769 443.982 778.722 450.578C782.192 451.85 785.081 454.012 787.952 456.211C795.82 471.601 790.387 485.156 773.997 490.516C761.114 494.732 748.123 498.639 735.167 502.672C734.113 504.526 732.278 505.053 730.388 505.489C728.281 505.998 726.209 506.67 724.229 507.578C722.757 508.251 721.285 508.868 719.722 509.305C712.345 511.358 704.986 513.447 698.318 517.39C668.391 532.908 653.855 558.437 649.785 591.071C647.768 607.206 645.042 623.269 642.371 639.313C641.899 642.112 642.135 645.273 639.755 647.526L639.773 647.508Z" fill="#56C3C5"/>
<path d="M679.738 522.556C679.076 522.82 601.569 523.885 583.461 523.885C565.353 523.885 522.738 519.988 522.738 519.988C522.738 519.988 584.566 517.547 603.776 516.068C622.987 514.589 679.738 522.556 679.738 522.556Z" fill="#3DB6B8"/>
<path d="M613.738 631.921C613.186 632.135 548.515 632.999 533.405 632.999C518.296 632.999 482.738 629.838 482.738 629.838C482.738 629.838 534.327 627.858 550.356 626.658C566.385 625.459 613.738 631.921 613.738 631.921Z" fill="#3DB6B8"/>
<path d="M720.685 507.777C721.811 507.305 722.938 506.851 724.046 506.378C725.845 505.324 728.207 506.069 729.843 504.543C732.568 503.998 735.384 504.725 738.074 503.907C773.161 502.199 804.196 512.265 828.344 538.194C861.051 573.281 869.591 614.637 851.22 658.846C832.887 702.981 797.927 726.585 749.794 728.038C700.77 729.51 657.724 698.857 641.553 652.613C640.953 650.905 640.354 649.197 639.754 647.507C642.389 629.9 645.314 612.311 647.567 594.65C649.493 579.514 652.328 564.778 660.087 551.386C669.244 535.578 681.528 523.204 698.371 515.681C699.298 515.681 700.279 515.881 700.679 516.717C705.313 526.493 709.928 536.305 711.182 547.261C708.928 550.877 705.058 552.567 701.806 554.929C667.064 580.023 662.503 629.028 684.871 659.681C705.367 687.755 731.987 696.803 762.004 691.189C794.583 685.083 815.498 664.496 822.584 631.808C833.741 580.222 790.568 533.597 738.165 539.921C736.148 540.157 734.167 540.756 732.114 540.102C728.843 538.521 728.534 535.124 727.462 532.253C725.191 526.147 722.665 520.115 720.848 513.864C720.285 511.938 718.286 509.885 720.666 507.814L720.685 507.777Z" fill="#394249"/>
<path d="M344.924 577.336C339.545 590.116 342.743 600.176 354.518 607.517C355.644 627.523 351.592 646.02 339.564 662.573C321.757 687.085 289.395 699.568 259.778 692.827C228.252 685.632 204.521 661.229 199.216 630.557C190.167 578.317 231.414 532.91 284.053 537.961C308.801 540.341 328.298 552.697 342.216 573.484C343.089 574.792 344.015 576.064 344.924 577.354V577.336Z" fill="#394249"/>
<path d="M441.334 615.055C429.578 621.778 425.762 633.207 431.25 645.29C432.267 647.525 433.249 649.76 434.248 652.013C421.929 645.218 409.609 638.458 397.326 631.608C394.4 629.973 391.729 627.901 388.277 627.429C377.811 619.47 365.909 613.965 354.535 607.532C346.976 606.733 341.089 602.99 338.508 595.94C335.783 588.49 339.29 582.348 344.941 577.351C346.885 574.117 348.829 570.883 350.81 567.667C354.934 560.944 360.113 559.563 367.308 562.942C370.688 564.523 373.468 567.485 377.502 567.63C387.496 575.389 399.034 580.531 410.009 586.618C412.88 586.491 415.242 587.927 417.513 589.326C426.144 594.631 435.229 599.101 443.878 604.352C445.913 605.588 448.548 606.442 448.421 609.604C446.059 611.421 443.715 613.238 441.353 615.073L441.334 615.055Z" fill="#CAD8E1"/>
<path d="M276.128 672.258C245.457 672.221 219.746 646.474 219.982 616.002C220.2 585.331 246.057 559.583 276.383 559.838C307.2 560.092 332.529 585.567 332.457 616.239C332.402 647.019 306.982 672.294 276.128 672.258Z" fill="#EDEEEF"/>
<path d="M309.727 615.8C309.836 634.788 295.463 649.415 276.548 649.543C257.633 649.67 242.824 635.152 242.733 616.382C242.642 597.612 257.342 582.621 275.966 582.512C294.773 582.421 309.618 597.03 309.727 615.782V615.8Z" fill="#CAD8E1"/>
<path d="M368.012 511.734C353.68 526.604 339.142 541.285 323.715 555.299C316.759 558.155 313.243 564.144 308.16 568.685C299.197 576.68 290.953 585.292 282.832 593.947C277.389 599.744 276.772 605.373 280.323 609.878C284.575 615.253 290.798 616.959 298.907 613.407C315.795 606.007 332.157 597.652 348.474 589.214C349.904 588.48 350.856 587.29 351.788 586.105C370.64 576.138 389.745 566.613 409.273 557.825C425.208 549.359 441.26 541.164 457.96 534.043C459.95 531.09 458.236 528.697 456.981 526.292C446.608 506.481 431.28 490.228 412.36 476.553C410.461 475.178 408.599 473.452 405.498 474.606C393.632 487.454 380.912 499.683 367.992 511.74L368.012 511.734Z" fill="#3DB6B8"/>
<path d="M503.877 515.957C512.762 527.786 521.647 539.614 530.551 551.443C531.205 552.297 532.313 553.06 530.896 554.169C529.061 555.423 527.407 554.369 525.772 553.678C510.709 547.228 497.953 550.971 486.978 562.473C486.179 563.309 485.289 563.981 484.217 564.399C482.327 564.926 480.655 564.399 479.183 563.236C469.371 555.459 459.069 548.318 449.42 540.341C448.185 539.306 447.349 538.015 446.767 536.544C395.018 496.95 343.269 457.357 291.52 417.764C282.18 410.605 272.823 403.482 263.519 396.269C260.467 393.888 258.722 390.908 259.94 386.82C261.103 382.877 263.883 380.388 267.789 380.388C284.288 380.442 300.841 379.188 317.304 381.042C329.114 382.368 338.563 388.292 346.013 397.413C350.737 403.191 355.316 409.079 359.968 414.911C360.149 415.329 360.404 415.784 360.313 416.201C357.769 427.612 359.314 431.483 369.089 438.079C377.03 443.421 385.969 445.874 395.4 445.964C414.406 446.146 433.412 446.255 452.418 445.874C454.163 445.783 455.362 446.619 456.234 448.109C462.885 459.338 471.624 469.077 479.092 479.707C486.342 489.446 493.356 499.349 500.661 509.034C502.169 511.032 504.767 512.777 503.877 515.993V515.957Z" fill="#3DB6B8"/>
<path d="M477.638 480.649C471.533 472.382 465.609 463.969 459.213 455.919C456.924 453.03 455.452 449.905 454.053 446.616C449.674 439.511 451.763 430.063 458.777 425.211C466.79 418.943 474.476 412.22 482.889 406.514C497.662 396.502 514.179 391.651 532.113 391.778C547.721 391.869 563.329 391.669 578.938 391.832C600.451 392.05 616.114 403.898 622.692 424.666C627.053 432.098 628.615 439.802 624.872 447.997L624.927 447.942C622.074 450.432 618.567 449.905 615.224 449.905C590.403 449.941 565.564 450.232 540.744 449.796C528.842 449.596 518.612 453.139 509.236 460.026C501.06 466.04 492.447 471.437 484.234 477.433C482.235 478.887 480.273 480.467 477.638 480.649Z" fill="#56C3C5"/>
<path d="M441.333 615.056C446.784 625.304 450.073 636.915 460.557 643.929C465.827 647.454 471.278 649.289 477.674 649.271C528.424 649.162 579.155 649.18 629.905 649.271C632.467 649.271 636.101 647.545 637.191 651.978C631.522 664.861 621.329 671.966 607.592 672.075C560.058 672.474 512.506 672.365 464.973 672.129C450.709 672.057 440.897 664.171 434.265 651.978C424.707 644.165 426.143 628.411 431.158 621.525C433.629 618.109 436.155 614.366 441.351 615.038L441.333 615.056Z" fill="#3DB6B8"/>
<path d="M448.403 609.586C438.046 601.7 425.926 596.776 415.024 589.817C413.352 588.745 411.662 587.673 409.973 586.601C422.238 569.902 434.503 553.222 446.768 536.523C459.014 545.645 471.279 554.766 483.526 563.888C483.799 564.251 484.199 564.724 484.09 565.051C481.309 572.973 480.038 581.204 479.256 589.526C468.972 596.213 458.687 602.9 448.403 609.586Z" fill="#CAD8E1"/>
<path d="M468.738 418.891C462.967 427.071 461.18 436.179 463.139 446.19C460.9 448.461 458.1 447.766 455.473 447.766C434.563 447.813 413.631 448.044 392.721 447.697C377.754 447.442 364.381 442.366 353.657 430.524C345.021 420.999 344.612 416.828 351.633 405.727C359.256 400.953 365.781 402.205 371.638 409.389C377.302 416.318 384.667 418.821 393.195 418.775C418.369 418.636 443.543 418.821 468.717 418.867L468.738 418.891Z" fill="#394249"/>
<path d="M624.854 447.999C624.927 440.15 624.364 432.355 622.674 424.669C636.501 424.705 650.347 426.14 664.12 423.905C667.536 421.652 671.316 423.251 674.914 422.906C685.253 422.561 695.573 422.67 705.912 422.724C709.019 422.724 712.29 422.434 714.707 425.105C715.27 438.151 705.44 447.781 691.158 447.872C669.063 447.999 646.949 447.981 624.854 448.018V447.999Z" fill="#3DB6B8"/>
<path d="M787.97 456.192C763.858 448.506 746.469 433.57 735.621 410.294C727.317 392.487 717.196 375.552 707.875 358.217C720.267 356.382 728.335 362.287 734.676 372.372C752.283 400.409 770.199 428.264 787.97 456.192Z" fill="#EDEEEF"/>
<path d="M714.726 425.103C701.098 424.994 687.471 424.885 673.843 424.794C673.389 423.504 674.279 422.722 674.933 421.832C679.839 415.163 679.857 412.819 675.006 406.205C674.352 405.297 673.461 404.534 673.843 403.244C685.199 403.135 696.538 403.007 707.894 402.898C711.292 409.967 715.326 416.835 714.726 425.121V425.103Z" fill="#5D5360"/>
<path d="M673.844 403.227C682.747 410.186 682.747 417.654 673.844 424.795C670.537 425.213 667.284 425.032 664.122 423.905C658.817 420.689 656.673 416.037 658.889 410.168C661.506 403.191 667.266 402.119 673.844 403.227Z" fill="#4B404E"/>
<path d="M738.092 503.91C735.403 505.309 732.496 505.037 729.625 505.055C729.207 504.819 729.062 504.564 729.207 504.328C729.353 504.092 729.48 503.965 729.625 503.965C731.478 503.528 733.332 503.092 735.185 502.656C736.148 503.074 737.111 503.492 738.092 503.91Z" fill="#F0E1E3"/>
<path d="M477.639 480.651C491.83 469.186 506.385 458.192 522.92 450.27C526.972 448.326 531.551 447.854 536.13 447.854C565.729 447.926 595.31 447.908 624.91 447.926C624.819 454.468 624.746 461.027 624.601 467.568C624.256 483.413 614.862 492.68 598.999 492.734C580.701 492.789 562.386 492.861 544.088 492.662C539.546 492.607 535.857 493.915 532.168 496.459C522.72 502.946 514.343 510.959 503.877 515.956C495.119 504.182 486.379 492.425 477.621 480.651H477.639Z" fill="#3DB6B8"/>
<path d="M479.256 589.526C476.022 580.205 480.056 572.083 483.545 563.888C498.135 547.244 511.036 544.591 530.915 554.167C536.984 559.636 542.435 565.56 544.597 573.773C549.376 591.816 538.401 610.386 520.231 615.037C501.86 619.744 483.781 608.496 479.256 589.544V589.526Z" fill="#CAD8E1"/>
<path d="M710.455 547.155C706.748 536.544 703.95 525.587 698.408 515.666C705.222 511.323 712.745 508.961 720.685 507.762C724.192 518.337 727.662 528.93 732.26 539.124C737.365 545.447 737.965 553.696 741.545 560.674C743.652 567.96 746.814 574.865 749.158 582.078C752.701 591.345 756.099 600.667 759.37 610.043C762.204 618.165 759.261 625.106 752.211 628.031C745.815 630.684 738.983 627.341 735.439 619.491C731.278 610.242 728.553 600.412 724.501 591.091C722.484 583.805 719.613 576.809 717.069 569.723C715.125 562.127 710.255 555.386 710.437 547.173L710.455 547.155Z" fill="#CAD8E1"/>
<path d="M729.625 503.963C729.625 504.326 729.625 504.69 729.625 505.053C728.098 506.834 726.045 506.452 724.064 506.38C725.5 504.617 727.789 504.799 729.625 503.963Z" fill="#C39DA3"/>
<path d="M710.455 547.154C713.162 554.331 715.888 561.509 718.595 568.686C714.452 574.646 708.02 578.334 703.732 584.367C688.741 605.445 690.358 633.899 708.238 653.142C725.736 671.984 754.845 675.346 776.649 662.082C793.766 651.688 806.83 627.195 800.471 602.556C795.038 581.46 777.031 565.597 754.136 562.236C749.503 561.545 744.633 563.235 740.254 560.746C736.529 553.932 734.294 546.555 732.259 539.123C778.666 531.31 819.113 559.401 825.6 605.935C832.359 654.468 794.111 692.172 752.519 694.425C710.891 696.66 675.858 665.952 670.371 628.721C665.61 596.468 679.074 564.543 710.455 547.154Z" fill="#394249"/>
<path d="M512.199 571.649C518.613 571.703 522.919 575.828 522.937 581.97C522.955 588.929 518.286 593.671 511.617 593.435C505.53 593.235 501.115 588.62 501.133 582.497C501.151 576.101 505.73 571.594 512.199 571.649Z" fill="#AEC6D5"/>
<path d="M740.255 560.745C770.309 556.565 798.818 577.407 803.034 606.625C807.758 639.35 787.444 666.696 754.519 671.874C726.155 676.344 697.719 654.976 692.613 625.358C688.688 602.609 699.336 579.351 718.578 568.685C720.904 576.08 724.811 582.967 725.628 590.853C725.973 594.015 723.466 595.65 721.867 597.739C708.348 615.51 719.378 643.401 741.436 647.108C759.025 650.07 774.943 639.967 778.649 623.487C782.52 606.279 772.907 590.362 755.573 585.238C752.775 584.421 749.722 584.421 747.251 582.567C745.616 575.063 741.327 568.431 740.255 560.745Z" fill="#EDEEEF"/>
<path d="M747.251 582.568C765.131 582.859 779.667 595.524 781.23 612.15C782.902 630.029 771.2 646.183 754.465 649.108C736.676 652.215 720.25 642.421 715.599 625.305C711.983 611.986 715.326 600.303 725.629 590.854C731.116 599.521 732.788 609.733 736.931 618.964C739.238 624.088 742.854 627.849 748.832 627.249C754.338 626.704 757.481 622.979 758.953 617.655C759.643 615.166 758.608 613.149 757.881 611.114C754.447 601.556 750.813 592.071 747.233 582.568H747.251Z" fill="#CAD8E1"/>
<path d="M492.105 240.441L496.359 210.86L527.673 210.623L531.516 242.822L513.592 258.479L492.105 240.441Z" fill="#F5E8E8"/>
<path d="M456.401 605.077H496.007C496.007 605.077 497.696 580.456 494.728 555.923L508.845 466.975C508.845 466.975 510.19 505.291 520.139 547.498C520.139 547.498 518.36 584.658 520.139 605.077H560.467C560.467 605.077 560.078 567.328 557.499 553.945C557.499 553.945 562.601 500.178 562.112 488.784C562.112 488.784 563.968 455.582 560.689 427.592L562.634 339.545L575.773 446.634H578.063V453.514L596.015 453.136L597.538 445.689L598.505 445.655L596.537 373.437C596.537 373.437 598.505 348.515 588.689 296.505L583.976 266.87C583.976 266.87 583.899 256.377 565.302 248.407L528.464 239.192L527.442 234.412C527.442 234.412 521.728 240.081 512.691 243.627V245.75L494.272 237.069L450.521 249.285C450.521 249.285 434.937 253.887 431.924 273.373C431.924 273.373 420.408 349.182 421.12 378.583L420.053 445.889L421.709 446.1L421.776 451.236C421.776 451.236 431.58 457.927 440.039 451.369L440.106 446.233L442.873 445.822L453.889 338.355L455.645 429.949C455.645 429.949 451.977 497.255 459.614 549.965L456.368 605.066L456.401 605.077Z" fill="#263238"/>
<path d="M456.68 599.176C456.68 599.176 455.224 615.461 458.625 632.801C458.625 632.801 463.449 654.522 462.138 672.518C462.138 672.518 460.826 681.077 457.636 686.668C457.636 686.668 453.356 693.471 457.413 701.586C457.413 701.586 461.248 704.109 466.306 703.998H484.847C484.847 703.998 490.005 704.109 493.517 700.263C493.517 700.263 496.696 695.439 493.517 686.112C493.517 686.112 491.761 683.811 490.338 671.406C490.338 671.406 489.682 650.775 493.084 635.858C493.084 635.858 498.019 621.719 495.496 599.165C495.496 599.165 489.127 594.608 486.714 587.471C486.714 587.471 476.732 584.504 466.639 587.471C466.639 587.471 464.383 594.397 456.68 599.165V599.176Z" fill="#394249"/>
<path d="M464.546 679.116C464.546 679.116 462.689 676.793 464.546 673.67C464.546 673.67 476.373 663.932 488.9 674.948V680.862C488.9 680.862 480.664 670.424 464.546 679.128V679.116Z" fill="#F1F5F8"/>
<path d="M461.434 608.823C461.434 608.823 477.229 600.397 493.025 608.823V616.982C493.025 616.982 480.386 609.09 461.434 616.982V608.823Z" fill="#F1F5F8"/>
<path d="M461.434 624.383C461.434 624.383 477.229 615.958 493.025 624.383V632.542C493.025 632.542 480.386 624.65 461.434 632.542V624.383Z" fill="#F1F5F8"/>
<path d="M521.15 599.176C521.15 599.176 519.694 615.461 523.096 632.801C523.096 632.801 527.92 654.522 526.608 672.518C526.608 672.518 525.297 681.077 522.106 686.668C522.106 686.668 517.827 693.471 521.884 701.586C521.884 701.586 525.719 704.109 530.777 703.998H549.318C549.318 703.998 554.475 704.109 557.988 700.263C557.988 700.263 561.167 695.439 557.988 686.112C557.988 686.112 556.232 683.811 554.809 671.406C554.809 671.406 554.153 650.775 557.554 635.858C557.554 635.858 562.49 621.719 559.967 599.165C559.967 599.165 553.597 594.608 551.185 587.471C551.185 587.471 541.203 584.504 531.11 587.471C531.11 587.471 528.854 594.397 521.15 599.165V599.176Z" fill="#394249"/>
<path d="M529.016 679.116C529.016 679.116 527.16 676.793 529.016 673.67C529.016 673.67 540.844 663.932 553.371 674.948V680.862C553.371 680.862 545.134 670.424 529.016 679.128V679.116Z" fill="#F1F5F8"/>
<path d="M525.908 608.823C525.908 608.823 541.704 600.397 557.499 608.823V616.982C557.499 616.982 544.861 609.09 525.908 616.982V608.823Z" fill="#F1F5F8"/>
<path d="M525.908 624.383C525.908 624.383 541.704 615.958 557.499 624.383V632.542C557.499 632.542 544.861 624.65 525.908 632.542V624.383Z" fill="#F1F5F8"/>
<path d="M421.319 444.144C421.319 444.144 417.373 452.37 417.039 460.706V493.731C417.039 493.731 417.439 496.443 418.84 496.443C418.84 496.443 421.196 497.344 422.152 494.654L422.653 483.605L423.042 498.411C423.042 498.411 423.319 499.845 425.242 500.289C425.242 500.289 427.132 500.89 429.077 498.822V478.97L429.855 499.867C429.855 499.867 430.044 501.357 431.945 502.257C431.945 502.257 436.058 502.857 436.492 500.612V482.326L437.603 499.389C437.603 499.389 438.026 500.578 439.359 501.023C439.359 501.023 441.972 502.157 443.283 499.889V473.234C443.283 473.234 443.183 472.8 444.428 472.967C444.428 472.967 446.24 479.67 448.886 482.004C448.886 482.004 450.697 483.949 453.076 482.215C453.076 482.215 454.544 481.571 454.11 478.191L448.363 462.285C448.363 462.285 447.863 454.237 442.294 445.911L421.319 444.133V444.144Z" fill="#61BFC0"/>
<path d="M438.37 469.709H422.675C420.815 469.709 419.307 471.214 419.307 473.072C419.307 474.929 420.815 476.434 422.675 476.434H438.37C440.23 476.434 441.738 474.929 441.738 473.072C441.738 471.214 440.23 469.709 438.37 469.709Z" fill="#F5E8E8"/>
<path d="M596.647 444.144C596.647 444.144 600.593 452.37 600.926 460.706V493.731C600.926 493.731 600.526 496.443 599.126 496.443C599.126 496.443 596.769 497.344 595.813 494.654L595.313 483.605L594.924 498.411C594.924 498.411 594.646 499.845 592.723 500.289C592.723 500.289 590.833 500.89 588.888 498.822V478.97L588.11 499.867C588.11 499.867 587.921 501.357 586.02 502.257C586.02 502.257 581.907 502.857 581.474 500.612V482.326L580.362 499.389C580.362 499.389 579.94 500.578 578.606 501.023C578.606 501.023 575.994 502.157 574.682 499.889V473.234C574.682 473.234 574.782 472.8 573.537 472.967C573.537 472.967 571.725 479.67 569.08 482.004C569.08 482.004 567.268 483.949 564.889 482.215C564.889 482.215 563.422 481.571 563.855 478.191L569.602 462.285C569.602 462.285 570.103 454.237 575.672 445.911L596.647 444.133V444.144Z" fill="#61BFC0"/>
<path d="M579.597 476.443H595.292C597.152 476.443 598.66 474.938 598.66 473.081C598.66 471.224 597.152 469.718 595.292 469.718H579.597C577.737 469.718 576.229 471.224 576.229 473.081C576.229 474.938 577.737 476.443 579.597 476.443Z" fill="#F5E8E8"/>
<path d="M473.194 198.328L473.005 197.272C473.138 196.616 473.138 195.949 473.005 195.293V194.282C472.86 192.348 472.86 190.413 473.005 188.479V187.268C473.149 186.745 473.138 186.212 473.027 185.689L473.194 184.867C473.405 184.5 473.149 184.044 473.361 183.677V183.077C473.572 182.777 473.327 182.377 473.538 182.077C473.761 179.731 474.194 177.441 474.761 175.174C474.85 174.807 474.961 174.429 475.061 174.062C476.884 172.995 478.841 172.328 480.775 171.617C482.664 170.928 484.587 170.383 486.499 169.805C491.279 168.482 496.126 167.637 501.028 167.115C505.374 166.659 509.731 166.604 514.077 166.781C520.547 167.048 526.95 167.971 533.241 169.794C536.498 170.716 539.721 171.75 542.867 173.128C543.49 173.406 544.123 173.662 544.701 174.051C545.335 176.274 545.846 178.52 546.046 180.854C546.246 181.154 546.013 181.554 546.213 181.843V182.054C546.435 182.421 546.18 182.877 546.391 183.244V183.655C546.613 184.022 546.358 184.478 546.569 184.844V185.467C546.813 186.112 546.513 186.812 546.747 187.457V188.468C546.924 188.935 546.802 189.435 546.836 189.913C546.836 191.08 546.836 192.236 546.836 193.404C546.802 193.759 546.913 194.137 546.758 194.482V195.493C546.513 196.205 546.813 196.972 546.58 197.694L546.558 198.328C546.391 198.728 546.124 199.017 545.813 199.295C541.611 203.074 536.909 205.798 531.929 207.921C527.416 209.844 522.748 211.066 517.968 211.711C513.666 212.289 509.353 212.345 505.029 212.022C499.749 211.633 494.603 210.511 489.578 208.61C483.932 206.465 478.663 203.497 473.95 199.306C473.65 199.039 473.372 198.739 473.205 198.339L473.194 198.328Z" fill="white"/>
<path d="M473.193 198.329C476.317 201.163 479.674 203.564 483.298 205.487C489.556 208.811 496.125 210.79 502.995 211.557C511.465 212.501 519.813 211.812 527.994 209.1C534.686 206.888 540.877 203.542 546.313 198.473C546.379 198.407 546.468 198.373 546.535 198.329C545.957 205.765 544.69 213.024 542.233 219.971C542.033 220.527 541.789 220.905 541.266 221.138C536.364 223.373 531.795 226.318 527.427 229.675C526.46 230.42 525.493 231.165 524.437 231.743C524.003 231.576 523.837 231.12 523.648 230.72C521.958 227.141 520.246 223.573 518.59 219.971C518.201 219.126 517.723 218.771 516.878 218.771C512.198 218.804 507.53 218.804 502.85 218.771C502.005 218.771 501.527 219.115 501.138 219.96C499.493 223.573 497.748 227.119 496.081 230.709C495.892 231.109 495.725 231.565 495.291 231.732C493.88 230.92 492.59 229.886 491.279 228.886C487.255 225.84 483.031 223.217 478.551 221.149C478.018 220.905 477.706 220.549 477.495 219.949C475.428 214.102 474.205 208.022 473.527 201.786C473.405 200.63 473.305 199.474 473.193 198.307V198.329Z" fill="#263238"/>
<path d="M495.281 231.744C497.248 227.586 499.227 223.44 501.172 219.283C501.417 218.749 501.728 218.505 502.272 218.516C507.319 218.538 512.377 218.538 517.423 218.516C517.968 218.516 518.268 218.761 518.524 219.283C520.48 223.44 522.447 227.598 524.415 231.744C521.214 234.011 517.768 235.501 514.033 236.157C507.386 237.335 501.228 235.745 495.459 231.933C495.392 231.888 495.336 231.799 495.27 231.744H495.281Z" fill="#1B252A"/>
<path d="M495.804 146.93C498.527 145.597 501.395 144.885 504.308 144.429C507.998 143.862 511.7 143.851 515.401 144.429C518.325 144.885 521.181 145.597 523.905 146.919C523.882 147.431 523.56 147.753 523.316 148.12C521.037 151.377 519.681 155.078 519.169 159.202C519.08 159.88 519.269 160.703 518.625 161.214C517.546 161.214 516.468 161.114 515.39 161.058C511.677 160.881 507.965 160.87 504.252 161.058C503.207 161.114 502.151 161.181 501.106 161.214C500.673 161.058 500.695 160.625 500.651 160.236C500.384 157.891 499.95 155.601 499.139 153.4C498.45 151.555 497.549 149.865 496.493 148.264C496.215 147.842 495.837 147.497 495.793 146.919L495.804 146.93Z" fill="#1B252B"/>
<path d="M518.777 161.013C519.1 155.655 520.734 150.92 523.902 146.918C529.537 149.341 534.128 153.387 537.852 158.745C541.02 163.325 543.176 168.494 544.666 174.051C544.421 174.24 544.221 174.029 544.021 173.929C540.631 172.384 537.152 171.139 533.595 170.194C533.517 170.172 533.439 170.094 533.372 170.05C532.427 168.849 532.05 167.315 531.516 165.893C530.827 164.07 529.804 163.002 528.048 162.691C525.425 162.224 522.812 161.735 520.167 161.468C519.689 161.424 519.166 161.424 518.777 161.002V161.013Z" fill="#263238"/>
<path d="M495.803 146.929C498.504 150.33 500.105 154.321 500.716 158.834C500.816 159.557 500.861 160.29 500.928 161.013C499.938 161.735 498.782 161.491 497.704 161.68C495.548 162.046 493.38 162.38 491.224 162.813C489.823 163.102 488.923 164.014 488.378 165.448C487.911 166.671 487.422 167.871 486.933 169.083C486.788 169.45 486.611 169.794 486.333 170.05C484.009 170.872 481.631 171.462 479.341 172.406C478.085 172.929 476.84 173.462 475.584 173.985C475.417 174.051 475.239 174.285 475.039 174.051C477.084 166.437 480.363 159.657 485.532 154.188C488.545 151.009 491.946 148.541 495.803 146.918V146.929Z" fill="#263238"/>
<path d="M486.335 170.062C487.047 168.239 487.691 166.383 488.481 164.616C489.014 163.415 489.981 162.793 491.193 162.537C494.416 161.859 497.662 161.403 500.919 161.014C506.877 160.425 512.824 160.425 518.782 161.014C522.239 161.403 525.696 161.87 529.109 162.67C530.053 162.893 530.809 163.615 531.232 164.604C531.999 166.394 532.666 168.228 533.377 170.051C530.743 169.473 528.13 168.806 525.474 168.339C518.493 167.117 511.479 166.761 504.421 167.161C498.396 167.506 492.46 168.495 486.591 170.051C486.502 170.073 486.413 170.051 486.324 170.062H486.335Z" fill="#263238"/>
<path d="M509.852 229.131C510.519 229.131 511.197 229.12 511.864 229.131C512.743 229.153 513.176 229.587 513.187 230.465C513.209 231.376 512.665 231.854 511.998 231.899C510.575 231.988 509.141 231.988 507.718 231.899C507.051 231.854 506.507 231.387 506.518 230.476C506.529 229.598 506.962 229.153 507.829 229.131C508.496 229.109 509.174 229.131 509.841 229.131H509.852Z" fill="#F5E8E8"/>
<path d="M509.874 223.129C510.54 223.129 511.219 223.129 511.885 223.129C512.641 223.14 513.097 223.618 513.175 224.429C513.264 225.341 512.686 225.841 512.03 225.886C510.574 225.986 509.118 225.986 507.661 225.886C506.995 225.841 506.428 225.308 506.55 224.407C506.65 223.607 507.106 223.129 507.873 223.129C508.54 223.129 509.218 223.129 509.885 223.129H509.874Z" fill="#F5E8E8"/>
<path d="M548.346 244.404C548.346 244.404 542.555 259.555 556.294 270.893C556.294 270.893 566.676 279.941 585.162 274.55C585.162 274.55 585.162 258.245 576.557 253.553C576.557 253.553 567.174 247.454 548.346 244.404Z" fill="#61BFC0"/>
<path d="M469.587 243.936C469.587 243.936 475.251 259.321 461.512 270.659C461.512 270.659 450.538 277.477 432.053 272.086C432.053 272.086 434.399 259.888 442.182 254.308C442.182 254.308 447.536 247.689 469.587 243.936Z" fill="#61BFC0"/>
</svg>
