<svg width="1024" height="850" viewBox="0 0 1024 850" fill="none" xmlns="http://www.w3.org/2000/svg">
<circle cx="512" cy="425" r="345" fill="#F1F5F8"/>
<path d="M907.317 475.596V472.096C907.317 475.596 907.317 475.596 907.317 475.596H907.316H907.314H907.311H907.307H907.303H907.298H907.292H907.285H907.277H907.269H907.26H907.25H907.24H907.228H907.216H907.203H907.189H907.175H907.16H907.144H907.127H907.11H907.091H907.072H907.053H907.032H907.011H906.989H906.966H906.943H906.919H906.894H906.868H906.842H906.815H906.787H906.759H906.729H906.699H906.669H906.637H906.605H906.572H906.539H906.505H906.47H906.434H906.398H906.361H906.323H906.285H906.246H906.206H906.166H906.125H906.083H906.04H905.997H905.953H905.909H905.864H905.818H905.771H905.724H905.676H905.628H905.579H905.529H905.479H905.428H905.376H905.324H905.271H905.217H905.163H905.108H905.052H904.996H904.939H904.882H904.824H904.765H904.706H904.646H904.585H904.524H904.463H904.4H904.337H904.274H904.21H904.145H904.079H904.013H903.947H903.88H903.812H903.744H903.675H903.605H903.535H903.465H903.393H903.322H903.249H903.176H903.103H903.029H902.954H902.879H902.803H902.727H902.65H902.573H902.495H902.416H902.337H902.258H902.177H902.097H902.016H901.934H901.852H901.769H901.685H901.602H901.517H901.432H901.347H901.261H901.174H901.087H901H900.912H900.823H900.734H900.645H900.555H900.465H900.374H900.282H900.19H900.098H900.005H899.911H899.817H899.723H899.628H899.533H899.437H899.341H899.244H899.147H899.049H898.951H898.852H898.753H898.654H898.554H898.453H898.353H898.251H898.15H898.047H897.945H897.842H897.738H897.634H897.53H897.425H897.32H897.214H897.108H897.002H896.895H896.787H896.68H896.571H896.463H896.354H896.245H896.135H896.025H895.914H895.803H895.692H895.58H895.468H895.355H895.242H895.129H895.015H894.901H894.787H894.672H894.557H894.441H894.325H894.209H894.092H893.975H893.858H893.74H893.622H893.504H893.385H893.266H893.146H893.027H892.907H892.786H892.665H892.544H892.423H892.301H892.179H892.056H891.933H891.81H891.687H891.563H891.439H891.314H891.19H891.065H890.939H890.814H890.688H890.562H890.435H890.308H890.181H890.054H889.926H889.798H889.67H889.541H889.413H889.283H889.154H889.024H888.894H888.764H888.634H888.503H888.372H888.241H888.109H887.978H887.846H887.713H887.581H887.448H887.315H887.182H887.048H886.915H886.781H886.647H886.512H886.378H886.243H886.108H885.972H885.837H885.701H885.565H885.429H885.292H885.156H885.019H884.882H884.745H884.607H884.47H884.332H884.194H884.055H883.917H883.779H883.64H883.501H883.362H883.222H883.083H882.943H882.803H882.663H882.523H882.383H882.242H882.102H881.961H881.82H881.679H881.537H881.396H881.254H881.112H880.971H880.829H880.686H880.544H880.402H880.259H880.116H879.974H879.831H879.688H879.544H879.401H879.258H879.114H878.97H878.827H878.683H878.539H878.395H878.25H878.106H877.962H877.817H877.673H877.528H877.383H877.238H877.093H876.948H876.803H876.658H876.513H876.367H876.222H876.077H875.931H875.785H875.64H875.494H875.348H875.202H875.057H874.911H874.765H874.619H874.472H874.326H874.18H874.034H873.888H873.741H873.595H873.449H873.302H873.156H873.01H872.863H872.717H872.57H872.424H872.277H872.131H871.984H871.838H871.691H871.545H871.398H871.251H871.105H870.958H870.812H870.665H870.519H870.372H870.226H870.08H869.933H869.787H869.641H869.494H869.348H869.202H869.055H868.909H868.763H868.617H868.471H868.325H868.179H868.033H867.887H867.741H867.596H867.45H867.304H867.159H867.013H866.868H866.723H866.577H866.432H866.287H866.142H865.997H865.852H865.707H865.563H865.418H865.273H865.129H864.985H864.84H864.696H864.552H864.408H864.265H864.121H863.977H863.834H863.69H863.547H863.404H863.261H863.118H862.976H862.833H862.69H862.548H862.406H862.264H862.122H861.98H861.839H861.697H861.556H861.415H861.274H861.133H860.992H860.851H860.711H860.571H860.431H860.291H860.151H860.012H859.872H859.733H859.594H859.455H859.317H859.178H859.04H858.902H858.764H858.626H858.489H858.352H858.214H858.078H857.941H857.804H857.668H857.532H857.396H857.261H857.125H856.99H856.855H856.721H856.586H856.452H856.318H856.184H856.051H855.917H855.784H855.651H855.519H855.386H855.254H855.123H854.991H854.86H854.729H854.598H854.467H854.337H854.207H854.077H853.948H853.819H853.69H853.561H853.433H853.305H853.177H853.05H852.923H852.796H852.669H852.543H852.417H852.291H852.166H852.041H851.916H851.791H851.667H851.543H851.42H851.297C850.935 475.596 850.547 475.603 850.136 475.611C847.289 475.662 843.359 475.732 839.732 473.647C830.1 472.357 820.484 472.454 810.58 472.554C807.669 472.584 804.734 472.613 801.766 472.608L907.317 475.596ZM907.317 475.596H907.341M907.317 475.596H907.341M907.341 475.596L907.365 475.596M907.341 475.596L907.365 475.596M907.365 475.596L907.366 475.596M907.365 475.596L907.366 475.596M907.366 475.596L907.374 475.596L907.409 475.596C907.441 475.595 907.49 475.595 907.555 475.594C907.685 475.594 907.876 475.593 908.115 475.594C908.592 475.596 909.251 475.605 909.976 475.629C911.516 475.681 913.019 475.798 913.826 475.984C918.521 477.134 920.016 478.939 920.374 480.229C920.772 481.665 920.34 484.368 916.942 488.49C884.692 527.549 854.527 557.156 809.504 572.762C792.371 578.689 774.881 582.293 757.043 582.293C696.222 582.306 636.053 582.308 576.163 582.31C426.26 582.315 278.108 582.319 125.872 582.5C120.192 582.5 115.767 581.651 112.35 579.596C109.127 577.657 106.407 574.403 104.5 568.75V560.854C107.714 553.564 113.333 549.139 120.132 544.589C133.097 535.925 144.051 526.754 154.759 517.791C155.655 517.041 156.549 516.292 157.443 515.545C169.05 505.845 180.574 496.428 194.517 487.885L194.518 487.884M907.366 475.596L194.518 487.884M194.518 487.884C208.996 479.004 224.85 476.366 241.404 475.732L194.518 487.884ZM297.143 475.573H295.966C290.381 475.573 284.825 475.525 279.286 475.476C266.606 475.365 254.02 475.254 241.405 475.732L297.143 475.573ZM297.143 475.573L298.081 474.862M297.143 475.573L298.081 474.862M298.081 474.862C301.233 472.472 304.575 472.519 309.262 472.585M298.081 474.862L309.262 472.585M309.262 472.585C310.072 472.596 310.922 472.608 311.818 472.608M309.262 472.585L311.818 472.608M311.818 472.608H312.572M311.818 472.608H312.572M312.572 472.608H313.326M312.572 472.608H313.326M313.326 472.608H314.08M313.326 472.608H314.08M314.08 472.608H314.834M314.08 472.608H314.834M314.834 472.608H315.588M314.834 472.608H315.588M315.588 472.608H316.342M315.588 472.608H316.342M316.342 472.608H317.096M316.342 472.608H317.096M317.096 472.608H317.85M317.096 472.608H317.85M317.85 472.608H318.605M317.85 472.608H318.605M318.605 472.608H319.359M318.605 472.608H319.359M319.359 472.608H320.113M319.359 472.608H320.113M320.113 472.608H320.867M320.113 472.608H320.867M320.867 472.608H321.621M320.867 472.608H321.621M321.621 472.608H322.375M321.621 472.608H322.375M322.375 472.608H323.129M322.375 472.608H323.129M323.129 472.608H323.883M323.129 472.608H323.883M323.883 472.608H324.637M323.883 472.608H324.637M324.637 472.608H325.391M324.637 472.608H325.391M325.391 472.608H326.145M325.391 472.608H326.145M326.145 472.608H326.899M326.145 472.608H326.899M326.899 472.608H327.653M326.899 472.608H327.653M327.653 472.608H328.407M327.653 472.608H328.407M328.407 472.608H329.161M328.407 472.608H329.161M329.161 472.608H329.915M329.161 472.608H329.915M329.915 472.608H330.669M329.915 472.608H330.669M330.669 472.608H331.423M330.669 472.608H331.423M331.423 472.608H332.177M331.423 472.608H332.177M332.177 472.608H332.931M332.177 472.608H332.931M332.931 472.608H333.685M332.931 472.608H333.685M333.685 472.608H334.439M333.685 472.608H334.439M334.439 472.608H335.193M334.439 472.608H335.193M335.193 472.608H335.947M335.193 472.608H335.947M335.947 472.608H336.701M335.947 472.608H336.701M336.701 472.608H337.455M336.701 472.608H337.455M337.455 472.608H338.209M337.455 472.608H338.209M338.209 472.608H338.963M338.209 472.608H338.963M338.963 472.608H339.717M338.963 472.608H339.717M339.717 472.608H340.471M339.717 472.608H340.471M340.471 472.608H341.225M340.471 472.608H341.225M341.225 472.608H341.979M341.225 472.608H341.979M341.979 472.608H342.733M341.979 472.608H342.733M342.733 472.608H343.487M342.733 472.608H343.487M343.487 472.608H344.241M343.487 472.608H344.241M344.241 472.608H344.995M344.241 472.608H344.995M344.995 472.608H345.749M344.995 472.608H345.749M345.749 472.608H346.503M345.749 472.608H346.503M346.503 472.608H347.257M346.503 472.608H347.257M347.257 472.608H348.011M347.257 472.608H348.011M348.011 472.608H348.765M348.011 472.608H348.765M348.765 472.608H349.519M348.765 472.608H349.519M349.519 472.608H350.273M349.519 472.608H350.273M350.273 472.608H351.027M350.273 472.608H351.027M351.027 472.608H351.782M351.027 472.608H351.782M351.782 472.608H352.536M351.782 472.608H352.536M352.536 472.608H353.29M352.536 472.608H353.29M353.29 472.608H354.044M353.29 472.608H354.044M354.044 472.608H354.798M354.044 472.608H354.798M354.798 472.608H355.552M354.798 472.608H355.552M355.552 472.608H356.306M355.552 472.608H356.306M356.306 472.608H357.06M356.306 472.608H357.06M357.06 472.608H357.814M357.06 472.608H357.814M357.814 472.608H358.568M357.814 472.608H358.568M358.568 472.608H359.322M358.568 472.608H359.322M359.322 472.608H360.076M359.322 472.608H360.076M360.076 472.608H360.83M360.076 472.608H360.83M360.83 472.608H361.584M360.83 472.608H361.584M361.584 472.608H362.338M361.584 472.608H362.338M362.338 472.608H363.092M362.338 472.608H363.092M363.092 472.608H363.846M363.092 472.608H363.846M363.846 472.608H364.6M363.846 472.608H364.6M364.6 472.608H365.354M364.6 472.608H365.354M365.354 472.608H366.108M365.354 472.608H366.108M366.108 472.608H366.862M366.108 472.608H366.862M366.862 472.608H367.616M366.862 472.608H367.616M367.616 472.608H368.37M367.616 472.608H368.37M368.37 472.608H369.124M368.37 472.608H369.124M369.124 472.608H369.878M369.124 472.608H369.878M369.878 472.608H370.632M369.878 472.608H370.632M370.632 472.608H371.386M370.632 472.608H371.386M371.386 472.608H372.14M371.386 472.608H372.14M372.14 472.608H372.894M372.14 472.608H372.894M372.894 472.608H373.648M372.894 472.608H373.648M373.648 472.608H374.402M373.648 472.608H374.402M374.402 472.608H375.156M374.402 472.608H375.156M375.156 472.608H375.91M375.156 472.608H375.91M375.91 472.608H376.664M375.91 472.608H376.664M376.664 472.608H377.418M376.664 472.608H377.418M377.418 472.608H378.172M377.418 472.608H378.172M378.172 472.608H378.926M378.172 472.608H378.926M378.926 472.608H379.68M378.926 472.608H379.68M379.68 472.608H380.434M379.68 472.608H380.434M380.434 472.608H381.188M380.434 472.608H381.188M381.188 472.608H381.943M381.188 472.608H381.943M381.943 472.608H382.697M381.943 472.608H382.697M382.697 472.608H383.451M382.697 472.608H383.451M383.451 472.608H384.205M383.451 472.608H384.205M384.205 472.608H384.959M384.205 472.608H384.959M384.959 472.608H385.713M384.959 472.608H385.713M385.713 472.608H386.467M385.713 472.608H386.467M386.467 472.608H387.221M386.467 472.608H387.221M387.221 472.608H387.975M387.221 472.608H387.975M387.975 472.608H388.729M387.975 472.608H388.729M388.729 472.608H389.483M388.729 472.608H389.483M389.483 472.608H390.237M389.483 472.608H390.237M390.237 472.608H390.991M390.237 472.608H390.991M390.991 472.608H391.745M390.991 472.608H391.745M391.745 472.608H392.499M391.745 472.608H392.499M392.499 472.608H393.253M392.499 472.608H393.253M393.253 472.608H394.007M393.253 472.608H394.007M394.007 472.608H394.761M394.007 472.608H394.761M394.761 472.608H395.515M394.761 472.608H395.515M395.515 472.608H396.269M395.515 472.608H396.269M396.269 472.608H397.023M396.269 472.608H397.023M397.023 472.608H397.777M397.023 472.608H397.777M397.777 472.608H398.531M397.777 472.608H398.531M398.531 472.608H399.285M398.531 472.608H399.285M399.285 472.608H400.039M399.285 472.608H400.039M400.039 472.608H400.793M400.039 472.608H400.793M400.793 472.608H401.547M400.793 472.608H401.547M401.547 472.608H402.301M401.547 472.608H402.301M402.301 472.608H403.055M402.301 472.608H403.055M403.055 472.608H403.809M403.055 472.608H403.809M403.809 472.608H404.563M403.809 472.608H404.563M404.563 472.608H405.317M404.563 472.608H405.317M405.317 472.608H406.071M405.317 472.608H406.071M406.071 472.608H406.825M406.071 472.608H406.825M406.825 472.608H407.579M406.825 472.608H407.579M407.579 472.608H408.333M407.579 472.608H408.333M408.333 472.608H409.088M408.333 472.608H409.088M409.088 472.608H409.842M409.088 472.608H409.842M409.842 472.608H410.596M409.842 472.608H410.596M410.596 472.608H411.35M410.596 472.608H411.35M411.35 472.608H412.104M411.35 472.608H412.104M412.104 472.608H412.858M412.104 472.608H412.858M412.858 472.608H413.612M412.858 472.608H413.612M413.612 472.608H414.366M413.612 472.608H414.366M414.366 472.608H415.12M414.366 472.608H415.12M415.12 472.608H415.874M415.12 472.608H415.874M415.874 472.608H416.628M415.874 472.608H416.628M416.628 472.608H417.382M416.628 472.608H417.382M417.382 472.608H418.136M417.382 472.608H418.136M418.136 472.608H418.89M418.136 472.608H418.89M418.89 472.608H419.644M418.89 472.608H419.644M419.644 472.608H420.398M419.644 472.608H420.398M420.398 472.608H421.152M420.398 472.608H421.152M421.152 472.608H421.906M421.152 472.608H421.906M421.906 472.608H422.66M421.906 472.608H422.66M422.66 472.608H423.414M422.66 472.608H423.414M423.414 472.608H424.168M423.414 472.608H424.168M424.168 472.608H424.922M424.168 472.608H424.922M424.922 472.608H425.676M424.922 472.608H425.676M425.676 472.608H426.43M425.676 472.608H426.43M426.43 472.608H427.184M426.43 472.608H427.184M427.184 472.608H427.938M427.184 472.608H427.938M427.938 472.608H428.692M427.938 472.608H428.692M428.692 472.608H429.446M428.692 472.608H429.446M429.446 472.608H430.2M429.446 472.608H430.2M430.2 472.608H430.954M430.2 472.608H430.954M430.954 472.608H431.708M430.954 472.608H431.708M431.708 472.608H432.462M431.708 472.608H432.462M432.462 472.608H433.217M432.462 472.608H433.217M433.217 472.608H433.971M433.217 472.608H433.971M433.971 472.608H434.725M433.971 472.608H434.725M434.725 472.608H435.479M434.725 472.608H435.479M435.479 472.608H436.233M435.479 472.608H436.233M436.233 472.608H436.987M436.233 472.608H436.987M436.987 472.608H437.741M436.987 472.608H437.741M437.741 472.608H438.495M437.741 472.608H438.495M438.495 472.608H439.249M438.495 472.608H439.249M439.249 472.608H440.003M439.249 472.608H440.003M440.003 472.608H440.757M440.003 472.608H440.757M440.757 472.608H441.511M440.757 472.608H441.511M441.511 472.608H442.265M441.511 472.608H442.265M442.265 472.608H443.019M442.265 472.608H443.019M443.019 472.608H443.773M443.019 472.608H443.773M443.773 472.608H444.527M443.773 472.608H444.527M444.527 472.608H445.281M444.527 472.608H445.281M445.281 472.608H446.035M445.281 472.608H446.035M446.035 472.608H446.789M446.035 472.608H446.789M446.789 472.608H447.543M446.789 472.608H447.543M447.543 472.608H448.297M447.543 472.608H448.297M448.297 472.608H449.051M448.297 472.608H449.051M449.051 472.608H449.805M449.051 472.608H449.805M449.805 472.608H450.559M449.805 472.608H450.559M450.559 472.608H451.313M450.559 472.608H451.313M451.313 472.608H452.067M451.313 472.608H452.067M452.067 472.608H452.821M452.067 472.608H452.821M452.821 472.608H453.576M452.821 472.608H453.576M453.576 472.608H454.33M453.576 472.608H454.33M454.33 472.608H455.084M454.33 472.608H455.084M455.084 472.608H455.838M455.084 472.608H455.838M455.838 472.608H456.592M455.838 472.608H456.592M456.592 472.608H457.346M456.592 472.608H457.346M457.346 472.608H458.1M457.346 472.608H458.1M458.1 472.608H458.854M458.1 472.608H458.854M458.854 472.608H459.608M458.854 472.608H459.608M459.608 472.608H460.362M459.608 472.608H460.362M460.362 472.608H461.116M460.362 472.608H461.116M461.116 472.608H461.87M461.116 472.608H461.87M461.87 472.608H462.624M461.87 472.608H462.624M462.624 472.608H463.378M462.624 472.608H463.378M463.378 472.608H464.132M463.378 472.608H464.132M464.132 472.608H464.886M464.132 472.608H464.886M464.886 472.608H465.64M464.886 472.608H465.64M465.64 472.608H466.394M465.64 472.608H466.394M466.394 472.608H467.148M466.394 472.608H467.148M467.148 472.608H467.902M467.148 472.608H467.902M467.902 472.608H468.656M467.902 472.608H468.656M468.656 472.608H469.41M468.656 472.608H469.41M469.41 472.608H470.164M469.41 472.608H470.164M470.164 472.608H470.918M470.164 472.608H470.918M470.918 472.608H471.672M470.918 472.608H471.672M471.672 472.608H472.427M471.672 472.608H472.427M472.427 472.608H473.181M472.427 472.608H473.181M473.181 472.608H473.935M473.181 472.608H473.935M473.935 472.608H474.689M473.935 472.608H474.689M474.689 472.608H475.443M474.689 472.608H475.443M475.443 472.608H476.197M475.443 472.608H476.197M476.197 472.608H476.951M476.197 472.608H476.951M476.951 472.608H477.705M476.951 472.608H477.705M477.705 472.608H478.459M477.705 472.608H478.459M478.459 472.608H479.213M478.459 472.608H479.213M479.213 472.608H479.967M479.213 472.608H479.967M479.967 472.608H480.721M479.967 472.608H480.721M480.721 472.608H481.475M480.721 472.608H481.475M481.475 472.608H482.229M481.475 472.608H482.229M482.229 472.608H482.983M482.229 472.608H482.983M482.983 472.608H483.737M482.983 472.608H483.737M483.737 472.608H484.491M483.737 472.608H484.491M484.491 472.608H485.245M484.491 472.608H485.245M485.245 472.608H485.999M485.245 472.608H485.999M485.999 472.608H486.753M485.999 472.608H486.753M486.753 472.608H487.507M486.753 472.608H487.507M487.507 472.608H488.261M487.507 472.608H488.261M488.261 472.608H489.016M488.261 472.608H489.016M489.016 472.608H489.77M489.016 472.608H489.77M489.77 472.608H490.524M489.77 472.608H490.524M490.524 472.608H491.278M490.524 472.608H491.278M491.278 472.608H492.032M491.278 472.608H492.032M492.032 472.608H492.786M492.032 472.608H492.786M492.786 472.608H493.54M492.786 472.608H493.54M493.54 472.608H494.294M493.54 472.608H494.294M494.294 472.608H495.048M494.294 472.608H495.048M495.048 472.608H495.802M495.048 472.608H495.802M495.802 472.608H496.556M495.802 472.608H496.556M496.556 472.608H497.31M496.556 472.608H497.31M497.31 472.608H498.064M497.31 472.608H498.064M498.064 472.608H498.818M498.064 472.608H498.818M498.818 472.608H499.572M498.818 472.608H499.572M499.572 472.608H500.326M499.572 472.608H500.326M500.326 472.608H501.08M500.326 472.608H501.08M501.08 472.608H501.834M501.08 472.608H501.834M501.834 472.608H502.588M501.834 472.608H502.588M502.588 472.608H503.342M502.588 472.608H503.342M503.342 472.608H504.097M503.342 472.608H504.097M504.097 472.608H504.851M504.097 472.608H504.851M504.851 472.608H505.605M504.851 472.608H505.605M505.605 472.608H506.359M505.605 472.608H506.359M506.359 472.608H507.113M506.359 472.608H507.113M507.113 472.608H507.867M507.113 472.608H507.867M507.867 472.608H508.621M507.867 472.608H508.621M508.621 472.608H509.375M508.621 472.608H509.375M509.375 472.608H510.129M509.375 472.608H510.129M510.129 472.608H510.883M510.129 472.608H510.883M510.883 472.608H511.637M510.883 472.608H511.637M511.637 472.608H512.391M511.637 472.608H512.391M512.391 472.608H513.145M512.391 472.608H513.145M513.145 472.608H513.899M513.145 472.608H513.899M513.899 472.608H514.653M513.899 472.608H514.653M514.653 472.608H515.407M514.653 472.608H515.407M515.407 472.608H516.161M515.407 472.608H516.161M516.161 472.608H516.915M516.161 472.608H516.915M516.915 472.608H517.67M516.915 472.608H517.67M517.67 472.608H518.424M517.67 472.608H518.424M518.424 472.608H519.178M518.424 472.608H519.178M519.178 472.608H519.932M519.178 472.608H519.932M519.932 472.608H520.686M519.932 472.608H520.686M520.686 472.608H521.44M520.686 472.608H521.44M521.44 472.608H522.194M521.44 472.608H522.194M522.194 472.608H522.948M522.194 472.608H522.948M522.948 472.608H523.702M522.948 472.608H523.702M523.702 472.608H524.456M523.702 472.608H524.456M524.456 472.608H525.21M524.456 472.608H525.21M525.21 472.608H525.964M525.21 472.608H525.964M525.964 472.608H526.718M525.964 472.608H526.718M526.718 472.608H527.472M526.718 472.608H527.472M527.472 472.608H528.226M527.472 472.608H528.226M528.226 472.608H528.98M528.226 472.608H528.98M528.98 472.608H529.734M528.98 472.608H529.734M529.734 472.608H530.488M529.734 472.608H530.488M530.488 472.608H531.243M530.488 472.608H531.243M531.243 472.608H531.997M531.243 472.608H531.997M531.997 472.608H532.751M531.997 472.608H532.751M532.751 472.608H533.505M532.751 472.608H533.505M533.505 472.608H534.259M533.505 472.608H534.259M534.259 472.608H535.013M534.259 472.608H535.013M535.013 472.608H535.767M535.013 472.608H535.767M535.767 472.608H536.521M535.767 472.608H536.521M536.521 472.608H537.275M536.521 472.608H537.275M537.275 472.608H538.029M537.275 472.608H538.029M538.029 472.608H538.783M538.029 472.608H538.783M538.783 472.608H539.537M538.783 472.608H539.537M539.537 472.608H540.291M539.537 472.608H540.291M540.291 472.608H541.045M540.291 472.608H541.045M541.045 472.608H541.799M541.045 472.608H541.799M541.799 472.608H542.554M541.799 472.608H542.554M542.554 472.608H543.308M542.554 472.608H543.308M543.308 472.608H544.062M543.308 472.608H544.062M544.062 472.608H544.816M544.062 472.608H544.816M544.816 472.608H545.57M544.816 472.608H545.57M545.57 472.608H546.324M545.57 472.608H546.324M546.324 472.608H547.078M546.324 472.608H547.078M547.078 472.608H547.832M547.078 472.608H547.832M547.832 472.608H548.586M547.832 472.608H548.586M548.586 472.608H549.34M548.586 472.608H549.34M549.34 472.608H550.094M549.34 472.608H550.094M550.094 472.608H550.848M550.094 472.608H550.848M550.848 472.608H551.602M550.848 472.608H551.602M551.602 472.608H552.356M551.602 472.608H552.356M552.356 472.608H553.11M552.356 472.608H553.11M553.11 472.608H553.865M553.11 472.608H553.865M553.865 472.608H554.619M553.865 472.608H554.619M554.619 472.608H555.373M554.619 472.608H555.373M555.373 472.608H556.127M555.373 472.608H556.127M556.127 472.608H556.881M556.127 472.608H556.881M556.881 472.608H557.635M556.881 472.608H557.635M557.635 472.608H558.389M557.635 472.608H558.389M558.389 472.608H559.143M558.389 472.608H559.143M559.143 472.608H559.897M559.143 472.608H559.897M559.897 472.608H560.651M559.897 472.608H560.651M560.651 472.608H561.405M560.651 472.608H561.405M561.405 472.608H562.159M561.405 472.608H562.159M562.159 472.608H562.913M562.159 472.608H562.913M562.913 472.608H563.667M562.913 472.608H563.667M563.667 472.608H564.422M563.667 472.608H564.422M564.422 472.608H565.176M564.422 472.608H565.176M565.176 472.608H565.93M565.176 472.608H565.93M565.93 472.608H566.684M565.93 472.608H566.684M566.684 472.608H567.438M566.684 472.608H567.438M567.438 472.608H568.192M567.438 472.608H568.192M568.192 472.608H568.946M568.192 472.608H568.946M568.946 472.608H569.7M568.946 472.608H569.7M569.7 472.608H570.454M569.7 472.608H570.454M570.454 472.608H571.208M570.454 472.608H571.208M571.208 472.608H571.962M571.208 472.608H571.962M571.962 472.608H572.716M571.962 472.608H572.716M572.716 472.608H573.47M572.716 472.608H573.47M573.47 472.608H574.225M573.47 472.608H574.225M574.225 472.608H574.979M574.225 472.608H574.979M574.979 472.608H575.733M574.979 472.608H575.733M575.733 472.608H576.487M575.733 472.608H576.487M576.487 472.608H577.241M576.487 472.608H577.241M577.241 472.608H577.995M577.241 472.608H577.995M577.995 472.608H578.749M577.995 472.608H578.749M578.749 472.608H579.503M578.749 472.608H579.503M579.503 472.608H580.257M579.503 472.608H580.257M580.257 472.608H581.011M580.257 472.608H581.011M581.011 472.608H581.765M581.011 472.608H581.765M581.765 472.608H582.519M581.765 472.608H582.519M582.519 472.608H583.273M582.519 472.608H583.273M583.273 472.608H584.028M583.273 472.608H584.028M584.028 472.608H584.782M584.028 472.608H584.782M584.782 472.608H585.536M584.782 472.608H585.536M585.536 472.608H586.29M585.536 472.608H586.29M586.29 472.608H587.044M586.29 472.608H587.044M587.044 472.608H587.798M587.044 472.608H587.798M587.798 472.608H588.552M587.798 472.608H588.552M588.552 472.608H589.306M588.552 472.608H589.306M589.306 472.608H590.06M589.306 472.608H590.06M590.06 472.608H590.814M590.06 472.608H590.814M590.814 472.608H591.568M590.814 472.608H591.568M591.568 472.608H592.322M591.568 472.608H592.322M592.322 472.608H593.077M592.322 472.608H593.077M593.077 472.608H593.831M593.077 472.608H593.831M593.831 472.608H594.585M593.831 472.608H594.585M594.585 472.608H595.339M594.585 472.608H595.339M595.339 472.608H596.093M595.339 472.608H596.093M596.093 472.608H596.847M596.093 472.608H596.847M596.847 472.608H597.601M596.847 472.608H597.601M597.601 472.608H598.355M597.601 472.608H598.355M598.355 472.608H599.109M598.355 472.608H599.109M599.109 472.608H599.863M599.109 472.608H599.863M599.863 472.608H600.617M599.863 472.608H600.617M600.617 472.608H601.372M600.617 472.608H601.372M601.372 472.608H602.126M601.372 472.608H602.126M602.126 472.608H602.88M602.126 472.608H602.88M602.88 472.608H603.634M602.88 472.608H603.634M603.634 472.608H604.388M603.634 472.608H604.388M604.388 472.608H605.142M604.388 472.608H605.142M605.142 472.608H605.896M605.142 472.608H605.896M605.896 472.608H606.65M605.896 472.608H606.65M606.65 472.608H607.404M606.65 472.608H607.404M607.404 472.608H608.158M607.404 472.608H608.158M608.158 472.608H608.912M608.158 472.608H608.912M608.912 472.608H609.667M608.912 472.608H609.667M609.667 472.608H610.421M609.667 472.608H610.421M610.421 472.608H611.175M610.421 472.608H611.175M611.175 472.608H611.929M611.175 472.608H611.929M611.929 472.608H612.683M611.929 472.608H612.683M612.683 472.608H613.437M612.683 472.608H613.437M613.437 472.608H614.191M613.437 472.608H614.191M614.191 472.608H614.945M614.191 472.608H614.945M614.945 472.608H615.699M614.945 472.608H615.699M615.699 472.608H616.453M615.699 472.608H616.453M616.453 472.608H617.208M616.453 472.608H617.208M617.208 472.608H617.962M617.208 472.608H617.962M617.962 472.608H618.716M617.962 472.608H618.716M618.716 472.608H619.47M618.716 472.608H619.47M619.47 472.608H620.224M619.47 472.608H620.224M620.224 472.608H620.978M620.224 472.608H620.978M620.978 472.608H621.732M620.978 472.608H621.732M621.732 472.608H622.486M621.732 472.608H622.486M622.486 472.608H623.24M622.486 472.608H623.24M623.24 472.608H623.994M623.24 472.608H623.994M623.994 472.608H624.748M623.994 472.608H624.748M624.748 472.608H625.503M624.748 472.608H625.503M625.503 472.608H626.257M625.503 472.608H626.257M626.257 472.608H627.011M626.257 472.608H627.011M627.011 472.608H627.765M627.011 472.608H627.765M627.765 472.608H628.519M627.765 472.608H628.519M628.519 472.608H629.273M628.519 472.608H629.273M629.273 472.608H630.027M629.273 472.608H630.027M630.027 472.608H630.781M630.027 472.608H630.781M630.781 472.608H631.535M630.781 472.608H631.535M631.535 472.608H632.29M631.535 472.608H632.29M632.29 472.608H633.044M632.29 472.608H633.044M633.044 472.608H633.798M633.044 472.608H633.798M633.798 472.608H634.552M633.798 472.608H634.552M634.552 472.608H635.306M634.552 472.608H635.306M635.306 472.608H636.06M635.306 472.608H636.06M636.06 472.608H636.814M636.06 472.608H636.814M636.814 472.608H637.568M636.814 472.608H637.568M637.568 472.608H638.322M637.568 472.608H638.322M638.322 472.608H639.076M638.322 472.608H639.076M639.076 472.608H639.831M639.076 472.608H639.831M639.831 472.608H640.585M639.831 472.608H640.585M640.585 472.608H641.339M640.585 472.608H641.339M641.339 472.608H642.093M641.339 472.608H642.093M642.093 472.608H642.847M642.093 472.608H642.847M642.847 472.608H643.601M642.847 472.608H643.601M643.601 472.608H644.355M643.601 472.608H644.355M644.355 472.608H645.109M644.355 472.608H645.109M645.109 472.608H645.863M645.109 472.608H645.863M645.863 472.608H646.618M645.863 472.608H646.618M646.618 472.608H647.372M646.618 472.608H647.372M647.372 472.608H648.126M647.372 472.608H648.126M648.126 472.608H648.88M648.126 472.608H648.88M648.88 472.608H649.634M648.88 472.608H649.634M649.634 472.608H650.388M649.634 472.608H650.388M650.388 472.608H651.142M650.388 472.608H651.142M651.142 472.608H651.896M651.142 472.608H651.896M651.896 472.608H652.651M651.896 472.608H652.651M652.651 472.608H653.405M652.651 472.608H653.405M653.405 472.608H654.159M653.405 472.608H654.159M654.159 472.608H654.913M654.159 472.608H654.913M654.913 472.608H655.667M654.913 472.608H655.667M655.667 472.608H656.421M655.667 472.608H656.421M656.421 472.608H657.175M656.421 472.608H657.175M657.175 472.608H657.929M657.175 472.608H657.929M657.929 472.608H658.683M657.929 472.608H658.683M658.683 472.608H659.438M658.683 472.608H659.438M659.438 472.608H660.192M659.438 472.608H660.192M660.192 472.608H660.946M660.192 472.608H660.946M660.946 472.608H661.7M660.946 472.608H661.7M661.7 472.608H662.454M661.7 472.608H662.454M662.454 472.608H663.208M662.454 472.608H663.208M663.208 472.608H663.962M663.208 472.608H663.962M663.962 472.608H664.716M663.962 472.608H664.716M664.716 472.608H665.471M664.716 472.608H665.471M665.471 472.608H666.225M665.471 472.608H666.225M666.225 472.608H666.979M666.225 472.608H666.979M666.979 472.608H667.733M666.979 472.608H667.733M667.733 472.608H668.487M667.733 472.608H668.487M668.487 472.608H669.241M668.487 472.608H669.241M669.241 472.608H669.995M669.241 472.608H669.995M669.995 472.608H670.749M669.995 472.608H670.749M670.749 472.608H671.504M670.749 472.608H671.504M671.504 472.608H672.258M671.504 472.608H672.258M672.258 472.608H673.012M672.258 472.608H673.012M673.012 472.608H673.766M673.012 472.608H673.766M673.766 472.608H674.52M673.766 472.608H674.52M674.52 472.608H675.274M674.52 472.608H675.274M675.274 472.608H676.028M675.274 472.608H676.028M676.028 472.608H676.782M676.028 472.608H676.782M676.782 472.608H677.537M676.782 472.608H677.537M677.537 472.608H678.291M677.537 472.608H678.291M678.291 472.608H679.045M678.291 472.608H679.045M679.045 472.608H679.799M679.045 472.608H679.799M679.799 472.608H680.553M679.799 472.608H680.553M680.553 472.608H681.307M680.553 472.608H681.307M681.307 472.608H682.061M681.307 472.608H682.061M682.061 472.608H682.815M682.061 472.608H682.815M682.815 472.608H683.57M682.815 472.608H683.57M683.57 472.608H684.324M683.57 472.608H684.324M684.324 472.608H685.078M684.324 472.608H685.078M685.078 472.608H685.832M685.078 472.608H685.832M685.832 472.608H686.586M685.832 472.608H686.586M686.586 472.608H687.34M686.586 472.608H687.34M687.34 472.608H688.094M687.34 472.608H688.094M688.094 472.608H688.849M688.094 472.608H688.849M688.849 472.608H689.603M688.849 472.608H689.603M689.603 472.608H690.357M689.603 472.608H690.357M690.357 472.608H691.111M690.357 472.608H691.111M691.111 472.608H691.865M691.111 472.608H691.865M691.865 472.608H692.619M691.865 472.608H692.619M692.619 472.608H693.373M692.619 472.608H693.373M693.373 472.608H694.128M693.373 472.608H694.128M694.128 472.608H694.882M694.128 472.608H694.882M694.882 472.608H695.636M694.882 472.608H695.636M695.636 472.608H696.39M695.636 472.608H696.39M696.39 472.608H697.144M696.39 472.608H697.144M697.144 472.608H697.898M697.144 472.608H697.898M697.898 472.608C709.44 472.608 720.982 472.603 732.524 472.598M697.898 472.608L732.524 472.598M732.524 472.598C755.607 472.588 778.689 472.577 801.764 472.608L732.524 472.598Z" stroke="#263238" stroke-width="7"/>
<path d="M308.397 542.491C329.304 542.491 384.547 541.893 434.778 541.221C451.878 540.992 468.392 540.754 482.767 540.528C475.421 539.68 467.57 538.804 459.472 537.946C421.029 533.876 377.459 530.278 355.63 531.912C333.355 533.579 286.452 535.784 245.18 537.57C238.701 537.851 232.359 538.121 226.27 538.377C255.341 540.479 288.421 542.491 308.397 542.491Z" stroke="#263238" stroke-width="7"/>
<path d="M616.807 514.209C627.914 514.209 657.016 513.896 683.811 513.539C667.405 512.036 651.406 511.041 642.43 511.712C634.004 512.343 619.084 513.115 603.259 513.852C608.385 514.075 613.035 514.209 616.807 514.209Z" fill="#3DB6B8" stroke="#263238" stroke-width="7"/>
<path d="M328.447 415.4L328.455 415.4C328.94 415.404 329.453 415.363 330.163 415.307C330.221 415.302 330.281 415.297 330.342 415.292C331.075 415.234 332.016 415.164 332.987 415.206C334.889 415.29 337.079 415.82 338.978 417.637C339.603 417.89 340.329 418.009 341.275 418.034C341.869 418.05 342.493 418.028 343.225 417.996C343.306 417.992 343.389 417.988 343.474 417.985C344.114 417.956 344.846 417.923 345.574 417.923H345.58C349.841 417.93 354.125 417.911 358.42 417.893C366.184 417.859 373.986 417.825 381.759 417.943C430.596 418.025 479.443 418.087 528.267 417.861C536.988 417.744 545.713 417.829 554.39 417.914C555.583 417.926 556.775 417.938 557.965 417.949C567.843 418.041 577.665 418.097 587.468 417.822L587.528 417.82L587.588 417.82C629.509 418.087 671.412 418.025 713.35 417.943C714.226 417.94 715.155 417.975 715.995 418.006C716.308 418.018 716.609 418.03 716.889 418.038C717.256 418.05 717.607 418.057 717.943 418.06C717.18 417.659 716.417 417.258 715.656 416.857C708.619 413.159 701.645 409.493 694.523 406.032L694.519 406.03C684.985 401.383 675.11 397.857 664.737 396.058C646.287 392.876 627.607 392.603 608.677 392.869L607.603 392.884L606.705 392.294C603.543 390.215 599.995 390.219 595.103 390.223C594.87 390.223 594.634 390.224 594.395 390.224H594.394C563.32 390.215 532.246 390.217 501.172 390.22C459.739 390.223 418.306 390.227 376.869 390.203C376.868 390.203 376.868 390.203 376.867 390.203M328.447 415.4L366.328 387.749C369.794 386.867 373.301 386.703 376.869 386.703L376.867 390.203M328.447 415.4L328.439 415.4M328.447 415.4L328.439 415.4M376.867 390.203C373.56 390.203 370.55 390.352 367.659 391.027M376.867 390.203L367.659 391.027M367.659 391.027C364.054 393.045 360.085 392.965 357.231 392.907C356.79 392.898 356.375 392.89 355.992 392.89C347.977 392.89 339.943 392.936 331.898 392.982C312.658 393.094 293.354 393.205 274.092 392.683L274.09 392.683C259.315 392.277 247.971 396.58 238.908 407.79L367.659 391.027ZM328.439 415.4C314.793 415.362 301.195 415.359 287.602 415.357C272.318 415.355 257.042 415.352 241.714 415.298V415.298M328.439 415.4L241.714 415.298M241.714 415.298H241.702M241.714 415.298H241.702M241.702 415.298C240.954 415.298 240.122 415.356 239.447 415.404C239.239 415.418 239.046 415.432 238.875 415.442C238.024 415.494 237.426 415.498 236.953 415.433C236.516 415.373 236.344 415.273 236.269 415.217C236.213 415.175 236.001 415.005 235.774 414.397L235.772 414.394M241.702 415.298L235.772 414.394M235.772 414.394C235.376 413.334 235.496 412.622 235.931 411.765M235.772 414.394L235.931 411.765M235.931 411.765C236.394 410.853 237.071 410.029 238.047 408.844M235.931 411.765L238.047 408.844M238.047 408.844C238.311 408.522 238.598 408.175 238.907 407.791L238.047 408.844Z" stroke="#263238" stroke-width="7"/>
<path d="M685.735 447.783L685.737 447.784C697.493 450.773 709.176 454.027 720.902 457.293C723.366 457.979 725.831 458.666 728.299 459.351L728.305 459.353C736.838 461.705 745.502 462.677 754.292 462.678C759.504 462.683 764.682 462.63 769.838 462.578C783.491 462.438 796.987 462.301 810.526 463.254C815.232 465.612 819.937 467.964 824.641 470.316L824.728 470.36C826.233 471.113 827.739 471.865 829.244 472.618C653.792 472.678 478.34 472.679 302.887 472.679C308.34 465.268 313.796 457.856 319.252 450.445L319.253 450.443C325.872 441.452 332.491 432.461 339.106 423.469C342.392 422.322 345.844 422.087 349.639 422.164C350.933 422.19 352.341 422.259 353.807 422.332C356.733 422.476 359.892 422.632 362.842 422.477L362.843 422.477C367.017 422.257 371.137 422.36 375.406 422.467C376.096 422.484 376.79 422.501 377.488 422.517C377.298 422.953 377.054 423.393 376.759 423.852C376.259 424.629 375.655 425.398 374.93 426.3C374.87 426.375 374.808 426.452 374.746 426.529C374.1 427.331 373.359 428.252 372.696 429.219C371.099 431.526 369.385 433.747 367.608 436.05C367.301 436.448 366.993 436.848 366.682 437.251C364.601 439.957 362.469 442.784 360.561 445.803L360.555 445.812C358.318 449.376 356.768 453.565 358.719 457.249C360.628 460.856 364.919 462.079 369.127 462.439L369.133 462.44C371.145 462.609 373.227 462.587 375.098 462.567C375.678 462.561 376.237 462.555 376.768 462.555H377.235H377.703H378.17H378.638H379.105H379.573H380.04H380.508H380.976H381.443H381.911H382.378H382.846H383.313H383.781H384.248H384.716H385.183H385.651H386.119H386.586H387.054H387.521H387.989H388.456H388.924H389.391H389.859H390.326H390.794H391.262H391.729H392.197H392.664H393.132H393.599H394.067H394.534H395.002H395.469H395.937H396.404H396.872H397.34H397.807H398.275H398.742H399.21H399.677H400.145H400.612H401.08H401.547H402.015H402.482H402.95H403.417H403.885H404.352H404.82H405.288H405.755H406.223H406.69H407.158H407.625H408.093H408.56H409.028H409.495H409.963H410.43H410.898H411.365H411.833H412.3H412.768H413.235H413.703H414.171H414.638H415.106H415.573H416.041H416.508H416.976H417.443H417.911H418.378H418.846H419.313H419.781H420.248H420.716H421.183H421.651H422.118H422.586H423.053H423.521H423.988H424.456H424.923H425.391H425.858H426.326H426.794H427.261H427.729H428.196H428.664H429.131H429.599H430.066H430.534H431.001H431.469H431.936H432.404H432.871H433.339H433.806H434.274H434.741H435.209H435.676H436.144H436.611H437.079H437.546H438.014H438.481H438.949H439.416H439.884H440.351H440.819H441.286H441.754H442.221H442.689H443.156H443.624H444.091H444.559H445.026H445.494H445.961H446.429H446.896H447.364H447.831H448.299H448.766H449.234H449.701H450.169H450.636H451.104H451.571H452.039H452.506H452.974H453.441H453.909H454.376H454.844H455.311H455.779H456.246H456.714H457.181H457.649H458.116H458.584H459.051H459.519H459.986H460.454H460.921H461.389H461.856H462.324H462.791H463.259H463.726H464.194H464.661H465.129H465.596H466.064H466.531H466.999H467.466H467.934H468.401H468.869H469.336H469.804H470.271H470.739H471.206H471.674H472.141H472.609H473.076H473.544H474.011H474.479H474.946H475.414H475.881H476.349H476.816H477.284H477.751H478.219H478.686H479.154H479.621H480.089H480.556H481.024H481.491H481.959H482.426H482.894H483.361H483.829H484.296H484.764H485.231H485.699H486.166H486.634H487.101H487.569H488.036H488.504H488.971H489.439H489.906H490.374H490.841H491.309H491.776H492.244H492.711H493.179H493.646H494.114H494.581H495.049H495.516H495.984H496.451H496.919H497.386H497.854H498.321H498.789H499.256H499.724H500.191H500.659H501.126H501.594H502.061H502.529H502.996H503.464H503.931H504.398H504.866H505.333H505.801H506.268H506.736H507.203H507.671H508.138H508.606H509.073H509.541H510.008H510.476H510.943H511.411H511.878H512.346H512.813H513.281H513.748H514.216H514.683H515.151H515.618H516.086H516.553H517.021H517.488H517.956H518.423H518.891H519.358H519.826H520.293H520.761H521.228H521.696H522.163H522.631H523.098H523.566H524.033H524.501H524.968H525.436H525.903H526.371H526.838H527.306H527.773H528.241H528.708H529.176H529.643H530.111H530.578H531.046H531.513H531.981H532.448H532.916H533.383H533.851H534.318H534.786H535.253H535.721H536.188H536.656H537.123H537.591H538.058H538.526H538.993H539.461H539.928H540.396H540.863H541.331H541.798H542.266H542.733H543.201H543.668H544.136H544.603H545.071H545.538H546.006H546.473H546.941H547.408H547.876H548.343H548.811H549.278H549.746H550.213H550.681H551.148H551.616H552.083H552.551H553.018H553.486H553.953H554.421H554.888H555.356H555.823H556.291H556.758H557.226H557.693H558.161H558.629H559.096H559.564H560.031H560.499H560.966H561.434H561.901H562.369H562.836H563.304H563.771H564.239H564.706H565.174H565.641H566.109H566.576H567.044H567.511H567.979H568.446H568.914H569.381H569.849H570.316H570.784H571.251H571.719H572.186H572.654H573.121H573.589H574.056H574.524H574.992H575.459H575.927H576.394H576.862H577.329H577.797H578.264H578.732H579.199H579.667H580.134H580.602H581.069H581.537H582.004H582.472H582.939H583.407H583.874H584.342H584.809H585.277H585.745H586.212H586.68H587.147H587.615H588.082H588.55H589.017H589.485H589.952H590.42H590.887H591.355H591.822H592.29H592.758H593.225H593.693H594.16H594.628H595.095H595.563H596.03H596.498H596.965H597.433H597.9H598.368H598.835H599.303H599.771H600.238H600.706H601.173H601.641H602.108H602.576H603.043H603.511H603.978H604.446H604.913H605.381H605.849H606.316H606.784H607.251H607.719H608.186H608.654H609.121H609.589H610.056H610.524H610.992H611.459H611.927H612.394H612.862H613.329H613.797H614.264H614.732H615.2H615.667H616.135C616.655 462.555 617.209 462.563 617.788 462.571C619.927 462.602 622.405 462.637 624.795 462.293L624.808 462.291C624.976 462.267 625.16 462.244 625.405 462.216L625.441 462.211C625.662 462.185 625.932 462.153 626.206 462.114C626.77 462.034 627.54 461.9 628.323 461.606C629.132 461.302 630.073 460.785 630.854 459.871C631.655 458.934 632.092 457.809 632.24 456.618L632.241 456.614C632.544 454.167 631.55 452.26 630.175 450.989C628.975 449.879 627.502 449.26 626.602 448.906L626.593 448.903L626.584 448.899C619.834 446.291 612.811 444.209 605.956 442.177C603.13 441.34 600.332 440.511 597.594 439.657C590.26 437.363 582.935 435.128 575.624 432.898C564.39 429.471 553.188 426.054 542.028 422.445L587.39 422.523C609.357 426.292 630.576 432.361 652.004 438.489C663.146 441.676 674.345 444.879 685.735 447.783Z" stroke="#263238" stroke-width="7"/>
<path d="M799.375 462.219C794.107 462.249 788.811 462.397 783.564 462.544C778.544 462.685 773.567 462.825 768.699 462.858C755.622 462.947 742.834 462.295 730.296 459.074L730.295 459.074C698.566 450.928 666.981 442.184 635.375 433.435C631.373 432.328 627.371 431.22 623.368 430.113L623.367 430.113C615.725 428.002 600.452 422.606 587.551 417.772C602.702 417.768 618.614 417.78 634.578 417.792C659.565 417.811 684.682 417.83 707.221 417.787C709.548 417.787 711.919 417.694 714.208 417.605C714.997 417.574 715.776 417.543 716.541 417.517C718.417 418.12 720.767 419.263 723.491 420.838C726.418 422.531 729.585 424.609 732.8 426.783C733.947 427.559 735.109 428.354 736.271 429.149C741.445 432.688 746.625 436.231 750.467 438.076C764.351 444.749 778.129 451.622 791.937 458.51C794.415 459.746 796.894 460.983 799.375 462.219Z" fill="#394249" stroke="#263238" stroke-width="7"/>
<path d="M544.319 347.668C548.861 347.668 552.527 347.809 555.821 349.384C561.396 354.04 566.966 358.695 572.536 363.352L572.582 363.39C577.652 367.628 582.722 371.866 587.796 376.105C587.56 376.53 587.254 376.871 586.916 377.151C586.161 377.774 585.241 378.08 584.618 378.134L584.611 378.135C580.483 378.504 576.415 378.442 572.144 378.378C570.452 378.352 568.729 378.326 566.957 378.326C546.778 378.326 525.357 378.576 503.961 378.826L503.949 378.826C482.541 379.076 461.158 379.326 441.023 379.326C440.247 379.326 439.482 379.329 438.723 379.331C436.493 379.339 434.325 379.346 432.14 379.287C424.245 379.058 416.384 375.721 414.438 367.16L414.412 367.046L414.378 366.933C412.412 360.364 415.999 354.306 422.389 348.636C424.901 347.665 427.539 347.682 430.952 347.703C431.467 347.706 432 347.709 432.553 347.709L432.557 347.709C450.345 347.688 469.389 347.688 488.435 347.688H488.436C507.48 347.688 526.527 347.688 544.319 347.668Z" fill="#394249" stroke="#263238" stroke-width="7"/>
<path d="M420.208 348.94C412.587 346.73 406.125 346.247 399.968 351.015C394.864 357.451 389.755 363.892 384.646 370.332L384.621 370.363C380.472 375.593 376.324 380.823 372.178 386.05C372.222 386.047 372.266 386.043 372.312 386.039C372.384 386.033 372.458 386.026 372.536 386.02C373.18 385.964 373.996 385.893 374.798 385.893H374.801C437.159 385.942 499.503 385.939 561.858 385.935C574.561 385.935 587.266 385.934 599.97 385.934C597.12 383.351 594.166 380.919 591.066 378.679C590.955 378.709 590.833 378.742 590.699 378.777C589.968 378.968 588.976 379.193 587.875 379.194L420.208 348.94ZM420.208 348.94C418.686 351.815 417.058 354.91 415.865 358.041L415.862 358.05C414.026 362.906 413.953 367.701 416.294 371.649C418.618 375.568 422.852 377.86 427.939 378.75C429.796 379.083 431.651 379.194 433.409 379.194C450.574 379.194 467.737 379.196 484.9 379.198C519.223 379.203 553.544 379.207 587.874 379.194L420.208 348.94Z" stroke="#263238" stroke-width="7"/>
<path d="M428.747 347.35V347.03L424.953 347.35C421.881 347.609 418.893 347.477 415.66 347.335C414.287 347.274 412.871 347.212 411.385 347.177C407.018 347.073 402.324 347.236 397.595 348.753C393.412 347.155 389.247 346.998 385.454 347.124C384.035 347.171 382.715 347.25 381.455 347.326C378.763 347.488 376.342 347.634 373.811 347.412L373.805 347.412C371.694 347.23 369.582 347.285 367.696 347.333C367.56 347.337 367.425 347.34 367.291 347.344C365.229 347.395 363.423 347.421 361.693 347.218C359.737 346.987 358.461 346.597 357.719 346.058C357.248 345.717 356.711 345.147 356.744 343.418L428.747 347.35ZM428.747 347.35C468.923 347.256 509.082 347.145 549.257 347.033C542.96 341.886 535.806 339.154 526.774 339.447C512.166 339.939 497.507 339.831 482.93 339.724C476.782 339.678 470.649 339.633 464.54 339.633H463.973L463.435 339.454C452.099 335.682 440.856 335.526 429.617 339.439L429.059 339.633H428.467H428.347H428.228H428.108H427.989H427.869H427.749H427.63H427.51H427.391H427.271H427.152H427.032H426.912H426.793H426.673H426.554H426.434H426.315H426.195H426.076H425.956H425.836H425.717H425.597H425.478H425.358H425.239H425.119H424.999H424.88H424.76H424.641H424.521H424.402H424.282H424.163H424.043H423.923H423.804H423.684H423.565H423.445H423.326H423.206H423.086H422.967H422.847H422.728H422.608H422.489H422.369H422.25H422.13H422.01H421.891H421.771H421.652H421.532H421.413H421.293H421.173H421.054H420.934H420.815H420.695H420.576H420.456H420.337H420.217H420.097H419.978H419.858H419.739H419.619H419.5H419.38H419.26H419.141H419.021H418.902H418.782H418.663H418.543H418.424H418.304H418.184H418.065H417.945H417.826H417.706H417.587H417.467H417.347H417.228H417.108H416.989H416.869H416.75H416.63H416.511H416.391H416.271H416.152H416.032H415.913H415.793H415.674H415.554H415.434H415.315H415.195H415.076H414.956H414.837H414.717H414.598H414.478H414.358H414.239H414.119H414H413.88H413.761H413.641H413.521H413.402H413.282H413.163H413.043H412.924H412.804H412.685H412.565H412.445H412.326H412.206H412.087H411.967H411.848H411.728H411.608H411.489H411.369H411.25H411.13H411.011H410.891H410.772H410.652H410.532H410.413H410.293H410.174H410.054H409.935H409.815H409.696H409.576H409.456H409.337H409.217H409.098H408.978H408.859H408.739H408.619H408.5H408.38H408.261H408.141H408.022H407.902H407.783H407.663H407.543H407.424H407.304H407.185H407.065H406.946H406.826H406.706H406.587H406.467H406.348H406.228H406.109H405.989H405.87H405.75H405.63H405.511H405.391H405.272H405.152H405.033H404.913H404.793H404.674H404.554H404.435H404.315H404.196H404.076H403.957H403.837H403.717H403.598H403.478H403.359H403.239H403.12H403H402.88H402.761H402.641H402.522H402.402H402.283H402.163H402.044H401.924H401.804H401.685H401.565H401.446H401.326H401.207H401.087H400.967H400.848H400.728H400.609H400.489H400.37H400.25H400.131H400.011H399.891H399.772H399.652H399.533H399.413H399.294H399.174H399.054H398.935H398.815H398.696H398.576H398.457H398.337H398.218H398.098H397.978H397.859H397.739H397.62H397.5H397.381H397.261H397.141H397.022H396.902H396.783H396.663H396.544H396.424H396.305H396.185H396.065H395.946H395.826H395.707H395.587H395.468H395.348H395.228H395.109H394.989H394.87H394.75H394.631H394.511H394.392H394.272H394.152H394.033H393.913H393.794H393.674H393.555H393.435H393.315H393.196H393.076H392.957H392.837H392.718H392.598H392.479H392.359H392.239H392.12H392H391.881H391.761H391.642H391.522H391.403H391.283H391.163H391.044H390.924H390.805H390.685H390.566H390.446H390.326H390.207H390.087H389.968H389.848H389.729H389.609H389.49H389.37H389.25H389.131H389.011H388.892H388.772H388.653H388.533H388.413H388.294H388.174H388.055H387.935H387.816H387.696H387.577H387.457H387.337H387.218H387.098H386.979H386.859H386.74H386.62H386.5H386.381H386.261H386.142H386.022H385.903H385.783H385.664H385.544H385.424H385.305H385.185H385.066H384.946H384.827H384.707H384.587H384.468H384.348H384.229H384.109H383.99H383.87H383.751H383.631H383.511H383.392H383.272H383.153H383.033H382.914H382.794H382.674H382.555H382.435H382.316H382.196H382.077H381.957H381.838H381.718H381.598H381.479H381.359H381.24H381.12H381.001H380.881H380.761H380.642H380.522H380.403H380.283H380.164H380.044H379.925H379.805H379.685H379.566H379.446H379.327H379.207H379.088H378.968H378.848H378.729H378.609H378.49H378.37H378.251H378.131H378.012H377.892H377.772H377.653H377.533H377.414H377.294H377.175H377.055H376.935H376.816H376.696H376.577H376.457H376.338H376.218H376.099H375.979H375.859H375.74H375.62H375.501H375.381H375.262H375.142H375.023H374.903H374.783H374.664H374.544H374.425H374.305H374.186H374.066H373.946H373.827H373.707H373.588H373.468H373.349H373.229H373.11H372.99H372.87H372.751H372.631H372.512H372.392H372.273H372.153H372.033H371.914H371.794H371.675H371.555H371.436H371.316H371.197H371.077H370.957H370.838H370.718H370.599H370.479H370.36H370.24H370.12H370.001H369.881H369.762H369.642H369.523H369.403H369.284H369.164H369.044H368.925H368.805H368.686H368.566H368.447H368.327H368.207H368.088H367.968H367.849H367.729H367.61H367.49H367.371H367.251C366.656 339.633 365.921 339.609 365.281 339.587C364.911 339.575 364.572 339.563 364.312 339.558C363.429 339.542 362.732 339.567 362.125 339.668L362.114 339.67L362.114 339.67C359.984 340.018 358.648 340.361 357.807 340.915C357.304 341.246 356.775 341.746 356.744 343.418L428.747 347.35Z" stroke="#263238" stroke-width="7"/>
<path d="M424.007 307.856C434.772 316.63 445.451 325.333 455.666 334.613H455.615H455.544H455.474H455.403H455.333H455.262H455.192H455.121H455.051H454.98H454.91H454.84H454.769H454.699H454.628H454.558H454.487H454.417H454.346H454.276H454.205H454.135H454.064H453.994H453.924H453.853H453.783H453.712H453.642H453.571H453.501H453.43H453.36H453.289H453.219H453.148H453.078H453.007H452.937H452.867H452.796H452.726H452.655H452.585H452.514H452.444H452.373H452.303H452.232H452.162H452.091H452.021H451.95H451.88H451.809H451.739H451.669H451.598H451.528H451.457H451.387H451.316H451.246H451.175H451.105H451.034H450.964H450.893H450.823H450.752H450.682H450.611H450.541H450.471H450.4H450.33H450.259H450.189H450.118H450.048H449.977H449.907H449.836H449.766H449.695H449.625H449.554H449.484H449.413H449.343H449.272H449.202H449.132H449.061H448.991H448.92H448.85H448.779H448.709H448.638H448.568H448.497H448.427H448.356H448.286H448.215H448.145H448.074H448.004H447.933H447.863H447.792H447.722H447.652H447.581H447.511H447.44H447.37H447.299H447.229H447.158H447.088H447.017H446.947H446.876H446.806H446.735H446.665H446.594H446.524H446.453H446.383H446.313H446.242H446.172H446.101H446.031H445.96H445.89H445.819H445.749H445.678H445.608H445.537H445.467H445.396H445.326H445.255H445.185H445.114H445.044H444.973H444.903H444.833H444.762H444.692H444.621H444.551H444.48H444.41H444.339H444.269H444.198H444.128H444.057H443.987H443.916H443.846H443.775H443.705H443.634H443.564H443.494H443.423H443.353H443.282H443.212H443.141H443.071H443H442.93H442.859H442.789H442.718H442.648H442.577H442.507H442.436H442.366H442.295H442.225H442.155H442.084H442.014H441.943H441.873H441.802H441.732H441.661H441.591H441.52H441.45H441.379H441.309H441.238H441.168H441.097H441.027H440.957H440.886H440.816H440.745H440.675H440.604H440.534H440.463H440.393H440.322H440.252H440.181H440.111H440.04H439.97H439.899H439.829H439.759H439.688H439.618H439.547H439.477H439.406H439.336H439.265H439.195H439.124H439.054H438.983H438.913H438.842H438.772H438.702H438.631H438.561H438.49H438.42H438.349H438.279H438.208H438.138H438.067H437.997H437.926H437.856H437.786H437.715H437.645H437.574H437.504H437.433H437.363H437.292H437.222H437.151H437.081H437.01H436.94H436.87H436.799H436.729H436.658H436.588H436.517H436.447H436.376H436.306H436.235H436.165H436.095H436.024H435.954H435.883H435.813H435.742H435.672H435.601H435.531H435.46H435.39H435.32H435.249H435.179H435.108H435.038H434.967H434.897H434.826H434.756H434.685H434.615H434.545H434.474H434.404H434.333H434.263H434.192H434.122H434.051H433.981H433.911H433.84H433.77H433.699H433.629H433.558H433.488H433.417H433.347H433.277H433.206H433.136H433.065H432.995H432.924H432.854H432.783H432.713H432.643H432.572H432.502H432.431H432.361H432.29H432.22H432.15H432.079H432.009H431.938H431.868H431.797H431.727H431.656H431.586H431.516H431.445H431.375H431.304H431.234H431.163H431.093H431.023H430.952H430.882H430.811H430.741H430.67H430.6H430.53H430.459H430.389H430.318H430.266C425.438 327.998 420.61 321.387 415.782 314.776L415.779 314.772C411.355 308.714 406.931 302.657 402.508 296.596C404.652 295.586 406.761 295.188 408.996 295.526C413.993 299.694 419.01 303.783 424.007 307.856Z" stroke="#263238" stroke-width="7"/>
<path d="M397.675 295.068L397.554 295.059L397.432 295.059C396.742 295.056 396.078 295.063 395.439 295.069C393.386 295.089 391.584 295.107 389.94 294.806C387.97 294.445 387.291 293.812 386.971 292.923C384.898 287.165 385.204 280.214 387.158 273.587C387.199 273.448 387.3 273.25 387.698 273.033C388.137 272.793 388.837 272.603 389.722 272.61L389.735 272.61H389.748C390.691 272.61 391.676 272.623 392.687 272.637C395.222 272.672 397.923 272.709 400.534 272.541L400.539 272.541C403.75 272.33 405.212 272.967 405.885 273.601C406.521 274.2 407.25 275.556 407.088 278.821L407.088 278.822C406.9 282.646 406.951 286.556 407 290.33C407.011 291.212 407.023 292.088 407.031 292.953C403.656 294.359 400.784 295.297 397.675 295.068Z" stroke="#263238" stroke-width="7"/>
<path d="M528.501 421C559.027 429.733 590.036 441.102 620.501 450C625.132 451.342 630.001 453.5 628.501 456.5C628.501 460 619.753 459.5 615.001 459.5C534.76 459.647 456.991 460.072 376.75 460.072C374.616 460.072 372.461 460.164 370.327 460.035C361.266 459.465 358.225 453.931 363.501 447C370.065 438.396 374.695 429.457 381.501 421H528.501Z" fill="#394249"/>
<g clip-path="url(#clip0_622_2873)">
<path d="M714.732 358.108L713.506 358.537L714.864 362.451L716.09 362.023L714.732 358.108Z" fill="#545869"/>
<path d="M735.085 355.81L733.734 351.9L734.955 351.482L736.305 355.393L735.085 355.81Z" fill="#545869"/>
<path d="M754.251 349.213L753.135 346.007L754.381 345.59L755.472 348.796L754.251 349.213Z" fill="#545869"/>
<path d="M776.93 338.761L775.703 339.189L776.599 341.775L777.825 341.346L776.93 338.761Z" fill="#545869"/>
<path d="M679.141 378.976C679.141 378.976 681.779 377.826 686.353 376.061C690.969 374.254 697.521 371.79 705.475 368.998C721.383 363.331 742.73 356.392 764.242 349.862C785.713 343.333 807.308 337.133 823.545 332.616C839.783 328.181 850.621 325.225 850.621 325.225L850.951 326.374C850.951 326.374 840.195 329.495 823.999 334.217C807.844 338.981 786.373 345.51 765.025 352.367C743.678 359.266 722.454 366.534 706.711 372.406C698.84 375.322 692.329 377.909 687.795 379.756C683.262 381.604 680.748 382.754 680.748 382.754L679.059 379.017L679.141 378.976Z" fill="#8B6751"/>
<path d="M785.858 435.497H785.598L786.248 337.327L705.273 364.411L698.494 370.928L698.312 370.72L705.143 364.151L786.507 336.988V337.171L785.858 435.497Z" fill="#545869"/>
<path d="M676.965 365.95C682.133 368.035 687.742 370.824 687.742 370.824L705.896 363.656C705.896 363.656 704.987 361.857 700.909 360.215C696.832 358.573 687.768 362.509 682.756 360.111L676.965 365.95Z" fill="#FBBCA1"/>
<path d="M701.869 364.958C702.493 364.046 703.324 362.717 703.895 361.778C703.22 361.309 702.311 360.814 701.142 360.318C700.077 360.683 698.623 361.257 696.467 362.247C689.663 365.323 686.287 367.513 686.287 367.513C686.287 367.513 693.844 366.601 698.156 366.184L701.869 364.984V364.958Z" fill="#FBBCA1"/>
<path d="M643.488 320.539C643.488 320.539 647.124 322.442 648.267 323.172C653.928 326.926 655.071 347.102 659.72 353.254C660.421 354.192 687.56 359.223 687.56 359.223L685.015 369.259C685.015 369.259 656.967 368.269 654.136 365.792C651.305 363.342 640.943 348.692 640.943 348.692L643.514 320.539H643.488Z" fill="#1D272C"/>
<path d="M705.895 366.288C706.57 365.402 706.233 363.968 705.895 363.317C705.376 362.326 706.025 361.049 702.753 360.606C699.48 360.163 691.611 365.585 691.404 366.914C691.196 368.27 692.079 370.772 695.247 370.824C699.091 370.876 704.597 367.957 705.869 366.288H705.895Z" fill="#FED4AC"/>
<path d="M701.402 371.137C701.402 374.291 698.83 376.872 695.688 376.872C692.546 376.872 689.975 374.291 689.975 371.137C689.975 367.983 692.546 365.402 695.688 365.402C698.83 365.402 701.402 367.957 701.402 371.137Z" fill="#5E6679"/>
<path d="M671.277 364.176C679.847 365.141 682.963 363.368 685.586 364.515C688.209 365.662 691.767 365.897 692.728 367.878C693.689 369.859 687.95 376.532 686.08 376.35C684.21 376.167 681.431 375.646 677.016 373.196C672.601 370.745 667.797 371.032 667.797 371.032L671.277 364.176Z" fill="#FED4AC"/>
<path d="M705.765 417.146C708.829 416.651 713.504 415.582 716.205 414.487C718.906 413.393 723.944 412.741 724.307 417.146C724.671 421.526 723.035 423.35 717.997 427.495C712.958 431.64 701.609 437.609 701.609 437.609C701.609 437.609 691.896 430.024 691.896 429.476V423.142L705.765 417.12V417.146Z" fill="#161D21"/>
<path d="M688.467 437.271C692.778 441.963 697.998 449.21 699.635 449.027C701.245 448.845 706.647 442.849 708.802 440.06C710.958 437.271 717.45 432.761 719.06 429.164C720.67 425.541 719.424 423.742 716.905 422.308C714.386 420.875 710.776 425.384 707.711 427.183C704.647 428.982 699.687 433.778 694.882 430.467C690.078 427.183 688.441 437.297 688.441 437.297L688.467 437.271Z" fill="#161D21"/>
<path d="M652.084 295.855C652.759 296.819 656.057 299.113 656.187 303.206C656.291 305.552 656.187 305.291 655.642 305.969C654.759 307.09 655.564 308.784 656.005 309.697C656.706 311.13 657.641 312.069 655.953 312.512C654.057 313.007 654.655 313.737 655.07 314.337C655.382 314.78 654.499 315.327 654.239 315.51C654.239 315.51 654.862 316.448 654.239 316.839C653.616 317.23 653.019 317.022 652.863 317.517C652.707 317.986 652.811 319.993 651.772 320.463C650.733 320.932 648.526 319.915 647.305 319.576C647.045 319.498 646.786 319.42 646.5 319.368C646.292 319.524 646.085 319.707 645.903 319.889C645.435 320.332 645.227 321.662 644.76 322.105C644.267 322.6 643.799 322.522 643.513 322.965C642.605 324.425 643.202 326.223 643.202 326.223L639.696 322.73C639.202 323.486 639.254 323.903 639.254 323.903C639.254 323.903 636.527 323.591 633.879 320.045C633.229 319.185 635.177 321.088 635.904 319.472C635.956 319.368 635.982 319.211 636.008 319.055L634.294 317.334C634.294 317.334 651.408 294.134 652.084 295.855Z" fill="#FED4AC"/>
<path d="M658.836 297.861L663.771 302.58C663.771 302.58 659.901 308.419 648.63 305.942C637.359 303.466 658.836 297.861 658.836 297.861Z" fill="#263238"/>
<path d="M624.479 312.407C625.387 306.854 625.387 299.946 630.478 292.465C635.542 284.958 642.398 285.27 646.891 287.069C651.358 288.868 660.188 296.949 658.837 297.861C657.487 298.747 652.578 300.781 652.578 303.492C652.578 306.203 649.618 318.845 646.294 320.826C642.969 322.808 626.608 318.089 626.608 318.089L624.504 312.407H624.479Z" fill="#1D272C"/>
<path d="M651.02 385.291C651.02 385.291 676.237 425.93 681.301 431.821C686.366 437.713 689.067 443.448 691.897 441.206C694.728 438.964 704.389 431.352 701.558 423.897C699.273 417.797 661.902 385.291 661.252 385.291H650.994H651.02Z" fill="#1D272C"/>
<path d="M612.921 371.658C612.506 379.791 612.713 388.758 621.232 391.808C629.75 394.858 662.368 389.983 663.589 389.983C664.81 389.983 687.248 418.814 690.494 422.88C693.74 426.947 697.844 432.108 700.285 431.274C702.726 430.466 711.218 422.255 712.439 415.738C712.439 415.738 711.842 413.287 707.972 410.863C704.128 408.413 687.3 383.649 684.651 381.016C682.028 378.383 681.82 376.558 673.899 375.333C666.004 374.108 647.539 370.25 647.539 370.25L612.869 371.684L612.921 371.658Z" fill="#263238"/>
<path d="M624.477 312.408C618.764 315.77 613.336 317.934 612.401 329.56C611.752 337.641 609.622 372.311 612.349 373.64C615.076 374.996 628.814 371.946 632.84 371.607C636.865 371.268 656.992 372.285 656.992 372.285C656.992 372.285 654.239 356.201 653.227 351.978C652.214 347.755 652.655 340.743 652.655 338.736C652.655 336.729 650.993 324.711 646.266 320.775C646.266 320.775 639.151 320.202 634.138 319.081C626.477 317.386 624.477 312.355 624.477 312.355V312.408Z" fill="#263238"/>
<path d="M655.355 363.004C653.278 360.658 637.878 340.038 637.878 340.038L621.257 333C622.893 341.941 620.945 355.34 620.633 358.598C620.322 361.857 620.685 367.722 611.336 368.243C611.44 371.293 611.725 373.352 612.349 373.665C615.076 375.021 628.814 371.971 632.839 371.632C636.865 371.293 656.992 372.31 656.992 372.31C656.992 372.31 656.238 367.852 655.355 363.004Z" fill="#1D272C"/>
<path d="M655.356 363.004C654.94 361.257 654.602 359.667 654.551 357.503C653.616 356.643 643.098 335.216 640.033 329.768C640.033 329.768 637.436 334.512 637.852 335.19C638.267 335.867 640.163 352.551 641.695 357.191C643.228 361.831 649.408 362.169 651.979 363.89C652.992 364.568 654.265 364.203 655.459 363.525C654.654 359.015 655.849 365.037 655.356 362.978V363.004Z" fill="#1D272C"/>
<path d="M627.334 323.016C621.516 324.893 619.465 330.028 621.256 336.414C623.048 342.801 639.669 368.608 643.539 371.188C647.408 373.769 676.547 374.968 676.547 374.968L677.248 362.951C677.248 362.951 653.408 359.562 651.927 358.389C650.447 357.216 642.188 336.362 641.305 332.973C640.111 328.333 634.917 320.539 627.334 323.016Z" fill="#263238"/>
</g>
<defs>
<clipPath id="clip0_622_2873">
<rect width="178" height="163" fill="white" transform="translate(611 286)"/>
</clipPath>
</defs>
</svg>
