<svg width="1024" height="850" viewBox="0 0 1024 850" fill="none" xmlns="http://www.w3.org/2000/svg">
<circle cx="512" cy="425" r="345" fill="#F1F5F8"/>
<path d="M840.94 474.28C844.18 476.441 847.749 476.096 851.297 476.096C872.297 476.096 907.317 476.096 907.317 476.096C907.317 476.096 912.28 476.027 914.638 476.579C924.995 479.108 926.902 485.912 919.642 494.716C887.281 533.91 856.608 564.139 810.65 580.069C793.239 586.092 775.356 589.793 757.043 589.793C543.987 589.839 338.932 589.747 125.876 590C113.94 590 105.225 586.483 101 573.311V564.139C104.589 555.45 111.11 550.415 118.186 545.68C145.912 527.152 164.326 506.279 192.688 488.901C207.905 479.568 224.455 476.878 241.271 476.234C259.482 475.545 277.734 476.073 295.966 476.073C300.847 472.372 306.404 473.108 311.818 473.108C440.505 473.108 569.191 473.108 697.898 473.108C732.515 473.108 767.153 473.062 801.77 473.108C814.834 473.131 827.918 472.441 840.94 474.28Z" fill="#56C3C5"/>
<path d="M531 543.004C529.468 543.598 350.266 545.991 308.397 545.991C266.529 545.991 168 537.233 168 537.233C168 537.233 310.953 531.746 355.369 528.421C399.784 525.097 531 543.004 531 543.004Z" fill="#3DB6B8"/>
<path d="M737 516.096C736.173 516.417 639.413 517.709 616.807 517.709C594.2 517.709 541 512.98 541 512.98C541 512.98 618.187 510.017 642.169 508.222C666.151 506.427 737 516.096 737 516.096Z" fill="#3DB6B8"/>
<path d="M336.899 420.52C334.5 417.813 331.28 418.921 328.43 418.9C299.514 418.818 270.618 418.9 241.702 418.798C238.359 418.798 234.176 420.131 232.494 415.619C230.915 411.395 233.683 408.687 236.185 405.591C246.05 393.389 258.518 388.754 274.186 389.185C301.441 389.923 328.717 389.39 355.992 389.39C359.519 389.39 363.108 389.759 366.328 387.749C369.794 386.867 373.301 386.703 376.869 386.703C449.385 386.744 521.88 386.703 594.395 386.724C599.317 386.724 604.26 386.498 608.628 389.369C627.597 389.103 646.547 389.369 665.332 392.609C676.098 394.476 686.291 398.126 696.053 402.884C706.306 407.867 716.314 413.302 726.445 418.552C722.754 422.489 717.852 421.423 713.361 421.443C671.423 421.525 629.505 421.587 587.566 421.32C567.817 421.874 548.048 421.095 528.299 421.361C479.449 421.587 430.579 421.525 381.729 421.443C369.671 421.259 357.633 421.443 345.574 421.423C342.662 421.423 339.668 422.018 336.899 420.52V420.52Z" fill="#56C3C5"/>
<path d="M528.238 418.921L587.69 419.023C621.344 424.766 653.623 435.983 686.599 444.391C700.873 448.021 715.044 452.041 729.235 455.978C737.418 458.234 745.764 459.178 754.296 459.178C773.347 459.198 792.42 458.419 811.471 459.813C821.295 464.735 831.118 469.637 840.941 474.558C838.234 477.389 834.748 476.097 831.651 476.117C653.09 476.179 474.528 476.179 295.967 476.179C309.604 457.64 323.263 439.1 336.9 420.561C345.309 417.157 354.065 419.433 362.658 418.982C368.872 418.654 375.147 419.023 381.382 419.085C382.1 424.396 378.121 427.493 375.578 431.205C371.702 436.804 367.149 441.931 363.519 447.673C359.233 454.502 361.284 458.255 369.426 458.952C371.866 459.157 374.327 459.055 376.768 459.055C456.563 459.055 536.339 459.055 616.135 459.055C618.862 459.055 621.59 459.219 624.297 458.829C626.101 458.562 628.46 458.644 628.767 456.183C629.055 453.866 627.045 452.841 625.322 452.164C615.93 448.534 606.147 445.991 596.55 442.997C576.288 436.66 555.883 430.713 535.724 424.068C532.852 423.125 528.997 423.166 528.238 418.941V418.921Z" fill="#DDE6EC"/>
<path d="M811.472 459.816C811.246 461.026 810.487 461.826 809.298 461.806C782.986 461.067 756.367 465.128 730.425 458.463C694.639 449.275 659.037 439.329 623.436 429.485C611.479 426.184 599.195 423.846 587.67 419.026C630.675 418.965 673.659 418.924 716.664 418.842C719.925 418.842 723.186 418.657 726.446 418.555C735.962 421.241 744.185 426.696 752.983 430.921C772.568 440.334 791.969 450.157 811.451 459.816H811.472Z" fill="#394249"/>
<path d="M557.809 346.485C569.13 355.939 580.429 365.394 591.75 374.848C591.319 379.38 587.505 378.396 584.921 378.621C578.953 379.154 572.944 378.826 566.956 378.826C526.637 378.826 486.34 378.826 446.021 378.826C443.027 378.826 440.033 378.867 437.039 378.785C428.508 378.539 419.812 377.247 417.023 367.937C414.378 359.098 418.664 351.571 425.513 345.624C429.389 343.922 433.491 344.209 437.551 344.209C473.133 344.168 508.734 344.209 544.315 344.168C548.97 344.168 553.564 344.271 557.809 346.465V346.485Z" fill="#394249"/>
<path d="M425.247 346.839C423.176 350.982 420.776 354.981 419.136 359.287C415.957 367.696 419.628 373.745 428.549 375.304C430.148 375.591 431.789 375.694 433.409 375.694C484.904 375.694 536.379 375.714 587.874 375.694C589.166 375.694 590.458 375.16 591.75 374.873C597.882 379.139 603.419 384.102 608.628 389.434C530.678 389.434 452.748 389.454 374.798 389.393C371.947 389.393 368.728 390.521 366.328 387.793C376.705 374.709 387.103 361.605 397.479 348.521C406.339 341.405 415.752 343.681 425.247 346.86V346.839Z" fill="#56C3C5"/>
<path d="M425.247 346.837C415.998 347.617 406.564 345.074 397.479 348.499C389.707 344.93 381.483 347.596 373.506 346.899C369.445 346.55 365.303 347.166 361.283 346.694C357.12 346.202 353.142 344.828 353.244 339.352C353.347 333.897 357.407 332.892 361.55 332.215C363.395 331.908 365.344 332.133 367.251 332.133C387.656 332.133 408.061 332.133 428.467 332.133C440.484 327.95 452.522 328.134 464.54 332.133C485.253 332.133 505.966 332.646 526.658 331.949C539.927 331.518 549.545 337.096 557.81 346.509C513.615 346.632 469.441 346.755 425.247 346.858V346.837Z" fill="#56C3C5"/>
<path d="M464.561 332.113C452.543 332.113 440.505 332.113 428.487 332.113C418.131 317.922 407.774 303.751 397.418 289.56C401.376 286.77 405.621 285.15 410.543 286.258C428.672 301.413 447.457 315.769 464.561 332.113Z" fill="#CFDBE3"/>
<path d="M410.543 286.257C406.339 288.082 402.155 289.907 397.418 289.559C392.271 289.538 385.524 290.236 383.678 285.109C381.278 278.444 381.709 270.692 383.801 263.596C384.498 261.238 387.041 260.089 389.748 260.11C393.276 260.11 396.803 260.274 400.31 260.048C407.508 259.576 410.953 262.55 410.584 269.994C410.318 275.408 410.543 280.843 410.543 286.257Z" fill="#DDE6EC"/>
<path d="M528.239 418.924C559.329 428.665 590.46 438.345 621.488 448.271C626.205 449.768 634.141 449.193 632.89 457.048C631.639 464.923 624.154 461.826 619.314 461.826C537.59 461.99 455.887 461.949 374.164 461.949C371.99 461.949 369.796 462.052 367.622 461.908C358.393 461.272 355.297 455.1 360.67 447.368C367.355 437.771 374.451 428.48 381.383 419.047L528.239 418.924Z" fill="#394249"/>
<g clip-path="url(#clip0_622_2856)">
<path d="M714.732 358.108L713.506 358.537L714.864 362.451L716.09 362.023L714.732 358.108Z" fill="#545869"/>
<path d="M735.085 355.81L733.734 351.9L734.955 351.482L736.305 355.393L735.085 355.81Z" fill="#545869"/>
<path d="M754.251 349.213L753.135 346.007L754.381 345.59L755.472 348.796L754.251 349.213Z" fill="#545869"/>
<path d="M776.93 338.761L775.703 339.189L776.599 341.775L777.825 341.346L776.93 338.761Z" fill="#545869"/>
<path d="M679.141 378.976C679.141 378.976 681.779 377.826 686.353 376.061C690.969 374.254 697.521 371.79 705.475 368.998C721.383 363.331 742.73 356.392 764.242 349.862C785.713 343.333 807.308 337.133 823.545 332.616C839.783 328.181 850.621 325.225 850.621 325.225L850.951 326.374C850.951 326.374 840.195 329.495 823.999 334.217C807.844 338.981 786.373 345.51 765.025 352.367C743.678 359.266 722.454 366.534 706.711 372.406C698.84 375.322 692.329 377.909 687.795 379.756C683.262 381.604 680.748 382.754 680.748 382.754L679.059 379.017L679.141 378.976Z" fill="#56C3C5"/>
<path d="M785.858 435.497H785.598L786.248 337.327L705.273 364.411L698.494 370.928L698.312 370.72L705.143 364.151L786.507 336.988V337.171L785.858 435.497Z" fill="#545869"/>
<path d="M676.965 365.95C682.133 368.035 687.742 370.824 687.742 370.824L705.896 363.656C705.896 363.656 704.987 361.857 700.909 360.215C696.832 358.573 687.768 362.509 682.756 360.111L676.965 365.95Z" fill="#FBBCA1"/>
<path d="M701.869 364.958C702.493 364.046 703.324 362.717 703.895 361.778C703.22 361.309 702.311 360.814 701.142 360.318C700.077 360.683 698.623 361.257 696.467 362.247C689.663 365.323 686.287 367.513 686.287 367.513C686.287 367.513 693.844 366.601 698.156 366.184L701.869 364.984V364.958Z" fill="#FBBCA1"/>
<path d="M643.488 320.539C643.488 320.539 647.124 322.442 648.267 323.172C653.928 326.926 655.071 347.102 659.72 353.254C660.421 354.192 687.56 359.223 687.56 359.223L685.015 369.259C685.015 369.259 656.967 368.269 654.136 365.792C651.305 363.342 640.943 348.692 640.943 348.692L643.514 320.539H643.488Z" fill="#1D272C"/>
<path d="M705.895 366.288C706.57 365.402 706.233 363.968 705.895 363.317C705.376 362.326 706.025 361.049 702.753 360.606C699.48 360.163 691.611 365.585 691.404 366.914C691.196 368.27 692.079 370.772 695.247 370.824C699.091 370.876 704.597 367.957 705.869 366.288H705.895Z" fill="#FED4AC"/>
<path d="M701.402 371.137C701.402 374.291 698.83 376.872 695.688 376.872C692.546 376.872 689.975 374.291 689.975 371.137C689.975 367.983 692.546 365.402 695.688 365.402C698.83 365.402 701.402 367.957 701.402 371.137Z" fill="#394249"/>
<path d="M671.277 364.176C679.847 365.141 682.963 363.368 685.586 364.515C688.209 365.662 691.767 365.897 692.728 367.878C693.689 369.859 687.95 376.532 686.08 376.35C684.21 376.167 681.431 375.646 677.016 373.196C672.601 370.745 667.797 371.032 667.797 371.032L671.277 364.176Z" fill="#FED4AC"/>
<path d="M705.765 417.146C708.829 416.651 713.504 415.582 716.205 414.487C718.906 413.393 723.944 412.741 724.307 417.146C724.671 421.526 723.035 423.35 717.997 427.495C712.958 431.64 701.609 437.609 701.609 437.609C701.609 437.609 691.896 430.024 691.896 429.476V423.142L705.765 417.12V417.146Z" fill="#DDE6EC"/>
<path d="M688.467 437.271C692.778 441.963 697.998 449.21 699.635 449.027C701.245 448.845 706.647 442.849 708.802 440.06C710.958 437.271 717.45 432.761 719.06 429.164C720.67 425.541 719.424 423.742 716.905 422.308C714.386 420.875 710.776 425.384 707.711 427.183C704.647 428.982 699.687 433.778 694.882 430.467C690.078 427.183 688.441 437.297 688.441 437.297L688.467 437.271Z" fill="#DDE6EC"/>
<path d="M652.084 295.855C652.759 296.819 656.057 299.113 656.187 303.206C656.291 305.552 656.187 305.291 655.642 305.969C654.759 307.09 655.564 308.784 656.005 309.697C656.706 311.13 657.641 312.069 655.953 312.512C654.057 313.007 654.655 313.737 655.07 314.337C655.382 314.78 654.499 315.327 654.239 315.51C654.239 315.51 654.862 316.448 654.239 316.839C653.616 317.23 653.019 317.022 652.863 317.517C652.707 317.986 652.811 319.993 651.772 320.463C650.733 320.932 648.526 319.915 647.305 319.576C647.045 319.498 646.786 319.42 646.5 319.368C646.292 319.524 646.085 319.707 645.903 319.889C645.435 320.332 645.227 321.662 644.76 322.105C644.267 322.6 643.799 322.522 643.513 322.965C642.605 324.425 643.202 326.223 643.202 326.223L639.696 322.73C639.202 323.486 639.254 323.903 639.254 323.903C639.254 323.903 636.527 323.591 633.879 320.045C633.229 319.185 635.177 321.088 635.904 319.472C635.956 319.368 635.982 319.211 636.008 319.055L634.294 317.334C634.294 317.334 651.408 294.134 652.084 295.855Z" fill="#FED4AC"/>
<path d="M658.836 297.861L663.771 302.58C663.771 302.58 659.901 308.419 648.63 305.942C637.359 303.466 658.836 297.861 658.836 297.861Z" fill="#263238"/>
<path d="M624.479 312.407C625.387 306.854 625.387 299.946 630.478 292.465C635.542 284.958 642.398 285.27 646.891 287.069C651.358 288.868 660.188 296.949 658.837 297.861C657.487 298.747 652.578 300.781 652.578 303.492C652.578 306.203 649.618 318.845 646.294 320.826C642.969 322.808 626.608 318.089 626.608 318.089L624.504 312.407H624.479Z" fill="#1D272C"/>
<path d="M651.02 385.291C651.02 385.291 676.237 425.93 681.301 431.821C686.366 437.713 689.067 443.448 691.897 441.206C694.728 438.964 704.389 431.352 701.558 423.897C699.273 417.797 661.902 385.291 661.252 385.291H650.994H651.02Z" fill="#1D272C"/>
<path d="M612.921 371.658C612.506 379.791 612.713 388.758 621.232 391.808C629.75 394.858 662.368 389.983 663.589 389.983C664.81 389.983 687.248 418.814 690.494 422.88C693.74 426.947 697.844 432.108 700.285 431.274C702.726 430.466 711.218 422.255 712.439 415.738C712.439 415.738 711.842 413.287 707.972 410.863C704.128 408.413 687.3 383.649 684.651 381.016C682.028 378.383 681.82 376.558 673.899 375.333C666.004 374.108 647.539 370.25 647.539 370.25L612.869 371.684L612.921 371.658Z" fill="#263238"/>
<path d="M624.477 312.408C618.764 315.77 613.336 317.934 612.401 329.56C611.752 337.641 609.622 372.311 612.349 373.64C615.076 374.996 628.814 371.946 632.84 371.607C636.865 371.268 656.992 372.285 656.992 372.285C656.992 372.285 654.239 356.201 653.227 351.978C652.214 347.755 652.655 340.743 652.655 338.736C652.655 336.729 650.993 324.711 646.266 320.775C646.266 320.775 639.151 320.202 634.138 319.081C626.477 317.386 624.477 312.355 624.477 312.355V312.408Z" fill="#263238"/>
<path d="M655.355 363.004C653.278 360.658 637.878 340.038 637.878 340.038L621.257 333C622.893 341.941 620.945 355.34 620.633 358.598C620.322 361.857 620.685 367.722 611.336 368.243C611.44 371.293 611.725 373.352 612.349 373.665C615.076 375.021 628.814 371.971 632.839 371.632C636.865 371.293 656.992 372.31 656.992 372.31C656.992 372.31 656.238 367.852 655.355 363.004Z" fill="#1D272C"/>
<path d="M655.356 363.004C654.94 361.257 654.602 359.667 654.551 357.503C653.616 356.643 643.098 335.216 640.033 329.768C640.033 329.768 637.436 334.512 637.852 335.19C638.267 335.867 640.163 352.551 641.695 357.191C643.228 361.831 649.408 362.169 651.979 363.89C652.992 364.568 654.265 364.203 655.459 363.525C654.654 359.015 655.849 365.037 655.356 362.978V363.004Z" fill="#1D272C"/>
<path d="M627.334 323.016C621.516 324.893 619.465 330.028 621.256 336.414C623.048 342.801 639.669 368.608 643.539 371.188C647.408 373.769 676.547 374.968 676.547 374.968L677.248 362.951C677.248 362.951 653.408 359.562 651.927 358.389C650.447 357.216 642.188 336.362 641.305 332.973C640.111 328.333 634.917 320.539 627.334 323.016Z" fill="#263238"/>
</g>
<defs>
<clipPath id="clip0_622_2856">
<rect width="178" height="163" fill="white" transform="translate(611 286)"/>
</clipPath>
</defs>
</svg>
