<svg width="400" height="400" viewBox="0 0 400 400" fill="none" xmlns="http://www.w3.org/2000/svg">
<rect width="400" height="400" fill="white"/>
<path d="M113.649 216.286H20.6459V153.613H113.649V216.286V216.286Z" fill="white"/>
<path d="M20.949 215.983H113.346V153.917H20.949V215.983ZM113.952 216.589H20.3422V153.31H113.952V216.589V216.589Z" fill="#E7E8E5"/>
<path d="M29.6332 158.356C29.6332 158.637 29.5778 158.915 29.4701 159.175C29.3625 159.435 29.2047 159.671 29.0058 159.87C28.8069 160.069 28.5708 160.227 28.3109 160.334C28.051 160.442 27.7725 160.497 27.4913 160.497C26.9233 160.497 26.3785 160.271 25.9769 159.87C25.5752 159.468 25.3496 158.923 25.3496 158.355C25.3496 157.787 25.5752 157.243 25.9769 156.841C26.3785 156.439 26.9233 156.214 27.4913 156.214C28.0593 156.214 28.6041 156.44 29.0057 156.841C29.4074 157.243 29.6331 157.788 29.6332 158.356V158.356Z" fill="#273E47"/>
<path d="M38.3792 158.356C38.3792 158.637 38.3238 158.915 38.2161 159.175C38.1085 159.435 37.9507 159.671 37.7518 159.87C37.5529 160.069 37.3167 160.227 37.0569 160.334C36.797 160.442 36.5185 160.497 36.2372 160.497C35.956 160.497 35.6775 160.442 35.4176 160.334C35.1577 160.227 34.9216 160.069 34.7227 159.87C34.5238 159.671 34.366 159.435 34.2584 159.175C34.1507 158.915 34.0953 158.637 34.0953 158.356C34.104 157.793 34.3335 157.257 34.7342 156.862C35.135 156.468 35.6748 156.247 36.2372 156.247C36.7997 156.247 37.3395 156.468 37.7403 156.862C38.141 157.257 38.3705 157.793 38.3792 158.356Z" fill="#99E8E8"/>
<path d="M47.1244 158.356C47.1244 158.637 47.069 158.915 46.9614 159.175C46.8537 159.435 46.696 159.671 46.4971 159.87C46.2982 160.069 46.0621 160.227 45.8023 160.334C45.5425 160.442 45.264 160.497 44.9827 160.497C44.7015 160.497 44.423 160.442 44.1631 160.334C43.9032 160.227 43.6671 160.069 43.4682 159.87C43.2693 159.671 43.1115 159.435 43.0039 159.175C42.8962 158.915 42.8408 158.637 42.8408 158.356C42.8514 157.795 43.0817 157.26 43.4822 156.867C43.8827 156.474 44.4215 156.254 44.9826 156.254C45.5437 156.254 46.0825 156.474 46.483 156.867C46.8835 157.26 47.1138 157.795 47.1244 158.356Z" fill="#FAC843"/>
<path d="M113.649 163.359H20.6459V162.752H113.649V163.359V163.359Z" fill="#E7E8E5"/>
<path d="M393.901 260.011H300.897V197.339H393.901V260.011Z" fill="white"/>
<path d="M301.2 259.708H393.597V197.642H301.2V259.708V259.708ZM394.204 260.314H300.594V197.035H394.204V260.314V260.314Z" fill="#E7E8E5"/>
<path d="M309.883 202.081C309.883 203.263 308.925 204.222 307.743 204.222C307.461 204.223 307.183 204.167 306.923 204.06C306.663 203.952 306.426 203.794 306.227 203.595C306.028 203.397 305.871 203.16 305.763 202.9C305.655 202.64 305.6 202.362 305.6 202.081C305.6 201.799 305.655 201.521 305.763 201.261C305.871 201.001 306.028 200.764 306.227 200.566C306.426 200.367 306.663 200.209 306.923 200.101C307.183 199.994 307.461 199.938 307.743 199.939C308.925 199.939 309.883 200.898 309.883 202.081Z" fill="#273E47"/>
<path d="M318.629 202.081C318.629 202.362 318.574 202.64 318.466 202.9C318.359 203.16 318.201 203.397 318.002 203.595C317.803 203.794 317.567 203.952 317.307 204.06C317.047 204.167 316.768 204.223 316.487 204.222C315.304 204.222 314.346 203.263 314.346 202.081C314.346 200.898 315.304 199.939 316.487 199.939C317.671 199.939 318.629 200.898 318.629 202.081Z" fill="#E7E8E5"/>
<path d="M327.376 202.081C327.376 203.263 326.415 204.222 325.233 204.222C324.051 204.222 323.09 203.263 323.09 202.081C323.09 200.898 324.051 199.939 325.233 199.939C326.415 199.939 327.376 200.898 327.376 202.081Z" fill="#FABB1E"/>
<path d="M393.901 207.083H300.897V206.476H393.901V207.083Z" fill="#E7E8E5"/>
<path d="M86.0066 215.12C86.0066 220.57 81.5972 224.968 76.159 224.968C75.9837 224.968 75.8199 224.968 75.6561 224.956C75.6561 224.956 58.4176 224.992 58.1368 224.992C52.6986 224.992 48.2892 220.582 48.2892 215.144C48.2892 209.705 52.6986 205.296 58.1368 205.296H75.4922C75.7149 205.285 75.9371 205.273 76.159 205.273C81.5972 205.273 86.0066 209.682 86.0066 215.12Z" fill="#999B9B"/>
<path d="M58.2484 215.445C58.2535 215.062 58.3954 214.731 58.5893 214.418C58.6752 214.279 58.7717 214.147 58.8627 214.011L59.4568 213.416C59.6869 213.249 59.9119 213.076 60.1478 212.919C61.0994 212.288 62.158 211.927 63.2681 211.706C65.852 211.194 68.4375 211.208 71.0199 211.716C72.1154 211.931 73.1593 212.29 74.0991 212.911C74.3435 213.073 74.5758 213.252 74.8143 213.423L75.3881 213.996C75.5307 214.224 75.6956 214.441 75.8097 214.682C75.917 214.907 75.9697 215.159 76.054 215.421C75.9626 215.428 75.9208 215.435 75.8788 215.435C74.2464 215.437 72.6153 215.438 70.983 215.443C70.8833 215.444 70.8337 215.411 70.7863 215.326C70.4691 214.762 69.9916 214.444 69.3384 214.403C67.8645 214.308 66.3861 214.309 64.9124 214.405C64.2604 214.447 63.7842 214.768 63.4675 215.334C63.4288 215.401 63.3972 215.449 63.3014 215.45C61.6441 215.447 59.9878 215.45 58.3305 215.451L58.2484 215.445V215.445ZM58.2433 218.307C58.2416 217.732 58.2418 217.156 58.2423 216.581L58.2474 216.461C59.921 216.46 61.586 216.458 63.2637 216.455C63.2584 216.567 63.2474 216.695 63.2474 216.823C63.2461 217.313 63.2487 217.804 63.2479 218.295C63.2469 218.72 63.0362 218.931 62.61 218.932C61.3638 218.934 60.118 218.935 58.8724 218.935C58.4553 218.935 58.2441 218.725 58.2433 218.307V218.307ZM71.0148 218.333C71.0214 217.704 71.0451 217.075 71.0619 216.449C72.6688 216.447 74.3335 216.444 76.0072 216.443L76.0138 216.549C76.0151 217.135 76.0168 217.719 76.0163 218.305C76.0156 218.702 75.8016 218.919 75.4049 218.919C74.1442 218.922 72.8836 218.923 71.6232 218.922C71.2416 218.922 71.0105 218.706 71.0148 218.333" fill="white"/>
<path d="M371.613 196.928C365.832 194.71 363.717 187.701 367.307 182.655C369.75 179.219 374.324 177.845 378.26 179.357C384.041 181.578 386.15 188.568 382.563 193.616C380.12 197.053 375.549 198.438 371.613 196.928V196.928ZM388.591 199.289C388.048 198.412 388.076 197.314 388.611 196.43C388.757 196.188 388.896 195.943 389.029 195.695C389.164 195.443 389.292 195.189 389.414 194.934C389.852 194.004 390.747 193.374 391.776 193.342L395.294 193.233L394.938 181.775L391.396 181.884C390.369 181.915 389.439 181.34 388.945 180.438C388.679 179.949 388.387 179.474 388.069 179.017C387.48 178.162 387.378 177.062 387.87 176.146L389.529 173.053L379.422 167.633L377.763 170.727C377.274 171.643 376.301 172.168 375.264 172.148C374.703 172.138 374.148 172.157 373.592 172.205C372.568 172.293 371.575 171.837 371.034 170.963L369.164 167.954L359.424 173.996L361.287 177.001C361.819 177.861 361.814 178.944 361.289 179.807C361.136 180.06 360.989 180.318 360.846 180.581C360.706 180.843 360.573 181.109 360.446 181.377C360.015 182.298 359.111 182.902 358.094 182.933L354.573 183.038L354.93 194.497L358.438 194.385C359.45 194.353 360.403 194.884 360.884 195.773C361.175 196.308 361.496 196.826 361.845 197.325C362.425 198.151 362.474 199.238 361.997 200.127L360.339 203.218L370.443 208.638L372.104 205.546C372.594 204.63 373.569 204.104 374.609 204.125C375.167 204.136 375.725 204.117 376.28 204.07C377.307 203.983 378.301 204.441 378.843 205.317L380.703 208.318L390.443 202.275L388.591 199.289V199.289ZM335.952 169.622C332.318 169.622 329.371 166.673 329.371 163.04C329.371 159.407 332.318 156.465 335.952 156.465C339.585 156.465 342.527 159.407 342.527 163.04C342.527 166.673 339.585 169.622 335.952 169.622ZM348.074 165.404C347.445 165.042 347.101 164.354 347.139 163.631C347.147 163.435 347.154 163.238 347.154 163.04C347.154 162.84 347.147 162.641 347.139 162.444C347.101 161.724 347.445 161.038 348.069 160.678L350.204 159.446L346.191 152.49L344.056 153.721C343.429 154.082 342.66 154.046 342.054 153.651C341.72 153.433 341.374 153.232 341.019 153.051C340.377 152.724 339.964 152.075 339.964 151.355V148.896H331.931V151.355C331.931 152.075 331.518 152.724 330.876 153.051C330.52 153.233 330.176 153.433 329.842 153.651C329.236 154.047 328.466 154.082 327.84 153.721L325.704 152.49L321.689 159.446L323.834 160.684C324.459 161.045 324.8 161.73 324.764 162.449C324.744 162.843 324.744 163.238 324.764 163.631C324.8 164.354 324.456 165.042 323.829 165.403L321.689 166.634L325.704 173.59L327.832 172.36C328.459 171.998 329.231 172.033 329.834 172.428C330.17 172.646 330.517 172.847 330.874 173.029C331.518 173.356 331.931 174.005 331.931 174.726V177.184H339.964V174.726C339.964 174.005 340.377 173.356 341.022 173.029C341.378 172.847 341.727 172.646 342.061 172.428C342.668 172.033 343.437 171.998 344.061 172.36L346.191 173.59L350.204 166.634L348.074 165.404V165.404ZM64.4362 143.179C64.4362 139.546 67.3788 136.604 71.0112 136.604C74.6443 136.604 77.5929 139.546 77.5929 143.179C77.5929 146.812 74.6443 149.761 71.0112 149.761C67.3788 149.761 64.4362 146.812 64.4362 143.179V143.179ZM56.7574 146.773L60.771 153.729L62.8996 152.5C63.5256 152.138 64.296 152.173 64.9022 152.568C65.2377 152.786 65.5847 152.987 65.9419 153.168C66.5842 153.495 66.998 154.144 66.998 154.865V157.323H75.0313V154.865C75.0313 154.144 75.4451 153.495 76.0874 153.168C76.4447 152.987 76.7919 152.786 77.1276 152.568C77.733 152.173 78.5029 152.138 79.1294 152.5L81.2581 153.729L85.2721 146.773L83.1332 145.542C82.5065 145.181 82.1613 144.493 82.1985 143.77C82.2179 143.377 82.2179 142.982 82.1985 142.589C82.1613 141.869 82.5042 141.184 83.1276 140.824L85.2721 139.585L81.2581 132.629L79.1236 133.86C78.4968 134.221 77.7264 134.186 77.121 133.79C76.7869 133.572 76.4415 133.372 76.0861 133.191C75.4438 132.863 75.0313 132.215 75.0313 131.494V129.035H66.998V131.494C66.998 132.215 66.5855 132.863 65.9437 133.191C65.587 133.372 65.2418 133.573 64.908 133.79C64.3027 134.186 63.5322 134.221 62.9057 133.86L60.771 132.629L56.7574 139.585L58.893 140.817C59.5177 141.178 59.8614 141.864 59.8247 142.584C59.8043 142.979 59.8043 143.375 59.8247 143.77C59.8617 144.493 59.5169 145.181 58.8899 145.543L56.7574 146.773V146.773ZM218.033 144.508C218.033 164.211 202.059 180.183 182.356 180.183C162.653 180.183 146.681 164.211 146.681 144.508C146.681 124.804 162.653 108.832 182.356 108.832C202.059 108.832 218.033 124.804 218.033 144.508Z" fill="#E7E8E5"/>
<path d="M209.588 144.508C209.588 159.547 197.396 171.738 182.357 171.738C167.317 171.738 155.126 159.547 155.126 144.508C155.126 129.469 167.317 117.277 182.357 117.277C197.396 117.277 209.588 129.469 209.588 144.508V144.508Z" fill="white"/>
<path d="M201.816 144.508C201.816 155.255 193.104 163.967 182.357 163.967C171.609 163.967 162.897 155.255 162.897 144.508C162.897 133.76 171.609 125.048 182.357 125.048C193.104 125.048 201.816 133.76 201.816 144.508Z" fill="#E7E8E5"/>
<path d="M193.114 144.508C193.114 150.449 188.298 155.265 182.356 155.265C176.415 155.265 171.599 150.449 171.599 144.508C171.599 138.566 176.415 133.749 182.356 133.749C188.298 133.749 193.114 138.566 193.114 144.508Z" fill="white"/>
<path d="M187.22 144.508C187.22 147.193 185.042 149.371 182.357 149.371C179.671 149.371 177.494 147.193 177.494 144.508C177.494 141.821 179.671 139.644 182.357 139.644C185.042 139.644 187.22 141.821 187.22 144.508Z" fill="#E7E8E5"/>
<path d="M185.661 142.183L184.681 141.203L225.546 100.338L226.526 101.318L185.661 142.183V142.183Z" fill="#BEBFBD"/>
<path d="M187.699 143.076L182.357 144.507L183.788 139.166L187.699 143.076ZM232.872 98.1684L225.21 105.83L219.2 107.664L221.033 101.654L228.696 93.9911L226.862 100.001L232.872 98.1684V98.1684Z" fill="#999B9B"/>
<path d="M0 290.581L49.9997 290.434L99.9995 290.38L199.999 290.279L300 290.38L350 290.433L400 290.581L350 290.729L300 290.783L199.999 290.884L99.9995 290.782L49.9997 290.729L0 290.581Z" fill="#17282F"/>
<path d="M126.528 294.157H42.9289L36.4565 237.38H120.056L126.528 294.157Z" fill="#273E47"/>
<path d="M121.973 290.349H46.6161L41.0117 241.188H116.369L121.973 290.349" fill="white"/>
<path d="M87.9763 294.161H173.779V290.349H87.9763V294.161Z" fill="#273E47"/>
<path d="M130.594 294.161H173.779V290.349H130.594V294.161Z" fill="#17282F"/>
<path d="M95.3529 241.189L46.5753 289.967L45.1195 277.211L81.1338 241.189H95.3529ZM120.697 279.151L109.499 290.349H95.2803L119.241 266.388L120.697 279.151ZM50.3483 241.189L41.971 249.567L41.4734 245.217L45.5014 241.189H50.3483ZM118.307 258.186L86.1442 290.349H81.2912L117.809 253.832L118.307 258.186V258.186ZM56.6691 241.189L42.6135 255.244L42.4925 254.152L55.4558 241.189H56.6691ZM102.323 241.189L53.1628 290.349H51.9496L101.109 241.189H102.323ZM117.488 250.998L78.1371 290.349H76.9238L117.367 249.906L117.488 250.998V250.998Z" fill="#E7E8E5"/>
<path d="M272.976 294.157H356.576L363.047 237.38H279.447L272.976 294.157V294.157Z" fill="#273E47"/>
<path d="M277.531 290.349H352.887L358.492 241.188H283.134L277.531 290.349Z" fill="white"/>
<path d="M225.724 290.349V294.161H311.526V290.349H225.724Z" fill="#273E47"/>
<path d="M225.724 290.349V294.161H268.91V290.349H225.724Z" fill="#17282F"/>
<path d="M356.324 260.231L354.492 276.282L340.426 290.349H326.206L356.324 260.231ZM329.603 241.189L280.448 290.349H277.531L278.986 277.593L315.389 241.189H329.603ZM297.58 241.189L281.279 257.489L281.903 252.012L292.726 241.189H297.58ZM351.197 241.189L302.038 290.349H297.185L346.344 241.189H351.197ZM357.022 254.104L356.869 255.476L321.995 290.349H320.782L357.022 254.104ZM356.288 241.189L307.134 290.349H305.921L355.08 241.189H356.288ZM310.499 241.189L279.61 272.078L279.768 270.707L309.287 241.189H310.499Z" fill="#E7E8E5"/>
<path d="M120.603 208.651C130.974 229.585 146.326 250.475 150.441 254.425C161.492 265.033 190.998 272.657 199.694 272.898C203.448 273.003 208.641 248.057 205.874 245.148C203.107 242.239 166.672 234.319 164.721 232.824C163.365 231.785 145.987 215.267 134.467 205.462C120.149 193.275 117.879 203.154 120.603 208.651" fill="#F68C95"/>
<path d="M120.603 208.651C130.974 229.585 146.326 250.475 150.441 254.425C161.492 265.033 190.998 272.657 199.694 272.898C203.448 273.003 208.641 248.057 205.874 245.148C203.107 242.239 166.672 234.319 164.721 232.824C163.365 231.785 145.987 215.267 134.467 205.462C120.149 193.275 117.879 203.154 120.603 208.651" fill="url(#paint0_linear_2_2040)"/>
<path d="M197.825 241.689L188.421 271.382C188.421 271.382 157.589 263.237 149.34 255.332C141.091 247.428 124.002 218.999 120.664 209.636C117.327 200.273 119.502 192.871 134.588 205.023C149.675 217.175 162.522 229.606 165.201 231.607C167.88 233.608 197.825 241.689 197.825 241.689V241.689Z" fill="#FAC843"/>
<path d="M188.277 242.876C188.338 243.274 188.554 243.631 188.878 243.87C189.201 244.109 189.607 244.209 190.004 244.149C190.402 244.088 190.759 243.872 190.998 243.548C191.236 243.224 191.337 242.819 191.276 242.421C191.216 242.023 191 241.666 190.676 241.427C190.352 241.189 189.947 241.089 189.549 241.149C189.352 241.179 189.163 241.248 188.992 241.351C188.822 241.453 188.673 241.589 188.555 241.749C188.437 241.91 188.352 242.092 188.304 242.285C188.257 242.479 188.247 242.68 188.277 242.876V242.876ZM180.724 240.7C180.785 241.098 181.001 241.455 181.325 241.694C181.649 241.932 182.054 242.033 182.452 241.972C182.85 241.912 183.207 241.696 183.446 241.372C183.684 241.048 183.784 240.643 183.724 240.245C183.694 240.048 183.625 239.859 183.522 239.688C183.419 239.518 183.284 239.369 183.123 239.251C182.963 239.133 182.781 239.048 182.587 239C182.394 238.952 182.193 238.943 181.996 238.973C181.799 239.003 181.61 239.071 181.44 239.174C181.269 239.277 181.121 239.413 181.003 239.573C180.884 239.734 180.799 239.916 180.751 240.109C180.704 240.303 180.694 240.503 180.724 240.7V240.7ZM165.677 264.022C158.926 261.401 152.49 258.35 149.341 255.335C141.091 247.425 124.003 218.999 120.667 209.633C118.532 203.646 118.647 198.465 122.954 198.678L165.677 264.022Z" fill="#17282F"/>
<path d="M71.4338 290.339L149.265 290.355C149.577 287.51 133.561 208.206 125.939 198.264C124.307 196.139 118.929 195.548 114.355 196.117C113.089 196.268 111.886 196.514 110.834 196.837L110.716 196.869C109.653 197.212 108.751 197.642 108.128 198.136C95.4066 208.291 70.8218 289.642 71.4338 290.339" fill="#FAC843"/>
<path d="M119.607 216.192L122.916 209.749L127.184 214.409L126.141 219.047L121.925 219.589L119.607 216.192V216.192ZM121.925 219.589L119.908 266.982L128.791 282.656L133.402 265.016L126.141 219.047L121.925 219.589V219.589Z" fill="#17282F"/>
<path d="M121.804 208.888C120.578 208.841 112.449 202.481 109.95 197.528C109.78 197.188 110.409 193.69 110.971 189.403C111.303 186.801 111.611 183.895 111.7 181.223C111.715 180.675 113.549 181.745 113.549 181.745L116.979 182.696L128.32 185.855C128.32 185.855 126.486 191.4 126.359 196.059C126.351 196.427 126.378 196.796 126.437 197.159C126.442 197.21 126.454 197.271 126.456 197.341C126.725 199.435 123.808 208.968 121.804 208.888" fill="#F68C95"/>
<path d="M121.804 208.888C120.578 208.841 112.449 202.481 109.95 197.528C109.78 197.188 110.409 193.69 110.971 189.403C111.303 186.801 111.611 183.895 111.7 181.223C111.715 180.675 113.549 181.745 113.549 181.745L116.979 182.696L128.32 185.855C128.32 185.855 126.486 191.4 126.359 196.059C126.351 196.427 126.378 196.796 126.437 197.159C126.442 197.21 126.454 197.271 126.456 197.341C126.725 199.435 123.808 208.968 121.804 208.888" fill="url(#paint1_linear_2_2040)"/>
<path d="M126.437 197.159C126.442 197.21 126.454 197.271 126.456 197.341C125.928 197.398 125.356 197.41 124.73 197.375C113.456 196.747 112.526 182.353 112.526 182.353L116.979 182.696L128.32 185.855C128.32 185.855 126.486 191.4 126.359 196.059C126.351 196.427 126.377 196.796 126.437 197.159" fill="#17282F"/>
<path d="M117.913 192.823L117.912 192.817L117.913 192.823Z" fill="#F68A93"/>
<path d="M109.065 161.595C107.365 167.573 110.831 184.684 115.131 188.432C121.366 193.865 131.411 194.204 135.985 186.748C140.42 179.519 135.509 157.3 130.72 153.911C123.667 148.919 111.577 152.764 109.065 161.595" fill="#F68C95"/>
<path d="M109.065 161.595C107.365 167.573 110.831 184.684 115.131 188.432C121.366 193.865 131.411 194.204 135.985 186.748C140.42 179.519 135.509 157.3 130.72 153.911C123.667 148.919 111.577 152.764 109.065 161.595" fill="url(#paint2_linear_2_2040)"/>
<path d="M126.011 171.554L125.943 171.674C126.207 172.82 126.317 174.177 125.349 174.766L125.371 174.829C126.61 174.398 126.446 172.598 126.011 171.554" fill="#17282F"/>
<path d="M124.743 170.553C122.86 170.779 123.45 174.529 125.194 174.319C126.912 174.114 126.322 170.364 124.743 170.553ZM132.766 170.687L132.872 170.775C133.017 171.942 133.381 173.255 134.492 173.476L134.493 173.542C133.182 173.563 132.717 171.816 132.766 170.687V170.687Z" fill="#17282F"/>
<path d="M133.613 169.311C135.458 168.875 136.194 172.599 134.484 173.002C132.801 173.4 132.065 169.675 133.613 169.311ZM122.994 169.071C123.485 168.862 123.902 168.588 124.366 168.331C124.889 168.042 125.336 167.864 125.622 167.31C125.775 167.012 125.618 166.546 125.343 166.37C124.702 165.96 123.973 166.156 123.329 166.479C122.63 166.829 122.181 167.278 121.861 167.99C121.551 168.68 122.347 169.347 122.994 169.071V169.071ZM134.766 167.194C134.233 167.191 133.741 167.099 133.214 167.042C132.62 166.977 132.14 166.987 131.662 166.584C131.406 166.369 131.37 165.879 131.556 165.61C131.989 164.985 132.736 164.884 133.455 164.932C134.235 164.986 134.823 165.226 135.393 165.759C135.946 166.276 135.469 167.198 134.766 167.194V167.194ZM126.633 182.505C126.953 182.733 127.29 183.064 127.717 183.033C128.127 183.003 128.572 182.747 128.92 182.544L128.98 182.596C128.748 183.089 128.157 183.469 127.604 183.459C127.064 183.45 126.733 183.036 126.529 182.575C126.501 182.51 126.586 182.472 126.633 182.505" fill="#17282F"/>
<path d="M131.058 179.651C131.058 179.651 130.433 180.845 129.408 181.402C129.031 181.608 128.609 181.734 128.139 181.684C127.172 181.585 127.016 180.738 127.071 179.983C127.115 179.362 127.312 178.803 127.312 178.803C127.312 178.803 128.865 179.858 131.058 179.651" fill="white"/>
<path d="M127.307 178.835C128.116 179.741 129.158 180.142 130.224 180.18C130.7 180.199 131.188 180.139 131.657 180.021C131.748 180.005 131.837 179.98 131.924 179.947C132.007 179.923 132.082 179.901 132.172 179.868C132.304 179.827 132.362 179.703 132.364 179.571L132.362 179.562L132.333 179.446L132.332 179.437L132.313 179.335C132.197 178.438 131.896 177.09 131.896 177.09C132.249 177.203 134.033 177.69 133.933 177.227C133.094 173.395 132.161 169.134 130.517 165.498C130.468 165.375 130.278 165.435 130.309 165.561C130.97 169.276 132.28 172.849 133.003 176.57C132.439 176.451 131.513 176.214 131.046 176.297C130.926 176.353 131.674 178.889 131.694 179.297L131.693 179.34C130.221 179.768 129.017 179.493 127.399 178.713C127.302 178.661 127.223 178.754 127.307 178.835V178.835ZM111.08 174.939C115.164 174.328 114.875 166.794 114.875 166.794C114.875 166.794 121.724 164.619 121.973 159.188C121.973 159.188 129.254 162.467 134.214 159.804C139.173 157.14 137.209 151.378 136.444 150.195C135.679 149.013 133.119 151.79 133.119 151.79C133.119 151.79 132.298 148.487 131.352 148.276C130.406 148.066 129.73 150.236 129.73 150.236C129.73 150.236 122.653 148.957 116.557 150.025C110.46 151.093 108.33 157.706 108.33 157.706C108.33 157.706 105.158 158.88 104.432 161.327C103.706 163.775 108.476 175.329 111.08 174.939V174.939Z" fill="#17282F"/>
<path d="M113.23 167.086C118.763 167.014 121.837 162.882 121.866 157.568C121.867 157.502 121.961 157.495 121.969 157.561C122.52 162.427 118.785 168.485 113.214 167.333C113.079 167.306 113.086 167.089 113.23 167.086ZM108.462 157.586C108.524 157.562 108.569 157.652 108.514 157.688C107.098 158.615 105.435 159.396 104.57 160.937C103.523 162.797 104.122 164.95 104.881 166.781C106.056 169.617 108.133 173.221 111.018 174.568C111.184 174.646 111.058 174.888 110.891 174.821C107.462 173.42 104.9 168.724 103.959 165.321C102.904 161.51 104.997 158.947 108.462 157.586V157.586ZM128.139 159.835C130.74 160.926 134.298 160.47 136.401 158.49C138.962 156.079 137.877 152.876 136.24 150.315C136.16 150.189 136.333 150.016 136.445 150.133C138.487 152.299 139.16 155.943 137.128 158.358C135.028 160.855 130.827 161.395 127.959 160.196C127.72 160.096 127.9 159.734 128.139 159.835Z" fill="#17282F"/>
<path d="M124.689 168.975C124.335 168.988 123.976 169.046 123.62 169.15C121.315 169.831 119.993 172.261 120.673 174.567C121.354 176.871 123.785 178.196 126.089 177.513C128.395 176.832 129.716 174.403 129.036 172.097C128.46 170.147 126.634 168.901 124.689 168.975ZM125.045 178.361C122.801 178.446 120.692 177.008 120.028 174.757C119.242 172.095 120.768 169.291 123.429 168.505C126.091 167.719 128.895 169.245 129.681 171.906V171.906C130.466 174.568 128.941 177.372 126.28 178.158C125.879 178.277 125.464 178.346 125.045 178.361V178.361ZM135.583 167.185C135.497 167.188 135.413 167.196 135.328 167.209C134.538 167.332 133.855 167.884 133.404 168.761C132.938 169.674 132.78 170.821 132.962 171.991C133.333 174.366 134.992 176.088 136.672 175.824C138.346 175.564 139.407 173.418 139.037 171.044C138.855 169.874 138.355 168.829 137.632 168.101C137.011 167.477 136.292 167.158 135.583 167.185V167.185ZM136.448 176.522C134.524 176.594 132.703 174.689 132.298 172.095C132.093 170.785 132.274 169.492 132.806 168.454C133.356 167.38 134.215 166.702 135.224 166.544C136.237 166.384 137.258 166.771 138.11 167.627C138.933 168.454 139.498 169.63 139.702 170.939C140.129 173.681 138.817 176.171 136.777 176.49C136.667 176.506 136.557 176.517 136.448 176.522" fill="#33535F"/>
<path d="M129.605 172.508L129.097 172.065C129.753 171.314 131.364 170.19 132.781 171.3L132.366 171.83C131.099 170.834 129.665 172.439 129.605 172.508V172.508ZM107.648 177.243L107.01 177.03C107.11 176.732 108.023 174.109 109.47 173.636C110.823 173.199 119.865 172.643 120.249 172.62L120.289 173.292C117.697 173.448 110.724 173.935 109.679 174.276C108.724 174.588 107.889 176.524 107.648 177.243Z" fill="#33535F"/>
<path d="M113.679 175.7C113.679 175.7 109.582 170.303 107.117 171.785C104.654 173.268 107.887 181.197 110.886 182.182C113.886 183.167 114.851 180.408 114.851 180.408L113.679 175.7V175.7Z" fill="#F68C95"/>
<path d="M113.679 175.7C113.679 175.7 109.582 170.303 107.117 171.785C104.654 173.268 107.887 181.197 110.886 182.182C113.886 183.167 114.851 180.408 114.851 180.408L113.679 175.7V175.7Z" fill="url(#paint3_linear_2_2040)"/>
<path d="M108.101 174.036L108.088 174.115C110.194 174.874 111.361 176.753 112.203 178.716C111.556 177.972 110.701 177.585 109.702 178.359C109.65 178.4 109.704 178.483 109.763 178.468C110.604 178.253 111.222 178.376 111.823 179.033C112.248 179.499 112.549 180.097 112.862 180.642C112.966 180.823 113.297 180.711 113.218 180.5L113.199 180.453C113.148 177.808 110.949 174.19 108.101 174.036V174.036Z" fill="#17282F"/>
<path d="M126.495 197.563L122.442 207.505L110.163 194.949L106.668 198.962C106.668 198.962 118.663 218.895 118.74 217.995L122.84 209.468L128.719 215.42L128.273 200.509L126.495 197.563" fill="#FAC843"/>
<path d="M128.915 208.037C128.759 205.578 128.67 203.097 128.4 200.647C128.391 200.56 128.255 200.521 128.233 200.623C127.735 202.997 128.383 212.399 128.368 214.653L128.342 214.627C128.097 214.37 122.892 209.39 122.84 209.468C121.952 210.822 118.943 217.032 118.738 217.597C116.841 214.43 109.569 202.919 107.322 199.925C107.258 199.838 107.125 199.909 107.174 200.009C108.849 203.352 118.471 218.853 118.619 218.81C118.721 218.888 122.459 211.239 122.907 209.795C123.787 210.879 129.039 216.498 129.057 216.132C129.184 213.665 129.071 210.5 128.915 208.037Z" fill="#17282F"/>
<path d="M151.936 301.282L91.329 307.282L91.1361 260.295L151.743 254.295L151.936 301.282V301.282ZM110.919 253.139L91.0839 255.102L91.1361 260.295L112.363 258.193L110.919 253.139Z" fill="#FABB1E"/>
<path d="M91.3288 307.282L91.136 260.295L151.743 254.295L151.936 301.282L91.3288 307.282V307.282Z" fill="#99D7D7"/>
<path d="M91.1361 260.295L91.0839 255.102L110.919 253.139L112.363 258.193L91.1361 260.295V260.295Z" fill="#99E8E8"/>
<path d="M151.896 301.286L93.4434 307.072L85.0811 259.958L147.386 254.726L151.896 301.286Z" fill="#E7E8E5"/>
<path d="M151.897 301.286L91.9549 307.22L82.9951 261.936L146.002 255.699L151.897 301.286Z" fill="white"/>
<path d="M151.787 301.297L91.0492 307.309L82.1865 263.003L142.924 256.99L151.787 301.297V301.297Z" fill="#99D7D7"/>
<path d="M99.9783 205.219C79.2624 224.014 64.3144 256.415 64.7725 265.145C65.3783 276.678 86.2726 296.396 99.8769 302.105C103.32 303.55 116.629 275.38 111.594 273.913C106.28 272.365 93.9928 261.223 93.3946 260.718C92.1172 259.64 102.018 234.992 106.161 220.031C110.84 203.138 108.698 197.308 99.9783 205.219" fill="#F68C95"/>
<path d="M92.1844 297.795C105.358 307.31 123.274 309.371 126.366 309.058C129.001 308.798 130.356 308.64 130.356 308.64C135.091 308.267 136.793 306.022 136.793 306.022C136.793 306.022 142.395 307.203 143.671 303.935C145.113 300.275 136.963 299.333 132.798 296.074C123.255 288.608 111.779 275.325 109.241 272.899L92.1844 297.795V297.795Z" fill="#F68C95"/>
<path d="M92.1844 297.795C105.358 307.31 123.274 309.371 126.366 309.058C129.001 308.798 130.356 308.64 130.356 308.64C135.091 308.267 136.793 306.022 136.793 306.022C136.793 306.022 142.395 307.203 143.671 303.935C145.113 300.275 136.963 299.333 132.798 296.074C123.255 288.608 111.779 275.325 109.241 272.899L92.1844 297.795V297.795Z" fill="url(#paint4_linear_2_2040)"/>
<path d="M117.298 295.278C120.151 297.419 122.897 299.597 126.024 301.341C129.455 303.254 133.077 304.52 136.734 305.901C136.848 305.944 136.799 306.107 136.68 306.082C129.666 304.631 122.182 300.547 117.103 295.517C116.98 295.395 117.155 295.17 117.298 295.278ZM111.955 300.382C114.846 302.312 119.948 305.671 130.388 308.528L130.378 308.593C123.353 307.639 117.27 305.058 111.77 300.679C111.599 300.543 111.763 300.254 111.955 300.382Z" fill="#17282F"/>
<path d="M121.869 286.35C121.011 284.885 121.774 284.425 124.582 285.529C127.424 286.641 137.564 293.388 139.62 289.639C141.691 285.881 127.183 276.568 122.367 275.087C117.554 273.595 109.241 272.899 109.241 272.899C111.699 275.278 117.108 281.619 121.869 286.35" fill="#F68C95"/>
<path d="M121.869 286.35C121.011 284.885 121.774 284.425 124.582 285.529C127.424 286.641 137.564 293.388 139.62 289.639C141.691 285.881 127.183 276.568 122.367 275.087C117.554 273.595 109.241 272.899 109.241 272.899C111.699 275.278 117.108 281.619 121.869 286.35" fill="url(#paint5_linear_2_2040)"/>
<path d="M92.6612 299.916L109.164 272.21C109.164 272.21 93.7193 261.38 93.6451 260.295C93.5718 259.21 104.499 229.36 107.802 214.669C111.104 199.977 109.467 192.968 95.0077 209.348C80.5491 225.729 62.0026 253.284 62.9865 265.094C63.9705 276.903 92.6612 299.916 92.6612 299.916" fill="#FAC843"/>
<path d="M105.058 228.715C104.458 229.767 103.817 230.795 103.272 231.878C103.095 232.23 102.919 232.582 102.742 232.935C102.877 232.511 103.016 232.088 103.151 231.664C103.998 229.001 104.819 226.326 105.532 223.624C105.55 223.558 105.446 223.513 105.419 223.579C103.511 228.164 101.937 232.893 100.371 237.604C98.7954 242.349 97.3136 247.126 95.9036 251.923C95.1169 254.602 94.3021 257.293 93.6853 260.017C93.6713 260.078 93.7556 260.096 93.7775 260.041C94.685 257.706 95.4578 255.311 96.2463 252.935C97.0356 250.559 97.8315 248.185 98.605 245.804C99.8369 242.009 101.054 238.21 102.268 234.409C102.819 233.726 103.193 232.909 103.593 232.124C104.152 231.021 104.606 229.872 105.103 228.74L105.058 228.715V228.715ZM89.7306 292.961C89.6689 293.15 89.645 293.35 89.6604 293.548C89.6759 293.747 89.7303 293.94 89.8205 294.118C89.9108 294.295 90.0351 294.454 90.1865 294.583C90.3378 294.712 90.5132 294.811 90.7026 294.873C90.892 294.934 91.0916 294.958 91.2902 294.943C91.4888 294.927 91.6824 294.873 91.86 294.783C92.0375 294.693 92.1955 294.568 92.325 294.417C92.4545 294.265 92.5528 294.09 92.6145 293.901C92.739 293.518 92.7067 293.102 92.5246 292.744C92.3425 292.385 92.0255 292.114 91.6433 291.989C91.2608 291.864 90.8444 291.896 90.4857 292.079C90.1271 292.261 89.8555 292.578 89.7306 292.961V292.961ZM83.961 287.623C83.8992 287.812 83.8754 288.012 83.8909 288.211C83.9063 288.409 83.9607 288.603 84.051 288.78C84.1413 288.958 84.2657 289.116 84.417 289.246C84.5684 289.375 84.7438 289.474 84.9332 289.535C85.1226 289.597 85.3223 289.621 85.5209 289.605C85.7195 289.59 85.9131 289.536 86.0907 289.445C86.2683 289.355 86.4264 289.231 86.5559 289.079C86.6854 288.928 86.7838 288.752 86.8455 288.563C86.9702 288.181 86.9378 287.764 86.7555 287.406C86.5732 287.047 86.2558 286.775 85.8733 286.651C85.4908 286.526 85.0744 286.558 84.7158 286.741C84.3571 286.923 84.0856 287.24 83.961 287.623V287.623ZM73.5862 282.158C75.5001 283.789 77.294 285.532 79.0731 287.289C79.9556 288.175 80.8371 289.061 81.7034 289.963C82.5768 290.858 83.4262 291.776 84.282 292.696C82.2578 291.201 80.4287 289.476 78.6461 287.719C76.8771 285.945 75.1579 284.121 73.5862 282.158ZM284.894 157.098C286.191 152.928 291.87 143.742 301.034 146.513C314.115 150.468 313.615 176.351 319.493 184.987C330.143 200.637 329.177 215.038 319.103 216.402C307.814 217.929 298.186 205.059 301.019 179.449C302.79 163.436 298.94 155.899 295.694 156.074C292.451 156.249 290.324 160.128 290.324 160.128L284.894 157.098" fill="#17282F"/>
<path d="M285.49 155.542C286.331 153.631 287.409 151.82 288.698 150.148C289.995 148.489 291.58 146.998 293.493 145.979C295.389 144.937 297.651 144.489 299.827 144.776C301.972 145.051 304.069 145.825 305.86 147.079C307.643 148.342 309.06 150.046 310.133 151.892C311.197 153.749 311.987 155.729 312.594 157.748C313.761 161.802 314.301 165.972 314.535 170.134C313.845 166.023 313.004 161.94 311.72 158.026C311.022 156.092 310.237 154.192 309.175 152.466C308.13 150.736 306.813 149.175 305.18 148.041C303.567 146.884 301.648 146.169 299.676 145.878C297.722 145.564 295.71 145.929 293.911 146.795C292.107 147.667 290.502 148.988 289.136 150.519C288.431 151.269 287.799 152.088 287.185 152.924C286.591 153.778 286.026 154.651 285.49 155.542V155.542ZM301.778 170.603C301.674 173.162 301.289 175.696 300.999 178.233C300.673 180.765 300.357 183.295 300.117 185.826C299.888 188.358 299.712 190.891 299.73 193.42C299.738 195.944 299.898 198.47 300.392 200.923C300.866 203.373 301.682 205.764 303.014 207.841C304.359 209.888 306.153 211.736 308.143 213.209C310.15 214.678 312.482 215.721 314.958 216.126C316.194 216.337 317.46 216.397 318.718 216.28C319.348 216.224 319.975 216.123 320.589 215.975C321.205 215.829 321.824 215.658 322.38 215.34C321.304 216.048 320.02 216.372 318.757 216.589C317.483 216.797 316.176 216.828 314.879 216.698C313.585 216.556 312.308 216.239 311.083 215.783C309.86 215.318 308.701 214.691 307.615 213.961C306.527 213.232 305.524 212.387 304.601 211.463L303.921 210.758L303.276 210.024C302.848 209.531 302.438 209 302.079 208.448C300.617 206.234 299.75 203.7 299.238 201.152C298.265 196.014 298.563 190.801 299.205 185.725C299.529 183.179 299.967 180.657 300.431 178.144C300.912 175.633 301.411 173.132 301.778 170.603" fill="#17282F"/>
<path d="M284.125 157.098C284.089 155.9 284.955 154.356 285.73 154.142C286.507 153.927 292.26 156.399 292.754 157.875C293.248 159.351 290.688 160.654 290.688 160.654L284.125 157.098Z" fill="#33535F"/>
<path d="M288.563 210.067C285.144 217.505 259.715 252.467 247.089 253.422C233.877 254.42 202.184 232.828 199.146 231.03C190.818 226.101 214.04 203.366 218.057 207.403C224.769 214.152 240.81 226.869 244.733 226.009C252.978 224.203 270.153 209.778 282.336 202.271C289.689 197.742 292.344 201.839 288.563 210.067V210.067Z" fill="#BE5253"/>
<path d="M288.563 210.067C285.144 217.505 259.715 252.467 247.089 253.422C233.877 254.42 202.184 232.828 199.146 231.03C190.818 226.101 214.04 203.366 218.057 207.403C224.769 214.152 240.81 226.869 244.733 226.009C252.978 224.203 270.153 209.778 282.336 202.271C289.689 197.742 292.344 201.839 288.563 210.067V210.067Z" fill="url(#paint6_linear_2_2040)"/>
<path d="M201.143 232.19C199.706 231.236 188.148 224.814 183.811 218.621C181.515 215.341 176.218 205.615 178.039 203.968C179.701 202.465 181.808 204.774 181.808 204.774C181.808 204.774 179.509 200.402 181.843 198.34C184.178 196.277 187.531 200.357 187.531 200.357C187.531 200.357 185.498 195.696 187.974 193.805C190.449 191.914 193.133 196.581 193.133 196.581C193.133 196.581 191.077 192.405 193.771 191.706C197.013 190.864 199.936 198.99 203.078 202.115C203.792 202.825 218.569 215.469 218.569 215.469L201.143 232.19" fill="#BE5253"/>
<path d="M201.143 232.19C199.706 231.236 188.148 224.814 183.811 218.621C181.515 215.341 176.218 205.615 178.039 203.968C179.701 202.465 181.808 204.774 181.808 204.774C181.808 204.774 179.509 200.402 181.843 198.34C184.178 196.277 187.531 200.357 187.531 200.357C187.531 200.357 185.498 195.696 187.974 193.805C190.449 191.914 193.133 196.581 193.133 196.581C193.133 196.581 191.077 192.405 193.771 191.706C197.013 190.864 199.936 198.99 203.078 202.115C203.792 202.825 218.569 215.469 218.569 215.469L201.143 232.19" fill="url(#paint7_linear_2_2040)"/>
<path d="M193.313 196.577C195.477 202.548 197.456 204.785 202.394 208.619C202.491 208.693 202.401 208.854 202.293 208.785C197.116 205.471 194.228 203.023 193.019 196.667C192.959 196.356 193.211 196.294 193.313 196.577ZM187.713 200.329C190.502 206.334 192.627 208.78 197.504 213.175C197.573 213.238 197.475 213.361 197.4 213.304C192.255 209.392 189.43 206.884 187.432 200.517C187.341 200.23 187.585 200.055 187.713 200.329ZM182.049 204.979C185.169 210.598 187.383 213.38 192.666 217.039C192.79 217.126 192.677 217.315 192.543 217.241C186.793 214.034 184.004 210.583 181.889 205.092C181.744 204.718 181.853 204.626 182.049 204.979V204.979Z" fill="#17282F"/>
<path d="M223.573 213.644C223.573 213.644 220.294 206.393 218.15 203.526C216.007 200.659 204.087 192.915 202.268 195.394C199.92 198.595 205.921 204.421 209.232 206.891C209.232 206.891 203.792 214.291 207.194 219.405C210.596 224.518 223.573 213.644 223.573 213.644Z" fill="#BE5253"/>
<path d="M223.573 213.644C223.573 213.644 220.294 206.393 218.15 203.526C216.007 200.659 204.087 192.915 202.268 195.394C199.92 198.595 205.921 204.421 209.232 206.891C209.232 206.891 203.792 214.291 207.194 219.405C210.596 224.518 223.573 213.644 223.573 213.644Z" fill="url(#paint8_linear_2_2040)"/>
<path d="M201.911 196.485C201.875 200.949 206.432 203.91 209.466 206.546C209.696 206.747 209.616 207.003 209.428 207.149C207.355 210.404 205.379 215.597 206.948 219.355C206.993 219.465 206.843 219.545 206.782 219.441C204.553 215.639 206.078 210.378 208.577 206.959C205.424 204.304 200.984 201.134 201.868 196.482L201.911 196.485" fill="#17282F"/>
<path d="M288.217 212.18C284.257 220.074 261.169 253.741 248.7 254.276C236.23 254.812 210.103 244.165 210.103 244.165L229.459 214.691C229.459 214.691 242.857 224.36 244.959 224.436C247.06 224.514 275.2 205.925 281.773 201.841C288.346 197.756 294.655 199.345 288.217 212.18" fill="#99E8E8"/>
<path d="M227.774 244.383C227.66 243.468 227.729 242.577 227.842 241.691C227.974 240.809 228.15 239.934 228.511 239.084C228.627 240 228.557 240.891 228.443 241.775C228.31 242.657 228.134 243.533 227.774 244.383ZM266.303 238.481C266.189 237.565 266.257 236.674 266.372 235.789C266.504 234.907 266.68 234.032 267.042 233.181C267.157 234.098 267.085 234.989 266.971 235.873C266.838 236.755 266.662 237.631 266.303 238.481V238.481ZM268.438 216.056C267.521 216.17 266.632 216.1 265.745 215.988C264.864 215.856 263.987 215.679 263.139 215.318C264.054 215.203 264.945 215.273 265.829 215.387C266.711 215.52 267.587 215.696 268.438 216.056V216.056ZM237.388 226.228C236.471 226.342 235.58 226.273 234.696 226.159C233.814 226.028 232.938 225.852 232.087 225.491C233.004 225.375 233.895 225.445 234.779 225.559C235.661 225.692 236.537 225.869 237.388 226.228V226.228ZM241.916 253.613L241.801 253.752L241.643 253.728C241.734 253.691 241.825 253.649 241.916 253.613ZM220.022 233.803C220.59 233.074 221.268 232.494 221.975 231.948C222.691 231.417 223.435 230.922 224.292 230.577C223.725 231.306 223.046 231.887 222.34 232.431C221.622 232.961 220.878 233.456 220.022 233.803V233.803ZM252.31 227.104C252.877 226.375 253.556 225.795 254.262 225.249C254.978 224.718 255.722 224.223 256.578 223.878C256.013 224.607 255.335 225.188 254.628 225.732C253.91 226.262 253.166 226.757 252.31 227.104V227.104ZM241.594 236.347C242.323 236.914 242.904 237.593 243.45 238.299C243.98 239.016 244.475 239.759 244.821 240.616C244.092 240.05 243.511 239.371 242.966 238.664C242.436 237.946 241.942 237.203 241.594 236.347V236.347ZM272.25 222.522C272.978 223.089 273.559 223.769 274.104 224.474C274.634 225.191 275.129 225.935 275.475 226.791C274.747 226.225 274.166 225.546 273.62 224.84C273.09 224.122 272.596 223.378 272.25 222.522V222.522Z" fill="white"/>
<path d="M233.646 219.481C231.208 223.887 228.86 228.339 226.229 232.635C223.633 236.874 220.962 241.13 217.933 245.074C217.875 245.148 217.748 245.069 217.792 244.985C220.123 240.587 222.783 236.344 225.373 232.094C227.984 227.811 230.768 223.64 233.372 219.354C233.471 219.191 233.741 219.308 233.646 219.481V219.481ZM288.219 212.183C284.257 220.076 261.169 253.743 248.698 254.277C245.671 254.404 241.837 253.876 237.773 252.997C247.467 242.63 274.576 213.391 287.126 199.858C290.938 199.627 292.787 203.072 288.219 212.183V212.183Z" fill="#17282F"/>
<path d="M265.208 290.339H338.413C338.413 290.339 309.949 218.279 294.79 203.782C290.67 199.84 280.492 200.132 275.506 206.78C271.417 212.229 260.069 233.924 259.549 241.727C259.055 249.548 265.154 257.234 265.154 257.234L265.208 290.339Z" fill="#99E8E8"/>
<path d="M274.563 263.339C274.448 262.423 274.52 261.532 274.632 260.647C274.764 259.765 274.94 258.889 275.302 258.039C275.417 258.955 275.348 259.846 275.233 260.731C275.101 261.613 274.925 262.489 274.563 263.339ZM324.866 276.903C324.752 275.988 324.82 275.096 324.932 274.211C325.065 273.329 325.241 272.454 325.603 271.603C325.717 272.52 325.648 273.411 325.534 274.296C325.401 275.177 325.225 276.053 324.866 276.903V276.903ZM293.284 288.756C293.169 287.84 293.241 286.949 293.353 286.064C293.485 285.182 293.661 284.306 294.02 283.456C294.138 284.372 294.066 285.263 293.954 286.148C293.819 287.03 293.643 287.906 293.284 288.756V288.756ZM286.008 234.362C285.893 233.445 285.964 232.554 286.076 231.669C286.206 230.787 286.385 229.912 286.744 229.061C286.861 229.978 286.79 230.868 286.678 231.753C286.543 232.635 286.367 233.511 286.008 234.362V234.362ZM305.462 256.261C305.348 255.345 305.417 254.454 305.531 253.569C305.661 252.687 305.839 251.812 306.199 250.961C306.316 251.878 306.245 252.768 306.13 253.654C305.997 254.535 305.822 255.411 305.462 256.261ZM266.303 238.481C266.189 237.565 266.257 236.674 266.372 235.789C266.504 234.907 266.68 234.032 267.042 233.181C267.157 234.098 267.085 234.989 266.971 235.873C266.838 236.755 266.662 237.631 266.303 238.481V238.481ZM292.046 260.02C291.131 260.134 290.239 260.064 289.355 259.951C288.474 259.82 287.597 259.644 286.746 259.282C287.664 259.167 288.553 259.237 289.439 259.351C290.321 259.484 291.197 259.66 292.046 260.02V260.02ZM314.125 239.084C313.21 239.198 312.318 239.127 311.434 239.015C310.55 238.883 309.676 238.707 308.825 238.345C309.743 238.23 310.632 238.3 311.518 238.415C312.397 238.548 313.274 238.724 314.125 239.084ZM274.729 284.639C273.814 284.752 272.922 284.683 272.038 284.57C271.157 284.439 270.28 284.262 269.429 283.901C270.346 283.786 271.238 283.856 272.122 283.969C273.004 284.103 273.88 284.279 274.729 284.639ZM315.799 266.507C314.884 266.62 313.992 266.55 313.108 266.438C312.227 266.306 311.35 266.13 310.499 265.768C311.417 265.653 312.308 265.723 313.192 265.837C314.074 265.97 314.95 266.146 315.799 266.507V266.507ZM281.146 276.454C281.715 275.725 282.392 275.144 283.098 274.598C283.817 274.068 284.561 273.574 285.417 273.228C284.851 273.957 284.171 274.537 283.465 275.083C282.746 275.612 282.003 276.107 281.146 276.454ZM308.825 281.742C309.394 281.014 310.071 280.433 310.777 279.887C311.496 279.357 312.237 278.862 313.096 278.516C312.527 279.246 311.85 279.827 311.144 280.371C310.425 280.901 309.682 281.395 308.825 281.742ZM316.155 255.847C316.724 255.119 317.404 254.539 318.107 253.993C318.825 253.462 319.569 252.967 320.425 252.621C319.86 253.351 319.18 253.932 318.474 254.476C317.755 255.006 317.011 255.501 316.155 255.847V255.847ZM272.448 246.54C273.017 245.811 273.694 245.231 274.4 244.685C275.118 244.154 275.862 243.659 276.718 243.314C276.15 244.043 275.473 244.624 274.767 245.168C274.048 245.698 273.304 246.193 272.448 246.54ZM300.754 228.716C301.32 227.988 302 227.408 302.706 226.862C303.422 226.331 304.166 225.836 305.024 225.491C304.456 226.22 303.778 226.801 303.07 227.346C302.354 227.875 301.61 228.37 300.754 228.716ZM267.096 267.856C266.538 268.572 265.87 269.149 265.175 269.688V268.949C265.768 268.523 266.4 268.141 267.096 267.856ZM286.334 217.3C286.902 216.572 287.582 215.991 288.288 215.445C289.004 214.914 289.748 214.42 290.604 214.074C290.038 214.804 289.358 215.384 288.652 215.929C287.934 216.458 287.19 216.954 286.334 217.3V217.3ZM262.196 250.237C262.925 250.804 263.506 251.484 264.051 252.189C264.581 252.905 265.075 253.65 265.422 254.507C264.69 253.94 264.112 253.26 263.567 252.554C263.037 251.837 262.543 251.093 262.196 250.237ZM272.25 222.522C272.978 223.089 273.559 223.769 274.104 224.474C274.634 225.191 275.129 225.935 275.475 226.791C274.746 226.225 274.166 225.546 273.62 224.84C273.09 224.122 272.596 223.378 272.25 222.522V222.522ZM297.636 267.334C298.364 267.902 298.945 268.581 299.493 269.286C300.023 270.003 300.517 270.747 300.864 271.604C300.132 271.037 299.552 270.358 299.009 269.651C298.479 268.934 297.985 268.19 297.636 267.334ZM323.99 284.934C324.718 285.502 325.299 286.181 325.845 286.887C326.374 287.604 326.869 288.348 327.215 289.204C326.487 288.638 325.906 287.958 325.361 287.251C324.831 286.535 324.336 285.79 323.99 284.934ZM297.146 209.437C297.875 210.004 298.456 210.684 299.001 211.389C299.531 212.105 300.028 212.85 300.372 213.706C299.643 213.14 299.062 212.46 298.517 211.754C297.987 211.036 297.493 210.292 297.146 209.437ZM292.423 243.59C293.152 244.157 293.732 244.837 294.278 245.542C294.81 246.259 295.304 247.003 295.651 247.86C294.92 247.293 294.339 246.614 293.796 245.908C293.266 245.19 292.772 244.446 292.423 243.59V243.59Z" fill="white"/>
<path d="M289.926 204.48C289.521 205.561 283.261 212.105 278.199 211.205C276.548 210.909 277.763 201.838 277.763 201.838L277.699 201.148L276.818 191.488L288.764 185.844L290.482 185.114C290.482 185.114 290.548 187.774 290.596 191.085C290.599 191.238 290.604 191.392 290.604 191.556C290.611 191.744 290.622 191.92 290.622 192.096C290.634 192.59 290.647 193.095 290.647 193.599C290.65 193.982 290.655 194.354 290.642 194.756C290.642 195.16 290.632 195.552 290.629 195.957C290.527 199.939 290.092 204.02 289.926 204.48" fill="#BE5253"/>
<path d="M289.926 204.48C289.521 205.561 283.261 212.105 278.199 211.205C276.548 210.909 277.763 201.838 277.763 201.838L277.699 201.148L276.818 191.488L288.764 185.844L290.482 185.114C290.482 185.114 290.548 187.774 290.596 191.085C290.599 191.238 290.604 191.392 290.604 191.556C290.611 191.744 290.622 191.92 290.622 192.096C290.634 192.59 290.647 193.095 290.647 193.599C290.65 193.982 290.655 194.354 290.642 194.756C290.642 195.16 290.632 195.552 290.629 195.957C290.527 199.939 290.092 204.02 289.926 204.48" fill="url(#paint9_linear_2_2040)"/>
<path d="M290.596 191.085C286.938 198.207 280.573 200.478 277.699 201.148L276.818 191.488L288.764 185.844L290.482 185.114C290.482 185.114 290.548 187.774 290.596 191.085V191.085Z" fill="#17282F"/>
<path d="M264.535 177.259C263.182 194.23 273.195 196.955 276.856 197.242C280.178 197.503 291.524 197.968 294.619 181.228C297.717 164.487 290.252 158.494 282.685 157.496C275.119 156.498 265.883 160.288 264.535 177.259Z" fill="#BE5253"/>
<path d="M264.535 177.259C263.182 194.23 273.195 196.955 276.856 197.242C280.178 197.503 291.524 197.968 294.619 181.228C297.717 164.487 290.252 158.494 282.685 157.496C275.119 156.498 265.883 160.288 264.535 177.259Z" fill="url(#paint10_linear_2_2040)"/>
<path d="M267.394 173.651C267.794 173.609 268.155 173.503 268.548 173.42C268.989 173.326 269.35 173.297 269.676 172.959C269.855 172.779 269.845 172.408 269.684 172.22C269.312 171.783 268.741 171.764 268.206 171.855C267.625 171.954 267.203 172.179 266.815 172.623C266.438 173.052 266.866 173.708 267.394 173.651ZM278.69 173.894C278.293 173.843 277.934 173.731 277.544 173.64C277.103 173.538 276.744 173.502 276.42 173.158C276.25 172.974 276.268 172.603 276.428 172.42C276.81 171.99 277.378 171.981 277.913 172.082C278.492 172.192 278.912 172.425 279.289 172.876C279.659 173.312 279.218 173.96 278.69 173.894V173.894ZM276.033 178.172L276.117 178.277C276.043 179.435 276.153 180.773 277.187 181.192L277.177 181.256C275.903 181.034 275.776 179.257 276.033 178.172" fill="#17282F"/>
<path d="M277.106 176.996C278.973 176.916 278.999 180.658 277.266 180.732C275.564 180.805 275.541 177.063 277.106 176.996Z" fill="#17282F"/>
<path d="M277.842 177.189C278.171 177.399 278.494 177.771 278.887 177.807C279.343 177.849 279.684 177.456 279.982 177.077L280.046 177.12C280.061 177.837 279.788 178.574 279.022 178.686C278.321 178.788 277.814 178.156 277.63 177.436C277.595 177.303 277.709 177.105 277.842 177.189V177.189ZM269.597 177.916L269.511 178.02C269.564 179.178 269.429 180.514 268.387 180.914L268.397 180.978C269.674 180.78 269.834 179.005 269.597 177.916Z" fill="#17282F"/>
<path d="M268.548 176.721C266.68 176.605 266.586 180.346 268.316 180.453C270.018 180.558 270.112 176.818 268.548 176.721Z" fill="#17282F"/>
<path d="M267.76 176.946C267.46 177.138 267.159 177.49 266.805 177.505C266.395 177.522 266.102 177.11 265.85 176.715L265.791 176.754C265.753 177.469 265.972 178.219 266.655 178.374C267.279 178.515 267.755 177.912 267.944 177.204C267.977 177.073 267.883 176.87 267.76 176.946V176.946ZM276.117 187.345C275.855 187.63 275.597 188.017 275.18 188.074C274.777 188.129 274.296 187.971 273.918 187.847L273.873 187.909C274.194 188.338 274.841 188.583 275.373 188.462C275.893 188.343 276.127 187.877 276.232 187.391C276.245 187.323 276.155 187.303 276.117 187.345V187.345ZM271.294 183.127C271.294 183.127 271.045 184.858 271.039 185.674C271.039 185.751 271.238 185.788 271.516 185.806L271.546 185.807C272.988 186.04 274.443 185.55 275.325 184.378C275.383 184.298 275.279 184.213 275.205 184.264C274.122 185.049 272.932 185.246 271.653 185.26C271.597 185.033 272.178 182.312 272.048 182.301C271.603 182.261 270.721 182.559 270.194 182.711C270.606 179.092 271.597 175.569 271.954 171.96C271.967 171.831 271.781 171.791 271.743 171.906C270.443 175.525 269.875 179.678 269.353 183.405C269.281 183.869 270.966 183.264 271.294 183.127" fill="#17282F"/>
<path d="M271.689 185.636C271.689 185.636 272.479 186.729 273.572 187.133C273.977 187.284 274.41 187.346 274.869 187.23C275.811 186.994 275.845 186.133 275.682 185.394C275.549 184.786 275.276 184.26 275.276 184.26C275.276 184.26 273.888 185.527 271.689 185.636" fill="#17282F"/>
<path d="M273.572 187.133C273.975 187.284 274.41 187.346 274.869 187.23C275.812 186.994 275.845 186.133 275.682 185.394C274.675 185.485 273.669 186.156 273.572 187.133Z" fill="#F57A76"/>
<path d="M293.865 182.918C290.13 181.137 289.982 177.216 289.982 177.216C285.343 175.206 282.846 171.575 282.586 171.207C282.701 171.556 283.506 174.081 283.959 175.354C273.223 173.297 269.936 165.06 269.936 165.06C266.436 168.522 265.73 170.743 265.22 171.851C265.22 171.851 265.172 165.258 268.581 160.859C272.754 155.474 286.767 154.078 293.218 161.157C300.163 168.792 293.865 182.918 293.865 182.918" fill="#17282F"/>
<path d="M275.799 173.538C277.506 174.509 279.406 175.168 281.302 175.587L281.307 175.563C278.283 174.691 275.572 173.092 273.442 170.758C272.541 169.774 271.766 168.682 271.136 167.507C270.479 166.275 269.839 164.808 269.727 163.404C269.72 163.297 269.554 163.311 269.562 163.417C269.679 164.901 269.804 166.27 270.395 167.655C270.958 168.971 271.768 170.197 272.767 171.223C273.659 172.141 274.688 172.905 275.799 173.538Z" fill="#17282F"/>
<path d="M291.819 182.316C291.819 182.316 295.498 176.976 297.918 178.284C300.339 179.591 297.6 187.314 294.777 188.388C291.954 189.462 290.907 186.868 290.907 186.868L291.819 182.316Z" fill="#BE5253"/>
<path d="M291.819 182.316C291.819 182.316 295.498 176.976 297.918 178.284C300.339 179.591 297.6 187.314 294.777 188.388C291.954 189.462 290.907 186.868 290.907 186.868L291.819 182.316Z" fill="url(#paint11_linear_2_2040)"/>
<path d="M297.078 180.478L297.093 180.553C295.113 181.371 294.082 183.22 293.363 185.133C293.949 184.394 294.749 183.986 295.738 184.682C295.791 184.718 295.743 184.799 295.687 184.788C294.871 184.62 294.285 184.765 293.743 185.42C293.355 185.884 293.096 186.469 292.82 187.003C292.729 187.181 292.408 187.089 292.471 186.884L292.489 186.838C292.42 184.307 294.362 180.752 297.078 180.478" fill="#17282F"/>
<path d="M292.413 188.003C292.413 188.165 292.445 188.327 292.507 188.477C292.57 188.628 292.661 188.765 292.776 188.88C292.892 188.995 293.028 189.086 293.179 189.149C293.329 189.211 293.491 189.243 293.654 189.243C293.817 189.243 293.978 189.211 294.129 189.149C294.279 189.086 294.416 188.995 294.531 188.879C294.646 188.764 294.738 188.627 294.8 188.477C294.862 188.326 294.894 188.165 294.894 188.002C294.894 187.673 294.763 187.357 294.531 187.125C294.298 186.892 293.982 186.761 293.653 186.762C293.324 186.762 293.009 186.892 292.776 187.125C292.543 187.358 292.413 187.673 292.413 188.003V188.003Z" fill="white"/>
<path d="M272.242 207.943C272.242 207.943 268.767 217.803 275.047 218.502C281.327 219.201 297.727 207.076 297.727 207.076C297.727 207.076 293.172 199.707 285.906 200.495C279.873 201.148 272.242 207.943 272.242 207.943V207.943Z" fill="#BE5253"/>
<path d="M272.242 207.943C272.242 207.943 268.767 217.803 275.047 218.502C281.327 219.201 297.727 207.076 297.727 207.076C297.727 207.076 293.172 199.707 285.906 200.495C279.873 201.148 272.242 207.943 272.242 207.943V207.943Z" fill="url(#paint12_linear_2_2040)"/>
<path d="M301.896 219.489C301.883 231.673 294.894 268.195 288.173 273.114C274.721 282.959 243.184 282.281 234.485 282.431C230.731 282.497 225.799 257.498 228.596 254.618C231.394 251.738 269.819 250.678 271.786 249.204C273.152 248.179 283.997 230.4 290.278 218.97C298.764 203.519 301.901 213.355 301.896 219.489V219.489Z" fill="#BE5253"/>
<path d="M235.289 253.288C235.289 253.288 223.936 252.032 216.474 251.56C212.31 251.297 205.132 251.482 201.985 252.688C197.278 254.491 178.741 265.039 181.202 269.588C183.429 273.707 189.093 269.152 189.093 269.152C189.093 269.152 182.435 273.549 185.9 276.954C189.396 280.391 196.195 273.738 196.195 273.738C196.195 273.738 188.804 277.916 192.849 281.2C196.361 284.049 205.023 277.239 205.023 277.239C205.023 277.239 196.782 280.775 200.094 284.046C203.754 287.661 218.023 279.083 218.023 279.083C227.31 282.176 233.305 282.779 240.409 282.33C241.714 282.248 235.289 253.288 235.289 253.288" fill="#BE5253"/>
<path d="M235.289 253.288C235.289 253.288 223.936 252.032 216.474 251.56C212.31 251.297 205.132 251.482 201.985 252.688C197.278 254.491 178.741 265.039 181.202 269.588C183.429 273.707 189.093 269.152 189.093 269.152C189.093 269.152 182.435 273.549 185.9 276.954C189.396 280.391 196.195 273.738 196.195 273.738C196.195 273.738 188.804 277.916 192.849 281.2C196.361 284.049 205.023 277.239 205.023 277.239C205.023 277.239 196.782 280.775 200.094 284.046C203.754 287.661 218.023 279.083 218.023 279.083C227.31 282.176 233.305 282.779 240.409 282.33C241.714 282.248 235.289 253.288 235.289 253.288" fill="url(#paint13_linear_2_2040)"/>
<path d="M194.127 275.241C194.683 274.741 195.252 274.256 195.809 273.757C196.903 272.78 197.979 271.835 199.182 270.991C200.344 270.176 201.539 269.417 202.759 268.691C204.048 267.924 205.422 267.284 206.69 266.488C206.792 266.423 206.881 266.571 206.775 266.631C205.497 267.351 204.315 268.308 203.131 269.169C201.957 270.022 200.794 270.892 199.632 271.762C198.496 272.614 197.31 273.38 196.151 274.197C195.573 274.604 195.013 275.038 194.454 275.47C193.93 275.874 193.419 276.362 192.832 276.67C192.773 276.701 192.723 276.623 192.757 276.575C193.126 276.066 193.661 275.659 194.127 275.241ZM187.724 270.094C188.495 269.093 192.732 265.637 193.868 264.818C196.062 263.235 198.41 261.839 200.874 260.725C200.961 260.686 201.036 260.812 200.959 260.868C198.769 262.466 196.552 264.035 194.338 265.603C193.256 266.37 188.449 270.002 187.898 270.318C187.766 270.394 187.641 270.202 187.724 270.094V270.094ZM200.016 280.235C200.799 279.316 204.798 276.111 205.883 275.379C206.902 274.692 211.448 272.369 212.864 271.918C212.954 271.889 213.03 272.012 212.949 272.061C210.72 273.388 208.474 274.671 206.309 276.103C205.254 276.799 201.211 279.823 200.146 280.402C200.049 280.454 199.948 280.316 200.016 280.235V280.235Z" fill="#17282F"/>
<path d="M242.939 284.27L232.566 251.306C232.566 251.306 270.316 248.894 271.539 248.261C272.762 247.629 286.219 223.858 291.539 214.617C296.859 205.374 305.103 209.18 302.028 230.039C298.935 251.024 295.541 267.331 290.838 272.181C285.134 278.066 264.265 284.129 242.939 284.27Z" fill="#99E8E8"/>
<path d="M274.563 263.339C274.448 262.423 274.52 261.532 274.632 260.647C274.764 259.765 274.94 258.889 275.302 258.039C275.417 258.955 275.348 259.846 275.233 260.731C275.101 261.613 274.925 262.489 274.563 263.339ZM253.706 282.203C253.593 281.287 253.663 280.397 253.775 279.512C253.907 278.63 254.083 277.753 254.445 276.903C254.56 277.82 254.49 278.71 254.376 279.595C254.243 280.477 254.067 281.354 253.706 282.203ZM286.008 234.362C285.893 233.445 285.964 232.554 286.076 231.669C286.206 230.787 286.385 229.912 286.744 229.061C286.861 229.978 286.79 230.868 286.678 231.753C286.543 232.635 286.367 233.511 286.008 234.362V234.362ZM292.046 260.02C291.131 260.134 290.239 260.064 289.355 259.951C288.474 259.82 287.597 259.644 286.746 259.282C287.664 259.167 288.553 259.237 289.439 259.351C290.321 259.484 291.197 259.66 292.046 260.02V260.02ZM255.804 261.058C254.889 261.172 253.998 261.102 253.114 260.989C252.231 260.858 251.356 260.682 250.505 260.32C251.422 260.205 252.312 260.275 253.197 260.389C254.079 260.522 254.955 260.698 255.804 261.058V261.058ZM281.146 276.454C281.715 275.725 282.392 275.144 283.098 274.598C283.817 274.068 284.56 273.574 285.417 273.228C284.851 273.957 284.171 274.537 283.465 275.083C282.746 275.612 282.003 276.106 281.146 276.454ZM237.647 256.837C238.214 256.109 238.893 255.528 239.599 254.982C240.316 254.451 241.06 253.957 241.917 253.611C241.35 254.341 240.671 254.921 239.965 255.466C239.247 255.995 238.503 256.49 237.647 256.837V256.837ZM276.718 243.313C276.153 244.041 275.475 244.623 274.764 245.169C274.211 245.575 273.643 245.963 273.017 246.279C273.223 245.962 273.425 245.643 273.623 245.321L273.631 245.315C273.878 245.096 274.14 244.884 274.4 244.684C275.116 244.156 275.862 243.658 276.718 243.313V243.313ZM302.39 227.11C302.372 227.365 302.341 227.62 302.311 227.88C301.824 228.202 301.31 228.493 300.752 228.717C301.236 228.099 301.801 227.589 302.39 227.11V227.11ZM262.828 271.082C263.396 270.353 264.074 269.773 264.78 269.228C265.498 268.697 266.239 268.202 267.098 267.856C266.532 268.585 265.852 269.166 265.146 269.71C264.428 270.24 263.684 270.735 262.828 271.082ZM262.196 250.237C262.925 250.804 263.506 251.484 264.051 252.189C264.581 252.905 265.075 253.65 265.422 254.507C264.69 253.94 264.112 253.26 263.567 252.554C263.037 251.837 262.543 251.093 262.196 250.237ZM300.369 213.704C299.641 213.14 299.065 212.46 298.52 211.756C298.076 211.162 297.664 210.549 297.343 209.87C297.457 209.87 297.567 209.877 297.676 209.888C298.168 210.349 298.591 210.859 298.999 211.386C299.531 212.108 300.023 212.848 300.369 213.704V213.704ZM292.423 243.59C293.152 244.157 293.732 244.837 294.278 245.542C294.81 246.259 295.304 247.003 295.651 247.86C294.92 247.293 294.339 246.614 293.796 245.908C293.266 245.19 292.772 244.446 292.423 243.59V243.59Z" fill="white"/>
<path d="M283.353 228.562C282.122 230.405 280.986 232.306 279.847 234.205L279.75 234.364C279.809 234.22 279.865 234.077 279.923 233.933C280.293 232.99 280.619 232.025 281.022 231.096C281.045 231.04 280.963 230.994 280.938 231.05C280.53 231.966 280.074 232.857 279.684 233.782C279.424 234.406 279.184 235.037 278.966 235.676C278.12 237.083 277.276 238.492 276.446 239.908C275.33 241.817 274.219 243.731 273.093 245.636C272.818 246.102 272.548 246.571 272.267 247.035C272.025 247.435 271.75 247.793 271.289 247.941C270.808 248.097 270.242 248.094 269.74 248.146C269.19 248.204 268.637 248.271 268.087 248.338C265.574 248.643 263.08 249.058 260.571 249.386C260.512 249.394 260.512 249.486 260.573 249.481C262.881 249.308 265.192 249.22 267.501 249.033C268.637 248.94 269.778 248.861 270.909 248.716C271.337 248.661 271.753 248.569 272.097 248.291C272.425 248.024 272.644 247.655 272.853 247.292C275.139 243.336 277.429 239.381 279.707 235.42C280.999 233.177 282.308 230.942 283.498 228.642C283.546 228.546 283.411 228.475 283.353 228.562V228.562ZM302.097 237.36C302.033 238.102 301.755 238.873 301.557 239.589C301.378 240.237 301.202 240.888 301.004 241.531C300.78 242.261 300.53 242.982 300.278 243.701C300.787 240.488 301.191 237.259 301.49 234.02C301.501 233.923 301.332 233.904 301.317 234.002C300.711 238.531 299.875 243.043 298.927 247.512C297.977 251.988 296.82 256.436 295.516 260.822C294.874 262.981 294.196 265.135 293.439 267.256C292.792 269.073 292.015 270.914 290.795 272.431C289.47 274.08 287.664 275.118 285.766 275.991C283.755 276.915 281.693 277.724 279.59 278.412C274.813 279.975 269.875 280.969 264.996 282.144L265.009 282.237C269.49 281.575 273.946 280.754 278.316 279.544C280.52 278.934 282.729 278.246 284.841 277.364C286.79 276.551 288.797 275.669 290.369 274.224C291.855 272.859 292.859 271.051 293.62 269.205C294.438 267.219 295.083 265.156 295.72 263.107C297.11 258.639 298.281 254.106 299.228 249.524C299.504 248.196 299.757 246.862 299.987 245.525C300.55 244.273 300.955 242.933 301.307 241.607C301.493 240.912 301.671 240.21 301.806 239.503C301.941 238.801 301.992 238.056 302.188 237.371C302.206 237.307 302.102 237.288 302.097 237.36V237.36ZM249.507 281.612C247.795 276.875 245.989 272.178 244.488 267.369C243.006 262.625 241.56 257.811 240.585 252.936C240.567 252.844 240.711 252.799 240.745 252.888C242.521 257.538 243.965 262.334 245.458 267.081C246.964 271.865 248.271 276.708 249.783 281.489C249.841 281.671 249.575 281.796 249.507 281.612V281.612ZM243.145 250.536C242.25 250.467 241.33 250.521 240.433 250.544C239.53 250.566 238.627 250.603 237.724 250.642C235.918 250.718 234.114 250.853 232.313 251.007C232.179 251.019 232.042 251.155 232.101 251.301C232.346 251.917 232.612 252.66 233.024 253.186L233.112 253.16C233.071 252.592 232.849 251.991 232.64 251.441C234.363 251.327 236.088 251.223 237.811 251.09C238.712 251.022 239.615 250.963 240.517 250.893C241.395 250.824 242.294 250.796 243.164 250.656C243.238 250.645 243.208 250.541 243.145 250.536" fill="#17282F"/>
<path d="M202.4 243.472C204.65 244.588 214.932 245.013 217.933 248.698C219.929 251.149 219.731 253.629 220.894 260.954C221.902 267.308 216.632 265.795 215.122 262.544C212.744 257.43 210.699 251.822 210.699 251.822C208.288 251.658 205.436 251.902 205.436 251.902L202.4 243.472" fill="#F68C95"/>
<path d="M202.4 243.472C204.65 244.588 214.932 245.013 217.933 248.698C219.929 251.149 219.731 253.629 220.894 260.954C221.902 267.308 216.632 265.795 215.122 262.544C212.744 257.43 210.699 251.822 210.699 251.822C208.288 251.658 205.436 251.902 205.436 251.902L202.4 243.472" fill="url(#paint14_linear_2_2040)"/>
<path d="M209.814 267.51C213.373 265.253 224.764 279.626 219.073 283.434C213.382 287.244 205.783 270.066 209.814 267.51Z" fill="#F68C95"/>
<path d="M209.814 267.51C213.373 265.253 224.764 279.626 219.073 283.434C213.382 287.244 205.783 270.066 209.814 267.51Z" fill="url(#paint15_linear_2_2040)"/>
<path d="M204.043 270.572C207.602 268.315 218.993 282.688 213.301 286.497C207.61 290.305 200.012 273.128 204.043 270.572Z" fill="#F68C95"/>
<path d="M204.043 270.572C207.602 268.315 218.993 282.688 213.301 286.497C207.61 290.305 200.012 273.128 204.043 270.572Z" fill="url(#paint16_linear_2_2040)"/>
<path d="M199.959 271.136C203.508 269.581 211.858 284.23 206.154 286.899C200.452 289.568 195.939 272.898 199.959 271.136Z" fill="#F68C95"/>
<path d="M199.959 271.136C203.508 269.581 211.858 284.23 206.154 286.899C200.452 289.568 195.939 272.898 199.959 271.136Z" fill="url(#paint17_linear_2_2040)"/>
<path d="M195.778 270.733C199.511 270.289 203.135 286.241 197.088 287.112C191.042 287.983 191.55 271.236 195.778 270.733Z" fill="#F68C95"/>
<path d="M195.778 270.733C199.511 270.289 203.135 286.241 197.088 287.112C191.042 287.983 191.55 271.236 195.778 270.733Z" fill="url(#paint18_linear_2_2040)"/>
<path d="M209.002 272.485C209.679 273.183 210.22 274 210.772 274.798C211.363 275.652 211.945 276.518 212.451 277.426C212.934 278.294 213.412 279.188 213.787 280.108C214.187 281.088 214.47 282.128 214.897 283.092C214.946 283.202 214.788 283.268 214.743 283.155C214.377 282.215 213.793 281.311 213.295 280.435C212.795 279.556 212.338 278.653 211.847 277.769C211.369 276.908 210.913 276.034 210.421 275.18C209.917 274.307 209.341 273.472 208.888 272.57C208.853 272.499 208.943 272.425 209.002 272.485V272.485ZM203.072 272.405C203.442 273.486 204.662 277.61 205.076 278.677C205.496 279.751 205.94 280.815 206.409 281.869C206.883 282.939 207.3 284.073 207.87 285.095C207.922 285.189 207.776 285.272 207.723 285.177C207.15 284.147 206.487 283.183 205.964 282.122C205.449 281.075 204.983 280.005 204.569 278.915C204.151 277.816 203.046 273.562 202.899 272.427C202.886 272.323 203.042 272.316 203.072 272.405V272.405ZM198.605 273.433C198.889 274.973 199.076 276.53 199.367 278.071C199.51 278.831 199.659 279.59 199.798 280.35C199.865 280.718 199.925 281.088 199.991 281.456C200.062 281.852 200.078 282.349 200.229 282.717C200.27 282.819 200.08 282.87 200.063 282.738C200.007 282.293 199.762 281.818 199.632 281.386C199.523 281.029 199.422 280.67 199.331 280.308C199.145 279.558 198.992 278.801 198.872 278.037C198.635 276.541 198.406 274.976 198.399 273.46C198.399 273.344 198.584 273.314 198.605 273.433V273.433Z" fill="#17282F"/>
<path d="M254.112 171.421C255.608 169.144 256.448 166.583 256.448 163.876C256.448 154.318 245.952 146.568 233.013 146.568C220.074 146.568 209.588 154.318 209.588 163.876C209.588 173.434 220.074 181.183 233.013 181.183C239.287 181.183 244.975 179.366 249.177 176.395L257.248 178.447L254.112 171.421Z" fill="#99E8E8"/>
<path d="M224.586 163.875C224.586 165.217 223.499 166.305 222.157 166.305C221.838 166.305 221.522 166.242 221.227 166.12C220.932 165.998 220.664 165.819 220.438 165.593C220.213 165.367 220.034 165.1 219.912 164.805C219.79 164.51 219.727 164.194 219.727 163.875C219.727 162.533 220.814 161.445 222.157 161.445C222.801 161.445 223.419 161.701 223.875 162.157C224.33 162.612 224.586 163.23 224.586 163.875V163.875ZM235.446 163.875C235.446 165.217 234.358 166.305 233.016 166.305C232.536 166.305 232.066 166.162 231.666 165.895C231.266 165.628 230.955 165.249 230.771 164.805C230.587 164.361 230.539 163.872 230.632 163.401C230.726 162.929 230.957 162.496 231.297 162.157C231.637 161.817 232.07 161.585 232.541 161.491C233.013 161.398 233.501 161.446 233.946 161.63C234.39 161.813 234.769 162.125 235.036 162.525C235.303 162.924 235.446 163.394 235.446 163.875V163.875ZM246.304 163.875C246.304 165.217 245.216 166.305 243.874 166.305C243.393 166.305 242.924 166.162 242.524 165.895C242.124 165.628 241.813 165.249 241.629 164.805C241.445 164.361 241.396 163.872 241.49 163.401C241.584 162.929 241.815 162.496 242.155 162.157C242.495 161.817 242.928 161.585 243.399 161.491C243.871 161.398 244.359 161.446 244.803 161.63C245.247 161.813 245.627 162.125 245.894 162.525C246.161 162.924 246.304 163.394 246.304 163.875V163.875Z" fill="#17282F"/>
<path d="M169.527 119.507C168.177 130.823 160.9 132.887 159.675 135.903C159.021 137.535 158.149 141.687 158.149 141.687L146.322 141.66C146.322 141.66 145.477 137.504 144.822 135.868C143.619 132.845 136.345 130.748 135.055 119.425C134.202 111.986 139.821 100.256 152.337 100.286C164.851 100.315 170.407 112.072 169.527 119.507V119.507Z" fill="#FAC843"/>
<path d="M149.031 142.494L145.566 123.673L146.163 123.564L149.628 142.384L149.031 142.494ZM155.442 142.509L154.846 142.396L158.399 123.592L158.996 123.704L155.442 142.509" fill="white"/>
<path d="M149.571 122.689C149.324 122.689 149.142 122.797 149.015 123.017C148.594 123.742 148.867 125.516 149.588 127.058C149.633 126.99 149.677 126.917 149.722 126.842C150.367 125.73 150.757 123.918 150.285 123.095C150.129 122.823 149.896 122.691 149.573 122.689H149.571V122.689ZM154.714 122.702C154.427 122.702 154.193 122.852 154.02 123.151C153.519 124.013 153.67 125.795 154.341 126.965C154.424 127.108 154.523 127.258 154.641 127.402C155.382 125.812 155.66 123.814 155.2 123.01C155.081 122.804 154.922 122.703 154.716 122.702H154.714V122.702ZM152.271 129.889H152.267C151.34 129.887 150.405 129.149 149.637 127.81C149.601 127.749 149.567 127.687 149.534 127.624C149.207 127.986 148.859 128.178 148.52 128.178H148.518C146.744 128.174 146.043 124.52 146.014 124.365L146.313 124.309C146.319 124.345 146.994 127.871 148.518 127.875H148.52C148.793 127.875 149.095 127.683 149.384 127.332C148.635 125.794 148.222 123.78 148.752 122.865C148.934 122.552 149.217 122.386 149.571 122.386H149.574C150.002 122.387 150.339 122.58 150.548 122.944C151.079 123.869 150.686 125.785 149.984 126.995C149.909 127.123 149.829 127.248 149.741 127.368C149.792 127.466 149.845 127.564 149.899 127.658C150.312 128.378 151.168 129.583 152.267 129.586H152.271C153.003 129.586 153.741 129.01 154.348 127.963C154.399 127.877 154.447 127.789 154.494 127.699C154.335 127.52 154.196 127.324 154.078 127.116C153.348 125.844 153.201 123.958 153.758 122.998C153.986 122.606 154.316 122.399 154.714 122.399H154.717C155.032 122.399 155.29 122.559 155.463 122.86C155.985 123.77 155.692 125.936 154.863 127.641C155.164 127.923 155.554 128.134 156.047 128.136H156.049C157.132 128.136 158.093 125.554 158.371 124.559L158.663 124.641C158.62 124.796 157.582 128.439 156.049 128.439H156.047C155.555 128.438 155.107 128.262 154.719 127.922C154.684 127.988 154.647 128.052 154.61 128.116C154.141 128.925 153.354 129.889 152.271 129.889" fill="white"/>
<path d="M159.529 144.035L144.937 144.001L144.944 141.15L159.536 141.184L159.529 144.035V144.035ZM159.521 147.348L144.929 147.314L144.936 144.463L159.527 144.497L159.521 147.348ZM159.513 150.662L144.921 150.627L144.928 147.776L159.52 147.81L159.513 150.662Z" fill="#33535F"/>
<path d="M152.875 91C153.103 91.7893 153.144 92.5761 153.142 93.362C153.121 94.1478 153.055 94.9327 152.802 95.7146C152.574 94.9254 152.532 94.1386 152.536 93.3524C152.558 92.5669 152.624 91.7819 152.875 91V91ZM139.649 94.2318C140.24 94.8025 140.67 95.4627 141.061 96.1445C141.436 96.8349 141.771 97.5483 141.943 98.3513C141.351 97.7824 140.922 97.1218 140.532 96.4395C140.158 95.7478 139.823 95.0352 139.649 94.2318V94.2318ZM129.811 103.645C130.608 103.843 131.311 104.2 131.99 104.595C132.661 105.006 133.307 105.455 133.858 106.065C133.06 105.868 132.358 105.511 131.679 105.115C131.01 104.703 130.363 104.254 129.811 103.645ZM125.998 116.716C126.787 116.488 127.574 116.447 128.36 116.449C129.145 116.469 129.93 116.536 130.712 116.789C129.923 117.017 129.136 117.058 128.351 117.055C127.565 117.032 126.78 116.967 125.998 116.716V116.716ZM129.23 129.942C129.8 129.35 130.461 128.921 131.142 128.529C131.833 128.154 132.546 127.82 133.35 127.647C132.78 128.24 132.12 128.669 131.438 129.059C130.746 129.433 130.033 129.768 129.23 129.942V129.942ZM174.777 130.948C173.98 130.75 173.278 130.393 172.598 129.998C171.929 129.587 171.282 129.137 170.73 128.528C171.529 128.725 172.231 129.082 172.91 129.478C173.579 129.89 174.226 130.339 174.777 130.948ZM178.591 117.878C177.802 118.105 177.015 118.146 176.229 118.144C175.444 118.124 174.658 118.057 173.876 117.805C174.665 117.577 175.452 117.535 176.238 117.538C177.024 117.561 177.809 117.627 178.591 117.878ZM175.358 104.652C174.788 105.243 174.128 105.672 173.446 106.063C172.755 106.438 172.043 106.774 171.239 106.946C171.809 106.353 172.468 105.924 173.151 105.534C173.842 105.16 174.555 104.825 175.358 104.652V104.652ZM165.946 94.8138C165.747 95.6112 165.39 96.3129 164.996 96.9929C164.585 97.6624 164.135 98.309 163.526 98.8599C163.723 98.0624 164.08 97.3605 164.475 96.681C164.888 96.0125 165.337 95.3654 165.946 94.8138V94.8138Z" fill="#17282F"/>
<defs>
<linearGradient id="paint0_linear_2_2040" x1="133.731" y1="219.139" x2="249.551" y2="294.305" gradientUnits="userSpaceOnUse">
<stop stop-color="#FDC2B5"/>
<stop offset="0.473" stop-color="#F7A491"/>
<stop offset="0.996" stop-color="#F36F56"/>
<stop offset="1" stop-color="#E4AC9F"/>
</linearGradient>
<linearGradient id="paint1_linear_2_2040" x1="112.908" y1="188.472" x2="143.682" y2="199.587" gradientUnits="userSpaceOnUse">
<stop stop-color="#FDC2B5"/>
<stop offset="0.473" stop-color="#F7A491"/>
<stop offset="0.996" stop-color="#F36F56"/>
<stop offset="1" stop-color="#E4AC9F"/>
</linearGradient>
<linearGradient id="paint2_linear_2_2040" x1="113.347" y1="162.543" x2="161.096" y2="181.169" gradientUnits="userSpaceOnUse">
<stop stop-color="#FDC2B5"/>
<stop offset="0.473" stop-color="#F7A491"/>
<stop offset="0.996" stop-color="#F36F56"/>
<stop offset="1" stop-color="#E4AC9F"/>
</linearGradient>
<linearGradient id="paint3_linear_2_2040" x1="107.642" y1="174.42" x2="121.35" y2="180.349" gradientUnits="userSpaceOnUse">
<stop stop-color="#FDC2B5"/>
<stop offset="0.473" stop-color="#F7A491"/>
<stop offset="0.996" stop-color="#F36F56"/>
<stop offset="1" stop-color="#E4AC9F"/>
</linearGradient>
<linearGradient id="paint4_linear_2_2040" x1="100.569" y1="282.531" x2="161.32" y2="329.889" gradientUnits="userSpaceOnUse">
<stop stop-color="#FDC2B5"/>
<stop offset="0.473" stop-color="#F7A491"/>
<stop offset="0.996" stop-color="#F36F56"/>
<stop offset="1" stop-color="#E4AC9F"/>
</linearGradient>
<linearGradient id="paint5_linear_2_2040" x1="114.205" y1="277.653" x2="145.058" y2="306.498" gradientUnits="userSpaceOnUse">
<stop stop-color="#FDC2B5"/>
<stop offset="0.473" stop-color="#F7A491"/>
<stop offset="0.996" stop-color="#F36F56"/>
<stop offset="1" stop-color="#E4AC9F"/>
</linearGradient>
<linearGradient id="paint6_linear_2_2040" x1="212.438" y1="214.519" x2="304.196" y2="302.278" gradientUnits="userSpaceOnUse">
<stop stop-color="#FDC2B5"/>
<stop offset="0.473" stop-color="#F7A491"/>
<stop offset="0.996" stop-color="#F36F56"/>
<stop offset="1" stop-color="#E4AC9F"/>
</linearGradient>
<linearGradient id="paint7_linear_2_2040" x1="184.304" y1="202.436" x2="243.634" y2="235.127" gradientUnits="userSpaceOnUse">
<stop stop-color="#FDC2B5"/>
<stop offset="0.473" stop-color="#F7A491"/>
<stop offset="0.996" stop-color="#F36F56"/>
<stop offset="1" stop-color="#E4AC9F"/>
</linearGradient>
<linearGradient id="paint8_linear_2_2040" x1="205.281" y1="201.795" x2="239.329" y2="217.496" gradientUnits="userSpaceOnUse">
<stop stop-color="#FDC2B5"/>
<stop offset="0.473" stop-color="#F7A491"/>
<stop offset="0.996" stop-color="#F36F56"/>
<stop offset="1" stop-color="#E4AC9F"/>
</linearGradient>
<linearGradient id="paint9_linear_2_2040" x1="279.065" y1="192.081" x2="303.205" y2="199.048" gradientUnits="userSpaceOnUse">
<stop stop-color="#FDC2B5"/>
<stop offset="0.473" stop-color="#F7A491"/>
<stop offset="0.996" stop-color="#F36F56"/>
<stop offset="1" stop-color="#E4AC9F"/>
</linearGradient>
<linearGradient id="paint10_linear_2_2040" x1="269.429" y1="167.986" x2="319.047" y2="188.956" gradientUnits="userSpaceOnUse">
<stop stop-color="#FDC2B5"/>
<stop offset="0.473" stop-color="#F7A491"/>
<stop offset="0.996" stop-color="#F36F56"/>
<stop offset="1" stop-color="#E4AC9F"/>
</linearGradient>
<linearGradient id="paint11_linear_2_2040" x1="292.196" y1="180.891" x2="305.05" y2="186.165" gradientUnits="userSpaceOnUse">
<stop stop-color="#FDC2B5"/>
<stop offset="0.473" stop-color="#F7A491"/>
<stop offset="0.996" stop-color="#F36F56"/>
<stop offset="1" stop-color="#E4AC9F"/>
</linearGradient>
<linearGradient id="paint12_linear_2_2040" x1="275.574" y1="205.252" x2="306.12" y2="229.628" gradientUnits="userSpaceOnUse">
<stop stop-color="#FDC2B5"/>
<stop offset="0.473" stop-color="#F7A491"/>
<stop offset="0.996" stop-color="#F36F56"/>
<stop offset="1" stop-color="#E4AC9F"/>
</linearGradient>
<linearGradient id="paint13_linear_2_2040" x1="190.653" y1="260.367" x2="248.584" y2="316.697" gradientUnits="userSpaceOnUse">
<stop stop-color="#FDC2B5"/>
<stop offset="0.473" stop-color="#F7A491"/>
<stop offset="0.996" stop-color="#F36F56"/>
<stop offset="1" stop-color="#E4AC9F"/>
</linearGradient>
<linearGradient id="paint14_linear_2_2040" x1="205.422" y1="249.295" x2="234.376" y2="262.753" gradientUnits="userSpaceOnUse">
<stop stop-color="#FDC2B5"/>
<stop offset="0.473" stop-color="#F7A491"/>
<stop offset="0.996" stop-color="#F36F56"/>
<stop offset="1" stop-color="#E4AC9F"/>
</linearGradient>
<linearGradient id="paint15_linear_2_2040" x1="210.623" y1="271.719" x2="230.235" y2="279.382" gradientUnits="userSpaceOnUse">
<stop stop-color="#FDC2B5"/>
<stop offset="0.473" stop-color="#F7A491"/>
<stop offset="0.996" stop-color="#F36F56"/>
<stop offset="1" stop-color="#E4AC9F"/>
</linearGradient>
<linearGradient id="paint16_linear_2_2040" x1="204.852" y1="274.781" x2="224.464" y2="282.444" gradientUnits="userSpaceOnUse">
<stop stop-color="#FDC2B5"/>
<stop offset="0.473" stop-color="#F7A491"/>
<stop offset="0.996" stop-color="#F36F56"/>
<stop offset="1" stop-color="#E4AC9F"/>
</linearGradient>
<linearGradient id="paint17_linear_2_2040" x1="199.993" y1="275.324" x2="216.513" y2="280.72" gradientUnits="userSpaceOnUse">
<stop stop-color="#FDC2B5"/>
<stop offset="0.473" stop-color="#F7A491"/>
<stop offset="0.996" stop-color="#F36F56"/>
<stop offset="1" stop-color="#E4AC9F"/>
</linearGradient>
<linearGradient id="paint18_linear_2_2040" x1="193.831" y1="275.095" x2="207.562" y2="278.631" gradientUnits="userSpaceOnUse">
<stop stop-color="#FDC2B5"/>
<stop offset="0.473" stop-color="#F7A491"/>
<stop offset="0.996" stop-color="#F36F56"/>
<stop offset="1" stop-color="#E4AC9F"/>
</linearGradient>
</defs>
</svg>
