<svg width="400" height="400" viewBox="0 0 400 400" fill="none" xmlns="http://www.w3.org/2000/svg">
<rect width="400" height="400" fill="white"/>
<path d="M18.6421 320.636C18.6421 320.636 -10.3531 284.955 3.97873 216.037C12.9932 172.689 50.8591 151.212 101.621 153.262C119.07 153.968 147.46 132.963 188.251 107.164C275.506 51.9739 401.719 75.413 371.513 199.55C356.895 259.624 417.492 260.588 387.375 320.636H18.6421Z" fill="#F4F7FA"/>
<path d="M341.406 132.227C341.272 123.466 326.79 122.505 326.79 122.505C326.79 122.505 313.746 134.457 310.928 134.103C308.109 133.75 320.083 121.707 320.083 121.707C314.92 119.847 299.78 122.9 299.78 122.9C299.78 122.9 296.372 139.853 293.726 138.814C291.082 137.778 297.509 123.959 297.509 123.959C291.997 124.191 285.693 128.951 285.693 128.951C277.239 137.162 288.219 147.595 288.219 147.595C288.219 147.595 286.911 153.444 281.629 159.191C281.629 159.191 280.508 160.215 279.152 162.095L280.549 162.451C280.753 162.113 280.972 161.783 281.204 161.463L281.209 161.458L281.219 161.445C281.369 161.253 281.585 160.981 281.852 160.65V160.648L281.853 160.647C282.494 159.92 282.939 159.377 283.235 158.979L283.237 158.974C285.182 156.678 287.894 153.731 289.305 153.327C289.305 153.327 289.206 153.069 289.169 152.609C289.213 152.839 289.257 153.076 289.305 153.327C290.391 159.058 302.126 162.956 309.134 163.286C316.14 163.616 313.715 160.998 310.907 157.037C308.096 153.075 300.379 151.965 298.464 150.204C296.547 148.444 300.098 148.073 304.449 149.547C308.803 151.019 309.892 156.023 316.889 158.532C323.886 161.042 332.786 148.943 332.786 148.943C327.443 149.219 319.259 144.226 319.353 142.431C319.447 140.636 332.55 144.156 334.729 144.164C336.907 144.175 341.537 140.989 341.406 132.227" fill="#99D7D7"/>
<path d="M353.936 217.972C360.753 206.444 342.639 193.636 342.639 193.636C342.639 193.636 316.1 198.811 312.709 196.101C309.316 193.389 334.534 187.245 334.534 187.245C329.286 180.701 307.112 172.602 307.112 172.602C307.112 172.602 289.147 191.981 286.529 188.519C283.907 185.057 303.311 172.17 303.311 172.17C295.936 168.075 283.923 169.25 283.923 169.25C266.352 173.208 272.343 195.571 272.343 195.571C272.343 195.571 265.973 202.153 254.503 205.431C254.503 205.431 252.223 205.868 248.958 207.239L250.494 208.817C251.042 208.534 251.589 208.278 252.135 208.052L252.146 208.049L252.168 208.039C252.518 207.91 253.016 207.727 253.627 207.509H253.631L253.633 207.507C255.046 207.069 256.06 206.717 256.764 206.432L256.77 206.429C261.138 204.988 267.025 203.31 269.186 203.909C269.186 203.909 269.261 203.494 269.581 202.866C269.454 203.199 269.324 203.546 269.186 203.909C266.03 212.247 278.218 226.69 287.09 232.711C295.962 238.732 294.889 233.385 294.387 225.979C293.885 218.572 284.709 210.968 283.616 207.146C282.523 203.322 287.445 205.672 291.945 211.063C296.444 216.456 293.872 223.849 300.992 232.704C308.113 241.557 329.364 232.885 329.364 232.885C322.179 228.982 315.494 215.943 317.047 213.679C318.6 211.413 332.876 226.456 335.71 228.208C338.543 229.959 347.119 229.499 353.936 217.972V217.972ZM108.858 175.095C112.9 166.793 127.149 172.35 127.149 172.35C127.149 172.35 134.254 189.584 137.102 190.506C139.95 191.428 133.905 174.585 133.905 174.585C139.662 175.117 152.745 184.798 152.745 184.798C152.745 184.798 148.421 202.497 151.408 202.689C154.396 202.881 154.437 186.823 154.437 186.823C159.595 189.509 163.481 196.866 163.481 196.866C167.879 208.48 152.741 213.528 152.741 213.528C152.741 213.528 151.375 219.694 153.846 227.537V227.538C153.846 227.538 154.46 229.016 154.911 231.416L153.42 231.131C153.377 230.717 153.316 230.305 153.237 229.896L153.234 229.889L153.231 229.871C153.151 229.524 153.068 229.177 152.982 228.831V228.828L152.981 228.827C152.695 227.849 152.514 227.131 152.41 226.617V226.613C151.58 223.552 150.308 219.527 149.143 218.512C149.143 218.512 149.352 218.311 149.592 217.888C149.449 218.087 149.299 218.295 149.143 218.512C145.546 223.496 132.606 221.97 125.773 219.152C118.94 216.336 122.424 214.921 126.874 212.397C131.325 209.873 139.184 212.263 141.8 211.438C144.414 210.615 141.192 208.677 136.381 208.135C131.571 207.595 128.295 211.885 120.496 211.151C112.698 210.419 109.614 194.897 109.614 194.897C114.589 197.548 124.628 196.441 125.341 194.686C126.054 192.933 111.978 190.433 109.894 189.469C107.81 188.504 104.817 183.396 108.858 175.095" fill="#A0DBDB"/>
<path d="M138.237 318.969H300.742V100.627H138.237V318.969Z" fill="#99E8E8"/>
<path d="M147.766 309.173H292.996V107.704H147.766V309.173Z" fill="white"/>
<path d="M190.763 100.627V108.023C190.763 112.108 194.071 115.419 198.152 115.419H237.839C241.92 115.419 245.228 112.108 245.228 108.023V100.627H190.763V100.627Z" fill="#FAC843"/>
<path d="M178.736 145.771H176.674V136.222H178.736V145.771ZM190.194 145.771H188.132L184.119 139.488V145.771H182.056V136.222H184.119L188.139 142.518V136.222H190.194V145.771V145.771ZM198.593 143.265C198.593 143.1 198.568 142.949 198.518 142.816C198.466 142.682 198.371 142.559 198.225 142.445C198.082 142.332 197.881 142.221 197.627 142.111C197.374 142.003 197.044 141.886 196.641 141.764C196.201 141.63 195.767 141.472 195.344 141.291C194.939 141.117 194.584 140.91 194.281 140.672C193.975 140.433 193.734 140.159 193.558 139.848C193.381 139.538 193.293 139.176 193.293 138.76C193.293 138.362 193.385 137.999 193.565 137.668C193.745 137.338 194.001 137.057 194.328 136.826C194.654 136.594 195.044 136.413 195.497 136.284C195.948 136.155 196.444 136.09 196.985 136.09C197.539 136.09 198.043 136.164 198.496 136.31C198.95 136.457 199.339 136.661 199.659 136.924C199.979 137.186 200.227 137.498 200.402 137.858C200.575 138.218 200.661 138.614 200.661 139.041H198.601C198.601 138.841 198.566 138.655 198.501 138.485C198.436 138.316 198.331 138.165 198.194 138.046C198.056 137.923 197.885 137.827 197.679 137.76C197.473 137.693 197.23 137.657 196.95 137.657C196.68 137.657 196.444 137.687 196.246 137.744C196.047 137.801 195.881 137.879 195.751 137.98C195.62 138.081 195.523 138.198 195.454 138.334C195.388 138.469 195.355 138.614 195.355 138.766C195.355 139.081 195.523 139.345 195.861 139.557C196.198 139.769 196.693 139.967 197.342 140.15C197.887 140.313 198.367 140.491 198.781 140.688C199.197 140.885 199.543 141.108 199.821 141.357C200.097 141.606 200.308 141.886 200.45 142.196C200.592 142.507 200.661 142.86 200.661 143.252C200.661 143.672 200.575 144.046 200.404 144.374C200.233 144.702 199.988 144.979 199.672 145.203C199.355 145.428 198.974 145.601 198.529 145.721C198.082 145.842 197.583 145.902 197.033 145.902C196.702 145.902 196.373 145.875 196.043 145.819C195.72 145.767 195.404 145.683 195.098 145.568C194.804 145.457 194.524 145.314 194.262 145.141C194.01 144.974 193.785 144.771 193.592 144.538C193.401 144.307 193.254 144.043 193.145 143.747C193.039 143.453 192.983 143.126 192.983 142.767H195.053C195.053 143.056 195.101 143.3 195.197 143.501C195.287 143.696 195.426 143.864 195.6 143.99C195.771 144.115 195.979 144.206 196.222 144.263C196.465 144.32 196.735 144.348 197.033 144.348C197.298 144.348 197.53 144.32 197.727 144.266C197.924 144.211 198.086 144.135 198.214 144.04C198.343 143.943 198.439 143.829 198.501 143.694C198.562 143.561 198.593 143.419 198.593 143.265V143.265ZM211.04 136.222V142.524C211.04 143.075 210.945 143.561 210.752 143.983C210.56 144.406 210.293 144.759 209.955 145.043C209.616 145.327 209.212 145.541 208.741 145.686C208.271 145.83 207.758 145.902 207.206 145.902C206.647 145.902 206.132 145.83 205.662 145.686C205.191 145.541 204.787 145.327 204.45 145.043C204.109 144.759 203.845 144.406 203.653 143.983C203.464 143.561 203.37 143.075 203.37 142.524V136.222H205.432V142.524C205.432 143.15 205.589 143.605 205.902 143.892C206.216 144.178 206.65 144.321 207.206 144.321C207.765 144.321 208.198 144.178 208.507 143.892C208.818 143.605 208.971 143.15 208.971 142.524V136.222H211.04V136.222ZM216.201 140.682H217.865C218.137 140.682 218.374 140.648 218.577 140.579C218.781 140.512 218.95 140.415 219.085 140.291C219.219 140.167 219.324 140.015 219.392 139.845C219.46 139.672 219.495 139.479 219.495 139.266C219.495 138.814 219.361 138.46 219.092 138.202C218.825 137.944 218.413 137.815 217.859 137.815H216.201V140.682V140.682ZM217.844 142.275H216.201V145.771H214.141V136.222H217.859C218.437 136.222 218.954 136.284 219.412 136.408C219.87 136.534 220.258 136.717 220.575 136.96C220.886 137.197 221.136 137.506 221.302 137.861C221.473 138.22 221.557 138.636 221.557 139.107C221.557 139.457 221.517 139.771 221.432 140.049C221.351 140.326 221.232 140.573 221.075 140.79C220.919 141.008 220.729 141.2 220.512 141.357C220.292 141.519 220.045 141.659 219.769 141.777L221.935 145.679V145.771H219.723L217.844 142.275ZM227.123 142.209H229.627L228.369 138.636L227.123 142.209ZM230.183 143.803H226.567L225.879 145.771H223.686L227.412 136.222H229.324L233.07 145.771H230.877L230.183 143.803V143.803ZM243.552 145.771H241.489L237.475 139.488V145.771H235.412V136.222H237.475L241.497 142.518V136.222H243.552V145.771V145.771ZM254.617 142.59C254.58 143.075 254.466 143.522 254.273 143.927C254.085 144.329 253.813 144.686 253.476 144.974C253.136 145.264 252.726 145.491 252.242 145.656C251.758 145.819 251.208 145.902 250.589 145.902C249.947 145.902 249.371 145.796 248.86 145.584C248.35 145.371 247.916 145.067 247.561 144.668C247.206 144.271 246.934 143.79 246.742 143.223C246.553 142.656 246.457 142.022 246.457 141.317V140.688C246.457 139.985 246.555 139.348 246.753 138.779C246.95 138.211 247.23 137.728 247.589 137.331C247.947 136.932 248.385 136.626 248.899 136.413C249.412 136.197 249.984 136.09 250.617 136.09C251.241 136.09 251.791 136.175 252.269 136.344C252.75 136.512 253.156 136.745 253.489 137.045C253.826 137.344 254.085 137.701 254.273 138.114C254.462 138.527 254.58 138.977 254.63 139.462H252.569C252.545 139.178 252.494 138.926 252.415 138.707C252.334 138.489 252.218 138.305 252.067 138.157C251.916 138.008 251.721 137.896 251.484 137.819C251.244 137.742 250.956 137.704 250.617 137.704C249.92 137.704 249.401 137.946 249.06 138.429C248.718 138.913 248.547 139.661 248.547 140.675V141.317C248.547 141.813 248.586 142.245 248.661 142.617C248.737 142.989 248.856 143.299 249.018 143.548C249.182 143.797 249.392 143.983 249.651 144.109C249.909 144.233 250.223 144.295 250.589 144.295C250.913 144.295 251.195 144.26 251.43 144.191C251.666 144.121 251.865 144.014 252.023 143.872C252.181 143.73 252.304 143.552 252.391 143.337C252.475 143.123 252.532 142.874 252.554 142.59H254.617V142.59ZM263.401 141.632H259.441V144.191H264.089V145.771H257.379V136.222H264.074V137.815H259.441V140.091H263.401V141.632V141.632Z" fill="#ABDDDA"/>
<path d="M231.189 286.04C231.129 286.219 231.07 286.469 231.026 286.765C231.107 286.48 231.164 286.232 231.189 286.04ZM231.291 289.591H231.296H231.291ZM224.479 290.031C224.304 290.399 224.177 291.575 224.393 292.62C224.739 291.473 224.81 290.482 224.479 290.031ZM228.542 290.921C228.648 291.245 228.746 291.31 228.746 291.31C229.132 290.979 229.574 290.259 229.977 289.439C229.648 289.426 229.278 289.424 228.875 289.435C228.82 289.897 228.702 290.408 228.542 290.921V290.921ZM224.772 293.643C224.919 293.869 225.118 294.046 225.381 294.059C225.905 294.081 226.534 293.521 227.107 292.522C227.403 292 227.64 291.444 227.819 290.909C227.705 290.476 227.644 289.968 227.625 289.501C226.858 289.564 226.023 289.667 225.162 289.823C225.609 290.697 225.349 292.173 224.772 293.643ZM218.409 292.507C218.774 294.934 219.988 296.717 221.018 297.039C221.502 297.192 221.947 297.019 222.341 296.533C223.013 295.703 223.592 294.682 224.006 293.685C223.889 293.427 223.791 293.126 223.719 292.782C223.554 291.981 223.524 290.885 223.723 290.132C222.61 290.404 221.495 290.778 220.461 291.266C219.67 291.641 218.985 292.057 218.409 292.507ZM226.034 300.016C223.73 300.763 221.482 301.151 219.714 301.004C217.022 300.78 215.504 299.369 215.443 297.03C215.396 295.174 216.166 293.549 217.677 292.231C217.662 292.106 217.649 291.978 217.64 291.851C217.541 290.542 217.821 289.674 218.472 289.267C219.522 288.612 221.085 289.508 221.151 289.547L220.801 290.145C220.452 289.941 219.412 289.494 218.836 289.854C218.339 290.167 218.281 291.023 218.323 291.718C219.552 290.828 221.156 290.103 223.114 289.575C224.558 289.181 226.17 288.921 227.625 288.804C227.633 288.64 227.646 288.495 227.666 288.375C227.712 288.055 227.824 287.678 228.139 287.604C228.258 287.576 228.49 287.58 228.698 287.895C228.829 288.097 228.897 288.388 228.91 288.736C229.41 288.725 229.876 288.732 230.29 288.763L230.301 288.737C230.2 287.917 230.271 286.951 230.407 286.327C230.582 285.525 230.869 285.12 231.272 285.082C231.513 285.059 231.725 285.19 231.82 285.422C232.047 285.965 231.624 287.431 231.011 288.839L231.013 288.846C231.587 288.944 231.977 289.102 232.1 289.324C232.192 289.492 232.203 289.749 231.958 289.974C231.497 290.401 231.127 290.292 230.947 290.189C230.796 290.103 230.674 289.956 230.577 289.766C230.113 290.682 229.611 291.466 229.213 291.797C228.849 292.105 228.527 291.981 228.407 291.913C228.343 291.875 228.284 291.828 228.233 291.773C228.074 292.158 227.896 292.53 227.706 292.864C226.983 294.134 226.166 294.789 225.348 294.749C225.015 294.734 224.717 294.599 224.466 294.358C224.014 295.337 223.445 296.27 222.878 296.967C222.304 297.678 221.57 297.937 220.812 297.7C219.471 297.282 218.257 295.339 217.802 293.039C216.656 294.16 216.097 295.49 216.135 297.012C216.187 299.008 217.41 300.117 219.771 300.316C225.732 300.811 236.183 295.271 236.974 291.194C236.33 294.507 231.372 298.287 226.034 300.016" fill="#FAC843"/>
<path d="M166.353 196.482H190.144V172.689H166.353V196.482ZM191.381 197.72H165.115V171.451H191.381V197.72V197.72Z" fill="#ABDDDA"/>
<path d="M178.9 192.44C178.35 192.44 177.824 192.194 177.471 191.766L169.365 181.961C168.712 181.17 168.823 180.001 169.613 179.346C170.404 178.695 171.572 178.805 172.225 179.595L178.654 187.372L190.283 167.852C190.809 166.972 191.946 166.684 192.827 167.208C193.707 167.732 193.995 168.872 193.471 169.752L180.495 191.533C180.33 191.809 180.097 192.038 179.817 192.197C179.538 192.356 179.222 192.439 178.9 192.44" fill="#FAC843"/>
<path d="M166.353 237.554H190.144V213.761H166.353V237.554ZM191.381 238.792H165.115V212.523H191.381V238.792Z" fill="#ABDDDA"/>
<path d="M178.9 233.287C178.35 233.287 177.824 233.041 177.471 232.613L169.365 222.806C168.712 222.017 168.823 220.847 169.613 220.194C169.801 220.038 170.017 219.921 170.25 219.85C170.483 219.778 170.728 219.753 170.971 219.776C171.213 219.8 171.449 219.87 171.664 219.985C171.88 220.099 172.07 220.254 172.225 220.442L178.654 228.218L190.283 208.7C190.809 207.819 191.946 207.531 192.827 208.055C193.707 208.579 193.995 209.719 193.471 210.599L180.495 232.38C180.343 232.635 180.132 232.851 179.879 233.007C179.627 233.164 179.34 233.258 179.044 233.281C178.996 233.284 178.949 233.287 178.9 233.287" fill="#FAC843"/>
<path d="M166.353 277.777H190.144V253.983H166.353V277.777ZM191.381 279.015H165.115V252.747H191.381V279.015Z" fill="#ABDDDA"/>
<path d="M178.9 273.122C178.35 273.122 177.824 272.877 177.471 272.449L169.365 262.643C168.712 261.853 168.823 260.683 169.613 260.03C170.404 259.377 171.572 259.488 172.225 260.277L178.654 268.055L190.283 248.536C190.407 248.327 190.572 248.144 190.767 247.998C190.963 247.852 191.185 247.746 191.421 247.687C191.658 247.627 191.903 247.614 192.145 247.649C192.386 247.684 192.618 247.767 192.827 247.892C193.707 248.416 193.995 249.555 193.471 250.436L180.495 272.215C180.331 272.491 180.097 272.72 179.818 272.879C179.538 273.038 179.222 273.122 178.9 273.122" fill="#FAC843"/>
<path d="M209.083 180.143H243.333V177.58H209.083V180.143ZM264.652 180.143H272.437V177.58H264.652V180.143ZM209.083 191.59H243.333V189.028H209.083V191.59ZM260.83 191.59H272.437V189.028H260.83V191.59ZM262.897 185.867H272.437V183.304H262.897V185.867ZM234.387 185.867H243.927V183.304H234.387V185.867ZM209.083 185.867H230.279V183.304H209.083V185.867ZM209.083 219.59H242.026V217.029H209.083V219.59ZM209.083 231.037H243.333V228.476H209.083V231.037ZM232.735 225.314H241.6V222.752H232.735V225.314ZM209.083 225.314H230.279V222.752H209.083V225.314ZM209.083 260.157H243.333V257.594H209.083V260.157ZM209.083 271.604H243.333V269.041H209.083V271.604ZM232.735 265.88H247.631V263.317H232.735V265.88ZM209.083 265.88H230.279V263.317H209.083V265.88Z" fill="#D5EEEC"/>
<path d="M183.083 294.877H165.115V293.058H183.083V294.877ZM205.213 294.877H187.245V293.058H205.213V294.877ZM190.034 298.912H165.115V297.094H190.034V298.912Z" fill="#ABDDDA"/>
<path d="M283.916 234.127C283.916 234.127 285.246 238.231 285.132 239.168C285.018 240.107 284.183 243.313 283.585 244.133C282.987 244.954 282.692 240.791 282.22 240.166C281.747 239.539 282.122 241.733 281.789 241.935C281.456 242.139 280.761 240.322 280.462 239.681C280.163 239.039 281.193 236.677 281.197 235.03C281.198 233.382 283.916 234.127 283.916 234.127" fill="#FDC2B5"/>
<path d="M252.59 201.541C252.22 196.836 257.329 193.611 261.364 196.057C261.447 196.108 261.53 196.16 261.611 196.211C267.651 200.099 280.685 218.242 281.581 220.06C282.477 221.878 285.125 236.337 285.125 236.337C285.125 236.337 281.853 237.534 280.323 236.292C280.323 236.292 275.016 222.579 274.234 221.894C273.449 221.208 253.011 209.739 252.836 205.439C252.79 204.303 252.698 202.936 252.59 201.541" fill="#355389"/>
<path d="M225.649 193.951L227.427 199.055L201.758 207.994L199.979 202.889L225.649 193.951Z" fill="#FAC843"/>
<path d="M194.901 207.519L201.758 207.994L199.981 202.889L194.901 207.519ZM229.223 194.606L229.786 196.22C230.131 197.211 229.607 198.296 228.614 198.642L227.427 199.055L225.649 193.951L226.941 193.501C227.876 193.176 228.899 193.67 229.223 194.606" fill="#F9DDBF"/>
<path d="M289.062 307.735C289.062 307.735 291.496 309.957 291.02 311.538C290.547 313.116 288.348 314.169 288.05 316.099C287.754 318.031 286.565 319.083 285.496 319.083H280.4C280.4 319.083 279.612 317.724 281.513 317.315C283.414 316.905 284.131 314.636 284.012 312.531C283.894 310.426 284.19 307.619 284.19 307.619L288.229 306.682L289.062 307.735V307.735ZM259.184 313.484C259.184 313.484 259.62 318.542 258.551 319.069L244.867 319.041C244.867 319.041 244.867 317.462 247.064 317.111C249.263 316.759 253.125 315.473 253.778 312.607C254.431 309.74 259.184 313.484 259.184 313.484V313.484Z" fill="#233862"/>
<path d="M247.631 242.029C247.631 242.029 248.352 250.895 249.2 261.554C250.354 276.033 251.74 293.817 251.878 297.186C252.115 303.037 253.066 312.395 253.066 312.395C253.066 312.395 255.322 314.62 259.839 313.681C259.839 313.681 263.861 300.323 265.011 286.189C265.027 285.955 265.046 285.724 265.064 285.49C266.133 271.1 267.796 240.8 267.796 240.8L247.631 242.029" fill="#FAC843"/>
<path d="M247.631 242.029C247.631 242.029 248.352 250.895 249.2 261.554L265.011 286.189C265.027 285.955 265.046 285.724 265.064 285.49C266.133 271.1 267.796 240.8 267.796 240.8L247.631 242.029Z" fill="#EDB930"/>
<path d="M250.926 243.082C250.926 243.082 263.936 275.194 272.488 290.285C281.042 305.376 283.715 309.587 283.715 309.587C283.715 309.587 288.617 307.657 289.06 306.342C289.06 306.342 285.789 277.209 280.061 270.106C276.825 266.092 273.022 254.049 272.845 249.838C272.667 245.626 271.686 237.291 271.686 237.291L250.926 243.082Z" fill="#FAC843"/>
<path d="M262.142 194.912C262.142 194.912 253.429 199.332 248.323 197.857C248.323 197.857 249.541 196.258 251.703 195.042C251.508 194.027 251.353 193.146 251.259 192.399C251.011 190.674 250.991 189.694 250.991 189.694L254.334 186.955L257.502 184.336C257.392 191.527 262.142 194.912 262.142 194.912Z" fill="#FDC2B5"/>
<path d="M270.801 239.832C267.281 241.963 263.951 243.564 260.052 244.463C255.452 245.554 249.8 245.232 247.911 245.52C247.715 245.547 247.531 245.496 247.359 245.381C247.21 245.305 246.376 239.694 245.539 232.614C245.502 232.329 245.463 232.042 245.447 231.753L245.436 231.658C245.11 228.89 244.825 225.983 244.578 223.067C244.376 220.8 244.21 218.557 244.095 216.45C243.951 213.815 243.89 211.393 243.951 209.401C243.977 208.491 244.03 207.673 244.111 206.963C244.61 202.827 246.582 199.871 248.44 197.67L249.98 195.917C251.767 196.029 253.592 195.693 255.313 194.556C257.195 193.317 259.226 191.984 259.609 192.207C262.494 193.786 264.841 197.875 266.521 203.276C267.482 206.386 268.221 209.914 268.692 213.65C268.845 214.81 268.974 215.999 269.071 217.184C269.092 217.403 269.106 217.622 269.125 217.837C269.351 221.075 269.721 224.11 270.129 226.819C270.683 230.475 271.309 233.537 271.752 235.693C271.975 236.79 272.146 237.639 272.247 238.247C272.335 238.777 271.274 239.538 270.801 239.832" fill="#466EB6"/>
<path d="M257.614 187.082C257.614 187.082 255.471 191.18 251.259 192.399C251.011 190.674 250.991 189.694 250.991 189.694L254.334 186.955L257.614 187.082Z" fill="#E4AC9F"/>
<path d="M249.441 189.607C249.441 189.607 257.863 190.813 258.549 185.637C259.235 180.459 260.783 177.129 255.434 176.139C250.085 175.15 248.779 176.991 248.122 178.665C247.467 180.338 247.268 189.159 249.441 189.607Z" fill="#FDC2B5"/>
<path d="M258.724 209.862C258.724 209.862 251.622 215.265 244.095 216.45C243.951 213.815 243.89 211.393 243.951 209.401L258.724 209.862Z" fill="#233862"/>
<path d="M215.114 202.889C215.002 202.77 213.556 197.929 211.052 198.282C209.418 198.512 206.748 199.458 207.456 201.611C207.736 202.457 212.713 205.372 212.713 205.372L215.114 202.889" fill="#FDC2B5"/>
<path d="M259.603 199.421C263.651 201.844 263.324 207.878 258.992 209.751C258.904 209.791 258.814 209.827 258.726 209.864C252.058 212.538 229.719 212.663 227.719 212.34C225.719 212.02 212.396 205.809 212.396 205.809C212.396 205.809 213.315 202.447 215.213 201.919C215.213 201.919 229.465 205.532 230.477 205.289C231.491 205.045 252.674 195.019 256.28 197.365C257.233 197.986 258.402 198.704 259.603 199.421" fill="#466EB6"/>
<path d="M399.432 320.636H1.21202C1.06169 320.636 0.917536 320.576 0.811145 320.47C0.704755 320.364 0.644799 320.22 0.644409 320.069V319.538C0.644409 319.225 0.899974 318.969 1.21202 318.969H399.432C399.746 318.969 400 319.225 400 319.538V320.069C400 320.382 399.746 320.636 399.432 320.636Z" fill="#2E3552"/>
</svg>
