<svg width="568" height="174" viewBox="0 0 568 174" fill="none" xmlns="http://www.w3.org/2000/svg">
<g clip-path="url(#clip0_363_3)">
<path fill-rule="evenodd" clip-rule="evenodd" d="M171.887 27.6759C173.344 33.8063 174.053 40.0903 174 46.3911C173.983 73.7244 173.992 101.052 174.028 128.374C174.014 132.591 173.681 136.8 173.031 140.967C172.443 145.088 171.345 149.119 169.761 152.969C166.528 160.628 161.126 166.16 153.501 169.498C149.542 171.232 145.388 172.266 141.127 172.978C136.245 173.791 131.34 173.997 126.404 173.983C117.665 173.968 108.912 173.973 100.16 173.978C95.7835 173.98 91.4076 173.983 87.0335 173.983V173.958C83.1131 173.958 79.1928 173.96 75.2726 173.963C64.0721 173.97 52.8725 173.978 41.6712 173.924C38.7796 173.907 35.8936 173.466 33.0218 173.006C29.9837 172.536 26.9883 171.823 24.0645 170.874C14.8475 167.827 8.10412 162.026 4.29757 152.989C2.68515 149.162 1.71374 145.166 1.03884 141.077C0.217101 136.106 0.0279021 131.113 0.0279021 126.089C0.0448452 99.3548 0.0448452 72.6202 0.0279021 45.8856C0.00713715 40.4122 0.565607 34.9521 1.69398 29.5963C2.68515 24.9027 4.23544 20.4378 6.77691 16.3429C10.3124 10.6382 15.3303 6.70993 21.5005 4.19932C26.3095 2.23941 31.35 1.25098 36.4951 0.65228C42.0716 0.0013172 47.6799 0.00200683 53.284 0.00269595C53.4663 0.00271836 53.6485 0.00274077 53.8307 0.00274077C78.9065 -0.0292655 103.984 -0.0151468 129.064 0.0451002C132.769 0.0969607 136.465 0.413121 140.125 0.991169C144.575 1.63788 148.901 2.67149 153.047 4.42242C159.923 7.33123 165.153 12.0446 168.578 18.7094C170.032 21.5569 171.143 24.5667 171.887 27.6759ZM53.8618 67.8117C52.5567 69.1311 51.3953 70.5851 50.3969 72.1495C48.5473 75.0668 47.0309 78.1111 47.0676 81.051C47.0704 85.273 48.3779 88.2891 50.8544 90.8477C52.9136 92.9074 55.164 94.7664 57.5751 96.3999C62.8162 100.08 68.3764 103.217 74.0099 106.233C75.5273 107.046 77.062 107.825 78.5949 108.604C78.9163 108.767 79.2377 108.931 79.5588 109.094C79.608 109.121 79.6602 109.153 79.7142 109.187C79.9423 109.329 80.2028 109.491 80.406 109.306C80.6416 109.089 80.4869 108.857 80.3405 108.637C80.2869 108.557 80.2344 108.478 80.2026 108.402C79.8696 107.629 79.503 106.873 79.1359 106.116C79.1046 106.052 79.0733 105.987 79.042 105.923C75.2091 98.0522 70.8829 90.4318 66.0891 83.1069C62.692 77.8993 59.1141 72.816 55.2737 67.919C54.6299 67.0972 54.5706 67.0888 53.8618 67.8117ZM70.2825 83.8412C72.6712 88.704 75.3103 93.4398 78.1892 98.0294C79.5313 100.205 80.9513 102.334 82.3666 104.456C82.7977 105.102 83.2283 105.748 83.6562 106.394C83.6817 106.433 83.7062 106.476 83.731 106.52C83.8382 106.708 83.9537 106.91 84.2012 106.869C84.4258 106.831 84.459 106.63 84.4913 106.434C84.5029 106.364 84.5143 106.294 84.5344 106.233C84.5651 106.124 84.5831 106.011 84.5881 105.897C84.6407 105.327 84.6978 104.757 84.7548 104.186C84.8907 102.829 85.0265 101.472 85.102 100.114C85.1382 99.4628 85.1755 98.812 85.2127 98.1619C85.4456 94.0956 85.6767 90.0591 85.6329 86.2388C85.7065 80.1818 85.2976 74.1286 84.4102 68.1365C83.7663 63.9682 82.8514 59.8535 81.0385 55.993C80.4737 54.7842 80.1518 54.5894 78.8303 54.8322C77.7657 55.0243 76.7039 55.2446 75.6534 55.4931C73.2109 56.0398 70.9904 57.3116 69.2828 59.1418C65.8406 62.8611 65.0894 67.3316 66.0467 72.1326C66.8713 76.236 68.4639 80.0824 70.2825 83.8412ZM90.312 65.3548C89.0752 71.6638 88.6798 78.0603 88.5556 84.4738V84.4597C88.4741 88.7015 88.7301 92.9383 88.9868 97.1863C89.006 97.503 89.0251 97.8198 89.0441 98.1367C89.1329 99.6816 89.265 101.23 89.3968 102.774C89.483 103.784 89.5691 104.793 89.6428 105.798C89.6478 105.871 89.648 105.952 89.6481 106.038C89.6488 106.382 89.6495 106.784 89.9732 106.866C90.3318 106.956 90.516 106.622 90.6871 106.312C90.7369 106.222 90.7857 106.133 90.8373 106.058C92.9806 102.963 94.9968 99.7831 96.9509 96.5665C100.266 91.1019 103.446 85.5526 105.849 79.622C107.286 76.0693 108.537 72.4573 108.435 68.2212C108.746 64.6177 107.176 61.4124 104.482 58.7182C101.788 56.024 98.2951 55.2333 94.6749 54.8012C93.9802 54.7193 93.6555 55.1147 93.3731 55.6795C91.8539 58.7464 90.9615 62.0224 90.312 65.3548ZM105.699 86.9957C101.39 93.8893 97.4973 101.035 94.0423 108.394V108.38C94.013 108.442 93.9722 108.507 93.9303 108.573C93.7826 108.808 93.6212 109.064 93.8983 109.317C94.1152 109.504 94.3421 109.357 94.5559 109.219C94.6205 109.177 94.6839 109.136 94.7455 109.105C97.9119 107.528 101.035 105.872 104.115 104.138C110.46 100.571 116.746 96.9223 122.216 92.0508C125.277 89.3256 127.064 85.9875 127.223 81.8531C127.324 80.7518 127.06 79.7005 126.801 78.6686C126.771 78.5494 126.741 78.4304 126.711 78.3117C125.701 74.3579 123.433 71.1244 120.762 68.145C119.722 66.9841 119.7 67.0124 118.738 68.2437L118.731 68.2523C114.064 74.2688 109.714 80.5252 105.699 86.9957ZM41.8548 91.3984C41.2646 91.0793 41.0076 91.1471 40.8495 91.8221C40.2557 94.1437 40.1528 96.5637 40.5473 98.9274C41.2348 102.858 43.2845 106.421 46.3368 108.992C49.3891 111.562 53.249 112.975 57.2391 112.983H66.8261H71.8808C72.4712 112.983 73.0612 112.985 73.6511 112.987C74.8302 112.99 76.0085 112.994 77.1868 112.983C77.2555 112.982 77.331 112.989 77.4085 112.996C77.6906 113.021 77.998 113.048 78.0932 112.732C78.1679 112.481 77.9495 112.362 77.7353 112.245C77.65 112.199 77.5654 112.153 77.5002 112.099C77.3413 111.977 77.1753 111.865 77.0032 111.763C72.2027 108.606 67.2751 105.697 62.3192 102.822C55.5589 98.902 48.7196 95.1262 41.8548 91.3984ZM46.4297 154.054C46.6565 154.292 47.1915 154.237 48.4343 154.262C49.2617 154.279 49.5272 153.963 49.5159 153.153C49.5008 151.458 49.5058 149.764 49.5109 148.069C49.5134 147.222 49.5159 146.375 49.5159 145.528C49.5159 144.808 49.5181 144.088 49.5203 143.367C49.5247 141.924 49.5291 140.479 49.5159 139.032C49.5004 137.76 49.5993 137.211 49.3728 136.975C49.1433 136.736 48.5799 136.817 47.2257 136.79C46.5254 136.776 46.2628 137.027 46.2769 137.736C46.286 138.534 46.285 139.333 46.2839 140.133C46.2827 141.073 46.2814 142.014 46.2967 142.955C46.3052 143.669 46.0482 143.991 45.2999 143.991C43.1622 143.966 41.0217 143.96 38.8841 143.991C38.0849 144 37.8393 143.641 37.8562 142.898C37.8731 141.985 37.8675 141.072 37.8618 140.159C37.859 139.702 37.8562 139.246 37.8562 138.789C37.8392 137.673 37.9142 137.179 37.7039 136.964C37.4939 136.749 36.9996 136.812 35.8456 136.812C34.6285 136.804 34.6285 136.815 34.6285 138.069C34.6285 139.619 34.626 141.168 34.6235 142.718C34.6185 145.817 34.6135 148.916 34.6285 152.014C34.6384 153.29 34.5322 153.841 34.7565 154.077C34.9831 154.315 35.5467 154.234 36.9074 154.257C37.602 154.271 37.8618 154.011 37.8618 153.305C37.8439 152.365 37.8466 151.427 37.8492 150.489C37.8516 149.659 37.854 148.83 37.8421 148.001C37.8336 147.295 38.0736 146.928 38.8191 146.928H45.314C45.9917 146.926 46.2741 147.242 46.2741 147.928C46.2609 148.856 46.2653 149.78 46.2697 150.71C46.2719 151.177 46.2741 151.647 46.2741 152.119C46.2825 153.294 46.205 153.818 46.4297 154.054ZM49.8209 116.279C49.0302 116.298 48.9483 116.442 49.3634 117.126C50.3932 118.844 51.6819 120.393 53.1841 121.718C56.663 124.756 60.7209 126.024 65.4622 123.483C69.568 121.3 73.3972 118.755 77.1924 116.123C77.224 116.101 77.2588 116.08 77.2943 116.058C77.465 115.952 77.6522 115.836 77.5821 115.623C77.4938 115.377 77.2676 115.395 77.0576 115.412C77.0057 115.416 76.9548 115.42 76.9072 115.42C74.2859 115.429 71.67 115.539 69.0551 115.649C68.3685 115.678 67.682 115.707 66.9955 115.734C63.3406 115.889 59.683 115.994 56.0265 116.099C54.4424 116.144 52.8585 116.19 51.2751 116.239V116.279H49.8209ZM69.8843 142.856H69.9238C69.9238 142.332 69.9219 141.809 69.9199 141.286C69.9152 140.041 69.9104 138.796 69.9323 137.544C69.9436 137.024 69.7939 136.798 69.28 136.798L69.2637 136.799C68.6877 136.816 68.1283 136.832 67.5687 136.798C66.9306 136.756 66.7639 137.007 66.7639 137.646C66.795 140.608 66.8063 143.576 66.7639 146.539C66.747 148.366 66.4223 150.131 64.5049 150.978C61.5483 152.263 58.3348 150.577 58.3771 147.154C58.4167 144.446 58.4054 141.738 58.3771 139.029C58.3673 137.753 58.4747 137.205 58.2518 136.97C58.0263 136.732 57.4629 136.814 56.0983 136.787C55.4036 136.773 55.1438 137.021 55.1438 137.73C55.1598 139.231 55.156 140.733 55.1522 142.234C55.1472 144.182 55.1422 146.13 55.1805 148.078C55.2033 149.698 55.8484 151.247 56.9821 152.404C59.309 154.827 62.2994 154.615 65.1374 154.031C68.1081 153.427 69.8391 150.862 69.8843 147.818C69.8994 146.715 69.8943 145.613 69.8893 144.511C69.8868 143.959 69.8843 143.408 69.8843 142.856ZM88.9905 154.109C89.1787 154.105 89.367 154.101 89.5552 154.113C90.2386 154.152 90.408 153.952 90.1115 153.283C89.7107 152.384 89.3084 151.487 88.9061 150.589C87.1177 146.598 85.3286 142.605 83.6619 138.563C83.0632 137.106 82.3008 136.62 80.8182 136.787C80.1264 136.86 79.765 137.067 79.4826 137.708C78.4048 140.22 77.2968 142.723 76.1895 145.224C75.9014 145.875 75.6133 146.526 75.3259 147.177C74.3912 149.272 73.448 151.396 72.5218 153.508C72.5085 153.538 72.4913 153.571 72.473 153.607C72.3669 153.814 72.2218 154.098 72.5613 154.124C73.4954 154.183 74.4325 154.175 75.3654 154.099C75.6051 154.082 75.7079 153.819 75.8008 153.582C75.8195 153.534 75.8378 153.487 75.8567 153.443C75.9171 153.307 75.9779 153.17 76.0388 153.034C76.3027 152.441 76.5676 151.847 76.7971 151.241C77.0512 150.591 77.4946 150.348 78.1808 150.348C78.9622 150.355 79.743 150.351 80.5235 150.347C81.3958 150.342 82.2676 150.338 83.1395 150.348C84.4679 150.364 85.0118 150.267 85.3564 150.486C85.7018 150.704 85.8469 151.239 86.3812 152.52C87.0517 154.131 87.0629 154.13 88.0535 154.114C88.2353 154.111 88.4501 154.107 88.7081 154.113C88.8022 154.113 88.8963 154.111 88.9905 154.109ZM112.794 144.58C113.593 142.269 114.392 139.958 115.207 137.64C115.43 137.013 115.278 136.796 114.642 136.801C114.075 136.824 113.516 136.835 112.931 136.801C112.347 136.767 112.053 137.033 111.881 137.575C111.218 139.655 110.551 141.733 109.883 143.812C109.452 145.153 109.021 146.495 108.591 147.838C108.578 147.877 108.567 147.917 108.555 147.957C108.486 148.201 108.414 148.451 108.116 148.47C107.806 148.488 107.753 148.253 107.703 148.027C107.69 147.967 107.677 147.908 107.659 147.855C107.334 146.882 107.011 145.908 106.688 144.934C105.97 142.77 105.252 140.606 104.51 138.45C103.905 136.708 103.859 136.71 102.059 136.789L101.969 136.793C101.421 136.815 101.175 137.047 101.009 137.558C100.393 139.458 99.7662 141.355 99.1392 143.252C98.621 144.819 98.103 146.386 97.5919 147.953C97.5863 147.97 97.5807 147.987 97.5751 148.003C97.4992 148.231 97.4174 148.476 97.1175 148.476C96.8143 148.476 96.7341 148.225 96.6597 147.993C96.6551 147.979 96.6505 147.965 96.6459 147.951C96.3867 147.13 96.1272 146.311 95.8678 145.492C95.0616 142.947 94.2561 140.404 93.4634 137.84C93.2404 137.126 92.91 136.671 92.0798 136.801C91.8523 136.82 91.6238 136.82 91.3964 136.801H90.3713C89.8574 136.781 89.575 136.92 89.8574 137.485C89.9202 137.644 89.9731 137.807 90.0155 137.973C91.7362 142.84 93.4437 147.708 95.138 152.576C95.6471 154.049 95.6575 154.05 97.1279 154.099C97.1826 154.1 97.2394 154.102 97.2982 154.104C98.1595 154.138 98.5379 153.83 98.8203 153.009C99.6199 150.575 100.464 148.155 101.307 145.736C101.571 144.977 101.836 144.219 102.099 143.46C102.113 143.42 102.125 143.378 102.138 143.335C102.207 143.104 102.279 142.862 102.601 142.862C102.875 142.864 102.974 143.093 103.042 143.319C103.694 145.499 104.455 147.643 105.216 149.787C105.523 150.65 105.829 151.513 106.128 152.379C106.463 153.348 106.529 153.763 106.77 153.943C107.016 154.127 107.446 154.064 108.537 154.096C109.269 154.118 109.619 153.819 109.833 153.147C110.189 152.048 110.575 150.952 110.962 149.854C111.106 149.446 111.25 149.037 111.392 148.628C111.861 147.278 112.328 145.929 112.794 144.58ZM98.7361 117.289C102.254 119.666 105.77 122.043 109.613 123.904C112.451 125.279 115.204 125.174 117.991 123.799C120.945 122.359 123.007 120.001 124.738 117.304C125.319 116.4 125.243 116.276 124.156 116.276C122.051 116.268 119.951 116.171 117.85 116.073C116.963 116.032 116.075 115.991 115.187 115.957C111.398 115.799 107.608 115.695 103.819 115.591C102.112 115.544 100.405 115.497 98.6989 115.445V115.414H97.1599C97.121 115.416 97.0796 115.414 97.0375 115.412C96.8717 115.404 96.6954 115.395 96.6233 115.575C96.522 115.819 96.7094 115.935 96.8753 116.038C96.9035 116.055 96.9311 116.072 96.9566 116.089C97.5508 116.488 98.1435 116.888 98.7361 117.289ZM120.03 154.121C123.681 154.09 127.333 154.085 130.984 154.121C131.825 154.13 132.13 153.813 132.034 153.025V152.596C132.029 151.376 132.017 151.359 130.783 151.359H123.506C122.433 151.356 122.272 151.196 122.272 150.105C122.272 149.83 122.276 149.553 122.281 149.277C122.289 148.725 122.297 148.173 122.272 147.623C122.241 146.861 122.532 146.536 123.32 146.553C124.308 146.572 125.296 146.565 126.285 146.559C126.78 146.556 127.275 146.553 127.77 146.553C128.832 146.55 128.832 146.547 128.798 145.451C128.766 145.17 128.766 144.886 128.798 144.604C128.959 143.844 128.606 143.669 127.92 143.669C126.932 143.683 125.944 143.678 124.955 143.674C124.46 143.672 123.965 143.669 123.47 143.669C122.351 143.667 122.267 143.585 122.267 142.432C122.267 142.252 122.271 142.071 122.275 141.89C122.283 141.529 122.291 141.167 122.267 140.806C122.21 139.984 122.538 139.685 123.36 139.702C124.786 139.72 126.212 139.714 127.638 139.708C128.351 139.705 129.065 139.702 129.778 139.702C130.823 139.696 131.296 139.764 131.512 139.56C131.729 139.356 131.687 138.877 131.707 137.773C131.721 137.01 131.416 136.793 130.693 136.793C127.155 136.821 123.617 136.829 120.081 136.793C119.228 136.77 119.025 137.109 119.025 137.9C119.054 139.741 119.049 141.582 119.045 143.423C119.043 144.093 119.042 144.762 119.042 145.432C119.042 146.102 119.043 146.773 119.044 147.443C119.047 149.341 119.051 151.238 119.028 153.136C119.019 153.887 119.29 154.121 120.03 154.121ZM122.433 112.062C128.637 109.806 132.41 105.437 133.661 98.967C134.114 96.5657 134.017 94.0932 133.379 91.7345C133.22 91.1076 132.972 90.9353 132.373 91.2968C131.803 91.6545 131.206 91.9725 130.61 92.2899C130.35 92.4286 130.089 92.5672 129.832 92.7088C123.461 96.205 117.11 99.7295 110.83 103.401C106.052 106.188 101.322 109.052 96.6911 112.079C96.6385 112.116 96.5763 112.151 96.5127 112.186C96.2895 112.31 96.0472 112.444 96.1263 112.734C96.2069 113.03 96.5021 113.002 96.7617 112.978C96.8296 112.972 96.8951 112.966 96.9537 112.966H106.45C107.448 112.966 108.446 112.973 109.444 112.98C111.44 112.994 113.437 113.007 115.433 112.966C115.536 112.963 115.64 112.961 115.744 112.959C118.002 112.906 120.273 112.853 122.433 112.062ZM139.724 148.363C139.731 145.283 139.737 142.204 139.718 139.125C139.711 137.805 139.833 137.231 139.603 136.985C139.367 136.733 138.76 136.828 137.261 136.818H137.089C136.685 136.827 136.578 137.027 136.578 137.422V145.46H136.626V152.133C136.626 153.13 136.626 153.628 136.875 153.875C137.125 154.123 137.624 154.118 138.622 154.11C139.673 154.11 139.718 154.059 139.718 152.98C139.718 151.441 139.721 149.902 139.724 148.363ZM83.34 147.581C84.0205 147.569 84.1927 147.216 83.933 146.62C83.2232 145.003 82.5088 143.383 81.7896 141.76C81.6965 141.548 81.6004 141.342 81.3152 141.325C81.0319 141.309 80.9325 141.543 80.8453 141.748L80.8437 141.752C80.1245 143.399 79.4129 145.048 78.7088 146.7C78.4603 147.279 78.6862 147.581 79.3075 147.581H81.2842C81.513 147.581 81.7422 147.582 81.9712 147.583C82.429 147.586 82.8864 147.588 83.34 147.581ZM129.231 22.3135C129.508 21.9551 129.785 21.5969 130.063 21.2397C130.769 20.0706 131.461 18.9155 132.136 17.7379C132.332 17.4184 132.426 17.0471 132.406 16.673C132.387 16.2989 132.254 15.9396 132.026 15.6424C131.824 15.328 131.534 15.08 131.192 14.9293C130.85 14.7787 130.471 14.732 130.103 14.7952C129.371 14.894 128.886 15.3713 128.524 15.9813C127.965 16.9985 127.32 17.9659 126.596 18.8732C126.623 19.0719 126.511 19.2043 126.399 19.3353C126.363 19.3774 126.327 19.4194 126.296 19.4634C125.048 21.269 123.667 22.9795 122.165 24.5806C113.998 33.2138 104.098 38.3904 92.2548 39.7826C84.7076 40.6798 77.0552 39.7709 69.928 37.1308C62.8008 34.4907 56.4028 30.195 51.261 24.5976C49.6175 22.824 48.0305 20.994 46.7936 18.8957C46.2333 18.212 45.7813 17.4585 45.3287 16.7041C45.1701 16.4397 45.0114 16.1752 44.848 15.9135C44.1703 14.8291 43.0633 14.4648 42.0919 15.0296C41.0217 15.6424 40.7421 16.7946 41.4142 17.9694C41.87 18.7687 42.3421 19.5577 42.8144 20.347C42.9946 20.6481 43.1748 20.9492 43.3542 21.251C43.61 21.3443 43.7294 21.5524 43.8464 21.7565C43.8818 21.8182 43.917 21.8796 43.9557 21.9373C45.2078 23.8089 46.7013 25.4906 48.1914 27.1683C48.2639 27.2499 48.3364 27.3315 48.4089 27.4132C51.0552 30.3578 54.0684 32.9508 57.3746 35.1286C64.1659 39.664 71.5757 42.5672 79.6971 43.6403C87.2929 44.6994 95.0292 44.0491 102.342 41.7369C112.411 38.5372 120.827 32.8523 127.451 24.5863C128.054 23.8356 128.643 23.0744 129.231 22.3135Z" fill="white"/>
</g>
<path d="M221.2 40.096H232.192V56.176C228.608 57.712 224.688 58.48 220.432 58.48C215.248 58.48 211.264 56.912 208.48 53.776C205.728 50.64 204.352 46.288 204.352 40.72C204.352 35.44 205.888 31.168 208.96 27.904C212.032 24.608 216.208 22.96 221.488 22.96C225.2 22.96 228.448 23.632 231.232 24.976L229.696 28.432C227.424 27.536 224.976 27.088 222.352 27.088C218.128 27.088 214.96 28.32 212.848 30.784C210.768 33.216 209.728 36.528 209.728 40.72C209.728 44.944 210.64 48.256 212.464 50.656C214.32 53.056 217.184 54.256 221.056 54.256C223.36 54.256 225.392 53.968 227.152 53.392V44.32H221.2V40.096ZM259.075 46H242.995C243.123 51.728 245.747 54.592 250.867 54.592C253.139 54.592 255.267 54.144 257.251 53.248L258.451 56.56C256.083 57.84 253.251 58.48 249.955 58.48C246.019 58.48 243.011 57.36 240.931 55.12C238.883 52.848 237.859 49.568 237.859 45.28C237.859 41.28 238.915 38.08 241.027 35.68C243.139 33.28 245.923 32.08 249.379 32.08C252.515 32.08 254.947 33.104 256.675 35.152C258.403 37.168 259.267 39.792 259.267 43.024C259.267 44.208 259.203 45.2 259.075 46ZM249.283 35.68C247.619 35.68 246.227 36.336 245.107 37.648C244.019 38.928 243.379 40.64 243.187 42.784L254.179 42.256C254.179 40.08 253.699 38.448 252.739 37.36C251.811 36.24 250.659 35.68 249.283 35.68ZM265.659 49.504V36.112H262.107V33.52L265.659 32.56L265.995 25.6L270.411 24.736L270.699 25.024V32.56H277.227V36.112H270.699V47.008C270.699 48.448 270.763 49.6 270.891 50.464C271.019 51.328 271.307 52.112 271.755 52.816C272.203 53.52 272.859 53.984 273.723 54.208C274.619 54.432 275.787 54.48 277.227 54.352V58.24C276.267 58.4 275.307 58.48 274.347 58.48C268.555 58.48 265.659 55.488 265.659 49.504ZM293.97 23.44H299.202V58H293.97V23.44ZM307.425 49.504V36.112H303.873V33.52L307.425 32.56L307.761 25.6L312.177 24.736L312.465 25.024V32.56H318.993V36.112H312.465V47.008C312.465 48.448 312.529 49.6 312.657 50.464C312.785 51.328 313.073 52.112 313.521 52.816C313.969 53.52 314.625 53.984 315.489 54.208C316.385 54.432 317.553 54.48 318.993 54.352V58.24C318.033 58.4 317.073 58.48 316.113 58.48C310.321 58.48 307.425 55.488 307.425 49.504ZM334.055 40.72C334.055 35.056 335.367 30.688 337.991 27.616C340.615 24.512 344.423 22.96 349.415 22.96C354.407 22.96 358.215 24.512 360.839 27.616C363.463 30.688 364.775 35.056 364.775 40.72C364.775 46.544 363.463 50.96 360.839 53.968C358.247 56.976 354.439 58.48 349.415 58.48C344.359 58.48 340.535 56.976 337.943 53.968C335.351 50.96 334.055 46.544 334.055 40.72ZM359.351 40.72C359.351 36.528 358.551 33.184 356.951 30.688C355.351 28.16 352.839 26.896 349.415 26.896C345.991 26.896 343.463 28.16 341.831 30.688C340.231 33.184 339.431 36.528 339.431 40.72C339.431 44.944 340.231 48.304 341.831 50.8C343.431 53.296 345.959 54.544 349.415 54.544C352.839 54.544 355.351 53.296 356.951 50.8C358.551 48.304 359.351 44.944 359.351 40.72ZM370.79 58V32.56L373.19 32.176C374.278 31.984 374.982 32.096 375.302 32.512C375.622 32.928 375.782 33.648 375.782 34.672V35.536H375.974C378.278 33.232 380.918 32.08 383.894 32.08C389.046 32.08 391.622 35.232 391.622 41.536V58H386.582V43.84C386.582 42.88 386.566 42.112 386.534 41.536C386.502 40.928 386.406 40.24 386.246 39.472C386.086 38.704 385.846 38.112 385.526 37.696C385.238 37.28 384.806 36.928 384.23 36.64C383.654 36.32 382.95 36.16 382.118 36.16C380.998 36.16 379.862 36.432 378.71 36.976C377.59 37.488 376.63 38.16 375.83 38.992V58H370.79Z" fill="white"/>
<path d="M247.936 136H239.872L234.616 120.736H216.544L211.36 136H203.728V135.28L221.08 84.16H230.512L247.936 135.28V136ZM218.344 114.832H232.888L230.8 108.568C230.032 106.264 229.24 103.72 228.424 100.936C227.608 98.152 226.96 95.92 226.48 94.24L225.832 91.792H225.544C223.912 97.84 222.208 103.456 220.432 108.64L218.344 114.832ZM262.776 107.992V130.96C264.456 131.344 266.016 131.536 267.456 131.536C271.392 131.536 274.512 130.264 276.816 127.72C279.12 125.128 280.272 121.384 280.272 116.488C280.272 112.696 279.6 109.552 278.256 107.056C276.912 104.512 274.656 103.24 271.488 103.24C268.224 103.24 265.32 104.824 262.776 107.992ZM255.216 150.4V97.84L258.816 97.264C260.448 96.976 261.504 97.144 261.984 97.768C262.464 98.392 262.704 99.448 262.704 100.936V102.304H262.992C266.16 98.848 269.904 97.12 274.224 97.12C278.64 97.12 282.048 98.896 284.448 102.448C286.848 106 288.048 110.296 288.048 115.336C288.048 121.624 286.392 126.76 283.08 130.744C279.768 134.728 275.328 136.72 269.76 136.72C267.408 136.72 265.08 136.36 262.776 135.64V150.4H255.216ZM304.12 107.992V130.96C305.8 131.344 307.36 131.536 308.8 131.536C312.736 131.536 315.856 130.264 318.16 127.72C320.464 125.128 321.616 121.384 321.616 116.488C321.616 112.696 320.944 109.552 319.6 107.056C318.256 104.512 316 103.24 312.832 103.24C309.568 103.24 306.664 104.824 304.12 107.992ZM296.56 150.4V97.84L300.16 97.264C301.792 96.976 302.848 97.144 303.328 97.768C303.808 98.392 304.048 99.448 304.048 100.936V102.304H304.336C307.504 98.848 311.248 97.12 315.568 97.12C319.984 97.12 323.392 98.896 325.792 102.448C328.192 106 329.392 110.296 329.392 115.336C329.392 121.624 327.736 126.76 324.424 130.744C321.112 134.728 316.672 136.72 311.104 136.72C308.752 136.72 306.424 136.36 304.12 135.64V150.4H296.56ZM361.159 109.144H377.647V133.264C372.271 135.568 366.391 136.72 360.007 136.72C352.231 136.72 346.255 134.368 342.079 129.664C337.951 124.96 335.887 118.432 335.887 110.08C335.887 102.16 338.191 95.752 342.799 90.856C347.407 85.912 353.671 83.44 361.591 83.44C367.159 83.44 372.031 84.448 376.207 86.464L373.903 91.648C370.495 90.304 366.823 89.632 362.887 89.632C356.551 89.632 351.799 91.48 348.631 95.176C345.511 98.824 343.951 103.792 343.951 110.08C343.951 116.416 345.319 121.384 348.055 124.984C350.839 128.584 355.135 130.384 360.943 130.384C364.399 130.384 367.447 129.952 370.087 129.088V115.48H361.159V109.144ZM416.243 110.008V136.36L413.795 136.648C410.483 137.08 408.827 135.616 408.827 132.256V131.32H408.539C405.611 134.92 401.723 136.72 396.875 136.72C393.515 136.72 390.827 135.76 388.811 133.84C386.795 131.92 385.787 129.232 385.787 125.776C385.787 123.808 386.099 122.08 386.723 120.592C387.395 119.104 388.355 117.928 389.603 117.064C390.851 116.152 392.147 115.408 393.491 114.832C394.883 114.208 396.539 113.776 398.459 113.536C400.427 113.248 402.131 113.08 403.571 113.032C405.011 112.936 406.715 112.888 408.683 112.888V110.152C408.683 105.256 405.995 102.808 400.619 102.808C396.923 102.808 393.371 103.48 389.963 104.824L388.379 99.928C393.467 98.056 398.075 97.12 402.203 97.12C411.563 97.12 416.243 101.416 416.243 110.008ZM408.683 125.704V117.784H407.099C398.075 117.784 393.563 120.304 393.563 125.344C393.563 129.232 395.435 131.176 399.179 131.176C401.003 131.176 402.755 130.672 404.435 129.664C406.163 128.608 407.579 127.288 408.683 125.704ZM426.7 123.256V82L430.3 81.424C431.884 81.136 432.94 81.304 433.468 81.928C433.996 82.552 434.26 83.632 434.26 85.168V119.728C434.26 124.24 434.788 127.216 435.844 128.656C436.948 130.096 439.036 130.72 442.108 130.528V136.36C441.292 136.6 440.188 136.72 438.796 136.72C435.196 136.72 432.268 135.664 430.012 133.552C427.804 131.392 426.7 127.96 426.7 123.256ZM448.004 123.256V82L451.604 81.424C453.188 81.136 454.244 81.304 454.772 81.928C455.3 82.552 455.564 83.632 455.564 85.168V119.728C455.564 124.24 456.092 127.216 457.148 128.656C458.252 130.096 460.34 130.72 463.412 130.528V136.36C462.596 136.6 461.492 136.72 460.1 136.72C456.5 136.72 453.572 135.664 451.316 133.552C449.108 131.392 448.004 127.96 448.004 123.256ZM498.901 118H474.781C474.973 126.592 478.909 130.888 486.589 130.888C489.997 130.888 493.189 130.216 496.165 128.872L497.965 133.84C494.413 135.76 490.165 136.72 485.221 136.72C479.317 136.72 474.805 135.04 471.685 131.68C468.613 128.272 467.077 123.352 467.077 116.92C467.077 110.92 468.661 106.12 471.829 102.52C474.997 98.92 479.173 97.12 484.357 97.12C489.061 97.12 492.709 98.656 495.301 101.728C497.893 104.752 499.189 108.688 499.189 113.536C499.189 115.312 499.093 116.8 498.901 118ZM484.213 102.52C481.717 102.52 479.629 103.504 477.949 105.472C476.317 107.392 475.357 109.96 475.069 113.176L491.557 112.384C491.557 109.12 490.837 106.672 489.397 105.04C488.005 103.36 486.277 102.52 484.213 102.52ZM507.708 97.84L511.308 97.264C512.892 96.976 513.924 97.144 514.404 97.768C514.932 98.344 515.196 99.4 515.196 100.936V102.304H515.484C517.02 100.672 518.796 99.4 520.812 98.488C522.876 97.576 524.868 97.12 526.788 97.12C528.372 97.12 529.644 97.36 530.604 97.84V98.56L528.516 104.464C527.268 103.984 525.948 103.744 524.556 103.744C521.292 103.744 518.196 105.16 515.268 107.992V136H507.708V97.84ZM545.906 134.776L531.362 98.56V97.84H539.642L546.554 116.632L549.578 126.28H549.866C550.874 122.584 551.834 119.344 552.746 116.56L559.01 97.84H566.786V98.56L555.842 128.512C552.866 136.576 549.698 142.408 546.338 146.008C542.978 149.608 538.946 151.312 534.242 151.12L532.514 144.64L532.658 143.92C538.082 144.688 542.498 141.64 545.906 134.776Z" fill="white"/>
<defs>
<clipPath id="clip0_363_3">
<rect width="174" height="174" fill="white"/>
</clipPath>
</defs>
</svg>
