<svg width="32" height="32" viewBox="0 0 32 32" fill="none" xmlns="http://www.w3.org/2000/svg">
<rect width="32" height="32" rx="6" fill="white"/>
<path d="M22.1526 17.7298C21.7598 17.3226 21.2859 17.1048 20.7836 17.1048C20.2855 17.1048 19.8075 17.3185 19.3984 17.7258L18.1185 18.996C18.0132 18.9395 17.9079 18.8871 17.8067 18.8347C17.6609 18.7621 17.5231 18.6935 17.4057 18.621C16.2068 17.8629 15.1173 16.875 14.0723 15.5968C13.566 14.9597 13.2258 14.4234 12.9787 13.879C13.3108 13.5766 13.6187 13.2621 13.9184 12.9597C14.0318 12.8468 14.1452 12.7298 14.2586 12.6169C15.1092 11.7702 15.1092 10.6734 14.2586 9.82661L13.1529 8.72581C13.0273 8.60081 12.8977 8.47177 12.7762 8.34274C12.5332 8.09274 12.278 7.83468 12.0147 7.59274C11.6219 7.20565 11.152 7 10.6579 7C10.1637 7 9.68581 7.20565 9.28078 7.59274C9.27673 7.59677 9.27673 7.59677 9.27268 7.60081L7.89558 8.98387C7.37714 9.5 7.08147 10.129 7.01667 10.8589C6.91946 12.0363 7.26778 13.1331 7.5351 13.8508C8.19125 15.6129 9.17143 17.246 10.6336 18.996C12.4076 21.1048 14.5421 22.7702 16.9804 23.9435C17.912 24.3831 19.1554 24.9032 20.5447 24.9919C20.6297 24.996 20.7188 25 20.7998 25C21.7355 25 22.5212 24.6653 23.1369 24C23.1409 23.9919 23.149 23.9879 23.1531 23.9798C23.3637 23.7258 23.6067 23.496 23.8619 23.25C24.036 23.0847 24.2142 22.9113 24.3884 22.7298C24.7894 22.3145 25 21.8306 25 21.3347C25 20.8347 24.7853 20.3548 24.3763 19.9516L22.1526 17.7298ZM23.6026 21.9758C23.5986 21.9758 23.5986 21.9798 23.6026 21.9758C23.4447 22.1452 23.2827 22.2984 23.1085 22.4677C22.8452 22.7177 22.5779 22.9798 22.3268 23.2742C21.9177 23.7097 21.4357 23.9153 20.8039 23.9153C20.7431 23.9153 20.6783 23.9153 20.6176 23.9113C19.4146 23.8347 18.2968 23.3669 17.4583 22.9677C15.1659 21.8629 13.1529 20.2944 11.4801 18.3065C10.0989 16.6492 9.17548 15.1169 8.56388 13.4718C8.1872 12.4677 8.04949 11.6855 8.11025 10.9476C8.15075 10.4758 8.33301 10.0847 8.66919 9.75L10.0503 8.375C10.2488 8.18952 10.4594 8.08871 10.666 8.08871C10.9212 8.08871 11.1277 8.24194 11.2573 8.37097C11.2614 8.375 11.2654 8.37903 11.2695 8.38306C11.5165 8.6129 11.7515 8.85081 11.9985 9.10484C12.1241 9.23387 12.2537 9.3629 12.3833 9.49597L13.489 10.5968C13.9184 11.0242 13.9184 11.4194 13.489 11.8468C13.3716 11.9637 13.2582 12.0806 13.1407 12.1935C12.8005 12.5403 12.4765 12.8629 12.1241 13.1774C12.116 13.1855 12.1079 13.1895 12.1038 13.1976C11.7555 13.5444 11.8203 13.8831 11.8932 14.1129C11.8973 14.125 11.9013 14.1371 11.9054 14.1492C12.193 14.8427 12.598 15.496 13.2136 16.2742L13.2177 16.2782C14.3356 17.6492 15.5142 18.7177 16.8143 19.5363C16.9804 19.6411 17.1505 19.7258 17.3125 19.8065C17.4583 19.879 17.5961 19.9476 17.7135 20.0202C17.7297 20.0282 17.7459 20.0403 17.7621 20.0484C17.8998 20.1169 18.0294 20.1492 18.1631 20.1492C18.4993 20.1492 18.7099 19.9395 18.7787 19.871L20.1639 18.4919C20.3017 18.3548 20.5204 18.1895 20.7755 18.1895C21.0267 18.1895 21.2332 18.3468 21.3588 18.4839C21.3628 18.4879 21.3628 18.4879 21.3669 18.4919L23.5986 20.7137C24.0158 21.125 24.0158 21.5484 23.6026 21.9758Z" fill="#434A54"/>
</svg>
