<svg width="32" height="32" viewBox="0 0 32 32" fill="none" xmlns="http://www.w3.org/2000/svg">
<rect width="32" height="32" rx="6" fill="white"/>
<path d="M8.32356 25.012C7.95555 24.8151 7.8889 24.6175 8.05699 24.2265C8.43739 23.3442 8.81543 22.4607 9.20055 21.5807C9.25009 21.4675 9.24774 21.3897 9.16989 21.2894C8.49578 20.4195 8.0104 19.4523 7.71138 18.3936C7.39291 17.2654 7.3068 16.1177 7.45483 14.9529C7.63943 13.4968 8.15548 12.1692 9.02244 10.9879C10.4108 9.09708 12.2567 7.89984 14.5757 7.52003C17.6467 7.01696 20.28 7.91871 22.4173 10.1781C23.6653 11.4969 24.4025 13.0869 24.6136 14.8951C24.9557 17.8251 24.0545 20.3275 21.9243 22.364C20.684 23.55 19.1924 24.2748 17.4986 24.5656C16.1003 24.8056 14.7226 24.7171 13.3761 24.2601C13.1461 24.1822 12.9373 24.2294 12.7209 24.2677C11.3833 24.5019 10.0469 24.7396 8.70986 24.9749C8.67625 24.9808 8.64145 24.9814 8.60724 24.9843C8.55063 25.015 8.48221 24.9725 8.42736 25.0132H8.32415L8.32356 25.012Z" fill="#434A54"/>
<path d="M8.42691 25.0119C8.48058 24.9641 8.54368 24.9736 8.60679 24.983C8.60502 24.993 8.60207 25.0025 8.59912 25.0119H8.42691Z" fill="#3E3E3E"/>
<path d="M9.22412 23.9108C9.4506 23.3835 9.67117 22.8704 9.89174 22.3567C10.0003 22.1043 10.1035 21.8501 10.2185 21.6007C10.3246 21.3718 10.2934 21.1713 10.133 20.9802C9.63755 20.3875 9.23356 19.7387 8.93632 19.0239C8.47335 17.9099 8.2687 16.7516 8.35126 15.5478C8.49045 13.5249 9.30138 11.8111 10.774 10.4227C12.1341 9.13998 13.7595 8.41338 15.6284 8.34556C18.7725 8.23115 21.1693 9.55813 22.7717 12.2605C23.5644 13.5969 23.8416 15.0731 23.7278 16.6248C23.4995 19.7311 21.3669 22.4198 18.4151 23.3735C16.7667 23.9061 15.1218 23.8748 13.487 23.3069C13.313 23.2461 13.1437 23.2343 12.9644 23.2662C11.7572 23.4803 10.5499 23.692 9.34208 23.9043C9.30905 23.9102 9.27484 23.9084 9.22294 23.9114L9.22412 23.9108Z" fill="#FEFEFE"/>
<path d="M16.0379 17.6132C15.0742 17.6132 14.1111 17.6156 13.1474 17.612C12.8001 17.6109 12.5789 17.3396 12.6579 17.0258C12.7075 16.8312 12.8732 16.6908 13.0755 16.6761C13.1327 16.672 13.1899 16.6731 13.2477 16.6731C15.1114 16.6731 16.9756 16.6731 18.8393 16.6731C18.9248 16.6731 19.0133 16.6702 19.0953 16.6908C19.3129 16.7457 19.4633 16.9686 19.4403 17.1839C19.4138 17.4304 19.2233 17.6091 18.9626 17.6103C17.9877 17.6138 17.0128 17.6115 16.0379 17.6115V17.6132Z" fill="#434A54"/>
<path d="M14.3859 15.2566C13.9731 15.2566 13.5608 15.2619 13.148 15.2554C12.7912 15.2495 12.5718 14.9688 12.6614 14.6491C12.7163 14.4539 12.8844 14.3112 13.1073 14.31C13.9613 14.3041 14.8153 14.3023 15.6687 14.3112C15.9412 14.3141 16.1393 14.5341 16.1352 14.7871C16.1311 15.0484 15.9288 15.2495 15.6404 15.2548C15.2222 15.2625 14.8035 15.2566 14.3853 15.2572L14.3859 15.2566Z" fill="#434A54"/>
</svg>
