<svg width="17" height="17" viewBox="0 0 17 17" fill="none" xmlns="http://www.w3.org/2000/svg">
<path d="M9.59125 2.50317C10.1956 2.49983 10.7995 2.49899 11.4038 2.50359L9.61469 2.42325L9.61498 2.42757C9.61508 2.42856 9.61516 2.42901 9.61516 2.42901L9.61477 2.42737C9.61447 2.42631 9.61397 2.4247 9.61315 2.42268C9.61145 2.4185 9.60852 2.41291 9.60376 2.40706L9.59075 2.40665L9.59125 2.50317ZM9.59125 2.50317L9.59072 2.40665L9.49937 2.40377M9.59125 2.50317C9.51065 2.50359 9.49728 2.47393 9.49937 2.40377M9.61529 2.38765C9.60707 2.38769 9.59884 2.38774 9.59061 2.38778M9.61529 2.38765C9.6151 2.39417 9.61491 2.40068 9.6147 2.4072L9.59061 2.38778M9.61529 2.38765C9.61936 2.24606 9.61916 2.10446 9.6147 1.96287L9.6147 1.96282C9.59697 1.40735 9.16483 0.946682 8.61275 0.890309L8.61271 0.890305C8.05311 0.833365 7.53809 1.20879 7.4139 1.75813L7.41387 1.75828C7.38792 1.87376 7.38286 1.98747 7.38318 2.0948C7.38333 2.14392 7.38445 2.18839 7.38553 2.23142C7.38685 2.28369 7.38811 2.33385 7.38751 2.38768M9.61529 2.38765C10.206 2.38445 10.7965 2.38368 11.3875 2.38807M9.59061 2.38778C9.57987 2.38784 9.57546 2.38703 9.57519 2.387C9.5751 2.38699 9.57545 2.38707 9.57616 2.38729C9.57811 2.38788 9.58238 2.38941 9.58772 2.39278C9.5887 2.3934 9.58967 2.39405 9.59065 2.39475M9.59061 2.38778L9.59065 2.39475M7.38751 2.38768L11.5028 2.395L11.4102 2.39309M7.38751 2.38768C6.79657 2.38489 6.20602 2.38489 5.61508 2.38769C5.61984 2.25209 5.61775 2.11694 5.615 1.98457L5.615 1.98444C5.60246 1.41182 5.16477 0.938305 4.59949 0.889718L4.59948 0.889718C4.03516 0.841255 3.53321 1.21569 3.41111 1.77003L3.41109 1.7701C3.37401 1.93896 3.37971 2.11293 3.38483 2.26915C3.38617 2.31001 3.38747 2.34965 3.38795 2.38766M7.38751 2.38768L3.4132 2.38737L3.38795 2.3877C3.38795 2.38769 3.38795 2.38767 3.38795 2.38766M11.3875 2.38807C11.3875 2.38959 11.3875 2.3911 11.3874 2.39262L11.4046 2.39298L11.4048 2.39298L11.4102 2.39309M11.3875 2.38807C11.3886 2.33057 11.3873 2.27734 11.3859 2.22159C11.3849 2.18044 11.3839 2.13791 11.3837 2.09126C11.3834 1.98661 11.3883 1.87551 11.4136 1.76252L11.5262 1.78775M11.3875 2.38807L11.5262 1.78775M11.4102 2.39309C11.4097 2.39343 11.4091 2.39379 11.4086 2.39416C11.4073 2.39506 11.406 2.39602 11.4048 2.39704C11.4047 2.39708 11.4047 2.39713 11.4046 2.39718C11.4004 2.4006 11.3966 2.40462 11.3934 2.40903C11.3869 2.418 11.3853 2.4251 11.3853 2.42514C11.3853 2.42515 11.3854 2.42478 11.3855 2.42396C11.3858 2.42213 11.3863 2.4188 11.3866 2.41319C11.387 2.4076 11.3872 2.40091 11.3874 2.39236L11.4046 2.39276L11.4048 2.39276L11.4105 2.39289C11.4104 2.39296 11.4103 2.39302 11.4102 2.39309ZM10.2684 14.5028C10.2309 14.4988 10.1932 14.4995 10.1554 14.5002C10.141 14.5004 10.1266 14.5007 10.1122 14.5007H2.34647C1.79853 14.5007 1.50033 14.2012 1.50033 13.6504C1.50033 13.0068 1.50053 12.2388 1.50074 11.4104C1.50134 9.02759 1.50207 6.14593 1.49866 4.2949C1.49824 4.16084 1.52539 4.12576 1.66488 4.12576C3.50742 4.13015 5.34995 4.12989 7.19249 4.12964C7.62608 4.12957 8.05968 4.12951 8.49328 4.12951C8.95064 4.12951 9.40801 4.12956 9.86538 4.12961C11.6946 4.12981 13.5238 4.13002 15.353 4.12701C15.472 4.12659 15.5063 4.15248 15.5059 4.27694L1 3.84212V13.6541C1 14.4785 1.52121 15.0006 2.34354 15.0006H10.1406C10.152 15.0006 10.1634 15.0008 10.1748 15.001C10.2051 15.0015 10.2354 15.002 10.2655 14.9989C10.4029 14.9847 10.499 14.882 10.4998 14.7521C10.5006 14.6222 10.4046 14.517 10.2684 14.5028ZM10.2684 14.5028L10.2804 14.388M10.2684 14.5028L10.2804 14.388C10.2804 14.388 10.2804 14.388 10.2804 14.388M8.60103 1.0051C8.10028 0.954145 7.63795 1.29034 7.52644 1.78358C7.49365 1.92951 7.49722 2.0767 7.50079 2.22382L8.60103 1.0051ZM8.60103 1.0051C9.09593 1.05563 9.4835 1.46909 9.49937 1.9665C9.50396 2.11226 9.50396 2.25801 9.49937 2.40377M8.60103 1.0051L9.59065 2.39475M5.59528 2.50317C5.52178 2.50359 5.49547 2.48563 5.49881 2.40878C5.50465 2.26845 5.50257 2.12771 5.49964 1.98697C5.48837 1.47202 5.09495 1.04811 4.58961 1.00468M5.59528 2.50317L4.58961 1.00468M5.59528 2.50317C6.1996 2.50024 6.80351 2.50024 7.40783 2.50317M5.59528 2.50317H7.40783M4.58961 1.00468L4.58961 1.00467L4.58961 1.00468ZM10.2804 14.388C10.4724 14.408 10.6164 14.5604 10.6152 14.7528C10.6139 14.9457 10.4691 15.0939 10.2774 15.1137L10.2771 15.1137C10.2396 15.1175 10.1986 15.1168 10.1668 15.1163C10.1571 15.1161 10.1482 15.116 10.1406 15.116H10.1273H10.114H10.1007H10.0873H10.074H10.0606H10.0471H10.0337H10.0202H10.0067H9.99322H9.97969H9.96614H9.95256H9.93896H9.92534H9.9117H9.89804H9.88435H9.87065H9.85692H9.84318H9.82941H9.81562H9.80181H9.78798H9.77413H9.76026H9.74637H9.73246H9.71852H9.70457H9.6906H9.67661H9.66259H9.64856H9.63451H9.62044H9.60635H9.59224H9.57811H9.56396H9.5498H9.53561H9.5214H9.50718H9.49294H9.47867H9.46439H9.45009H9.43578H9.42144H9.40709H9.39271H9.37832H9.36392H9.34949H9.33505H9.32059H9.30611H9.29161H9.2771H9.26256H9.24802H9.23345H9.21887H9.20427H9.18965H9.17502H9.16037H9.1457H9.13102H9.11632H9.1016H9.08687H9.07212H9.05735H9.04257H9.02778H9.01296H8.99813H8.98329H8.96843H8.95356H8.93867H8.92376H8.90884H8.8939H8.87895H8.86399H8.84901H8.83401H8.819H8.80397H8.78894H8.77388H8.75881H8.74373H8.72864H8.71353H8.6984H8.68326H8.66811H8.65295H8.63777H8.62257H8.60737H8.59215H8.57692H8.56167H8.54641H8.53114H8.51585H8.50056H8.48525H8.46992H8.45459H8.43924H8.42388H8.40851H8.39312H8.37773H8.36232H8.3469H8.33147H8.31602H8.30057H8.2851H8.26962H8.25413H8.23863H8.22312H8.20759H8.19206H8.17652H8.16096H8.14539H8.12981H8.11423H8.09863H8.08302H8.0674H8.05177H8.03613H8.02048H8.00482H7.98915H7.97347H7.95779H7.94209H7.92638H7.91066H7.89494H7.8792H7.86346H7.8477H7.83194H7.81617H7.80039H7.7846H7.7688H7.753H7.73718H7.72136H7.70553H7.68969H7.67384H7.65799H7.64212H7.62625H7.61037H7.59449H7.57859H7.56269H7.54679H7.53087H7.51495H7.49902H7.48308H7.46714H7.45119H7.43523H7.41927H7.4033H7.38732H7.37134H7.35535H7.33935H7.32335H7.30734H7.29133H7.27531H7.25928H7.24325H7.22722H7.21118H7.19513H7.17908H7.16302H7.14696H7.13089H7.11482H7.09874H7.08266H7.06657H7.05048H7.03438H7.01828H7.00218H6.98607H6.96996H6.95384H6.93772H6.9216H6.90547H6.88934H6.8732H6.85706H6.84092H6.82477H6.80863H6.79247H6.77632H6.76016H6.744H6.72784H6.71167H6.6955H6.67933H6.66316H6.64698H6.6308H6.61462H6.59844H6.58225H6.56607H6.54988H6.53369H6.5175H6.5013H6.48511H6.46891H6.45272H6.43652H6.42032H6.40412H6.38792H6.37172H6.35551H6.33931H6.32311H6.3069H6.2907H6.27449H6.25829H6.24208H6.22588H6.20967H6.19347H6.17726H6.16106H6.14485H6.12865H6.11245H6.09625H6.08004H6.06384H6.04764H6.03145H6.01525H5.99905H5.98286H5.96667H5.95047H5.93428H5.9181H5.90191H5.88573H5.86954H5.85336H5.83718H5.82101H5.80483H5.78866H5.77249H5.75633H5.74016H5.724H5.70784H5.69169H5.67554H5.65939H5.64324H5.6271H5.61096H5.59483H5.57869H5.56257H5.54644H5.53032H5.5142H5.49809H5.48198H5.46588H5.44978H5.43368H5.41759H5.4015H5.38542H5.36935H5.35327H5.33721H5.32114H5.30509H5.28903H5.27299H5.25695H5.24091H5.22488H5.20885H5.19283H5.17682H5.16081H5.14481H5.12882H5.11283H5.09684H5.08087H5.0649H5.04893H5.03298H5.01703H5.00108H4.98515H4.96922H4.95329H4.93738H4.92147H4.90557H4.88967H4.87379H4.85791H4.84204H4.82618H4.81032H4.79447H4.77864H4.7628H4.74698H4.73117H4.71536H4.69956H4.68377H4.66799H4.65222H4.63646H4.62071H4.60496H4.58923H4.5735H4.55778H4.54208H4.52638H4.51069H4.49501H4.47934H4.46368H4.44803H4.43239H4.41676H4.40114H4.38553H4.36994H4.35435H4.33877H4.3232H4.30765H4.2921H4.27657H4.26104H4.24553H4.23003H4.21454H4.19906H4.1836H4.16814H4.1527H4.13726H4.12184H4.10644H4.09104H4.07565H4.06028H4.04492H4.02957H4.01424H3.99892H3.98361H3.96831H3.95302H3.93775H3.92249H3.90725H3.89201H3.8768H3.86159H3.8464H3.83122H3.81605H3.8009H3.78576H3.77064H3.75553H3.74043H3.72535H3.71028H3.69523H3.68019H3.66516H3.65015H3.63516H3.62018H3.60521H3.59026H3.57532H3.5604H3.5455H3.53061H3.51573H3.50087H3.48603H3.4712H3.45639H3.44159H3.42681H3.41204H3.3973H3.38256H3.36785H3.35315H3.33846H3.3238H3.30915H3.29451H3.2799H3.2653H3.25071H3.23615H3.2216H3.20707H3.19255H3.17806H3.16358H3.14912H3.13467H3.12025H3.10584H3.09145H3.07708H3.06272H3.04839H3.03407H3.01977H3.00549H2.99123H2.97698H2.96276H2.94855H2.93437H2.9202H2.90605H2.89192H2.87781H2.86372H2.84965H2.8356H2.82157H2.80756H2.79356H2.77959H2.76564H2.75171H2.7378H2.7239H2.71003H2.69618H2.68235H2.66854H2.65475H2.64099H2.62724H2.61351H2.59981H2.58613H2.57246H2.55882H2.5452H2.5316H2.51803H2.50447H2.49094H2.47743H2.46394H2.45047H2.43703H2.42361H2.41021H2.39683H2.38347H2.37014H2.35683H2.34354C1.90758 15.116 1.54027 14.9771 1.28173 14.718C1.02321 14.459 0.884615 14.091 0.884615 13.6541V13.635V13.6158V13.5966V13.5775V13.5583V13.5391V13.52V13.5008V13.4817V13.4625V13.4433V13.4242V13.405V13.3858V13.3667V13.3475V13.3284V13.3092V13.29V13.2709V13.2517V13.2325V13.2134V13.1942V13.175V13.1559V13.1367V13.1176V13.0984V13.0792V13.0601V13.0409V13.0217V13.0026V12.9834V12.9642V12.9451V12.9259V12.9068V12.8876V12.8684V12.8493V12.8301V12.8109V12.7918V12.7726V12.7534V12.7343V12.7151V12.696V12.6768V12.6576V12.6385V12.6193V12.6001V12.581V12.5618V12.5426V12.5235V12.5043V12.4852V12.466V12.4468V12.4277V12.4085V12.3893V12.3702V12.351V12.3318V12.3127V12.2935V12.2743V12.2552V12.236V12.2169V12.1977V12.1785V12.1594V12.1402V12.121V12.1019V12.0827V12.0635V12.0444V12.0252V12.0061V11.9869V11.9677V11.9486V11.9294V11.9102V11.8911V11.8719V11.8527V11.8336V11.8144V11.7953V11.7761V11.7569V11.7378V11.7186V11.6994V11.6803V11.6611V11.6419V11.6228V11.6036V11.5844V11.5653V11.5461V11.527V11.5078V11.4886V11.4695V11.4503V11.4311V11.412V11.3928V11.3736V11.3545V11.3353V11.3161V11.297V11.2778V11.2587V11.2395V11.2203V11.2012V11.182V11.1628V11.1437V11.1245V11.1053V11.0862V11.067V11.0479V11.0287V11.0095V10.9904V10.9712V10.952V10.9329V10.9137V10.8945V10.8754V10.8562V10.837V10.8179V10.7987V10.7796V10.7604V10.7412V10.7221V10.7029V10.6837V10.6646V10.6454V10.6262V10.6071V10.5879V10.5687V10.5496V10.5304V10.5113V10.4921V10.4729V10.4538V10.4346V10.4154V10.3963V10.3771V10.3579V10.3388V10.3196V10.3004V10.2813V10.2621V10.2429V10.2238V10.2046V10.1855V10.1663V10.1471V10.128V10.1088V10.0896V10.0705V10.0513V10.0321V10.013V9.99381V9.97465V9.95548V9.93632V9.91716V9.89799V9.87883V9.85966V9.8405V9.82133V9.80217V9.783V9.76384V9.74468V9.72551V9.70635V9.68718V9.66802V9.64885V9.62969V9.61052V9.59136V9.5722V9.55303V9.53387V9.5147V9.49554V9.47637V9.45721V9.43804V9.41888V9.39972V9.38055V9.36139V9.34222V9.32306V9.30389V9.28473V9.26556V9.2464V9.22723V9.20807V9.18891V9.16974V9.15058V9.13141V9.11225V9.09308V9.07392V9.05475V9.03559V9.01643V8.99726V8.9781V8.95893V8.93977V8.9206V8.90144V8.88227V8.86311V8.84395V8.82478V8.80562V8.78645V8.76729V8.74812V8.72896V8.70979V8.69063V8.67146V8.6523V8.63314V8.61397V8.59481V8.57564V8.55648V8.53731V8.51815V8.49898V8.47982V8.46066V8.44149V8.42233V8.40316V8.384V8.36483V8.34567V8.3265V8.30734V8.28818V8.26901V8.24985V8.23068V8.21152V8.19235V8.17319V8.15402V8.13486V8.11569V8.09653V8.07737V8.0582V8.03904V8.01987V8.00071V7.98154V7.96238V7.94321V7.92405V7.90489V7.88572V7.86656V7.84739V7.82823V7.80906V7.7899V7.77073V7.75157V7.73241V7.71324V7.69408V7.67491V7.65575V7.63658V7.61742V7.59825V7.57909V7.55993V7.54076V7.5216V7.50243V7.48327V7.4641V7.44494V7.42578V7.40661V7.38745V7.36828V7.34912V7.32995V7.31079V7.29162V7.27246V7.2533V7.23413V7.21497V7.1958V7.17664V7.15747V7.13831V7.11914V7.09998V7.08082V7.06165V7.04249V7.02332V7.00416V6.98499V6.96583V6.94667V6.9275V6.90834V6.88917V6.87001V6.85084V6.83168V6.81252V6.79335V6.77419V6.75502V6.73586V6.71669V6.69753V6.67837V6.6592V6.64004V6.62087V6.60171V6.58254V6.56338V6.54422V6.52505V6.50589V6.48672V6.46756V6.44839V6.42923V6.41007V6.3909V6.37174V6.35257V6.33341V6.31425V6.29508V6.27592V6.25675V6.23759V6.21842V6.19926V6.1801V6.16093V6.14177V6.1226V6.10344V6.08428V6.06511V6.04595V6.02678V6.00762V5.98846V5.96929V5.95013V5.93096V5.9118V5.89263V5.87347V5.85431V5.83514V5.81598V5.79681V5.77765V5.75849V5.73932V5.72016V5.70099V5.68183V5.66267V5.6435V5.62434V5.60517V5.58601V5.56685V5.54768V5.52852V5.50935V5.49019V5.47103V5.45186V5.4327V5.41353V5.39437V5.37521V5.35604V5.33688V5.31772V5.29855V5.27939V5.26022V5.24106V5.2219V5.20273V5.18357V5.1644V5.14524V5.12608V5.10691V5.08775V5.06858V5.04942V5.03026V5.01109V4.99193V4.97277V4.9536V4.93444V4.91527V4.89611V4.87695V4.85778V4.83862V4.81946V4.80029V4.78113V4.76197V4.7428V4.72364V4.70447V4.68531V4.66615V4.64698V4.62782V4.60866V4.58949V4.57033V4.55117V4.532V4.51284V4.49367V4.47451V4.45535V4.43618V4.41702V4.39786V4.37869V4.35953V4.34037V4.3212V4.30204V4.28288V4.26371V4.24455V4.22539V4.20622V4.18706V4.1679V4.14873V4.12957V4.1104V4.09124V4.07208V4.05291V4.03375V4.01459V3.99542V3.97626V3.9571V3.93793V3.91877V3.89961V3.88044V3.86128V3.84212C0.884615 3.40945 1.02375 3.04337 1.28082 2.78502C1.53794 2.52663 1.90255 2.38656 2.3334 2.38611L2.33352 2.38611C2.42918 2.38611 2.52508 2.38586 2.62113 2.38561C2.8742 2.38494 3.12839 2.38427 3.38234 2.38821L3.38262 2.38822C3.38448 2.38825 3.38625 2.38828 3.38796 2.38829C3.38796 2.38808 3.38795 2.38787 3.38795 2.38766M10.2804 14.388L3.41586 2.38734L3.50333 2.38623L3.41593 2.38732C3.41722 2.38683 3.41796 2.38664 3.41797 2.38664C3.41798 2.38664 3.41776 2.3867 3.41728 2.38679C3.41649 2.38694 3.41524 2.38714 3.41344 2.38735L3.38795 2.38766M10.2804 14.388C10.2352 14.3833 10.1863 14.3842 10.1469 14.3849C10.1342 14.3851 10.1225 14.3853 10.1122 14.3853H10.099H10.0857H10.0725H10.0592H10.0459H10.0325H10.0192H10.0058H9.99237H9.97895H9.9655H9.95202H9.93853H9.92502H9.91148H9.89792H9.88434H9.87074H9.85712H9.84347H9.82981H9.81612H9.80242H9.78869H9.77494H9.76117H9.74738H9.73357H9.71974H9.70589H9.69202H9.67813H9.66422H9.65029H9.63634H9.62237H9.60838H9.59437H9.58034H9.56629H9.55222H9.53813H9.52403H9.5099H9.49576H9.48159H9.46741H9.45321H9.43899H9.42475H9.4105H9.39622H9.38193H9.36762H9.35329H9.33894H9.32458H9.3102H9.2958H9.28138H9.26694H9.25249H9.23802H9.22353H9.20903H9.1945H9.17997H9.16541H9.15084H9.13625H9.12164H9.10702H9.09238H9.07773H9.06306H9.04837H9.03366H9.01894H9.00421H8.98946H8.97469H8.95991H8.94511H8.9303H8.91547H8.90062H8.88576H8.87089H8.856H8.84109H8.82617H8.81124H8.79629H8.78133H8.76635H8.75136H8.73635H8.72133H8.70629H8.69124H8.67618H8.6611H8.64601H8.63091H8.61579H8.60066H8.58551H8.57036H8.55518H8.54H8.5248H8.50959H8.49437H8.47913H8.46388H8.44862H8.43335H8.41806H8.40276H8.38745H8.37213H8.35679H8.34144H8.32609H8.31071H8.29533H8.27994H8.26453H8.24911H8.23369H8.21825H8.20279H8.18733H8.17186H8.15637H8.14088H8.12537H8.10986H8.09433H8.07879H8.06325H8.04769H8.03212H8.01654H8.00095H7.98535H7.96975H7.95413H7.9385H7.92286H7.90722H7.89156H7.8759H7.86022H7.84454H7.82885H7.81315H7.79743H7.78172H7.76599H7.75025H7.73451H7.71875H7.70299H7.68722H7.67144H7.65566H7.63986H7.62406H7.60825H7.59244H7.57661H7.56078H7.54494H7.52909H7.51324H7.49738H7.48151H7.46563H7.44975H7.43386H7.41796H7.40206H7.38615H7.37024H7.35432H7.33839H7.32245H7.30651H7.29057H7.27461H7.25866H7.24269H7.22672H7.21075H7.19477H7.17878H7.16279H7.14679H7.13079H7.11479H7.09878H7.08276H7.06674H7.05071H7.03468H7.01865H7.00261H6.98657H6.97052H6.95447H6.93841H6.92235H6.90629H6.89022H6.87415H6.85808H6.842H6.82592H6.80983H6.79375H6.77766H6.76156H6.74546H6.72936H6.71326H6.69716H6.68105H6.66494H6.64883H6.63271H6.61659H6.60048H6.58435H6.56823H6.5521H6.53598H6.51985H6.50372H6.48759H6.47145H6.45532H6.43918H6.42305H6.40691H6.39077H6.37463H6.35849H6.34235H6.3262H6.31006H6.29392H6.27778H6.26163H6.24549H6.22934H6.2132H6.19706H6.18091H6.16477H6.14862H6.13248H6.11634H6.1002H6.08406H6.06792H6.05178H6.03564H6.0195H6.00337H5.98723H5.9711H5.95497H5.93884H5.92271H5.90658H5.89046H5.87433H5.85821H5.84209H5.82597H5.80986H5.79375H5.77764H5.76153H5.74542H5.72932H5.71322H5.69713H5.68103H5.66494H5.64885H5.63277H5.61669H5.60061H5.58454H5.56846H5.5524H5.53633H5.52027H5.50422H5.48817H5.47212H5.45608H5.44004H5.424H5.40797H5.39195H5.37593H5.35991H5.3439H5.32789H5.31189H5.2959H5.27991H5.26392H5.24794H5.23196H5.21599H5.20003H5.18407H5.16812H5.15217H5.13623H5.1203H5.10437H5.08845H5.07253H5.05662H5.04072H5.02483H5.00894H4.99305H4.97718H4.96131H4.94545H4.92959H4.91375H4.89791H4.88208H4.86625H4.85043H4.83462H4.81882H4.80303H4.78724H4.77146H4.75569H4.73993H4.72418H4.70844H4.6927H4.67697H4.66125H4.64554H4.62984H4.61415H4.59846H4.58279H4.56712H4.55147H4.53582H4.52019H4.50456H4.48894H4.47333H4.45773H4.44215H4.42657H4.411H4.39544H4.37989H4.36436H4.34883H4.33331H4.31781H4.30231H4.28683H4.27135H4.25589H4.24044H4.225H4.20957H4.19416H4.17875H4.16336H4.14797H4.1326H4.11724H4.1019H4.08656H4.07124H4.05593H4.04063H4.02534H4.01007H3.9948H3.97956H3.96432H3.9491H3.93388H3.91869H3.9035H3.88833H3.87317H3.85803H3.8429H3.82778H3.81267H3.79758H3.78251H3.76744H3.75239H3.73736H3.72234H3.70733H3.69234H3.67736H3.6624H3.64745H3.63251H3.61759H3.60269H3.5878H3.57292H3.55807H3.54322H3.52839H3.51358H3.49878H3.484H3.46923H3.45448H3.43974H3.42502H3.41032H3.39563H3.38096H3.3663H3.35167H3.33704H3.32244H3.30785H3.29328H3.27872H3.26418H3.24966H3.23516H3.22067H3.2062H3.19175H3.17731H3.16289H3.14849H3.13411H3.11974H3.1054H3.09107H3.07676H3.06246H3.04819H3.03393H3.0197H3.00548H2.99128H2.97709H2.96293H2.94879H2.93466H2.92055H2.90647H2.8924H2.87835H2.86432H2.85031H2.83632H2.82235H2.8084H2.79447H2.78056H2.76667H2.7528H2.73895H2.72512H2.71131H2.69752H2.68375H2.67H2.65627H2.64256H2.62888H2.61521H2.60157H2.58795H2.57435H2.56077H2.54721H2.53367H2.52016H2.50666H2.49319H2.47974H2.46631H2.45291H2.43952H2.42616H2.41282H2.39951H2.38621H2.37294H2.35969H2.34647C2.09289 14.3853 1.91477 14.3163 1.7997 14.2007C1.68455 14.085 1.61572 13.9057 1.61572 13.6504C1.61572 13.0069 1.61591 12.2389 1.61612 11.4105C1.61672 9.02774 1.61745 6.14586 1.61404 4.29469L1.61404 4.29454C1.61397 4.27048 1.61495 4.25445 1.61639 4.24374M10.2804 14.388L1.61639 4.24374M7.40836 2.39518C7.41037 2.39371 7.41238 2.39242 7.41433 2.39131C7.41924 2.38853 7.42294 2.38736 7.42431 2.38699C7.42474 2.38687 7.42497 2.38682 7.42497 2.38682C7.42497 2.38682 7.42409 2.387 7.4221 2.38721C7.41913 2.38751 7.41454 2.38778 7.40783 2.38778V2.39557L7.40836 2.39518ZM7.40836 2.39518L7.40831 2.40457L7.40831 2.40465L7.40783 2.50317M7.40836 2.39518L7.40783 2.50317M1.61639 4.24374C1.62648 4.24228 1.64181 4.24115 1.66471 4.24114C3.50735 4.24554 5.35001 4.24528 7.19251 4.24502C7.62611 4.24496 8.0597 4.2449 8.49328 4.2449C8.95065 4.2449 9.40804 4.24495 9.86543 4.245C11.6946 4.2452 13.5239 4.2454 15.3532 4.24239L15.3534 4.24239C15.3692 4.24234 15.3808 4.24285 15.3892 4.24362C15.39 4.25143 15.3905 4.26211 15.3905 4.27651C15.3858 5.52256 15.3858 10.1755 15.3859 11.8434L15.3859 12.133C15.3859 12.1404 15.3856 12.1495 15.3853 12.1601C15.3841 12.2002 15.3824 12.2598 15.3927 12.3112M1.61639 4.24374L15.7414 12.4997L15.7329 12.6148C15.7329 12.6148 15.7328 12.6148 15.7328 12.6148C15.6473 12.6084 15.5689 12.58 15.5069 12.5241C15.4451 12.4684 15.4089 12.3937 15.3927 12.3112M15.3927 12.3112C15.3927 12.3112 15.3926 12.3111 15.3926 12.3111L15.5059 12.2888L15.3927 12.3114C15.3927 12.3114 15.3927 12.3113 15.3927 12.3112ZM13.6153 1.97483L13.4999 1.97778L13.6153 1.97483ZM13.6153 1.97483C13.6009 1.41074 13.1668 0.943463 12.608 0.889823L12.608 0.889817C12.0463 0.836174 11.5372 1.21092 11.4136 1.76252L11.5262 1.78775M13.6153 1.97483L11.5262 1.78775M13.6021 2.40251C13.6026 2.40308 13.6031 2.40366 13.6036 2.40424C13.6037 2.40429 13.6037 2.40433 13.6037 2.40438C13.6071 2.40835 13.6097 2.41237 13.6116 2.41606C13.614 2.42074 13.6149 2.42406 13.6151 2.42489C13.6151 2.42504 13.6151 2.42512 13.6151 2.42512C13.6151 2.42512 13.6149 2.42386 13.6147 2.42098C13.6145 2.4174 13.6144 2.41219 13.6148 2.40489L13.6148 2.40474C13.615 2.39917 13.6153 2.39361 13.6155 2.38804C13.6109 2.38809 13.6063 2.38815 13.6018 2.38821M13.6021 2.40251L13.6019 2.38821C13.6019 2.38821 13.6018 2.38821 13.6018 2.38821M13.6021 2.40251L13.6021 2.40417L13.6021 2.4043L13.6031 2.50359L13.6018 2.40429L13.6018 2.40416L13.6018 2.40224M13.6021 2.40251C13.602 2.40242 13.6019 2.40233 13.6018 2.40224M13.6018 2.38821C13.5942 2.38828 13.5885 2.38806 13.5844 2.38772C13.5802 2.38738 13.5785 2.38697 13.5785 2.38698C13.5788 2.38705 13.5891 2.38964 13.6001 2.40048C13.6007 2.40106 13.6013 2.40165 13.6018 2.40224M13.6018 2.38821L13.6016 2.38821L13.6018 2.40224M9.59065 2.39475L9.59072 2.40649L9.49937 2.40377M9.6036 2.40687L9.59075 2.40649L9.59069 2.39477C9.59519 2.39799 9.59963 2.40203 9.6036 2.40687ZM16.1101 12.3138C16.1101 12.3137 16.1101 12.3137 16.1101 12.3136C16.1101 12.3134 16.1102 12.3133 16.1102 12.3131L15.9966 12.293L16.1101 12.3138ZM16.0012 12.1681L16.1166 12.1681C16.1166 12.1681 16.1166 12.1681 16.1166 12.1681H16.0012ZM14.6969 2.50191L14.6973 2.38653C14.6973 2.38653 14.6973 2.38653 14.6973 2.38653L14.6969 2.50191Z" fill="#434A54" stroke="#434A54" stroke-width="0.230769"/>
<path d="M12.7555 9.38584L12.6403 9.38606V9.38841C10.8402 9.45235 9.38481 10.93 9.38565 12.7267L9.38565 12.7267C9.38695 14.6148 10.8846 16.1155 12.7695 16.1155H12.7695C14.6142 16.1151 16.1187 14.5944 16.1161 12.7361C16.1135 10.8957 14.5955 9.38238 12.7555 9.38584Z" fill="#434A54" stroke="#434A54" stroke-width="0.230769"/>
<path d="M4.00036 2.59154C4.00036 2.38124 3.99827 2.17058 4.00078 1.96029C4.0037 1.69448 4.21837 1.50037 4.5032 1.50147C4.78594 1.50294 4.99851 1.69889 4.99977 1.96617C5.00186 2.39154 5.00227 2.8169 4.99977 3.24227C4.9981 3.50771 4.78093 3.70293 4.49693 3.70146C4.21419 3.69999 4.00328 3.5033 4.00078 3.23639C3.99869 3.02131 4.00078 2.80624 4.00078 2.59154H4.00036Z" fill="#FEFEFE"/>
<path d="M8.00097 2.60195C8.00097 2.38689 7.99888 2.17182 8.00139 1.95712C8.00473 1.6928 8.22274 1.49869 8.50798 1.50199C8.78488 1.5053 8.99829 1.69868 8.99996 1.95639C9.00288 2.38615 9.00288 2.81628 8.99996 3.24641C8.99829 3.51037 8.77736 3.70522 8.49337 3.70191C8.21689 3.6986 8.00473 3.50449 8.00139 3.24715C7.99846 3.03208 8.00097 2.81702 8.00097 2.60232V2.60195Z" fill="#FEFEFE"/>
<path d="M12.0011 2.59191C12.0011 2.38161 11.999 2.17095 12.0015 1.96066C12.0044 1.69448 12.2187 1.50037 12.5035 1.50147C12.7863 1.50257 12.9988 1.6989 13.0005 1.96581C13.0026 2.39117 13.003 2.81654 13.0005 3.2419C12.9988 3.50734 12.7821 3.70256 12.4981 3.70146C12.2153 3.69999 12.004 3.50367 12.0015 3.23676C11.9994 3.02168 12.0015 2.80661 12.0015 2.59191H12.0011Z" fill="#FEFEFE"/>
<path d="M15.5009 12.754C15.5039 14.2575 14.2656 15.4995 12.7629 15.5008C11.249 15.502 10.0065 14.2771 10.0015 12.7786C9.99647 11.2321 11.2231 10.0021 12.7704 10.0017C14.2697 10.0013 15.498 11.2396 15.5009 12.754Z" fill="#FEFEFE"/>
<path d="M14.6971 11.8718L14.696 11.8843C14.6857 11.9952 14.6378 12.076 14.5706 12.1427M14.6971 11.8718L14.6213 11.8774C14.6129 11.9676 14.5749 12.0327 14.5177 12.0895C14.2641 12.3426 14.0108 12.5959 13.7573 12.8493C13.3229 13.2836 12.8884 13.718 12.4529 14.1514C12.3134 14.2901 12.1869 14.288 12.0461 14.1489C11.7099 13.816 11.375 13.4811 11.0421 13.1449M14.6971 11.8718L14.6941 11.8596C14.6937 11.8576 14.6929 11.8542 14.692 11.8498C14.6888 11.8348 14.6832 11.8084 14.6763 11.7873M14.6971 11.8718L12.1997 13.4944C12.232 13.5287 12.2465 13.5338 12.2496 13.5345C12.2509 13.5341 12.255 13.5327 12.2629 13.5273C12.274 13.5197 12.288 13.5074 12.3074 13.488C12.9039 12.8852 13.5042 12.2861 14.1048 11.6881C14.2011 11.5921 14.3195 11.5469 14.4312 11.5646C14.5449 11.5827 14.636 11.6638 14.6763 11.7873M14.5706 12.1427C14.5706 12.1427 14.5706 12.1427 14.5705 12.1428L14.5177 12.0895L14.5707 12.1426C14.5707 12.1426 14.5706 12.1427 14.5706 12.1427ZM14.5706 12.1427C14.3172 12.3957 14.0638 12.6489 13.8105 12.9023C13.376 13.3366 12.9413 13.7711 12.5058 14.2046L12.5058 14.2046C12.4289 14.281 12.3442 14.3301 12.2493 14.3293C12.1549 14.3285 12.0704 14.2784 11.9934 14.2023L11.9933 14.2022C11.657 13.8692 11.3218 13.534 10.9888 13.1977M10.9888 13.1977C10.9888 13.1977 10.9888 13.1977 10.9888 13.1977L11.0421 13.1449M10.9888 13.1977L11.0421 13.1449M10.9888 13.1977C10.9176 13.1258 10.8732 13.0441 10.8671 12.9575C10.8608 12.8694 10.8952 12.7881 10.9588 12.7208L10.9589 12.7208C11.0251 12.6509 11.1085 12.6125 11.1998 12.617C11.2894 12.6213 11.375 12.6665 11.4498 12.7403L11.3971 12.7937L11.0133 12.7724C10.9097 12.8818 10.9168 13.0184 11.0421 13.1449M14.6763 11.7873L14.605 11.8105L14.6763 11.7872C14.6763 11.7872 14.6763 11.7873 14.6763 11.7873Z" fill="#434A54" stroke="#434A54" stroke-width="0.15"/>
</svg>
