<svg width="10" height="13" viewBox="0 0 10 13" fill="none" xmlns="http://www.w3.org/2000/svg">
<path d="M8.60789 1.48617H6.69808V0.370971C6.69808 0.164876 6.53091 0 6.32711 0H2.98608C2.77999 0 2.61511 0.167166 2.61511 0.370971V1.48617H0.675533C0.304562 1.48617 0 1.78158 0 2.14568V3.05707C0 3.37995 0.240444 3.65017 0.556456 3.70513V11.7153C0.556456 12.4229 1.13352 13 1.84569 13H7.43544C8.14761 13 8.72468 12.4229 8.72468 11.7153V3.70284C9.04069 3.64788 9.28113 3.37995 9.28113 3.05478V2.14339C9.28342 1.78387 8.97886 1.48617 8.60789 1.48617ZM3.35705 0.744231H5.95614V1.48617H3.35705V0.744231ZM0.741941 2.2304H8.53919V2.97235H0.741941V2.2304ZM7.98274 11.7153C7.98274 12.013 7.73771 12.2581 7.43544 12.2581H1.84798C1.54571 12.2581 1.30069 12.0153 1.30069 11.7153V3.71429H7.98503V11.7153H7.98274Z" fill="#AEB6BF"/>
<path d="M4.64218 11.1568C4.84827 11.1568 5.01544 10.9896 5.01544 10.7858V5.21667C5.01544 5.01058 4.84827 4.8457 4.64447 4.8457C4.44066 4.8457 4.2735 5.01287 4.2735 5.21667V10.7881C4.26892 10.9919 4.43608 11.1568 4.64218 11.1568ZM2.78503 11.1568C2.99113 11.1568 3.156 10.9896 3.156 10.7858V5.21667C3.156 5.01058 2.98884 4.8457 2.78503 4.8457C2.58123 4.8457 2.41406 5.01287 2.41406 5.21667V10.7881C2.41406 10.9919 2.58123 11.1568 2.78503 11.1568ZM6.49932 11.1705C6.70541 11.1705 6.87029 11.0034 6.87029 10.7996V5.22812C6.87029 5.02203 6.70312 4.85715 6.49932 4.85715C6.29551 4.85715 6.12835 5.02432 6.12835 5.22812V10.7996C6.12606 11.0034 6.29322 11.1705 6.49932 11.1705Z" fill="#AEB6BF"/>
</svg>
