<svg width="32" height="32" viewBox="0 0 32 32" fill="none" xmlns="http://www.w3.org/2000/svg">
<rect width="32" height="32" rx="6" fill="white"/>
<path d="M16.6298 7C17.8274 7.33334 18.7238 8.13666 19.6138 8.93781C20.4153 9.65932 21.1386 10.457 21.7552 11.3447C22.0185 11.7233 22.2652 12.1128 22.4162 12.5549C22.4846 12.7551 22.5207 12.9566 22.5207 13.1663C22.5207 16.8762 22.5207 20.586 22.5207 24.2958C22.5207 24.6622 22.3988 24.7823 22.0311 24.7823C17.8522 24.7823 13.6737 24.7823 9.49479 24.7823C9.11837 24.7823 9.00174 24.6639 9.00174 24.2819C9.00174 18.6856 9.00261 13.0889 9 7.49218C9 7.27285 9.05483 7.09748 9.26632 7H16.6298Z" fill="#434A54"/>
<path d="M9.71628 15.8911C9.71628 13.2288 9.71759 10.5664 9.7128 7.90406C9.7128 7.74696 9.74979 7.70562 9.90906 7.70606C12.0449 7.71172 14.1807 7.70997 16.3165 7.70997C16.66 7.70997 16.8317 7.87926 16.8317 8.21782C16.8317 9.54334 16.8317 10.8689 16.8317 12.194C16.8317 12.5795 16.9436 12.6927 17.3248 12.6927C18.7312 12.6927 20.1377 12.6961 21.5442 12.6883C21.7074 12.6874 21.777 12.7401 21.7892 12.8915C21.7961 12.9777 21.8061 13.0639 21.8061 13.1505C21.807 16.7332 21.8061 20.3159 21.8105 23.8987C21.8105 24.0458 21.7722 24.0767 21.6295 24.0767C17.7169 24.0723 13.8043 24.0723 9.89165 24.0767C9.745 24.0767 9.71323 24.0384 9.71323 23.8961C9.71759 21.2281 9.71672 18.5596 9.71672 15.8916L9.71628 15.8911Z" fill="white"/>
<path d="M17.5367 8.15656C19.0302 9.22968 20.2796 10.4817 21.3335 11.9386C21.2748 11.9952 21.2208 11.9756 21.1738 11.9756C20.0172 11.9769 18.8605 11.9743 17.7034 11.9799C17.5658 11.9808 17.5328 11.9434 17.5336 11.8085C17.5393 10.6462 17.5367 9.48338 17.5367 8.32105V8.15699V8.15656Z" fill="white"/>
</svg>
