<svg width="22" height="22" viewBox="0 0 22 22" fill="none" xmlns="http://www.w3.org/2000/svg">
<rect width="22" height="22" rx="4" fill="#EDEFF8"/>
<path d="M10.1968 11.9361V11.7305C10.1968 9.45227 10.1968 7.17399 10.1968 4.89571C10.1968 4.43376 10.41 4.13223 10.8054 4.02664C11.2831 3.89871 11.772 4.24695 11.806 4.74139C11.8116 4.82312 11.8105 4.90587 11.8105 4.9881C11.8105 7.241 11.8105 9.49389 11.8105 11.7473V11.9341C11.8994 11.9204 11.9293 11.859 11.9715 11.8173C12.5187 11.2727 13.0619 10.7239 13.6111 10.1812C13.8665 9.92894 14.2112 9.87259 14.5208 10.0147C14.8264 10.1548 15.0148 10.4726 14.9899 10.8132C14.9752 11.0168 14.8899 11.1899 14.7462 11.3341C13.6903 12.3905 12.637 13.4494 11.577 14.5017C11.2389 14.8378 10.7618 14.8368 10.4227 14.5002C9.35866 13.4433 8.29821 12.3823 7.2413 11.3183C6.91692 10.9919 6.92403 10.4934 7.23927 10.1767C7.55756 9.85685 8.04946 9.84822 8.38095 10.1726C8.93681 10.7173 9.48303 11.2721 10.0353 11.8209C10.0775 11.8625 10.1064 11.925 10.1963 11.9372L10.1968 11.9361Z" fill="#B1BBD4"/>
<path d="M11.0064 17.411C9.95002 17.411 8.89414 17.4155 7.83774 17.4089C7.20066 17.4049 6.80622 16.7683 7.09761 16.2231C7.26259 15.9145 7.53468 15.785 7.87988 15.7855C9.25862 15.787 10.6374 15.786 12.0161 15.786C12.7182 15.786 13.4202 15.785 14.1223 15.786C14.6411 15.787 15.0005 16.1221 15 16.6003C14.999 17.0764 14.6391 17.41 14.1182 17.4105C13.0811 17.412 12.0435 17.4105 11.0064 17.4105V17.411Z" fill="#B1BBD4"/>
</svg>
