<svg width="229" height="54" viewBox="0 0 229 54" fill="none" xmlns="http://www.w3.org/2000/svg">
<g clip-path="url(#clip0_94_7)">
<path d="M74.5938 0.485352C75.9414 0.485352 77.1068 0.745768 78.0898 1.2666C79.5156 2.0153 80.388 3.32715 80.707 5.20215H78.7832C78.5488 4.15397 78.0638 3.39225 77.3281 2.91699C76.5924 2.43522 75.6647 2.19434 74.5449 2.19434C73.2168 2.19434 72.097 2.69238 71.1855 3.68848C70.2806 4.68457 69.8281 6.16895 69.8281 8.1416C69.8281 9.84733 70.2025 11.2373 70.9512 12.3115C71.6999 13.3792 72.9206 13.9131 74.6133 13.9131C75.9089 13.9131 76.9798 13.5387 77.8262 12.79C78.679 12.0348 79.1152 10.8174 79.1348 9.1377H74.6426V7.52637H80.9414V15.2021H79.6914L79.2227 13.3564C78.5651 14.0791 77.9824 14.5804 77.4746 14.8604C76.6217 15.3421 75.5378 15.583 74.2227 15.583C72.5234 15.583 71.0618 15.0329 69.8379 13.9326C68.5033 12.5524 67.8359 10.6579 67.8359 8.24902C67.8359 5.84668 68.487 3.93587 69.7891 2.5166C71.026 1.16243 72.6276 0.485352 74.5938 0.485352ZM88.0801 4.50879C88.8223 4.50879 89.5417 4.68457 90.2383 5.03613C90.9349 5.38118 91.4655 5.8304 91.8301 6.38379C92.1816 6.91113 92.416 7.52637 92.5332 8.22949C92.6374 8.71126 92.6895 9.47949 92.6895 10.5342H85.0234C85.056 11.5954 85.3066 12.4482 85.7754 13.0928C86.2441 13.7308 86.9701 14.0498 87.9531 14.0498C88.8711 14.0498 89.6035 13.7471 90.1504 13.1416C90.4629 12.79 90.6842 12.3831 90.8145 11.9209H92.543C92.4974 12.305 92.3444 12.7347 92.084 13.21C91.8301 13.6787 91.5436 14.0628 91.2246 14.3623C90.6908 14.8831 90.0299 15.2347 89.2422 15.417C88.819 15.5212 88.3405 15.5732 87.8066 15.5732C86.5046 15.5732 85.401 15.1012 84.4961 14.1572C83.5911 13.2067 83.1387 11.8786 83.1387 10.1729C83.1387 8.49316 83.5944 7.12923 84.5059 6.08105C85.4173 5.03288 86.6087 4.50879 88.0801 4.50879ZM90.8828 9.1377C90.8112 8.37598 90.6452 7.76725 90.3848 7.31152C89.903 6.46517 89.099 6.04199 87.9727 6.04199C87.1654 6.04199 86.4883 6.33496 85.9414 6.9209C85.3945 7.50033 85.1048 8.23926 85.0723 9.1377H90.8828ZM95.209 1.82324H96.9863V4.74316H98.6562V6.17871H96.9863V13.0049C96.9863 13.3695 97.11 13.6136 97.3574 13.7373C97.4941 13.8089 97.722 13.8447 98.041 13.8447C98.1257 13.8447 98.2168 13.8447 98.3145 13.8447C98.4121 13.8382 98.526 13.8285 98.6562 13.8154V15.2021C98.4544 15.2607 98.2428 15.3031 98.0215 15.3291C97.8066 15.3551 97.5723 15.3682 97.3184 15.3682C96.498 15.3682 95.9414 15.1598 95.6484 14.7432C95.3555 14.32 95.209 13.7731 95.209 13.1025V6.17871H93.793V4.74316H95.209V1.82324ZM106.664 0.856445H108.627V15.2021H106.664V0.856445ZM111.908 1.82324H113.686V4.74316H115.355V6.17871H113.686V13.0049C113.686 13.3695 113.809 13.6136 114.057 13.7373C114.193 13.8089 114.421 13.8447 114.74 13.8447C114.825 13.8447 114.916 13.8447 115.014 13.8447C115.111 13.8382 115.225 13.8285 115.355 13.8154V15.2021C115.154 15.2607 114.942 15.3031 114.721 15.3291C114.506 15.3551 114.271 15.3682 114.018 15.3682C113.197 15.3682 112.641 15.1598 112.348 14.7432C112.055 14.32 111.908 13.7731 111.908 13.1025V6.17871H110.492V4.74316H111.908V1.82324ZM129.115 0.46582C131.648 0.46582 133.523 1.27962 134.74 2.90723C135.691 4.17676 136.166 5.80111 136.166 7.78027C136.166 9.9222 135.622 11.7028 134.535 13.1221C133.259 14.7887 131.439 15.6221 129.076 15.6221C126.869 15.6221 125.134 14.8929 123.871 13.4346C122.745 12.0283 122.182 10.251 122.182 8.10254C122.182 6.16243 122.663 4.50228 123.627 3.12207C124.864 1.35124 126.693 0.46582 129.115 0.46582ZM129.311 13.8838C131.023 13.8838 132.26 13.2718 133.021 12.0479C133.79 10.8174 134.174 9.40462 134.174 7.80957C134.174 6.12337 133.731 4.76595 132.846 3.7373C131.967 2.70866 130.762 2.19434 129.232 2.19434C127.748 2.19434 126.537 2.7054 125.6 3.72754C124.662 4.74316 124.193 6.24382 124.193 8.22949C124.193 9.81803 124.594 11.1592 125.395 12.2529C126.202 13.3402 127.507 13.8838 129.311 13.8838ZM138.256 4.74316H139.926V6.22754C140.421 5.61556 140.945 5.17611 141.498 4.90918C142.051 4.64225 142.667 4.50879 143.344 4.50879C144.828 4.50879 145.831 5.02637 146.352 6.06152C146.638 6.62793 146.781 7.43848 146.781 8.49316V15.2021H144.994V8.61035C144.994 7.97233 144.9 7.45801 144.711 7.06738C144.398 6.41634 143.832 6.09082 143.012 6.09082C142.595 6.09082 142.253 6.13314 141.986 6.21777C141.505 6.361 141.081 6.64746 140.717 7.07715C140.424 7.4222 140.232 7.78027 140.141 8.15137C140.056 8.51595 140.014 9.04004 140.014 9.72363V15.2021H138.256V4.74316ZM81.3613 46.71C80.2493 47.3936 78.8822 47.7354 77.2598 47.7354C74.5892 47.7354 72.4017 46.8102 70.6973 44.96C68.9199 43.1006 68.0312 40.5576 68.0312 37.3311C68.0312 34.068 68.929 31.4521 70.7246 29.4834C72.5202 27.5146 74.8945 26.5303 77.8477 26.5303C80.4089 26.5303 82.4642 27.182 84.0137 28.4854C85.5723 29.7796 86.4655 31.3975 86.6934 33.3389H82.5508C82.2318 31.9626 81.4525 31.001 80.2129 30.4541C79.5202 30.1533 78.75 30.0029 77.9023 30.0029C76.2799 30.0029 74.9447 30.6182 73.8965 31.8486C72.8574 33.07 72.3379 34.9111 72.3379 37.3721C72.3379 39.8512 72.903 41.6058 74.0332 42.6357C75.1634 43.6657 76.4486 44.1807 77.8887 44.1807C79.3014 44.1807 80.459 43.7751 81.3613 42.9639C82.2637 42.1436 82.8197 41.0726 83.0293 39.751H78.3672V36.3877H86.7617V47.2021H83.9727L83.5488 44.6865C82.7376 45.6436 82.0085 46.318 81.3613 46.71ZM102.908 34.1865C104.166 35.7633 104.795 37.6273 104.795 39.7783C104.795 41.9658 104.166 43.8389 102.908 45.3975C101.65 46.9469 99.7409 47.7217 97.1797 47.7217C94.6185 47.7217 92.709 46.9469 91.4512 45.3975C90.1934 43.8389 89.5645 41.9658 89.5645 39.7783C89.5645 37.6273 90.1934 35.7633 91.4512 34.1865C92.709 32.6097 94.6185 31.8213 97.1797 31.8213C99.7409 31.8213 101.65 32.6097 102.908 34.1865ZM97.166 35.1162C96.0267 35.1162 95.1471 35.5218 94.5273 36.333C93.9167 37.1351 93.6113 38.2835 93.6113 39.7783C93.6113 41.2731 93.9167 42.4261 94.5273 43.2373C95.1471 44.0485 96.0267 44.4541 97.166 44.4541C98.3053 44.4541 99.1803 44.0485 99.791 43.2373C100.402 42.4261 100.707 41.2731 100.707 39.7783C100.707 38.2835 100.402 37.1351 99.791 36.333C99.1803 35.5218 98.3053 35.1162 97.166 35.1162ZM120.025 34.1865C121.283 35.7633 121.912 37.6273 121.912 39.7783C121.912 41.9658 121.283 43.8389 120.025 45.3975C118.768 46.9469 116.858 47.7217 114.297 47.7217C111.736 47.7217 109.826 46.9469 108.568 45.3975C107.311 43.8389 106.682 41.9658 106.682 39.7783C106.682 37.6273 107.311 35.7633 108.568 34.1865C109.826 32.6097 111.736 31.8213 114.297 31.8213C116.858 31.8213 118.768 32.6097 120.025 34.1865ZM114.283 35.1162C113.144 35.1162 112.264 35.5218 111.645 36.333C111.034 37.1351 110.729 38.2835 110.729 39.7783C110.729 41.2731 111.034 42.4261 111.645 43.2373C112.264 44.0485 113.144 44.4541 114.283 44.4541C115.423 44.4541 116.298 44.0485 116.908 43.2373C117.519 42.4261 117.824 41.2731 117.824 39.7783C117.824 38.2835 117.519 37.1351 116.908 36.333C116.298 35.5218 115.423 35.1162 114.283 35.1162ZM128.926 49.8135C129.345 50.1689 130.051 50.3467 131.045 50.3467C132.449 50.3467 133.387 49.8773 133.861 48.9385C134.171 48.3369 134.326 47.3252 134.326 45.9033V44.9463C133.952 45.5843 133.551 46.0628 133.123 46.3818C132.348 46.9743 131.341 47.2705 130.102 47.2705C128.188 47.2705 126.656 46.6006 125.508 45.2607C124.368 43.9118 123.799 42.0889 123.799 39.792C123.799 37.5771 124.35 35.7178 125.453 34.2139C126.556 32.7008 128.119 31.9443 130.143 31.9443C130.89 31.9443 131.542 32.0583 132.098 32.2861C133.046 32.6781 133.811 33.3981 134.395 34.4463V32.2998H138.182V46.4365C138.182 48.3597 137.858 49.8089 137.211 50.7842C136.099 52.4613 133.966 53.2998 130.812 53.2998C128.908 53.2998 127.354 52.9261 126.15 52.1787C124.947 51.4313 124.282 50.3148 124.154 48.8291H128.393C128.502 49.2848 128.68 49.613 128.926 49.8135ZM128.27 42.1162C128.798 43.374 129.746 44.0029 131.113 44.0029C132.025 44.0029 132.795 43.6611 133.424 42.9775C134.053 42.2848 134.367 41.1865 134.367 39.6826C134.367 38.2699 134.066 37.1943 133.465 36.4561C132.872 35.7178 132.075 35.3486 131.072 35.3486C129.705 35.3486 128.762 35.9912 128.242 37.2764C127.969 37.96 127.832 38.8031 127.832 39.8057C127.832 40.6715 127.978 41.4417 128.27 42.1162ZM141.914 27.0498H145.811V47.2021H141.914V27.0498ZM162.381 42.8271C162.281 43.7113 161.82 44.609 161 45.5205C159.724 46.9697 157.938 47.6943 155.641 47.6943C153.745 47.6943 152.072 47.0837 150.623 45.8623C149.174 44.641 148.449 42.654 148.449 39.9014C148.449 37.3219 149.101 35.3441 150.404 33.9678C151.717 32.5915 153.417 31.9033 155.504 31.9033C156.743 31.9033 157.86 32.1357 158.854 32.6006C159.847 33.0654 160.667 33.7992 161.314 34.8018C161.898 35.6859 162.276 36.7113 162.449 37.8779C162.549 38.5615 162.59 39.5459 162.572 40.8311H152.373C152.428 42.3258 152.897 43.374 153.781 43.9756C154.319 44.3493 154.966 44.5361 155.723 44.5361C156.525 44.5361 157.176 44.3083 157.678 43.8525C157.951 43.6064 158.193 43.2646 158.402 42.8271H162.381ZM158.525 38.2607C158.462 37.2308 158.147 36.4515 157.582 35.9229C157.026 35.3851 156.333 35.1162 155.504 35.1162C154.602 35.1162 153.9 35.3988 153.398 35.9639C152.906 36.529 152.596 37.2946 152.469 38.2607H158.525ZM181.877 39.9561H177.598V47.2021H173.414V27.0498H182.191C184.215 27.0498 185.828 27.5693 187.031 28.6084C188.234 29.6475 188.836 31.2562 188.836 33.4346C188.836 35.8135 188.234 37.4951 187.031 38.4795C185.828 39.4639 184.11 39.9561 181.877 39.9561ZM183.846 35.7588C184.393 35.2757 184.666 34.5101 184.666 33.4619C184.666 32.4137 184.388 31.6663 183.832 31.2197C183.285 30.7731 182.515 30.5498 181.521 30.5498H177.598V36.4834H181.521C182.515 36.4834 183.29 36.2419 183.846 35.7588ZM191.762 27.0498H195.658V47.2021H191.762V27.0498ZM200.033 33.9131C201.063 32.6006 202.831 31.9443 205.338 31.9443C206.969 31.9443 208.419 32.2679 209.686 32.915C210.952 33.5622 211.586 34.7835 211.586 36.5791V43.415C211.586 43.889 211.595 44.4632 211.613 45.1377C211.641 45.6481 211.718 45.9945 211.846 46.1768C211.973 46.359 212.165 46.5094 212.42 46.6279V47.2021H208.182C208.063 46.9014 207.981 46.6188 207.936 46.3545C207.89 46.0902 207.854 45.7894 207.826 45.4521C207.288 46.0355 206.669 46.5322 205.967 46.9424C205.128 47.4255 204.18 47.667 203.123 47.667C201.774 47.667 200.658 47.2842 199.773 46.5186C198.898 45.7438 198.461 44.6501 198.461 43.2373C198.461 41.4053 199.167 40.0791 200.58 39.2588C201.355 38.8122 202.494 38.4932 203.998 38.3018L205.324 38.1377C206.044 38.0465 206.559 37.9326 206.869 37.7959C207.425 37.5589 207.703 37.1898 207.703 36.6885C207.703 36.0778 207.489 35.6585 207.061 35.4307C206.641 35.1937 206.021 35.0752 205.201 35.0752C204.281 35.0752 203.629 35.3031 203.246 35.7588C202.973 36.096 202.79 36.5518 202.699 37.126H198.939C199.021 35.8226 199.386 34.7516 200.033 33.9131ZM202.932 44.3857C203.296 44.6865 203.743 44.8369 204.271 44.8369C205.11 44.8369 205.88 44.5908 206.582 44.0986C207.293 43.6064 207.662 42.7087 207.689 41.4053V39.9561C207.443 40.111 207.193 40.2386 206.938 40.3389C206.691 40.43 206.35 40.5166 205.912 40.5986L205.037 40.7627C204.217 40.9085 203.629 41.0863 203.273 41.2959C202.672 41.6514 202.371 42.2028 202.371 42.9502C202.371 43.6156 202.558 44.0941 202.932 44.3857ZM221.115 43.292L224.191 32.2998H228.334L223.221 46.9561C222.236 49.7816 221.457 51.5316 220.883 52.2061C220.309 52.8896 219.16 53.2314 217.438 53.2314C217.091 53.2314 216.813 53.2269 216.604 53.2178C216.394 53.2178 216.079 53.2041 215.66 53.1768V50.0596L216.152 50.0869C216.535 50.1051 216.9 50.0915 217.246 50.0459C217.592 50.0003 217.884 49.8955 218.121 49.7314C218.349 49.5765 218.559 49.2529 218.75 48.7607C218.951 48.2686 219.033 47.9678 218.996 47.8584L213.527 32.2998H217.861L221.115 43.292Z" fill="white"/>
<path d="M1.68188 0C1.61438 0.20925 1.54688 0.416232 1.54688 0.692982V52.9583C1.54688 53.4465 1.68414 53.7232 1.96089 54L27.6446 26.7908L1.68188 0ZM29.3772 28.593L36.0168 35.4442L26.5376 40.8443C26.5376 40.8443 14.4888 47.6933 7.84456 51.5071L29.3772 28.593ZM31.1794 26.7233L38.3029 34.1302C39.419 33.5092 48.1376 28.5233 49.382 27.8303C50.6959 27.0697 50.5632 26.0302 49.4471 25.4767C48.4144 24.9029 39.6957 19.9079 38.3771 19.0979L31.1705 26.73L31.1794 26.7233ZM29.3726 24.9232L36.0867 17.793L26.5039 12.3232C26.5039 12.3232 10.8821 3.38624 5.68462 0.402732L29.3772 24.9232H29.3726Z" fill="white"/>
</g>
<defs>
<clipPath id="clip0_94_7">
<rect width="228.869" height="53.831" fill="white"/>
</clipPath>
</defs>
</svg>
