<svg width="294" height="237" viewBox="0 0 294 237" fill="none" xmlns="http://www.w3.org/2000/svg">
<path d="M130.96 133.529C129.841 134.093 128.717 134.463 127.848 135.151C126.938 135.872 126.15 136.309 124.979 135.877C124.628 135.749 124.077 135.877 123.722 136.076C122.209 136.911 120.733 137.808 119.244 138.69C119.016 138.823 118.77 138.96 118.613 139.164C118.414 139.425 118.101 139.871 118.191 140.027C118.347 140.298 118.765 140.502 119.102 140.568C120.548 140.848 121.986 140.99 123.371 141.697C125.13 142.589 127.094 142.741 128.949 141.773C129.29 141.597 129.523 141.185 129.765 140.848C129.997 140.525 130.178 140.17 130.381 139.828C130.68 140.108 131.05 140.34 131.268 140.677C132.056 141.863 135.898 142.091 136.809 140.967C136.913 140.839 136.946 140.649 137.013 140.483C137.724 138.661 136.937 137.542 134.67 137.139C132.369 136.731 131.325 135.735 130.951 133.534L130.96 133.529ZM103.178 130.133C103.192 130.213 103.04 130.332 102.86 130.583C102.547 130.327 102.296 130.038 101.978 129.881C101.636 129.715 101.157 129.497 100.873 129.616C99.6251 130.137 98.4629 130.892 97.1917 131.337C96.3331 131.641 95.3275 131.712 94.4121 131.636C93.193 131.537 92.7566 131.959 93.1171 133.168C94.0421 133.168 94.9576 133.178 95.873 133.168C96.7363 133.159 97.6044 133.13 98.4677 133.107C98.4772 132.969 98.4819 132.827 98.4914 132.689C99.3025 133.078 100.114 133.467 100.825 133.809C101.394 133.168 101.84 132.372 102.514 131.968C103.771 131.219 105.184 130.74 106.489 130.066L103.178 130.133ZM150.479 135.701C150.992 134.923 150.897 133.894 150.185 133.017C149.469 132.13 148.625 131.333 147.766 130.579C147.012 129.914 146.3 130.128 145.779 130.949C144.949 132.258 145.76 133.937 147.391 134.468C148.383 134.791 149.336 135.241 150.484 135.701H150.479ZM155.076 131.717C154.288 130.541 153.563 129.402 152.766 128.311C152.638 128.136 152.192 128.093 151.921 128.145C150.921 128.34 150.176 128.809 149.844 129.9C149.507 131.001 150.418 131.143 150.935 131.579C153.046 133.372 153.202 133.372 155.076 131.717ZM155.332 127.756C155.778 128.691 156.081 129.464 156.499 130.166C156.855 130.759 157.594 131.129 157.979 130.436C158.396 129.696 158.69 128.638 158.491 127.861C158.244 126.917 157.291 126.357 156.048 126.39C156.209 126.85 156.333 127.196 156.48 127.604C156.124 127.652 155.806 127.695 155.332 127.756Z" fill="white"/>
<path d="M241.966 107.122C242.089 107.402 242.189 107.691 242.336 107.957C243.408 109.859 243.403 109.854 241.975 111.42C241.719 111.7 241.524 112.051 241.363 112.397C240.946 113.279 240.538 114.166 240.182 115.072C240.002 115.532 239.708 116.13 239.86 116.509C240.671 118.502 240.486 120.57 240.585 122.629C240.618 123.288 240.941 124.189 241.439 124.516C242.535 125.237 242.805 126.12 242.687 127.31C242.625 127.922 242.672 128.544 242.668 129.16C242.312 129.815 242.004 130.498 241.581 131.105C241.387 131.385 240.965 131.693 240.661 131.679C239.94 131.646 246.59 140.506 245.898 140.293C244.204 139.776 245.025 144.538 243.877 146.142C242.862 147.565 239.931 145.198 240.514 147.024C240.087 146.331 240.77 147.835 240.514 147.024C241.354 148.395 238.821 144.747 239.504 146.17C240.007 147.218 237.749 144.832 238.816 145.108C238.868 144.695 238.906 144.368 238.949 144.036L238.958 144.026C240.467 143.922 240.576 143.77 240.524 141.868L240.509 141.877L242.089 142.072L242.108 142.361C242.397 142.157 242.687 141.958 242.976 141.754L242.568 141.835C242.326 141.223 242.084 140.611 241.838 139.999L241.819 140.023C241.904 139.914 241.989 139.8 242.075 139.691L242.042 139.714C243.559 139.43 243.389 138.211 243.479 137.134C244.622 136.868 245.794 136.688 246.899 136.318C248.293 135.853 249.342 136.147 249.991 137.447C250.286 138.03 250.447 138.68 250.694 139.287C251.41 141.028 252.117 142.774 252.875 144.496C253.411 145.71 253.113 146.27 251.822 146.716C248.962 147.712 246.111 148.736 243.299 149.861C242.25 150.278 241.368 150.197 240.623 149.462C239.973 148.822 239.385 148.855 238.603 149.106C237.991 149.301 237.26 149.453 236.658 149.306C233.394 148.494 230.634 149.766 227.835 151.146C226.559 151.777 225.107 152.047 223.756 152.545C223.31 152.711 222.674 153.01 222.589 153.361C222.484 153.793 222.778 154.395 223.058 154.822C223.343 155.254 223.76 155.657 224.216 155.894C226.402 157.037 227.313 158.773 227.024 161.23C226.938 161.951 227.28 162.725 227.19 163.45C227.067 164.466 226.886 165.533 226.445 166.434C225.753 167.843 224.643 169.057 224.035 170.49C223.286 172.254 222.598 174.128 222.39 176.006C222.152 178.165 221.047 179.706 219.691 181.124C217.769 183.126 217.191 185.526 216.84 188.178C216.294 192.362 214.871 196.308 212.466 199.809C210.161 203.162 208.572 206.801 207.827 210.79C207.633 211.819 207.6 212.891 207.618 213.944C207.661 216.368 207.922 218.797 207.832 221.216C207.709 224.46 207.528 227.733 206.973 230.926C206.755 232.168 205.37 233.174 204.654 234.365C203.354 236.532 201.537 236.082 199.521 235.74C195.931 235.133 192.297 234.811 188.683 234.336C185.988 233.98 183.299 233.544 180.605 233.188C177.996 232.842 175.377 232.548 172.769 232.221C171.246 232.031 169.723 231.827 168.201 231.618C165.767 231.291 163.334 230.964 160.9 230.632C157.509 230.171 154.117 229.711 150.726 229.246C147.643 228.824 144.559 228.393 141.471 227.975C138.602 227.586 135.732 227.207 132.857 226.832C129.684 226.415 126.506 226.002 123.333 225.585C121.07 225.286 118.812 224.963 116.549 224.679C113.941 224.346 111.322 224.052 108.713 223.725C107.191 223.535 105.668 223.312 104.145 223.108C101.665 222.781 99.1838 222.473 96.7077 222.131C93.7098 221.714 90.7215 221.244 87.7236 220.836C85.461 220.528 83.1889 220.31 80.9263 220.006C77.7103 219.57 74.5037 219.067 71.2829 218.631C69.1531 218.346 67.0091 218.152 64.8793 217.881C62.8349 217.62 60.7335 217.516 58.7793 216.937C57.5744 216.582 56.3981 215.633 55.5442 214.656C53.2911 212.071 51.204 209.338 49.0884 206.635C48.116 205.397 47.2622 204.068 46.304 202.821C43.8707 199.652 41.3993 196.517 38.9707 193.348C36.1294 189.653 33.326 185.925 30.4895 182.23C25.395 175.598 20.2958 168.972 15.1824 162.359C12.3601 158.712 9.47134 155.116 6.66798 151.454C4.94137 149.201 3.30015 146.886 1.6779 144.557C1.37906 144.126 1.27471 143.49 1.2415 142.945C1.11817 140.563 0.985356 138.182 0.999586 135.806C1.00433 134.947 1.53559 134.103 1.63046 133.23C1.77751 131.864 1.787 130.474 1.77751 129.099C1.77751 128.738 1.35534 128.373 1.36009 128.017C1.36483 127.647 1.65418 127.282 1.8202 126.912C2.16647 127.073 2.58863 127.158 2.84478 127.41C4.73266 129.265 4.38165 131.665 4.43383 133.98C4.4528 134.848 4.68523 135.711 4.83227 136.636C6.69644 136.057 6.25056 134.44 7.03322 133.05C7.28937 134.013 7.3368 134.672 7.63564 135.189C7.95345 135.73 8.51317 136.124 8.96854 136.584C9.22469 136.133 9.49032 135.687 9.72749 135.227C10.2398 134.25 10.7331 133.263 11.3165 132.125C12.8771 133.33 13.4701 134.686 13.1143 136.152C12.5309 138.576 12.5403 140.895 13.157 143.305C13.6645 145.288 13.7926 147.37 14.2669 149.362C14.3903 149.879 15.1682 150.567 15.6805 150.6C17.7913 150.733 19.9211 150.643 21.5718 152.839V151.212C23.1751 151.212 24.7215 151.193 26.2631 151.231C26.5856 151.241 26.9604 151.388 27.2118 151.592C28.317 152.493 29.5882 152.626 30.9401 152.536C32.5481 152.427 34.1561 152.327 35.7689 152.28C37.4718 152.227 39.0087 151.834 40.5171 150.942C41.5654 150.321 42.9315 150.235 44.1458 149.894C44.5253 149.789 45.0328 149.747 45.2368 149.481C46.2851 148.11 47.8789 147.816 49.3398 147.252C49.4632 147.204 49.6387 147.209 49.7098 147.124C50.9336 145.672 52.5274 144.704 54.0975 143.694C55.2359 142.964 56.3316 142.162 57.3799 141.303C57.7974 140.962 58.1768 140.426 58.3002 139.914C58.5089 139.031 57.9966 137.879 59.3817 137.537C60.7288 137.2 61.3644 138.215 62.0475 139.022C62.7495 139.852 63.3282 140.782 63.9591 141.669C64.0207 141.503 64.0824 141.337 64.1393 141.171C65.3536 141.261 66.5774 141.275 67.7728 141.465C68.9349 141.65 70.0164 141.868 71.2402 141.507C72.2838 141.199 73.4744 141.294 74.5891 141.365C76.1212 141.465 77.6486 141.906 79.1618 141.83C80.1389 141.782 81.1303 141.152 82.022 140.625C82.6956 140.227 83.0988 140.307 83.649 140.796C84.3653 141.431 85.1717 141.967 85.9496 142.527C86.0824 142.622 86.3196 142.712 86.4334 142.655C87.7568 141.996 89.066 141.654 90.3942 142.627C90.5507 142.385 90.8401 142.138 90.8306 141.901C90.8164 141.346 90.6598 140.791 90.5555 140.198C92.5098 139.273 93.6245 140.715 94.8435 141.683C95.4175 142.138 95.9582 142.745 96.2665 143.4C96.6697 144.254 97.2674 144.401 98.0596 144.301C100.057 144.055 102.058 143.808 104.051 143.533C105.179 143.376 106.299 143.077 107.428 143.03C107.902 143.011 108.481 143.395 108.865 143.751C109.648 144.477 110.369 144.742 111.54 144.709C112.57 144.681 113.812 145.506 114.628 146.298C115.591 147.223 116.312 147.498 117.721 147.256C119.452 146.962 121.155 146.474 122.863 146.256C125.064 145.976 127.355 146.222 129.584 146.459C131.615 146.673 133.213 145.886 134.888 144.942C135.922 144.358 137.164 144.135 138.322 143.765C139.873 143.272 141.429 142.807 142.975 142.314C143.596 142.114 144.194 141.73 144.82 141.683C146.618 141.545 147.899 140.554 148.795 139.174C149.545 138.021 150.598 137.618 151.755 137.148C153.074 136.612 154.374 135.967 155.564 135.194C157.096 134.193 158.5 133.045 160.455 134.231C160.668 134.359 161.185 134.169 161.455 133.98C163.324 132.675 164.904 131.124 165.658 128.876C165.881 128.221 166.341 127.647 166.692 127.035C168.609 127.026 169.301 126.385 169.595 124.36V124.369C169.861 123.999 170.126 123.629 170.392 123.259C170.477 123.103 170.563 122.942 170.648 122.785C170.743 122.685 170.838 122.591 170.928 122.491H171.791C172.593 120.47 173.29 118.729 173.969 116.979C174.139 116.538 174.253 116.073 174.396 115.618L174.656 115.352H174.661C174.837 114.996 175.012 114.641 175.188 114.29C175.088 113.867 175.121 113.322 174.865 113.052C174.135 112.283 174.443 111.866 175.169 111.387C175.577 111.121 175.928 110.723 176.203 110.319C176.577 109.76 176.857 109.138 177.213 108.465C176.848 107.231 176.378 105.804 176.027 104.347C175.947 104.011 176.179 103.47 176.445 103.204C177.408 102.255 178.423 101.354 179.48 100.51C179.703 100.33 180.178 100.429 180.534 100.462C181.141 100.519 181.805 100.813 182.327 100.647C182.725 100.519 183.294 99.6087 183.18 99.4237C182.592 98.4797 183.18 98.1524 183.816 97.7587C186.154 96.2883 188.512 94.8415 190.817 93.3141C192.017 92.5172 193.075 91.5021 194.294 90.7337C195.105 90.2214 196.087 89.9795 196.993 89.6143C197.306 90.4254 197.638 91.227 197.932 92.0429C199.118 95.3348 200.304 98.6315 201.462 101.933C202.477 104.826 203.511 107.71 204.417 110.642C205.081 112.795 206.618 113.284 208.577 113.232C212.058 113.137 215.54 113.118 219.017 112.923C220.222 112.857 221.479 112.539 222.584 112.046C225.34 110.808 228.001 109.361 230.738 108.085C232.194 107.402 233.736 106.895 235.235 106.311C237.474 106.581 239.713 106.852 241.951 107.122H241.966ZM216.128 131.375C216.337 131.375 219.79 131.309 219.899 131.304C219.453 130.128 219.036 128.98 218.576 127.842C218.49 127.633 218.23 127.32 218.106 127.348C217.86 127.4 217.546 127.6 217.456 127.823C216.991 128.956 216.588 130.114 216.123 131.375H216.128ZM223.011 131.371C223.215 131.371 226.682 131.304 226.791 131.304C226.346 130.133 225.928 128.989 225.459 127.865C225.364 127.642 225.093 127.41 224.866 127.367C224.728 127.339 224.434 127.623 224.353 127.827C223.898 128.966 223.48 130.118 223.016 131.375L223.011 131.371ZM229.068 131.413L229.457 131.456C229.505 130.944 229.481 130.412 229.618 129.929C229.732 129.535 230.05 129.203 230.273 128.842C230.491 129.189 230.809 129.511 230.909 129.891C231.037 130.384 230.994 130.925 231.027 131.442L231.478 131.428C231.478 130.531 231.805 129.393 231.378 128.804C231.008 128.302 229.78 128.434 228.864 128.273C228.864 129.364 228.86 130.237 228.874 131.114C228.874 131.214 229.002 131.314 229.068 131.413ZM220.535 131.442C221.408 130.19 221.265 127.566 220.535 127.045V131.442ZM227.455 128.349V131.764C228.276 130.493 228.191 128.857 227.455 128.349Z" fill="#EAE9E9"/>
<path d="M206.5 124V134L214.5 137H231L234.5 133L231 125.5L220 124H206.5Z" fill="#EAE9E9"/>
<path d="M235.249 106.311C233.746 106.895 232.209 107.402 230.753 108.085C228.016 109.366 225.355 110.808 222.599 112.046C221.498 112.539 220.236 112.857 219.032 112.924C215.555 113.113 212.073 113.132 208.591 113.232C206.627 113.284 205.095 112.796 204.431 110.642C203.53 107.715 202.491 104.827 201.476 101.933C200.319 98.627 199.133 95.335 197.947 92.0431C197.653 91.2272 197.321 90.4208 197.008 89.6144C197.335 89.401 197.643 89.1496 197.994 88.9836C198.825 88.5899 199.37 88.0633 198.972 86.9629C199.612 86.849 200.157 86.7542 200.708 86.6593C201.177 86.8727 201.694 87.0103 202.102 87.3091C202.728 87.774 203.25 88.1535 203.587 87.072C203.558 86.9866 203.587 86.9344 203.672 86.9107L203.891 86.6546C203.981 86.5644 204.071 86.4696 204.166 86.3794L204.147 86.3984L204.427 85.8577C205.636 85.241 206.561 84.4157 206.556 82.912C206.665 82.7412 206.779 82.5752 206.888 82.4044C207.04 82.2052 207.192 82.0107 207.348 81.8115L207.448 81.5791C207.505 81.4984 207.562 81.4226 207.624 81.3419C207.889 80.6162 208.169 79.8952 208.411 79.1647C208.61 78.5718 208.762 77.9598 208.938 77.3574C209.436 76.6507 209.972 75.9676 210.417 75.2276C210.787 74.6157 211.229 73.9659 211.319 73.2876C211.546 71.5705 212.505 71.0771 213.994 72.059C214.146 73.1216 214.293 74.1888 214.468 75.4269C214.725 75.2134 215.498 74.815 215.46 74.5351C215.336 73.6765 214.9 72.8654 214.587 72.0353C213.51 69.7632 213.534 69.6351 215.332 68.0651C215.379 68.2738 215.389 68.6532 215.474 68.6722C217.02 68.9853 218.486 69.9387 220.179 69.047C220.763 68.7386 221.773 68.5679 222.262 68.8714C223.666 69.7347 224.894 70.8874 226.213 71.8978C227.446 72.8417 228.732 73.7145 229.941 74.6916C230.677 75.2798 231.659 75.887 231.915 76.6839C232.74 79.2501 233.333 81.8921 233.883 84.5342C233.983 85.0086 233.594 85.7201 233.219 86.1233C232.275 87.1479 231.744 88.1487 232.441 89.5528C233.565 91.8154 234.044 94.1918 234.362 96.7438C234.761 99.9314 235.396 103.076 235.264 106.311H235.249Z" fill="#D6D7D7"/>
<path d="M235.249 106.311C235.382 103.076 234.746 99.9313 234.348 96.7438C234.03 94.1965 233.546 91.8153 232.427 89.5527C231.73 88.1487 232.261 87.1478 233.205 86.1232C233.58 85.7153 233.969 85.0038 233.869 84.5342C233.314 81.8921 232.726 79.25 231.9 76.6838C231.644 75.8869 230.662 75.2845 229.927 74.6916C228.718 73.7192 227.432 72.8464 226.199 71.8977C224.88 70.8874 223.656 69.7347 222.248 68.8714C221.759 68.5726 220.749 68.7386 220.165 69.0469C218.472 69.9387 217.006 68.9852 215.46 68.6722C215.374 68.6532 215.36 68.2737 215.317 68.065C215.54 67.8705 215.74 67.5812 215.996 67.5053C216.736 67.2918 216.968 66.8744 216.978 66.106C216.982 65.6886 217.452 65.2806 217.708 64.8727C218.05 65.0482 218.396 65.219 218.737 65.3897C218.927 65.6221 219.098 65.8736 219.311 66.0823C219.729 66.4855 220.217 67.2159 220.592 67.1638C221.095 67.0974 221.55 66.4522 221.958 65.9921C222.418 65.4751 222.798 64.8917 223.215 64.3367C225.302 65.1952 227.503 65.0956 229.695 65.1858C230.914 65.2332 231.625 64.8347 231.972 63.7058C232.114 63.2457 232.223 62.7713 232.417 62.335C232.74 61.6092 232.313 61.3815 231.753 61.2108C229.666 60.5846 227.584 59.9585 225.497 59.3276C225.383 58.5118 225.269 57.6911 225.16 56.8753C225.421 56.5337 225.677 56.1922 225.938 55.8459C226.834 56.3393 227.75 56.7994 228.623 57.3306C230.449 58.4359 232.237 59.5933 234.068 60.689C235.173 61.3483 236.464 61.7705 237.441 62.5721C239.234 64.0473 241.131 65.3897 241.596 68.0745C241.956 70.1474 243.242 70.783 244.926 70.4178C245.775 70.2328 246.581 69.858 247.407 69.5592C248.569 69.137 248.977 68.3591 248.469 67.197C248.094 66.3337 248.379 65.9352 249.299 65.9447C249.617 66.3147 249.935 66.6847 250.461 67.3013C250.812 66.3099 251.035 65.5795 251.334 64.8822C251.562 64.3509 251.889 63.8671 252.174 63.3643C252.648 63.6916 253.127 64.0236 253.602 64.3509C252.942 65.4988 252.231 66.623 251.657 67.8089C251.486 68.1646 251.552 68.7718 251.747 69.1465C252.482 70.5695 253.032 72.0115 252.781 73.6528C252.43 74.0465 252.098 74.4592 251.723 74.8339C250.433 76.1241 250.409 76.2569 251.609 77.6515C252.15 78.2824 252.354 78.8563 251.908 79.6769C250.514 82.2573 249.997 84.852 251.709 87.5747C252.074 88.1534 251.889 89.0736 251.956 89.8373C248.223 88.8697 245.742 90.805 243.417 93.3617C241.937 94.9934 241.454 96.6347 241.795 98.8593C242.104 100.866 241.691 102.977 241.662 105.04C241.653 105.733 241.857 106.425 241.966 107.118C239.727 106.847 237.488 106.577 235.249 106.307V106.311Z" fill="#C3C3C2"/>
<path d="M253.587 64.3556C253.113 64.0283 252.634 63.6963 252.159 63.369C251.875 63.8718 251.547 64.3603 251.32 64.8869C251.021 65.5841 250.798 66.3194 250.447 67.306C249.92 66.6894 249.603 66.3194 249.285 65.9494C248.649 65.181 248.066 64.3651 247.364 63.6631C246.799 63.0986 246.567 62.6337 246.932 61.8226C247.112 61.4242 246.951 60.7269 246.695 60.3189C246.259 59.6217 245.547 59.0951 245.092 58.4073C244.646 57.7338 244.247 56.9748 244.048 56.1969C243.408 53.6544 242.886 51.0882 242.279 48.5363C242.208 48.2327 241.937 47.8959 241.662 47.7299C240.78 47.1891 239.85 46.7243 238.939 46.231C239.433 45.1257 240.315 44.585 241.439 44.1439C244.485 42.9533 247.046 41.127 248.763 38.2193C249.143 37.579 250.001 37.2185 250.641 36.7251C250.471 37.5552 250.295 38.3853 250.124 39.2107L250.632 39.334L251.704 35.397C252.487 34.3914 253.284 33.3953 254.052 32.3849C254.574 31.6971 255.058 30.9856 255.798 29.9563C255.01 30.1413 254.654 30.2266 253.91 30.4022C254.55 29.3586 255.143 28.6471 255.451 27.8312C256.144 25.9908 256.742 24.1124 257.282 22.2197C257.557 21.2568 257.908 20.7113 259.066 20.7445C259.811 20.7683 260.574 20.3508 261.319 20.1042C262.116 19.848 262.666 20.0235 263.027 20.8394C263.714 22.4 264.137 23.9274 263.686 25.6919C263.368 26.9442 263.435 28.3056 263.397 29.6242C263.344 31.4125 263.278 33.1533 261.974 34.6191C261.03 35.6863 261.623 36.7726 262.287 37.7497C263.491 39.5238 263.221 39.5712 262.064 41.3025C261.409 42.2797 261.77 43.9494 261.732 45.3107C261.722 45.638 261.945 45.9701 262.059 46.3021C260.887 46.7385 259.744 47.4121 258.544 47.5496C257.368 47.6825 256.462 47.9813 255.632 48.8304C254.811 49.6652 253.943 50.5 252.548 50.3388C252.311 50.3103 251.718 51.0313 251.751 51.3634C251.927 53.1801 252.245 54.9826 252.52 56.7993C254.484 57.1361 256.338 57.6958 258.065 56.7187C259.09 56.14 259.611 56.5764 260.176 57.2594C261.309 58.6255 260.28 59.5932 259.535 60.6083C258.539 61.9602 258.582 62.0977 260.147 62.61C261.253 62.9705 261.575 63.8338 260.939 64.7398C260.01 66.0537 258.316 66.604 256.832 65.9731C255.722 65.4988 254.669 64.9011 253.587 64.3603V64.3556Z" fill="#EEEDEE"/>
<path d="M253.587 64.3556C254.664 64.8963 255.722 65.4988 256.832 65.9684C258.316 66.5992 260.01 66.0537 260.94 64.7351C261.575 63.8338 261.257 62.9705 260.147 62.6053C258.582 62.093 258.539 61.9554 259.536 60.6035C260.28 59.5884 261.314 58.6255 260.176 57.2547C259.611 56.5764 259.09 56.1352 258.065 56.7139C256.334 57.6911 254.484 57.1313 252.52 56.7946C252.25 54.9778 251.927 53.1753 251.752 51.3586C251.718 51.0266 252.311 50.3056 252.548 50.334C253.943 50.4953 254.811 49.6605 255.632 48.8256C256.462 47.9765 257.363 47.6824 258.544 47.5449C259.749 47.4073 260.892 46.7338 262.059 46.2974C263.311 46.5677 264.317 47.0611 264.891 48.375C265.346 49.4091 266.523 49.2146 267.225 48.8256C269.492 47.5639 271.034 49.5371 272.912 49.9403C273.154 49.9925 273.325 50.5759 273.458 50.9412C274.33 53.4078 274.928 55.8886 274.311 58.5449C274.117 59.3845 274.264 60.3047 274.254 61.1917C273.007 62.2068 271.849 63.3832 270.474 64.1801C269.279 64.8726 268.657 65.7454 268.434 67.0214C267.908 67.3724 267.376 67.7234 266.85 68.0744C265.987 68.416 265.28 68.5488 264.526 67.6285C264.113 67.1257 263.107 66.8459 262.42 66.9218C261.869 66.9834 261.39 67.7282 260.769 68.2689C261.504 68.5962 261.903 68.7622 262.296 68.9472C263.71 69.616 263.691 69.7821 262.533 70.7924C262.073 71.1909 261.737 71.8217 261.547 72.4147C261.219 73.425 260.731 73.999 259.573 73.9326C257.306 73.7997 255.034 73.7428 252.767 73.6527C253.018 72.0115 252.468 70.5695 251.733 69.1464C251.538 68.7765 251.472 68.1646 251.642 67.8088C252.216 66.6182 252.928 65.4988 253.587 64.3508V64.3556Z" fill="#DCDDDC"/>
<path d="M252.767 73.6526C255.034 73.7428 257.306 73.7997 259.574 73.9325C260.731 73.9989 261.22 73.4249 261.547 72.4146C261.737 71.8217 262.073 71.1908 262.533 70.7923C263.691 69.782 263.71 69.616 262.296 68.9472C261.907 68.7622 261.509 68.5961 260.769 68.2688C261.39 67.7328 261.869 66.9834 262.42 66.9217C263.107 66.8458 264.113 67.1304 264.526 67.6285C265.28 68.5487 265.982 68.4159 266.85 68.0744C266.945 68.9092 267.04 69.7488 267.149 70.7449C266.025 71.2572 264.806 71.9118 265.251 73.6479C264.825 73.7333 264.398 73.904 263.976 73.8898C262.624 73.8376 262.505 74.4543 262.728 75.6306C262.918 76.6315 262.851 77.7272 262.685 78.7423C262.372 80.6966 262.045 82.6224 262.856 84.534C261.836 85.2313 262.41 85.9618 262.799 86.6971C263.591 88.2007 264.663 89.5194 264.004 91.5353C263.444 93.243 264.07 93.8027 265.968 94.13C266.693 94.2533 267.438 94.2913 268.173 94.3624C268.529 94.8036 268.88 95.2447 269.236 95.6858C267.87 98.0338 265.527 98.5082 263.131 98.8829C261.879 98.8924 260.622 98.9019 259.37 98.9161C258.985 98.5651 258.62 98.1809 258.207 97.8678C257.116 97.0377 256.002 96.2408 254.892 95.4297C254.849 95.3443 254.787 95.2874 254.702 95.2589C254.593 94.3909 254.436 93.5276 254.394 92.6548C254.313 91.0515 253.355 90.2594 251.951 89.8325C251.884 89.0688 252.065 88.1438 251.704 87.5651C249.987 84.8471 250.509 82.2477 251.903 79.6673C252.345 78.8467 252.141 78.2727 251.605 77.6418C250.405 76.2425 250.428 76.1145 251.718 74.8243C252.093 74.4495 252.425 74.0368 252.776 73.6431L252.767 73.6526Z" fill="#EEEDEE"/>
<path d="M238.94 46.231C239.851 46.7243 240.78 47.1939 241.663 47.7299C241.938 47.8959 242.203 48.2327 242.279 48.5363C242.886 51.0835 243.408 53.6544 244.048 56.1969C244.243 56.9748 244.646 57.7338 245.092 58.4073C245.547 59.0951 246.254 59.6216 246.695 60.3189C246.951 60.7269 247.113 61.4241 246.932 61.8226C246.567 62.6385 246.804 63.0986 247.364 63.663C248.061 64.3651 248.65 65.1809 249.285 65.9494C248.365 65.9399 248.08 66.3383 248.455 67.2016C248.963 68.3685 248.55 69.1464 247.393 69.5639C246.572 69.8627 245.761 70.2374 244.912 70.4224C243.228 70.7877 241.942 70.1521 241.582 68.0792C241.117 65.3991 239.22 64.0568 237.427 62.5768C236.449 61.7704 235.164 61.353 234.054 60.6937C232.223 59.6027 230.435 58.4405 228.609 57.3353C227.736 56.8088 226.82 56.3439 225.924 55.8506C226.076 55.1391 226.227 54.4276 226.384 53.7161C226.749 52.5207 227.309 51.5009 228.955 51.0028C228.438 51.8946 228.001 52.478 227.755 53.1374C227.612 53.5121 227.65 54.1003 227.869 54.4134C228.016 54.6268 228.609 54.5889 229.002 54.5699C229.344 54.5509 229.7 54.2663 230.008 54.3232C231.991 54.6695 232.664 53.3793 233.11 51.8614C233.746 49.6747 235.174 48.2849 237.237 47.4168C237.863 47.1512 238.38 46.6341 238.945 46.231H238.94Z" fill="#AEAEAE"/>
<path d="M262.856 84.5389C262.045 82.6273 262.372 80.7015 262.685 78.7472C262.847 77.7274 262.913 76.6364 262.728 75.6355C262.505 74.4592 262.624 73.8425 263.976 73.8947C264.398 73.9137 264.825 73.7382 265.252 73.6528C266.167 74.6774 267.211 74.7058 268.354 73.8757C269.336 73.1595 270.341 72.4195 271.442 71.9309C273.159 71.172 273.301 71.0961 273.164 69.2129C273.875 68.7386 274.587 68.2595 275.303 67.7852C275.161 69.175 274.995 70.5648 274.881 71.9594C274.667 74.5351 274.454 77.1107 274.288 79.6912C274.207 80.9671 274.231 82.2479 274.207 83.5286C272.775 83.2487 271.347 82.9689 269.706 82.6511C270.047 83.9175 270.284 84.9279 270.593 85.9193C270.92 86.9676 271.001 87.8925 270.261 88.8839C269.122 90.4066 269.744 91.8438 271.57 92.2185C271.764 94.0305 270.74 95.0266 269.241 95.7002C268.885 95.2591 268.534 94.8179 268.178 94.3768C268.254 94.0495 268.321 93.7127 268.411 93.3902C268.572 92.821 269.018 92.1806 268.88 91.7062C267.989 88.6515 265.75 86.5928 263.368 84.6765C263.245 84.5769 263.036 84.5864 262.866 84.5437L262.856 84.5389Z" fill="#DCDDDC"/>
<path d="M130.96 133.529C131.33 135.73 132.379 136.726 134.679 137.134C136.947 137.537 137.734 138.661 137.022 140.478C136.961 140.639 136.928 140.829 136.818 140.962C135.908 142.086 132.066 141.858 131.278 140.672C131.06 140.34 130.69 140.103 130.391 139.823C130.187 140.165 130.007 140.525 129.774 140.843C129.533 141.175 129.3 141.588 128.959 141.768C127.099 142.736 125.14 142.584 123.38 141.692C121.99 140.99 120.558 140.843 119.111 140.563C118.774 140.497 118.357 140.293 118.2 140.023C118.11 139.866 118.423 139.42 118.623 139.159C118.774 138.96 119.026 138.822 119.254 138.685C120.738 137.803 122.218 136.901 123.731 136.071C124.087 135.877 124.637 135.744 124.988 135.872C126.16 136.304 126.947 135.872 127.858 135.146C128.726 134.454 129.85 134.089 130.97 133.524L130.96 133.529Z" fill="#EAE9E9"/>
<path d="M106.489 130.066C105.184 130.74 103.771 131.219 102.514 131.968C101.84 132.371 101.394 133.164 100.825 133.809C100.109 133.467 99.2978 133.078 98.4914 132.689C98.4819 132.827 98.4772 132.969 98.4677 133.107C97.6044 133.126 96.7363 133.154 95.873 133.168C94.9576 133.178 94.0373 133.168 93.1171 133.168C92.7566 131.959 93.193 131.537 94.4121 131.636C95.3323 131.712 96.3331 131.636 97.1917 131.337C98.4629 130.891 99.6251 130.142 100.873 129.616C101.157 129.497 101.636 129.715 101.978 129.881C102.296 130.038 102.547 130.327 102.86 130.583C103.045 130.332 103.197 130.218 103.178 130.133" fill="#ECEBEB"/>
<path d="M254.897 95.4345C256.002 96.2457 257.117 97.0426 258.212 97.8727C258.625 98.1857 258.99 98.5699 259.374 98.921C259.223 99.4949 259.099 100.078 258.919 100.643C258.487 101.971 257.534 103.19 258.084 104.722C256.965 104.874 255.214 104.006 254.958 102.977C254.394 100.714 253.436 98.7549 251.595 97.2275C251.206 96.905 250.912 95.8614 251.135 95.5389C251.572 94.8985 252.406 94.6898 253.208 95.2638C253.564 95.5152 253.967 95.7239 254.38 95.8472C254.498 95.8852 254.726 95.5816 254.906 95.4345H254.897Z" fill="#EAE9E9"/>
<path d="M271.565 92.209C269.739 91.8295 269.122 90.3922 270.256 88.8743C270.996 87.883 270.915 86.9627 270.588 85.9097C270.279 84.9183 270.042 83.908 269.701 82.6415C271.337 82.9593 272.77 83.2392 274.202 83.519C274.492 84.9752 274.714 86.4457 275.089 87.8782C275.421 89.1637 275.322 89.4198 274.003 89.5764C273.827 89.5953 273.652 89.5859 273.476 89.5906C271.868 89.638 271.655 89.8515 271.612 91.4168C271.603 91.6824 271.584 91.9433 271.565 92.209Z" fill="#C3C3C2"/>
<path d="M275.303 67.785C274.591 68.2594 273.88 68.7385 273.168 69.2128C272.438 69.0041 271.389 69.0278 271.038 68.544C270.341 67.5811 269.53 67.1447 268.439 67.0308C268.662 65.7549 269.279 64.8821 270.479 64.1895C271.854 63.3926 273.007 62.2115 274.259 61.2012C274.188 62.1736 274.069 63.1412 274.069 64.1136C274.069 64.569 274.283 65.0339 274.439 65.4797C274.715 66.2577 275.018 67.0214 275.307 67.7898L275.303 67.785Z" fill="#C3C3C2"/>
<path d="M197.283 83.0826C197.259 82.9688 197.349 82.8312 197.378 82.7031C197.615 81.6501 197.691 80.6303 197.662 79.5108C197.62 77.8269 198.454 76.105 199.014 74.4306C199.09 74.1982 199.707 74.0511 200.081 74.0274C201.319 73.9563 202.562 73.8946 203.8 73.9515C204.725 73.9942 205.641 74.2172 206.713 74.3832C206.827 74.8528 206.964 75.4362 207.106 76.0149C207.073 76.0481 207.04 76.0813 207.002 76.1145C206.836 75.9722 208.491 78.0641 208.325 77.917C207.96 82.9119 205.693 85.0843 203.886 86.6544C201.879 88.3953 197.786 79.7622 199.327 82.0154C200.352 83.5095 201.386 84.999 202.477 86.441C202.714 86.754 203.207 86.8679 203.582 87.0718C203.24 88.1533 202.723 87.7739 202.097 87.309C201.694 87.0102 201.172 86.8726 200.703 86.6592C200.679 86.2702 200.655 85.886 200.617 85.2124C199.726 85.6346 199 85.9761 198.018 86.441" fill="#F7F6F7"/>
<path d="M163.405 121.528C163.282 122.776 163.329 120.015 163.51 121.296C163.476 121.376 163.448 121.457 163.405 121.528C163.396 121.542 163.296 121.528 163.287 121.504C162.865 120.333 160.991 119.721 161.925 118.018C162.333 117.131 162.746 116.239 163.125 115.419C162.884 114.911 162.661 114.446 162.338 113.773C163.277 114 163.842 114.143 164.411 114.28C164.34 113.853 164.264 113.426 164.174 112.9C165.483 113.037 166.759 111.889 168.187 112.701C168.495 112.876 168.851 112.99 169.131 113.203C170.226 114.038 171.498 114.565 172.66 113.113C173.495 112.074 173.846 113.256 174.377 113.649C173.884 114.328 173.433 114.949 172.982 115.57C173.082 115.66 173.182 115.751 173.281 115.841C173.656 115.765 174.035 115.694 174.41 115.618C174.268 116.073 174.154 116.533 173.983 116.979C173.305 118.729 172.608 120.47 171.806 122.491C171.749 122.491 171.332 122.491 170.914 122.491C171.161 122.078 171.379 121.651 171.654 121.258C172.755 119.659 167.784 128.662 166.712 127.04" fill="#EAE9E9"/>
<path d="M258.079 104.722C257.529 103.19 258.482 101.971 258.914 100.643C259.099 100.078 259.222 99.4949 259.369 98.9209C260.622 98.9114 261.879 98.9019 263.131 98.8877C262.685 99.9075 262.253 100.942 261.784 101.952C261.509 102.54 261.143 103.086 260.864 103.669C260.346 104.751 259.312 105.154 258.079 104.722Z" fill="#D6D7D7"/>
<path d="M161.925 118.018C160.991 119.721 162.86 120.333 163.287 121.504C163.296 121.523 163.396 121.542 163.405 121.528C163.448 121.457 163.476 121.371 163.509 121.291C164.207 122.235 164.904 123.179 165.601 124.118C165.44 124.118 165.274 124.118 165.113 124.118C164.672 124.028 164.226 123.938 163.785 123.847C163.519 123.762 163.253 123.677 162.983 123.591C161.683 123.198 160.355 122.866 159.098 122.368C158.828 122.263 158.543 121.333 158.685 121.177C159.7 120.067 160.829 119.057 161.925 118.018Z" fill="#EAE9E9"/>
<path d="M150.479 135.701C149.331 135.236 148.383 134.786 147.387 134.468C145.75 133.937 144.939 132.253 145.774 130.948C146.296 130.128 147.012 129.914 147.761 130.578C148.62 131.337 149.464 132.134 150.18 133.017C150.892 133.894 150.987 134.923 150.475 135.701H150.479Z" fill="#EAE9E9"/>
<path d="M155.076 131.722C153.203 133.377 153.041 133.377 150.935 131.584C150.418 131.143 149.508 131.005 149.844 129.905C150.176 128.814 150.921 128.344 151.922 128.15C152.192 128.098 152.638 128.14 152.766 128.316C153.563 129.407 154.289 130.545 155.076 131.722Z" fill="#EAE9E9"/>
<path d="M155.332 127.756C155.806 127.695 156.124 127.652 156.48 127.604C156.333 127.196 156.214 126.85 156.048 126.39C157.291 126.352 158.244 126.917 158.491 127.861C158.695 128.634 158.396 129.692 157.979 130.436C157.59 131.129 156.855 130.759 156.499 130.166C156.077 129.464 155.778 128.691 155.332 127.756Z" fill="#ECEBEB"/>
<path d="M165.113 124.123C165.274 124.123 165.44 124.123 165.602 124.123C166.252 124.939 166.901 125.754 167.67 126.713C168.424 125.802 169.017 125.081 169.615 124.365C169.321 126.39 168.628 127.035 166.712 127.04C166.603 126.907 166.517 126.713 166.38 126.651C164.748 125.93 164.681 125.802 165.118 124.118L165.113 124.123Z" fill="#FDFAF2"/>
<path d="M214.564 72.0446C214.877 72.8747 215.313 73.6858 215.436 74.5443C215.474 74.8242 214.701 75.2179 214.445 75.4361C214.27 74.1981 214.122 73.1355 213.971 72.0683C214.17 72.0588 214.364 72.0493 214.564 72.0446Z" fill="#FAFAFA"/>
<path d="M208.919 77.362C208.743 77.9644 208.591 78.5716 208.392 79.1693C208.15 79.8998 207.87 80.6208 207.605 81.3465C208.35 79.4918 208.037 77.7652 207.002 76.1145C207.036 76.0813 207.074 76.0481 207.107 76.0149C207.714 76.4608 208.316 76.9114 208.919 77.3573V77.362Z" fill="#F7F6F7"/>
<path d="M251.704 35.4016L250.632 39.3387L250.125 39.2153C250.295 38.3852 250.471 37.5551 250.642 36.7298C250.993 36.2886 251.348 35.8475 251.699 35.4064L251.704 35.4016Z" fill="#FAFAFA"/>
<path d="M162.983 123.592C163.249 123.677 163.519 123.762 163.785 123.848C163.595 123.99 163.405 124.132 163.215 124.275L162.988 123.587L162.983 123.592Z" fill="#FDFAF2"/>
<path d="M175.202 114.299C175.027 114.65 174.851 115.001 174.676 115.352C174.851 115.001 175.027 114.65 175.202 114.299Z" fill="#FDFAF2"/>
<path d="M254.702 95.2637C254.783 95.2923 254.85 95.3495 254.893 95.4305C254.821 95.3828 254.759 95.3304 254.702 95.2637Z" fill="#AEAEAE"/>
<path d="M174.671 115.357L174.41 115.623C174.496 115.532 174.586 115.447 174.671 115.357Z" fill="#FDFAF2"/>
<path d="M169.605 124.374C169.871 124.004 170.141 123.634 170.407 123.264C170.141 123.634 169.871 124.004 169.605 124.374Z" fill="#FDFAF2"/>
<path d="M170.663 122.79C170.757 122.69 170.852 122.595 170.942 122.496C170.848 122.595 170.753 122.69 170.663 122.79Z" fill="#FDFAF2"/>
<path d="M204.412 85.8623C205.124 84.8804 205.83 83.8938 206.542 82.9119C206.551 84.4155 205.622 85.2409 204.412 85.8623Z" fill="#F7F6F7"/>
<path d="M206.874 82.409C207.025 82.2097 207.177 82.0153 207.334 81.816C207.182 82.0153 207.03 82.2097 206.874 82.409Z" fill="#F7F6F7"/>
<path d="M204.137 86.3983C204.232 86.218 204.326 86.0378 204.417 85.8575C204.322 86.0378 204.227 86.218 204.137 86.3983Z" fill="#F7F6F7"/>
<path d="M207.434 81.5836C207.491 81.503 207.547 81.4271 207.609 81.3464C207.552 81.4271 207.495 81.503 207.434 81.5836Z" fill="#F7F6F7"/>
<path d="M203.881 86.6592C203.971 86.569 204.062 86.4742 204.156 86.384C204.066 86.4742 203.976 86.569 203.881 86.6592Z" fill="#F7F6F7"/>
<path d="M203.667 86.9104C203.739 86.8251 203.81 86.7397 203.886 86.6543C203.815 86.7397 203.743 86.8251 203.667 86.9104Z" fill="#F7F6F7"/>
<path d="M223.206 64.346C223.685 63.5301 224.225 62.7474 224.619 61.8936C224.989 61.0778 225.203 60.1907 225.487 59.3369C227.574 59.963 229.661 60.5892 231.744 61.2201C232.303 61.3908 232.73 61.6185 232.408 62.3442C232.213 62.7806 232.104 63.255 231.962 63.7151C231.616 64.844 230.909 65.2472 229.685 65.195C227.489 65.1049 225.293 65.2045 223.206 64.346Z" fill="#C3C3C2"/>
<path d="M268.434 67.0309C269.53 67.1447 270.337 67.5811 271.034 68.544C271.385 69.0279 272.433 69.0041 273.164 69.2129C273.296 71.1007 273.154 71.1766 271.437 71.9356C270.337 72.4242 269.331 73.1641 268.349 73.8804C267.206 74.7105 266.162 74.682 265.247 73.6574C264.801 71.9261 266.025 71.2668 267.144 70.7545C267.03 69.7584 266.94 68.9188 266.845 68.0839C267.372 67.7329 267.903 67.3819 268.43 67.0309H268.434ZM268.273 71.8075L268.942 72.1822C269.222 71.7696 269.587 71.3853 269.725 70.93C269.767 70.7972 269.174 70.4651 268.871 70.2232C268.672 70.7497 268.468 71.281 268.268 71.8075H268.273Z" fill="white"/>
<path d="M262.856 84.5389C263.027 84.5816 263.235 84.5721 263.359 84.6718C265.74 86.5881 267.979 88.642 268.871 91.7015C269.008 92.1759 268.562 92.8162 268.401 93.3854C268.311 93.7127 268.244 94.0448 268.169 94.3721C267.433 94.2962 266.689 94.263 265.963 94.1396C264.066 93.8123 263.444 93.2479 263.999 91.545C264.658 89.529 263.586 88.2151 262.794 86.7067C262.405 85.9667 261.831 85.2362 262.851 84.5437L262.856 84.5389Z" fill="#C3C3C2"/>
<path d="M268.273 71.8075C268.473 71.2809 268.677 70.7497 268.876 70.2231C269.179 70.4651 269.768 70.7924 269.73 70.9299C269.587 71.3853 269.222 71.7695 268.947 72.1822L268.278 71.8075H268.273Z" fill="#C3C3C2"/>
<path d="M231.558 52.9791C231.558 52.9791 231.558 52.9788 231.558 52.9787C231.049 52.1102 230.521 51.2521 230.064 50.3534C229.218 48.6883 228.514 46.9731 228.173 45.1249C227.851 43.3788 227.923 41.6814 228.866 40.1177C229.977 38.2777 231.608 37.2103 233.756 37.0246C237.144 36.7312 240.092 39.0976 240.552 42.4458C240.709 43.5968 240.554 44.73 240.284 45.8481C239.719 48.1892 238.65 50.3109 237.419 52.3607C237.397 52.3979 237.375 52.435 237.352 52.472C237.152 52.8022 236.986 53.1612 236.774 53.4836C236.073 54.5469 235.337 55.5848 234.528 56.5699C234.324 56.8181 234.286 56.8194 234.086 56.5713C233.507 55.8528 232.953 55.1166 232.423 54.3611C232.159 53.9834 231.893 53.6077 231.663 53.2066C231.621 53.134 231.553 53.0731 231.557 52.9793C231.557 52.9792 231.557 52.9791 231.558 52.9791Z" fill="#45B3BE"/>
<path d="M234.288 45.9571C232.815 45.9544 231.631 44.7547 231.636 43.2712C231.642 41.7986 232.843 40.612 234.324 40.6175C235.785 40.6222 236.976 41.8185 236.976 43.2801C236.976 44.7752 235.786 45.9598 234.288 45.9571Z" fill="#FEFEFE"/>
<path d="M251.558 35.9791C251.558 35.9791 251.558 35.9788 251.558 35.9787C251.049 35.1102 250.521 34.2521 250.064 33.3534C249.218 31.6883 248.514 29.9731 248.173 28.1249C247.851 26.3788 247.923 24.6814 248.866 23.1177C249.977 21.2777 251.608 20.2103 253.756 20.0246C257.144 19.7312 260.092 22.0976 260.552 25.4458C260.709 26.5968 260.554 27.73 260.284 28.8481C259.719 31.1892 258.65 33.3109 257.419 35.3607C257.397 35.3979 257.375 35.435 257.352 35.472C257.152 35.8022 256.986 36.1612 256.774 36.4836C256.073 37.5469 255.337 38.5848 254.528 39.5699C254.324 39.8181 254.286 39.8194 254.086 39.5713C253.507 38.8528 252.953 38.1166 252.423 37.3611C252.159 36.9834 251.893 36.6077 251.663 36.2066C251.621 36.134 251.553 36.0731 251.557 35.9793C251.557 35.9792 251.557 35.9791 251.558 35.9791Z" fill="#45B3BE"/>
<path d="M254.288 28.9571C252.815 28.9544 251.631 27.7547 251.636 26.2712C251.642 24.7986 252.843 23.612 254.324 23.6175C255.785 23.6222 256.976 24.8185 256.976 26.2801C256.976 27.7752 255.786 28.9598 254.288 28.9571Z" fill="#FEFEFE"/>
<path d="M218.558 65.9791C218.558 65.9791 218.558 65.9788 218.558 65.9787C218.049 65.1102 217.521 64.2521 217.064 63.3534C216.218 61.6883 215.514 59.9731 215.173 58.1249C214.851 56.3788 214.923 54.6814 215.866 53.1177C216.977 51.2777 218.608 50.2103 220.756 50.0246C224.144 49.7312 227.092 52.0976 227.552 55.4458C227.709 56.5968 227.554 57.73 227.284 58.8481C226.719 61.1892 225.65 63.3109 224.419 65.3607C224.397 65.3979 224.375 65.435 224.352 65.472C224.152 65.8022 223.986 66.1612 223.774 66.4836C223.073 67.5469 222.337 68.5848 221.528 69.5699C221.324 69.8181 221.286 69.8194 221.086 69.5713C220.507 68.8528 219.953 68.1166 219.423 67.3611C219.159 66.9834 218.893 66.6077 218.663 66.2066C218.621 66.134 218.553 66.0731 218.557 65.9793C218.557 65.9792 218.557 65.9791 218.558 65.9791Z" fill="#45B3BE"/>
<path d="M221.288 58.9571C219.815 58.9544 218.631 57.7547 218.636 56.2712C218.642 54.7986 219.843 53.612 221.324 53.6175C222.785 53.6222 223.976 54.8185 223.976 56.2801C223.976 57.7752 222.786 58.9598 221.288 58.9571Z" fill="#FEFEFE"/>
<path d="M200.558 87.9791C200.558 87.9791 200.558 87.9788 200.558 87.9787C200.049 87.1102 199.521 86.2521 199.064 85.3534C198.218 83.6883 197.514 81.9731 197.173 80.1249C196.851 78.3788 196.923 76.6814 197.866 75.1177C198.977 73.2777 200.608 72.2103 202.756 72.0246C206.144 71.7312 209.092 74.0976 209.552 77.4458C209.709 78.5968 209.554 79.73 209.284 80.8481C208.719 83.1892 207.65 85.3109 206.419 87.3607C206.397 87.3979 206.375 87.435 206.352 87.472C206.152 87.8022 205.986 88.1612 205.774 88.4836C205.073 89.5469 204.337 90.5848 203.528 91.5699C203.324 91.8181 203.286 91.8194 203.086 91.5713C202.507 90.8528 201.953 90.1166 201.423 89.3611C201.159 88.9834 200.893 88.6077 200.663 88.2066C200.621 88.134 200.553 88.0731 200.557 87.9793C200.557 87.9792 200.557 87.9791 200.558 87.9791Z" fill="#45B3BE"/>
<path d="M203.288 80.9571C201.815 80.9544 200.631 79.7547 200.636 78.2712C200.642 76.7986 201.843 75.612 203.324 75.6175C204.785 75.6222 205.976 76.8185 205.976 78.2801C205.976 79.7752 204.786 80.9598 203.288 80.9571Z" fill="#FEFEFE"/>
<path d="M157.558 133.979C157.558 133.979 157.558 133.979 157.558 133.979C157.049 133.11 156.521 132.252 156.064 131.353C155.218 129.688 154.514 127.973 154.173 126.125C153.851 124.379 153.923 122.681 154.866 121.118C155.977 119.278 157.608 118.21 159.756 118.025C163.144 117.731 166.092 120.098 166.552 123.446C166.709 124.597 166.554 125.73 166.284 126.848C165.719 129.189 164.65 131.311 163.419 133.361C163.397 133.398 163.375 133.435 163.352 133.472C163.152 133.802 162.986 134.161 162.774 134.484C162.073 135.547 161.337 136.585 160.528 137.57C160.324 137.818 160.286 137.819 160.086 137.571C159.507 136.853 158.953 136.117 158.423 135.361C158.159 134.983 157.893 134.608 157.663 134.207C157.621 134.134 157.553 134.073 157.557 133.979C157.557 133.979 157.557 133.979 157.558 133.979Z" fill="#45B3BE"/>
<path d="M160.288 126.957C158.815 126.954 157.631 125.755 157.636 124.271C157.642 122.799 158.843 121.612 160.324 121.617C161.785 121.622 162.976 122.819 162.976 124.28C162.976 125.775 161.786 126.96 160.288 126.957Z" fill="#FEFEFE"/>
<path d="M236.558 131.979C236.558 131.979 236.558 131.979 236.558 131.979C236.049 131.11 235.521 130.252 235.064 129.353C234.218 127.688 233.514 125.973 233.173 124.125C232.851 122.379 232.923 120.681 233.866 119.118C234.977 117.278 236.608 116.21 238.756 116.025C242.144 115.731 245.092 118.098 245.552 121.446C245.709 122.597 245.554 123.73 245.284 124.848C244.719 127.189 243.65 129.311 242.419 131.361C242.397 131.398 242.375 131.435 242.352 131.472C242.152 131.802 241.986 132.161 241.774 132.484C241.073 133.547 240.337 134.585 239.528 135.57C239.324 135.818 239.286 135.819 239.086 135.571C238.507 134.853 237.953 134.117 237.423 133.361C237.159 132.983 236.893 132.608 236.663 132.207C236.621 132.134 236.553 132.073 236.557 131.979C236.557 131.979 236.557 131.979 236.558 131.979Z" fill="#45B3BE"/>
<path d="M239.288 124.957C237.815 124.954 236.631 123.755 236.636 122.271C236.642 120.799 237.843 119.612 239.324 119.617C240.785 119.622 241.976 120.819 241.976 122.28C241.976 123.775 240.786 124.96 239.288 124.957Z" fill="#FEFEFE"/>
<path d="M266.558 76.9791C266.558 76.9791 266.558 76.9788 266.558 76.9787C266.049 76.1102 265.521 75.2521 265.064 74.3534C264.218 72.6883 263.514 70.9731 263.173 69.1249C262.851 67.3788 262.923 65.6814 263.866 64.1177C264.977 62.2777 266.608 61.2103 268.756 61.0246C272.144 60.7312 275.092 63.0976 275.552 66.4458C275.709 67.5968 275.554 68.73 275.284 69.8481C274.719 72.1892 273.65 74.3109 272.419 76.3607C272.397 76.3979 272.375 76.435 272.352 76.472C272.152 76.8022 271.986 77.1612 271.774 77.4836C271.073 78.5469 270.337 79.5848 269.528 80.5699C269.324 80.8181 269.286 80.8194 269.086 80.5713C268.507 79.8528 267.953 79.1166 267.423 78.3611C267.159 77.9834 266.893 77.6077 266.663 77.2066C266.621 77.134 266.553 77.0731 266.557 76.9793C266.557 76.9792 266.557 76.9791 266.558 76.9791Z" fill="#45B3BE"/>
<path d="M269.288 69.9571C267.815 69.9544 266.631 68.7547 266.636 67.2712C266.642 65.7986 267.843 64.612 269.324 64.6175C270.785 64.6222 271.976 65.8185 271.976 67.2801C271.976 68.7752 270.786 69.9598 269.288 69.9571Z" fill="#FEFEFE"/>
<path d="M180.92 15.105C180.72 15.105 180.565 15.05 180.455 14.94C180.355 14.82 180.305 14.66 180.305 14.46V5.055C180.305 4.845 180.36 4.69 180.47 4.59C180.58 4.48 180.735 4.425 180.935 4.425H184.49C185.62 4.425 186.49 4.69 187.1 5.22C187.71 5.75 188.015 6.505 188.015 7.485C188.015 8.105 187.875 8.645 187.595 9.105C187.325 9.555 186.925 9.9 186.395 10.14C185.865 10.37 185.23 10.485 184.49 10.485L184.64 10.29H184.94C185.33 10.29 185.67 10.39 185.96 10.59C186.25 10.79 186.515 11.11 186.755 11.55L188.195 14.235C188.275 14.375 188.31 14.515 188.3 14.655C188.3 14.785 188.255 14.895 188.165 14.985C188.075 15.065 187.945 15.105 187.775 15.105C187.605 15.105 187.465 15.065 187.355 14.985C187.245 14.905 187.15 14.79 187.07 14.64L185.435 11.61C185.205 11.18 184.94 10.895 184.64 10.755C184.34 10.605 183.945 10.53 183.455 10.53H181.535V14.46C181.535 14.66 181.485 14.82 181.385 14.94C181.285 15.05 181.13 15.105 180.92 15.105ZM181.535 9.555H184.31C185.13 9.555 185.75 9.385 186.17 9.045C186.59 8.695 186.8 8.175 186.8 7.485C186.8 6.815 186.59 6.31 186.17 5.97C185.75 5.62 185.13 5.445 184.31 5.445H181.535V9.555ZM192.44 15.135C191.94 15.135 191.49 15.04 191.09 14.85C190.7 14.65 190.39 14.38 190.16 14.04C189.93 13.7 189.815 13.32 189.815 12.9C189.815 12.36 189.95 11.935 190.22 11.625C190.5 11.315 190.955 11.095 191.585 10.965C192.225 10.835 193.095 10.77 194.195 10.77H194.87V11.565H194.21C193.4 11.565 192.76 11.605 192.29 11.685C191.83 11.755 191.505 11.88 191.315 12.06C191.135 12.24 191.045 12.495 191.045 12.825C191.045 13.235 191.185 13.57 191.465 13.83C191.755 14.09 192.145 14.22 192.635 14.22C193.035 14.22 193.385 14.125 193.685 13.935C193.995 13.745 194.235 13.485 194.405 13.155C194.585 12.825 194.675 12.445 194.675 12.015V10.305C194.675 9.685 194.55 9.24 194.3 8.97C194.05 8.69 193.64 8.55 193.07 8.55C192.72 8.55 192.37 8.595 192.02 8.685C191.67 8.775 191.3 8.92 190.91 9.12C190.77 9.19 190.65 9.215 190.55 9.195C190.45 9.165 190.37 9.11 190.31 9.03C190.25 8.95 190.215 8.86 190.205 8.76C190.195 8.65 190.215 8.545 190.265 8.445C190.325 8.345 190.415 8.265 190.535 8.205C190.975 7.985 191.41 7.825 191.84 7.725C192.27 7.625 192.68 7.575 193.07 7.575C193.7 7.575 194.22 7.68 194.63 7.89C195.04 8.09 195.345 8.4 195.545 8.82C195.745 9.23 195.845 9.76 195.845 10.41V14.475C195.845 14.675 195.795 14.83 195.695 14.94C195.605 15.05 195.47 15.105 195.29 15.105C195.1 15.105 194.955 15.05 194.855 14.94C194.755 14.83 194.705 14.675 194.705 14.475V13.305H194.84C194.76 13.685 194.605 14.01 194.375 14.28C194.155 14.55 193.88 14.76 193.55 14.91C193.22 15.06 192.85 15.135 192.44 15.135ZM200.559 15.135C200.109 15.135 199.654 15.08 199.194 14.97C198.744 14.86 198.324 14.67 197.934 14.4C197.834 14.33 197.764 14.25 197.724 14.16C197.684 14.06 197.669 13.965 197.679 13.875C197.699 13.775 197.739 13.69 197.799 13.62C197.869 13.55 197.949 13.51 198.039 13.5C198.139 13.48 198.249 13.5 198.369 13.56C198.759 13.8 199.134 13.97 199.494 14.07C199.864 14.16 200.229 14.205 200.589 14.205C201.159 14.205 201.589 14.1 201.879 13.89C202.169 13.68 202.314 13.395 202.314 13.035C202.314 12.755 202.219 12.535 202.029 12.375C201.839 12.205 201.539 12.075 201.129 11.985L199.764 11.685C199.134 11.555 198.664 11.33 198.354 11.01C198.054 10.69 197.904 10.275 197.904 9.765C197.904 9.315 198.019 8.93 198.249 8.61C198.489 8.28 198.824 8.025 199.254 7.845C199.684 7.665 200.184 7.575 200.754 7.575C201.194 7.575 201.609 7.635 201.999 7.755C202.399 7.865 202.759 8.045 203.079 8.295C203.179 8.365 203.244 8.45 203.274 8.55C203.314 8.64 203.319 8.735 203.289 8.835C203.269 8.925 203.224 9.005 203.154 9.075C203.084 9.135 202.999 9.17 202.899 9.18C202.799 9.19 202.694 9.16 202.584 9.09C202.284 8.89 201.979 8.745 201.669 8.655C201.359 8.555 201.054 8.505 200.754 8.505C200.194 8.505 199.769 8.615 199.479 8.835C199.189 9.055 199.044 9.345 199.044 9.705C199.044 9.985 199.134 10.215 199.314 10.395C199.494 10.575 199.774 10.705 200.154 10.785L201.519 11.07C202.169 11.21 202.654 11.435 202.974 11.745C203.304 12.045 203.469 12.455 203.469 12.975C203.469 13.635 203.204 14.16 202.674 14.55C202.144 14.94 201.439 15.135 200.559 15.135ZM209.128 15.105C208.968 15.105 208.838 15.07 208.738 15C208.648 14.92 208.593 14.82 208.573 14.7C208.563 14.57 208.593 14.425 208.663 14.265L212.788 4.875C212.878 4.675 212.983 4.535 213.103 4.455C213.233 4.365 213.373 4.32 213.523 4.32C213.673 4.32 213.808 4.365 213.928 4.455C214.058 4.535 214.163 4.675 214.243 4.875L218.383 14.265C218.463 14.425 218.493 14.57 218.473 14.7C218.463 14.83 218.413 14.93 218.323 15C218.233 15.07 218.108 15.105 217.948 15.105C217.768 15.105 217.623 15.06 217.513 14.97C217.403 14.87 217.313 14.73 217.243 14.55L216.133 11.985L216.733 12.3H210.283L210.898 11.985L209.803 14.55C209.713 14.74 209.618 14.88 209.518 14.97C209.418 15.06 209.288 15.105 209.128 15.105ZM213.508 5.865L211.093 11.55L210.733 11.265H216.283L215.953 11.55L213.538 5.865H213.508ZM222.336 15.135C221.616 15.135 221.066 14.915 220.686 14.475C220.306 14.035 220.116 13.405 220.116 12.585V4.935C220.116 4.735 220.166 4.585 220.266 4.485C220.366 4.375 220.516 4.32 220.716 4.32C220.906 4.32 221.056 4.375 221.166 4.485C221.276 4.585 221.331 4.735 221.331 4.935V12.495C221.331 13.035 221.436 13.44 221.646 13.71C221.866 13.97 222.186 14.1 222.606 14.1C222.696 14.1 222.776 14.095 222.846 14.085C222.916 14.075 222.986 14.07 223.056 14.07C223.166 14.06 223.241 14.085 223.281 14.145C223.331 14.205 223.356 14.325 223.356 14.505C223.356 14.685 223.316 14.82 223.236 14.91C223.156 15 223.026 15.06 222.846 15.09C222.766 15.1 222.681 15.11 222.591 15.12C222.501 15.13 222.416 15.135 222.336 15.135ZM229.021 15.105C228.821 15.105 228.671 15.05 228.571 14.94C228.471 14.83 228.421 14.675 228.421 14.475V4.935C228.421 4.735 228.471 4.585 228.571 4.485C228.671 4.375 228.821 4.32 229.021 4.32C229.211 4.32 229.361 4.375 229.471 4.485C229.581 4.585 229.636 4.735 229.636 4.935V10.95H229.666L232.741 8.01C232.881 7.88 233.001 7.78 233.101 7.71C233.211 7.64 233.356 7.605 233.536 7.605C233.696 7.605 233.821 7.65 233.911 7.74C234.001 7.82 234.041 7.925 234.031 8.055C234.031 8.175 233.971 8.305 233.851 8.445L230.581 11.55V10.89L234.136 14.235C234.276 14.375 234.346 14.51 234.346 14.64C234.346 14.77 234.296 14.88 234.196 14.97C234.106 15.06 233.986 15.105 233.836 15.105C233.656 15.105 233.511 15.07 233.401 15C233.291 14.92 233.156 14.805 232.996 14.655L229.666 11.58H229.636V14.475C229.636 14.895 229.431 15.105 229.021 15.105ZM236.521 15.105C236.321 15.105 236.171 15.05 236.071 14.94C235.971 14.83 235.921 14.675 235.921 14.475V4.935C235.921 4.735 235.971 4.585 236.071 4.485C236.171 4.375 236.321 4.32 236.521 4.32C236.711 4.32 236.861 4.375 236.971 4.485C237.081 4.585 237.136 4.735 237.136 4.935V9.33H236.941C237.151 8.75 237.491 8.315 237.961 8.025C238.441 7.725 238.991 7.575 239.611 7.575C240.191 7.575 240.671 7.68 241.051 7.89C241.441 8.1 241.731 8.42 241.921 8.85C242.111 9.27 242.206 9.805 242.206 10.455V14.475C242.206 14.675 242.151 14.83 242.041 14.94C241.941 15.05 241.796 15.105 241.606 15.105C241.406 15.105 241.251 15.05 241.141 14.94C241.041 14.83 240.991 14.675 240.991 14.475V10.53C240.991 9.85 240.856 9.355 240.586 9.045C240.326 8.725 239.906 8.565 239.326 8.565C238.656 8.565 238.121 8.775 237.721 9.195C237.331 9.605 237.136 10.155 237.136 10.845V14.475C237.136 14.895 236.931 15.105 236.521 15.105ZM246.742 15.135C246.242 15.135 245.792 15.04 245.392 14.85C245.002 14.65 244.692 14.38 244.462 14.04C244.232 13.7 244.117 13.32 244.117 12.9C244.117 12.36 244.252 11.935 244.522 11.625C244.802 11.315 245.257 11.095 245.887 10.965C246.527 10.835 247.397 10.77 248.497 10.77H249.172V11.565H248.512C247.702 11.565 247.062 11.605 246.592 11.685C246.132 11.755 245.807 11.88 245.617 12.06C245.437 12.24 245.347 12.495 245.347 12.825C245.347 13.235 245.487 13.57 245.767 13.83C246.057 14.09 246.447 14.22 246.937 14.22C247.337 14.22 247.687 14.125 247.987 13.935C248.297 13.745 248.537 13.485 248.707 13.155C248.887 12.825 248.977 12.445 248.977 12.015V10.305C248.977 9.685 248.852 9.24 248.602 8.97C248.352 8.69 247.942 8.55 247.372 8.55C247.022 8.55 246.672 8.595 246.322 8.685C245.972 8.775 245.602 8.92 245.212 9.12C245.072 9.19 244.952 9.215 244.852 9.195C244.752 9.165 244.672 9.11 244.612 9.03C244.552 8.95 244.517 8.86 244.507 8.76C244.497 8.65 244.517 8.545 244.567 8.445C244.627 8.345 244.717 8.265 244.837 8.205C245.277 7.985 245.712 7.825 246.142 7.725C246.572 7.625 246.982 7.575 247.372 7.575C248.002 7.575 248.522 7.68 248.932 7.89C249.342 8.09 249.647 8.4 249.847 8.82C250.047 9.23 250.147 9.76 250.147 10.41V14.475C250.147 14.675 250.097 14.83 249.997 14.94C249.907 15.05 249.772 15.105 249.592 15.105C249.402 15.105 249.257 15.05 249.157 14.94C249.057 14.83 249.007 14.675 249.007 14.475V13.305H249.142C249.062 13.685 248.907 14.01 248.677 14.28C248.457 14.55 248.182 14.76 247.852 14.91C247.522 15.06 247.152 15.135 246.742 15.135ZM253.001 15.075C252.801 15.075 252.651 15.02 252.551 14.91C252.451 14.79 252.401 14.625 252.401 14.415V8.28C252.401 8.07 252.451 7.91 252.551 7.8C252.651 7.69 252.801 7.635 253.001 7.635C253.191 7.635 253.341 7.69 253.451 7.8C253.561 7.91 253.616 8.07 253.616 8.28V14.415C253.616 14.625 253.561 14.79 253.451 14.91C253.351 15.02 253.201 15.075 253.001 15.075ZM253.001 5.955C252.751 5.955 252.556 5.89 252.416 5.76C252.276 5.62 252.206 5.435 252.206 5.205C252.206 4.965 252.276 4.785 252.416 4.665C252.556 4.535 252.751 4.47 253.001 4.47C253.261 4.47 253.456 4.535 253.586 4.665C253.726 4.785 253.796 4.965 253.796 5.205C253.796 5.435 253.726 5.62 253.586 5.76C253.456 5.89 253.261 5.955 253.001 5.955ZM256.517 15.105C256.317 15.105 256.167 15.05 256.067 14.94C255.967 14.83 255.917 14.675 255.917 14.475V8.22C255.917 8.02 255.967 7.87 256.067 7.77C256.167 7.66 256.312 7.605 256.502 7.605C256.692 7.605 256.837 7.66 256.937 7.77C257.047 7.87 257.102 8.02 257.102 8.22V9.54L256.937 9.33C257.127 8.77 257.432 8.34 257.852 8.04C258.282 7.73 258.792 7.575 259.382 7.575C260.002 7.575 260.502 7.725 260.882 8.025C261.272 8.315 261.532 8.77 261.662 9.39H261.437C261.617 8.83 261.937 8.39 262.397 8.07C262.867 7.74 263.412 7.575 264.032 7.575C264.582 7.575 265.032 7.68 265.382 7.89C265.742 8.1 266.012 8.42 266.192 8.85C266.372 9.27 266.462 9.805 266.462 10.455V14.475C266.462 14.675 266.407 14.83 266.297 14.94C266.197 15.05 266.047 15.105 265.847 15.105C265.657 15.105 265.507 15.05 265.397 14.94C265.297 14.83 265.247 14.675 265.247 14.475V10.515C265.247 9.845 265.132 9.355 264.902 9.045C264.672 8.725 264.282 8.565 263.732 8.565C263.132 8.565 262.657 8.775 262.307 9.195C261.967 9.605 261.797 10.165 261.797 10.875V14.475C261.797 14.675 261.742 14.83 261.632 14.94C261.532 15.05 261.382 15.105 261.182 15.105C260.992 15.105 260.842 15.05 260.732 14.94C260.632 14.83 260.582 14.675 260.582 14.475V10.515C260.582 9.845 260.462 9.355 260.222 9.045C259.992 8.725 259.607 8.565 259.067 8.565C258.467 8.565 257.992 8.775 257.642 9.195C257.302 9.605 257.132 10.165 257.132 10.875V14.475C257.132 14.895 256.927 15.105 256.517 15.105ZM271.029 15.135C270.529 15.135 270.079 15.04 269.679 14.85C269.289 14.65 268.979 14.38 268.749 14.04C268.519 13.7 268.404 13.32 268.404 12.9C268.404 12.36 268.539 11.935 268.809 11.625C269.089 11.315 269.544 11.095 270.174 10.965C270.814 10.835 271.684 10.77 272.784 10.77H273.459V11.565H272.799C271.989 11.565 271.349 11.605 270.879 11.685C270.419 11.755 270.094 11.88 269.904 12.06C269.724 12.24 269.634 12.495 269.634 12.825C269.634 13.235 269.774 13.57 270.054 13.83C270.344 14.09 270.734 14.22 271.224 14.22C271.624 14.22 271.974 14.125 272.274 13.935C272.584 13.745 272.824 13.485 272.994 13.155C273.174 12.825 273.264 12.445 273.264 12.015V10.305C273.264 9.685 273.139 9.24 272.889 8.97C272.639 8.69 272.229 8.55 271.659 8.55C271.309 8.55 270.959 8.595 270.609 8.685C270.259 8.775 269.889 8.92 269.499 9.12C269.359 9.19 269.239 9.215 269.139 9.195C269.039 9.165 268.959 9.11 268.899 9.03C268.839 8.95 268.804 8.86 268.794 8.76C268.784 8.65 268.804 8.545 268.854 8.445C268.914 8.345 269.004 8.265 269.124 8.205C269.564 7.985 269.999 7.825 270.429 7.725C270.859 7.625 271.269 7.575 271.659 7.575C272.289 7.575 272.809 7.68 273.219 7.89C273.629 8.09 273.934 8.4 274.134 8.82C274.334 9.23 274.434 9.76 274.434 10.41V14.475C274.434 14.675 274.384 14.83 274.284 14.94C274.194 15.05 274.059 15.105 273.879 15.105C273.689 15.105 273.544 15.05 273.444 14.94C273.344 14.83 273.294 14.675 273.294 14.475V13.305H273.429C273.349 13.685 273.194 14.01 272.964 14.28C272.744 14.55 272.469 14.76 272.139 14.91C271.809 15.06 271.439 15.135 271.029 15.135ZM277.288 15.105C277.088 15.105 276.938 15.05 276.838 14.94C276.738 14.83 276.688 14.675 276.688 14.475V4.935C276.688 4.735 276.738 4.585 276.838 4.485C276.938 4.375 277.088 4.32 277.288 4.32C277.478 4.32 277.628 4.375 277.738 4.485C277.848 4.585 277.903 4.735 277.903 4.935V9.33H277.708C277.918 8.75 278.258 8.315 278.728 8.025C279.208 7.725 279.758 7.575 280.378 7.575C280.958 7.575 281.438 7.68 281.818 7.89C282.208 8.1 282.498 8.42 282.688 8.85C282.878 9.27 282.973 9.805 282.973 10.455V14.475C282.973 14.675 282.918 14.83 282.808 14.94C282.708 15.05 282.563 15.105 282.373 15.105C282.173 15.105 282.018 15.05 281.908 14.94C281.808 14.83 281.758 14.675 281.758 14.475V10.53C281.758 9.85 281.623 9.355 281.353 9.045C281.093 8.725 280.673 8.565 280.093 8.565C279.423 8.565 278.888 8.775 278.488 9.195C278.098 9.605 277.903 10.155 277.903 10.845V14.475C277.903 14.895 277.698 15.105 277.288 15.105Z" fill="#040404"/>
<path d="M183.08 39.105C182.92 39.105 182.79 39.07 182.69 39C182.6 38.92 182.545 38.82 182.525 38.7C182.515 38.57 182.545 38.425 182.615 38.265L186.74 28.875C186.83 28.675 186.935 28.535 187.055 28.455C187.185 28.365 187.325 28.32 187.475 28.32C187.625 28.32 187.76 28.365 187.88 28.455C188.01 28.535 188.115 28.675 188.195 28.875L192.335 38.265C192.415 38.425 192.445 38.57 192.425 38.7C192.415 38.83 192.365 38.93 192.275 39C192.185 39.07 192.06 39.105 191.9 39.105C191.72 39.105 191.575 39.06 191.465 38.97C191.355 38.87 191.265 38.73 191.195 38.55L190.085 35.985L190.685 36.3H184.235L184.85 35.985L183.755 38.55C183.665 38.74 183.57 38.88 183.47 38.97C183.37 39.06 183.24 39.105 183.08 39.105ZM187.46 29.865L185.045 35.55L184.685 35.265H190.235L189.905 35.55L187.49 29.865H187.46ZM192.673 41.865C192.523 41.875 192.403 41.85 192.313 41.79C192.213 41.73 192.148 41.65 192.118 41.55C192.078 41.46 192.068 41.365 192.088 41.265C192.098 41.175 192.138 41.095 192.208 41.025C192.278 40.955 192.373 40.92 192.493 40.92C193.043 40.89 193.448 40.74 193.708 40.47C193.978 40.21 194.113 39.795 194.113 39.225V32.22C194.113 32.02 194.163 31.87 194.263 31.77C194.373 31.66 194.528 31.605 194.728 31.605C194.918 31.605 195.063 31.66 195.163 31.77C195.273 31.87 195.328 32.02 195.328 32.22V39.135C195.328 39.745 195.223 40.245 195.013 40.635C194.813 41.035 194.518 41.33 194.128 41.52C193.738 41.72 193.253 41.835 192.673 41.865ZM194.713 29.955C194.463 29.955 194.268 29.89 194.128 29.76C193.988 29.62 193.918 29.435 193.918 29.205C193.918 28.965 193.988 28.785 194.128 28.665C194.268 28.535 194.463 28.47 194.713 28.47C194.973 28.47 195.173 28.535 195.313 28.665C195.453 28.785 195.523 28.965 195.523 29.205C195.523 29.435 195.453 29.62 195.313 29.76C195.173 29.89 194.973 29.955 194.713 29.955ZM198.243 39.105C198.043 39.105 197.893 39.05 197.793 38.94C197.693 38.83 197.643 38.675 197.643 38.475V32.22C197.643 32.02 197.693 31.87 197.793 31.77C197.893 31.66 198.038 31.605 198.228 31.605C198.418 31.605 198.563 31.66 198.663 31.77C198.773 31.87 198.828 32.02 198.828 32.22V33.54L198.663 33.33C198.853 32.77 199.158 32.34 199.578 32.04C200.008 31.73 200.518 31.575 201.108 31.575C201.728 31.575 202.228 31.725 202.608 32.025C202.998 32.315 203.258 32.77 203.388 33.39H203.163C203.343 32.83 203.663 32.39 204.123 32.07C204.593 31.74 205.138 31.575 205.758 31.575C206.308 31.575 206.758 31.68 207.108 31.89C207.468 32.1 207.738 32.42 207.918 32.85C208.098 33.27 208.188 33.805 208.188 34.455V38.475C208.188 38.675 208.133 38.83 208.023 38.94C207.923 39.05 207.773 39.105 207.573 39.105C207.383 39.105 207.233 39.05 207.123 38.94C207.023 38.83 206.973 38.675 206.973 38.475V34.515C206.973 33.845 206.858 33.355 206.628 33.045C206.398 32.725 206.008 32.565 205.458 32.565C204.858 32.565 204.383 32.775 204.033 33.195C203.693 33.605 203.523 34.165 203.523 34.875V38.475C203.523 38.675 203.468 38.83 203.358 38.94C203.258 39.05 203.108 39.105 202.908 39.105C202.718 39.105 202.568 39.05 202.458 38.94C202.358 38.83 202.308 38.675 202.308 38.475V34.515C202.308 33.845 202.188 33.355 201.948 33.045C201.718 32.725 201.333 32.565 200.793 32.565C200.193 32.565 199.718 32.775 199.368 33.195C199.028 33.605 198.858 34.165 198.858 34.875V38.475C198.858 38.895 198.653 39.105 198.243 39.105ZM212.754 39.135C212.254 39.135 211.804 39.04 211.404 38.85C211.014 38.65 210.704 38.38 210.474 38.04C210.244 37.7 210.129 37.32 210.129 36.9C210.129 36.36 210.264 35.935 210.534 35.625C210.814 35.315 211.269 35.095 211.899 34.965C212.539 34.835 213.409 34.77 214.509 34.77H215.184V35.565H214.524C213.714 35.565 213.074 35.605 212.604 35.685C212.144 35.755 211.819 35.88 211.629 36.06C211.449 36.24 211.359 36.495 211.359 36.825C211.359 37.235 211.499 37.57 211.779 37.83C212.069 38.09 212.459 38.22 212.949 38.22C213.349 38.22 213.699 38.125 213.999 37.935C214.309 37.745 214.549 37.485 214.719 37.155C214.899 36.825 214.989 36.445 214.989 36.015V34.305C214.989 33.685 214.864 33.24 214.614 32.97C214.364 32.69 213.954 32.55 213.384 32.55C213.034 32.55 212.684 32.595 212.334 32.685C211.984 32.775 211.614 32.92 211.224 33.12C211.084 33.19 210.964 33.215 210.864 33.195C210.764 33.165 210.684 33.11 210.624 33.03C210.564 32.95 210.529 32.86 210.519 32.76C210.509 32.65 210.529 32.545 210.579 32.445C210.639 32.345 210.729 32.265 210.849 32.205C211.289 31.985 211.724 31.825 212.154 31.725C212.584 31.625 212.994 31.575 213.384 31.575C214.014 31.575 214.534 31.68 214.944 31.89C215.354 32.09 215.659 32.4 215.859 32.82C216.059 33.23 216.159 33.76 216.159 34.41V38.475C216.159 38.675 216.109 38.83 216.009 38.94C215.919 39.05 215.784 39.105 215.604 39.105C215.414 39.105 215.269 39.05 215.169 38.94C215.069 38.83 215.019 38.675 215.019 38.475V37.305H215.154C215.074 37.685 214.919 38.01 214.689 38.28C214.469 38.55 214.194 38.76 213.864 38.91C213.534 39.06 213.164 39.135 212.754 39.135ZM219.013 39.105C218.813 39.105 218.663 39.05 218.563 38.94C218.463 38.83 218.413 38.675 218.413 38.475V32.22C218.413 32.02 218.463 31.87 218.563 31.77C218.663 31.66 218.808 31.605 218.998 31.605C219.188 31.605 219.333 31.66 219.433 31.77C219.543 31.87 219.598 32.02 219.598 32.22V33.51L219.433 33.33C219.643 32.75 219.983 32.315 220.453 32.025C220.933 31.725 221.483 31.575 222.103 31.575C222.683 31.575 223.163 31.68 223.543 31.89C223.933 32.1 224.223 32.42 224.413 32.85C224.603 33.27 224.698 33.805 224.698 34.455V38.475C224.698 38.675 224.643 38.83 224.533 38.94C224.433 39.05 224.288 39.105 224.098 39.105C223.898 39.105 223.743 39.05 223.633 38.94C223.533 38.83 223.483 38.675 223.483 38.475V34.53C223.483 33.85 223.348 33.355 223.078 33.045C222.818 32.725 222.398 32.565 221.818 32.565C221.148 32.565 220.613 32.775 220.213 33.195C219.823 33.605 219.628 34.155 219.628 34.845V38.475C219.628 38.895 219.423 39.105 219.013 39.105Z" fill="#040404"/>
<path d="M163.725 62.135C163.255 62.135 162.795 62.095 162.345 62.015C161.895 61.935 161.475 61.82 161.085 61.67C160.705 61.52 160.36 61.33 160.05 61.1C159.93 61.01 159.845 60.91 159.795 60.8C159.755 60.68 159.745 60.565 159.765 60.455C159.795 60.335 159.845 60.235 159.915 60.155C159.995 60.075 160.09 60.03 160.2 60.02C160.31 60.01 160.43 60.045 160.56 60.125C161.01 60.445 161.49 60.68 162 60.83C162.51 60.97 163.085 61.04 163.725 61.04C164.625 61.04 165.29 60.875 165.72 60.545C166.16 60.205 166.38 59.76 166.38 59.21C166.38 58.76 166.22 58.41 165.9 58.16C165.59 57.9 165.065 57.695 164.325 57.545L162.765 57.23C161.825 57.03 161.12 56.705 160.65 56.255C160.19 55.795 159.96 55.185 159.96 54.425C159.96 53.955 160.055 53.53 160.245 53.15C160.435 52.76 160.7 52.43 161.04 52.16C161.38 51.88 161.785 51.665 162.255 51.515C162.725 51.365 163.245 51.29 163.815 51.29C164.445 51.29 165.03 51.38 165.57 51.56C166.12 51.73 166.615 51.99 167.055 52.34C167.165 52.43 167.24 52.535 167.28 52.655C167.32 52.765 167.325 52.875 167.295 52.985C167.265 53.085 167.21 53.17 167.13 53.24C167.06 53.31 166.965 53.35 166.845 53.36C166.735 53.37 166.61 53.33 166.47 53.24C166.07 52.94 165.655 52.725 165.225 52.595C164.795 52.455 164.32 52.385 163.8 52.385C163.27 52.385 162.81 52.465 162.42 52.625C162.04 52.785 161.74 53.02 161.52 53.33C161.31 53.63 161.205 53.98 161.205 54.38C161.205 54.86 161.35 55.24 161.64 55.52C161.94 55.8 162.425 56.005 163.095 56.135L164.655 56.465C165.665 56.675 166.41 56.995 166.89 57.425C167.38 57.845 167.625 58.42 167.625 59.15C167.625 59.59 167.535 59.995 167.355 60.365C167.175 60.735 166.915 61.055 166.575 61.325C166.235 61.585 165.825 61.785 165.345 61.925C164.865 62.065 164.325 62.135 163.725 62.135ZM169.969 62.105C169.769 62.105 169.619 62.05 169.519 61.94C169.419 61.83 169.369 61.675 169.369 61.475V51.935C169.369 51.735 169.419 51.585 169.519 51.485C169.619 51.375 169.769 51.32 169.969 51.32C170.159 51.32 170.309 51.375 170.419 51.485C170.529 51.585 170.584 51.735 170.584 51.935V56.33H170.389C170.599 55.75 170.939 55.315 171.409 55.025C171.889 54.725 172.439 54.575 173.059 54.575C173.639 54.575 174.119 54.68 174.499 54.89C174.889 55.1 175.179 55.42 175.369 55.85C175.559 56.27 175.654 56.805 175.654 57.455V61.475C175.654 61.675 175.599 61.83 175.489 61.94C175.389 62.05 175.244 62.105 175.054 62.105C174.854 62.105 174.699 62.05 174.589 61.94C174.489 61.83 174.439 61.675 174.439 61.475V57.53C174.439 56.85 174.304 56.355 174.034 56.045C173.774 55.725 173.354 55.565 172.774 55.565C172.104 55.565 171.569 55.775 171.169 56.195C170.779 56.605 170.584 57.155 170.584 57.845V61.475C170.584 61.895 170.379 62.105 169.969 62.105ZM180.189 62.135C179.689 62.135 179.239 62.04 178.839 61.85C178.449 61.65 178.139 61.38 177.909 61.04C177.679 60.7 177.564 60.32 177.564 59.9C177.564 59.36 177.699 58.935 177.969 58.625C178.249 58.315 178.704 58.095 179.334 57.965C179.974 57.835 180.844 57.77 181.944 57.77H182.619V58.565H181.959C181.149 58.565 180.509 58.605 180.039 58.685C179.579 58.755 179.254 58.88 179.064 59.06C178.884 59.24 178.794 59.495 178.794 59.825C178.794 60.235 178.934 60.57 179.214 60.83C179.504 61.09 179.894 61.22 180.384 61.22C180.784 61.22 181.134 61.125 181.434 60.935C181.744 60.745 181.984 60.485 182.154 60.155C182.334 59.825 182.424 59.445 182.424 59.015V57.305C182.424 56.685 182.299 56.24 182.049 55.97C181.799 55.69 181.389 55.55 180.819 55.55C180.469 55.55 180.119 55.595 179.769 55.685C179.419 55.775 179.049 55.92 178.659 56.12C178.519 56.19 178.399 56.215 178.299 56.195C178.199 56.165 178.119 56.11 178.059 56.03C177.999 55.95 177.964 55.86 177.954 55.76C177.944 55.65 177.964 55.545 178.014 55.445C178.074 55.345 178.164 55.265 178.284 55.205C178.724 54.985 179.159 54.825 179.589 54.725C180.019 54.625 180.429 54.575 180.819 54.575C181.449 54.575 181.969 54.68 182.379 54.89C182.789 55.09 183.094 55.4 183.294 55.82C183.494 56.23 183.594 56.76 183.594 57.41V61.475C183.594 61.675 183.544 61.83 183.444 61.94C183.354 62.05 183.219 62.105 183.039 62.105C182.849 62.105 182.704 62.05 182.604 61.94C182.504 61.83 182.454 61.675 182.454 61.475V60.305H182.589C182.509 60.685 182.354 61.01 182.124 61.28C181.904 61.55 181.629 61.76 181.299 61.91C180.969 62.06 180.599 62.135 180.189 62.135ZM186.463 62.105C186.263 62.105 186.108 62.05 185.998 61.94C185.898 61.83 185.848 61.675 185.848 61.475V55.22C185.848 55.02 185.898 54.87 185.998 54.77C186.098 54.66 186.243 54.605 186.433 54.605C186.623 54.605 186.768 54.66 186.868 54.77C186.978 54.87 187.033 55.02 187.033 55.22V56.435H186.883C187.043 55.845 187.348 55.39 187.798 55.07C188.248 54.75 188.803 54.58 189.463 54.56C189.613 54.55 189.733 54.585 189.823 54.665C189.913 54.735 189.963 54.86 189.973 55.04C189.983 55.21 189.943 55.345 189.853 55.445C189.763 55.545 189.623 55.605 189.433 55.625L189.193 55.655C188.513 55.715 187.988 55.935 187.618 56.315C187.258 56.685 187.078 57.195 187.078 57.845V61.475C187.078 61.675 187.023 61.83 186.913 61.94C186.813 62.05 186.663 62.105 186.463 62.105ZM189.829 64.865C189.679 64.875 189.559 64.85 189.469 64.79C189.369 64.73 189.304 64.65 189.274 64.55C189.234 64.46 189.224 64.365 189.244 64.265C189.254 64.175 189.294 64.095 189.364 64.025C189.434 63.955 189.529 63.92 189.649 63.92C190.199 63.89 190.604 63.74 190.864 63.47C191.134 63.21 191.269 62.795 191.269 62.225V55.22C191.269 55.02 191.319 54.87 191.419 54.77C191.529 54.66 191.684 54.605 191.884 54.605C192.074 54.605 192.219 54.66 192.319 54.77C192.429 54.87 192.484 55.02 192.484 55.22V62.135C192.484 62.745 192.379 63.245 192.169 63.635C191.969 64.035 191.674 64.33 191.284 64.52C190.894 64.72 190.409 64.835 189.829 64.865ZM191.869 52.955C191.619 52.955 191.424 52.89 191.284 52.76C191.144 52.62 191.074 52.435 191.074 52.205C191.074 51.965 191.144 51.785 191.284 51.665C191.424 51.535 191.619 51.47 191.869 51.47C192.129 51.47 192.329 51.535 192.469 51.665C192.609 51.785 192.679 51.965 192.679 52.205C192.679 52.435 192.609 52.62 192.469 52.76C192.329 52.89 192.129 52.955 191.869 52.955ZM197.064 62.135C196.564 62.135 196.114 62.04 195.714 61.85C195.324 61.65 195.014 61.38 194.784 61.04C194.554 60.7 194.439 60.32 194.439 59.9C194.439 59.36 194.574 58.935 194.844 58.625C195.124 58.315 195.579 58.095 196.209 57.965C196.849 57.835 197.719 57.77 198.819 57.77H199.494V58.565H198.834C198.024 58.565 197.384 58.605 196.914 58.685C196.454 58.755 196.129 58.88 195.939 59.06C195.759 59.24 195.669 59.495 195.669 59.825C195.669 60.235 195.809 60.57 196.089 60.83C196.379 61.09 196.769 61.22 197.259 61.22C197.659 61.22 198.009 61.125 198.309 60.935C198.619 60.745 198.859 60.485 199.029 60.155C199.209 59.825 199.299 59.445 199.299 59.015V57.305C199.299 56.685 199.174 56.24 198.924 55.97C198.674 55.69 198.264 55.55 197.694 55.55C197.344 55.55 196.994 55.595 196.644 55.685C196.294 55.775 195.924 55.92 195.534 56.12C195.394 56.19 195.274 56.215 195.174 56.195C195.074 56.165 194.994 56.11 194.934 56.03C194.874 55.95 194.839 55.86 194.829 55.76C194.819 55.65 194.839 55.545 194.889 55.445C194.949 55.345 195.039 55.265 195.159 55.205C195.599 54.985 196.034 54.825 196.464 54.725C196.894 54.625 197.304 54.575 197.694 54.575C198.324 54.575 198.844 54.68 199.254 54.89C199.664 55.09 199.969 55.4 200.169 55.82C200.369 56.23 200.469 56.76 200.469 57.41V61.475C200.469 61.675 200.419 61.83 200.319 61.94C200.229 62.05 200.094 62.105 199.914 62.105C199.724 62.105 199.579 62.05 199.479 61.94C199.379 61.83 199.329 61.675 199.329 61.475V60.305H199.464C199.384 60.685 199.229 61.01 198.999 61.28C198.779 61.55 198.504 61.76 198.174 61.91C197.844 62.06 197.474 62.135 197.064 62.135ZM203.323 62.105C203.123 62.105 202.973 62.05 202.873 61.94C202.773 61.83 202.723 61.675 202.723 61.475V51.935C202.723 51.735 202.773 51.585 202.873 51.485C202.973 51.375 203.123 51.32 203.323 51.32C203.513 51.32 203.663 51.375 203.773 51.485C203.883 51.585 203.938 51.735 203.938 51.935V56.33H203.743C203.953 55.75 204.293 55.315 204.763 55.025C205.243 54.725 205.793 54.575 206.413 54.575C206.993 54.575 207.473 54.68 207.853 54.89C208.243 55.1 208.533 55.42 208.723 55.85C208.913 56.27 209.008 56.805 209.008 57.455V61.475C209.008 61.675 208.953 61.83 208.843 61.94C208.743 62.05 208.598 62.105 208.408 62.105C208.208 62.105 208.053 62.05 207.943 61.94C207.843 61.83 207.793 61.675 207.793 61.475V57.53C207.793 56.85 207.658 56.355 207.388 56.045C207.128 55.725 206.708 55.565 206.128 55.565C205.458 55.565 204.923 55.775 204.523 56.195C204.133 56.605 203.938 57.155 203.938 57.845V61.475C203.938 61.895 203.733 62.105 203.323 62.105Z" fill="#040404"/>
<path d="M155.98 84C155.76 84 155.59 83.945 155.47 83.835C155.36 83.715 155.305 83.545 155.305 83.325V74.1C155.305 73.88 155.36 73.715 155.47 73.605C155.59 73.485 155.76 73.425 155.98 73.425H158.875C160.585 73.425 161.905 73.875 162.835 74.775C163.765 75.675 164.23 76.985 164.23 78.705C164.23 79.565 164.11 80.325 163.87 80.985C163.64 81.635 163.295 82.185 162.835 82.635C162.375 83.085 161.815 83.425 161.155 83.655C160.495 83.885 159.735 84 158.875 84H155.98ZM156.535 82.95H158.785C159.485 82.95 160.09 82.86 160.6 82.68C161.12 82.5 161.55 82.235 161.89 81.885C162.24 81.535 162.5 81.095 162.67 80.565C162.84 80.025 162.925 79.405 162.925 78.705C162.925 77.295 162.58 76.24 161.89 75.54C161.2 74.83 160.165 74.475 158.785 74.475H156.535V82.95ZM168.853 84.135C168.263 84.135 167.773 84.03 167.383 83.82C167.003 83.6 166.713 83.275 166.513 82.845C166.323 82.415 166.228 81.88 166.228 81.24V77.22C166.228 77.01 166.278 76.855 166.378 76.755C166.488 76.655 166.638 76.605 166.828 76.605C167.028 76.605 167.178 76.655 167.278 76.755C167.388 76.855 167.443 77.01 167.443 77.22V81.225C167.443 81.865 167.573 82.345 167.833 82.665C168.103 82.975 168.523 83.13 169.093 83.13C169.713 83.13 170.218 82.92 170.608 82.5C170.998 82.08 171.193 81.53 171.193 80.85V77.22C171.193 77.01 171.243 76.855 171.343 76.755C171.453 76.655 171.608 76.605 171.808 76.605C171.998 76.605 172.143 76.655 172.243 76.755C172.353 76.855 172.408 77.01 172.408 77.22V83.475C172.408 83.895 172.213 84.105 171.823 84.105C171.633 84.105 171.483 84.05 171.373 83.94C171.273 83.83 171.223 83.675 171.223 83.475V82.11L171.418 82.32C171.218 82.91 170.888 83.36 170.428 83.67C169.978 83.98 169.453 84.135 168.853 84.135ZM178.371 84.135C177.711 84.135 177.141 83.965 176.661 83.625C176.191 83.285 175.876 82.83 175.716 82.26L175.881 82.095V83.475C175.881 83.675 175.826 83.83 175.716 83.94C175.616 84.05 175.471 84.105 175.281 84.105C175.081 84.105 174.931 84.05 174.831 83.94C174.731 83.83 174.681 83.675 174.681 83.475V73.935C174.681 73.735 174.731 73.585 174.831 73.485C174.931 73.375 175.081 73.32 175.281 73.32C175.471 73.32 175.621 73.375 175.731 73.485C175.841 73.585 175.896 73.735 175.896 73.935V78.405H175.716C175.886 77.845 176.206 77.4 176.676 77.07C177.146 76.74 177.711 76.575 178.371 76.575C179.031 76.575 179.601 76.73 180.081 77.04C180.561 77.34 180.931 77.775 181.191 78.345C181.461 78.905 181.596 79.575 181.596 80.355C181.596 81.125 181.461 81.795 181.191 82.365C180.931 82.925 180.556 83.36 180.066 83.67C179.586 83.98 179.021 84.135 178.371 84.135ZM178.116 83.16C178.576 83.16 178.971 83.05 179.301 82.83C179.641 82.61 179.901 82.29 180.081 81.87C180.271 81.45 180.366 80.945 180.366 80.355C180.366 79.445 180.161 78.75 179.751 78.27C179.351 77.79 178.806 77.55 178.116 77.55C177.666 77.55 177.271 77.66 176.931 77.88C176.591 78.09 176.326 78.405 176.136 78.825C175.956 79.235 175.866 79.745 175.866 80.355C175.866 81.255 176.071 81.95 176.481 82.44C176.891 82.92 177.436 83.16 178.116 83.16ZM185.721 84.135C185.221 84.135 184.771 84.04 184.371 83.85C183.981 83.65 183.671 83.38 183.441 83.04C183.211 82.7 183.096 82.32 183.096 81.9C183.096 81.36 183.231 80.935 183.501 80.625C183.781 80.315 184.236 80.095 184.866 79.965C185.506 79.835 186.376 79.77 187.476 79.77H188.151V80.565H187.491C186.681 80.565 186.041 80.605 185.571 80.685C185.111 80.755 184.786 80.88 184.596 81.06C184.416 81.24 184.326 81.495 184.326 81.825C184.326 82.235 184.466 82.57 184.746 82.83C185.036 83.09 185.426 83.22 185.916 83.22C186.316 83.22 186.666 83.125 186.966 82.935C187.276 82.745 187.516 82.485 187.686 82.155C187.866 81.825 187.956 81.445 187.956 81.015V79.305C187.956 78.685 187.831 78.24 187.581 77.97C187.331 77.69 186.921 77.55 186.351 77.55C186.001 77.55 185.651 77.595 185.301 77.685C184.951 77.775 184.581 77.92 184.191 78.12C184.051 78.19 183.931 78.215 183.831 78.195C183.731 78.165 183.651 78.11 183.591 78.03C183.531 77.95 183.496 77.86 183.486 77.76C183.476 77.65 183.496 77.545 183.546 77.445C183.606 77.345 183.696 77.265 183.816 77.205C184.256 76.985 184.691 76.825 185.121 76.725C185.551 76.625 185.961 76.575 186.351 76.575C186.981 76.575 187.501 76.68 187.911 76.89C188.321 77.09 188.626 77.4 188.826 77.82C189.026 78.23 189.126 78.76 189.126 79.41V83.475C189.126 83.675 189.076 83.83 188.976 83.94C188.886 84.05 188.751 84.105 188.571 84.105C188.381 84.105 188.236 84.05 188.136 83.94C188.036 83.83 187.986 83.675 187.986 83.475V82.305H188.121C188.041 82.685 187.886 83.01 187.656 83.28C187.436 83.55 187.161 83.76 186.831 83.91C186.501 84.06 186.131 84.135 185.721 84.135ZM191.98 84.075C191.78 84.075 191.63 84.02 191.53 83.91C191.43 83.79 191.38 83.625 191.38 83.415V77.28C191.38 77.07 191.43 76.91 191.53 76.8C191.63 76.69 191.78 76.635 191.98 76.635C192.17 76.635 192.32 76.69 192.43 76.8C192.54 76.91 192.595 77.07 192.595 77.28V83.415C192.595 83.625 192.54 83.79 192.43 83.91C192.33 84.02 192.18 84.075 191.98 84.075ZM191.98 74.955C191.73 74.955 191.535 74.89 191.395 74.76C191.255 74.62 191.185 74.435 191.185 74.205C191.185 73.965 191.255 73.785 191.395 73.665C191.535 73.535 191.73 73.47 191.98 73.47C192.24 73.47 192.435 73.535 192.565 73.665C192.705 73.785 192.775 73.965 192.775 74.205C192.775 74.435 192.705 74.62 192.565 74.76C192.435 74.89 192.24 74.955 191.98 74.955Z" fill="#040404"/>
<path d="M241.965 96.105C241.755 96.105 241.59 96.05 241.47 95.94C241.36 95.82 241.305 95.65 241.305 95.43V86.1C241.305 85.88 241.36 85.715 241.47 85.605C241.59 85.485 241.76 85.425 241.98 85.425H247.425C247.595 85.425 247.725 85.47 247.815 85.56C247.905 85.65 247.95 85.775 247.95 85.935C247.95 86.105 247.905 86.235 247.815 86.325C247.725 86.415 247.595 86.46 247.425 86.46H242.535V90.15H247.11C247.28 90.15 247.41 90.195 247.5 90.285C247.6 90.375 247.65 90.5 247.65 90.66C247.65 90.83 247.6 90.96 247.5 91.05C247.41 91.14 247.28 91.185 247.11 91.185H242.535V95.43C242.535 95.88 242.345 96.105 241.965 96.105ZM251.777 96.135C251.187 96.135 250.697 96.03 250.307 95.82C249.927 95.6 249.637 95.275 249.437 94.845C249.247 94.415 249.152 93.88 249.152 93.24V89.22C249.152 89.01 249.202 88.855 249.302 88.755C249.412 88.655 249.562 88.605 249.752 88.605C249.952 88.605 250.102 88.655 250.202 88.755C250.312 88.855 250.367 89.01 250.367 89.22V93.225C250.367 93.865 250.497 94.345 250.757 94.665C251.027 94.975 251.447 95.13 252.017 95.13C252.637 95.13 253.142 94.92 253.532 94.5C253.922 94.08 254.117 93.53 254.117 92.85V89.22C254.117 89.01 254.167 88.855 254.267 88.755C254.377 88.655 254.532 88.605 254.732 88.605C254.922 88.605 255.067 88.655 255.167 88.755C255.277 88.855 255.332 89.01 255.332 89.22V95.475C255.332 95.895 255.137 96.105 254.747 96.105C254.557 96.105 254.407 96.05 254.297 95.94C254.197 95.83 254.147 95.675 254.147 95.475V94.11L254.342 94.32C254.142 94.91 253.812 95.36 253.352 95.67C252.902 95.98 252.377 96.135 251.777 96.135ZM256.21 98.865C256.06 98.875 255.94 98.85 255.85 98.79C255.75 98.73 255.685 98.65 255.655 98.55C255.615 98.46 255.605 98.365 255.625 98.265C255.635 98.175 255.675 98.095 255.745 98.025C255.815 97.955 255.91 97.92 256.03 97.92C256.58 97.89 256.985 97.74 257.245 97.47C257.515 97.21 257.65 96.795 257.65 96.225V89.22C257.65 89.02 257.7 88.87 257.8 88.77C257.91 88.66 258.065 88.605 258.265 88.605C258.455 88.605 258.6 88.66 258.7 88.77C258.81 88.87 258.865 89.02 258.865 89.22V96.135C258.865 96.745 258.76 97.245 258.55 97.635C258.35 98.035 258.055 98.33 257.665 98.52C257.275 98.72 256.79 98.835 256.21 98.865ZM258.25 86.955C258 86.955 257.805 86.89 257.665 86.76C257.525 86.62 257.455 86.435 257.455 86.205C257.455 85.965 257.525 85.785 257.665 85.665C257.805 85.535 258 85.47 258.25 85.47C258.51 85.47 258.71 85.535 258.85 85.665C258.99 85.785 259.06 85.965 259.06 86.205C259.06 86.435 258.99 86.62 258.85 86.76C258.71 86.89 258.51 86.955 258.25 86.955ZM263.445 96.135C262.945 96.135 262.495 96.04 262.095 95.85C261.705 95.65 261.395 95.38 261.165 95.04C260.935 94.7 260.82 94.32 260.82 93.9C260.82 93.36 260.955 92.935 261.225 92.625C261.505 92.315 261.96 92.095 262.59 91.965C263.23 91.835 264.1 91.77 265.2 91.77H265.875V92.565H265.215C264.405 92.565 263.765 92.605 263.295 92.685C262.835 92.755 262.51 92.88 262.32 93.06C262.14 93.24 262.05 93.495 262.05 93.825C262.05 94.235 262.19 94.57 262.47 94.83C262.76 95.09 263.15 95.22 263.64 95.22C264.04 95.22 264.39 95.125 264.69 94.935C265 94.745 265.24 94.485 265.41 94.155C265.59 93.825 265.68 93.445 265.68 93.015V91.305C265.68 90.685 265.555 90.24 265.305 89.97C265.055 89.69 264.645 89.55 264.075 89.55C263.725 89.55 263.375 89.595 263.025 89.685C262.675 89.775 262.305 89.92 261.915 90.12C261.775 90.19 261.655 90.215 261.555 90.195C261.455 90.165 261.375 90.11 261.315 90.03C261.255 89.95 261.22 89.86 261.21 89.76C261.2 89.65 261.22 89.545 261.27 89.445C261.33 89.345 261.42 89.265 261.54 89.205C261.98 88.985 262.415 88.825 262.845 88.725C263.275 88.625 263.685 88.575 264.075 88.575C264.705 88.575 265.225 88.68 265.635 88.89C266.045 89.09 266.35 89.4 266.55 89.82C266.75 90.23 266.85 90.76 266.85 91.41V95.475C266.85 95.675 266.8 95.83 266.7 95.94C266.61 96.05 266.475 96.105 266.295 96.105C266.105 96.105 265.96 96.05 265.86 95.94C265.76 95.83 265.71 95.675 265.71 95.475V94.305H265.845C265.765 94.685 265.61 95.01 265.38 95.28C265.16 95.55 264.885 95.76 264.555 95.91C264.225 96.06 263.855 96.135 263.445 96.135ZM269.704 96.075C269.504 96.075 269.354 96.02 269.254 95.91C269.154 95.79 269.104 95.625 269.104 95.415V89.28C269.104 89.07 269.154 88.91 269.254 88.8C269.354 88.69 269.504 88.635 269.704 88.635C269.894 88.635 270.044 88.69 270.154 88.8C270.264 88.91 270.319 89.07 270.319 89.28V95.415C270.319 95.625 270.264 95.79 270.154 95.91C270.054 96.02 269.904 96.075 269.704 96.075ZM269.704 86.955C269.454 86.955 269.259 86.89 269.119 86.76C268.979 86.62 268.909 86.435 268.909 86.205C268.909 85.965 268.979 85.785 269.119 85.665C269.259 85.535 269.454 85.47 269.704 85.47C269.964 85.47 270.159 85.535 270.289 85.665C270.429 85.785 270.499 85.965 270.499 86.205C270.499 86.435 270.429 86.62 270.289 86.76C270.159 86.89 269.964 86.955 269.704 86.955ZM273.205 96.105C273.005 96.105 272.85 96.05 272.74 95.94C272.64 95.83 272.59 95.675 272.59 95.475V89.22C272.59 89.02 272.64 88.87 272.74 88.77C272.84 88.66 272.985 88.605 273.175 88.605C273.365 88.605 273.51 88.66 273.61 88.77C273.72 88.87 273.775 89.02 273.775 89.22V90.435H273.625C273.785 89.845 274.09 89.39 274.54 89.07C274.99 88.75 275.545 88.58 276.205 88.56C276.355 88.55 276.475 88.585 276.565 88.665C276.655 88.735 276.705 88.86 276.715 89.04C276.725 89.21 276.685 89.345 276.595 89.445C276.505 89.545 276.365 89.605 276.175 89.625L275.935 89.655C275.255 89.715 274.73 89.935 274.36 90.315C274 90.685 273.82 91.195 273.82 91.845V95.475C273.82 95.675 273.765 95.83 273.655 95.94C273.555 96.05 273.405 96.105 273.205 96.105ZM280.188 96.135C279.688 96.135 279.238 96.04 278.838 95.85C278.448 95.65 278.138 95.38 277.908 95.04C277.678 94.7 277.563 94.32 277.563 93.9C277.563 93.36 277.698 92.935 277.968 92.625C278.248 92.315 278.703 92.095 279.333 91.965C279.973 91.835 280.843 91.77 281.943 91.77H282.618V92.565H281.958C281.148 92.565 280.508 92.605 280.038 92.685C279.578 92.755 279.253 92.88 279.063 93.06C278.883 93.24 278.793 93.495 278.793 93.825C278.793 94.235 278.933 94.57 279.213 94.83C279.503 95.09 279.893 95.22 280.383 95.22C280.783 95.22 281.133 95.125 281.433 94.935C281.743 94.745 281.983 94.485 282.153 94.155C282.333 93.825 282.423 93.445 282.423 93.015V91.305C282.423 90.685 282.298 90.24 282.048 89.97C281.798 89.69 281.388 89.55 280.818 89.55C280.468 89.55 280.118 89.595 279.768 89.685C279.418 89.775 279.048 89.92 278.658 90.12C278.518 90.19 278.398 90.215 278.298 90.195C278.198 90.165 278.118 90.11 278.058 90.03C277.998 89.95 277.963 89.86 277.953 89.76C277.943 89.65 277.963 89.545 278.013 89.445C278.073 89.345 278.163 89.265 278.283 89.205C278.723 88.985 279.158 88.825 279.588 88.725C280.018 88.625 280.428 88.575 280.818 88.575C281.448 88.575 281.968 88.68 282.378 88.89C282.788 89.09 283.093 89.4 283.293 89.82C283.493 90.23 283.593 90.76 283.593 91.41V95.475C283.593 95.675 283.543 95.83 283.443 95.94C283.353 96.05 283.218 96.105 283.038 96.105C282.848 96.105 282.703 96.05 282.603 95.94C282.503 95.83 282.453 95.675 282.453 95.475V94.305H282.588C282.508 94.685 282.353 95.01 282.123 95.28C281.903 95.55 281.628 95.76 281.298 95.91C280.968 96.06 280.598 96.135 280.188 96.135ZM286.447 96.105C286.247 96.105 286.097 96.05 285.997 95.94C285.897 95.83 285.847 95.675 285.847 95.475V85.935C285.847 85.735 285.897 85.585 285.997 85.485C286.097 85.375 286.247 85.32 286.447 85.32C286.637 85.32 286.787 85.375 286.897 85.485C287.007 85.585 287.062 85.735 287.062 85.935V90.33H286.867C287.077 89.75 287.417 89.315 287.887 89.025C288.367 88.725 288.917 88.575 289.537 88.575C290.117 88.575 290.597 88.68 290.977 88.89C291.367 89.1 291.657 89.42 291.847 89.85C292.037 90.27 292.132 90.805 292.132 91.455V95.475C292.132 95.675 292.077 95.83 291.967 95.94C291.867 96.05 291.722 96.105 291.532 96.105C291.332 96.105 291.177 96.05 291.067 95.94C290.967 95.83 290.917 95.675 290.917 95.475V91.53C290.917 90.85 290.782 90.355 290.512 90.045C290.252 89.725 289.832 89.565 289.252 89.565C288.582 89.565 288.047 89.775 287.647 90.195C287.257 90.605 287.062 91.155 287.062 91.845V95.475C287.062 95.895 286.857 96.105 286.447 96.105Z" fill="#040404"/>
<path d="M219.08 150.105C218.92 150.105 218.79 150.07 218.69 150C218.6 149.92 218.545 149.82 218.525 149.7C218.515 149.57 218.545 149.425 218.615 149.265L222.74 139.875C222.83 139.675 222.935 139.535 223.055 139.455C223.185 139.365 223.325 139.32 223.475 139.32C223.625 139.32 223.76 139.365 223.88 139.455C224.01 139.535 224.115 139.675 224.195 139.875L228.335 149.265C228.415 149.425 228.445 149.57 228.425 149.7C228.415 149.83 228.365 149.93 228.275 150C228.185 150.07 228.06 150.105 227.9 150.105C227.72 150.105 227.575 150.06 227.465 149.97C227.355 149.87 227.265 149.73 227.195 149.55L226.085 146.985L226.685 147.3H220.235L220.85 146.985L219.755 149.55C219.665 149.74 219.57 149.88 219.47 149.97C219.37 150.06 219.24 150.105 219.08 150.105ZM223.46 140.865L221.045 146.55L220.685 146.265H226.235L225.905 146.55L223.49 140.865H223.46ZM232.288 150.135C231.568 150.135 231.018 149.915 230.638 149.475C230.258 149.035 230.068 148.405 230.068 147.585V139.935C230.068 139.735 230.118 139.585 230.218 139.485C230.318 139.375 230.468 139.32 230.668 139.32C230.858 139.32 231.008 139.375 231.118 139.485C231.228 139.585 231.283 139.735 231.283 139.935V147.495C231.283 148.035 231.388 148.44 231.598 148.71C231.818 148.97 232.138 149.1 232.558 149.1C232.648 149.1 232.728 149.095 232.798 149.085C232.868 149.075 232.938 149.07 233.008 149.07C233.118 149.06 233.193 149.085 233.233 149.145C233.283 149.205 233.308 149.325 233.308 149.505C233.308 149.685 233.268 149.82 233.188 149.91C233.108 150 232.978 150.06 232.798 150.09C232.718 150.1 232.633 150.11 232.543 150.12C232.453 150.13 232.368 150.135 232.288 150.135ZM238.313 150.105C238.153 150.105 238.023 150.07 237.923 150C237.833 149.92 237.778 149.82 237.758 149.7C237.748 149.57 237.778 149.425 237.848 149.265L241.973 139.875C242.063 139.675 242.168 139.535 242.288 139.455C242.418 139.365 242.558 139.32 242.708 139.32C242.858 139.32 242.993 139.365 243.113 139.455C243.243 139.535 243.348 139.675 243.428 139.875L247.568 149.265C247.648 149.425 247.678 149.57 247.658 149.7C247.648 149.83 247.598 149.93 247.508 150C247.418 150.07 247.293 150.105 247.133 150.105C246.953 150.105 246.808 150.06 246.698 149.97C246.588 149.87 246.498 149.73 246.428 149.55L245.318 146.985L245.918 147.3H239.468L240.083 146.985L238.988 149.55C238.898 149.74 238.803 149.88 238.703 149.97C238.603 150.06 238.473 150.105 238.313 150.105ZM242.693 140.865L240.278 146.55L239.918 146.265H245.468L245.138 146.55L242.723 140.865H242.693ZM249.901 150.075C249.701 150.075 249.551 150.02 249.451 149.91C249.351 149.79 249.301 149.625 249.301 149.415V143.28C249.301 143.07 249.351 142.91 249.451 142.8C249.551 142.69 249.701 142.635 249.901 142.635C250.091 142.635 250.241 142.69 250.351 142.8C250.461 142.91 250.516 143.07 250.516 143.28V149.415C250.516 149.625 250.461 149.79 250.351 149.91C250.251 150.02 250.101 150.075 249.901 150.075ZM249.901 140.955C249.651 140.955 249.456 140.89 249.316 140.76C249.176 140.62 249.106 140.435 249.106 140.205C249.106 139.965 249.176 139.785 249.316 139.665C249.456 139.535 249.651 139.47 249.901 139.47C250.161 139.47 250.356 139.535 250.486 139.665C250.626 139.785 250.696 139.965 250.696 140.205C250.696 140.435 250.626 140.62 250.486 140.76C250.356 140.89 250.161 140.955 249.901 140.955ZM253.387 150.105C253.187 150.105 253.037 150.05 252.937 149.94C252.837 149.83 252.787 149.675 252.787 149.475V143.22C252.787 143.02 252.837 142.87 252.937 142.77C253.037 142.66 253.182 142.605 253.372 142.605C253.562 142.605 253.707 142.66 253.807 142.77C253.917 142.87 253.972 143.02 253.972 143.22V144.51L253.807 144.33C254.017 143.75 254.357 143.315 254.827 143.025C255.307 142.725 255.857 142.575 256.477 142.575C257.057 142.575 257.537 142.68 257.917 142.89C258.307 143.1 258.597 143.42 258.787 143.85C258.977 144.27 259.072 144.805 259.072 145.455V149.475C259.072 149.675 259.017 149.83 258.907 149.94C258.807 150.05 258.662 150.105 258.472 150.105C258.272 150.105 258.117 150.05 258.007 149.94C257.907 149.83 257.857 149.675 257.857 149.475V145.53C257.857 144.85 257.722 144.355 257.452 144.045C257.192 143.725 256.772 143.565 256.192 143.565C255.522 143.565 254.987 143.775 254.587 144.195C254.197 144.605 254.002 145.155 254.002 145.845V149.475C254.002 149.895 253.797 150.105 253.387 150.105Z" fill="#040404"/>
<path d="M80.08 131.105C79.92 131.105 79.79 131.07 79.69 131C79.6 130.92 79.545 130.82 79.525 130.7C79.515 130.57 79.545 130.425 79.615 130.265L83.74 120.875C83.83 120.675 83.935 120.535 84.055 120.455C84.185 120.365 84.325 120.32 84.475 120.32C84.625 120.32 84.76 120.365 84.88 120.455C85.01 120.535 85.115 120.675 85.195 120.875L89.335 130.265C89.415 130.425 89.445 130.57 89.425 130.7C89.415 130.83 89.365 130.93 89.275 131C89.185 131.07 89.06 131.105 88.9 131.105C88.72 131.105 88.575 131.06 88.465 130.97C88.355 130.87 88.265 130.73 88.195 130.55L87.085 127.985L87.685 128.3H81.235L81.85 127.985L80.755 130.55C80.665 130.74 80.57 130.88 80.47 130.97C80.37 131.06 80.24 131.105 80.08 131.105ZM84.46 121.865L82.045 127.55L81.685 127.265H87.235L86.905 127.55L84.49 121.865H84.46ZM94.7577 131.135C94.0977 131.135 93.5277 130.965 93.0477 130.625C92.5777 130.285 92.2627 129.83 92.1027 129.26L92.2677 129.095V130.475C92.2677 130.675 92.2127 130.83 92.1027 130.94C92.0027 131.05 91.8577 131.105 91.6677 131.105C91.4677 131.105 91.3177 131.05 91.2177 130.94C91.1177 130.83 91.0677 130.675 91.0677 130.475V120.935C91.0677 120.735 91.1177 120.585 91.2177 120.485C91.3177 120.375 91.4677 120.32 91.6677 120.32C91.8577 120.32 92.0077 120.375 92.1177 120.485C92.2277 120.585 92.2827 120.735 92.2827 120.935V125.405H92.1027C92.2727 124.845 92.5927 124.4 93.0627 124.07C93.5327 123.74 94.0977 123.575 94.7577 123.575C95.4177 123.575 95.9877 123.73 96.4677 124.04C96.9477 124.34 97.3177 124.775 97.5777 125.345C97.8477 125.905 97.9827 126.575 97.9827 127.355C97.9827 128.125 97.8477 128.795 97.5777 129.365C97.3177 129.925 96.9427 130.36 96.4527 130.67C95.9727 130.98 95.4077 131.135 94.7577 131.135ZM94.5027 130.16C94.9627 130.16 95.3577 130.05 95.6877 129.83C96.0277 129.61 96.2877 129.29 96.4677 128.87C96.6577 128.45 96.7527 127.945 96.7527 127.355C96.7527 126.445 96.5477 125.75 96.1377 125.27C95.7377 124.79 95.1927 124.55 94.5027 124.55C94.0527 124.55 93.6577 124.66 93.3177 124.88C92.9777 125.09 92.7127 125.405 92.5227 125.825C92.3427 126.235 92.2527 126.745 92.2527 127.355C92.2527 128.255 92.4577 128.95 92.8677 129.44C93.2777 129.92 93.8227 130.16 94.5027 130.16ZM102.393 131.135C101.803 131.135 101.313 131.03 100.923 130.82C100.543 130.6 100.253 130.275 100.053 129.845C99.8629 129.415 99.7679 128.88 99.7679 128.24V124.22C99.7679 124.01 99.8179 123.855 99.9179 123.755C100.028 123.655 100.178 123.605 100.368 123.605C100.568 123.605 100.718 123.655 100.818 123.755C100.928 123.855 100.983 124.01 100.983 124.22V128.225C100.983 128.865 101.113 129.345 101.373 129.665C101.643 129.975 102.063 130.13 102.633 130.13C103.253 130.13 103.758 129.92 104.148 129.5C104.538 129.08 104.733 128.53 104.733 127.85V124.22C104.733 124.01 104.783 123.855 104.883 123.755C104.993 123.655 105.148 123.605 105.348 123.605C105.538 123.605 105.683 123.655 105.783 123.755C105.893 123.855 105.948 124.01 105.948 124.22V130.475C105.948 130.895 105.753 131.105 105.363 131.105C105.173 131.105 105.023 131.05 104.913 130.94C104.813 130.83 104.763 130.675 104.763 130.475V129.11L104.958 129.32C104.758 129.91 104.428 130.36 103.968 130.67C103.518 130.98 102.993 131.135 102.393 131.135ZM112.928 131C112.708 131 112.538 130.945 112.418 130.835C112.308 130.715 112.253 130.545 112.253 130.325V121.1C112.253 120.88 112.308 120.715 112.418 120.605C112.538 120.485 112.708 120.425 112.928 120.425H115.823C117.533 120.425 118.853 120.875 119.783 121.775C120.713 122.675 121.178 123.985 121.178 125.705C121.178 126.565 121.058 127.325 120.818 127.985C120.588 128.635 120.243 129.185 119.783 129.635C119.323 130.085 118.763 130.425 118.103 130.655C117.443 130.885 116.683 131 115.823 131H112.928ZM113.483 129.95H115.733C116.433 129.95 117.038 129.86 117.548 129.68C118.068 129.5 118.498 129.235 118.838 128.885C119.188 128.535 119.448 128.095 119.618 127.565C119.788 127.025 119.873 126.405 119.873 125.705C119.873 124.295 119.528 123.24 118.838 122.54C118.148 121.83 117.113 121.475 115.733 121.475H113.483V129.95ZM123.821 131.105C123.621 131.105 123.471 131.05 123.371 130.94C123.271 130.83 123.221 130.675 123.221 130.475V120.935C123.221 120.735 123.271 120.585 123.371 120.485C123.471 120.375 123.621 120.32 123.821 120.32C124.011 120.32 124.161 120.375 124.271 120.485C124.381 120.585 124.436 120.735 124.436 120.935V125.33H124.241C124.451 124.75 124.791 124.315 125.261 124.025C125.741 123.725 126.291 123.575 126.911 123.575C127.491 123.575 127.971 123.68 128.351 123.89C128.741 124.1 129.031 124.42 129.221 124.85C129.411 125.27 129.506 125.805 129.506 126.455V130.475C129.506 130.675 129.451 130.83 129.341 130.94C129.241 131.05 129.096 131.105 128.906 131.105C128.706 131.105 128.551 131.05 128.441 130.94C128.341 130.83 128.291 130.675 128.291 130.475V126.53C128.291 125.85 128.156 125.355 127.886 125.045C127.626 124.725 127.206 124.565 126.626 124.565C125.956 124.565 125.421 124.775 125.021 125.195C124.631 125.605 124.436 126.155 124.436 126.845V130.475C124.436 130.895 124.231 131.105 123.821 131.105ZM134.041 131.135C133.541 131.135 133.091 131.04 132.691 130.85C132.301 130.65 131.991 130.38 131.761 130.04C131.531 129.7 131.416 129.32 131.416 128.9C131.416 128.36 131.551 127.935 131.821 127.625C132.101 127.315 132.556 127.095 133.186 126.965C133.826 126.835 134.696 126.77 135.796 126.77H136.471V127.565H135.811C135.001 127.565 134.361 127.605 133.891 127.685C133.431 127.755 133.106 127.88 132.916 128.06C132.736 128.24 132.646 128.495 132.646 128.825C132.646 129.235 132.786 129.57 133.066 129.83C133.356 130.09 133.746 130.22 134.236 130.22C134.636 130.22 134.986 130.125 135.286 129.935C135.596 129.745 135.836 129.485 136.006 129.155C136.186 128.825 136.276 128.445 136.276 128.015V126.305C136.276 125.685 136.151 125.24 135.901 124.97C135.651 124.69 135.241 124.55 134.671 124.55C134.321 124.55 133.971 124.595 133.621 124.685C133.271 124.775 132.901 124.92 132.511 125.12C132.371 125.19 132.251 125.215 132.151 125.195C132.051 125.165 131.971 125.11 131.911 125.03C131.851 124.95 131.816 124.86 131.806 124.76C131.796 124.65 131.816 124.545 131.866 124.445C131.926 124.345 132.016 124.265 132.136 124.205C132.576 123.985 133.011 123.825 133.441 123.725C133.871 123.625 134.281 123.575 134.671 123.575C135.301 123.575 135.821 123.68 136.231 123.89C136.641 124.09 136.946 124.4 137.146 124.82C137.346 125.23 137.446 125.76 137.446 126.41V130.475C137.446 130.675 137.396 130.83 137.296 130.94C137.206 131.05 137.071 131.105 136.891 131.105C136.701 131.105 136.556 131.05 136.456 130.94C136.356 130.83 136.306 130.675 136.306 130.475V129.305H136.441C136.361 129.685 136.206 130.01 135.976 130.28C135.756 130.55 135.481 130.76 135.151 130.91C134.821 131.06 134.451 131.135 134.041 131.135ZM143.391 131.135C142.731 131.135 142.161 130.965 141.681 130.625C141.211 130.285 140.896 129.83 140.736 129.26L140.901 129.095V130.475C140.901 130.675 140.846 130.83 140.736 130.94C140.636 131.05 140.491 131.105 140.301 131.105C140.101 131.105 139.951 131.05 139.851 130.94C139.751 130.83 139.701 130.675 139.701 130.475V120.935C139.701 120.735 139.751 120.585 139.851 120.485C139.951 120.375 140.101 120.32 140.301 120.32C140.491 120.32 140.641 120.375 140.751 120.485C140.861 120.585 140.916 120.735 140.916 120.935V125.405H140.736C140.906 124.845 141.226 124.4 141.696 124.07C142.166 123.74 142.731 123.575 143.391 123.575C144.051 123.575 144.621 123.73 145.101 124.04C145.581 124.34 145.951 124.775 146.211 125.345C146.481 125.905 146.616 126.575 146.616 127.355C146.616 128.125 146.481 128.795 146.211 129.365C145.951 129.925 145.576 130.36 145.086 130.67C144.606 130.98 144.041 131.135 143.391 131.135ZM143.136 130.16C143.596 130.16 143.991 130.05 144.321 129.83C144.661 129.61 144.921 129.29 145.101 128.87C145.291 128.45 145.386 127.945 145.386 127.355C145.386 126.445 145.181 125.75 144.771 125.27C144.371 124.79 143.826 124.55 143.136 124.55C142.686 124.55 142.291 124.66 141.951 124.88C141.611 125.09 141.346 125.405 141.156 125.825C140.976 126.235 140.886 126.745 140.886 127.355C140.886 128.255 141.091 128.95 141.501 129.44C141.911 129.92 142.456 130.16 143.136 130.16ZM149.046 131.075C148.846 131.075 148.696 131.02 148.596 130.91C148.496 130.79 148.446 130.625 148.446 130.415V124.28C148.446 124.07 148.496 123.91 148.596 123.8C148.696 123.69 148.846 123.635 149.046 123.635C149.236 123.635 149.386 123.69 149.496 123.8C149.606 123.91 149.661 124.07 149.661 124.28V130.415C149.661 130.625 149.606 130.79 149.496 130.91C149.396 131.02 149.246 131.075 149.046 131.075ZM149.046 121.955C148.796 121.955 148.601 121.89 148.461 121.76C148.321 121.62 148.251 121.435 148.251 121.205C148.251 120.965 148.321 120.785 148.461 120.665C148.601 120.535 148.796 120.47 149.046 120.47C149.306 120.47 149.501 120.535 149.631 120.665C149.771 120.785 149.841 120.965 149.841 121.205C149.841 121.435 149.771 121.62 149.631 121.76C149.501 121.89 149.306 121.955 149.046 121.955Z" fill="#040404"/>
</svg>
