<svg width="276" height="218" viewBox="0 0 276 218" fill="none" xmlns="http://www.w3.org/2000/svg">
<path d="M130.96 114.529C129.841 115.093 128.717 115.463 127.848 116.151C126.938 116.872 126.15 117.309 124.979 116.877C124.628 116.749 124.077 116.877 123.722 117.076C122.209 117.911 120.733 118.808 119.244 119.69C119.016 119.823 118.77 119.96 118.613 120.164C118.414 120.425 118.101 120.871 118.191 121.027C118.347 121.298 118.765 121.502 119.102 121.568C120.548 121.848 121.986 121.99 123.371 122.697C125.13 123.589 127.094 123.741 128.949 122.773C129.29 122.597 129.523 122.185 129.765 121.848C129.997 121.525 130.178 121.17 130.381 120.828C130.68 121.108 131.05 121.34 131.268 121.677C132.056 122.863 135.898 123.091 136.809 121.967C136.913 121.839 136.946 121.649 137.013 121.483C137.724 119.661 136.937 118.542 134.67 118.139C132.369 117.731 131.325 116.735 130.951 114.534L130.96 114.529ZM103.178 111.133C103.192 111.213 103.04 111.332 102.86 111.583C102.547 111.327 102.296 111.038 101.978 110.881C101.636 110.715 101.157 110.497 100.873 110.616C99.6251 111.137 98.4629 111.892 97.1917 112.337C96.3331 112.641 95.3275 112.712 94.4121 112.636C93.193 112.537 92.7566 112.959 93.1171 114.168C94.0421 114.168 94.9576 114.178 95.873 114.168C96.7363 114.159 97.6044 114.13 98.4677 114.107C98.4772 113.969 98.4819 113.827 98.4914 113.689C99.3025 114.078 100.114 114.467 100.825 114.809C101.394 114.168 101.84 113.372 102.514 112.968C103.771 112.219 105.184 111.74 106.489 111.066L103.178 111.133ZM150.479 116.701C150.992 115.923 150.897 114.894 150.185 114.017C149.469 113.13 148.625 112.333 147.766 111.579C147.012 110.914 146.3 111.128 145.779 111.949C144.949 113.258 145.76 114.937 147.391 115.468C148.383 115.791 149.336 116.241 150.484 116.701H150.479ZM155.076 112.717C154.288 111.541 153.563 110.402 152.766 109.311C152.638 109.136 152.192 109.093 151.921 109.145C150.921 109.34 150.176 109.809 149.844 110.9C149.507 112.001 150.418 112.143 150.935 112.579C153.046 114.372 153.202 114.372 155.076 112.717V112.717ZM155.332 108.756C155.778 109.691 156.081 110.464 156.499 111.166C156.855 111.759 157.594 112.129 157.979 111.436C158.396 110.696 158.69 109.638 158.491 108.861C158.244 107.917 157.291 107.357 156.048 107.39C156.209 107.85 156.333 108.196 156.48 108.604C156.124 108.652 155.806 108.695 155.332 108.756Z" fill="white"/>
<path d="M241.966 88.1222C242.089 88.4021 242.189 88.6915 242.336 88.9571C243.408 90.8592 243.403 90.8545 241.975 92.4198C241.719 92.6996 241.524 93.0507 241.363 93.3969C240.946 94.2792 240.538 95.1662 240.182 96.0722C240.002 96.5323 239.708 97.13 239.86 97.5095C240.671 99.5017 240.486 101.57 240.585 103.629C240.618 104.288 240.941 105.189 241.439 105.516C242.535 106.237 242.805 107.12 242.687 108.31C242.625 108.922 242.672 109.544 242.668 110.16C242.312 110.815 242.004 111.498 241.581 112.105C241.387 112.385 240.965 112.693 240.661 112.679C239.94 112.646 246.59 121.506 245.898 121.293C244.205 120.776 245.025 125.538 243.877 127.142C242.862 128.565 239.931 126.198 240.514 128.024C240.087 127.331 240.77 128.835 240.514 128.024C241.354 129.395 238.821 125.747 239.504 127.17C240.007 128.218 237.749 125.832 238.816 126.108C238.868 125.695 238.906 125.368 238.949 125.036L238.958 125.026C240.467 124.922 240.576 124.77 240.524 122.868L240.509 122.877L242.089 123.072L242.108 123.361C242.397 123.157 242.687 122.958 242.976 122.754L242.568 122.835C242.326 122.223 242.084 121.611 241.838 120.999L241.819 121.023C241.904 120.914 241.989 120.8 242.075 120.691L242.042 120.714C243.559 120.43 243.389 119.211 243.479 118.134C244.622 117.868 245.794 117.688 246.899 117.318C248.293 116.853 249.342 117.147 249.991 118.447C250.286 119.03 250.447 119.68 250.694 120.287C251.41 122.028 252.117 123.774 252.875 125.496C253.411 126.71 253.113 127.27 251.822 127.716C248.962 128.712 246.111 129.736 243.299 130.861C242.25 131.278 241.368 131.197 240.623 130.462C239.973 129.822 239.385 129.855 238.603 130.106C237.991 130.301 237.26 130.453 236.658 130.306C233.394 129.494 230.634 130.766 227.835 132.146C226.559 132.777 225.107 133.047 223.756 133.545C223.31 133.711 222.674 134.01 222.589 134.361C222.484 134.793 222.778 135.395 223.058 135.822C223.343 136.254 223.76 136.657 224.216 136.894C226.402 138.037 227.313 139.773 227.024 142.23C226.938 142.951 227.28 143.725 227.19 144.45C227.067 145.466 226.886 146.533 226.445 147.434C225.753 148.843 224.643 150.057 224.035 151.49C223.286 153.254 222.598 155.128 222.39 157.006C222.152 159.165 221.047 160.706 219.691 162.124C217.769 164.126 217.191 166.526 216.84 169.178C216.294 173.362 214.871 177.308 212.466 180.809C210.161 184.162 208.572 187.801 207.827 191.79C207.633 192.819 207.599 193.891 207.618 194.944C207.661 197.368 207.922 199.797 207.832 202.216C207.709 205.46 207.528 208.733 206.973 211.926C206.755 213.168 205.37 214.174 204.654 215.365C203.354 217.532 201.537 217.082 199.521 216.74C195.931 216.133 192.297 215.81 188.683 215.336C185.988 214.98 183.299 214.544 180.605 214.188C177.996 213.842 175.377 213.548 172.769 213.221C171.246 213.031 169.723 212.827 168.201 212.618C165.767 212.291 163.334 211.964 160.9 211.632C157.509 211.171 154.117 210.711 150.726 210.246C147.643 209.824 144.559 209.393 141.471 208.975C138.602 208.586 135.732 208.207 132.857 207.832C129.684 207.415 126.506 207.002 123.333 206.585C121.07 206.286 118.812 205.963 116.549 205.679C113.941 205.347 111.322 205.052 108.713 204.725C107.191 204.535 105.668 204.312 104.145 204.108C101.665 203.781 99.1838 203.473 96.7077 203.131C93.7098 202.714 90.7215 202.244 87.7236 201.836C85.461 201.528 83.1889 201.31 80.9263 201.006C77.7103 200.57 74.5037 200.067 71.2829 199.631C69.1531 199.346 67.0091 199.152 64.8793 198.881C62.8349 198.62 60.7335 198.516 58.7793 197.937C57.5744 197.582 56.3981 196.633 55.5442 195.656C53.2911 193.071 51.204 190.338 49.0884 187.635C48.116 186.397 47.2622 185.068 46.304 183.821C43.8707 180.652 41.3993 177.517 38.9707 174.348C36.1294 170.653 33.326 166.925 30.4895 163.23C25.395 156.598 20.2958 149.972 15.1824 143.359C12.3601 139.712 9.47134 136.116 6.66798 132.454C4.94137 130.201 3.30015 127.886 1.6779 125.557C1.37906 125.126 1.27471 124.49 1.2415 123.945C1.11817 121.563 0.985356 119.182 0.999586 116.806C1.00433 115.947 1.53559 115.103 1.63046 114.23C1.77751 112.864 1.787 111.474 1.77751 110.099C1.77751 109.738 1.35534 109.373 1.36009 109.017C1.36483 108.647 1.65418 108.282 1.8202 107.912C2.16647 108.073 2.58863 108.158 2.84478 108.41C4.73266 110.265 4.38165 112.665 4.43383 114.98C4.4528 115.848 4.68523 116.711 4.83227 117.636C6.69644 117.057 6.25056 115.44 7.03322 114.05C7.28937 115.013 7.3368 115.672 7.63564 116.189C7.95345 116.73 8.51317 117.124 8.96854 117.584C9.22469 117.133 9.49032 116.687 9.72749 116.227C10.2398 115.25 10.7331 114.263 11.3165 113.125C12.8771 114.33 13.4701 115.686 13.1143 117.152C12.5309 119.576 12.5403 121.895 13.157 124.305C13.6645 126.288 13.7926 128.37 14.2669 130.362C14.3903 130.879 15.1682 131.567 15.6805 131.6C17.7913 131.733 19.9211 131.643 21.5718 133.839V132.212C23.1751 132.212 24.7215 132.193 26.2631 132.231C26.5856 132.241 26.9604 132.388 27.2118 132.592C28.317 133.493 29.5882 133.626 30.9401 133.536C32.5481 133.427 34.1561 133.327 35.7689 133.28C37.4718 133.227 39.0087 132.834 40.5171 131.942C41.5654 131.321 42.9315 131.235 44.1458 130.894C44.5253 130.789 45.0328 130.747 45.2368 130.481C46.2851 129.11 47.8789 128.816 49.3398 128.252C49.4632 128.204 49.6387 128.209 49.7098 128.124C50.9336 126.672 52.5274 125.704 54.0975 124.694C55.2359 123.964 56.3316 123.162 57.3799 122.303C57.7974 121.962 58.1768 121.426 58.3002 120.914C58.5089 120.031 57.9966 118.879 59.3817 118.537C60.7288 118.2 61.3644 119.215 62.0475 120.022C62.7495 120.852 63.3282 121.782 63.9591 122.669C64.0207 122.503 64.0824 122.337 64.1393 122.171C65.3536 122.261 66.5774 122.275 67.7728 122.465C68.9349 122.65 70.0164 122.868 71.2402 122.507C72.2838 122.199 73.4744 122.294 74.5891 122.365C76.1212 122.465 77.6486 122.906 79.1618 122.83C80.1389 122.782 81.1303 122.152 82.022 121.625C82.6956 121.227 83.0988 121.307 83.649 121.796C84.3653 122.431 85.1717 122.967 85.9496 123.527C86.0824 123.622 86.3196 123.712 86.4334 123.655C87.7568 122.996 89.066 122.654 90.3942 123.627C90.5507 123.385 90.8401 123.138 90.8306 122.901C90.8164 122.346 90.6598 121.791 90.5555 121.198C92.5098 120.273 93.6245 121.715 94.8435 122.683C95.4175 123.138 95.9582 123.745 96.2665 124.4C96.6697 125.254 97.2674 125.401 98.0596 125.301C100.057 125.055 102.058 124.808 104.051 124.533C105.179 124.376 106.299 124.077 107.428 124.03C107.902 124.011 108.481 124.395 108.865 124.751C109.648 125.477 110.369 125.742 111.54 125.709C112.57 125.681 113.812 126.506 114.628 127.298C115.591 128.223 116.312 128.498 117.721 128.256C119.452 127.962 121.155 127.474 122.863 127.256C125.064 126.976 127.355 127.222 129.584 127.459C131.615 127.673 133.213 126.886 134.888 125.942C135.922 125.358 137.164 125.135 138.322 124.765C139.873 124.272 141.429 123.807 142.975 123.314C143.596 123.114 144.194 122.73 144.82 122.683C146.618 122.545 147.899 121.554 148.795 120.174C149.545 119.021 150.598 118.618 151.755 118.148C153.074 117.612 154.374 116.967 155.564 116.194C157.096 115.193 158.5 114.045 160.455 115.231C160.668 115.359 161.185 115.169 161.455 114.98C163.324 113.675 164.904 112.124 165.658 109.876C165.881 109.221 166.341 108.647 166.692 108.035C168.609 108.026 169.301 107.385 169.595 105.36V105.369C169.861 104.999 170.126 104.629 170.392 104.259C170.477 104.103 170.563 103.942 170.648 103.785C170.743 103.685 170.838 103.591 170.928 103.491H171.791C172.593 101.47 173.29 99.7294 173.969 97.9791C174.139 97.5379 174.253 97.0731 174.396 96.6177L174.656 96.3521H174.661C174.837 95.9963 175.012 95.6406 175.188 95.2896C175.088 94.8674 175.121 94.3219 174.865 94.0515C174.135 93.2831 174.443 92.8657 175.169 92.3866C175.577 92.121 175.928 91.7225 176.203 91.3193C176.577 90.7596 176.857 90.1382 177.213 89.4646C176.848 88.2313 176.378 86.8036 176.027 85.3473C175.947 85.0106 176.179 84.4698 176.445 84.2042C177.408 83.2555 178.423 82.3542 179.48 81.5099C179.703 81.3297 180.178 81.4293 180.534 81.4625C181.141 81.5194 181.805 81.8135 182.327 81.6475C182.725 81.5194 183.294 80.6087 183.18 80.4237C182.592 79.4797 183.18 79.1524 183.816 78.7587C186.154 77.2883 188.512 75.8415 190.817 74.3141C192.017 73.5172 193.075 72.5021 194.294 71.7337C195.105 71.2214 196.087 70.9795 196.993 70.6143C197.306 71.4254 197.638 72.227 197.932 73.0429C199.118 76.3348 200.304 79.6315 201.462 82.9329C202.477 85.8264 203.511 88.7104 204.417 91.6419C205.081 93.7954 206.618 94.284 208.577 94.2318C212.058 94.1369 215.54 94.1179 219.017 93.9234C220.222 93.857 221.479 93.5392 222.584 93.0459C225.34 91.8079 228.001 90.3611 230.738 89.0852C232.194 88.4021 233.736 87.8946 235.235 87.3111C237.474 87.5815 239.713 87.8519 241.951 88.1222H241.966ZM216.128 112.375C216.337 112.375 219.79 112.309 219.899 112.304C219.453 111.128 219.036 109.98 218.576 108.842C218.49 108.633 218.23 108.32 218.106 108.348C217.86 108.4 217.546 108.6 217.456 108.823C216.991 109.956 216.588 111.114 216.123 112.375H216.128ZM223.011 112.371C223.215 112.371 226.682 112.304 226.791 112.304C226.346 111.133 225.928 109.989 225.459 108.865C225.364 108.642 225.093 108.41 224.866 108.367C224.728 108.339 224.434 108.623 224.353 108.827C223.898 109.966 223.48 111.118 223.016 112.375L223.011 112.371ZM229.068 112.413L229.457 112.456C229.505 111.944 229.481 111.412 229.618 110.929C229.732 110.535 230.05 110.203 230.273 109.842C230.491 110.189 230.809 110.511 230.909 110.891C231.037 111.384 230.994 111.925 231.027 112.442L231.478 112.428C231.478 111.531 231.805 110.393 231.378 109.804C231.008 109.302 229.78 109.434 228.864 109.273C228.864 110.364 228.86 111.237 228.874 112.114C228.874 112.214 229.002 112.314 229.068 112.413ZM220.535 112.442C221.408 111.19 221.265 108.566 220.535 108.045V112.442ZM227.455 109.349V112.764C228.276 111.493 228.191 109.857 227.455 109.349Z" fill="#EAE9E9"/>
<path d="M206.5 105V115L214.5 118H231L234.5 114L231 106.5L220 105H206.5Z" fill="#EAE9E9"/>
<path d="M235.249 87.3113C233.746 87.8947 232.209 88.4023 230.753 89.0853C228.016 90.3661 225.355 91.8081 222.599 93.0461C221.498 93.5394 220.236 93.8572 219.032 93.9236C215.555 94.1134 212.073 94.1324 208.591 94.232C206.627 94.2841 205.095 93.7956 204.431 91.6421C203.53 88.7154 202.491 85.8266 201.476 82.9331C200.319 79.627 199.133 76.335 197.947 73.0431C197.653 72.2272 197.321 71.4208 197.008 70.6144C197.335 70.401 197.643 70.1496 197.994 69.9836C198.825 69.5899 199.37 69.0633 198.972 67.9629C199.612 67.849 200.157 67.7542 200.708 67.6593C201.177 67.8727 201.694 68.0103 202.102 68.3091C202.728 68.774 203.25 69.1535 203.587 68.072C203.558 67.9866 203.587 67.9344 203.672 67.9107L203.891 67.6546C203.981 67.5644 204.071 67.4696 204.166 67.3794L204.147 67.3984L204.427 66.8577C205.636 66.241 206.561 65.4157 206.556 63.912C206.665 63.7412 206.779 63.5752 206.888 63.4044C207.04 63.2052 207.192 63.0107 207.348 62.8115L207.448 62.5791C207.505 62.4984 207.562 62.4226 207.624 62.3419C207.889 61.6162 208.169 60.8952 208.411 60.1647C208.61 59.5718 208.762 58.9598 208.938 58.3574C209.436 57.6507 209.972 56.9676 210.417 56.2276C210.787 55.6157 211.229 54.9659 211.319 54.2876C211.546 52.5705 212.505 52.0771 213.994 53.059C214.146 54.1216 214.293 55.1888 214.468 56.4269C214.725 56.2134 215.498 55.815 215.46 55.5351C215.336 54.6765 214.9 53.8654 214.587 53.0353C213.51 50.7632 213.534 50.6351 215.332 49.0651C215.379 49.2738 215.389 49.6532 215.474 49.6722C217.02 49.9853 218.486 50.9387 220.179 50.047C220.763 49.7386 221.773 49.5679 222.262 49.8714C223.666 50.7347 224.894 51.8874 226.213 52.8978C227.446 53.8417 228.732 54.7145 229.941 55.6916C230.677 56.2798 231.659 56.887 231.915 57.6839C232.74 60.2501 233.333 62.8922 233.883 65.5342C233.983 66.0086 233.594 66.7201 233.219 67.1233C232.275 68.1479 231.744 69.1487 232.441 70.5528C233.565 72.8154 234.044 75.1918 234.362 77.7438C234.761 80.9314 235.396 84.0763 235.264 87.3113H235.249Z" fill="#D6D7D7"/>
<path d="M235.249 87.3113C235.382 84.0762 234.746 80.9313 234.348 77.7438C234.03 75.1965 233.546 72.8153 232.427 70.5527C231.73 69.1487 232.261 68.1478 233.205 67.1232C233.58 66.7153 233.969 66.0038 233.869 65.5342C233.314 62.8921 232.726 60.25 231.9 57.6838C231.644 56.8869 230.662 56.2845 229.927 55.6916C228.718 54.7192 227.432 53.8464 226.199 52.8977C224.88 51.8874 223.656 50.7347 222.248 49.8714C221.759 49.5726 220.749 49.7386 220.165 50.0469C218.472 50.9387 217.006 49.9852 215.46 49.6722C215.374 49.6532 215.36 49.2737 215.317 49.065C215.54 48.8705 215.74 48.5812 215.996 48.5053C216.736 48.2918 216.968 47.8744 216.978 47.106C216.982 46.6886 217.452 46.2806 217.708 45.8727C218.05 46.0482 218.396 46.219 218.737 46.3897C218.927 46.6221 219.098 46.8736 219.311 47.0823C219.729 47.4855 220.217 48.2159 220.592 48.1638C221.095 48.0974 221.55 47.4522 221.958 46.9921C222.418 46.4751 222.798 45.8917 223.215 45.3367C225.302 46.1952 227.503 46.0956 229.695 46.1858C230.914 46.2332 231.625 45.8347 231.972 44.7058C232.114 44.2457 232.223 43.7713 232.417 43.335C232.74 42.6092 232.313 42.3815 231.753 42.2108C229.666 41.5846 227.584 40.9585 225.497 40.3276C225.383 39.5118 225.269 38.6911 225.16 37.8753C225.421 37.5337 225.677 37.1922 225.938 36.8459C226.834 37.3393 227.75 37.7994 228.623 38.3306C230.449 39.4359 232.237 40.5933 234.068 41.689C235.173 42.3483 236.464 42.7705 237.441 43.5721C239.234 45.0473 241.131 46.3897 241.596 49.0745C241.956 51.1474 243.242 51.783 244.926 51.4178C245.775 51.2328 246.581 50.858 247.407 50.5592C248.569 50.137 248.977 49.3591 248.469 48.197C248.094 47.3337 248.379 46.9352 249.299 46.9447C249.617 47.3147 249.935 47.6847 250.461 48.3013C250.812 47.3099 251.035 46.5795 251.334 45.8822C251.562 45.3509 251.889 44.8671 252.174 44.3643C252.648 44.6916 253.127 45.0236 253.602 45.3509C252.942 46.4988 252.231 47.623 251.657 48.8089C251.486 49.1646 251.552 49.7718 251.747 50.1465C252.482 51.5695 253.032 53.0115 252.781 54.6528C252.43 55.0465 252.098 55.4591 251.723 55.8339C250.433 57.1241 250.409 57.2569 251.609 58.6515C252.15 59.2824 252.354 59.8563 251.908 60.6769C250.514 63.2573 249.997 65.852 251.709 68.5747C252.074 69.1534 251.889 70.0736 251.956 70.8373C248.223 69.8697 245.742 71.805 243.417 74.3617C241.937 75.9934 241.454 77.6347 241.795 79.8593C242.104 81.8658 241.691 83.9766 241.662 86.04C241.653 86.7326 241.857 87.4251 241.966 88.1176C239.727 87.8473 237.488 87.5769 235.249 87.3065V87.3113Z" fill="#C3C3C2"/>
<path d="M253.587 45.3556C253.113 45.0283 252.634 44.6963 252.159 44.369C251.875 44.8718 251.547 45.3603 251.32 45.8869C251.021 46.5841 250.798 47.3194 250.447 48.306C249.92 47.6894 249.603 47.3194 249.285 46.9494C248.649 46.181 248.066 45.3651 247.364 44.6631C246.799 44.0986 246.567 43.6337 246.932 42.8226C247.112 42.4242 246.951 41.7269 246.695 41.3189C246.259 40.6217 245.547 40.0951 245.092 39.4073C244.646 38.7338 244.247 37.9748 244.048 37.1969C243.408 34.6544 242.886 32.0882 242.279 29.5363C242.208 29.2327 241.937 28.8959 241.662 28.7299C240.78 28.1891 239.85 27.7243 238.939 27.231C239.433 26.1257 240.315 25.585 241.439 25.1439C244.485 23.9533 247.046 22.127 248.763 19.2193C249.143 18.579 250.001 18.2185 250.641 17.7251C250.471 18.5552 250.295 19.3853 250.124 20.2107L250.632 20.334L251.704 16.397C252.487 15.3914 253.284 14.3953 254.052 13.3849C254.574 12.6971 255.058 11.9856 255.798 10.9563C255.01 11.1413 254.654 11.2266 253.91 11.4022C254.55 10.3586 255.143 9.64709 255.451 8.83122C256.144 6.99077 256.742 5.11237 257.282 3.21975C257.557 2.25683 257.908 1.71134 259.066 1.74454C259.811 1.76826 260.574 1.35084 261.319 1.10418C262.116 0.848034 262.666 1.02354 263.027 1.83941C263.714 3.4 264.137 4.92738 263.686 6.69193C263.368 7.9442 263.435 9.30556 263.397 10.6242C263.344 12.4125 263.278 14.1533 261.974 15.6191C261.03 16.6863 261.623 17.7726 262.287 18.7497C263.491 20.5238 263.221 20.5712 262.064 22.3025C261.409 23.2797 261.77 24.9494 261.732 26.3107C261.722 26.638 261.945 26.9701 262.059 27.3021C260.887 27.7385 259.744 28.4121 258.544 28.5496C257.368 28.6825 256.462 28.9813 255.632 29.8304C254.811 30.6652 253.943 31.5 252.548 31.3388C252.311 31.3103 251.718 32.0313 251.751 32.3634C251.927 34.1801 252.245 35.9826 252.52 37.7993C254.484 38.1361 256.338 38.6958 258.065 37.7187C259.09 37.14 259.611 37.5764 260.176 38.2594C261.309 39.6255 260.28 40.5932 259.535 41.6083C258.539 42.9602 258.582 43.0977 260.147 43.61C261.253 43.9705 261.575 44.8338 260.939 45.7398C260.01 47.0537 258.316 47.604 256.832 46.9731C255.722 46.4988 254.669 45.9011 253.587 45.3603V45.3556Z" fill="#EEEDEE"/>
<path d="M253.587 45.3556C254.664 45.8963 255.722 46.4988 256.832 46.9684C258.316 47.5992 260.01 47.0537 260.94 45.7351C261.575 44.8338 261.257 43.9705 260.147 43.6053C258.582 43.093 258.539 42.9554 259.536 41.6035C260.28 40.5884 261.314 39.6255 260.176 38.2547C259.611 37.5764 259.09 37.1352 258.065 37.7139C256.334 38.6911 254.484 38.1313 252.52 37.7946C252.25 35.9778 251.927 34.1753 251.752 32.3586C251.718 32.0266 252.311 31.3056 252.548 31.334C253.943 31.4953 254.811 30.6605 255.632 29.8256C256.462 28.9765 257.363 28.6824 258.544 28.5449C259.749 28.4073 260.892 27.7338 262.059 27.2974C263.311 27.5677 264.317 28.0611 264.891 29.375C265.346 30.4091 266.523 30.2146 267.225 29.8256C269.492 28.5639 271.034 30.5371 272.912 30.9403C273.154 30.9925 273.325 31.5759 273.458 31.9412C274.33 34.4078 274.928 36.8886 274.311 39.5449C274.117 40.3845 274.264 41.3047 274.254 42.1917C273.007 43.2068 271.849 44.3832 270.474 45.1801C269.279 45.8726 268.657 46.7454 268.434 48.0214C267.908 48.3724 267.376 48.7234 266.85 49.0744C265.987 49.416 265.28 49.5488 264.526 48.6286C264.113 48.1257 263.107 47.8459 262.42 47.9218C261.869 47.9834 261.39 48.7282 260.769 49.2689C261.504 49.5962 261.903 49.7622 262.296 49.9472C263.71 50.616 263.691 50.7821 262.533 51.7924C262.073 52.1909 261.737 52.8217 261.547 53.4147C261.219 54.425 260.731 54.999 259.573 54.9326C257.306 54.7997 255.034 54.7428 252.767 54.6527C253.018 53.0115 252.468 51.5695 251.733 50.1464C251.538 49.7765 251.472 49.1646 251.642 48.8088C252.216 47.6182 252.928 46.4988 253.587 45.3508V45.3556Z" fill="#DCDDDC"/>
<path d="M252.767 54.6526C255.034 54.7428 257.306 54.7997 259.574 54.9325C260.731 54.9989 261.22 54.4249 261.547 53.4146C261.737 52.8217 262.073 52.1908 262.533 51.7923C263.691 50.782 263.71 50.616 262.296 49.9472C261.907 49.7622 261.509 49.5961 260.769 49.2688C261.39 48.7328 261.869 47.9834 262.42 47.9217C263.107 47.8458 264.113 48.1304 264.526 48.6285C265.28 49.5487 265.982 49.4159 266.85 49.0744C266.945 49.9092 267.04 50.7488 267.149 51.7449C266.025 52.2572 264.806 52.9118 265.251 54.6479C264.825 54.7333 264.398 54.904 263.976 54.8898C262.624 54.8376 262.505 55.4543 262.728 56.6306C262.918 57.6315 262.851 58.7272 262.685 59.7423C262.372 61.6966 262.045 63.6224 262.856 65.534C261.836 66.2313 262.41 66.9618 262.799 67.6971C263.591 69.2007 264.663 70.5194 264.004 72.5353C263.444 74.243 264.07 74.8027 265.968 75.13C266.693 75.2533 267.438 75.2913 268.173 75.3624C268.529 75.8036 268.88 76.2447 269.236 76.6858C267.87 79.0338 265.527 79.5082 263.131 79.8829C261.879 79.8924 260.622 79.9019 259.37 79.9161C258.985 79.5651 258.62 79.1809 258.207 78.8678C257.116 78.0377 256.002 77.2408 254.892 76.4297C254.849 76.3443 254.787 76.2874 254.702 76.2589C254.593 75.3909 254.436 74.5276 254.394 73.6548C254.313 72.0515 253.355 71.2594 251.951 70.8325C251.884 70.0688 252.065 69.1438 251.704 68.5651C249.987 65.8471 250.509 63.2477 251.903 60.6673C252.345 59.8467 252.141 59.2727 251.605 58.6418C250.405 57.2425 250.428 57.1145 251.718 55.8243C252.093 55.4495 252.425 55.0368 252.776 54.6431L252.767 54.6526Z" fill="#EEEDEE"/>
<path d="M238.94 27.231C239.851 27.7243 240.78 28.1939 241.663 28.7299C241.938 28.8959 242.203 29.2327 242.279 29.5363C242.886 32.0835 243.408 34.6544 244.048 37.1969C244.243 37.9748 244.646 38.7338 245.092 39.4073C245.547 40.0951 246.254 40.6216 246.695 41.3189C246.951 41.7269 247.113 42.4241 246.932 42.8226C246.567 43.6385 246.804 44.0986 247.364 44.663C248.061 45.3651 248.65 46.1809 249.285 46.9494C248.365 46.9399 248.08 47.3383 248.455 48.2016C248.963 49.3685 248.55 50.1464 247.393 50.5639C246.572 50.8627 245.761 51.2374 244.912 51.4224C243.228 51.7877 241.942 51.1521 241.582 49.0792C241.117 46.3991 239.22 45.0568 237.427 43.5768C236.449 42.7704 235.164 42.353 234.054 41.6937C232.223 40.6027 230.435 39.4405 228.609 38.3353C227.736 37.8088 226.82 37.3439 225.924 36.8506C226.076 36.1391 226.227 35.4276 226.384 34.7161C226.749 33.5207 227.309 32.5009 228.955 32.0028C228.438 32.8946 228.001 33.478 227.755 34.1374C227.612 34.5121 227.65 35.1003 227.869 35.4134C228.016 35.6268 228.609 35.5889 229.002 35.5699C229.344 35.5509 229.7 35.2663 230.008 35.3232C231.991 35.6695 232.664 34.3793 233.11 32.8614C233.746 30.6747 235.174 29.2849 237.237 28.4168C237.863 28.1512 238.38 27.6341 238.945 27.231H238.94Z" fill="#AEAEAE"/>
<path d="M262.856 65.5389C262.045 63.6273 262.372 61.7015 262.685 59.7472C262.847 58.7274 262.913 57.6364 262.728 56.6355C262.505 55.4592 262.624 54.8425 263.976 54.8947C264.398 54.9137 264.825 54.7382 265.252 54.6528C266.167 55.6774 267.211 55.7058 268.354 54.8757C269.336 54.1595 270.341 53.4195 271.442 52.9309C273.159 52.172 273.301 52.0961 273.164 50.2129C273.875 49.7386 274.587 49.2595 275.303 48.7852C275.161 50.175 274.995 51.5648 274.881 52.9594C274.667 55.5351 274.454 58.1107 274.288 60.6912C274.207 61.9671 274.231 63.2479 274.207 64.5286C272.775 64.2487 271.347 63.9689 269.706 63.6511C270.047 64.9175 270.284 65.9279 270.593 66.9193C270.92 67.9676 271.001 68.8925 270.261 69.8839C269.122 71.4066 269.744 72.8438 271.57 73.2185C271.764 75.0305 270.74 76.0266 269.241 76.7002C268.885 76.2591 268.534 75.8179 268.178 75.3768C268.254 75.0495 268.321 74.7127 268.411 74.3902C268.572 73.821 269.018 73.1806 268.88 72.7062C267.989 69.6515 265.75 67.5928 263.368 65.6765C263.245 65.5769 263.036 65.5864 262.866 65.5437L262.856 65.5389Z" fill="#DCDDDC"/>
<path d="M130.96 114.529C131.33 116.73 132.379 117.726 134.679 118.134C136.947 118.537 137.734 119.661 137.022 121.478C136.961 121.639 136.928 121.829 136.818 121.962C135.908 123.086 132.066 122.858 131.278 121.672C131.06 121.34 130.69 121.103 130.391 120.823C130.187 121.165 130.007 121.525 129.774 121.843C129.533 122.175 129.3 122.588 128.959 122.768C127.099 123.736 125.14 123.584 123.38 122.692C121.99 121.99 120.558 121.843 119.111 121.563C118.774 121.497 118.357 121.293 118.2 121.023C118.11 120.866 118.423 120.42 118.623 120.159C118.774 119.96 119.026 119.822 119.254 119.685C120.738 118.803 122.218 117.901 123.731 117.071C124.087 116.877 124.637 116.744 124.988 116.872C126.16 117.304 126.947 116.872 127.858 116.146C128.726 115.454 129.85 115.089 130.97 114.524L130.96 114.529Z" fill="#EAE9E9"/>
<path d="M106.489 111.066C105.184 111.74 103.771 112.219 102.514 112.968C101.84 113.371 101.394 114.164 100.825 114.809C100.109 114.467 99.2978 114.078 98.4914 113.689C98.4819 113.827 98.4772 113.969 98.4677 114.107C97.6044 114.126 96.7363 114.154 95.873 114.168C94.9576 114.178 94.0373 114.168 93.1171 114.168C92.7566 112.959 93.193 112.537 94.4121 112.636C95.3323 112.712 96.3331 112.636 97.1917 112.337C98.4629 111.891 99.6251 111.142 100.873 110.616C101.157 110.497 101.636 110.715 101.978 110.881C102.296 111.038 102.547 111.327 102.86 111.583C103.045 111.332 103.197 111.218 103.178 111.133" fill="#ECEBEB"/>
<path d="M254.897 76.4345C256.002 77.2457 257.117 78.0426 258.212 78.8727C258.625 79.1857 258.99 79.5699 259.374 79.921C259.223 80.4949 259.099 81.0783 258.919 81.6428C258.487 82.971 257.534 84.19 258.084 85.7222C256.965 85.874 255.214 85.0059 254.958 83.9766C254.394 81.714 253.436 79.7549 251.595 78.2275C251.206 77.905 250.912 76.8614 251.135 76.5389C251.572 75.8985 252.406 75.6898 253.208 76.2638C253.564 76.5152 253.967 76.7239 254.38 76.8472C254.498 76.8852 254.726 76.5816 254.906 76.4345H254.897Z" fill="#EAE9E9"/>
<path d="M271.565 73.209C269.739 72.8295 269.122 71.3922 270.256 69.8743C270.996 68.883 270.915 67.9627 270.588 66.9097C270.279 65.9183 270.042 64.908 269.701 63.6415C271.337 63.9593 272.77 64.2392 274.202 64.519C274.492 65.9752 274.714 67.4457 275.089 68.8782C275.421 70.1637 275.322 70.4198 274.003 70.5764C273.827 70.5953 273.652 70.5859 273.476 70.5906C271.868 70.638 271.655 70.8515 271.612 72.4168C271.603 72.6824 271.584 72.9433 271.565 73.209V73.209Z" fill="#C3C3C2"/>
<path d="M275.303 48.785C274.591 49.2594 273.88 49.7385 273.168 50.2128C272.438 50.0041 271.389 50.0278 271.038 49.544C270.341 48.5811 269.53 48.1447 268.439 48.0308C268.662 46.7549 269.279 45.8821 270.479 45.1895C271.854 44.3926 273.007 43.2115 274.259 42.2012C274.188 43.1736 274.069 44.1412 274.069 45.1136C274.069 45.569 274.283 46.0339 274.439 46.4797C274.715 47.2577 275.018 48.0214 275.307 48.7898L275.303 48.785Z" fill="#C3C3C2"/>
<path d="M197.283 64.0826C197.259 63.9688 197.349 63.8312 197.378 63.7031C197.615 62.6501 197.691 61.6303 197.662 60.5108C197.62 58.8269 198.454 57.105 199.014 55.4306C199.09 55.1982 199.707 55.0511 200.081 55.0274C201.319 54.9563 202.562 54.8946 203.8 54.9515C204.725 54.9942 205.641 55.2172 206.713 55.3832C206.827 55.8528 206.964 56.4362 207.106 57.0149C207.073 57.0481 207.04 57.0813 207.002 57.1145C206.836 56.9722 208.491 59.0641 208.325 58.917C207.96 63.9119 205.693 66.0843 203.886 67.6544C201.879 69.3953 197.786 60.7622 199.327 63.0154C200.352 64.5095 201.386 65.999 202.477 67.441C202.714 67.754 203.207 67.8679 203.582 68.0718C203.24 69.1533 202.723 68.7739 202.097 68.309C201.694 68.0102 201.172 67.8726 200.703 67.6592C200.679 67.2702 200.655 66.886 200.617 66.2124C199.726 66.6346 199 66.9761 198.018 67.441" fill="#F7F6F7"/>
<path d="M163.405 102.528C163.282 103.776 163.329 101.015 163.51 102.296C163.476 102.376 163.448 102.457 163.405 102.528C163.396 102.542 163.296 102.528 163.287 102.504C162.865 101.333 160.991 100.721 161.925 99.018C162.333 98.1309 162.746 97.2392 163.125 96.4186C162.884 95.911 162.661 95.4462 162.338 94.7726C163.277 95.0003 163.842 95.1426 164.411 95.2801C164.34 94.8532 164.264 94.4263 164.174 93.8998C165.483 94.0374 166.759 92.8895 168.187 93.7006C168.495 93.8761 168.851 93.9899 169.131 94.2034C170.226 95.0382 171.498 95.5648 172.66 94.1133C173.495 93.0745 173.846 94.2556 174.377 94.6493C173.884 95.3276 173.433 95.949 172.982 96.5704C173.082 96.6605 173.182 96.7506 173.281 96.8407C173.656 96.7648 174.035 96.6937 174.41 96.6178C174.268 97.0732 174.154 97.5333 173.983 97.9792C173.305 99.7295 172.608 101.47 171.806 103.491C171.749 103.491 171.332 103.491 170.914 103.491C171.161 103.078 171.379 102.651 171.654 102.258C172.755 100.659 167.784 109.662 166.712 108.04" fill="#EAE9E9"/>
<path d="M258.079 85.7221C257.529 84.19 258.482 82.9709 258.914 81.6428C259.099 81.0783 259.222 80.4949 259.369 79.9209C260.622 79.9114 261.879 79.9019 263.131 79.8877C262.685 80.9075 262.253 81.9416 261.784 82.952C261.509 83.5401 261.143 84.0856 260.864 84.6691C260.346 85.7506 259.312 86.1538 258.079 85.7221V85.7221Z" fill="#D6D7D7"/>
<path d="M161.925 99.0178C160.991 100.721 162.86 101.333 163.287 102.504C163.296 102.523 163.396 102.542 163.405 102.528C163.448 102.457 163.476 102.371 163.509 102.291C164.207 103.235 164.904 104.179 165.601 105.118C165.44 105.118 165.274 105.118 165.113 105.118C164.672 105.028 164.226 104.938 163.785 104.847C163.519 104.762 163.253 104.677 162.983 104.591C161.683 104.198 160.355 103.866 159.098 103.368C158.828 103.263 158.543 102.333 158.685 102.177C159.7 101.067 160.829 100.057 161.925 99.0178V99.0178Z" fill="#EAE9E9"/>
<path d="M150.479 116.701C149.331 116.236 148.383 115.786 147.387 115.468C145.75 114.937 144.939 113.253 145.774 111.948C146.296 111.128 147.012 110.914 147.761 111.578C148.62 112.337 149.464 113.134 150.18 114.017C150.892 114.894 150.987 115.923 150.475 116.701H150.479Z" fill="#EAE9E9"/>
<path d="M155.076 112.722C153.203 114.377 153.041 114.377 150.935 112.584C150.418 112.143 149.508 112.005 149.844 110.905C150.176 109.814 150.921 109.344 151.922 109.15C152.192 109.098 152.638 109.14 152.766 109.316C153.563 110.407 154.289 111.545 155.076 112.722V112.722Z" fill="#EAE9E9"/>
<path d="M155.332 108.756C155.806 108.695 156.124 108.652 156.48 108.604C156.333 108.196 156.214 107.85 156.048 107.39C157.291 107.352 158.244 107.917 158.491 108.861C158.695 109.634 158.396 110.692 157.979 111.436C157.59 112.129 156.855 111.759 156.499 111.166C156.077 110.464 155.778 109.691 155.332 108.756Z" fill="#ECEBEB"/>
<path d="M165.113 105.123C165.274 105.123 165.44 105.123 165.602 105.123C166.252 105.939 166.901 106.754 167.67 107.713C168.424 106.802 169.017 106.081 169.615 105.365C169.321 107.39 168.628 108.035 166.712 108.04C166.603 107.907 166.517 107.713 166.38 107.651C164.748 106.93 164.681 106.802 165.118 105.118L165.113 105.123Z" fill="#FDFAF2"/>
<path d="M214.564 53.0446C214.877 53.8747 215.313 54.6858 215.436 55.5443C215.474 55.8242 214.701 56.2179 214.445 56.4361C214.27 55.1981 214.122 54.1355 213.971 53.0683C214.17 53.0588 214.364 53.0493 214.564 53.0446Z" fill="#FAFAFA"/>
<path d="M208.919 58.362C208.743 58.9644 208.591 59.5716 208.392 60.1693C208.15 60.8998 207.87 61.6208 207.605 62.3465C208.35 60.4918 208.037 58.7652 207.002 57.1145C207.036 57.0813 207.074 57.0481 207.107 57.0149C207.714 57.4608 208.316 57.9114 208.919 58.3573V58.362Z" fill="#F7F6F7"/>
<path d="M251.704 16.4016L250.632 20.3387L250.125 20.2153C250.295 19.3852 250.471 18.5551 250.642 17.7298C250.993 17.2886 251.348 16.8475 251.699 16.4064L251.704 16.4016Z" fill="#FAFAFA"/>
<path d="M162.983 104.592C163.249 104.677 163.519 104.762 163.785 104.848C163.595 104.99 163.405 105.132 163.215 105.275L162.988 104.587L162.983 104.592Z" fill="#FDFAF2"/>
<path d="M175.202 95.2991C175.027 95.6501 174.851 96.0011 174.676 96.3521C174.851 96.0011 175.027 95.6501 175.202 95.2991Z" fill="#FDFAF2"/>
<path d="M254.702 76.2637C254.783 76.2923 254.85 76.3495 254.893 76.4305C254.821 76.3828 254.759 76.3304 254.702 76.2637Z" fill="#AEAEAE"/>
<path d="M174.671 96.3569L174.41 96.6226C174.496 96.5324 174.586 96.4471 174.671 96.3569Z" fill="#FDFAF2"/>
<path d="M169.605 105.374C169.871 105.004 170.141 104.634 170.407 104.264C170.141 104.634 169.871 105.004 169.605 105.374Z" fill="#FDFAF2"/>
<path d="M170.663 103.79C170.757 103.69 170.852 103.595 170.942 103.496C170.848 103.595 170.753 103.69 170.663 103.79Z" fill="#FDFAF2"/>
<path d="M204.412 66.8623C205.124 65.8804 205.83 64.8938 206.542 63.9119C206.551 65.4155 205.622 66.2409 204.412 66.8623Z" fill="#F7F6F7"/>
<path d="M206.874 63.409C207.025 63.2097 207.177 63.0153 207.334 62.816C207.182 63.0153 207.03 63.2097 206.874 63.409Z" fill="#F7F6F7"/>
<path d="M204.137 67.3983C204.232 67.218 204.326 67.0378 204.417 66.8575C204.322 67.0378 204.227 67.218 204.137 67.3983Z" fill="#F7F6F7"/>
<path d="M207.434 62.5836C207.491 62.503 207.547 62.4271 207.609 62.3464C207.552 62.4271 207.495 62.503 207.434 62.5836Z" fill="#F7F6F7"/>
<path d="M203.881 67.6592C203.971 67.569 204.062 67.4742 204.156 67.384C204.066 67.4742 203.976 67.569 203.881 67.6592Z" fill="#F7F6F7"/>
<path d="M203.667 67.9104C203.739 67.8251 203.81 67.7397 203.886 67.6543C203.815 67.7397 203.743 67.8251 203.667 67.9104Z" fill="#F7F6F7"/>
<path d="M223.206 45.346C223.685 44.5301 224.225 43.7474 224.619 42.8936C224.989 42.0778 225.203 41.1907 225.487 40.3369C227.574 40.963 229.661 41.5892 231.744 42.2201C232.303 42.3908 232.73 42.6185 232.408 43.3442C232.213 43.7806 232.104 44.255 231.962 44.7151C231.616 45.844 230.909 46.2472 229.685 46.195C227.489 46.1049 225.293 46.2045 223.206 45.346V45.346Z" fill="#C3C3C2"/>
<path d="M268.434 48.0309C269.53 48.1447 270.337 48.5811 271.034 49.544C271.385 50.0279 272.433 50.0041 273.164 50.2129C273.296 52.1007 273.154 52.1766 271.437 52.9356C270.337 53.4242 269.331 54.1641 268.349 54.8804C267.206 55.7105 266.162 55.682 265.247 54.6574C264.801 52.9261 266.025 52.2668 267.144 51.7545C267.03 50.7584 266.94 49.9188 266.845 49.0839C267.372 48.7329 267.903 48.3819 268.43 48.0309H268.434ZM268.273 52.8075L268.942 53.1822C269.222 52.7696 269.587 52.3853 269.725 51.93C269.767 51.7972 269.174 51.4651 268.871 51.2232C268.672 51.7497 268.468 52.281 268.268 52.8075H268.273Z" fill="white"/>
<path d="M262.856 65.5389C263.027 65.5816 263.235 65.5721 263.359 65.6718C265.74 67.5881 267.979 69.642 268.871 72.7015C269.008 73.1759 268.562 73.8162 268.401 74.3854C268.311 74.7127 268.244 75.0448 268.169 75.3721C267.433 75.2962 266.689 75.263 265.963 75.1396C264.066 74.8123 263.444 74.2479 263.999 72.545C264.658 70.529 263.586 69.2151 262.794 67.7067C262.405 66.9667 261.831 66.2362 262.851 65.5437L262.856 65.5389Z" fill="#C3C3C2"/>
<path d="M268.273 52.8075C268.473 52.2809 268.677 51.7497 268.876 51.2231C269.179 51.4651 269.768 51.7924 269.73 51.9299C269.587 52.3853 269.222 52.7695 268.947 53.1822L268.278 52.8075H268.273Z" fill="#C3C3C2"/>
<path d="M231.558 33.9791C231.558 33.9791 231.558 33.9788 231.558 33.9787C231.049 33.1102 230.521 32.2521 230.064 31.3534C229.218 29.6883 228.514 27.9731 228.173 26.1249C227.851 24.3788 227.923 22.6814 228.866 21.1177C229.977 19.2777 231.608 18.2103 233.756 18.0246C237.144 17.7312 240.092 20.0976 240.552 23.4458C240.709 24.5968 240.554 25.73 240.284 26.8481C239.719 29.1892 238.65 31.3109 237.419 33.3607C237.397 33.3979 237.375 33.435 237.352 33.472C237.152 33.8022 236.986 34.1612 236.774 34.4836V34.4836C236.073 35.5469 235.337 36.5848 234.528 37.5699C234.324 37.8181 234.286 37.8194 234.086 37.5713C233.507 36.8528 232.953 36.1166 232.423 35.3611C232.159 34.9834 231.893 34.6077 231.663 34.2067C231.621 34.134 231.553 34.0731 231.557 33.9793C231.557 33.9792 231.557 33.9791 231.558 33.9791V33.9791Z" fill="#45B3BE"/>
<path d="M234.288 26.9571C232.815 26.9544 231.631 25.7547 231.636 24.2712C231.642 22.7986 232.843 21.612 234.324 21.6175C235.785 21.6222 236.976 22.8185 236.976 24.2801C236.976 25.7752 235.786 26.9598 234.288 26.9571V26.9571Z" fill="#FEFEFE"/>
<path d="M251.558 16.9791C251.558 16.9791 251.558 16.9788 251.558 16.9787C251.049 16.1102 250.521 15.2521 250.064 14.3534C249.218 12.6883 248.514 10.9731 248.173 9.12486C247.851 7.3788 247.923 5.68141 248.866 4.1177C249.977 2.27772 251.608 1.21034 253.756 1.02456C257.144 0.731154 260.092 3.09763 260.552 6.44579C260.709 7.5968 260.554 8.72999 260.284 9.8481C259.719 12.1892 258.65 14.3109 257.419 16.3607C257.397 16.3979 257.375 16.435 257.352 16.472C257.152 16.8022 256.986 17.1612 256.774 17.4836V17.4836C256.073 18.5469 255.337 19.5848 254.528 20.5699C254.324 20.8181 254.286 20.8194 254.086 20.5713C253.507 19.8528 252.953 19.1166 252.423 18.3611C252.159 17.9834 251.893 17.6077 251.663 17.2067C251.621 17.134 251.553 17.0731 251.557 16.9793C251.557 16.9792 251.557 16.9791 251.558 16.9791V16.9791Z" fill="#45B3BE"/>
<path d="M254.288 9.95709C252.815 9.95435 251.631 8.75466 251.636 7.27116C251.642 5.79863 252.843 4.61197 254.324 4.61745C255.785 4.62225 256.976 5.81851 256.976 7.28007C256.976 8.77523 255.786 9.95984 254.288 9.95709V9.95709Z" fill="#FEFEFE"/>
<path d="M218.558 46.9791C218.558 46.9791 218.558 46.9788 218.558 46.9787C218.049 46.1102 217.521 45.2521 217.064 44.3534C216.218 42.6883 215.514 40.9731 215.173 39.1249C214.851 37.3788 214.923 35.6814 215.866 34.1177C216.977 32.2777 218.608 31.2103 220.756 31.0246C224.144 30.7312 227.092 33.0976 227.552 36.4458C227.709 37.5968 227.554 38.73 227.284 39.8481C226.719 42.1892 225.65 44.3109 224.419 46.3607C224.397 46.3979 224.375 46.435 224.352 46.472C224.152 46.8022 223.986 47.1612 223.774 47.4836V47.4836C223.073 48.5469 222.337 49.5848 221.528 50.5699C221.324 50.8181 221.286 50.8194 221.086 50.5713C220.507 49.8528 219.953 49.1166 219.423 48.3611C219.159 47.9834 218.893 47.6077 218.663 47.2067C218.621 47.134 218.553 47.0731 218.557 46.9793C218.557 46.9792 218.557 46.9791 218.558 46.9791V46.9791Z" fill="#45B3BE"/>
<path d="M221.288 39.9571C219.815 39.9544 218.631 38.7547 218.636 37.2712C218.642 35.7986 219.843 34.612 221.324 34.6175C222.785 34.6222 223.976 35.8185 223.976 37.2801C223.976 38.7752 222.786 39.9598 221.288 39.9571V39.9571Z" fill="#FEFEFE"/>
<path d="M200.558 68.9791C200.558 68.9791 200.558 68.9788 200.558 68.9787C200.049 68.1102 199.521 67.2521 199.064 66.3534C198.218 64.6883 197.514 62.9731 197.173 61.1249C196.851 59.3788 196.923 57.6814 197.866 56.1177C198.977 54.2777 200.608 53.2103 202.756 53.0246C206.144 52.7312 209.092 55.0976 209.552 58.4458C209.709 59.5968 209.554 60.73 209.284 61.8481C208.719 64.1892 207.65 66.3109 206.419 68.3607C206.397 68.3979 206.375 68.435 206.352 68.472C206.152 68.8022 205.986 69.1612 205.774 69.4836V69.4836C205.073 70.5469 204.337 71.5848 203.528 72.5699C203.324 72.8181 203.286 72.8194 203.086 72.5713C202.507 71.8528 201.953 71.1166 201.423 70.3611C201.159 69.9834 200.893 69.6077 200.663 69.2067C200.621 69.134 200.553 69.0731 200.557 68.9793C200.557 68.9792 200.557 68.9791 200.558 68.9791V68.9791Z" fill="#45B3BE"/>
<path d="M203.288 61.9571C201.815 61.9544 200.631 60.7547 200.636 59.2712C200.642 57.7986 201.843 56.612 203.324 56.6175C204.785 56.6222 205.976 57.8185 205.976 59.2801C205.976 60.7752 204.786 61.9598 203.288 61.9571V61.9571Z" fill="#FEFEFE"/>
<path d="M157.558 114.979C157.558 114.979 157.558 114.979 157.558 114.979C157.049 114.11 156.521 113.252 156.064 112.353C155.218 110.688 154.514 108.973 154.173 107.125C153.851 105.379 153.923 103.681 154.866 102.118C155.977 100.278 157.608 99.2103 159.756 99.0246C163.144 98.7312 166.092 101.098 166.552 104.446C166.709 105.597 166.554 106.73 166.284 107.848C165.719 110.189 164.65 112.311 163.419 114.361C163.397 114.398 163.375 114.435 163.352 114.472C163.152 114.802 162.986 115.161 162.774 115.484V115.484C162.073 116.547 161.337 117.585 160.528 118.57C160.324 118.818 160.286 118.819 160.086 118.571C159.507 117.853 158.953 117.117 158.423 116.361C158.159 115.983 157.893 115.608 157.663 115.207C157.621 115.134 157.553 115.073 157.557 114.979C157.557 114.979 157.557 114.979 157.558 114.979V114.979Z" fill="#45B3BE"/>
<path d="M160.288 107.957C158.815 107.954 157.631 106.755 157.636 105.271C157.642 103.799 158.843 102.612 160.324 102.617C161.785 102.622 162.976 103.819 162.976 105.28C162.976 106.775 161.786 107.96 160.288 107.957V107.957Z" fill="#FEFEFE"/>
<path d="M236.558 112.979C236.558 112.979 236.558 112.979 236.558 112.979C236.049 112.11 235.521 111.252 235.064 110.353C234.218 108.688 233.514 106.973 233.173 105.125C232.851 103.379 232.923 101.681 233.866 100.118C234.977 98.2777 236.608 97.2103 238.756 97.0246C242.144 96.7312 245.092 99.0976 245.552 102.446C245.709 103.597 245.554 104.73 245.284 105.848C244.719 108.189 243.65 110.311 242.419 112.361C242.397 112.398 242.375 112.435 242.352 112.472C242.152 112.802 241.986 113.161 241.774 113.484V113.484C241.073 114.547 240.337 115.585 239.528 116.57C239.324 116.818 239.286 116.819 239.086 116.571C238.507 115.853 237.953 115.117 237.423 114.361C237.159 113.983 236.893 113.608 236.663 113.207C236.621 113.134 236.553 113.073 236.557 112.979C236.557 112.979 236.557 112.979 236.558 112.979V112.979Z" fill="#45B3BE"/>
<path d="M239.288 105.957C237.815 105.954 236.631 104.755 236.636 103.271C236.642 101.799 237.843 100.612 239.324 100.617C240.785 100.622 241.976 101.819 241.976 103.28C241.976 104.775 240.786 105.96 239.288 105.957V105.957Z" fill="#FEFEFE"/>
<path d="M266.558 57.9791C266.558 57.9791 266.558 57.9788 266.558 57.9787C266.049 57.1102 265.521 56.2521 265.064 55.3534C264.218 53.6883 263.514 51.9731 263.173 50.1249C262.851 48.3788 262.923 46.6814 263.866 45.1177C264.977 43.2777 266.608 42.2103 268.756 42.0246C272.144 41.7312 275.092 44.0976 275.552 47.4458C275.709 48.5968 275.554 49.73 275.284 50.8481C274.719 53.1892 273.65 55.3109 272.419 57.3607C272.397 57.3979 272.375 57.435 272.352 57.472C272.152 57.8022 271.986 58.1612 271.774 58.4836V58.4836C271.073 59.5469 270.337 60.5848 269.528 61.5699C269.324 61.8181 269.286 61.8194 269.086 61.5713C268.507 60.8528 267.953 60.1166 267.423 59.3611C267.159 58.9834 266.893 58.6077 266.663 58.2067C266.621 58.134 266.553 58.0731 266.557 57.9793C266.557 57.9792 266.557 57.9791 266.558 57.9791V57.9791Z" fill="#45B3BE"/>
<path d="M269.288 50.9571C267.815 50.9544 266.631 49.7547 266.636 48.2712C266.642 46.7986 267.843 45.612 269.324 45.6175C270.785 45.6222 271.976 46.8185 271.976 48.2801C271.976 49.7752 270.786 50.9598 269.288 50.9571V50.9571Z" fill="#FEFEFE"/>
</svg>
