<svg width="611" height="408" viewBox="0 0 611 408" fill="none" xmlns="http://www.w3.org/2000/svg">
<path d="M535 395.108C535 395.228 424.182 395.331 287.513 395.331C150.844 395.331 40 395.228 40 395.108C40 394.988 150.793 394.885 287.513 394.885C424.233 394.885 535 394.988 535 395.108Z" fill="#263238"/>
<path d="M103.849 390.422C50.059 373.693 -22.7564 290.023 6.83748 208.443C23.6742 162.031 76.5318 158.574 118.074 150.867C175.811 140.152 201.792 106.077 240.037 64.1366C282.766 17.275 379.812 -37.4615 465.64 35.4764C488.754 55.1153 492.438 93.1054 522.261 119.764C552.259 146.581 591.375 146.704 608.976 199.792C622.692 241.159 563.645 327.219 523.632 352.864C449.63 400.298 225.152 428.138 103.849 390.422V390.422Z" fill="#F6F7FB"/>
<g clip-path="url(#clip0_766_682)">
<path d="M528.252 349.65C529.055 349.982 529.235 351.535 529.29 354.626C529.332 356.969 529.734 361.058 526.991 361.821C524.235 362.569 520.233 362.07 518.529 359.824C516.396 357.024 514.97 354.571 511.923 351.147C509.278 348.18 506.411 345.394 505.4 341.277C504.499 337.562 505.358 335.981 507.893 334.969C511.383 333.569 516.715 338.518 519.402 339.336C521.728 340.043 527.435 349.331 528.252 349.663V349.65Z" fill="#263238"/>
<path d="M528.321 346.794L528.238 350.592C528.238 350.592 524.221 353.531 518.654 350.634C518.501 350.259 517.781 345.186 517.781 345.186L528.321 346.794Z" fill="#F7D3C9"/>
<path d="M497.048 370.831C497.048 370.831 498.059 374.158 498.585 377.055C499.001 379.357 499.583 383.21 498.738 384.915C497.893 386.62 494.735 387.66 489.888 387.521C486.744 387.424 481.8 389.448 478.406 391.25C474.903 393.108 467.673 393.718 464.017 393.205C459.709 392.595 455.291 389.989 454.64 388.187C453.976 386.385 454.945 384.541 465.222 380.438C465.319 380.396 479.473 376.14 484.528 370.817L497.062 370.845L497.048 370.831Z" fill="#263238"/>
<path d="M497.145 366.728C497.145 366.728 497.062 369.542 497.048 371.15C497.021 372.758 495.068 375.115 490.165 374.824C486.716 374.616 484.32 373.645 484.528 370.79L484.625 366.686L497.159 366.714L497.145 366.728Z" fill="#F7D3C9"/>
<path d="M531.922 296.487C530.468 284.053 527.892 276.623 527.892 276.623C527.892 276.623 529.623 259.6 530.648 243.45C531.742 225.997 532.753 217.015 529.332 191.813C529.332 191.813 475.886 187.003 474.432 207.172C472.978 227.342 475.041 278.799 475.512 287.685C475.983 296.571 477.326 304.444 478.836 318.861C480.318 333.084 484.639 366.7 484.639 366.7C490.996 370.318 497.173 366.728 497.173 366.728C497.173 366.728 502.048 326.458 501.854 316.214C501.633 303.71 498.475 293.784 498.475 293.784C498.475 293.784 499.915 277.163 501.189 262.705C502.464 248.246 503.613 241.315 503.973 235.022L505.192 234.453C505.192 234.453 505.871 259.461 506.328 268.347C506.799 277.233 508.017 285.772 510.206 302.296C512.103 316.629 518.044 347.016 518.044 347.016C524.401 350.648 528.321 346.794 528.321 346.794C528.321 346.794 533.376 308.922 531.922 296.487Z" fill="#37474F"/>
<path d="M503.945 235.022C503.945 235.022 517.753 228.59 524.734 222.67C524.734 222.67 518.183 231.473 509.762 235.257C509.762 235.257 506.106 266.226 506.134 265.602L505.109 234.994H503.945V235.022Z" fill="#263238"/>
<path d="M494.375 119.936L496.466 138.415L513.889 137.528L511.95 115.972L494.375 119.936Z" fill="#F7D3C9"/>
<path d="M520.454 127.006C526.936 126.701 530.232 127.686 533.154 133.286C536.062 138.886 537.212 155.618 538.223 164.254C539.234 172.877 539.497 178.976 535.938 179.863C532.378 180.751 518.57 181.125 518.57 181.125L520.454 127.006Z" fill="#37474F"/>
<path d="M531.409 136.585C530.467 131.415 523.681 125.98 517.324 127.02C515.842 127.256 514.416 127.505 513.003 127.755C512.241 130.86 503.737 132.801 495.608 130.888C493.156 131.525 485.096 133.036 483.06 133.716C477.215 135.656 474.806 141.409 473.905 160.484C473.905 160.484 474.376 203.665 474.141 212.26C488.558 218.345 503.696 218.512 512.103 216.876C529.595 213.466 531.866 206.271 531.866 206.271L529.262 186.517C529.262 186.517 533.542 148.271 531.409 136.585Z" fill="#455A64"/>
<path d="M495.067 126.036L495.192 127.2C495.192 127.2 500.233 128.462 505.898 127.2C511.562 125.939 512.698 124.345 512.698 124.345L512.573 123.028C512.573 123.028 513.986 122.501 514.72 124.677C515.454 126.854 515.537 127.325 515.537 127.325C515.537 127.325 516.188 131.29 509.527 133.314C499.943 136.225 492.948 131.498 492.948 131.498L490.345 132.052C490.345 132.052 492.602 126.84 493.281 125.786C493.959 124.733 494.915 124.885 494.915 124.885L495.04 126.05L495.067 126.036Z" fill="#37474F"/>
<path d="M441.871 106.227L407.316 124.275L424.476 171.269L456.732 153.178L441.871 106.227Z" fill="#455A64"/>
<path d="M440.278 110.829L411.291 125.967L426.484 166.362L453.546 151.196L440.278 110.829Z" fill="#F5F5F5"/>
<path d="M440.501 110.5L411 126L427 166L453.5 151.5L440.501 110.5Z" fill="#DFEAF2"/>
<path d="M441.589 129.147L421.649 137.566C420.368 138.107 419.768 139.584 420.309 140.864L425.106 152.226C425.647 153.506 427.123 154.106 428.404 153.565L448.345 145.146C449.625 144.605 450.225 143.129 449.684 141.848L444.887 130.486C444.346 129.206 442.87 128.606 441.589 129.147Z" fill="#BDD7EA"/>
<path d="M441.615 137.963L442.909 137.427L442.462 136.834L441.34 137.298L441.615 137.963Z" fill="#A4C5DD"/>
<path d="M426.454 146.458C426.187 146.138 426.064 145.722 426.072 145.306C426.075 145.2 426.078 145.1 426.086 145.04C426.119 144.839 426.266 144.448 426.371 144.273C426.463 144.119 426.729 143.872 426.868 143.76C427.253 143.451 428.556 142.732 428.556 142.732L429.73 142.117L430.474 141.175C430.474 141.175 431.258 140.155 431.551 139.842C431.989 139.375 432.928 138.679 433.652 138.38C435.3 137.698 436.191 137.365 437.083 137.215C437.584 137.131 439.111 137.077 439.111 137.077L440.822 136.982C440.822 136.982 441.795 136.489 442.133 136.558C442.256 136.581 442.509 136.887 442.509 136.887L441.667 137.256L442.039 137.694L442.86 137.391L443.092 137.573C443.379 137.8 443.582 138.12 443.655 138.479C443.723 138.812 443.762 139.198 443.642 139.392C443.478 139.656 441.928 140.408 441.928 140.408C441.928 140.408 441.354 138.697 439.74 139.319C438.931 139.631 438.6 140.445 438.737 141.044C438.781 141.237 438.978 141.794 438.978 141.794L431.021 145.23L430.982 145.137C430.741 144.611 430.03 143.41 428.607 143.999C427.035 144.65 427.911 146.509 427.911 146.509C427.911 146.509 427.123 146.792 426.823 146.72C426.688 146.688 426.565 146.584 426.459 146.458L426.454 146.458Z" fill="#A4C5DD"/>
<path d="M434.902 139.72L434.464 138.443C434.464 138.443 435.734 137.907 436.312 137.796C436.516 137.759 437.06 137.765 437.531 137.833C438.109 137.916 438.609 138.096 438.609 138.096L434.902 139.72Z" fill="#A4C5DD"/>
<path d="M434.283 140.047L433.914 138.663C433.914 138.663 433.26 138.934 432.647 139.383C431.815 139.994 430.774 141.713 430.774 141.713L434.283 140.047Z" fill="#A4C5DD"/>
<path opacity="0.9" d="M434.284 140.046L435.15 142.779" stroke="#A4C5DD" stroke-width="0.412317" stroke-miterlimit="10"/>
<path opacity="0.9" d="M438.786 141.222L430.74 144.707" stroke="#A4C5DD" stroke-width="0.412317" stroke-miterlimit="10"/>
<path opacity="0.9" d="M430.774 141.713L431.405 144.354" stroke="#A4C5DD" stroke-width="0.412317" stroke-miterlimit="10"/>
<path opacity="0.9" d="M438.61 138.098L439.155 139.656" stroke="#A4C5DD" stroke-width="0.412317" stroke-miterlimit="10"/>
<path opacity="0.9" d="M437.817 139.437L438.497 139.156L438.395 138.909L437.715 139.191L437.817 139.437Z" fill="#A4C5DD" stroke="#A4C5DD" stroke-width="0.412317" stroke-miterlimit="10"/>
<path opacity="0.9" d="M433.462 141.239L434.142 140.958L434.04 140.711L433.36 140.993L433.462 141.239Z" fill="#A4C5DD" stroke="#A4C5DD" stroke-width="0.412317" stroke-miterlimit="10"/>
<path d="M426.371 144.272L427.15 143.95C427.25 143.909 427.348 144.005 427.315 144.104C427.134 144.627 426.735 145.045 426.219 145.248L426.073 145.308C426.073 145.308 426.049 144.787 426.371 144.272Z" fill="#A4C5DD"/>
<path d="M438.995 141.405C439.303 142.15 440.153 142.504 440.895 142.197C441.636 141.89 441.987 141.038 441.679 140.294C441.372 139.55 440.521 139.196 439.78 139.503C439.038 139.81 438.687 140.662 438.995 141.405Z" fill="#A4C5DD"/>
<path d="M439.77 141.085C439.9 141.399 440.261 141.549 440.576 141.419C440.891 141.289 441.04 140.928 440.91 140.613C440.78 140.298 440.419 140.149 440.104 140.279C439.789 140.409 439.64 140.77 439.77 141.085Z" fill="#A4C5DD"/>
<path d="M427.927 145.987C428.234 146.731 429.085 147.085 429.826 146.778C430.568 146.471 430.919 145.619 430.611 144.876C430.303 144.132 429.453 143.778 428.711 144.085C427.97 144.392 427.619 145.243 427.927 145.987Z" fill="#A4C5DD"/>
<path d="M428.7 145.667C428.83 145.982 429.191 146.132 429.506 146.001C429.82 145.871 429.97 145.51 429.84 145.195C429.709 144.881 429.348 144.731 429.034 144.862C428.719 144.992 428.57 145.353 428.7 145.667Z" fill="#A4C5DD"/>
<path d="M430.821 126.665C430.841 126.705 428.067 128.118 424.626 129.819C421.184 131.522 418.38 132.867 418.36 132.827C418.34 132.787 421.113 131.374 424.555 129.673C427.996 127.972 430.801 126.625 430.821 126.665Z" fill="white"/>
<path d="M440.487 125.543C440.507 125.583 435.896 127.906 430.189 130.728C424.481 133.552 419.836 135.808 419.816 135.768C419.796 135.727 424.407 133.405 430.118 130.582C435.824 127.76 440.47 125.504 440.49 125.544L440.487 125.543Z" fill="white"/>
<path opacity="0.15" d="M434.17 115.182C434.17 115.182 433.921 114.544 433.602 113.74C433.298 112.95 430.874 113.421 428.215 114.794L423.104 117.427C420.431 118.8 418.534 120.56 418.839 121.364L419.407 122.806L434.17 115.182Z" fill="black"/>
<path d="M433.603 109.429C433.409 108.93 432.356 109.013 431.262 109.609L429.268 110.69C429.268 110.69 428.035 107.585 423.437 109.734C418.839 111.882 419.891 115.487 419.891 115.487C419.891 115.487 418.936 116.013 417.772 116.651C416.595 117.303 415.764 118.231 415.903 118.73L416.166 119.645L433.963 110.344C433.963 110.344 433.797 109.914 433.616 109.415L433.603 109.429Z" fill="#41ACAE"/>
<path d="M431.678 111.522C430.016 112.34 429.365 112.728 429.85 113.948C430.39 115.348 430.902 116.346 430.902 116.346L423.036 120.463C423.036 120.463 422.385 118.689 422.094 117.996C421.803 117.317 421.235 116.984 419.975 117.635L419.504 117.136L431.927 110.801L431.692 111.494L431.678 111.522Z" fill="#27DEBF"/>
<path opacity="0.3" d="M431.678 111.522C430.016 112.34 429.365 112.728 429.85 113.948C430.39 115.348 430.902 116.346 430.902 116.346L423.036 120.463C423.036 120.463 422.385 118.689 422.094 117.996C421.803 117.317 421.235 116.984 419.975 117.635L419.504 117.136L431.927 110.801L431.692 111.494L431.678 111.522Z" fill="black"/>
<path d="M434.503 115.265C434.503 115.265 434.254 114.627 433.935 113.823C433.631 113.033 431.207 113.504 428.548 114.877L423.437 117.511C420.764 118.883 418.867 120.643 419.172 121.448L419.74 122.889L434.503 115.265Z" fill="#41ACAE"/>
<path d="M483.059 133.716C475.082 134.409 471.689 135.864 465.692 146.677C459.196 158.405 446.704 179.642 445.111 182.317C442.909 186.046 442.494 191.716 444.391 195.14C446.164 198.342 451.801 199.797 458.199 192.575C465.803 183.981 479.943 162.993 479.943 162.993C479.943 162.993 491.951 147.134 483.059 133.716Z" fill="#FFA8A7"/>
<path d="M447.701 197.607C441.58 196.859 427.301 177.465 423.243 171.13C418.797 164.199 414.656 160.858 410.875 158.058C404.407 153.275 405.349 145.915 408.174 139.177C409.158 136.849 412.468 138.36 412.468 138.36L413.631 141.562L415.653 147.107C417.024 148.382 417.8 148.798 417.897 148.41C418.063 147.689 416.886 144.722 416.913 141.617C416.955 137.888 419.559 140.342 420.348 141.645C421.124 142.948 422.038 145.083 423.104 147.814C424.406 151.155 423.866 154.537 425.459 156.824C427.051 159.098 448.352 179.531 448.352 179.531L447.701 197.607Z" fill="#F7D3C9"/>
<path d="M484.597 133.3C479.764 133.175 473.961 133.951 469.46 139.801C464.959 145.651 446.954 177.465 446.954 177.465L436.844 168.399C436.844 168.399 430.487 172.073 429.074 179.392C429.074 179.392 433.949 187.127 438.229 191.827C442.495 196.512 447.259 199.77 451.164 198.328C455.07 196.886 459.059 193.795 467.465 182.068C475.872 170.354 485.055 156.519 485.055 156.519C485.055 156.519 490.844 143.003 484.597 133.3Z" fill="#37474F"/>
<path d="M482.104 97.327C482.104 97.327 477.755 103.939 478.254 104.577C478.752 105.229 481.952 105.811 481.952 105.811L482.104 97.3131V97.327Z" fill="#E9C3B8"/>
<path d="M484.14 101.569C481.287 101.569 478.96 99.24 478.96 96.3844C478.96 93.5287 481.287 91.1998 484.14 91.1998C486.993 91.1998 489.32 93.5287 489.32 96.3844C489.32 99.24 486.993 101.569 484.14 101.569ZM484.14 92.3504C481.91 92.3504 480.109 94.1664 480.109 96.3844C480.109 98.6023 481.924 100.418 484.14 100.418C486.356 100.418 488.17 98.6023 488.17 96.3844C488.17 94.1664 486.356 92.3504 484.14 92.3504Z" fill="#263238"/>
<path d="M494.181 79.0426C485.372 80.9001 482.838 84.7816 482.007 98.7687C481.134 113.393 482.63 117.996 484.555 119.964C485.857 121.295 493.059 121.531 496.687 120.533C501.23 119.271 511.507 115.639 516.326 108.278C521.991 99.6282 523.473 87.8867 517.407 83.0765C508.875 76.2978 497.768 78.2801 494.181 79.0426Z" fill="#F7D3C9"/>
<path d="M494.5 120.948L494.098 118.259C494.098 118.259 489.86 120.699 485.068 120.311C486.744 121.143 491.135 121.378 494.5 120.962V120.948Z" fill="#E9C3B8"/>
<path d="M479.445 95.3031L495.095 97.327L494.458 98.436L479.445 96.4814V95.3031Z" fill="#263238"/>
<path d="M480.511 84.6984C481.176 84.7954 481.855 84.7539 482.506 84.5736C481.924 85.8213 482.478 87.4154 483.572 88.2472C484.68 89.0789 486.203 89.1898 487.519 88.7739C487.048 89.5918 486.882 90.576 487.09 91.5048C487.505 93.4178 489.666 95.0813 491.646 94.8041C491.743 96.8557 491.771 98.8519 493.945 99.7945C493.945 99.7945 495.33 94.3882 499.887 95.0674C504.471 95.7467 505.094 101.597 502.2 105.145C499.333 108.68 496.66 107.349 496.618 107.336C496.882 107.474 496.978 109.193 497.075 109.526C497.366 110.538 497.754 111.55 498.253 112.479C499.236 114.378 500.649 116.041 502.366 117.317C504.748 119.077 507.657 120.339 510.634 119.618C513.21 118.994 515.565 117.219 516.659 114.766C516.936 114.156 517.157 113.477 517.642 113.019C518.238 112.451 519.11 112.312 519.886 112.049C521.686 111.439 523.182 110.011 523.888 108.251C524.595 106.49 524.484 104.425 523.611 102.733C525.772 102.179 527.545 100.349 528.029 98.1726C528.5 95.9962 527.655 93.5842 525.924 92.1702C528.5 90.5899 529.844 87.2214 529.04 84.2964C528.362 81.7873 526.27 79.9991 523.833 79.3059C522.06 78.793 522.739 78.5158 522.185 76.7691C521.811 75.577 521.105 74.4957 520.135 73.7056C518.473 72.347 516.105 71.9035 514.069 72.5827C513.681 70.3093 511.867 68.4656 509.679 67.8556C508.681 67.5784 507.587 67.4675 506.576 67.7309C505.842 67.925 504.346 68.6042 504.069 69.2973C503.142 68.3824 502.837 67.1764 501.715 66.3585C500.552 65.4852 499.139 65 497.712 65C495.344 65 493.031 66.3724 491.882 68.4379C490.303 66.7744 488.018 65.7486 485.733 65.8456C483.447 65.9426 481.19 67.2457 480.123 69.2696C479.057 71.2935 479.306 73.9967 480.871 75.674C479.459 76.2701 478.157 77.2543 477.464 78.6128C476.716 80.0961 476.813 81.9537 477.949 83.2151C478.489 83.8251 478.849 84.2271 479.666 84.4905C479.943 84.5736 480.22 84.643 480.497 84.6845L480.511 84.6984Z" fill="#263238"/>
<path d="M493.849 102.858L494.015 96.7448C492.325 96.7032 490.926 98.034 490.871 99.7252C490.83 101.416 492.159 102.816 493.849 102.872V102.858Z" fill="#263238"/>
</g>
<path d="M157.49 69L43 145.586L155.772 314.17L270.261 237.583L157.49 69Z" fill="#DFEAF2"/>
<path d="M174.897 133.892L98.8434 184.563C93.9593 187.817 92.6379 194.414 95.892 199.298L124.763 242.631C128.017 247.515 134.614 248.837 139.498 245.583L215.551 194.912C220.436 191.658 221.757 185.06 218.503 180.176L189.632 136.843C186.378 131.959 179.781 130.638 174.897 133.892Z" fill="#BDD7EA"/>
<path d="M183.337 169.857L188.257 166.579L185.921 164.487L181.653 167.33L183.337 169.857Z" fill="#A4C5DD"/>
<path d="M127.504 217.459C126.138 216.351 125.288 214.731 124.982 213.001C124.904 212.558 124.834 212.145 124.82 211.889C124.79 211.027 125.08 209.287 125.373 208.475C125.625 207.764 126.526 206.524 127.011 205.946C128.353 204.352 133.159 200.304 133.159 200.304L137.516 196.797L139.827 192.285C139.827 192.285 142.237 187.417 143.197 185.883C144.629 183.588 147.948 179.939 150.701 178.104C156.969 173.929 160.386 171.821 163.956 170.47C165.964 169.712 172.242 168.236 172.242 168.236L179.251 166.442C179.251 166.442 182.88 163.601 184.335 163.61C184.865 163.607 186.162 164.664 186.162 164.664L182.976 166.883L184.878 168.395L188.027 166.466L189.139 167.03C190.514 167.733 191.615 168.896 192.214 170.322C192.769 171.643 193.246 173.212 192.905 174.114C192.442 175.342 186.639 179.726 186.639 179.726C186.639 179.726 182.86 173.111 176.685 177.008C173.588 178.962 172.887 182.606 173.944 184.972C174.284 185.735 175.557 187.883 175.557 187.883L145.413 208.631L145.179 208.28C143.749 206.297 139.821 201.906 134.407 205.513C128.432 209.494 133.581 216.479 133.581 216.479C133.581 216.479 130.55 218.294 129.247 218.243C128.664 218.22 128.07 217.891 127.527 217.456L127.504 217.459Z" fill="#A4C5DD"/>
<path d="M156.979 182.633L154.117 177.702C154.117 177.702 158.939 174.441 161.243 173.51C162.055 173.187 164.314 172.769 166.322 172.663C168.784 172.533 171.001 172.868 171.001 172.868L156.979 182.633Z" fill="#A4C5DD"/>
<path d="M154.678 184.492L152.016 179.065C152.016 179.065 149.531 180.72 147.36 183.085C144.412 186.294 141.509 194.269 141.509 194.269L154.678 184.492Z" fill="#A4C5DD"/>
<path opacity="0.9" d="M154.678 184.492L160.501 195.1" stroke="#A4C5DD" stroke-width="0.412317" stroke-miterlimit="10"/>
<path opacity="0.9" d="M174.289 185.672L143.821 206.696" stroke="#A4C5DD" stroke-width="0.412317" stroke-miterlimit="10"/>
<path opacity="0.9" d="M141.511 194.268L146.29 204.688" stroke="#A4C5DD" stroke-width="0.412317" stroke-miterlimit="10"/>
<path opacity="0.9" d="M171.007 172.876L174.539 178.885" stroke="#A4C5DD" stroke-width="0.412317" stroke-miterlimit="10"/>
<path opacity="0.9" d="M168.817 179.072L171.403 177.349L170.778 176.412L168.192 178.135L168.817 179.072Z" fill="#A4C5DD" stroke="#A4C5DD" stroke-width="0.412317" stroke-miterlimit="10"/>
<path opacity="0.9" d="M152.256 190.106L154.842 188.383L154.217 187.446L151.632 189.168L152.256 190.106Z" fill="#A4C5DD" stroke="#A4C5DD" stroke-width="0.412317" stroke-miterlimit="10"/>
<path d="M125.372 208.475L128.335 206.502C128.711 206.251 129.199 206.566 129.141 207.004C128.822 209.318 127.511 211.376 125.539 212.642L124.986 213.01C124.986 213.01 124.457 210.873 125.372 208.475Z" fill="#A4C5DD"/>
<path d="M175.308 186.26C177.193 189.09 181.005 189.86 183.825 187.982C186.645 186.103 187.402 182.288 185.517 179.459C183.633 176.63 179.821 175.86 177.001 177.739C174.181 179.618 173.424 183.432 175.308 186.26Z" fill="#A4C5DD"/>
<path d="M178.254 184.297C179.052 185.494 180.669 185.819 181.866 185.021C183.062 184.224 183.386 182.607 182.589 181.41C181.792 180.214 180.174 179.89 178.978 180.687C177.781 181.484 177.457 183.102 178.254 184.297Z" fill="#A4C5DD"/>
<path d="M133.217 214.303C135.102 217.132 138.914 217.902 141.734 216.023C144.554 214.145 145.311 210.33 143.426 207.502C141.542 204.673 137.73 203.903 134.91 205.782C132.09 207.66 131.333 211.475 133.217 214.303Z" fill="#A4C5DD"/>
<path d="M136.155 212.346C136.953 213.543 138.57 213.867 139.767 213.07C140.964 212.273 141.288 210.655 140.49 209.458C139.693 208.262 138.076 207.938 136.879 208.735C135.683 209.533 135.359 211.15 136.155 212.346Z" fill="#A4C5DD"/>
<path d="M211.103 229.604L209.797 237.645L152.879 229.441L154.185 221.4L211.103 229.604Z" fill="#E0E0E0"/>
<path d="M130.011 129.697C130.093 129.819 118.624 137.635 104.389 147.156C90.1547 156.676 78.5528 164.298 78.4711 164.176C78.3895 164.053 89.8588 156.237 104.093 146.717C118.328 137.197 129.93 129.574 130.011 129.697Z" fill="white"/>
<path d="M172.113 119.125C172.194 119.248 153.113 132.156 129.501 147.941C105.879 163.737 86.6747 176.441 86.593 176.319C86.5114 176.196 105.583 163.298 129.205 147.492C152.817 131.697 172.031 118.993 172.113 119.115V119.125Z" fill="white"/>
<path d="M378.367 128.033L290.212 80.8832L220.785 210.689L308.941 257.839L378.367 128.033Z" fill="#DFEAF2"/>
<path d="M343.325 160.958L281.082 128.746C277.085 126.677 272.168 128.24 270.099 132.238L251.745 167.701C249.677 171.699 251.24 176.616 255.237 178.685L317.48 210.897C321.477 212.966 326.394 211.403 328.463 207.405L346.817 171.942C348.886 167.944 347.322 163.027 343.325 160.958Z" fill="#BDD7EA"/>
<path d="M322.328 179.977L326.355 182.061L326.891 179.717L323.398 177.909L322.328 179.977Z" fill="#A4C5DD"/>
<path d="M269.653 160.193C269.889 158.864 270.661 157.692 271.707 156.845C271.976 156.628 272.227 156.428 272.394 156.323C272.961 155.983 274.236 155.531 274.89 155.427C275.46 155.331 276.627 155.475 277.195 155.586C278.763 155.895 283.264 157.616 283.264 157.616L287.235 159.237L291.12 159.112C291.12 159.112 295.282 158.922 296.668 158.996C298.739 159.104 302.421 159.976 304.674 161.142C309.803 163.797 312.486 165.307 314.719 167.201C315.973 168.266 319.295 171.931 319.295 171.931L323.101 175.967C323.101 175.967 326.355 177.347 326.89 178.327C327.088 178.682 326.861 179.944 326.861 179.944L324.189 178.631L323.88 180.468L326.344 181.865L326.379 182.821C326.418 184.004 326.046 185.175 325.312 186.107C324.631 186.969 323.756 187.872 323.024 187.978C322.028 188.123 316.932 185.858 316.932 185.858C316.932 185.858 319.967 180.866 315.059 178.169C312.598 176.818 309.892 177.701 308.697 179.288C308.311 179.799 307.343 181.452 307.343 181.452L282.227 168.931L282.376 168.644C283.175 166.948 284.663 162.681 280.232 160.388C275.342 157.858 272.568 163.906 272.568 163.906C272.568 163.906 270.224 162.546 269.774 161.653C269.573 161.254 269.573 160.733 269.663 160.207L269.653 160.193Z" fill="#A4C5DD"/>
<path d="M303.966 167.036L306.212 163.284C306.212 163.284 310.191 165.309 311.672 166.509C312.19 166.934 313.309 168.294 314.125 169.602C315.127 171.206 315.726 172.818 315.726 172.818L303.966 167.036Z" fill="#A4C5DD"/>
<path d="M301.864 166.183L304.517 162.381C304.517 162.381 302.483 161.329 300.091 160.75C296.843 159.964 290.414 160.978 290.414 160.978L301.864 166.183Z" fill="#A4C5DD"/>
<path opacity="0.9" d="M301.866 166.183L296.91 174.03" stroke="#A4C5DD" stroke-width="0.412317" stroke-miterlimit="10"/>
<path opacity="0.9" d="M308.356 179.78L282.935 167.144" stroke="#A4C5DD" stroke-width="0.412317" stroke-miterlimit="10"/>
<path opacity="0.9" d="M290.415 160.978L285.199 168.055" stroke="#A4C5DD" stroke-width="0.412317" stroke-miterlimit="10"/>
<path opacity="0.9" d="M315.723 172.825L313.003 177.426" stroke="#A4C5DD" stroke-width="0.412317" stroke-miterlimit="10"/>
<path opacity="0.9" d="M310.751 173.657L312.868 174.752L313.265 173.985L311.148 172.89L310.751 173.657Z" fill="#A4C5DD" stroke="#A4C5DD" stroke-width="0.412317" stroke-miterlimit="10"/>
<path opacity="0.9" d="M297.2 166.642L299.316 167.738L299.713 166.971L297.597 165.875L297.2 166.642Z" fill="#A4C5DD" stroke="#A4C5DD" stroke-width="0.412317" stroke-miterlimit="10"/>
<path d="M274.89 155.426L277.315 156.681C277.623 156.841 277.592 157.285 277.277 157.408C275.605 158.054 273.738 157.938 272.156 157.085L271.704 156.851C271.704 156.851 272.941 155.703 274.89 155.426Z" fill="#A4C5DD"/>
<path d="M308.34 180.682C307.142 182.998 308.04 185.842 310.348 187.036C312.656 188.231 315.497 187.322 316.695 185.006C317.893 182.692 316.994 179.848 314.686 178.653C312.378 177.459 309.538 178.368 308.34 180.682Z" fill="#A4C5DD"/>
<path d="M310.751 181.93C310.244 182.91 310.627 184.115 311.607 184.622C312.586 185.129 313.792 184.745 314.299 183.766C314.805 182.787 314.422 181.582 313.443 181.075C312.463 180.568 311.258 180.951 310.751 181.93Z" fill="#A4C5DD"/>
<path d="M273.894 162.855C272.696 165.169 273.594 168.013 275.902 169.208C278.21 170.402 281.051 169.493 282.249 167.179C283.446 164.864 282.548 162.02 280.24 160.826C277.932 159.631 275.091 160.54 273.894 162.855Z" fill="#A4C5DD"/>
<path d="M276.297 164.099C275.79 165.078 276.173 166.284 277.153 166.791C278.132 167.298 279.338 166.914 279.845 165.935C280.351 164.956 279.968 163.75 278.989 163.243C278.009 162.737 276.804 163.12 276.297 164.099Z" fill="#A4C5DD"/>
<path d="M330.126 131.168C330.057 131.296 321.115 126.649 310.157 120.785C299.191 114.92 290.368 110.067 290.437 109.939C290.506 109.81 299.448 114.457 310.406 120.322C321.363 126.186 330.194 131.039 330.126 131.168Z" fill="white"/>
<path d="M351.278 154.523C351.209 154.652 336.411 146.875 318.234 137.152C300.049 127.429 285.361 119.438 285.43 119.31C285.499 119.181 300.297 126.958 318.483 136.689C336.659 146.412 351.346 154.403 351.278 154.532V154.523Z" fill="white"/>
<path d="M83.1716 317.022C87.3714 317.171 91.3103 319.445 94.0812 322.613C96.852 325.769 98.5543 329.745 99.6353 333.808C101.735 341.661 100.443 350.943 98.2064 358.759C89.695 355.714 84.4515 346.644 82.0782 341.873C78.3257 334.33 76.1264 318.438 83.1592 317.022" fill="#AFCF7C"/>
<path d="M110.461 368.277C107.777 364.425 107.715 359.069 109.84 354.87C111.964 350.682 116.04 347.663 120.526 346.284C122.601 345.65 125.011 345.376 126.813 346.582C128.503 347.712 129.236 349.924 129.012 351.937C128.788 353.95 127.77 355.801 126.564 357.429C122.427 363.033 117.394 367.693 110.461 368.264" fill="#AFCF7C"/>
<path d="M111.391 394.531C111.391 394.531 111.218 393.96 111.006 392.904C110.783 391.736 110.484 390.232 110.136 388.431C109.466 384.666 108.397 379.31 109.205 373.396C109.975 367.506 112.323 362.461 114.784 359.454C115.989 357.939 117.157 356.858 118.014 356.199C118.424 355.851 118.797 355.64 119.021 355.466C119.257 355.304 119.393 355.23 119.406 355.255C119.493 355.354 117.418 356.646 115.119 359.715C112.796 362.735 110.559 367.68 109.789 373.483C108.993 379.286 109.975 384.591 110.547 388.368C110.845 390.27 111.093 391.81 111.242 392.879C111.379 393.948 111.441 394.544 111.391 394.544V394.531Z" fill="#263238"/>
<path d="M85.9189 328.987C85.9189 328.987 86.0556 329.199 86.2669 329.633C86.4905 330.118 86.7887 330.752 87.1491 331.522C87.8946 333.175 88.9632 335.573 90.243 338.542C92.8026 344.494 96.2321 352.77 99.8106 361.977C103.389 371.197 106.433 379.621 108.546 385.734C109.602 388.791 110.447 391.276 111.006 393.003C111.267 393.823 111.478 394.482 111.64 394.991C111.776 395.451 111.838 395.687 111.826 395.7C111.814 395.712 111.702 395.476 111.528 395.029C111.341 394.519 111.093 393.873 110.795 393.078C110.149 391.313 109.254 388.866 108.16 385.871C105.936 379.783 102.83 371.395 99.2639 362.176C95.6853 352.968 92.3305 344.681 89.8702 338.692C88.665 335.747 87.6709 333.336 86.9503 331.597C86.6272 330.801 86.3787 330.155 86.1799 329.658C86.0059 329.211 85.9314 328.975 85.9438 328.962L85.9189 328.987Z" fill="#263238"/>
<path d="M101.302 377.161C96.2819 368.624 86.9255 362.809 77.0473 362.089C74.5374 361.902 71.5055 362.325 70.3873 364.586C69.269 366.848 70.76 369.519 72.4747 371.383C79.6069 379.099 91.6596 381.795 101.389 377.844" fill="#AFCF7C"/>
<path d="M80.8748 368.823C80.8748 368.823 81.4339 368.811 82.4528 368.885C82.9623 368.923 83.5835 368.96 84.2918 369.097C85 369.233 85.8201 369.308 86.7023 369.544C87.5845 369.755 88.5661 369.979 89.5726 370.339C90.6039 370.637 91.6601 371.085 92.7659 371.557C94.9528 372.551 97.2888 373.856 99.5005 375.545C101.7 377.26 103.551 379.174 105.067 381.05C105.788 382.007 106.484 382.926 107.03 383.858C107.627 384.753 108.074 385.647 108.484 386.455C108.931 387.25 109.192 388.033 109.491 388.692C109.789 389.35 109.963 389.947 110.112 390.431C110.41 391.4 110.559 391.935 110.522 391.947C110.398 391.997 109.789 389.822 108.111 386.641C107.676 385.859 107.217 384.989 106.608 384.119C106.061 383.212 105.365 382.33 104.632 381.398C103.129 379.571 101.29 377.707 99.1278 376.018C96.9533 374.353 94.6795 373.06 92.5298 372.054C91.4488 371.582 90.4051 371.122 89.3986 370.811C88.417 370.439 87.4603 370.202 86.5905 369.954C83.0989 369.072 80.8499 368.948 80.8624 368.823H80.8748Z" fill="#263238"/>
<path d="M433.526 56.9805C432.978 56.749 432.583 56.2088 432.557 55.5743L432.215 47.6177C432.189 47.1204 432.403 46.6317 432.789 46.3145C433.175 45.9972 433.689 45.8772 434.178 45.9887C435.455 46.2887 436.87 46.0144 438.045 45.2256C439.134 44.4968 439.862 43.4336 440.043 42.2933C440.231 41.1615 439.88 39.9011 439.082 38.8466C438.225 37.7148 436.964 36.9603 435.704 36.8145C433.123 36.5144 430.337 38.495 429.617 41.1358C429.385 41.9846 428.511 42.4905 427.653 42.259C426.787 42.0189 426.298 41.1444 426.53 40.2956C427.653 36.1458 431.94 33.162 436.073 33.6336C438.216 33.8822 440.248 35.074 441.637 36.9174C442.958 38.6665 443.532 40.81 443.206 42.8077C442.881 44.814 441.646 46.666 439.82 47.8835C438.499 48.7666 436.99 49.2468 435.481 49.2982L435.747 55.4372C435.781 56.3203 435.104 57.0662 434.221 57.1005C433.972 57.1091 433.741 57.0662 433.526 56.9719V56.9805Z" fill="#263238"/>
<path d="M435.867 60.2386C435.919 60.9588 435.37 61.5847 434.65 61.6361C433.93 61.6876 433.304 61.1388 433.252 60.4186C433.201 59.6984 433.75 59.0725 434.47 59.0211C435.19 58.9696 435.816 59.5184 435.867 60.2386Z" fill="#263238"/>
<path d="M405.97 45.7572C405.97 45.7572 406.004 45.5771 406.047 45.2341C406.09 44.8655 406.141 44.351 406.218 43.6994C406.253 43.0221 406.433 42.199 406.63 41.2387C406.741 40.7585 406.801 40.227 406.981 39.6868C407.153 39.1466 407.324 38.5636 407.513 37.9549C408.345 35.5456 409.622 32.6562 411.774 29.7839C413.909 26.9202 416.919 24.0822 420.777 21.9387C422.68 20.807 424.849 20.0182 427.13 19.3151C429.445 18.7664 431.897 18.2948 434.461 18.3548C435.738 18.2862 437.033 18.4748 438.353 18.5863C439.014 18.6463 439.657 18.8264 440.317 18.9378C440.977 19.0579 441.646 19.1865 442.289 19.418C444.938 20.0953 447.51 21.3471 449.954 22.8904C454.875 25.9856 459.017 31.0185 461.289 37.1232C462.429 40.1755 462.969 43.5194 462.969 46.9061C463.038 50.2928 462.378 53.7309 461.177 56.9719L460.791 57.9493L460.74 58.0779L460.791 58.198C462.944 63.1537 465.053 68.0066 467.093 72.7137L467.453 72.3021C463.029 70.6045 458.734 68.9497 454.61 67.3721L454.447 67.3121L454.318 67.4321C450.751 70.8874 446.499 73.2195 442.195 74.4284C437.873 75.6459 433.518 75.706 429.565 75.0029C425.595 74.2998 422.029 72.7822 419.045 70.836C416.061 68.8897 413.66 66.5147 411.817 64.1054C409.982 61.6704 408.773 59.1668 407.864 56.9376C407.059 54.6569 406.57 52.6335 406.33 50.953C406.227 50.1127 406.141 49.3754 406.064 48.7237C406.047 48.0807 406.03 47.5405 406.021 47.0861C406.004 46.666 405.995 46.3316 405.987 46.083C405.978 45.86 405.97 45.74 405.961 45.74C405.961 45.74 405.944 45.8515 405.944 46.083C405.944 46.3316 405.944 46.666 405.927 47.0861C405.927 47.5405 405.927 48.0893 405.927 48.7323C405.995 49.3839 406.064 50.1384 406.15 50.9787C406.364 52.6678 406.827 54.7169 407.616 57.0319C408.508 59.2954 409.708 61.8333 411.543 64.3198C413.395 66.7719 415.804 69.1983 418.822 71.1961C421.831 73.1938 425.45 74.7543 429.479 75.483C433.501 76.2118 437.925 76.169 442.323 74.9429C446.713 73.7168 451.051 71.359 454.695 67.8436L454.412 67.9037C458.528 69.4898 462.824 71.1446 467.248 72.8594L467.891 73.1081L467.608 72.4479C465.567 67.7408 463.458 62.8793 461.314 57.9236V58.1722L461.709 57.1691C462.944 53.8595 463.612 50.3356 463.544 46.8803C463.544 43.425 462.986 40.004 461.82 36.8831C459.497 30.6499 455.253 25.5226 450.237 22.3846C447.733 20.8155 445.118 19.5552 442.417 18.8692C441.757 18.6463 441.08 18.5177 440.411 18.3891C439.742 18.2776 439.082 18.0976 438.413 18.0376C437.076 17.9261 435.764 17.7461 434.461 17.8232C431.854 17.7718 429.368 18.2605 427.019 18.8264C424.704 19.5466 422.509 20.3611 420.588 21.5186C416.687 23.7221 413.66 26.6115 411.517 29.5352C409.365 32.459 408.096 35.3998 407.299 37.8348C407.119 38.4521 406.947 39.0352 406.784 39.5925C406.613 40.1412 406.561 40.6814 406.458 41.1615C406.27 42.1389 406.115 42.9621 406.098 43.648C406.047 44.3082 406.013 44.814 405.987 45.1913C405.961 45.5342 405.961 45.7143 405.97 45.7143V45.7572Z" fill="#263238"/>
<path d="M232.299 219.093L201.981 374.968L198.012 395.374L400.408 394.379C409.488 394.336 417.539 386.268 420.463 374.291L456.353 227.127C458.574 218.03 453.704 208.573 446.811 208.573L241.962 208.788C237.435 208.788 233.482 213.014 232.299 219.093Z" fill="#41ACAE"/>
<path d="M380.997 364.413L359.571 191.725C358.696 184.652 353.054 179.37 346.401 179.396L299.407 179.55C295.926 179.559 292.591 181.042 290.122 183.666L267.812 207.381L137.119 208.067C129.137 208.11 122.998 215.664 124.053 224.161L143.953 383.765C144.836 390.83 150.46 396.103 157.105 396.086L384.872 395.64C410.243 396.163 412.66 388.678 412.66 388.678C383.586 395.117 380.997 364.439 380.997 364.422V364.413Z" fill="#61D2D4"/>
<path d="M283.843 324.053L276.16 332.301L217 279.074L224.682 270.826L283.843 324.053Z" fill="#41ACAE"/>
<path d="M272.936 269L281.433 276.639L227.897 334.128L219.409 326.497L272.936 269Z" fill="#41ACAE"/>
<defs>
<clipPath id="clip0_766_682">
<rect width="152" height="341" fill="white" transform="translate(406 65)"/>
</clipPath>
</defs>
</svg>
