<svg width="13" height="20" viewBox="0 0 13 20" fill="none" xmlns="http://www.w3.org/2000/svg">
<path d="M3.55762 15.9791C3.55782 15.9791 3.55794 15.9788 3.55784 15.9787C3.04856 15.1102 2.52147 14.2521 2.06428 13.3534C1.21833 11.6883 0.513598 9.97307 0.172887 8.12486C-0.14863 6.3788 -0.0773339 4.68141 0.865964 3.1177C1.97653 1.27772 3.60811 0.210344 5.7559 0.0245635C9.14382 -0.268846 12.0923 2.09763 12.5516 5.44579C12.7093 6.5968 12.5544 7.72999 12.2843 8.8481C11.7194 11.1892 10.6499 13.3109 9.4194 15.3607C9.39715 15.3979 9.37477 15.435 9.35229 15.472C9.15194 15.8022 8.98625 16.1612 8.77363 16.4836C8.07301 17.5469 7.33674 18.5848 6.52781 19.5699C6.32421 19.8181 6.28581 19.8194 6.08564 19.5713C5.50705 18.8528 4.95313 18.1166 4.42321 17.3611C4.1586 16.9834 3.89261 16.6077 3.66295 16.2066C3.62117 16.134 3.55339 16.0731 3.55737 15.9793C3.55738 15.9792 3.55749 15.9791 3.55762 15.9791Z" fill="#45B3BE"/>
<path d="M6.2879 8.95709C4.81469 8.95435 3.63077 7.75466 3.63625 6.27116C3.64173 4.79863 4.84279 3.61197 6.32355 3.61745C7.78512 3.62225 8.97589 4.81851 8.97589 6.28007C8.97589 7.77523 7.7858 8.95984 6.2879 8.95709Z" fill="#FEFEFE"/>
</svg>
