<svg width="32" height="30" viewBox="0 0 32 30" fill="none" xmlns="http://www.w3.org/2000/svg">
<rect opacity="0.3" width="32" height="30" rx="10" fill="#090909"/>
<path d="M20.0541 22.9379C19.8673 22.8783 19.6719 22.8542 19.4866 22.7862C18.3648 22.3748 17.6591 21.28 17.7549 20.0884C17.7666 19.9444 17.783 19.7982 17.8345 19.6612C17.87 19.5665 17.8411 19.5216 17.7523 19.4763C16.545 18.8635 15.3398 18.2467 14.1343 17.6309C14.0181 17.5717 13.9016 17.4665 13.7854 17.4669C13.6604 17.4676 13.6092 17.6397 13.519 17.73C12.9361 18.3128 12.2323 18.5909 11.4138 18.5262C10.1528 18.4268 9.20122 17.4596 9.02838 16.291C8.82265 14.9002 9.75739 13.5927 11.116 13.3351C12.0284 13.1619 12.8229 13.4144 13.4861 14.063C13.5738 14.1485 13.6293 14.1624 13.7371 14.0974C15.0957 13.2752 16.4573 12.4574 17.8207 11.6429C17.9047 11.5924 17.9171 11.5511 17.8879 11.4642C17.377 9.95062 18.3315 8.33329 19.9039 8.04315C21.3626 7.77384 22.7636 8.79554 22.9737 10.2616C23.1663 11.6049 22.2831 12.9474 20.8569 13.2098C19.9397 13.3786 19.1413 13.1104 18.4843 12.4453C18.4035 12.3635 18.356 12.3419 18.2467 12.408C16.8969 13.2262 15.5437 14.0389 14.1884 14.8483C14.092 14.906 14.0653 14.951 14.1058 15.0613C14.282 15.5389 14.2951 16.0275 14.1738 16.5197C14.1501 16.6162 14.1691 16.6611 14.2622 16.7083C15.5602 17.3667 16.856 18.0285 18.1495 18.6958C18.2482 18.7465 18.2888 18.7213 18.3494 18.649C18.9374 17.9499 19.6956 17.6244 20.5996 17.6974C21.7321 17.7888 22.6365 18.5781 22.9076 19.6319C23.2946 21.1364 22.3916 22.5699 20.8722 22.8947C20.8035 22.9094 20.7268 22.886 20.6661 22.9379H20.6077C20.5591 22.9141 20.5105 22.9141 20.4619 22.9379H20.2868C20.2284 22.9141 20.1703 22.9141 20.1118 22.9379H20.0533H20.0541Z" fill="white"/>
<path d="M20.1133 22.9379C20.1717 22.8893 20.2298 22.8962 20.2883 22.9379H20.1133Z" fill="#2E2D32"/>
<path d="M20.4629 22.9378C20.5115 22.8973 20.5601 22.8918 20.6087 22.9378H20.4629Z" fill="#2E2D32"/>
<path d="M20.3813 8.88104C21.3387 8.88615 22.1335 9.68751 22.1251 10.6391C22.1167 11.5986 21.3142 12.3912 20.3634 12.3792C19.4078 12.3671 18.6251 11.5782 18.627 10.6285C18.6284 9.67253 19.4283 8.87592 20.3813 8.88104V8.88104Z" fill="#B5B5B5"/>
<path d="M11.6332 14.1599C12.5916 14.1668 13.3853 14.9685 13.3751 15.9197C13.3649 16.88 12.5617 17.6719 11.6116 17.658C10.6553 17.6441 9.87367 16.8548 9.87696 15.9055C9.88025 14.9488 10.6809 14.1529 11.6332 14.1599V14.1599Z" fill="#B5B5B5"/>
<path d="M20.3795 22.062C19.4258 22.0656 18.627 21.2679 18.627 20.3127C18.627 19.3575 19.4261 18.5602 20.3799 18.5635C21.3318 18.5671 22.1181 19.3521 22.1251 20.3054C22.132 21.2577 21.3365 22.0583 20.3795 22.062Z" fill="#B5B5B5"/>
</svg>
