<svg width="11" height="12" viewBox="0 0 11 12" fill="none" xmlns="http://www.w3.org/2000/svg">
<path d="M0.936398 0H1.25325C1.64445 0.014161 1.95511 0.229232 2.27638 0.41421C3.58716 1.16828 4.89883 1.91793 6.21049 2.67112C7.38409 3.34466 8.55945 4.01731 9.73216 4.69261C9.9667 4.82802 10.172 4.99973 10.3234 5.22542C10.6066 5.64759 10.5562 6.13792 10.2083 6.51053C9.99591 6.73799 9.7357 6.89376 9.47018 7.04511C7.78148 8.01071 6.09455 8.97986 4.40762 9.94723C3.58628 10.4181 2.76405 10.8863 1.94537 11.3607C1.64002 11.5377 1.31343 11.6191 0.960294 11.5943C0.61689 11.5704 0.377037 11.3917 0.210645 11.1014C0.0531038 10.8296 0.00177013 10.5287 0.00177013 10.2207C0 7.27965 0 4.33858 0 1.39752C0 1.2267 0.0212415 1.05942 0.054874 0.89303C0.0876213 0.728408 0.148691 0.574406 0.238082 0.432796C0.400049 0.177013 0.624855 0.0177013 0.936398 0Z" fill="white"/>
</svg>
