<svg width="611" height="408" viewBox="0 0 611 408" fill="none" xmlns="http://www.w3.org/2000/svg">
<path d="M103.849 390.422C50.059 373.693 -22.7564 290.023 6.83748 208.443C23.6742 162.031 76.5318 158.574 118.074 150.867C175.811 140.152 201.792 106.077 240.037 64.1366C282.766 17.275 379.812 -37.4615 465.64 35.4764C488.754 55.1153 492.438 93.1054 522.261 119.764C552.259 146.581 591.375 146.704 608.976 199.792C622.692 241.159 563.645 327.219 523.632 352.864C449.63 400.298 225.152 428.138 103.849 390.422V390.422Z" fill="#F6F7FB"/>
<path d="M60.7969 331.136H559.138" stroke="#464646" stroke-width="3" stroke-miterlimit="10" stroke-linecap="round"/>
<path d="M306.808 208.89C305.765 212.07 302.351 213.81 299.123 212.766C295.933 211.722 294.194 208.306 295.237 205.112C296.293 201.87 299.707 200.13 302.897 201.174C306.125 202.23 307.863 205.647 306.808 208.89ZM309.08 167.043L318.031 169.963L307.093 199.409L300.576 197.285L309.08 167.043Z" fill="#464646"/>
<path d="M319.955 216.369C318.664 218.283 316.081 218.792 314.132 217.487C312.22 216.195 311.711 213.611 313.003 211.685C314.306 209.734 316.901 209.237 318.813 210.517C320.762 211.822 321.258 214.418 319.955 216.369ZM329.34 189.085L334.716 192.7L321.929 210.144L318.006 207.51L329.328 189.085H329.34Z" fill="#464646"/>
<path d="M403.233 254.675C403.233 253.755 404.624 253.022 406.337 253.022C408.05 253.022 409.441 253.768 409.441 254.675V329.471C409.441 330.391 408.05 331.124 406.337 331.124C404.624 331.124 403.233 330.378 403.233 329.471V254.675V254.675Z" fill="#C4C4C4" stroke="#464646" stroke-width="2" stroke-miterlimit="10"/>
<path d="M366.92 271.311C363.667 271.311 360.663 269.572 359.037 266.751C357.41 263.931 357.41 260.465 359.037 257.644L398.454 189.308C400.08 186.488 403.084 184.748 406.337 184.748C409.59 184.748 412.594 186.488 414.22 189.308L453.637 257.644C455.263 260.465 455.263 263.931 453.637 266.751C452.011 269.572 449.006 271.311 445.754 271.311H366.908H366.92Z" fill="#F36B5F" stroke="#464646" stroke-width="2" stroke-miterlimit="10"/>
<path d="M415.201 252.625C415.201 256.203 412.308 259.098 408.671 259.098C405.033 259.098 402.203 256.203 402.203 252.625C402.203 249.046 405.095 246.102 408.671 246.102C412.246 246.102 415.201 248.996 415.201 252.625ZM403.68 209.411H413.724L412.358 242.908H405.033L403.668 209.411H403.68Z" fill="white"/>
<path d="M126.657 294.135C126.657 294.135 127.414 303.317 120.276 307.517" stroke="#464646" stroke-width="2" stroke-linecap="round" stroke-linejoin="round"/>
<path d="M134.689 297.925C134.689 297.925 135.447 307.107 128.308 311.306" stroke="#464646" stroke-width="2" stroke-linecap="round" stroke-linejoin="round"/>
<path d="M320.774 262.44C320.774 262.44 327.814 268.379 325.753 276.405" stroke="#464646" stroke-width="2" stroke-linecap="round" stroke-linejoin="round"/>
<path d="M329.117 259.421C329.117 259.421 336.156 265.36 334.096 273.386" stroke="#464646" stroke-width="2" stroke-linecap="round" stroke-linejoin="round"/>
<path d="M14.2417 289.812H35.9675" stroke="#464646" stroke-width="2" stroke-linecap="round" stroke-linejoin="round"/>
<path d="M25.1045 298.521H46.8303" stroke="#464646" stroke-width="2" stroke-linecap="round" stroke-linejoin="round"/>
<path d="M41.5537 289.812H49.0026" stroke="#464646" stroke-width="2" stroke-linecap="round" stroke-linejoin="round"/>
<path d="M504.004 232.534H531.937" stroke="#464646" stroke-width="2" stroke-linecap="round" stroke-linejoin="round"/>
<path d="M538.145 232.534H544.352" stroke="#464646" stroke-width="2" stroke-linecap="round" stroke-linejoin="round"/>
<path d="M436.343 293.378H460.552" stroke="#464646" stroke-width="2" stroke-linecap="round" stroke-linejoin="round"/>
<path d="M464.897 293.378H476.071" stroke="#464646" stroke-width="2" stroke-linecap="round" stroke-linejoin="round"/>
<path d="M270.405 122.62H223.005C230.069 122.62 235.805 116.88 235.805 109.81C235.805 102.74 230.082 97 223.018 97H149.411C142.347 97 136.611 102.74 136.611 109.81C136.611 116.88 142.347 122.62 149.411 122.62H132.8C125.723 122.62 120 128.36 120 135.43C120 142.499 125.736 148.24 132.8 148.24H270.405C277.469 148.24 283.204 142.499 283.204 135.43C283.204 128.36 277.469 122.62 270.405 122.62V122.62Z" fill="white"/>
<path d="M486.002 331.211L490.658 298.521H494.072V331.136L486.002 331.211Z" fill="#D7C49F" stroke="#464646" stroke-width="2" stroke-linejoin="round"/>
<path d="M503.482 245.617H479.075C475.187 245.617 472.036 248.771 472.036 252.662V301.727C472.036 305.618 475.187 308.772 479.075 308.772H503.482C507.37 308.772 510.521 305.618 510.521 301.727V252.662C510.521 248.771 507.37 245.617 503.482 245.617Z" fill="#AFCF7C" stroke="#464646" stroke-width="2" stroke-linejoin="round"/>
<path d="M528.883 331.211L524.228 298.521H520.813V331.136L528.883 331.211Z" fill="#D7C49F" stroke="#464646" stroke-width="2" stroke-linejoin="round"/>
<path d="M541.248 263.521H508.461C504.573 263.521 501.421 266.675 501.421 270.566V304.113C501.421 308.003 504.573 311.157 508.461 311.157H541.248C545.136 311.157 548.287 308.003 548.287 304.113V270.566C548.287 266.675 545.136 263.521 541.248 263.521Z" fill="#A1CC7C" stroke="#464646" stroke-width="2" stroke-linejoin="round"/>
<path d="M85.5301 273.276L300.912 313.438C307.421 314.652 313.679 310.36 314.893 303.851L316.79 293.681C318.869 282.533 312.854 271.454 302.372 267.128L253.365 246.898C251.573 234.995 250.477 222.99 248.394 211.128C246.557 200.661 244.075 191.248 233.564 186.437C225.924 182.939 214.271 178.464 200.177 175.836C174.536 171.055 148.798 166.866 127.83 177.994C106.863 189.122 90.8643 244.689 89.8852 249.94L85.5336 273.276L85.5301 273.276Z" fill="#61D2D4"/>
<path opacity="0.9" d="M261.002 273.459C278.561 276.733 290.144 293.621 286.869 311.183C286.435 313.51 285.762 315.734 284.881 317.828L222.73 305.853C222.691 303.703 222.869 301.518 223.278 299.325C226.552 281.767 243.44 270.184 261.002 273.459Z" fill="#3DA8AA" stroke="#3DA8AA" stroke-width="2.26972" stroke-miterlimit="10"/>
<path opacity="0.9" d="M113.568 244.102C131.126 247.376 142.709 264.264 139.434 281.826C139 284.153 138.328 286.377 137.446 288.471L75.2952 276.496C75.256 274.346 75.4343 272.161 75.8433 269.968C79.1174 252.41 96.0059 240.827 113.568 244.102V244.102Z" fill="#3DA8AA" stroke="#3DA8AA" stroke-width="2.26972" stroke-miterlimit="10"/>
<path d="M251.031 326.932C239.059 324.699 231.164 313.184 233.396 301.212C235.629 289.24 247.144 281.345 259.116 283.577C271.088 285.809 278.983 297.325 276.751 309.297C274.518 321.269 263.003 329.164 251.031 326.932Z" fill="#272425"/>
<path d="M246.84 310.902C243.722 306.354 244.881 300.139 249.429 297.02C253.977 293.901 260.192 295.06 263.311 299.609C266.429 304.157 265.27 310.372 260.722 313.49C256.174 316.609 249.959 315.45 246.84 310.902Z" fill="#CFD1D2"/>
<path d="M252.804 317.429C259.516 318.68 265.996 314.237 267.248 307.525C268.5 300.812 264.057 294.332 257.344 293.08C250.631 291.828 244.151 296.272 242.9 302.984C241.648 309.697 246.091 316.177 252.804 317.429V317.429ZM256.464 297.797C260.576 298.563 263.302 302.534 262.534 306.649C261.767 310.765 257.797 313.487 253.682 312.719C249.566 311.952 246.844 307.982 247.612 303.867C248.379 299.751 252.349 297.029 256.464 297.797Z" fill="#EEEFEF"/>
<path d="M103.597 297.575C91.6246 295.342 83.7291 283.827 85.9615 271.855C88.194 259.883 99.709 251.987 111.681 254.22C123.653 256.452 131.549 267.967 129.316 279.939C127.084 291.911 115.569 299.807 103.597 297.575Z" fill="#272425"/>
<path d="M97.673 276.368C97.4116 270.859 101.665 266.182 107.174 265.92C112.682 265.659 117.359 269.912 117.621 275.421C117.882 280.929 113.629 285.607 108.12 285.868C102.612 286.13 97.9345 281.876 97.673 276.368Z" fill="#CFD1D2"/>
<path d="M105.369 288.071C112.081 289.323 118.561 284.88 119.813 278.167C121.065 271.455 116.621 264.975 109.909 263.723C103.196 262.471 96.7162 266.914 95.4645 273.627C94.2128 280.34 98.6559 286.82 105.369 288.071ZM109.029 268.439C113.141 269.206 115.867 273.177 115.099 277.292C114.332 281.407 110.362 284.129 106.247 283.362C102.131 282.595 99.4094 278.625 100.177 274.509C100.944 270.394 104.914 267.672 109.029 268.439Z" fill="#EEEFEF"/>
<path d="M316.988 286.28C315.451 286.663 313.81 286.743 312.151 286.433C305.969 285.281 301.892 279.334 303.045 273.152C303.372 271.399 304.095 269.824 305.091 268.479C311.702 272.246 316.057 278.888 316.991 286.281L316.988 286.28Z" fill="#EEEFEF"/>
<path d="M302.366 293.798L319.78 297.046L318.002 306.58L300.588 303.333L302.366 293.798Z" fill="#EEEFEF"/>
<path d="M223.589 194.29C232.238 198.267 234.271 206.065 235.771 214.735C237.47 224.561 238.361 234.506 239.824 244.369L113.978 220.902C119.599 207.157 127.53 192.241 136.567 187.406C153.841 178.164 175.019 181.608 196.12 185.542C207.718 187.705 217.305 191.402 223.589 194.29V194.29Z" fill="#272425"/>
<path d="M217.188 231.7L237.899 235.562C239.199 235.805 240.454 234.948 240.697 233.644C240.94 232.34 240.082 231.089 238.779 230.846L218.068 226.984C216.767 226.741 215.513 227.598 215.27 228.902C215.027 230.206 215.884 231.457 217.188 231.7Z" fill="#EEEFEF"/>
<path d="M142.76 210.341L155.202 212.661C156.502 212.903 157.757 212.046 158 210.742C158.243 209.438 157.385 208.188 156.081 207.944L143.64 205.624C142.34 205.382 141.085 206.239 140.842 207.543C140.599 208.847 141.457 210.098 142.76 210.341Z" fill="#EEEFEF"/>
<path d="M113.535 223.26L239.385 246.727C240.147 246.87 240.93 246.634 241.488 246.098C242.046 245.562 242.311 244.786 242.196 244.019C241.592 239.96 241.079 235.81 240.581 231.789C239.871 226.06 239.139 220.137 238.131 214.327C236.61 205.537 234.312 196.584 224.588 192.113C218.415 189.274 208.544 185.422 196.556 183.187C177.662 179.664 154.146 175.279 135.43 185.295C127.375 189.605 119.411 201.281 111.753 220C111.48 220.666 111.521 221.422 111.868 222.055C112.212 222.69 112.824 223.131 113.534 223.263L113.535 223.26ZM236.978 241.402L117.33 219.091C124.101 203.239 131.116 193.041 137.693 189.521C153.626 180.993 173.381 183.742 195.677 187.9C207.18 190.045 216.658 193.743 222.587 196.471C230.214 199.977 231.998 207.005 233.407 215.148C234.392 220.845 235.12 226.712 235.823 232.382C236.191 235.342 236.564 238.375 236.981 241.402L236.978 241.402Z" fill="#424243"/>
<path d="M155.942 288.846C157.243 289.088 158.497 288.231 158.74 286.927L178.169 182.737C178.411 181.436 177.554 180.182 176.25 179.939C174.946 179.696 173.695 180.553 173.452 181.857L154.024 286.048C153.781 287.348 154.638 288.603 155.942 288.846Z" fill="#EEEFEF"/>
<path d="M140.707 240.266L153.374 242.628C154.674 242.871 155.928 242.014 156.172 240.71C156.415 239.406 155.557 238.155 154.253 237.912L141.587 235.55C140.287 235.307 139.032 236.164 138.789 237.468C138.546 238.772 139.404 240.023 140.707 240.266Z" fill="#424243"/>
<path d="M174.995 246.66L187.661 249.022C188.962 249.264 190.216 248.407 190.459 247.103C190.702 245.799 189.845 244.548 188.541 244.305L175.875 241.943C174.574 241.701 173.32 242.558 173.077 243.862C172.833 245.166 173.691 246.417 174.995 246.66Z" fill="#424243"/>
</svg>
