<svg width="27" height="27" viewBox="0 0 27 27" fill="none" xmlns="http://www.w3.org/2000/svg">
<rect width="27" height="27" rx="3.08571" fill="#EAECF4"/>
<g clip-path="url(#clip0_822_2)">
<path d="M20.9749 14.333C20.9065 14.5982 20.666 14.784 20.4152 14.7632C20.1188 14.7381 19.8949 14.523 19.8804 14.2391C19.8721 14.0971 19.8721 13.9551 19.8742 13.8131C19.8825 13.4957 20.0856 13.2702 20.3883 13.2389C20.6619 13.2097 20.9085 13.3997 20.9811 13.6962C20.9832 13.7087 20.9935 13.7171 21.0018 13.7275V13.7818C20.9707 13.9154 20.9956 14.0532 20.9873 14.1869C20.9832 14.237 20.9998 14.2871 20.9749 14.3351V14.333Z" fill="#5BC3C4"/>
<path d="M20.9751 14.333C20.9897 14.1493 20.9441 13.9614 21.0021 13.7797V14.331H20.9751V14.333Z" fill="#252525"/>
<path d="M13.9272 8.14007C12.7333 8.15678 11.5704 8.51591 10.5464 9.27594C9.36699 10.1487 8.60832 11.3055 8.27667 12.7441C8.11499 13.4498 8.09219 14.1598 8.19583 14.8759C8.4197 16.4127 9.12446 17.678 10.3205 18.6573C11.0833 19.2816 11.9539 19.6762 12.9157 19.8683C13.3406 19.9539 13.5438 20.3465 13.3531 20.7014C13.2349 20.9228 12.9924 21.0397 12.7416 20.9875C10.5299 20.5344 8.87158 19.3108 7.79991 17.3126C7.20915 16.2164 6.95212 15.0242 7.00601 13.7777C7.07442 12.1887 7.61129 10.773 8.62491 9.54947C9.67999 8.27162 11.019 7.46774 12.6338 7.1441C14.4662 6.77661 16.1784 7.11069 17.7579 8.11084C17.8739 8.18392 17.9237 8.17766 17.9921 8.06073C18.0957 7.88742 18.216 7.72665 18.332 7.5617C18.3797 7.49488 18.4315 7.4218 18.531 7.44268C18.6202 7.46147 18.645 7.54291 18.6658 7.61599C18.8357 8.22359 19.0036 8.8312 19.1674 9.44089C19.2358 9.69563 19.1177 9.86267 18.8544 9.88772C18.5414 9.91904 18.2284 9.9441 17.9154 9.97333C17.6335 9.99839 17.3537 10.0234 17.0718 10.0485C17.0303 10.0527 16.9909 10.0569 16.9495 10.0569C16.7712 10.0548 16.7049 9.94827 16.8023 9.79585C16.9267 9.59749 17.0614 9.40748 17.1961 9.21748C17.2479 9.14648 17.2417 9.11725 17.165 9.06714C16.1991 8.45118 15.1419 8.14425 13.9272 8.1359V8.14007Z" fill="#5BC3C4"/>
<path d="M13.2024 12.1699C13.2024 11.4349 13.2024 10.702 13.2024 9.96706C13.2024 9.68727 13.3682 9.49726 13.6149 9.47847C13.8802 9.45967 14.0958 9.64759 14.1061 9.91694C14.1124 10.0902 14.1061 10.2656 14.1061 10.441C14.1061 11.5602 14.1061 12.6814 14.1041 13.8006C14.1041 13.9029 14.1269 13.9593 14.2264 14.0094C15.3872 14.6087 16.5438 15.2121 17.7005 15.8176C17.9513 15.9492 18.0487 16.1266 17.9948 16.3584C17.9326 16.6257 17.6611 16.7802 17.4061 16.682C17.2714 16.6298 17.1449 16.5568 17.0144 16.4899C15.7789 15.8468 14.5456 15.2037 13.3102 14.5648C13.2231 14.5189 13.1982 14.4709 13.1982 14.3769C13.2024 13.6419 13.1982 12.909 13.1982 12.1741L13.2024 12.1699Z" fill="#5BC3C4"/>
<path d="M19.1362 17.3857C19.5777 17.3857 19.8472 17.8513 19.6357 18.223C19.5383 18.3942 19.4119 18.5487 19.2688 18.6823C19.074 18.8661 18.7631 18.8702 18.5537 18.7032C18.3402 18.5341 18.2739 18.2167 18.4128 17.9849C18.5123 17.82 18.6346 17.6696 18.7693 17.5339C18.8729 17.4295 19.0056 17.3836 19.1362 17.3878V17.3857Z" fill="#5BC3C4"/>
<path d="M15.5488 19.7827C15.8203 19.7827 16.0566 19.9748 16.1043 20.2379C16.154 20.5135 16.0069 20.787 15.7436 20.8726C15.5716 20.929 15.3912 20.9687 15.213 20.9917C14.9476 21.0251 14.6989 20.8392 14.6305 20.5762C14.56 20.3047 14.6885 20.0291 14.9394 19.9143C15.0326 19.8725 15.4472 19.7827 15.5508 19.7827H15.5488Z" fill="#5BC3C4"/>
<path d="M20.7019 16.041C20.6542 16.2415 20.6024 16.4941 20.4531 16.7071C20.2998 16.9243 20.0054 16.9848 19.7691 16.8637C19.5224 16.7384 19.4001 16.4774 19.4768 16.206C19.5204 16.0515 19.5743 15.9011 19.6364 15.7529C19.7442 15.5002 20.0096 15.3729 20.279 15.4334C20.5278 15.4898 20.706 15.7216 20.704 16.0389L20.7019 16.041Z" fill="#5BC3C4"/>
<path d="M20.047 12.5771C19.8687 12.5666 19.6925 12.4622 19.5992 12.2409C19.537 12.0947 19.4832 11.9423 19.4396 11.7899C19.3629 11.5226 19.4956 11.2449 19.7485 11.1301C19.9993 11.0173 20.304 11.0988 20.4429 11.3368C20.5548 11.5268 20.6315 11.7356 20.6667 11.9527C20.7206 12.2868 20.4387 12.5875 20.0449 12.5771H20.047Z" fill="#5BC3C4"/>
<path d="M17.2274 20.2275C16.9891 20.2316 16.7693 20.0792 16.6906 19.8558C16.6097 19.6303 16.6781 19.3693 16.8709 19.2273C17.0139 19.1229 17.1653 19.0269 17.3228 18.9454C17.5322 18.8368 17.7975 18.8974 17.9612 19.0707C18.1291 19.2482 18.1623 19.5196 18.0441 19.7326C17.9343 19.933 17.4534 20.2233 17.2274 20.2275Z" fill="#5BC3C4"/>
</g>
<defs>
<clipPath id="clip0_822_2">
<rect width="14" height="14" fill="white" transform="translate(7 7)"/>
</clipPath>
</defs>
</svg>
