<svg width="36" height="36" viewBox="0 0 36 36" fill="none" xmlns="http://www.w3.org/2000/svg">
<rect width="36" height="36" rx="10" transform="matrix(-1 0 0 1 36 0)" fill="white"/>
<path d="M22.6118 10C23.1977 10.0116 23.7049 10.2067 24.1221 10.6102C24.5489 11.0236 24.9718 11.4416 25.3849 11.8691C26.2007 12.7135 26.2046 14.0429 25.399 14.8975C25.2011 15.1077 24.9923 15.3077 24.7881 15.5119C21.984 18.3161 19.1791 21.1198 16.3771 23.9261C16.2516 24.0516 16.1133 24.1366 15.9454 24.192C14.186 24.7747 12.4274 25.3595 10.6701 25.9486C10.4627 26.018 10.2765 26.0237 10.1171 25.8604C9.96541 25.7055 9.98305 25.5246 10.0472 25.3331C10.6437 23.5486 11.2377 21.7635 11.8299 19.9777C11.8694 19.8585 11.9294 19.7594 12.0182 19.6705C15.0156 16.6756 18.0131 13.6792 21.0087 10.6818C21.4542 10.2356 21.9871 10.0053 22.6118 10Z" fill="#434A54"/>
<path d="M23.6541 15.4438C23.6079 15.4795 23.5642 15.5059 23.5289 15.5408C21.7681 17.3002 20.008 19.0603 18.248 20.8203C17.5252 21.5431 16.8008 22.2647 16.0816 22.991C15.9962 23.0774 15.9535 23.0851 15.8629 22.9941C14.9162 22.0397 13.9653 21.0888 13.0111 20.1414C12.9254 20.0563 12.9173 20.0161 13.008 19.9255C15.4978 17.4416 17.9845 14.9546 20.469 12.4651C20.5558 12.378 20.596 12.3748 20.6849 12.4644C21.6358 13.4228 22.5921 14.3758 23.5465 15.3306C23.5769 15.361 23.6058 15.3927 23.6537 15.4431L23.6541 15.4438Z" fill="#FEFEFE"/>
<path d="M25.1179 13.4439C25.1203 13.6985 25.0237 13.9952 24.8082 14.2431C24.659 14.4145 24.49 14.5683 24.3348 14.7345C24.2752 14.7983 24.241 14.7778 24.1891 14.726C23.2171 13.7514 22.2439 12.7783 21.269 11.8065C21.2115 11.749 21.2126 11.7173 21.2715 11.6626C21.4295 11.5152 21.5751 11.3533 21.7367 11.2101C22.2407 10.7636 22.9871 10.7565 23.4798 11.2161C23.926 11.6323 24.351 12.0714 24.7761 12.5095C25.0046 12.7451 25.1097 13.0411 25.1179 13.4439Z" fill="#FEFEFE"/>
<path d="M12.4664 20.8655C13.3602 21.7596 14.2395 22.639 15.1323 23.532C13.8082 23.9733 12.4851 24.4142 11.1289 24.866C11.5811 23.514 12.0223 22.1942 12.4664 20.8658V20.8655Z" fill="#FEFEFE"/>
</svg>
