<svg width="318" height="181" viewBox="0 0 318 181" fill="none" xmlns="http://www.w3.org/2000/svg">
<path d="M295.752 96.5617C295.752 96.5617 291.326 94.0043 286.753 104.495C282.18 114.986 280.564 120.971 280.564 120.971C280.564 120.971 279.323 123.186 277.774 121.879C276.224 120.572 273.98 116.741 271.532 117.601C268.994 118.495 268.319 121.428 269.065 125.634C269.812 129.841 271.109 139.111 271.223 139.952C271.337 140.775 270.933 142.025 269.735 141.302C268.538 140.58 261.479 133.611 258.375 137.157C255.266 140.703 259.273 152.078 259.686 153.329C260.1 154.579 259.886 155.14 259.301 155.491C258.717 155.843 256.563 153.276 254.477 151.375C252.39 149.474 249.633 147.639 248.012 149.835C246.391 152.031 246.353 160.749 255.465 174.354L260.1 180.381L267.687 179.502C283.806 176.631 290.062 170.556 290.518 167.865C290.974 165.174 287.742 164.461 284.923 164.276C282.104 164.091 278.762 164.319 278.61 163.653C278.458 162.988 278.71 162.446 279.899 161.876C281.087 161.305 292.058 156.304 292.457 151.603C292.857 146.907 282.941 146.655 281.591 146.289C280.241 145.927 280.864 144.772 281.534 144.283C282.218 143.783 289.8 138.288 293.346 135.907C296.893 133.53 298.537 131.006 297.42 128.558C296.346 126.195 292.025 127.241 290.009 127.032C287.994 126.823 288.731 124.389 288.731 124.389C288.731 124.389 291.925 119.075 296.308 108.503C300.691 97.9307 295.652 96.5094 295.652 96.5094" fill="#E0E0E0"/>
<path d="M260.39 178.812C263.637 171.059 268.214 160.388 273.315 148.618C278.411 136.853 283.012 126.195 286.306 118.461C287.946 114.601 289.273 111.474 290.195 109.301C290.651 108.227 291.008 107.39 291.255 106.81C291.374 106.535 291.469 106.321 291.535 106.164C291.602 106.021 291.64 105.945 291.64 105.945C291.64 105.945 291.616 106.021 291.559 106.173C291.497 106.33 291.412 106.549 291.302 106.829C291.065 107.414 290.723 108.255 290.285 109.339C289.401 111.516 288.099 114.658 286.473 118.533C283.226 126.286 278.649 136.953 273.553 148.722C268.457 160.492 263.851 171.15 260.561 178.884" fill="#C5C5C5"/>
<path d="M274.456 123.091C274.456 123.091 274.551 123.262 274.684 123.595C274.817 123.923 274.993 124.403 275.202 124.997C275.621 126.191 276.158 127.85 276.714 129.699C277.251 131.515 277.741 133.159 278.116 134.429C278.287 134.989 278.43 135.465 278.549 135.859C278.653 136.197 278.701 136.387 278.682 136.392C278.663 136.396 278.582 136.221 278.449 135.893C278.321 135.565 278.145 135.085 277.94 134.486C277.532 133.288 277.018 131.619 276.467 129.775C275.915 127.964 275.416 126.324 275.031 125.059C274.86 124.498 274.713 124.023 274.594 123.628C274.494 123.291 274.447 123.101 274.461 123.096L274.456 123.091Z" fill="#C5C5C5"/>
<path d="M279.385 136.482C279.361 136.415 282.736 135.156 286.924 133.677C291.112 132.194 294.53 131.049 294.554 131.115C294.578 131.182 291.202 132.441 287.015 133.92C282.827 135.403 279.409 136.549 279.385 136.482Z" fill="#C5C5C5"/>
<path d="M270.743 154.203C270.743 154.203 270.943 154.165 271.3 154.137C271.713 154.113 272.222 154.084 272.821 154.046C274.104 153.97 275.882 153.856 277.836 153.661C279.789 153.471 281.553 153.238 282.832 153.062C283.426 152.982 283.93 152.91 284.343 152.853C284.7 152.806 284.9 152.791 284.904 152.806C284.904 152.825 284.714 152.872 284.362 152.953C284.011 153.029 283.497 153.134 282.86 153.243C281.591 153.467 279.823 153.728 277.864 153.918C275.906 154.113 274.123 154.194 272.83 154.227C272.184 154.241 271.661 154.241 271.304 154.237C270.943 154.232 270.743 154.218 270.743 154.199V154.203Z" fill="#C5C5C5"/>
<path d="M263.623 143.07C263.623 143.07 263.751 143.204 263.951 143.475C264.145 143.745 264.421 144.14 264.759 144.63C265.434 145.614 266.351 146.978 267.349 148.494C268.348 150.011 269.241 151.394 269.878 152.402C270.197 152.906 270.449 153.314 270.62 153.604C270.791 153.89 270.876 154.056 270.862 154.065C270.848 154.075 270.734 153.932 270.534 153.661C270.339 153.39 270.064 152.996 269.726 152.506C269.051 151.522 268.134 150.158 267.135 148.642C266.137 147.125 265.244 145.742 264.611 144.734C264.293 144.23 264.041 143.822 263.87 143.532C263.699 143.246 263.613 143.08 263.627 143.07H263.623Z" fill="#C5C5C5"/>
<path d="M254.006 157.745C254.006 157.745 254.168 157.921 254.42 158.268C254.695 158.657 255.047 159.152 255.461 159.746C256.331 161.001 257.519 162.741 258.817 164.675C260.114 166.61 261.279 168.369 262.111 169.648C262.501 170.256 262.829 170.769 263.085 171.173C263.309 171.535 263.428 171.744 263.413 171.753C263.399 171.763 263.252 171.578 263 171.231C262.724 170.841 262.372 170.346 261.959 169.752C261.089 168.497 259.9 166.757 258.603 164.823C257.305 162.888 256.14 161.129 255.309 159.851C254.919 159.242 254.591 158.729 254.334 158.325C254.111 157.963 253.992 157.754 254.006 157.745Z" fill="#C5C5C5"/>
<path d="M263.28 171.354C263.28 171.354 263.532 171.302 263.984 171.254C264.488 171.207 265.134 171.145 265.909 171.074C267.535 170.917 269.783 170.698 272.255 170.384C274.727 170.075 276.961 169.738 278.577 169.481C279.347 169.362 279.989 169.263 280.488 169.182C280.94 169.115 281.192 169.082 281.197 169.101C281.197 169.12 280.954 169.182 280.507 169.282C280.06 169.381 279.409 169.514 278.606 169.662C276.999 169.961 274.765 170.332 272.288 170.641C269.812 170.955 267.559 171.145 265.923 171.254C265.106 171.307 264.445 171.34 263.989 171.354C263.532 171.368 263.276 171.368 263.276 171.354H263.28Z" fill="#C5C5C5"/>
<path d="M126.863 128.739L36.2648 100.536C33.9356 99.8132 32.6379 97.3366 33.3604 95.0073L50.7822 39.039C51.5047 36.7097 53.9813 35.412 56.3105 36.1346L146.909 64.3374C149.238 65.0599 150.535 67.5365 149.813 69.861L132.391 125.829C131.669 128.159 129.192 129.456 126.863 128.734V128.739Z" fill="#E0E0E0"/>
<path d="M131.868 76.0929C130.694 79.8672 126.682 81.973 122.908 80.7989C119.134 79.6248 117.028 75.6128 118.202 71.8385C119.376 68.0641 123.388 65.9583 127.162 67.1324C130.937 68.3066 133.042 72.3186 131.868 76.0976V76.0929Z" fill="white"/>
<path d="M132.353 83.9268C131.916 83.8697 131.483 83.7794 131.056 83.6463C127.134 82.4246 124.938 78.2415 126.155 74.3198C127.376 70.3982 131.559 68.1972 135.481 69.4189C139.403 70.6406 141.599 74.8237 140.382 78.7501C139.793 80.6516 138.495 82.206 136.731 83.1329C135.367 83.8507 133.846 84.1217 132.349 83.9315L132.353 83.9268ZM134.126 69.7184C130.889 69.3096 127.719 71.2681 126.716 74.491C125.589 78.1037 127.614 81.9588 131.231 83.0854C132.981 83.632 134.839 83.4609 136.465 82.61C138.091 81.7591 139.284 80.3236 139.826 78.5743C140.952 74.9616 138.927 71.1017 135.31 69.9798C134.915 69.8562 134.521 69.7707 134.126 69.7231V69.7184Z" fill="white"/>
<path d="M48.0394 78.7597L46.3281 84.2595L45.7625 84.0837L47.3169 79.0877L46.0191 78.6836L46.176 78.1797L48.0346 78.7597H48.0394Z" fill="white"/>
<path d="M52.137 85.5145L51.9801 86.0184L48.125 84.8205L48.2486 84.4212L51.2291 82.8953C52.0419 82.477 52.2748 82.1442 52.3889 81.7687C52.5886 81.1317 52.2606 80.5993 51.424 80.3379C50.7775 80.1382 50.2261 80.181 49.7317 80.4852L49.437 80.0146C50.0169 79.6439 50.787 79.5726 51.6284 79.834C52.7455 80.181 53.2731 80.9654 52.9879 81.8875C52.8263 82.4152 52.5125 82.8335 51.5476 83.3279L49.1042 84.5828L52.1275 85.524L52.137 85.5145Z" fill="white"/>
<path d="M58.2215 86.3749L57.1235 86.0326L56.6719 87.4777L56.1062 87.3018L56.5578 85.8568L53.4537 84.8918L53.5821 84.483L57.6321 81.7449L58.2596 81.9398L54.3426 84.6161L56.7289 85.3576L57.1235 84.0837L57.6749 84.2548L57.2803 85.5288L58.3784 85.871L58.2215 86.3749Z" fill="white"/>
<path d="M66.6448 88.9989L65.5467 88.6566L65.0951 90.1017L64.5294 89.9258L64.981 88.4807L61.877 87.5157L62.0053 87.1069L66.0553 84.3689L66.6828 84.5638L62.7659 87.24L65.1522 87.9816L65.5467 86.7076L66.0981 86.8788L65.7036 88.1527L66.8016 88.495L66.6448 88.9989Z" fill="white"/>
<path d="M71.503 90.3203C71.213 91.2568 70.3336 91.7844 68.9883 91.3661C68.1945 91.1189 67.5242 90.6103 67.239 90.0446L67.6526 89.6834C67.8902 90.1635 68.4369 90.6246 69.1404 90.8432C70.0769 91.1332 70.7139 90.8337 70.9183 90.1635C71.1369 89.4552 70.8327 88.88 69.4352 88.4474L68.2658 88.0814L69.4066 85.4147L72.4156 86.3511L72.2588 86.855L69.7441 86.0707L69.0121 87.7629L69.7204 87.9816C71.3794 88.4997 71.8024 89.3459 71.4982 90.3203H71.503Z" fill="white"/>
<path d="M76.9458 91.9888C76.6273 93.0156 75.61 93.4244 74.5405 93.0916C73.0811 92.6353 72.601 91.3756 73.1429 89.6406C73.7229 87.7724 75.0491 87.1164 76.5417 87.5823C77.0361 87.7344 77.4734 87.9673 77.7539 88.2858L77.3831 88.6708C77.1597 88.3951 76.8032 88.205 76.3944 88.0814C75.2107 87.7106 74.2077 88.2383 73.7466 89.7309C73.7086 89.8545 73.6658 90.0161 73.6326 90.1872C74.0937 89.6691 74.8447 89.5312 75.6053 89.7689C76.6986 90.1064 77.2595 90.9906 76.9458 91.9936V91.9888ZM76.3849 91.832C76.6083 91.1094 76.2185 90.4819 75.3724 90.2157C74.531 89.9543 73.7989 90.2918 73.585 90.9763C73.3949 91.58 73.7229 92.3121 74.6688 92.6068C75.4627 92.854 76.1567 92.564 76.3849 91.832Z" fill="white"/>
<path d="M84.4469 94.3942C84.1617 95.3116 83.2728 95.8107 81.9466 95.3972C81.1527 95.15 80.4777 94.6366 80.1877 94.0757L80.6013 93.7144C80.839 94.1945 81.3904 94.6604 82.1082 94.879C83.0209 95.1642 83.6531 94.8933 83.867 94.2135C84.0714 93.5528 83.7434 92.9776 82.7214 92.6591L82.3268 92.5355L82.4552 92.1172L84.5753 90.6816L81.7659 89.807L81.9228 89.3031L85.4547 90.4012L85.3311 90.8005L83.1682 92.2693C84.3281 92.6971 84.7226 93.5052 84.4469 94.3846V94.3942Z" fill="white"/>
<path d="M89.9752 96.0436C89.6567 97.0704 88.6395 97.4792 87.5747 97.1464C86.1153 96.6901 85.6352 95.4304 86.1771 93.6954C86.7571 91.8272 88.0833 91.1712 89.5759 91.6371C90.0703 91.7892 90.5076 92.0221 90.7881 92.3406L90.4173 92.7257C90.1939 92.4499 89.8374 92.2598 89.4285 92.1362C88.2449 91.7654 87.2419 92.2931 86.7808 93.7857C86.7428 93.9093 86.7 94.0709 86.6667 94.242C87.1278 93.7239 87.8789 93.586 88.6395 93.8237C89.7328 94.1612 90.2937 95.0454 89.98 96.0484L89.9752 96.0436ZM89.4143 95.8868C89.6377 95.1642 89.2479 94.5368 88.4018 94.2706C87.5604 94.0091 86.8284 94.3466 86.6144 95.0311C86.4243 95.6348 86.7475 96.3669 87.6983 96.6616C88.4921 96.9088 89.1861 96.6141 89.4143 95.8868Z" fill="white"/>
<path d="M96.2357 93.7619L96.1121 94.1612L92.2237 98.544L91.6105 98.3538L95.4276 94.0614L92.5992 93.182L92.2807 94.2087L91.7246 94.0328L92.1999 92.5022L96.2357 93.7571V93.7619Z" fill="white"/>
<path d="M104.093 96.21L103.97 96.6093L100.081 100.992L99.468 100.802L103.285 96.5095L100.457 95.6301L100.138 96.6568L99.5821 96.481L100.057 94.9503L104.093 96.2053V96.21Z" fill="white"/>
<path d="M108.267 101.857C107.963 102.832 106.95 103.179 105.638 102.77C104.317 102.361 103.708 101.505 104.008 100.531C104.212 99.8702 104.735 99.5232 105.486 99.509C104.996 99.1144 104.821 98.6058 105.001 98.0306C105.282 97.1369 106.213 96.8137 107.378 97.175C108.543 97.5362 109.146 98.3348 108.866 99.2332C108.69 99.8084 108.243 100.127 107.611 100.17C108.229 100.612 108.467 101.201 108.267 101.857ZM107.687 101.667C107.896 100.992 107.449 100.388 106.475 100.084C105.5 99.7799 104.797 100.027 104.588 100.702C104.374 101.387 104.816 101.986 105.79 102.29C106.765 102.594 107.478 102.352 107.692 101.667H107.687ZM106.613 99.6373C107.468 99.9035 108.101 99.6801 108.286 99.0811C108.481 98.4632 108.053 97.9165 107.231 97.6598C106.399 97.4031 105.757 97.6123 105.567 98.2255C105.377 98.8292 105.762 99.3711 106.617 99.6373H106.613Z" fill="white"/>
<path d="M114 102.257C113.42 104.125 112.093 104.781 110.601 104.32C110.106 104.167 109.669 103.935 109.389 103.616L109.759 103.231C109.983 103.507 110.339 103.697 110.748 103.82C111.932 104.191 112.935 103.664 113.396 102.171C113.434 102.047 113.477 101.886 113.51 101.715C113.049 102.233 112.298 102.371 111.537 102.133C110.449 101.795 109.883 100.911 110.197 99.9083C110.515 98.8815 111.533 98.4727 112.597 98.8054C114.057 99.2618 114.537 100.521 113.995 102.257H114ZM113.562 100.921C113.752 100.317 113.429 99.585 112.478 99.2903C111.685 99.0431 110.991 99.3331 110.762 100.065C110.539 100.788 110.929 101.415 111.775 101.681C112.616 101.943 113.348 101.601 113.562 100.921Z" fill="white"/>
<path d="M120.417 101.292L118.706 106.787L118.14 106.611L119.694 101.615L118.397 101.211L118.554 100.707L120.412 101.287L120.417 101.292Z" fill="white"/>
<path d="M124.515 108.046L124.358 108.55L120.503 107.348L120.626 106.948L123.607 105.422C124.419 105.004 124.652 104.671 124.766 104.296C124.966 103.659 124.638 103.126 123.797 102.865C123.155 102.665 122.599 102.708 122.105 103.012L121.81 102.542C122.39 102.171 123.16 102.1 124.001 102.361C125.118 102.708 125.646 103.492 125.361 104.415C125.194 104.942 124.885 105.361 123.92 105.855L121.477 107.11L124.5 108.051L124.515 108.046Z" fill="white"/>
<path d="M129.781 108.503C129.496 109.42 128.607 109.919 127.281 109.506C126.487 109.258 125.812 108.745 125.522 108.184L125.936 107.823C126.173 108.303 126.725 108.769 127.443 108.988C128.355 109.273 128.988 109.002 129.201 108.322C129.406 107.661 129.078 107.086 128.056 106.768L127.661 106.644L127.79 106.226L129.905 104.79L127.096 103.915L127.253 103.412L130.789 104.51L130.666 104.909L128.503 106.378C129.663 106.806 130.057 107.609 129.781 108.488V108.503Z" fill="white"/>
<path d="M85.8132 101.017L85.0701 103.405L129.101 117.11L129.844 114.723L85.8132 101.017Z" fill="white"/>
<path d="M105.773 112.462L105.03 114.849L127.615 121.88L128.358 119.492L105.773 112.462Z" fill="white"/>
<g opacity="0.5">
<path d="M52.7119 59.8824L66.6822 64.231C67.9258 64.6181 68.6198 65.9393 68.2327 67.1829L65.3393 76.4783C64.9522 77.7219 63.6309 78.4159 62.3873 78.0288L48.417 73.6802C47.1734 73.2931 46.4794 71.9718 46.8665 70.7282L49.7599 61.4329C50.1471 60.1892 51.4683 59.4953 52.7119 59.8824Z" fill="#EBEBEB"/>
</g>
<path d="M47.3501 69.1575L47.6258 68.2733L57.1377 71.2348C58.2357 71.5771 59.4051 70.9591 59.7474 69.861C60.0896 68.763 59.4621 67.5746 58.3736 67.2513L48.8617 64.2899L49.1374 63.4057L58.6493 66.3672C60.237 66.8615 61.1259 68.5538 60.6315 70.1367C60.1371 71.7244 58.4449 72.6133 56.8572 72.119L47.3453 69.1575H47.3501Z" fill="#E0E0E0"/>
<path d="M60.3329 69.5498L60.0566 70.4346L66.5861 72.4733L66.8624 71.5885L60.3329 69.5498Z" fill="#E0E0E0"/>
<path d="M103.697 63.2876L56.1813 48.4971L54.9126 52.5729L102.429 67.3634L103.697 63.2876Z" fill="white"/>
<path d="M156.149 134.852L82.5739 57.0217C81.7991 56.1994 81.8371 54.9064 82.6548 54.1316L130.941 8.4832C131.764 7.70837 133.057 7.74164 133.832 8.56401L207.412 86.3939C208.187 87.2163 208.149 88.5093 207.331 89.2841L159.04 134.937C158.217 135.712 156.924 135.679 156.149 134.856V134.852Z" fill="#E0E0E0"/>
<g opacity="0.3">
<path d="M156.149 134.852L82.5739 57.0217C81.7991 56.1994 81.8371 54.9064 82.6548 54.1316L130.941 8.4832C131.764 7.70837 133.057 7.74164 133.832 8.56401L207.412 86.3939C208.187 87.2163 208.149 88.5093 207.331 89.2841L159.04 134.937C158.217 135.712 156.924 135.679 156.149 134.856V134.852Z" fill="black"/>
</g>
<path d="M206.875 85.8235L134.369 9.12966C133.294 7.99356 131.507 7.94602 130.371 9.01557L116.652 21.988C116.377 22.2447 116.243 22.625 116.31 22.9958C117.679 30.668 123.169 37.5274 129.706 42.0718C137.611 47.5669 146.97 50.457 155.874 54.122C164.772 57.787 173.704 62.6166 179.038 70.6311C184.072 78.1893 185.265 87.568 187.822 96.286C188.507 98.6105 189.363 100.964 190.408 103.217C190.736 103.92 191.649 104.101 192.215 103.568L206.756 89.8212C207.892 88.7469 207.939 86.9596 206.87 85.8235H206.875Z" fill="#E0E0E0"/>
<path d="M133.299 31.4523C132.643 32.0703 131.773 31.9087 130.827 30.9152L128.974 28.952L132.767 25.3678L134.521 27.2217C135.419 28.1676 135.481 29.0328 134.892 29.589C134.511 29.9455 134.036 30.031 133.58 29.8742C133.846 30.4256 133.775 31.0055 133.299 31.4523ZM132.933 26.8652L132.04 27.7113L132.862 28.586C133.266 29.0138 133.637 29.1041 133.936 28.8236C134.236 28.5432 134.16 28.1676 133.756 27.7398L132.933 26.8699V26.8652ZM132.558 30.4826C132.876 30.1784 132.8 29.7934 132.368 29.337L131.398 28.315L130.461 29.1992L131.431 30.2212C131.864 30.6775 132.234 30.7868 132.558 30.4779V30.4826Z" fill="white"/>
<path d="M136.066 34.8226L134.402 33.059L133.271 33.4916L132.42 32.5932L137.81 30.6965L138.628 31.5617L136.437 36.8429L135.567 35.9207L136.061 34.8179L136.066 34.8226ZM136.47 33.9147L137.354 31.942L135.334 32.712L136.47 33.9147Z" fill="white"/>
<path d="M143.895 37.1329L140.101 40.717L139.422 39.9945L139.935 35.9255L137.634 38.1026L136.817 37.2374L140.61 33.6533L141.295 34.3806L140.776 38.4448L143.077 36.2677L143.895 37.1329Z" fill="white"/>
<path d="M143.743 41.5917L142.73 41.5822L141.77 42.4901L140.943 41.6154L144.736 38.0312L145.563 38.9059L143.79 40.5792H147.151L148.073 41.5584L144.898 41.5869L144.365 45.2376L143.396 44.2156L143.738 41.5917H143.743Z" fill="white"/>
<path d="M116.857 45.6512L116.201 44.9525L115.283 45.8176L114.946 45.4611L115.863 44.5959L114.004 42.6327L114.261 42.3903L118.311 42.0528L118.687 42.4521L114.755 42.7991L116.186 44.3107L116.99 43.5502L117.318 43.8972L116.514 44.6577L117.17 45.3518L116.852 45.6512H116.857Z" fill="white"/>
<path d="M119.357 48.1278C118.777 48.6792 117.926 48.6792 117.132 47.8378C116.657 47.334 116.377 46.6875 116.396 46.1598L116.842 46.0648C116.819 46.5116 117.033 47.0725 117.46 47.5241C118.007 48.0993 118.577 48.1658 119.01 47.757C119.428 47.3625 119.424 46.8111 118.81 46.1646L118.577 45.9174L118.839 45.6702L120.959 45.4943L119.276 43.7118L119.595 43.4123L121.71 45.6512L121.458 45.8889L119.29 46.0743C119.956 46.8586 119.918 47.6049 119.357 48.1278Z" fill="white"/>
<path d="M122.043 50.923C121.453 51.4839 120.598 51.5076 119.794 50.6568C119.319 50.1529 119.043 49.5112 119.062 48.9835L119.509 48.8884C119.485 49.3353 119.694 49.8914 120.117 50.3383C120.678 50.9325 121.263 50.9705 121.686 50.5712C122.133 50.1481 122.147 49.6062 121.311 48.7221L120.612 47.9805L122.528 46.5117L124.329 48.4178L124.011 48.7173L122.504 47.1249L121.282 48.0518L121.705 48.4986C122.699 49.5492 122.661 50.3383 122.043 50.9182V50.923Z" fill="white"/>
<path d="M124.957 53.9747C124.305 54.5926 123.402 54.4738 122.765 53.7988C121.891 52.8719 122.057 51.7643 123.155 50.7232C124.339 49.6062 125.565 49.668 126.459 50.6139C126.754 50.9276 126.977 51.2747 127.053 51.6169L126.63 51.7453C126.582 51.4553 126.397 51.1748 126.155 50.9134C125.446 50.1623 124.505 50.1338 123.559 51.0275C123.478 51.1035 123.383 51.2034 123.288 51.3127C123.835 51.1225 124.434 51.3317 124.89 51.8118C125.546 52.5011 125.594 53.371 124.957 53.9747ZM124.614 53.6324C125.071 53.1998 125.047 52.5866 124.538 52.0495C124.035 51.5171 123.364 51.4648 122.932 51.8736C122.547 52.2349 122.485 52.8956 123.055 53.4993C123.531 54.0032 124.153 54.0745 124.614 53.6372V53.6324Z" fill="white"/>
<path d="M131.032 62.4836L131.341 60.6202L129.458 60.8198L129.083 60.4205L131.403 60.1876L131.745 58.001L132.12 58.4003L131.84 60.1543L133.608 59.9737L133.974 60.3635L131.769 60.5822L131.412 62.8971L131.032 62.4931V62.4836Z" fill="white"/>
<path d="M133.542 65.136L133.851 63.2727L131.968 63.4723L131.593 63.073L133.912 62.8401L134.255 60.6534L134.63 61.0527L134.35 62.8068L136.118 62.6262L136.484 63.016L134.278 63.2346L133.922 65.5496L133.542 65.1456V65.136Z" fill="white"/>
<path d="M136.051 67.7933L136.36 65.9299L134.478 66.1295L134.102 65.7302L136.422 65.4973L136.764 63.3107L137.14 63.71L136.859 65.464L138.628 65.2834L138.994 65.6732L136.788 65.8918L136.432 68.2068L136.051 67.8028V67.7933Z" fill="white"/>
<path d="M138.566 70.4505L138.875 68.5871L136.993 68.7868L136.617 68.3875L138.937 68.1545L139.279 65.9679L139.655 66.3672L139.374 68.1213L141.143 67.9406L141.509 68.3304L139.303 68.5491L138.946 70.8641L138.566 70.46V70.4505Z" fill="white"/>
<path d="M147.232 79.6201L147.541 77.7567L145.658 77.9564L145.283 77.5571L147.603 77.3241L147.945 75.1375L148.32 75.5368L148.04 77.2909L149.808 77.1102L150.174 77.5L147.969 77.7187L147.612 80.0337L147.232 79.6296V79.6201Z" fill="white"/>
<path d="M149.742 82.2726L150.051 80.4092L148.168 80.6088L147.793 80.2095L150.112 79.9766L150.455 77.79L150.83 78.1893L150.55 79.9433L152.318 79.7627L152.684 80.1525L150.478 80.3712L150.122 82.6861L149.742 82.2821V82.2726Z" fill="white"/>
<path d="M152.256 84.9298L152.565 83.0664L150.683 83.2661L150.307 82.8668L152.627 82.6338L152.969 80.4472L153.345 80.8465L153.064 82.6006L154.833 82.4199L155.199 82.8097L152.993 83.0284L152.636 85.3434L152.256 84.9393V84.9298Z" fill="white"/>
<path d="M154.766 87.5871L155.075 85.7237L153.193 85.9233L152.817 85.524L155.137 85.2911L155.479 83.1045L155.855 83.5038L155.574 85.2579L157.343 85.0772L157.709 85.467L155.503 85.6857L155.146 88.0007L154.766 87.5966V87.5871Z" fill="white"/>
<path d="M166.032 92.5308L162.552 95.8202L162.215 95.4637L165.376 92.4737L164.601 91.6513L164.92 91.3519L166.032 92.5308Z" fill="white"/>
<path d="M166.512 98.0116C165.932 98.563 165.081 98.563 164.288 97.7216C163.812 97.2178 163.532 96.5713 163.551 96.0436L163.998 95.9486C163.974 96.3954 164.188 96.9563 164.616 97.4079C165.162 97.9831 165.733 98.0496 166.165 97.6408C166.583 97.2463 166.579 96.6949 165.966 96.0484L165.733 95.8012L165.994 95.554L168.114 95.3781L166.431 93.5956L166.75 93.2961L168.865 95.535L168.613 95.7727L166.446 95.9581C167.111 96.7424 167.073 97.484 166.512 98.0116Z" fill="white"/>
<path d="M169.702 101.553L169.046 100.854L168.128 101.719L167.791 101.363L168.708 100.498L166.85 98.5345L167.106 98.2921L171.156 97.9546L171.532 98.3539L167.601 98.7009L169.032 100.213L169.835 99.452L170.163 99.799L169.36 100.56L170.016 101.258L169.697 101.558L169.702 101.553Z" fill="white"/>
<path d="M171.641 104.8L171.323 105.099L169.013 102.656L169.265 102.418L172.05 102.528C172.811 102.556 173.115 102.409 173.353 102.18C173.757 101.8 173.738 101.282 173.234 100.75C172.849 100.341 172.426 100.146 171.946 100.165L171.922 99.7039C172.492 99.6706 173.082 99.9368 173.586 100.469C174.251 101.177 174.318 101.962 173.738 102.513C173.405 102.827 173.006 103.008 172.107 102.97L169.826 102.884L171.637 104.8H171.641Z" fill="white"/>
<path d="M104.165 48.5414C104.664 48.066 105.386 48.1135 105.876 48.6317C106.147 48.9169 106.27 49.2591 106.228 49.5919L105.767 49.5586C105.79 49.3257 105.724 49.1213 105.567 48.9549C105.272 48.6459 104.844 48.6317 104.531 48.9264C104.217 49.2211 104.207 49.6489 104.502 49.9627C104.659 50.129 104.859 50.2051 105.096 50.1956V50.6567C104.759 50.6804 104.431 50.5426 104.155 50.2526C103.666 49.7392 103.661 49.012 104.165 48.5414Z" fill="white"/>
<path d="M106.442 51.8974L105.714 51.1273L105.22 51.3174L104.849 50.9229L107.212 50.091L107.573 50.4713L106.613 52.7863L106.233 52.3822L106.451 51.8974H106.442ZM106.618 51.4981L107.003 50.6329L106.118 50.9704L106.618 51.4981Z" fill="white"/>
<path d="M107.773 54.0175L107.934 53.2616L107.915 53.2426L107.597 52.9099L107.136 53.3472L106.774 52.9622L108.433 51.3935L109.113 52.1113C109.531 52.5534 109.565 53.0525 109.194 53.4042C108.947 53.6419 108.642 53.6847 108.348 53.5564L108.167 54.4358L107.777 54.0222L107.773 54.0175ZM108.78 52.3822L108.486 52.0685L107.906 52.6152L108.2 52.9289C108.424 53.1618 108.642 53.1808 108.823 53.0097C109.004 52.8386 108.999 52.6152 108.78 52.3822Z" fill="white"/>
<path d="M108.462 54.4215L108.875 54.2789C108.904 54.5165 109.032 54.7923 109.222 54.9919C109.436 55.2201 109.603 55.2391 109.703 55.144C110.012 54.8493 108.885 54.0887 109.503 53.504C109.783 53.2378 110.235 53.2426 110.682 53.7132C110.881 53.9224 111.034 54.1838 111.081 54.431L110.677 54.5878C110.62 54.3502 110.511 54.1505 110.373 54.0032C110.159 53.775 109.988 53.7702 109.883 53.8653C109.579 54.1553 110.701 54.9206 110.092 55.4958C109.817 55.7572 109.36 55.7525 108.909 55.2771C108.662 55.0157 108.486 54.6734 108.462 54.4167V54.4215Z" fill="white"/>
<path d="M113.596 56.8505L111.937 58.4192L111.576 58.0342L112.255 57.3924L111.542 56.6366L110.863 57.2784L110.501 56.8933L112.16 55.3246L112.522 55.7097L111.866 56.3276L112.579 57.0835L113.235 56.4655L113.596 56.8505Z" fill="white"/>
<path d="M113.04 57.9248C113.534 57.459 114.261 57.497 114.76 58.0199C115.255 58.5428 115.255 59.2701 114.76 59.7407C114.266 60.2113 113.534 60.1638 113.044 59.6456C112.55 59.1227 112.55 58.3907 113.044 57.9248H113.04ZM114.39 59.3557C114.703 59.0562 114.713 58.6284 114.432 58.3336C114.152 58.0389 113.724 58.0199 113.41 58.3146C113.097 58.6141 113.087 59.0419 113.372 59.3366C113.653 59.6314 114.081 59.6504 114.394 59.3557H114.39Z" fill="white"/>
<path d="M115.868 59.2511L116.229 59.6361L114.879 60.9101L115.668 61.742L115.355 62.0367L114.204 60.8198L115.863 59.2511H115.868Z" fill="white"/>
<path d="M117.223 60.6866L117.936 61.4425C118.449 61.9844 118.473 62.6689 117.974 63.1442C117.47 63.6196 116.79 63.5578 116.277 63.0111L115.564 62.2553L117.223 60.6866ZM116.571 62.6926C116.885 63.0206 117.285 63.0539 117.603 62.7497C117.921 62.4502 117.912 62.0462 117.603 61.7182L117.27 61.3664L116.239 62.3409L116.571 62.6926Z" fill="white"/>
<path d="M118.943 65.2168L118.635 65.5068L117.418 64.2186L119.077 62.6499L120.265 63.9048L119.956 64.1948L119.129 63.3202L118.768 63.6624L119.495 64.4325L119.195 64.7129L118.468 63.9429L118.083 64.3041L118.939 65.2073L118.943 65.2168Z" fill="white"/>
<path d="M119.928 66.8758L120.089 66.12L120.07 66.101L119.752 65.7682L119.291 66.2055L118.929 65.8205L120.588 64.2518L121.268 64.9696C121.686 65.4117 121.72 65.9108 121.349 66.2626C121.102 66.5003 120.797 66.543 120.503 66.4147L120.322 67.2941L119.932 66.8805L119.928 66.8758ZM120.935 65.2406L120.641 64.9268L120.061 65.4735L120.355 65.7872C120.579 66.0202 120.797 66.0392 120.978 65.868C121.159 65.6969 121.154 65.4735 120.935 65.2406Z" fill="white"/>
<path d="M97.5191 54.5118L98.4033 54.4548C98.3367 54.8493 98.3985 55.1536 98.6124 55.3817C98.8929 55.6765 99.2209 55.6669 99.5726 55.3342L101.094 53.8939L100.029 52.7673L100.623 52.2064L102.382 54.065L100.305 56.0282C99.5156 56.7745 98.7503 56.746 98.0372 55.9902C97.6284 55.5624 97.4383 55.0252 97.5191 54.5071V54.5118Z" fill="white"/>
<path d="M100.039 57.1786C100.305 56.9266 100.661 56.9599 100.899 57.2071C101.132 57.4543 101.146 57.8155 100.88 58.0675C100.618 58.3147 100.248 58.2957 100.015 58.0485C99.7819 57.8013 99.7819 57.4258 100.043 57.1786H100.039Z" fill="white"/>
<path d="M108.581 60.6297L104.388 62.6071L103.637 61.8133L105.139 59.061L102.287 60.3825L101.541 59.5934L103.746 55.5148L104.474 56.2849L102.905 59.1323L105.866 57.7585L106.513 58.443L104.935 61.3189L107.906 59.9214L108.576 60.6297H108.581Z" fill="white"/>
<path d="M108.88 60.9434C109.104 60.7295 109.446 60.7437 109.698 61.0099C109.95 61.2761 109.954 61.6089 109.731 61.818C109.493 62.0415 109.151 62.0272 108.899 61.7658C108.647 61.4996 108.652 61.1573 108.88 60.9481V60.9434ZM108.219 61.7325L108.894 62.4455L106.437 64.77L105.762 64.057L108.219 61.7325Z" fill="white"/>
<path d="M110.454 62.2269L111.129 62.9399L107.735 66.1485L107.06 65.4355L110.454 62.2269Z" fill="white"/>
<path d="M111.751 63.6006L112.426 64.3137L109.032 67.5223L108.357 66.8093L111.751 63.6006Z" fill="white"/>
<path d="M112.778 65.0695C113.001 64.8556 113.344 64.8698 113.596 65.136C113.848 65.4022 113.852 65.735 113.629 65.9441C113.391 66.1676 113.049 66.1533 112.797 65.8919C112.545 65.6257 112.55 65.2834 112.778 65.0742V65.0695ZM112.117 65.8586L112.792 66.5716L110.335 68.8961L109.66 68.1831L112.117 65.8586Z" fill="white"/>
<path d="M114.423 70.4077L113.021 71.7339L112.388 71.0637L112.693 70.7737C112.346 70.8545 111.984 70.7072 111.642 70.3506C111.095 69.7755 111.095 69.129 111.518 68.7249C111.951 68.3161 112.545 68.3351 113.253 69.0862L113.791 69.6519C114.095 69.3619 114.1 69.0101 113.738 68.6251C113.491 68.3637 113.149 68.1783 112.84 68.1307L113.097 67.4034C113.543 67.4938 114.024 67.7885 114.394 68.183C115.103 68.9341 115.164 69.6947 114.423 70.4029V70.4077ZM113.12 70.2888L113.372 70.0512L112.911 69.5616C112.597 69.2288 112.374 69.2383 112.208 69.3952C112.027 69.5616 112.056 69.8277 112.293 70.0797C112.517 70.3174 112.821 70.4172 113.125 70.2888H113.12Z" fill="white"/>
<path d="M118.962 75.1993L117.555 76.5303L116.88 75.8173L118.178 74.5909C118.577 74.2153 118.592 73.8636 118.316 73.5736C118.012 73.2551 117.593 73.2218 117.156 73.6401L115.92 74.8095L115.245 74.0965L116.543 72.8701C116.942 72.4945 116.961 72.1523 116.681 71.8528C116.381 71.5391 115.963 71.5058 115.526 71.9241L114.29 73.0935L113.615 72.3805L116.072 70.056L116.714 70.7357L116.429 71.0019C116.814 70.9877 117.18 71.1588 117.479 71.4725C117.803 71.8148 117.945 72.2331 117.841 72.6609C118.278 72.6181 118.73 72.7988 119.081 73.1695C119.633 73.7542 119.695 74.4958 118.943 75.2041L118.962 75.1993Z" fill="white"/>
<path d="M118.159 76.7109L118.896 76.4637C118.963 76.8155 119.181 77.2433 119.466 77.5428C119.775 77.8708 119.98 77.9136 120.118 77.7852C120.522 77.4049 118.706 76.3069 119.685 75.3799C120.151 74.9379 120.878 75.0472 121.558 75.765C121.876 76.1025 122.152 76.5541 122.238 76.9153L121.506 77.1578C121.415 76.787 121.23 76.5018 121.021 76.2736C120.717 75.9551 120.488 75.9123 120.36 76.0312C119.937 76.4305 121.753 77.5285 120.783 78.446C120.327 78.8785 119.6 78.7597 118.905 78.0229C118.511 77.6046 118.23 77.0769 118.164 76.7062L118.159 76.7109Z" fill="white"/>
<path d="M146.562 104.201C147.617 103.202 148.772 103.221 149.514 104.006C150.26 104.795 150.212 105.945 149.157 106.944C148.102 107.942 146.951 107.927 146.205 107.138C145.464 106.349 145.506 105.199 146.562 104.201ZM148.449 106.197C149.176 105.508 149.238 104.971 148.886 104.6C148.539 104.234 147.997 104.263 147.27 104.952C146.543 105.641 146.486 106.183 146.828 106.544C147.18 106.915 147.721 106.886 148.449 106.197Z" fill="white"/>
<path d="M151.401 110.504C150.745 111.122 149.832 110.974 149.19 110.299C148.358 109.415 148.392 108.346 149.423 107.367C150.531 106.321 151.776 106.406 152.689 107.367C153.007 107.704 153.245 108.108 153.312 108.465L152.508 108.707C152.456 108.417 152.304 108.17 152.104 107.956C151.6 107.419 150.959 107.376 150.326 107.932C150.692 107.942 151.044 108.122 151.358 108.455C151.943 109.073 152.004 109.929 151.405 110.499L151.401 110.504ZM150.683 109.819C150.978 109.544 150.959 109.149 150.65 108.821C150.341 108.498 149.927 108.46 149.647 108.721C149.371 108.983 149.366 109.377 149.704 109.734C150.003 110.048 150.393 110.095 150.683 109.819Z" fill="white"/>
<path d="M155.65 109.311L156.249 109.948L150.517 112.51L149.918 111.873L155.65 109.311Z" fill="white"/>
<path d="M155.246 115.386L154.643 115.956L152.356 113.537L152.836 113.085L155.17 113.218C155.707 113.247 155.921 113.142 156.073 112.995C156.325 112.757 156.306 112.443 155.988 112.106C155.726 111.83 155.403 111.697 155.042 111.745L154.88 110.875C155.475 110.78 156.131 111.008 156.677 111.583C157.352 112.296 157.438 113.118 156.853 113.665C156.544 113.96 156.178 114.14 155.337 114.083L153.944 114.002L155.246 115.376V115.386Z" fill="white"/>
<path d="M158.327 118.509L157.832 117.986L157.162 118.623L156.478 117.9L157.148 117.263L155.517 115.538L156.016 115.067L159.472 114.659L160.209 115.438L156.962 115.856L157.775 116.717L158.374 116.151L159.035 116.85L158.436 117.416L158.93 117.938L158.327 118.509Z" fill="white"/>
<path d="M217.432 80.0574H95.8697C91.2911 80.0574 87.5795 83.7691 87.5795 88.3476V172.024C87.5795 176.603 91.2911 180.315 95.8697 180.315H217.432C222.011 180.315 225.722 176.603 225.722 172.024V88.3476C225.722 83.7691 222.011 80.0574 217.432 80.0574Z" fill="#56C3C5"/>
<path d="M225.722 88.3524C225.722 88.3524 225.713 88.2526 225.699 88.0529C225.68 87.8533 225.689 87.5538 225.613 87.164C225.504 86.3892 225.223 85.2198 224.396 83.9173C223.978 83.2756 223.431 82.6006 222.699 81.9969C221.967 81.3979 221.059 80.8608 219.994 80.5138C219.728 80.4235 219.448 80.3664 219.167 80.2904C218.882 80.2333 218.587 80.2 218.288 80.1478C217.988 80.1335 217.679 80.1192 217.37 80.105C217.057 80.105 216.738 80.105 216.415 80.105C215.117 80.105 213.739 80.105 212.275 80.1097C200.567 80.1192 183.635 80.1335 162.709 80.1478C152.247 80.1478 140.786 80.1573 128.484 80.162C122.333 80.162 115.968 80.162 109.417 80.1668C106.142 80.1668 102.815 80.1668 99.4444 80.1668C98.603 80.1668 97.7569 80.1668 96.9107 80.1668C96.0598 80.1763 95.2137 80.1382 94.3866 80.3094C93.5595 80.471 92.7514 80.742 92.0051 81.1412C91.2635 81.5501 90.579 82.0729 89.9848 82.6814C89.3811 83.2851 88.9057 84.0124 88.5255 84.7777C88.1499 85.5478 87.8837 86.3797 87.7839 87.2353C87.6698 88.0862 87.7078 88.9656 87.6983 89.8498C87.6983 90.7292 87.6983 91.6133 87.6983 92.4975C87.6983 96.0389 87.6983 99.6231 87.6983 103.241C87.6983 110.48 87.6983 117.877 87.6983 125.402C87.6983 140.456 87.6983 156.043 87.6983 172.005C87.6983 173.973 88.4304 175.922 89.7234 177.391C91.0021 178.87 92.8274 179.858 94.7574 180.101C95.7128 180.224 96.7063 180.172 97.6903 180.186H100.633C102.591 180.186 104.54 180.186 106.484 180.186C114.261 180.186 121.924 180.186 129.454 180.186C144.513 180.186 159.035 180.191 172.872 180.196C186.71 180.196 199.854 180.205 212.161 180.205C213.701 180.205 215.222 180.205 216.734 180.205C217.494 180.21 218.231 180.196 218.963 180.058C219.685 179.906 220.399 179.697 221.05 179.354C221.387 179.212 221.687 178.993 222 178.813C222.286 178.589 222.599 178.394 222.856 178.137C223.412 177.667 223.864 177.096 224.273 176.507C225.052 175.3 225.532 173.907 225.594 172.495C225.646 166.796 225.613 161.305 225.627 156.076C225.642 135.151 225.656 118.219 225.665 106.516C225.675 100.664 225.684 96.1244 225.689 93.0394C225.694 91.4992 225.699 90.3251 225.703 89.536C225.703 88.7469 225.718 88.3429 225.718 88.3429C225.718 88.3429 225.727 88.7469 225.732 89.536C225.732 90.3299 225.737 91.504 225.746 93.0394C225.751 96.1244 225.761 100.664 225.77 106.516C225.78 118.219 225.794 135.151 225.808 156.076C225.799 161.31 225.837 166.786 225.794 172.505C225.732 173.95 225.242 175.376 224.444 176.612C224.025 177.215 223.564 177.8 222.994 178.285C222.728 178.546 222.409 178.746 222.115 178.979C221.791 179.164 221.487 179.388 221.14 179.535C220.475 179.887 219.743 180.101 219.001 180.258C218.255 180.4 217.485 180.414 216.734 180.41C215.222 180.41 213.696 180.41 212.161 180.41C199.858 180.41 186.71 180.419 172.872 180.419C159.035 180.419 144.513 180.419 129.454 180.429C121.924 180.429 114.261 180.429 106.484 180.429H100.633C99.6535 180.429 98.6743 180.429 97.6903 180.429C96.7111 180.419 95.7223 180.471 94.7241 180.343C92.7371 180.091 90.8547 179.074 89.538 177.553C88.207 176.041 87.4512 174.035 87.4512 172.005C87.4512 156.043 87.4512 140.456 87.4512 125.402C87.4512 117.877 87.4512 110.48 87.4512 103.241C87.4512 99.6183 87.4512 96.0389 87.4512 92.4975C87.4512 91.6133 87.4512 90.7292 87.4512 89.8498C87.4559 88.9704 87.4179 88.0909 87.5367 87.2068C87.6413 86.3274 87.917 85.4717 88.302 84.6779C88.6918 83.8888 89.1815 83.1472 89.8042 82.5245C90.4174 81.8971 91.1161 81.3647 91.8815 80.9416C92.6515 80.5328 93.4834 80.2523 94.3295 80.086L94.9713 79.9861L95.6178 79.9529C96.0503 79.9291 96.4686 79.9481 96.8965 79.9434C97.7426 79.9434 98.5887 79.9434 99.4301 79.9434C102.8 79.9434 106.123 79.9434 109.403 79.9434C115.958 79.9434 122.318 79.9434 128.47 79.9481C140.772 79.9529 152.233 79.9576 162.695 79.9624C183.62 79.9766 200.552 79.9909 212.26 80.0004C213.725 80.0004 215.103 80.0004 216.401 80.0051C216.724 80.0051 217.042 80.0051 217.356 80.0051C217.67 80.0194 217.979 80.0384 218.283 80.0527C218.583 80.1002 218.882 80.1383 219.167 80.1953C219.448 80.2761 219.733 80.3284 219.999 80.4235C221.074 80.78 221.986 81.3219 222.723 81.9303C223.455 82.5435 224.002 83.2281 224.42 83.8745C225.242 85.1913 225.518 86.3702 225.618 87.145C225.689 87.5348 225.675 87.8343 225.689 88.0339C225.699 88.2335 225.699 88.3334 225.699 88.3334L225.722 88.3524Z" fill="#263238"/>
<path d="M220.883 86.2418C220.883 86.1753 221.52 86.1182 222.309 86.1182C223.098 86.1182 223.735 86.1753 223.735 86.2418C223.735 86.3084 223.098 86.3654 222.309 86.3654C221.52 86.3654 220.883 86.3084 220.883 86.2418Z" fill="#263238"/>
<path d="M209.247 86.2418C209.247 86.1753 210.549 86.1182 212.156 86.1182C213.763 86.1182 215.065 86.1753 215.065 86.2418C215.065 86.3084 213.763 86.3654 212.156 86.3654C210.549 86.3654 209.247 86.3084 209.247 86.2418Z" fill="#263238"/>
<path d="M197.615 86.2418C197.615 86.1753 198.917 86.1182 200.524 86.1182C202.131 86.1182 203.433 86.1753 203.433 86.2418C203.433 86.3084 202.131 86.3654 200.524 86.3654C198.917 86.3654 197.615 86.3084 197.615 86.2418Z" fill="#263238"/>
<path d="M185.978 86.2418C185.978 86.1753 187.28 86.1182 188.887 86.1182C190.494 86.1182 191.796 86.1753 191.796 86.2418C191.796 86.3084 190.494 86.3654 188.887 86.3654C187.28 86.3654 185.978 86.3084 185.978 86.2418Z" fill="#263238"/>
<path d="M174.346 86.2418C174.346 86.1753 175.649 86.1182 177.255 86.1182C178.862 86.1182 180.164 86.1753 180.164 86.2418C180.164 86.3084 178.862 86.3654 177.255 86.3654C175.649 86.3654 174.346 86.3084 174.346 86.2418Z" fill="#263238"/>
<path d="M162.709 86.2418C162.709 86.1753 164.012 86.1182 165.619 86.1182C167.225 86.1182 168.528 86.1753 168.528 86.2418C168.528 86.3084 167.225 86.3654 165.619 86.3654C164.012 86.3654 162.709 86.3084 162.709 86.2418Z" fill="#263238"/>
<path d="M151.078 86.2418C151.078 86.1753 152.38 86.1182 153.987 86.1182C155.593 86.1182 156.896 86.1753 156.896 86.2418C156.896 86.3084 155.593 86.3654 153.987 86.3654C152.38 86.3654 151.078 86.3084 151.078 86.2418Z" fill="#263238"/>
<path d="M139.441 86.2418C139.441 86.1753 140.743 86.1182 142.35 86.1182C143.957 86.1182 145.259 86.1753 145.259 86.2418C145.259 86.3084 143.957 86.3654 142.35 86.3654C140.743 86.3654 139.441 86.3084 139.441 86.2418Z" fill="#263238"/>
<path d="M127.809 86.2418C127.809 86.1753 129.111 86.1182 130.718 86.1182C132.325 86.1182 133.627 86.1753 133.627 86.2418C133.627 86.3084 132.325 86.3654 130.718 86.3654C129.111 86.3654 127.809 86.3084 127.809 86.2418Z" fill="#263238"/>
<path d="M116.172 86.2418C116.172 86.1753 117.474 86.1182 119.081 86.1182C120.688 86.1182 121.99 86.1753 121.99 86.2418C121.99 86.3084 120.688 86.3654 119.081 86.3654C117.474 86.3654 116.172 86.3084 116.172 86.2418Z" fill="#263238"/>
<path d="M104.54 86.2418C104.54 86.1753 105.843 86.1182 107.449 86.1182C109.056 86.1182 110.359 86.1753 110.359 86.2418C110.359 86.3084 109.056 86.3654 107.449 86.3654C105.843 86.3654 104.54 86.3084 104.54 86.2418Z" fill="#263238"/>
<path d="M95.8698 89.0939C95.8033 89.0939 95.7462 87.8152 95.7462 86.2418C95.9934 85.9946 95.8175 86.1752 95.8698 86.1182H96.1598C96.2548 86.1182 96.3499 86.1182 96.445 86.1182C96.6256 86.1182 96.8063 86.123 96.9821 86.1277C97.2959 86.1372 97.5953 86.1467 97.8901 86.1562C98.4082 86.18 98.7267 86.2085 98.7267 86.2418C98.7267 86.2751 98.4082 86.3083 97.8901 86.3274C97.5953 86.3369 97.2959 86.3464 96.9821 86.3559C96.8063 86.3559 96.6304 86.3559 96.445 86.3654H95.8698C95.9268 86.3131 95.7462 86.489 95.9934 86.2466C95.9934 87.82 95.9364 89.0987 95.8698 89.0987V89.0939Z" fill="#263238"/>
<path d="M95.8697 99.7562C95.8031 99.7562 95.7461 98.563 95.7461 97.0894C95.7461 95.6158 95.8031 94.4227 95.8697 94.4227C95.9362 94.4227 95.9933 95.6158 95.9933 97.0894C95.9933 98.563 95.9362 99.7562 95.8697 99.7562Z" fill="#263238"/>
<path d="M95.8697 110.418C95.8031 110.418 95.7461 109.225 95.7461 107.752C95.7461 106.278 95.8031 105.085 95.8697 105.085C95.9362 105.085 95.9933 106.278 95.9933 107.752C95.9933 109.225 95.9362 110.418 95.8697 110.418Z" fill="#263238"/>
<path d="M95.8697 121.076C95.8031 121.076 95.7461 119.883 95.7461 118.409C95.7461 116.936 95.8031 115.742 95.8697 115.742C95.9362 115.742 95.9933 116.936 95.9933 118.409C95.9933 119.883 95.9362 121.076 95.8697 121.076Z" fill="#263238"/>
<path d="M95.8697 131.738C95.8031 131.738 95.7461 130.545 95.7461 129.071C95.7461 127.598 95.8031 126.405 95.8697 126.405C95.9362 126.405 95.9933 127.598 95.9933 129.071C95.9933 130.545 95.9362 131.738 95.8697 131.738Z" fill="#263238"/>
<path d="M95.8697 142.4C95.8031 142.4 95.7461 141.207 95.7461 139.734C95.7461 138.26 95.8031 137.067 95.8697 137.067C95.9362 137.067 95.9933 138.26 95.9933 139.734C95.9933 141.207 95.9362 142.4 95.8697 142.4Z" fill="#263238"/>
<path d="M95.8697 153.062C95.8031 153.062 95.7461 151.869 95.7461 150.396C95.7461 148.922 95.8031 147.729 95.8697 147.729C95.9362 147.729 95.9933 148.922 95.9933 150.396C95.9933 151.869 95.9362 153.062 95.8697 153.062Z" fill="#263238"/>
<path d="M95.8697 163.725C95.8031 163.725 95.7461 162.532 95.7461 161.058C95.7461 159.584 95.8031 158.391 95.8697 158.391C95.9362 158.391 95.9933 159.584 95.9933 161.058C95.9933 162.532 95.9362 163.725 95.8697 163.725Z" fill="#263238"/>
<path d="M98.7217 171.906C98.7217 171.972 97.443 172.029 95.8696 172.029C95.6224 171.782 95.8031 171.958 95.746 171.906V171.33C95.7508 171.15 95.7555 170.969 95.7555 170.793C95.765 170.48 95.7745 170.18 95.784 169.885C95.8078 169.367 95.8363 169.049 95.8696 169.049C95.9029 169.049 95.9362 169.367 95.9552 169.885C95.9647 170.18 95.9742 170.48 95.9837 170.793C95.9837 170.969 95.9884 171.145 95.9932 171.33C95.9932 171.425 95.9932 171.516 95.9932 171.616V171.896V171.906C95.9362 171.849 96.1168 172.029 95.8696 171.782C97.443 171.782 98.7217 171.839 98.7217 171.906Z" fill="#263238"/>
<path d="M110.187 171.906C110.187 171.972 108.904 172.029 107.321 172.029C105.738 172.029 104.454 171.972 104.454 171.906C104.454 171.839 105.738 171.782 107.321 171.782C108.904 171.782 110.187 171.839 110.187 171.906Z" fill="#263238"/>
<path d="M121.653 171.906C121.653 171.972 120.37 172.029 118.787 172.029C117.204 172.029 115.92 171.972 115.92 171.906C115.92 171.839 117.204 171.782 118.787 171.782C120.37 171.782 121.653 171.839 121.653 171.906Z" fill="#263238"/>
<path d="M133.119 171.906C133.119 171.972 131.835 172.029 130.252 172.029C128.669 172.029 127.386 171.972 127.386 171.906C127.386 171.839 128.669 171.782 130.252 171.782C131.835 171.782 133.119 171.839 133.119 171.906Z" fill="#263238"/>
<path d="M144.584 171.906C144.584 171.972 143.301 172.029 141.718 172.029C140.135 172.029 138.851 171.972 138.851 171.906C138.851 171.839 140.135 171.782 141.718 171.782C143.301 171.782 144.584 171.839 144.584 171.906Z" fill="#263238"/>
<path d="M156.05 171.906C156.05 171.972 154.766 172.029 153.183 172.029C151.6 172.029 150.317 171.972 150.317 171.906C150.317 171.839 151.6 171.782 153.183 171.782C154.766 171.782 156.05 171.839 156.05 171.906Z" fill="#263238"/>
<path d="M167.515 171.906C167.515 171.972 166.232 172.029 164.649 172.029C163.066 172.029 161.782 171.972 161.782 171.906C161.782 171.839 163.066 171.782 164.649 171.782C166.232 171.782 167.515 171.839 167.515 171.906Z" fill="#263238"/>
<path d="M178.981 171.906C178.981 171.972 177.697 172.029 176.114 172.029C174.532 172.029 173.248 171.972 173.248 171.906C173.248 171.839 174.532 171.782 176.114 171.782C177.697 171.782 178.981 171.839 178.981 171.906Z" fill="#263238"/>
<path d="M190.451 171.906C190.451 171.972 189.168 172.029 187.585 172.029C186.002 172.029 184.718 171.972 184.718 171.906C184.718 171.839 186.002 171.782 187.585 171.782C189.168 171.782 190.451 171.839 190.451 171.906Z" fill="#263238"/>
<path d="M201.917 171.906C201.917 171.972 200.633 172.029 199.05 172.029C197.467 172.029 196.184 171.972 196.184 171.906C196.184 171.839 197.467 171.782 199.05 171.782C200.633 171.782 201.917 171.839 201.917 171.906Z" fill="#263238"/>
<path d="M213.382 171.906C213.382 171.972 212.099 172.029 210.516 172.029C208.933 172.029 207.649 171.972 207.649 171.906C207.649 171.839 208.933 171.782 210.516 171.782C212.099 171.782 213.382 171.839 213.382 171.906Z" fill="#263238"/>
<path d="M221.967 171.906C221.967 171.972 221.33 172.029 220.541 172.029C219.752 172.029 219.115 171.972 219.115 171.906C219.115 171.839 219.752 171.782 220.541 171.782C221.33 171.782 221.967 171.839 221.967 171.906Z" fill="#263238"/>
<path d="M128.446 113.342H88.8438C85.087 113.342 82.0415 116.387 82.0415 120.144V137.875C82.0415 141.632 85.087 144.677 88.8438 144.677H128.446C132.203 144.677 135.248 141.632 135.248 137.875V120.144C135.248 116.387 132.203 113.342 128.446 113.342Z" fill="#37A6A8"/>
<path d="M119.219 141.578C125.509 141.578 130.609 136.479 130.609 130.188C130.609 123.898 125.509 118.799 119.219 118.799C112.929 118.799 107.83 123.898 107.83 130.188C107.83 136.479 112.929 141.578 119.219 141.578Z" fill="#263238"/>
<path d="M122.143 139.496C122.114 139.434 123.317 139.192 124.857 138.075C125.622 137.523 126.449 136.729 127.158 135.698C127.866 134.671 128.436 133.388 128.669 131.966C128.883 130.54 128.741 129.147 128.389 127.949C128.037 126.752 127.495 125.744 126.939 124.979C125.817 123.434 124.752 122.835 124.8 122.782C124.8 122.778 124.871 122.811 124.985 122.887C125.099 122.968 125.285 123.072 125.489 123.243C125.917 123.567 126.492 124.104 127.077 124.869C127.661 125.635 128.232 126.657 128.607 127.878C128.983 129.1 129.14 130.531 128.916 132C128.674 133.464 128.08 134.776 127.348 135.821C126.611 136.867 125.755 137.666 124.961 138.208C124.168 138.754 123.455 139.087 122.946 139.263C122.699 139.363 122.49 139.406 122.357 139.444C122.219 139.482 122.147 139.496 122.147 139.486L122.143 139.496Z" fill="#FAFAFA"/>
<path d="M317.038 180.334C317.038 180.4 246.063 180.457 158.526 180.457C70.9896 180.457 0 180.4 0 180.334C0 180.267 70.961 180.21 158.526 180.21C246.091 180.21 317.038 180.267 317.038 180.334Z" fill="#263238"/>
<path d="M243.14 91.0334C243.14 91.0334 243.101 87.8675 242.968 87.8438L236.466 89.2888C236.399 89.7024 235.577 94.8885 235.719 95.3971L243.03 97.4269C243.03 97.4269 243.14 91.2188 243.135 91.0334H243.14Z" fill="#F7D3C9"/>
<path d="M243.144 96.942C243.144 96.942 243.168 96.885 243.178 96.7994C243.254 96.0911 243.206 93.0013 242.831 92.8682C242.407 92.7209 241.352 92.9633 241.276 93.3674C241.205 93.7762 241.452 97.2558 241.452 97.2558C241.452 97.2558 241.528 97.8024 242.445 97.9355C243.016 98.0163 243.144 96.942 243.144 96.942Z" fill="#F7D3C9"/>
<path d="M241.291 98.0543C241.291 98.0543 241.314 97.9973 241.324 97.9117C241.4 97.2034 241.352 94.1136 240.977 93.9805C240.554 93.8332 239.499 94.0756 239.427 94.4797C239.356 94.8885 239.603 98.3681 239.603 98.3681C239.603 98.3681 239.679 98.9147 240.597 99.0478C241.167 99.1286 241.295 98.0543 241.295 98.0543H241.291Z" fill="#F7D3C9"/>
<path d="M239.475 98.6105C239.475 98.6105 239.498 98.5535 239.508 98.4679C239.584 97.7597 239.536 94.6699 239.161 94.5368C238.738 94.3894 237.682 94.6318 237.606 95.0359C237.535 95.4447 237.782 98.9243 237.782 98.9243C237.782 98.9243 237.858 99.4709 238.776 99.604C239.346 99.6848 239.475 98.6105 239.475 98.6105Z" fill="#F7D3C9"/>
<path d="M237.673 99.1334C237.673 99.1334 237.697 99.0763 237.706 98.9908C237.782 98.2825 237.735 95.1927 237.359 95.0596C236.936 94.9122 235.881 95.1547 235.805 95.5587C235.733 95.9675 235.981 99.4471 235.981 99.4471C235.981 99.4471 236.057 99.9938 236.974 100.127C237.545 100.208 237.673 99.1334 237.673 99.1334Z" fill="#F7D3C9"/>
<path d="M241.262 94.2753C241.314 94.2753 241.381 94.9551 241.405 95.7822C241.433 96.6093 241.409 97.2748 241.357 97.27C241.305 97.27 241.238 96.5903 241.215 95.7632C241.186 94.936 241.21 94.2705 241.262 94.2753Z" fill="#E4C3BA"/>
<path d="M239.441 94.2658C239.494 94.2658 239.574 95.2213 239.612 96.4049C239.655 97.5885 239.646 98.5488 239.593 98.5535C239.541 98.5535 239.46 97.5981 239.422 96.4144C239.379 95.2308 239.389 94.2706 239.441 94.2706V94.2658Z" fill="#E4C3BA"/>
<g opacity="0.78">
<path d="M237.587 94.4179C237.639 94.4179 237.72 95.3734 237.758 96.557C237.801 97.7406 237.792 98.7009 237.739 98.7056C237.687 98.7056 237.606 97.7501 237.568 96.5665C237.525 95.3829 237.535 94.4227 237.587 94.4227V94.4179Z" fill="#E4C3BA"/>
</g>
<path d="M236.423 89.46C236.423 89.46 233.851 95.3068 234.227 95.6681C234.602 96.0294 235.81 96.5903 235.81 96.5903L236.423 89.46Z" fill="#F7D3C9"/>
<path d="M222.195 11.0501L220.308 32.9117L209.356 32.0371C209.289 30.7584 209.38 25.8147 209.38 25.8147C209.38 25.8147 204.826 25.1064 204.769 20.5525C204.74 18.3421 205.059 13.7692 205.392 9.64785C205.762 5.07969 209.713 1.64287 214.285 1.90907C219.025 2.18477 222.599 6.32036 222.195 11.0501Z" fill="#F7D3C9"/>
<path d="M209.375 25.7481C209.375 25.7481 212.256 25.981 215.312 24.0606C215.312 24.0606 213.91 27.3406 209.361 26.927L209.37 25.7481H209.375Z" fill="#E4C3BA"/>
<path d="M223.175 8.23125C222.913 10.4464 222.309 13.2415 222.138 15.5089C222.124 15.7181 222.1 15.9368 221.977 16.1031C221.653 16.5357 220.879 17.4627 220.484 17.0966C219.524 16.203 219.148 13.6978 218.958 12.4001C218.768 11.1024 218.801 9.78091 218.621 8.48319C218.621 8.45467 218.611 8.42139 218.606 8.39287C218.478 7.48019 218.003 6.65783 217.285 6.08265C217.114 5.96856 216.938 5.86398 216.748 5.79743C215.412 5.32683 213.178 6.19673 211.847 6.68159C211.158 6.93353 210.492 7.24251 209.827 7.54674C208.296 8.24076 206.485 8.13618 205.125 7.1522C204.312 6.56751 204.241 4.70887 204.598 3.53474C205.558 0.359369 209.551 -0.729195 214.666 0.482961C219.747 1.68561 223.697 3.6821 223.175 8.23601V8.23125Z" fill="#263238"/>
<path d="M220.66 13.1132C220.736 13.0799 223.788 12.1862 223.693 15.2998C223.593 18.4134 220.489 17.6718 220.484 17.5815C220.484 17.4912 220.66 13.1084 220.66 13.1084V13.1132Z" fill="#F7D3C9"/>
<path d="M221.473 16.4311C221.473 16.4311 221.525 16.4691 221.616 16.5167C221.706 16.5594 221.858 16.5927 222.02 16.5357C222.352 16.4263 222.647 15.913 222.68 15.352C222.699 15.0668 222.647 14.7959 222.552 14.5725C222.466 14.3395 222.324 14.1779 222.158 14.1446C221.996 14.1019 221.872 14.1969 221.834 14.2825C221.791 14.3681 221.806 14.4299 221.791 14.4346C221.782 14.4441 221.725 14.3823 221.753 14.254C221.768 14.1922 221.806 14.1209 221.882 14.0638C221.958 14.0068 222.067 13.9783 222.186 13.9925C222.424 14.0163 222.633 14.2445 222.737 14.4916C222.852 14.7436 222.918 15.0478 222.899 15.3663C222.861 15.9938 222.519 16.569 222.062 16.6878C221.844 16.7401 221.663 16.664 221.568 16.588C221.473 16.5072 221.459 16.4359 221.473 16.4311Z" fill="#E4C3BA"/>
<path d="M201.346 164.481L203.371 173.797C203.371 173.797 194.577 178.984 194.786 180.742L212.992 177.467L210.435 162.817L201.346 164.476V164.481Z" fill="#263238"/>
<path d="M212.988 177.472L212.674 176.008L195.333 179.697C195.333 179.697 194.587 180.196 194.782 180.752L212.988 177.477V177.472Z" fill="#455A64"/>
<path d="M222.053 165.507L222.352 175.038C222.352 175.038 212.764 178.546 212.65 180.31L231.151 180.391L231.294 165.522L222.053 165.507Z" fill="#263238"/>
<g opacity="0.6">
<path d="M231.151 180.391L231.108 178.893L213.387 179.378C213.387 179.378 212.56 179.735 212.65 180.315L231.151 180.395V180.391Z" fill="#455A64"/>
</g>
<path d="M200.348 172.471C200.348 172.471 190.865 125.948 190.855 125.021L207.797 116.066L214.357 170.66L200.348 172.471Z" fill="#263238"/>
<path d="M221.677 174.03L208.576 93.4007V76.0074L226.474 77.6664C226.702 78.3462 232.558 174.135 232.558 174.135L230.709 174.03H221.672" fill="#263238"/>
<path d="M198.28 74.781L190.855 125.021L207.459 120.995L214.228 76.4162L198.28 74.781Z" fill="#263238"/>
<path d="M208.581 92.835C208.519 92.8445 209.294 98.0544 210.312 104.467C211.329 110.884 212.203 116.075 212.265 116.066C212.327 116.056 211.552 110.846 210.535 104.429C209.518 98.0163 208.643 92.8207 208.581 92.8302V92.835Z" fill="#455A64"/>
<path d="M175.416 45.0808L186.097 53.2046C186.097 53.2046 196.037 36.2535 196.911 35.2029C197.791 34.1476 200.02 33.0211 200.02 33.0211L198.784 54.7495C198.784 54.7495 193.408 68.4683 186.03 67.722C180.383 67.1516 170.619 52.2492 170.619 52.2492L175.411 45.0808H175.416Z" fill="#455A64"/>
<g opacity="0.2">
<path d="M185.897 52.9479C184.414 55.2249 184.005 58.1721 184.818 60.7628C184.899 61.029 185.013 61.3094 185.251 61.452C185.607 61.666 186.097 61.4473 186.32 61.0955C186.544 60.7438 186.572 60.3064 186.596 59.8929C186.805 60.2779 187.024 60.6772 187.385 60.9244C187.746 61.1716 188.293 61.2049 188.588 60.8816C188.944 60.4918 188.749 59.8739 188.535 59.389C187.628 57.326 186.715 55.2629 185.807 53.2046" fill="black"/>
</g>
<path d="M222.371 30.958L220.755 27.7636H209.075L207.241 31.3906L200.025 33.021L196.916 79.5536C196.897 80.143 197.039 80.7277 197.329 81.2411L225.703 82.3296L226.859 82.8002C227.876 82.1728 227.244 79.5821 227.253 78.3604L227.614 55.3152L233.228 36.8999L222.371 30.9485V30.958Z" fill="#455A64"/>
<g opacity="0.2">
<path d="M210.264 32.5695C210.953 31.8802 211.638 31.1957 212.327 30.5064C213.102 32.3698 213.872 34.2332 214.647 36.1014C217.313 34.5327 219.857 32.7549 222.243 30.7821C219.624 31.6235 217.004 32.4649 214.385 33.3063C213.72 31.5427 213.059 29.7839 212.393 28.0203C211.928 29.6175 211.262 31.1624 210.421 32.598" fill="black"/>
</g>
<path d="M243.187 89.3079L235.538 89.7024L235.519 67.7553L227.609 55.32L233.223 36.9047C234.379 37.3611 243.092 59.2369 245.312 65.1789C245.63 66.0345 245.773 66.9472 245.725 67.8646L243.182 89.3079H243.187Z" fill="#455A64"/>
<path d="M236.817 86.8027C236.841 86.836 236.803 86.9121 236.841 87.0119C236.884 87.1212 236.965 87.1735 237.064 87.0927C237.164 87.0071 237.131 86.9216 237.036 86.855C236.946 86.798 236.865 86.817 236.836 86.7885C236.803 86.7695 236.884 86.6316 237.093 86.6601C237.188 86.6744 237.312 86.7362 237.373 86.8788C237.44 87.0261 237.373 87.221 237.245 87.3161C237.121 87.4207 236.922 87.4445 236.789 87.3494C236.66 87.2543 236.632 87.126 236.632 87.0261C236.646 86.817 236.798 86.7647 236.812 86.8027H236.817Z" fill="#263238"/>
<g opacity="0.2">
<path d="M227.728 55.2629C226.897 53.7608 226.065 52.2587 225.233 50.7565C224.239 58.676 224.8 66.7903 226.878 74.4958C227.134 68.1165 227.391 61.7372 227.648 55.3532" fill="black"/>
</g>
<path d="M174.821 45.9745C174.821 45.9745 166.179 39.4288 164.967 38.9915C162.956 38.2642 162.476 38.4591 162.476 38.4591L167.216 43.5644C167.216 43.5644 162.205 45.2567 161.844 45.4516C161.44 45.6702 161.302 46.754 162.524 46.754C163.527 46.754 168.333 46.8681 168.333 46.8681L172.297 49.763L174.826 45.9792L174.821 45.9745Z" fill="#F7D3C9"/>
</svg>
