<svg width="226" height="193" viewBox="0 0 226 193" fill="none" xmlns="http://www.w3.org/2000/svg">
<path opacity="0.22" d="M222.856 50.9026C216.603 30.0294 200.822 12.2025 179.745 5.21912C164.008 0.0063135 146.995 -0.290618 130.548 1.76041C117.94 3.33305 104.699 6.70378 96.0712 16.0296C84.3314 28.7152 83.5835 49.8084 69.6113 59.9865C57.701 68.6636 39.9071 66.3101 28.9041 76.1143C22.784 81.5636 19.9192 90.4221 21.6843 98.4227C23.6308 107.276 27.3645 115.051 20.1281 122.381C14.4589 128.121 5.04508 130.332 1.79533 138.36C-0.415166 143.826 1.58088 150.292 5.3915 154.796C9.19663 159.299 14.5304 162.197 19.8367 164.765C42.1451 175.565 66.422 182.317 91.2158 183.659C117.923 185.105 144.317 179.601 170.87 177.775C182.005 177.011 193.998 175.295 201.96 167.47C213.816 155.819 211.732 136.754 215.614 121.671C220.128 104.103 226.485 86.518 225.764 68.1137C225.533 62.252 224.544 56.4618 222.872 50.8861L222.856 50.9026Z" fill="#CAD2F3"/>
<path d="M167.966 66.7258C167.966 48.3426 148.098 34.6334 128.849 46.3444C127.163 47.3696 124.893 49.5936 123.826 51.2617C117.685 60.8529 117.909 70.4615 121.676 77.933H121.659L121.865 78.2978C121.951 78.4716 122.054 78.628 122.14 78.8017L140.391 112.163C141.733 114.612 145.225 114.612 146.584 112.163L164.887 78.7496C164.955 78.6106 165.024 78.489 165.11 78.35L165.213 78.1762C166.985 74.7533 168 70.8612 168 66.7432L167.966 66.7258Z" fill="#56C3C5"/>
<path d="M153 67C153 72.5208 148.745 77 143.5 77C138.255 77 134 72.5208 134 67C134 61.4792 138.255 57 143.5 57C148.745 57 153 61.4792 153 67Z" fill="#F2F7F8"/>
<path opacity="0.22" d="M44.3345 189.924C51.2643 189.924 56.8819 188.239 56.8819 186.16C56.8819 184.081 51.2643 182.396 44.3345 182.396C37.4048 182.396 31.7871 184.081 31.7871 186.16C31.7871 188.239 37.4048 189.924 44.3345 189.924Z" fill="#A5B5DE"/>
<path opacity="0.22" d="M13.3839 180.723C20.7756 180.723 26.7678 179.037 26.7678 176.958C26.7678 174.88 20.7756 173.194 13.3839 173.194C5.99218 173.194 0 174.88 0 176.958C0 179.037 5.99218 180.723 13.3839 180.723Z" fill="#A5B5DE"/>
<path opacity="0.22" d="M114.599 187.415C120.605 187.415 125.473 185.729 125.473 183.65C125.473 181.572 120.605 179.886 114.599 179.886C108.593 179.886 103.725 181.572 103.725 183.65C103.725 185.729 108.593 187.415 114.599 187.415Z" fill="#A5B5DE"/>
<path d="M8.61003 179.047C8.61003 179.047 16.8573 179.305 17.8742 177.461C21.6124 170.678 17.7265 154.945 13.3126 151.008C8.89863 147.072 5.63403 153.94 5.63403 153.94L8.61003 179.049V179.047Z" fill="#1B2744"/>
<path d="M4.58721 156.298C4.58721 156.298 6.09473 150.759 9.44762 152.49C12.7988 154.222 12.6324 178.947 8.60897 179.047C4.58721 179.149 2.91161 164.089 4.58721 156.298Z" fill="#7BCACB"/>
<path d="M5.71377 158.388C5.71377 158.388 6.63051 154.093 8.6677 155.436C10.7049 156.779 10.603 175.947 8.15841 176.025C5.71377 176.103 4.69517 164.428 5.71377 158.388Z" fill="#1B2744"/>
<path d="M40.5526 186.654C40.5526 186.654 51.584 187.391 52.7231 185.011C56.3391 177.458 59.9195 156.91 47.1989 150.241C36.1896 144.471 33.2034 159.077 33.2034 159.077L40.5526 186.654Z" fill="#1B2744"/>
<path d="M35.2159 158.599C35.2159 158.599 37.2175 151.767 41.6636 153.903C46.1098 156.037 45.8874 186.53 40.5517 186.654C35.2159 186.778 32.992 168.206 35.2159 158.599Z" fill="#7BCACB"/>
<path d="M36.7091 161.178C36.7091 161.178 37.9246 155.881 40.6273 157.536C43.33 159.191 43.1941 182.831 39.9516 182.928C36.7091 183.025 35.3577 168.625 36.7091 161.178Z" fill="#1B2744"/>
<path d="M107.784 159.993C107.784 159.993 108.232 158.679 109.172 157.485C109.172 157.485 113.505 150.185 119.36 154.368C125.215 158.553 123.144 180.899 121.883 182.896C120.622 184.892 113.121 184.169 113.121 184.169C107.785 184.276 105.562 168.269 107.785 159.991L107.784 159.993Z" fill="#1B2744"/>
<path d="M111.144 127.671C111.144 127.671 129.335 135.207 127.774 152.487C127.774 152.487 129.464 152.747 130.114 156.125C130.764 159.504 127.386 175.355 124.917 175.743C122.449 176.134 51.3796 178.212 49.5614 177.173C47.7432 176.134 45.9233 173.665 46.054 167.688C46.1847 161.711 44.5414 149.262 39.2973 149.79C34.8138 150.241 33.7392 165.05 34.8138 174.38C35.3468 179.006 28.7735 172.496 23.0575 171.975C17.3414 171.455 13.593 172.318 13.3316 169.07C13.0718 165.822 13.9054 151.952 8.96008 151.737C4.28811 151.533 3.94518 161.106 3.94518 161.106C3.4257 160.456 2.79077 153.069 4.22021 149.79C5.64964 146.51 3.57 133.127 6.94835 131.178C10.3267 129.229 7.85829 109.091 27.2167 105.194C46.5718 101.296 85.9389 102.768 93.6056 107.034C101.271 111.3 111.146 127.671 111.146 127.671H111.144Z" fill="#56C3C5"/>
<path d="M40.1708 106.611C38.94 106.725 38.0844 107.886 38.3305 109.098C38.76 111.219 39.344 114.728 39.4255 118.447C39.5562 124.423 36.4376 128.061 46.3112 128.711C56.1848 129.362 110.086 129.596 109.695 127.776C109.305 125.958 95.6826 108.616 91.7848 107.402C88.3233 106.326 50.1547 105.691 40.1708 106.611Z" fill="#253253"/>
<path d="M128.798 156.123C128.798 156.123 129.14 158.852 123.855 159.566C118.57 160.281 113.966 158.982 112.687 163.4C111.409 167.817 113.966 171.974 105.527 173.144C97.0876 174.314 75.5137 175.613 74.2812 172.105C73.0487 168.598 75.6071 162.751 70.2357 161.71C64.866 160.671 52.5902 161.97 49.6498 160.281C46.7095 158.592 46.5805 156.514 48.3715 155.084C50.1608 153.655 116.906 153.786 120.678 153.786C124.451 153.786 128.798 153.395 128.798 156.125V156.123Z" fill="#253253"/>
<path d="M105.659 158.836L79.4043 158.636C78.5198 158.629 77.8594 159.448 78.0529 160.312L78.6522 162.977C78.7931 163.603 79.35 164.05 79.9934 164.05H105C105.625 164.05 106.17 163.629 106.329 163.024L106.978 160.559C107.205 159.692 106.555 158.843 105.659 158.836Z" fill="#7BCACB"/>
<path d="M18.8866 136.308C18.5691 137.449 18.9409 138.549 19.7184 138.767C20.496 138.984 21.3838 138.235 21.703 137.094C22.0205 135.954 21.6487 134.853 20.8712 134.636C20.0936 134.419 19.2057 135.168 18.8866 136.308Z" fill="#F3F5FC"/>
<path d="M7.99009 135.079C7.67263 136.22 8.04442 137.32 8.82195 137.538C9.59948 137.755 10.4874 137.006 10.8065 135.865C11.124 134.724 10.7522 133.624 9.97466 133.407C9.19713 133.19 8.30926 133.938 7.99009 135.079Z" fill="#F3F5FC"/>
<path d="M12.0799 127.238C12.0799 127.238 12.012 117.278 17.6414 113.207C23.2709 109.136 31.4129 107.317 32.973 108.529C34.5315 109.742 34.7912 125.679 33.4059 127.239C32.0206 128.8 13.5348 128.798 12.0799 127.239V127.238Z" fill="#253253"/>
<path d="M29.4214 131.504C29.4214 131.504 31.9543 129.1 30.6556 125.073C29.3569 121.046 19.3526 123.775 18.3119 125.788C17.2729 127.801 21.366 131.244 24.0941 131.83C26.8223 132.414 26.2383 137.352 28.3162 137.093C30.3959 136.833 32.046 135.403 31.0257 134.494C30.0054 133.584 28.121 132.285 29.4214 131.506V131.504Z" fill="#1B2744"/>
<path d="M115.519 147.439C112.265 144.807 111.024 140.948 112.746 138.82C114.467 136.691 118.501 137.099 121.754 139.731C125.007 142.362 126.249 146.221 124.527 148.35C122.805 150.478 118.772 150.07 115.519 147.439Z" fill="#F3F5FC"/>
<path d="M58.1377 147.436C54.8844 144.805 53.6429 140.946 55.3647 138.817C57.0865 136.689 61.1197 137.096 64.373 139.728C67.6263 142.36 68.8679 146.219 67.146 148.347C65.4242 150.476 61.3911 150.068 58.1377 147.436Z" fill="#F3F5FC"/>
<path opacity="0.22" d="M203.624 189.256C203.624 191.12 197.471 192.33 191.631 192.33C185.792 192.33 182.465 191.126 182.465 189.256C182.465 187.387 187.205 185.88 193.044 185.88C198.884 185.88 203.624 187.392 203.624 189.256Z" fill="#A5B5DE"/>
<path d="M199.29 169.609C194.022 173.607 185.488 169.967 180.759 165.876C179.934 165.161 179.324 164.215 179.099 163.148C178.021 158.024 186.126 156.759 186.362 152.162C186.467 150.149 184.949 148.483 183.833 146.806C181.282 142.979 180.561 138.14 181.1 133.576C181.639 129.012 183.349 124.663 185.345 120.517C186.973 117.129 189.887 113.297 193.555 114.111C195.914 114.633 197.426 116.981 198.113 119.296C199.059 122.48 198.922 125.905 198.289 129.166C198.009 130.612 197.635 132.113 198.02 133.532C199.015 137.167 204.112 137.986 205.96 141.269C207.841 144.612 205.597 148.681 203.519 151.903C201.742 154.664 200.648 156.374 201.814 158.733C202.122 159.354 202.578 159.893 203.106 160.349C204.228 161.317 206.328 164.265 199.284 169.609H199.29Z" fill="#56C3C5"/>
<path d="M184.752 168.697L187.892 188.739H198.51L201.353 167.949L184.752 168.697Z" fill="#4F4F4F"/>
<path d="M191.993 119.741C191.685 127.67 191.74 135.616 191.762 143.551C191.779 150.963 191.388 158.518 191.889 165.914C191.911 166.206 192.301 166.195 192.334 165.914C193.154 158.584 192.549 150.914 192.521 143.551C192.488 135.616 192.411 127.67 192.708 119.741C192.725 119.285 192.015 119.285 191.999 119.741H191.993Z" fill="#3ABCBE"/>
</svg>
