<svg width="36" height="36" viewBox="0 0 36 36" fill="none" xmlns="http://www.w3.org/2000/svg">
<rect width="36" height="36" rx="10" transform="matrix(-1 0 0 1 36 0)" fill="white"/>
<path d="M14.6919 26.0161C14.6092 25.9581 14.507 25.9645 14.416 25.9331C13.6652 25.6752 13.2471 25.1373 13.0985 24.3722C13.0678 24.2131 13.0659 24.0514 13.0659 23.8897C13.0667 20.9038 13.0655 17.9176 13.0696 14.9318C13.0696 14.8067 13.0337 14.7566 12.9173 14.7143C12.3162 14.4964 11.9246 13.838 12.0122 13.2141C12.1069 12.5384 12.6313 12.0238 13.2968 11.9717C13.9309 11.9223 14.5673 11.959 15.2025 11.9553C15.3256 11.9545 15.3585 11.9231 15.354 11.8018C15.3413 11.4466 15.354 11.0936 15.5401 10.7724C15.8275 10.275 16.2636 10.0145 16.8314 10.0088C17.9461 9.99762 19.0616 9.9965 20.1763 10.0088C20.8964 10.0167 21.4411 10.4663 21.6132 11.1673C21.6641 11.3751 21.6653 11.5914 21.651 11.8044C21.6424 11.9335 21.69 11.9556 21.8071 11.9545C22.3592 11.9485 22.9117 11.9523 23.4638 11.9519C24.0223 11.9515 24.4741 12.1548 24.7855 12.6354C25.2545 13.3593 24.9206 14.4006 24.1125 14.7034C23.9811 14.7525 23.9381 14.8116 23.9381 14.9557C23.9433 17.9416 23.9418 20.9278 23.9422 23.9137C23.9422 24.5279 23.77 25.074 23.3148 25.5067C23.0281 25.7792 22.6912 25.9525 22.2919 25.9914C22.2803 25.9926 22.2698 26.0083 22.2589 26.0169H14.6919V26.0161Z" fill="#434A54"/>
<path d="M13.8155 19.4964C13.8155 17.9849 13.8174 16.4738 13.8125 14.9624C13.8121 14.834 13.8406 14.7996 13.9727 14.7999C16.9896 14.804 20.0062 14.804 23.0231 14.7999C23.1616 14.7999 23.1938 14.8336 23.1938 14.9714C23.1893 17.9471 23.1908 20.9229 23.1901 23.8982C23.1901 24.2157 23.1369 24.5181 22.9464 24.7846C22.721 25.0998 22.4137 25.2637 22.0301 25.2641C19.6802 25.2671 17.3303 25.2678 14.9807 25.2641C14.3975 25.263 13.9371 24.8509 13.8432 24.2628C13.8237 24.14 13.817 24.0139 13.817 23.8893C13.8151 22.425 13.8159 20.9607 13.8159 19.496L13.8155 19.4964Z" fill="#FEFEFE"/>
<path d="M18.4973 14.0544C16.8406 14.0544 15.1836 14.0547 13.5269 14.0544C13.1009 14.0544 12.834 13.8515 12.7693 13.4847C12.7086 13.1418 12.9448 12.7914 13.2862 12.7256C13.3723 12.7087 13.4621 12.7035 13.5501 12.7035C16.8534 12.7024 20.1566 12.7024 23.4595 12.7027C23.9806 12.7027 24.298 13.0291 24.2302 13.4922C24.1887 13.774 23.9532 14.0072 23.6699 14.0413C23.5875 14.0514 23.5037 14.0536 23.4206 14.0536C21.7792 14.0544 20.1383 14.054 18.4969 14.054L18.4973 14.0544Z" fill="#FEFEFE"/>
<path d="M18.4928 11.9519C17.7427 11.9519 16.9922 11.9489 16.2421 11.9549C16.1212 11.956 16.089 11.9216 16.0995 11.8071C16.11 11.6933 16.098 11.5776 16.104 11.4634C16.1261 11.0543 16.4225 10.759 16.832 10.7571C17.9471 10.7523 19.0618 10.7523 20.1769 10.7571C20.5691 10.759 20.8484 11.0259 20.8955 11.4193C20.9379 11.7741 20.7831 11.9515 20.431 11.9515C19.7849 11.9515 19.1389 11.9515 18.4928 11.9515V11.9519Z" fill="#FEFEFE"/>
<path d="M16.6622 19.7139C16.6622 20.8706 16.6615 22.0272 16.663 23.1842C16.663 23.3496 16.63 23.4945 16.4762 23.5854C16.2685 23.7086 16.0012 23.6045 15.9387 23.3728C15.9215 23.3084 15.9132 23.2396 15.9132 23.1729C15.9121 20.875 15.9121 18.5775 15.9121 16.2797C15.9121 16.1247 15.9338 15.9795 16.0753 15.881C16.2845 15.735 16.566 15.8309 16.6416 16.0742C16.6637 16.1457 16.6618 16.2183 16.6618 16.2909C16.6618 17.4318 16.6618 18.5731 16.6618 19.7139H16.6622Z" fill="#434A54"/>
<path d="M18.1292 19.7315C18.1292 18.5696 18.1284 17.4078 18.1295 16.2459C18.1295 15.973 18.2792 15.8065 18.5109 15.8121C18.7011 15.8166 18.8403 15.9461 18.8729 16.1531C18.8808 16.204 18.8793 16.2568 18.8793 16.3088C18.8793 18.5857 18.8793 20.8626 18.8793 23.1392C18.8793 23.2122 18.8793 23.2837 18.8591 23.3559C18.8126 23.521 18.6764 23.6344 18.5106 23.6389C18.3418 23.6434 18.1872 23.527 18.1467 23.3559C18.1314 23.2911 18.1299 23.2219 18.1299 23.1545C18.1288 22.0136 18.1292 20.8724 18.1292 19.7315Z" fill="#434A54"/>
<path d="M20.3393 19.718C20.3393 18.5718 20.34 17.4257 20.3386 16.2792C20.3386 16.1096 20.3648 15.9577 20.5257 15.8618C20.7361 15.7368 21.0138 15.8521 21.0673 16.0913C21.0831 16.1617 21.089 16.2354 21.089 16.3076C21.0902 18.5846 21.0902 20.8611 21.089 23.138C21.089 23.1949 21.0853 23.2526 21.0756 23.3083C21.0393 23.5176 20.8806 23.6516 20.69 23.6381C20.4939 23.6243 20.3475 23.4794 20.343 23.2657C20.3344 22.87 20.3393 22.474 20.3389 22.078C20.3389 21.2912 20.3389 20.5044 20.3389 19.718H20.3393Z" fill="#434A54"/>
</svg>
