<svg width="240" height="211" viewBox="0 0 240 211" fill="none" xmlns="http://www.w3.org/2000/svg">
<path opacity="0.22" d="M232.855 55.9026C226.603 35.0294 210.821 17.2025 189.744 10.2191C174.007 5.00631 156.994 4.70938 140.547 6.76041C127.939 8.33305 114.698 11.7038 106.07 21.0296C94.3304 33.7152 93.5826 54.8084 79.6103 64.9865C67.7 73.6636 49.9061 71.3101 38.9031 81.1143C32.783 86.5636 29.9182 95.4221 31.6833 103.423C33.6298 112.276 37.3635 120.051 30.1271 127.381C24.4579 133.121 15.0441 135.332 11.7943 143.36C9.58386 148.826 11.5799 155.292 15.3905 159.796C19.1956 164.299 24.5294 167.197 29.8357 169.765C52.1441 180.565 76.421 187.317 101.215 188.659C127.922 190.105 154.316 184.601 180.87 182.775C192.004 182.011 203.997 180.295 211.959 172.47C223.815 160.819 221.731 141.754 225.613 126.671C230.127 109.103 236.484 91.518 235.763 73.1137C235.532 67.252 234.543 61.4618 232.871 55.8861L232.855 55.9026Z" fill="#CAD2F3"/>
<path opacity="0.22" d="M44.3335 190.924C51.2633 190.924 56.8809 189.239 56.8809 187.16C56.8809 185.081 51.2633 183.396 44.3335 183.396C37.4038 183.396 31.7861 185.081 31.7861 187.16C31.7861 189.239 37.4038 190.924 44.3335 190.924Z" fill="#A5B5DE"/>
<path opacity="0.22" d="M13.3839 181.723C20.7756 181.723 26.7678 180.037 26.7678 177.958C26.7678 175.88 20.7756 174.194 13.3839 174.194C5.99218 174.194 0 175.88 0 177.958C0 180.037 5.99218 181.723 13.3839 181.723Z" fill="#A5B5DE"/>
<path opacity="0.22" d="M114.599 188.415C120.605 188.415 125.473 186.729 125.473 184.65C125.473 182.572 120.605 180.886 114.599 180.886C108.593 180.886 103.725 182.572 103.725 184.65C103.725 186.729 108.593 188.415 114.599 188.415Z" fill="#A5B5DE"/>
<path d="M8.611 180.047C8.611 180.047 16.8582 180.305 17.8751 178.461C21.6134 171.678 17.7275 155.945 13.3135 152.008C8.89961 148.072 5.635 154.94 5.635 154.94L8.611 180.049V180.047Z" fill="#1B2744"/>
<path d="M4.58721 157.298C4.58721 157.298 6.09473 151.759 9.44762 153.49C12.7988 155.222 12.6324 179.947 8.60897 180.047C4.58721 180.149 2.91161 165.089 4.58721 157.298Z" fill="#7BCACB"/>
<path d="M5.71474 159.388C5.71474 159.388 6.63148 155.093 8.66868 156.436C10.7059 157.779 10.604 176.947 8.15938 177.025C5.71475 177.103 4.69614 165.428 5.71474 159.388Z" fill="#1B2744"/>
<path d="M40.5526 187.654C40.5526 187.654 51.584 188.391 52.7231 186.011C56.3391 178.458 59.9195 157.91 47.1989 151.241C36.1896 145.471 33.2034 160.077 33.2034 160.077L40.5526 187.654Z" fill="#1B2744"/>
<path d="M35.2149 159.599C35.2149 159.599 37.2165 152.767 41.6627 154.903C46.1088 157.037 45.8865 187.53 40.5507 187.654C35.2149 187.778 32.991 169.206 35.2149 159.599Z" fill="#7BCACB"/>
<path d="M36.7091 162.178C36.7091 162.178 37.9246 156.881 40.6273 158.536C43.33 160.191 43.1941 183.831 39.9516 183.928C36.7091 184.025 35.3577 169.625 36.7091 162.178Z" fill="#1B2744"/>
<path d="M107.785 160.993C107.785 160.993 108.233 159.679 109.173 158.485C109.173 158.485 113.506 151.185 119.361 155.368C125.216 159.553 123.145 181.899 121.884 183.896C120.622 185.892 113.122 185.169 113.122 185.169C107.786 185.276 105.563 169.269 107.786 160.991L107.785 160.993Z" fill="#1B2744"/>
<path d="M111.145 128.671C111.145 128.671 129.336 136.207 127.775 153.487C127.775 153.487 129.465 153.747 130.115 157.125C130.765 160.504 127.387 176.355 124.918 176.743C122.45 177.134 51.3806 179.212 49.5624 178.173C47.7442 177.134 45.9243 174.665 46.055 168.688C46.1857 162.711 44.5424 150.262 39.2983 150.79C34.8148 151.241 33.7401 166.05 34.8148 175.38C35.3478 180.006 28.7745 173.496 23.0584 172.975C17.3424 172.455 13.594 173.318 13.3325 170.07C13.0728 166.822 13.9063 152.952 8.96105 152.737C4.28909 152.533 3.94616 162.106 3.94616 162.106C3.42667 161.456 2.79175 154.069 4.22118 150.79C5.65061 147.51 3.57098 134.127 6.94933 132.178C10.3277 130.229 7.85927 110.091 27.2177 106.194C46.5728 102.296 85.9399 103.768 93.6065 108.034C101.271 112.3 111.147 128.671 111.147 128.671H111.145Z" fill="#56C3C5"/>
<path d="M40.1717 107.611C38.9409 107.725 38.0853 108.886 38.3315 110.098C38.761 112.219 39.345 115.728 39.4265 119.447C39.5572 125.423 36.4386 129.061 46.3122 129.711C56.1858 130.362 110.087 130.596 109.696 128.776C109.306 126.958 95.6836 109.616 91.7858 108.402C88.3243 107.326 50.1557 106.691 40.1717 107.611Z" fill="#253253"/>
<path d="M128.799 157.123C128.799 157.123 129.14 159.852 123.856 160.566C118.571 161.281 113.967 159.982 112.688 164.4C111.41 168.817 113.967 172.974 105.528 174.144C97.0886 175.314 75.5147 176.613 74.2822 173.105C73.0497 169.598 75.6081 163.751 70.2367 162.71C64.867 161.671 52.5912 162.97 49.6508 161.281C46.7104 159.592 46.5814 157.514 48.3725 156.084C50.1618 154.655 116.907 154.786 120.679 154.786C124.452 154.786 128.799 154.395 128.799 157.125V157.123Z" fill="#253253"/>
<path d="M105.66 159.836L79.4053 159.636C78.5208 159.629 77.8604 160.448 78.0539 161.312L78.6532 163.977C78.7941 164.603 79.3509 165.05 79.9944 165.05H105.001C105.626 165.05 106.171 164.629 106.33 164.024L106.979 161.559C107.206 160.692 106.556 159.843 105.66 159.836Z" fill="#7BCACB"/>
<path d="M18.8876 137.308C18.5701 138.449 18.9419 139.549 19.7194 139.767C20.4969 139.984 21.3848 139.235 21.704 138.094C22.0214 136.954 21.6497 135.853 20.8721 135.636C20.0946 135.419 19.2067 136.168 18.8876 137.308Z" fill="#F3F5FC"/>
<path d="M7.99107 136.079C7.67361 137.22 8.0454 138.32 8.82293 138.538C9.60046 138.755 10.4883 138.006 10.8075 136.865C11.125 135.724 10.7532 134.624 9.97564 134.407C9.19811 134.19 8.31023 134.938 7.99107 136.079Z" fill="#F3F5FC"/>
<path d="M12.0818 128.238C12.0818 128.238 12.0139 118.278 17.6434 114.207C23.2728 110.136 31.4148 108.317 32.975 109.529C34.5334 110.742 34.7932 126.679 33.4079 128.239C32.0226 129.8 13.5367 129.798 12.0818 128.239V128.238Z" fill="#253253"/>
<path d="M29.4234 132.504C29.4234 132.504 31.9563 130.1 30.6576 126.073C29.3588 122.046 19.3545 124.775 18.3139 126.788C17.2749 128.801 21.368 132.244 24.0961 132.83C26.8242 133.414 26.2402 138.352 28.3182 138.093C30.3978 137.833 32.0479 136.403 31.0276 135.494C30.0074 134.584 28.123 133.285 29.4234 132.506V132.504Z" fill="#1B2744"/>
<path d="M115.52 148.439C112.266 145.807 111.025 141.948 112.747 139.82C114.468 137.691 118.502 138.099 121.755 140.731C125.008 143.362 126.25 147.221 124.528 149.35C122.806 151.478 118.773 151.07 115.52 148.439Z" fill="#F3F5FC"/>
<path d="M58.1377 148.436C54.8844 145.805 53.6429 141.946 55.3647 139.817C57.0865 137.689 61.1197 138.096 64.373 140.728C67.6263 143.36 68.8679 147.219 67.146 149.347C65.4242 151.476 61.3911 151.068 58.1377 148.436Z" fill="#F3F5FC"/>
<path opacity="0.22" d="M236.957 191.919C236.957 193.784 230.804 194.993 224.964 194.993C219.125 194.993 215.798 193.789 215.798 191.919C215.798 190.05 220.538 188.543 226.377 188.543C232.217 188.543 236.957 190.055 236.957 191.919Z" fill="#A5B5DE"/>
<path d="M232.624 172.272C227.356 176.27 218.822 172.63 214.093 168.539C213.268 167.824 212.658 166.878 212.433 165.811C211.355 160.687 219.46 159.422 219.696 154.825C219.801 152.812 218.283 151.146 217.167 149.469C214.616 145.642 213.895 140.803 214.434 136.239C214.973 131.675 216.683 127.326 218.679 123.18C220.307 119.792 223.221 115.96 226.889 116.774C229.248 117.296 230.76 119.644 231.447 121.959C232.393 125.143 232.256 128.568 231.623 131.829C231.343 133.275 230.969 134.777 231.354 136.195C232.349 139.83 237.446 140.649 239.294 143.932C241.175 147.275 238.931 151.344 236.853 154.567C235.076 157.327 233.982 159.037 235.148 161.396C235.456 162.017 235.912 162.556 236.44 163.013C237.562 163.98 239.662 166.928 232.618 172.272H232.624Z" fill="#56C3C5"/>
<path d="M218.085 171.36L221.225 191.403H231.843L234.686 170.612L218.085 171.36Z" fill="#4F4F4F"/>
<path d="M225.327 122.404C225.019 130.334 225.074 138.279 225.096 146.214C225.113 153.626 224.722 161.181 225.223 168.577C225.245 168.869 225.635 168.858 225.668 168.577C226.487 161.247 225.883 153.577 225.855 146.214C225.822 138.279 225.745 130.334 226.042 122.404C226.059 121.948 225.349 121.948 225.333 122.404H225.327Z" fill="#3ABCBE"/>
<path opacity="0.22" d="M160.552 211C181.701 211 198.845 208.277 198.845 204.918C198.845 201.56 181.701 198.837 160.552 198.837C139.403 198.837 122.259 201.56 122.259 204.918C122.259 208.277 139.403 211 160.552 211Z" fill="#A5B5DE"/>
<path d="M141.752 202.433C141.752 202.433 127.565 202.416 125.233 204.402C125.892 208.072 142.204 207.236 142.204 207.236L141.752 202.433Z" fill="#1E1E1E"/>
<path d="M193.941 193.717C193.941 193.717 178.759 200.008 177.852 202.928C181.52 205.981 195.74 199.289 195.74 199.289L193.941 193.717Z" fill="#1E1E1E"/>
<path d="M136.479 80.4709C136.479 80.4709 124.156 134.023 135.044 202.719H141.774C141.774 202.719 141.73 129.322 151.71 108.833C151.71 108.833 172.369 169.083 188.123 196.395L194.232 194.163C194.232 194.163 171.143 124.593 166.414 82.0436L136.473 80.4655L136.479 80.4709Z" fill="#183647"/>
<path d="M92.3344 75.0822C92.3344 75.0822 86.1208 70.4962 85.7469 70.7877C84.6581 71.629 87.7209 74.1859 87.7209 74.1859C87.7209 74.1859 80.1272 71.662 79.7588 72.7782C79.5333 73.4656 83.6409 75.2636 83.6409 75.2636C83.6409 75.2636 79.6158 74.8128 79.2309 75.731C78.857 76.6328 83.8663 77.7546 83.8663 77.7546C83.8663 77.7546 81.0125 77.8151 80.732 78.7004C80.5396 79.3107 91.746 80.8834 91.746 80.8834L92.3344 75.0767V75.0822Z" fill="#F7D3C9"/>
<path d="M149.203 34.364C149.203 34.364 132.36 37.0254 126.597 45.0041C120.835 52.9827 119.531 75.0712 102.15 74.3948C96.0904 74.1584 92.4667 72.4868 92.4667 72.4868L89.2939 81.9336C89.2939 81.9336 104.877 90.2202 117.288 82.6814C129.699 75.1482 136.347 60.5215 136.347 60.5215L132.684 98.0834L171.187 99.931C171.187 99.931 173.133 60.0761 170.477 42.3482L160.288 34.353L149.203 34.3695V34.364Z" fill="#4A86B2"/>
<path d="M145.419 5.34723C144.039 10.8625 141.608 16.3392 141.702 22.1294C141.729 23.911 142.274 25.7915 143.648 26.9243C144.946 27.9965 146.744 28.222 148.212 29.0468C148.416 29.1623 148.625 29.2997 148.746 29.4977C148.883 29.7231 148.894 29.9981 148.911 30.2565C149.021 31.6642 149.136 33.0994 149.224 34.452C149.285 35.4418 150.632 37.1134 150.632 37.8778C152.111 39.5054 154.47 38.6916 154.47 38.6916C157.566 38.84 160.134 37.4434 160.282 34.3476L161.47 9.8122L145.413 5.34723H145.419Z" fill="#F7D3C9"/>
<path d="M144.793 10.2191C143.561 9.58677 141.68 7.24981 141.268 5.93011C140.856 4.61042 141.642 1.2012 142.852 0.530354C144.259 -0.255965 145.969 0.585342 147.553 0.887772C149.928 1.33867 152.342 0.524856 154.756 0.37639C157.17 0.233423 160.046 1.15721 160.679 3.49417C160.805 3.97256 160.904 4.57193 161.371 4.73689C161.575 4.80287 161.789 4.76438 162.004 4.75338C163.873 4.6654 165.072 6.90889 164.88 8.77296C164.687 10.637 163.631 12.2867 163.109 14.0847C161.971 18.0218 162.988 22.6903 161.063 26.3139C159.551 29.1623 161.503 20.6227 158.616 18.3793L157.264 12.4736C157.264 12.4736 147.608 11.6708 144.793 10.2246V10.2191Z" fill="#263238"/>
<path d="M157.55 17.6644C157.55 17.6644 161.982 13.6778 163.752 16.7791C165.523 19.8804 157.55 22.0964 157.55 22.0964V17.6644Z" fill="#F7D3C9"/>
<path d="M149.037 42.5407L150.934 68.1043L158.346 41.7544L153.139 39.8573L149.037 42.5407Z" fill="white"/>
<path d="M152.66 43.7012L147.223 83.5538L149.651 85.5259L151.965 83.7705L153.915 44.1195L153.634 42.0283L152.66 43.7012Z" fill="#183647"/>
<path d="M160.289 34.2761C160.289 34.2761 192.786 42.6342 192.599 69.5835C192.445 91.7599 170.478 90.2093 170.478 90.2093V81.3453C170.478 81.3453 188.206 77.3587 179.342 61.8413C170.478 46.3294 156.736 59.1799 156.736 59.1799L160.289 34.2706V34.2761Z" fill="#4A86B2"/>
<path d="M170.911 82.4451C170.911 82.4451 163.554 80.1026 163.295 80.4985C162.537 81.6422 166.259 83.0774 166.259 83.0774C166.259 83.0774 158.259 83.1324 158.27 84.3036C158.275 85.024 162.746 85.4089 162.746 85.4089C162.746 85.4089 158.786 86.2722 158.72 87.273C158.654 88.2462 163.763 87.6963 163.763 87.6963C163.763 87.6963 161.079 88.6696 161.101 89.5989C161.112 90.2368 172.231 88.1252 172.231 88.1252L170.922 82.4341L170.911 82.4451Z" fill="#F7D3C9"/>
<path d="M170.478 81.3453V90.2092L173.546 89.3514V82.544L170.478 81.3453Z" fill="#232049"/>
<path d="M157.264 12.4681C157.264 12.4681 155.994 15.6409 157.424 17.1311C157.424 17.1311 156.588 19.8144 157.484 19.9299C158.38 20.0509 159.508 15.2835 159.508 15.2835C159.508 15.2835 159.898 11.0824 157.259 12.4681H157.264Z" fill="#263238"/>
<path d="M151.628 83.2978C151.628 83.2978 151.639 83.2808 151.628 83.2808C151.616 83.2808 151.616 83.2978 151.628 83.2978Z" fill="#624FB5"/>
<path d="M149.779 91.5125C149.856 91.5125 149.856 91.3915 149.779 91.3915C149.702 91.3915 149.702 91.5125 149.779 91.5125Z" fill="#624FB5"/>
<path d="M151.809 40.1432L152.452 44.2123L154.162 44.4268L155.663 40.1432H151.809Z" fill="#183647"/>
<path d="M149.202 34.3641C149.202 34.3641 147.564 41.3915 148.421 43.5305C149.279 45.6695 153.524 40.3577 153.524 40.3577C153.524 40.3577 155.564 43.8329 157.494 44.6852C159.419 45.543 160.293 37.6963 160.293 34.2706C160.293 34.2706 153.453 44.2068 149.208 34.3586L149.202 34.3641Z" fill="white"/>
</svg>
