<svg width="15" height="9" viewBox="0 0 15 9" fill="none" xmlns="http://www.w3.org/2000/svg">
<path d="M9.86634 1.04533C9.71428 1.1165 9.57841 1.25238 9.52988 1.38179C9.48135 1.5112 9.48459 1.77648 9.53959 1.89942C9.56547 1.95765 10.1025 2.52057 10.7528 3.16761L11.9207 4.33227L4.97475 4.34845L1.33308 4.36462L1.21014 4.44227C1.1422 4.48433 1.04838 4.57815 0.999856 4.64932C0.925447 4.75932 0.912506 4.81755 0.912506 4.99548C0.912506 5.17342 0.925447 5.23165 0.999856 5.34165C1.04838 5.41282 1.1422 5.50664 1.21014 5.5487L1.33308 5.62635L4.97475 5.64252L11.9207 5.6587L10.7528 6.82336C10.1025 7.4704 9.56547 8.03332 9.53959 8.09155C9.48459 8.21449 9.48135 8.47977 9.52988 8.60918C9.64635 8.92299 10.0702 9.09122 10.3743 8.94888C10.5134 8.88417 13.9459 5.51311 14.0624 5.32547C14.1724 5.14754 14.1691 4.82726 14.0527 4.65256C13.9168 4.44874 10.5134 1.1068 10.3743 1.0421C10.219 0.967686 10.0281 0.970922 9.86634 1.04533Z" fill="#56C4C6"/>
</svg>
