<svg width="29" height="29" viewBox="0 0 29 29" fill="none" xmlns="http://www.w3.org/2000/svg">
<rect width="29" height="29" rx="4.83333" fill="#EFF3F7"/>
<path d="M20.0064 12.2384L20.0065 12.2383C20.1785 12.067 20.4557 12.067 20.6278 12.2386C20.6278 12.2387 20.6278 12.2387 20.6279 12.2387L20.5162 12.3505C20.6265 12.4605 20.6265 12.6384 20.5162 12.7481L20.0064 12.2384ZM20.0064 12.2384L12.5966 19.6376L12.7082 19.7494M20.0064 12.2384L12.7082 19.7494M12.7082 19.7494L12.5966 19.6376C11.7466 20.4864 10.3633 20.4863 9.51438 19.6381L9.51435 19.638M12.7082 19.7494L9.51435 19.638M9.51435 19.638C8.66452 18.7894 8.66449 17.4086 9.51437 16.5596L9.51441 16.5596L10.4699 15.6044M9.51435 19.638L10.4699 15.6044M10.4699 15.6044L10.4699 15.6044L16.9232 9.16033L16.9232 9.1603L17.7005 8.38451L17.7006 8.38445C18.2535 7.83207 19.1536 7.8319 19.7076 8.38443C20.2605 8.93704 20.2605 9.83619 19.7077 10.3885C19.7077 10.3885 19.7077 10.3885 19.7077 10.3885L17.6564 12.4375L17.6564 12.4375L12.478 17.6089L12.3587 17.728L10.4699 15.6044ZM16.7641 11.5475L11.4662 16.838C11.2203 17.0836 11.2204 17.483 11.4661 17.728L11.4662 17.7281C11.7121 17.9736 12.1125 17.9734 12.3586 17.7281L16.7641 11.5475ZM16.7641 11.5475C16.9363 11.376 16.9361 11.0975 16.7643 10.9259L16.7642 10.9258C16.5921 10.7543 16.3149 10.7545 16.1428 10.9257L16.1425 10.9259L10.8448 16.2167M16.7641 11.5475L10.8448 16.2167M10.8448 16.2167C10.8448 16.2167 10.8448 16.2167 10.8448 16.2168M10.8448 16.2167L10.8448 16.2168M10.8449 18.3499C11.4334 18.938 12.3908 18.9372 12.98 18.3499L12.9801 18.3498L13.0994 18.2306L18.2778 13.0592L18.2778 13.0592L20.3291 11.0102C20.3291 11.0102 20.3291 11.0102 20.3291 11.0102C21.2255 10.115 21.2264 8.65873 20.3291 7.76315C19.4329 6.86823 17.9752 6.86831 17.0784 7.76313L17.0783 7.76322L16.3019 8.539L16.3019 8.53904L9.84868 14.9834L9.84865 14.9834L8.8932 15.9381C8.89318 15.9381 8.89316 15.9381 8.89314 15.9381L10.8449 18.3499ZM10.8449 18.3499C10.2552 17.7619 10.2553 16.805 10.8448 16.2168M10.8449 18.3499L10.8448 16.2168" fill="#9AA0B5" stroke="#9AA0B5" stroke-width="0.316026"/>
</svg>
