<svg width="19" height="15" viewBox="0 0 19 15" fill="none" xmlns="http://www.w3.org/2000/svg">
<path d="M18.9685 13.1263C18.8761 14.0238 18.0293 14.8582 17.1279 14.9376C16.9928 14.9494 16.8565 14.9556 16.7203 14.9556C11.9041 14.9568 7.08798 14.9556 2.27182 14.9573C1.33157 14.9573 0.635661 14.5525 0.200439 13.7186C0.0411012 13.4129 0 13.0757 0 12.7311C0.00225212 10.3016 0.00112606 7.87159 0.00112606 5.44211C0.00112606 4.92919 0 4.41571 0.00112606 3.90279C0.00506727 2.64104 0.93857 1.70359 2.20257 1.69796C3.10511 1.69346 4.00765 1.69402 4.91018 1.70022C5.05713 1.70134 5.1185 1.6822 5.13089 1.50822C5.18776 0.743066 5.82173 0.00268221 6.84588 0.00268221C8.61379 0.00268221 10.3823 -0.0052002 12.1502 0.00606039C12.9987 0.0111277 13.5927 0.477879 13.8151 1.26443C13.8235 1.29427 13.8353 1.32299 13.8398 1.35339C13.8759 1.58273 14.0072 1.6974 14.234 1.6974C15.0931 1.6974 15.9529 1.69346 16.8121 1.69853C17.8571 1.70472 18.6954 2.35727 18.9448 3.34201C18.9623 3.40957 18.9341 3.49178 19 3.54639V12.9343C18.9561 12.9929 19.0017 13.0661 18.9685 13.1263Z" fill="#C2C9E0"/>
<path d="M9.4881 14.0018C7.07608 14.0018 4.66406 14.0013 2.2526 14.0024C1.73518 14.0024 1.32811 13.8149 1.08094 13.3408C0.987475 13.1612 0.960449 12.9676 0.960449 12.7671C0.961012 9.80502 0.959323 6.84235 0.962138 3.88026C0.962701 3.15226 1.45873 2.6613 2.18785 2.65792C3.29477 2.65341 4.40169 2.65679 5.5086 2.65679C5.91849 2.65679 6.10147 2.47099 6.10541 2.05717C6.1071 1.89051 6.1026 1.72273 6.1178 1.55663C6.14877 1.21656 6.3965 0.95419 6.73263 0.952501C8.58162 0.944056 10.4306 0.944056 12.2796 0.952501C12.6349 0.95419 12.8905 1.23852 12.9102 1.60505C12.9192 1.7779 12.9119 1.95132 12.9141 2.12417C12.9181 2.45354 13.1168 2.6551 13.4462 2.65567C14.5717 2.65735 15.6972 2.65454 16.8227 2.65735C17.4206 2.65904 17.8615 2.98279 18.0141 3.52442C18.0546 3.66799 18.063 3.81607 18.063 3.96471C18.063 6.85925 18.0653 9.75322 18.0614 12.6478C18.0602 13.3482 17.7438 13.7896 17.1639 13.9562C17.0152 13.999 16.8593 14.0024 16.7044 14.0024C14.2986 14.0018 11.8928 14.0024 9.48753 14.0024L9.4881 14.0018Z" fill="#FEFEFE"/>
<path d="M13.945 8.34511C13.909 10.8849 11.8877 12.7795 9.4802 12.7671C6.9477 12.7536 5.04634 10.7194 5.06211 8.30457C5.07844 5.76587 7.11829 3.86959 9.52975 3.89155C12.0347 3.91407 13.9248 5.90044 13.945 8.34567V8.34511Z" fill="#C2C9E0"/>
<path d="M15.9289 5.63178C15.443 5.63178 15.0438 5.23428 15.0449 4.7512C15.0455 4.26869 15.4458 3.87175 15.9311 3.87232C16.4193 3.87232 16.8134 4.26644 16.8128 4.75346C16.8128 5.24104 16.4187 5.63235 15.9294 5.63178H15.9289Z" fill="#C2C9E0"/>
<path d="M12.9642 8.36256C12.9631 10.2752 11.4007 11.828 9.49144 11.8162C7.57038 11.8038 6.02486 10.2498 6.03669 8.34173C6.04851 6.41335 7.58502 4.8791 9.50157 4.88135C11.4305 4.8836 12.9659 6.42743 12.9642 8.36313V8.36256Z" fill="#FEFEFE"/>
</svg>
