<svg width="14" height="15" viewBox="0 0 14 15" fill="none" xmlns="http://www.w3.org/2000/svg">
<path d="M13.2075 0.0222559C13.5584 0.0725556 13.8039 0.266082 13.9322 0.590473C14.0614 0.916995 14.003 1.22519 13.783 1.49971C13.7404 1.55299 13.6905 1.60031 13.6423 1.64847C11.8899 3.40129 10.1384 5.15497 8.38301 6.90438C8.2952 6.99176 8.29904 7.03268 8.38429 7.11794C10.1525 8.88099 11.9172 10.647 13.682 12.4126C13.9889 12.72 14.0754 13.0878 13.9279 13.4455C13.6794 14.0491 12.9126 14.1974 12.4351 13.7294C12.0025 13.3052 11.5775 12.8734 11.1491 12.445C9.79951 11.095 8.44866 9.74589 7.1025 8.39291C7.0164 8.30638 6.97718 8.31106 6.89406 8.39461C5.13143 10.1628 3.36241 11.925 1.60277 13.6961C1.28904 14.012 0.852539 14.0776 0.517491 13.9191C0.293273 13.8129 0.141095 13.6394 0.0524311 13.4075C0.0370854 13.3675 0.0447583 13.3155 0 13.2882V12.9327C0.0230186 12.714 0.136406 12.5443 0.287732 12.393C2.05632 10.6257 3.82321 8.85669 5.59308 7.09108C5.65574 7.02842 5.6583 7.00114 5.59436 6.93763C3.83813 5.18395 2.08446 3.42772 0.327375 1.67405C0.161982 1.50908 0.0353804 1.32877 0.000426269 1.0939V0.738388C0.033249 0.496694 0.156441 0.311693 0.348262 0.165056C0.48339 0.0614726 0.631305 0.00776269 0.80096 0.0141567C0.863196 0.0141567 0.925005 0.0141567 0.98724 0.0141567C1.23917 -0.00161523 1.43227 0.11433 1.6032 0.284838C2.72983 1.41232 3.85731 2.5398 4.98437 3.66686C5.61567 4.29816 6.24655 4.92947 6.87786 5.56077C6.99849 5.68141 6.99892 5.68141 7.12296 5.55736C8.87791 3.80199 10.6333 2.04704 12.3878 0.291232C12.5622 0.116888 12.7578 -0.00289404 13.0153 0.0141567C13.0797 0.0184194 13.1444 0.00477881 13.208 0.0222559H13.2075Z" fill="white"/>
</svg>
