<svg width="14" height="14" viewBox="0 0 14 14" fill="none" xmlns="http://www.w3.org/2000/svg">
<path d="M13.2075 0.00971313C13.5584 0.0600129 13.8039 0.253539 13.9322 0.57793C14.0614 0.904453 14.003 1.21265 13.783 1.48716C13.7404 1.54045 13.6905 1.58776 13.6423 1.63593C11.8899 3.38875 10.1384 5.14242 8.38301 6.89183C8.2952 6.97922 8.29904 7.02014 8.38429 7.10539C10.1525 8.86844 11.9172 10.6345 13.682 12.4001C13.9889 12.7074 14.0754 13.0753 13.9279 13.4329C13.6794 14.0365 12.9126 14.1849 12.4351 13.7168C12.0025 13.2927 11.5775 12.8609 11.1491 12.4325C9.79951 11.0825 8.44866 9.73335 7.1025 8.38037C7.0164 8.29383 6.97718 8.29852 6.89406 8.38207C5.13143 10.1502 3.36241 11.9124 1.60277 13.6836C1.28904 13.9994 0.852539 14.0651 0.517491 13.9065C0.293273 13.8004 0.141095 13.6269 0.0524311 13.395C0.0370854 13.3549 0.0447583 13.3029 0 13.2756V12.9201C0.0230186 12.7015 0.136406 12.5318 0.287732 12.3805C2.05632 10.6132 3.82321 8.84415 5.59308 7.07854C5.65574 7.01588 5.6583 6.9886 5.59436 6.92508C3.83813 5.17141 2.08446 3.41518 0.327375 1.66151C0.161982 1.49654 0.0353804 1.31623 0.000426269 1.08135V0.725846C0.033249 0.484151 0.156441 0.29915 0.348262 0.152513C0.48339 0.0489299 0.631305 -0.00478003 0.80096 0.00161401C0.863196 0.00161401 0.925005 0.00161401 0.98724 0.00161401C1.23917 -0.014158 1.43227 0.101787 1.6032 0.272295C2.72983 1.39978 3.85731 2.52726 4.98437 3.65432C5.61567 4.28562 6.24655 4.91693 6.87786 5.54823C6.99849 5.66887 6.99892 5.66887 7.12296 5.54482C8.87791 3.78944 10.6333 2.03449 12.3878 0.278689C12.5622 0.104345 12.7578 -0.0154368 13.0153 0.00161401C13.0797 0.0058767 13.1444 -0.00776392 13.208 0.00971313H13.2075Z" fill="black"/>
</svg>
