<svg width="32" height="18" viewBox="0 0 32 18" fill="none" xmlns="http://www.w3.org/2000/svg">
<g clip-path="url(#clip0_19_1783)">
<path d="M0 0V18H32V0H0Z" fill="#012169"/>
<path d="M0 0L32 18ZM32 0L0 18Z" fill="black"/>
<path d="M0 0L32 18M32 0L0 18" stroke="white" stroke-width="3.6"/>
<path d="M0 0L32 18ZM32 0L0 18Z" fill="black"/>
<path d="M0 0L32 18M32 0L0 18" stroke="#C8102E" stroke-width="2.4"/>
<path d="M16 0V18ZM0 9H32Z" fill="black"/>
<path d="M16 0V18M0 9H32" stroke="white" stroke-width="6"/>
<path d="M16 0V18ZM0 9H32Z" fill="black"/>
<path d="M16 0V18M0 9H32" stroke="#C8102E" stroke-width="3.6"/>
</g>
<defs>
<clipPath id="clip0_19_1783">
<rect width="32" height="18" rx="2" fill="white"/>
</clipPath>
</defs>
</svg>
