<svg width="19" height="20" viewBox="0 0 19 20" fill="none" xmlns="http://www.w3.org/2000/svg">
<path d="M1.85886 1.05228C1.19851 1.19696 0.567845 1.69037 0.267351 2.29878C-0.018304 2.87379 0.000245066 2.28023 0.000245066 10.4937C0.000245066 16.8301 0.00766467 17.8948 0.0558921 18.1137C0.200574 18.7926 0.686559 19.4195 1.30239 19.7237C1.85886 19.9982 1.69192 19.9908 5.81722 19.9908H9.49734V16.7262V13.4616H8.3102H7.12307V11.9777V10.4937H8.3102H9.49734V9.16562C9.49734 7.52218 9.54186 7.22168 9.87203 6.55021C10.2245 5.83422 10.7772 5.28517 11.4932 4.92903C12.161 4.60256 12.4615 4.55805 14.1086 4.55805H15.433V6.03826V7.52218L14.4425 7.53331C13.5744 7.54444 13.4334 7.55186 13.3296 7.61121C13.0773 7.74848 13.0773 7.73364 13.0662 9.18417L13.055 10.4937L14.539 10.5012L16.0192 10.5123L15.433 11.9777L14.8469 13.443L13.9528 13.4542L13.0588 13.4616V16.7262V19.9908H14.9619C17.1099 19.9908 17.1655 19.9834 17.6923 19.7237C18.3081 19.4195 18.7941 18.7926 18.9388 18.1137C19.0204 17.7278 19.0204 3.25961 18.9388 2.87379C18.7533 1.98715 18.0039 1.23777 17.1173 1.05228C16.7426 0.974377 2.22613 0.974377 1.85886 1.05228Z" fill="#1976D2"/>
</svg>
