<svg width="7" height="14" viewBox="0 0 7 14" fill="none" xmlns="http://www.w3.org/2000/svg">
<path d="M0.793128 0.544229C0.690488 0.589106 0.613508 0.660382 0.394231 0.90589C0.0583182 1.28339 0.0139964 1.37315 0.0116636 1.66089C0.0116636 1.814 0.0233273 1.90112 0.0559855 1.97768C0.086311 2.04895 0.832785 2.91483 2.37705 4.66506L4.6538 7.24421L2.37472 9.826C0.601844 11.8323 0.0839783 12.4316 0.0489873 12.5239C0.0163291 12.6031 0 12.7008 0 12.8143C0 13.0862 0.0676492 13.2182 0.391899 13.5825C0.620506 13.8386 0.688155 13.8967 0.800126 13.9442C0.970416 14.0181 1.10571 14.0181 1.276 13.9468C1.40664 13.894 1.52794 13.7594 4.14526 10.7975C7.17081 7.37621 6.99819 7.59268 6.99819 7.24421C6.99819 6.89575 7.17081 7.11222 4.14526 3.69095C1.52561 0.726378 1.40664 0.594385 1.276 0.541588C1.10805 0.472952 0.958752 0.472952 0.793128 0.544229Z" fill="#B1BBD5"/>
</svg>
