<svg width="19" height="15" viewBox="0 0 19 15" fill="none" xmlns="http://www.w3.org/2000/svg">
<path d="M9.25409 0.000218408C11.5215 0.000218408 13.7884 0.000218408 16.0558 0.000218408C17.477 0.000218408 18.5183 1.03416 18.5188 2.45289C18.5208 5.81714 18.5208 9.1809 18.5188 12.5451C18.5178 13.9649 17.4775 14.9998 16.0573 14.9998C11.523 14.9998 6.98816 15.0003 2.45385 14.9998C1.04544 14.9998 0.0011764 13.9614 0.000684977 12.556C-0.00029786 9.18581 -0.00029786 5.81566 0.0011764 2.44552C0.00166781 1.03859 1.04495 0.000709827 2.45237 0.000218408C4.71978 -0.00027301 6.98669 0.000218408 9.25409 0.000218408Z" fill="#C2C9E0"/>
<path d="M17.573 10.8287C16.544 9.80406 15.5415 8.80451 14.537 7.80743C14.0751 7.34844 13.5281 7.20396 12.9021 7.39169C12.62 7.47621 12.391 7.64772 12.1925 7.86394C11.7035 8.39664 11.2086 8.92393 10.7226 9.45908C10.6337 9.55737 10.5919 9.55147 10.5049 9.45613C9.29506 8.1298 8.08323 6.80493 6.86549 5.48547C6.33673 4.91248 5.49394 4.80928 4.85805 5.22109C4.72782 5.30512 4.62266 5.41618 4.51406 5.5243C3.36905 6.66734 2.22405 7.81038 1.08002 8.9544C1.04612 8.98831 1.02302 9.03253 0.987638 9.08217C0.929159 9.00403 0.94685 8.94801 0.94685 8.89739C0.945867 6.75235 0.945376 4.6078 0.946358 2.46276C0.946358 1.54676 1.54785 0.946734 2.46582 0.946734C6.99474 0.946243 11.5236 0.945752 16.0521 0.946734C16.9691 0.946734 17.571 1.54774 17.5715 2.46325C17.5725 5.19013 17.5715 7.9175 17.5715 10.6444C17.5715 10.697 17.5715 10.75 17.5715 10.8292L17.573 10.8287Z" fill="#FEFEFE"/>
<path d="M9.25963 14.0548C6.98633 14.0548 4.71303 14.0558 2.43973 14.0543C1.6741 14.0538 1.10061 13.5875 0.966457 12.8597C0.9468 12.7521 0.947291 12.64 0.947291 12.5304C0.945817 11.8808 0.948766 11.2316 0.944343 10.582C0.943851 10.4714 0.969897 10.3908 1.05196 10.3092C2.44169 8.92588 3.827 7.5386 5.21428 6.1533C5.54648 5.8211 5.91111 5.83093 6.23299 6.1818C8.07581 8.19121 9.91764 10.2011 11.7585 12.212C11.8868 12.352 12.0189 12.4779 12.2268 12.4479C12.417 12.4204 12.5556 12.3118 12.6263 12.1348C12.6961 11.9599 12.6563 11.7982 12.5295 11.6591C12.1408 11.2341 11.7555 10.806 11.36 10.3874C11.2651 10.2871 11.2715 10.2335 11.3619 10.1377C11.8828 9.58487 12.3949 9.02367 12.9133 8.46837C13.1738 8.18875 13.5595 8.16664 13.8279 8.43348C15.0564 9.65711 16.2791 10.8866 17.5037 12.1147C17.5332 12.1442 17.5626 12.1707 17.5725 12.2179C17.7278 12.9742 17.2958 13.7467 16.5847 13.9855C16.4009 14.0474 16.2132 14.0558 16.023 14.0558C13.7679 14.0558 11.5133 14.0558 9.25816 14.0558L9.25963 14.0548Z" fill="#FEFEFE"/>
<path d="M10.4388 6.17883C9.41022 6.18178 8.63525 5.40091 8.63574 4.36255C8.63623 3.33253 9.40039 2.55904 10.426 2.5497C11.4442 2.54037 12.2329 3.33597 12.2305 4.36943C12.2275 5.4014 11.4609 6.17637 10.4383 6.17932L10.4388 6.17883Z" fill="#C2C9E0"/>
<path d="M11.2908 4.36397C11.2918 4.87308 10.9287 5.24263 10.4299 5.24066C9.93256 5.23821 9.56351 4.86031 9.56941 4.35906C9.5753 3.86223 9.93797 3.49465 10.4255 3.49269C10.9272 3.49023 11.2899 3.85585 11.2908 4.36397Z" fill="#FEFEFE"/>
</svg>
