<svg width="21" height="20" viewBox="0 0 21 20" fill="none" xmlns="http://www.w3.org/2000/svg">
<path d="M5.60278 0.0322399C2.65631 0.344862 0.350723 2.66608 0.0381008 5.62817C-0.0127003 6.10883 -0.0127003 13.8853 0.0381008 14.366C0.354631 17.3515 2.6485 19.6454 5.63404 19.9619C6.11469 20.0127 13.8912 20.0127 14.3718 19.9619C17.3574 19.6454 19.6512 17.3515 19.9678 14.366C20.0186 13.8853 20.0186 6.10883 19.9678 5.62817C19.6512 2.64263 17.3574 0.34877 14.3718 0.0322399C13.9459 -0.010746 6.02482 -0.010746 5.60278 0.0322399ZM14.6532 1.96268C15.5324 2.1737 16.2397 2.56057 16.8415 3.15846C17.4551 3.77589 17.8497 4.51055 18.0412 5.38589C18.1077 5.69461 18.1116 6.00332 18.1116 9.99707C18.1116 13.9908 18.1077 14.2995 18.0412 14.6082C17.8497 15.4836 17.4551 16.2182 16.8415 16.8357C16.2241 17.4492 15.4895 17.8439 14.6141 18.0354C14.3054 18.1018 13.9967 18.1057 10.0029 18.1057C6.00918 18.1057 5.70047 18.1018 5.39176 18.0354C4.51641 17.8439 3.78175 17.4492 3.16432 16.8357C2.5508 16.2182 2.15612 15.4836 1.96463 14.6082C1.8982 14.2995 1.89429 13.9908 1.89429 9.99707C1.89429 6.00332 1.8982 5.69461 1.96463 5.38589C2.25381 4.04162 3.09789 2.94353 4.29758 2.33783C4.74697 2.11508 5.1104 2.00567 5.78253 1.89625C5.83724 1.88453 7.78722 1.88062 10.1202 1.88453C14.0475 1.89234 14.3796 1.89625 14.6532 1.96268Z" fill="#B1BBD5"/>
<path d="M15.2004 3.9908C14.8956 4.09241 14.7314 4.31515 14.7314 4.62777C14.7314 4.99119 15.0089 5.26865 15.3723 5.26865C15.6928 5.26865 15.9389 5.08107 16.0171 4.78017C16.1422 4.28779 15.6732 3.83449 15.2004 3.9908Z" fill="#B1BBD5"/>
<path d="M9.36205 5.03811C7.47459 5.29993 5.86459 6.61685 5.27451 8.38707C5.07912 8.98106 5.02441 9.33276 5.02441 9.99708C5.02441 10.6653 5.07912 11.0131 5.27842 11.6188C5.75126 13.0334 6.97049 14.2487 8.39292 14.7255C8.9869 14.9209 9.3386 14.9756 10.0029 14.9756C10.6672 14.9756 11.0189 14.9209 11.6129 14.7255C13.0354 14.2487 14.2546 13.0334 14.7274 11.6188C14.9267 11.0131 14.9814 10.6653 14.9814 9.99708C14.9814 9.56332 14.9619 9.29759 14.915 9.05921C14.6923 8.00021 14.2194 7.13659 13.4652 6.40974C12.754 5.72588 11.9373 5.29212 10.9603 5.09282C10.5852 5.01466 9.73329 4.9834 9.36205 5.03811ZM10.8822 7.00763C12.414 7.45702 13.3831 9.03967 13.0666 10.5754C12.8048 11.8572 11.863 12.799 10.5813 13.0608C9.60042 13.264 8.5336 12.9318 7.80284 12.1972C6.34915 10.7435 6.65786 8.36363 8.44372 7.29681C9.14712 6.87477 10.0654 6.76535 10.8822 7.00763Z" fill="#B1BBD5"/>
</svg>
