<svg width="25" height="25" viewBox="0 0 25 25" fill="none" xmlns="http://www.w3.org/2000/svg">
<path d="M13.5762 24.9995C13.8194 24.8762 14.0901 24.9007 14.3479 24.8645C19.4216 24.143 23.7001 20.1925 24.7033 15.1598C25.6797 10.2609 24.2421 6.11282 20.4482 2.87031C17.9237 0.711765 14.9232 -0.207314 11.6053 0.0394105C6.07855 0.450424 1.59073 4.31441 0.31384 9.71663C0.184631 10.2627 0.103364 10.8175 0.049576 11.3765C0.0448988 11.4262 0.078809 11.4946 0.000465158 11.5215V11.6682C0.0402218 11.708 0.020343 11.7588 0.0256049 11.805C0.0232663 11.8424 0.0332059 11.8822 0.000465158 11.9126V12.1079C0.0402218 12.2055 0.0402218 12.3032 0.000465158 12.4008V12.5961C0.0402218 12.6937 0.0402218 12.7913 0.000465158 12.889V13.0843C0.0332059 13.1147 0.0232663 13.1544 0.0256049 13.1918C0.020343 13.238 0.0402218 13.2889 0.000465158 13.3286V13.573C0.0601001 14.0711 0.0899166 14.5722 0.196909 15.0645C0.651771 17.157 1.5574 19.0238 2.95415 20.652C4.70987 22.6989 6.8994 24.0419 9.50814 24.7066C10.1396 24.8674 10.7803 24.9767 11.4352 24.9744C11.4679 24.9744 11.5001 24.9744 11.5258 24.9995H11.6725C11.7123 24.9598 11.7632 24.9797 11.8093 24.9744C11.8468 24.9767 11.8865 24.9668 11.9169 24.9995H12.1613C12.2426 24.9598 12.3238 24.9598 12.4057 24.9995H12.601C12.6986 24.9598 12.7962 24.9598 12.8939 24.9995H13.0892C13.1184 24.9674 13.1576 24.9762 13.1938 24.9744C13.2219 24.9744 13.2499 24.9744 13.278 24.9744C13.3142 24.9762 13.3534 24.9674 13.3821 24.9995H13.5773H13.5762Z" fill="white"/>
<path d="M-0.000249024 12.4002C0.072833 12.3026 0.0757562 12.2049 -0.000249024 12.1073V12.4002Z" fill="black"/>
<path d="M-2.78706e-05 12.889C0.0753927 12.7913 0.0730541 12.6937 -2.78706e-05 12.5961V12.889Z" fill="black"/>
<path d="M12.8936 24.9995C12.7959 24.9247 12.6983 24.9259 12.6006 24.9995H12.8936Z" fill="black"/>
<path d="M12.4053 24.9995C12.324 24.9276 12.2427 24.9265 12.1609 24.9995H12.4053Z" fill="black"/>
<path d="M0.0406034 11.8109C0.0388494 11.76 0.082699 11.6969 0.000847202 11.6682V11.815C0.0160483 11.8383 0.0294949 11.836 0.0406034 11.8115V11.8109Z" fill="black"/>
<path d="M0.000856581 13.3281C0.0821238 13.2994 0.0394434 13.2363 0.0406128 13.1854C0.0295043 13.1603 0.0166423 13.1585 0.000856581 13.1813V13.3281Z" fill="black"/>
<path d="M11.8139 24.9598C11.763 24.9609 11.6999 24.9183 11.6712 24.9989H11.818C11.8349 24.9884 11.8396 24.9791 11.8332 24.9709C11.8273 24.9633 11.8209 24.9592 11.8145 24.9592L11.8139 24.9598Z" fill="black"/>
<path d="M0.0399869 11.8109C0.0265398 11.8109 0.0136778 11.8115 0.000230733 11.8144V11.912C0.0499265 11.8927 0.0493414 11.8536 0.0399869 11.8109Z" fill="black"/>
<path d="M8.645e-05 13.1819C0.0129489 13.1848 0.0263955 13.186 0.0398426 13.186C0.0497818 13.1433 0.0491975 13.1041 8.645e-05 13.0843V13.1819V13.1819Z" fill="black"/>
<path d="M13.3813 24.9996C13.3696 24.9387 13.3257 24.9528 13.286 24.9586C13.2684 24.9668 13.2626 24.9756 13.2678 24.9849C13.2731 24.9949 13.2784 24.9996 13.2842 24.9996H13.3818H13.3813Z" fill="black"/>
<path d="M13.2838 24.9995C13.2838 24.9861 13.285 24.9721 13.2861 24.9586C13.254 24.9586 13.2212 24.9586 13.1891 24.9586C13.1715 24.9668 13.1651 24.975 13.1704 24.9843C13.1756 24.9943 13.1809 24.999 13.1867 24.999H13.2844L13.2838 24.9995Z" fill="black"/>
<path d="M13.1865 24.9996C13.1865 24.9861 13.1877 24.9727 13.1895 24.9586C13.1474 24.9504 13.1088 24.9516 13.0889 24.9996H13.1865Z" fill="black"/>
<path d="M11.8149 24.9598C11.816 24.9732 11.8172 24.9861 11.8184 24.999H11.916C11.8961 24.9499 11.8575 24.9499 11.8149 24.9598Z" fill="black"/>
<path d="M12.4955 1.25024C6.27948 1.25667 1.25261 6.28529 1.25378 12.4961C1.25495 18.7104 6.32275 23.7694 12.5224 23.746C18.7455 23.7227 23.7613 18.6911 23.749 12.4844C23.7367 6.26658 18.7052 1.2438 12.4955 1.25024V1.25024Z" fill="#56C3C5"/>
<path d="M14.3344 17.4931C14.6489 17.4861 14.8378 17.3604 14.9436 17.126C15.0494 16.8904 15.0155 16.6647 14.8454 16.4677C14.7875 16.4004 14.7179 16.342 14.6507 16.2835C13.2732 15.0773 11.8987 13.8683 10.5137 12.6715C10.3342 12.5166 10.3675 12.4546 10.5224 12.3201C11.9174 11.1093 13.3048 9.89028 14.6957 8.67478C14.839 8.54967 14.9664 8.41636 14.9927 8.21641C15.0272 7.95507 14.9044 7.70367 14.6805 7.57797C14.4502 7.44876 14.166 7.4815 13.9351 7.68087C13.4481 8.10006 12.9657 8.52511 12.4822 8.9484C11.3433 9.94524 10.205 10.9427 9.06665 11.9395C8.64102 12.3125 8.64394 12.6879 9.07425 13.0644C10.6721 14.4629 12.2706 15.8608 13.8678 17.2599C14.0181 17.3914 14.173 17.5043 14.3338 17.4931H14.3344Z" fill="white"/>
</svg>
