<svg width="25" height="25" viewBox="0 0 25 25" fill="none" xmlns="http://www.w3.org/2000/svg">
<g clip-path="url(#clip0_531_4)">
<rect width="25" height="25" fill="white"/>
<path d="M13.5762 24.9997C13.8194 24.8764 14.0901 24.9009 14.3479 24.8647C19.4216 24.1432 23.7001 20.1927 24.7033 15.16C25.6797 10.2611 24.2421 6.11297 20.4482 2.87046C17.9237 0.711918 14.9232 -0.207161 11.6053 0.039563C6.07857 0.450577 1.59075 4.31456 0.313863 9.71678C0.184654 10.2629 0.103387 10.8177 0.0495991 11.3767C0.0449219 11.4264 0.0788321 11.4948 0.000488281 11.5217V11.6684C0.0402449 11.7082 0.0203661 11.759 0.025628 11.8052C0.0232894 11.8426 0.033229 11.8824 0.000488281 11.9128V12.1081C0.0402449 12.2057 0.0402449 12.3034 0.000488281 12.401V12.5963C0.0402449 12.6939 0.0402449 12.7915 0.000488281 12.8892V13.0845C0.033229 13.1149 0.0232894 13.1546 0.025628 13.192C0.0203661 13.2382 0.0402449 13.2891 0.000488281 13.3288V13.5732C0.0601232 14.0713 0.0899397 14.5724 0.196932 15.0647C0.651794 17.1572 1.55742 19.024 2.95417 20.6522C4.70989 22.6991 6.89942 24.0421 9.50816 24.7068C10.1396 24.8676 10.7803 24.9769 11.4352 24.9746C11.4679 24.9746 11.5001 24.9746 11.5258 24.9997H11.6725C11.7123 24.96 11.7632 24.9799 11.8093 24.9746C11.8468 24.9769 11.8865 24.967 11.9169 24.9997H12.1613C12.2426 24.96 12.3238 24.96 12.4057 24.9997H12.601C12.6986 24.96 12.7962 24.96 12.8939 24.9997H13.0892C13.1184 24.9676 13.1576 24.9764 13.1938 24.9746C13.2219 24.9746 13.2499 24.9746 13.278 24.9746C13.3142 24.9764 13.3534 24.9676 13.3821 24.9997H13.5773H13.5762Z" fill="#B3B2B1"/>
<path d="M-0.000244141 12.4003C0.0728379 12.3027 0.0757611 12.205 -0.000244141 12.1074V12.4003Z" fill="black"/>
<path d="M0 12.8891C0.0754206 12.7914 0.073082 12.6938 0 12.5962V12.8891Z" fill="black"/>
<path d="M12.8936 24.9996C12.7959 24.9247 12.6983 24.9259 12.6006 24.9996H12.8936Z" fill="black"/>
<path d="M12.4053 24.9997C12.324 24.9278 12.2427 24.9267 12.1609 24.9997H12.4053Z" fill="black"/>
<path d="M0.0406107 11.8107C0.0388567 11.7598 0.0827063 11.6967 0.000854492 11.668V11.8148C0.0160556 11.8381 0.0295022 11.8358 0.0406107 11.8113V11.8107Z" fill="black"/>
<path d="M0.000854492 13.3283C0.0821217 13.2996 0.0394413 13.2365 0.0406107 13.1856C0.0295022 13.1605 0.0166402 13.1587 0.000854492 13.1815V13.3283Z" fill="black"/>
<path d="M11.8138 24.9599C11.7629 24.9611 11.6998 24.9184 11.6711 24.9991H11.8179C11.8348 24.9885 11.8395 24.9792 11.8331 24.971C11.8272 24.9634 11.8208 24.9593 11.8144 24.9593L11.8138 24.9599Z" fill="black"/>
<path d="M0.0400003 11.811C0.0265532 11.811 0.0136912 11.8116 0.000244141 11.8145V11.9121C0.0499399 11.8928 0.0493548 11.8537 0.0400003 11.811Z" fill="black"/>
<path d="M0.00012207 13.1821C0.0129845 13.185 0.0264311 13.1862 0.0398782 13.1862C0.0498174 13.1435 0.0492331 13.1043 0.00012207 13.0845V13.1821Z" fill="black"/>
<path d="M13.3813 24.9998C13.3696 24.9389 13.3257 24.953 13.286 24.9588C13.2684 24.967 13.2626 24.9758 13.2678 24.9851C13.2731 24.9951 13.2784 24.9998 13.2842 24.9998H13.3818H13.3813Z" fill="black"/>
<path d="M13.2838 24.9995C13.2838 24.986 13.285 24.972 13.2861 24.9585C13.254 24.9585 13.2212 24.9585 13.1891 24.9585C13.1715 24.9667 13.1651 24.9749 13.1704 24.9843C13.1756 24.9942 13.1809 24.9989 13.1867 24.9989H13.2844L13.2838 24.9995Z" fill="black"/>
<path d="M13.1865 24.9994C13.1865 24.9859 13.1877 24.9725 13.1895 24.9584C13.1474 24.9502 13.1088 24.9514 13.0889 24.9994H13.1865Z" fill="black"/>
<path d="M11.8149 24.9598C11.816 24.9732 11.8172 24.9861 11.8184 24.999H11.916C11.8961 24.9498 11.8575 24.9498 11.8149 24.9598Z" fill="black"/>
<path d="M12.4955 1.25001C6.27948 1.25644 1.25261 6.28507 1.25378 12.4959C1.25495 18.7102 6.32275 23.7692 12.5224 23.7458C18.7455 23.7225 23.7613 18.6909 23.749 12.4842C23.7367 6.26636 18.7052 1.24358 12.4955 1.25001Z" fill="#FEFEFE"/>
<path d="M14.3345 17.4931C14.649 17.4861 14.8379 17.3604 14.9437 17.126C15.0495 16.8904 15.0156 16.6647 14.8455 16.4677C14.7876 16.4004 14.718 16.342 14.6508 16.2835C13.2733 15.0773 11.8988 13.8683 10.5138 12.6715C10.3343 12.5166 10.3676 12.4546 10.5225 12.3201C11.9175 11.1093 13.3049 9.89031 14.6958 8.67481C14.8391 8.5497 14.9665 8.41639 14.9928 8.21644C15.0273 7.9551 14.9045 7.7037 14.6806 7.578C14.4503 7.44879 14.1661 7.48153 13.9352 7.6809C13.4482 8.10009 12.9658 8.52514 12.4823 8.94843C11.3434 9.94527 10.2051 10.9427 9.0667 11.9395C8.64107 12.3125 8.64399 12.6879 9.0743 13.0644C10.6722 14.4629 12.2707 15.8608 13.8679 17.2599C14.0182 17.3914 14.1731 17.5043 14.3339 17.4931H14.3345Z" fill="#B3B2B1"/>
</g>
<defs>
<clipPath id="clip0_531_4">
<rect width="25" height="25" fill="white"/>
</clipPath>
</defs>
</svg>
