<svg width="32" height="30" viewBox="0 0 32 30" fill="none" xmlns="http://www.w3.org/2000/svg">
<rect opacity="0.3" width="32" height="30" rx="10" fill="#090909"/>
<path d="M11.5057 8.06011C9.83615 8.35128 8.55067 9.62437 8.1356 11.39C7.78867 12.8706 8.10772 14.3202 9.08964 15.7265C9.48303 16.2872 9.79588 16.6465 10.5486 17.4023C11.3694 18.2232 11.8155 18.6196 14.1386 20.6145C15.3591 21.6614 15.737 21.9712 15.8175 21.9867C16.0653 22.0331 16.056 22.0362 17.7132 20.6145C18.5774 19.8741 19.5717 19.013 19.9217 18.7064C20.6837 18.0373 21.9506 16.7766 22.2976 16.346C22.9976 15.4725 23.4313 14.7012 23.6543 13.93C24.1592 12.1798 23.6605 10.2408 22.4029 9.07611C21.201 7.96409 19.4107 7.68221 17.9734 8.37916C17.2826 8.7137 16.6043 9.35798 16.1396 10.12C16.0312 10.2965 15.9352 10.4421 15.9259 10.4421C15.9166 10.4421 15.8206 10.2965 15.7122 10.12C15.1268 9.15974 14.2811 8.4597 13.355 8.16853C12.8005 7.99507 12.1035 7.9548 11.5057 8.06011ZM12.9368 9.01725C13.9961 9.29913 14.8697 10.2067 15.4148 11.5913C15.4768 11.7524 15.5511 11.9104 15.579 11.9444C15.706 12.0838 15.9662 12.1303 16.1366 12.0436C16.2697 11.9754 16.3162 11.9042 16.437 11.5913C16.8924 10.4359 17.5459 9.63676 18.3823 9.22479C18.8314 9.00177 19.0761 8.94911 19.643 8.94601C20.0456 8.94291 20.1696 8.9553 20.4019 9.01416C20.9408 9.15045 21.6099 9.54074 21.9382 9.91244C22.6631 10.7302 23.0193 11.8577 22.8985 12.9604C22.7312 14.4875 21.7927 15.8102 19.3177 18.0001C18.3792 18.8303 15.96 20.8994 15.9259 20.8994C15.8918 20.8994 13.4727 18.8303 12.5341 18.0001C10.0592 15.8102 9.12062 14.4875 8.95335 12.9604C8.81086 11.6502 9.34983 10.2872 10.2946 9.57791C10.6942 9.27745 11.0938 9.0916 11.5739 8.98938C11.9456 8.90884 12.5744 8.92123 12.9368 9.01725Z" fill="white"/>
<path d="M14 20L16 21.5L17.5 20L19.5 18.5L21 17L22.5 15L23 13.5V11L21.5 9L20.5 8.5L18.5 9L17.5 9.5L16 11L15.5 10.5L14 9.5L12.5 8.5L10.5 9L9 10L8.5 11.5V13L9 14.5L11 17L14 20Z" fill="white"/>
</svg>
