<svg width="11" height="16" viewBox="0 0 11 16" fill="none" xmlns="http://www.w3.org/2000/svg">
<path d="M5.97816 0.000382187C6.10122 0.0630608 6.23881 0.0527418 6.36951 0.0768195C8.32899 0.437222 9.74308 1.52531 10.53 3.34337C11.2688 5.05098 11.1262 6.74712 10.1757 8.35078C8.79755 10.6764 7.40027 12.9905 6.01064 15.3089C5.7649 15.7186 5.37698 15.7247 5.12703 15.3219C3.70109 13.0245 2.27591 10.7268 0.850739 8.42951C0.180384 7.3483 -0.104727 6.1727 0.0343888 4.90842C0.183824 3.55013 0.767041 2.39937 1.76952 1.4653C2.49911 0.785394 3.35597 0.346643 4.32596 0.127268C4.51859 0.0836989 4.71656 0.0626786 4.91185 0.0313393C4.93555 0.0275174 4.96383 0.0343968 4.97109 0H5.06244C5.08155 0.0206381 5.10677 0.0141409 5.13008 0.0156697C5.14843 0.0156697 5.16639 0.0156697 5.18474 0.0156697C5.2027 0.0156697 5.22104 0.0156697 5.23901 0.0156697C5.26232 0.0141409 5.28754 0.0206381 5.30627 0H5.67241C5.69152 0.0206381 5.71674 0.0141409 5.74005 0.0156697C5.7584 0.0156697 5.77636 0.0156697 5.79471 0.0156697C5.81267 0.0156697 5.83101 0.0156697 5.84898 0.0156697C5.87229 0.0141409 5.89751 0.0206381 5.91624 0H5.97739L5.97816 0.000382187Z" fill="black"/>
<path d="M5.12321 0.0259727C5.09798 0.0297946 5.07008 0.0393493 5.0632 0.000366211H5.12435C5.13467 0.0064812 5.13773 0.012214 5.13391 0.0175646C5.13047 0.0229152 5.12665 0.0255905 5.12321 0.0255905V0.0259727Z" fill="black"/>
<path d="M5.1232 0.0259727C5.12358 0.0175646 5.12396 0.0091565 5.12396 0.000366211H5.18511C5.19543 0.0064812 5.19849 0.012214 5.19467 0.0179468C5.19123 0.0232974 5.18741 0.0259727 5.18397 0.0259727H5.1232Z" fill="black"/>
<path d="M5.18398 0.0259727C5.18436 0.0175646 5.18474 0.0091565 5.18512 0.000366211H5.24627C5.25659 0.0064812 5.25965 0.0125962 5.25583 0.0179468C5.252 0.0232974 5.24856 0.0259727 5.24474 0.0259727H5.18398Z" fill="black"/>
<path d="M5.24475 0.0259727C5.24552 0.0175646 5.2459 0.00877432 5.24628 0.000366211H5.30743C5.2952 0.0301768 5.2715 0.0313233 5.24513 0.0259727H5.24475Z" fill="black"/>
<path d="M5.73545 0.0259727C5.70908 0.0309411 5.685 0.0301768 5.67316 0.000366211H5.73431C5.74386 0.00571682 5.7473 0.0110674 5.74424 0.0168002C5.74157 0.0229152 5.73851 0.0259727 5.73545 0.0259727Z" fill="black"/>
<path d="M5.73548 0.0259727C5.73471 0.0175646 5.73433 0.00877432 5.73395 0.000366211H5.7951C5.80465 0.00571682 5.80809 0.0110674 5.80503 0.0168002C5.80198 0.022533 5.7993 0.0255905 5.79624 0.0255905H5.73548V0.0259727Z" fill="black"/>
<path d="M5.79624 0.0259727C5.79585 0.0175646 5.79547 0.0091565 5.79509 0.000366211H5.85624C5.86579 0.00571682 5.86923 0.0114496 5.86618 0.0171824C5.86312 0.0229152 5.86006 0.0259727 5.857 0.0259727H5.79624Z" fill="black"/>
<path d="M5.85699 0.0259727C5.85623 0.0175646 5.85585 0.0091565 5.85623 0.000366211H5.91738C5.9105 0.0401136 5.8826 0.0297946 5.85738 0.0259727H5.85699Z" fill="black"/>
<path d="M5.56005 14.2823C5.28105 13.8328 5.0139 13.4021 4.74675 12.9717C3.70912 11.2993 2.67263 9.62608 1.63308 7.95478C1.07547 7.05855 0.825136 6.08742 0.935971 5.03564C1.14197 3.07732 2.50485 1.49965 4.42801 1.04523C5.96517 0.68177 7.35403 1.03682 8.53537 2.0886C9.62575 3.05935 10.1188 4.30146 10.0584 5.7553C10.0278 6.49177 9.80882 7.18162 9.43007 7.81528C8.14516 9.96585 6.85757 12.1149 5.56005 14.2826V14.2823Z" fill="#FEFEFE"/>
<path d="M5.4966 8.23608C3.98505 8.24067 2.75403 7.01767 2.74524 5.5023C2.73645 3.99152 3.97817 2.74483 5.49163 2.74597C7.00012 2.74712 8.23306 3.98005 8.23497 5.48969C8.23726 7.00124 7.01083 8.23112 5.4966 8.2357V8.23608Z" fill="black"/>
<path d="M5.49048 7.32427C4.4773 7.32427 3.6598 6.50945 3.65713 5.49703C3.65445 4.4808 4.47997 3.65528 5.49583 3.65833C6.50442 3.66101 7.32306 4.48462 7.32153 5.49512C7.32 6.50868 6.50327 7.32465 5.49048 7.32465V7.32427Z" fill="#45B3BE"/>
</svg>
