<svg width="466" height="325" viewBox="0 0 466 325" fill="none" xmlns="http://www.w3.org/2000/svg">
<g clip-path="url(#clip0_362_14)">
<path d="M442.766 229.727C432.674 246.983 419.039 261.864 402.803 274.378C396.682 279.113 390.195 283.497 383.382 287.546C382.712 287.951 382.034 288.348 381.357 288.737C370.478 295.053 358.813 300.527 346.557 305.168C345.279 305.659 343.987 306.134 342.694 306.601C341.705 306.959 340.716 307.31 339.719 307.652C339.634 307.683 339.54 307.715 339.447 307.746C335.226 309.21 330.943 310.58 326.606 311.849C325.189 312.27 323.771 312.675 322.339 313.064C319.746 313.788 317.129 314.474 314.497 315.12C313.103 315.47 311.702 315.805 310.3 316.132C299.889 318.562 289.236 320.47 278.427 321.864C161.403 336.971 27.2314 291.782 2.18816 189.623C-5.27187 159.207 7.31985 140.604 24.9187 128.869C33.6714 123.028 43.6778 118.885 53.0612 115.841C53.4661 115.701 53.8788 115.568 54.2838 115.444C54.2993 115.436 54.3149 115.436 54.3305 115.428C62.3746 112.882 69.8969 111.122 75.7138 109.767C75.7138 109.767 76.0097 109.082 76.6249 107.828C83.6411 93.4996 131.843 4.4075 247.824 0.101236C320.75 -2.60867 324.854 50.5616 353.542 74.0786H353.549C361.157 80.316 370.494 84.4665 383.304 84.9338H383.312C383.833 84.9571 384.371 84.9649 384.9 84.9727H384.908C385.617 84.9727 386.333 84.9727 387.065 84.9649C387.423 84.9649 387.797 84.9493 388.163 84.9338C388.288 84.9338 388.404 84.9338 388.529 84.926C388.529 84.9338 388.544 84.9338 388.552 84.926C389.074 84.9104 389.596 84.8793 390.133 84.8481C390.141 84.8481 390.149 84.8481 390.149 84.8481C390.499 84.8325 390.857 84.8014 391.208 84.778C392.15 84.7079 393.116 84.6223 394.097 84.5133H394.104C394.19 84.5133 394.276 84.4977 394.361 84.4899C395.132 84.4042 395.888 84.3342 396.643 84.2641H396.651C398.185 84.1395 399.688 84.0616 401.175 84.0149H401.183C409.655 83.7735 417.419 84.887 424.396 87.192C468.604 101.746 481.289 163.848 442.766 229.727V229.727Z" fill="#F6F7FB"/>
<path d="M326.606 311.849C325.189 312.27 323.771 312.675 322.339 313.064C319.745 313.788 317.129 314.474 314.497 315.12C313.103 315.47 311.701 315.805 310.3 316.132C299.888 318.562 289.236 320.47 278.427 321.864C266.848 318.017 256.008 310.931 249.887 298.853C249.887 298.853 255.307 295.824 263.92 294.126L263.943 294.165C264.628 295.458 265.851 296.057 267.066 296.057C268.639 296.057 270.204 295.045 270.57 293.199C276.441 291.658 282.702 291.774 289.025 293.044C302.295 295.707 315.829 303.486 326.606 311.849V311.849Z" fill="#283C46"/>
<path d="M268.522 302.302C266.388 301.812 264.527 301.384 264.091 301.243C263.702 301.041 263.211 301.064 262.837 301.352C262.331 301.742 262.23 302.482 262.627 302.988C262.845 303.273 264.636 303.803 268 304.576C276.293 306.492 294.134 310.604 310.3 316.132C311.701 315.805 313.103 315.47 314.497 315.12C297.35 308.945 277.454 304.358 268.522 302.302V302.302Z" fill="white"/>
<path d="M342.694 306.601C341.705 306.959 340.716 307.31 339.719 307.652C339.782 307.683 339.836 307.722 339.899 307.753C339.743 307.753 339.595 307.753 339.447 307.746C339.439 307.746 339.424 307.753 339.408 307.761C338.255 308.158 337.095 308.548 335.935 308.937C332.859 309.957 329.744 310.931 326.606 311.849C325.189 312.27 323.772 312.675 322.339 313.064C311.234 309.046 298.767 302.801 289.026 293.044C279.299 283.318 272.283 270.072 272.05 252.052C272.05 252.052 280.553 251.601 292.172 254.716L292.288 258.742C292.382 261.997 296.524 263.328 298.502 260.743L300.901 257.589C312.947 262.331 326.637 271.076 337.477 287.18C340.654 291.891 343.582 297.225 346.159 303.284L346.557 305.168C345.279 305.659 343.987 306.134 342.694 306.601V306.601Z" fill="#263238"/>
<path d="M336.254 302.996C308.376 286.627 283.177 262.121 281.869 260.47C281.636 260.026 281.122 259.769 280.608 259.871C279.969 259.995 279.564 260.618 279.689 261.249C280.024 262.892 307.676 289.111 336.052 305.581C337.274 306.289 338.497 306.983 339.72 307.652C340.716 307.31 341.705 306.959 342.694 306.601C340.537 305.456 338.388 304.249 336.254 302.996Z" fill="white"/>
<path d="M395.607 132.443C391.589 132.443 388.311 135.713 388.311 139.739C388.311 143.765 391.589 147.036 395.607 147.036C399.625 147.036 402.904 143.757 402.904 139.739C402.904 135.721 399.633 132.443 395.607 132.443ZM395.607 144.7C392.874 144.7 390.647 142.473 390.647 139.739C390.647 137.006 392.874 134.779 395.607 134.779C398.341 134.779 400.568 137.006 400.568 139.739C400.568 142.473 398.341 144.7 395.607 144.7Z" fill="#E3E5EB"/>
<path d="M429.287 173.294C428.64 173.294 428.119 172.772 428.119 172.126V162.587C428.119 161.94 428.64 161.419 429.287 161.419C429.933 161.419 430.455 161.94 430.455 162.587V172.126C430.455 172.772 429.933 173.294 429.287 173.294Z" fill="#E3E5EB"/>
<path d="M434.06 168.52H424.521C423.875 168.52 423.353 167.999 423.353 167.352C423.353 166.706 423.875 166.184 424.521 166.184H434.06C434.706 166.184 435.228 166.706 435.228 167.352C435.228 167.999 434.706 168.52 434.06 168.52Z" fill="#E3E5EB"/>
<path d="M81.0557 195.954C78.9532 192.52 74.4523 191.446 71.0182 193.54C68.7755 194.919 67.5374 197.317 67.5374 199.778C67.5374 201.078 67.8878 202.386 68.612 203.578C69.6321 205.236 71.2362 206.405 73.1285 206.856C73.6969 206.996 74.2732 207.059 74.8494 207.059C76.1732 207.059 77.4815 206.693 78.6417 205.984C80.3082 204.964 81.4684 203.36 81.9279 201.468C82.3795 199.575 82.0681 197.613 81.0557 195.954V195.954ZM79.6541 200.922C79.3426 202.207 78.5561 203.297 77.427 203.991C75.0908 205.423 72.0305 204.684 70.6055 202.355C69.1804 200.019 69.9124 196.967 72.2407 195.534C74.5769 194.109 77.6294 194.841 79.0622 197.177C79.7553 198.306 79.9655 199.63 79.6541 200.922Z" fill="#E3E5EB"/>
<path d="M34.1852 199.038C33.7959 199.038 33.4065 198.843 33.1885 198.477L28.2048 190.34C27.8699 189.787 28.0412 189.07 28.5941 188.736C29.147 188.401 29.8634 188.572 30.1982 189.125L35.182 197.262C35.5168 197.815 35.3455 198.532 34.7926 198.867C34.6057 198.983 34.3877 199.038 34.1852 199.038Z" fill="#E3E5EB"/>
<path d="M27.6208 197.465C27.2315 197.465 26.8421 197.27 26.6241 196.904C26.2892 196.351 26.4605 195.635 27.0134 195.3L35.1509 190.316C35.7038 189.982 36.4202 190.153 36.7551 190.706C37.0899 191.259 36.9186 191.975 36.3657 192.31L28.2282 197.294C28.0413 197.41 27.8233 197.465 27.6208 197.465Z" fill="#E3E5EB"/>
<path d="M131.033 100.025L221.293 33.0562C224.985 30.3151 230.031 30.3385 233.706 33.1029L322.603 100.025H131.033Z" fill="#FBC343"/>
<path d="M319.309 99.153H134.327C130.852 99.153 128.035 101.97 128.035 105.445V222.493C128.035 225.968 130.852 228.785 134.327 228.785H319.309C322.784 228.785 325.601 225.968 325.601 222.493V105.445C325.601 101.97 322.784 99.153 319.309 99.153Z" fill="#FBC343"/>
<path d="M317.632 227.063L235.432 176.844L232.722 175.193C228.485 172.6 223.151 172.624 218.931 175.24L216.236 176.914L135.445 227.063L211.969 173.628L218.697 168.932C223.346 165.467 229.724 165.467 234.38 168.932L240.306 173.067L317.632 227.063Z" fill="#E8B133"/>
<path d="M316.677 107.727L295.917 123.799L295.644 124.009L278.801 137.045L266.638 146.46L241.306 166.067L236.431 169.844L233.721 168.193C229.485 165.6 224.151 165.624 219.931 168.24L217.236 169.914L212.969 166.628L186.765 146.46L174.532 137.045L157.603 124.009L154.503 121.627L136.445 107.727H316.677V107.727Z" fill="white"/>
<path d="M347.109 198.469C353.767 196.18 350.216 184.71 359.693 177.678C369.692 170.265 373.157 180.185 373.157 180.185C373.157 180.185 381.59 174.228 390.335 181.976C395.74 186.758 402.335 198.493 393.769 214.682C386.341 228.715 404.726 234.547 392.165 242.708C381.419 249.685 351.377 237.491 351.377 237.491C351.377 237.491 316.685 208.935 347.109 198.477V198.469Z" fill="#263238"/>
<path d="M356.855 212.497L350.981 241.062L365.351 244.017L371.225 215.452L356.855 212.497Z" fill="#F7D3C9"/>
<path d="M371.203 215.43L369.108 225.615C364.397 228.73 359 232.289 352.989 231.175L356.578 213.709C357.014 213.358 357.443 213.016 357.894 212.697L371.203 215.43V215.43Z" fill="#E4C3BA"/>
<path d="M363.524 183.285C363.524 183.285 345.886 197.846 347.483 217.883C347.592 219.245 348.394 220.46 349.609 221.083C354.008 223.334 364.98 228.193 369.878 223.521C376.085 217.602 388.606 202.028 383.669 194.981C378.732 187.934 363.516 183.285 363.516 183.285H363.524Z" fill="#F7D3C9"/>
<path d="M373.663 210.29C373.663 210.29 384.433 208.421 386.418 215.453C388.404 222.485 372.557 224.634 372.254 218.288C371.95 211.933 373.663 210.298 373.663 210.298V210.29Z" fill="#F7D3C9"/>
<path d="M354.608 193.385C354.608 193.385 358.65 186.501 360.682 189.732C362.722 192.964 363.509 197.909 373.756 196.554C381.544 195.526 375.991 212.712 375.991 212.712C375.991 212.712 380.819 209.574 384.627 212.478C384.627 212.478 390.997 194.311 384.931 189.989C378.865 185.667 363.594 179.111 360.62 182.023C357.645 184.936 354.608 193.385 354.608 193.385V193.385Z" fill="#263238"/>
<path d="M402.802 274.378C396.682 279.113 390.195 283.497 383.381 287.546C382.712 287.951 382.034 288.348 381.357 288.737C370.478 295.053 358.813 300.527 346.556 305.168C345.279 305.659 343.987 306.134 342.694 306.601C341.705 306.959 340.716 307.31 339.719 307.652C339.782 307.683 339.836 307.722 339.898 307.753C339.743 307.753 339.595 307.753 339.447 307.746C339.439 307.746 339.423 307.753 339.408 307.761C338.255 308.158 337.095 308.548 335.935 308.937L336.051 305.581L336.254 302.996L337.477 287.18L338.419 275.079L339.011 267.486L339.735 258.08L340.732 242.303C341.292 238.596 345.232 236.182 348.402 234.82C350.574 233.885 352.389 233.441 352.521 233.41H352.529C352.583 233.652 355.075 244.873 367.122 234.648L367.247 234.679L376.186 236.704C378.686 237.273 380.89 238.721 382.416 240.777C382.766 241.252 383.747 242.677 385.126 244.764C389.292 251.056 397.141 263.422 402.802 274.378V274.378Z" fill="#0288D1"/>
<path d="M352.529 233.41C352.529 233.41 322.315 224.548 318.632 220.063C314.949 215.57 292.366 187.513 292.366 187.513L274.487 199.754L301.703 245.028C315.385 259.637 347.071 271.022 348.597 270.593C350.123 270.165 352.529 233.418 352.529 233.418V233.41Z" fill="#0288D1"/>
<path d="M274.487 199.747L255.331 186.999C254.373 186.361 254.482 184.92 255.533 184.437C259.707 182.529 268.154 183.305 270 183.5C272.492 183.765 285.5 187.505 285.5 187.505L280.506 179.196C280.809 179.701 279.5 178.207 282.103 176.634C283.668 176.222 285.326 176.853 286.222 178.207L292.374 187.505L274.495 199.747H274.487Z" fill="#F7D3C9"/>
<path d="M374.325 217.369C374.325 217.369 377.541 218.506 377.635 216.473C377.689 215.321 375.937 214.97 375.937 214.97C375.937 214.97 381.731 212.44 383.031 215.36C384.332 218.28 379.395 221.706 374.333 217.369H374.325Z" fill="#E4C3BA"/>
<path d="M372.643 253.976C372.005 253.976 371.483 253.462 371.475 252.823C371.327 243.074 375.478 240.169 375.657 240.045C376.194 239.687 376.918 239.827 377.276 240.364C377.635 240.894 377.494 241.61 376.973 241.976C376.887 242.038 373.687 244.515 373.811 252.792C373.819 253.439 373.305 253.968 372.659 253.976H372.643V253.976Z" fill="#007CBF"/>
<path d="M383.382 287.546C382.712 287.951 382.034 288.348 381.357 288.737C376.763 277.828 371.608 265.524 371.608 257.433C371.608 256.795 372.129 256.265 372.776 256.265C373.422 256.265 373.944 256.795 373.944 257.433C373.944 264.979 378.904 276.909 383.382 287.546Z" fill="#007CBF"/>
</g>
<mask id="mask0_362_14" style="mask-type:alpha" maskUnits="userSpaceOnUse" x="136" y="107" width="181" height="63">
<path d="M316.677 107.727L295.917 123.799L295.645 124.009L278.801 137.045L266.638 146.46L241.306 166.067L236.432 169.844L233.722 168.193C229.485 165.6 224.151 165.624 219.931 168.24L217.236 169.914L212.969 166.628L186.765 146.46L174.532 137.045L157.603 124.009L154.504 121.627L136.445 107.727H316.677V107.727Z" fill="white"/>
</mask>
<g mask="url(#mask0_362_14)">
<path d="M254.979 155.614C258.707 140.087 249.141 124.477 233.614 120.75C218.087 117.022 202.477 126.587 198.75 142.115C195.022 157.642 204.587 173.251 220.115 176.979C235.642 180.707 251.251 171.141 254.979 155.614Z" fill="#56C3C5"/>
</g>
<path d="M227.123 158.361C224.957 158.361 223.301 157.546 222.157 155.917C221.013 154.27 220.441 151.93 220.441 148.897C220.441 146.852 220.693 145.136 221.195 143.749C221.715 142.345 222.469 141.288 223.457 140.577C224.463 139.866 225.685 139.511 227.123 139.511C229.307 139.511 230.963 140.308 232.089 141.903C233.233 143.498 233.805 145.82 233.805 148.871C233.805 150.899 233.545 152.624 233.025 154.045C232.523 155.449 231.777 156.524 230.789 157.269C229.801 157.997 228.579 158.361 227.123 158.361ZM227.123 155.631C228.302 155.631 229.169 155.085 229.723 153.993C230.295 152.901 230.581 151.194 230.581 148.871C230.581 146.548 230.295 144.867 229.723 143.827C229.169 142.77 228.302 142.241 227.123 142.241C225.962 142.241 225.095 142.77 224.523 143.827C223.951 144.867 223.665 146.548 223.665 148.871C223.665 151.194 223.951 152.901 224.523 153.993C225.095 155.085 225.962 155.631 227.123 155.631Z" fill="white"/>
<defs>
<clipPath id="clip0_362_14">
<rect width="465.683" height="324.706" fill="white"/>
</clipPath>
</defs>
</svg>
