<svg width="290" height="263" viewBox="0 0 290 263" fill="none" xmlns="http://www.w3.org/2000/svg">
<path d="M53.5 262.584C83.0472 262.584 107 257.528 107 251.292C107 245.056 83.0472 240 53.5 240C23.9528 240 0 245.056 0 251.292C0 257.528 23.9528 262.584 53.5 262.584Z" fill="#EBEBEB"/>
<path d="M31 7.43251C31 3.32765 34.3276 0 38.4325 0H282.219C286.323 0 289.651 3.32765 289.651 7.4325V20.0678H31V7.43251Z" fill="#569ECF"/>
<circle cx="41.4055" cy="9.8196" r="2.22975" fill="#BDD7EA"/>
<circle cx="48.8382" cy="9.8196" r="2.22975" fill="#EAB054"/>
<circle cx="56.2698" cy="9.8196" r="2.22975" fill="#5BC4C5"/>
<rect width="258.651" height="166.488" transform="matrix(1 0 0 -1 31 186.713)" fill="#F2FAFF"/>
<rect x="54.042" y="38.0632" width="78.7845" height="51.2843" rx="7.4325" fill="#BDD7EA"/>
<path d="M116.358 62.2705H120.494L119.945 60.1466H116.358V62.2705Z" fill="#A4C5DD"/>
<path d="M65.3988 68.3258C65.0331 67.1513 65.1667 65.8784 65.659 64.7531C65.7856 64.4648 65.9052 64.1975 65.9966 64.0428C66.3131 63.5294 67.157 62.6292 67.6423 62.2705C68.0643 61.954 69.07 61.5813 69.5763 61.4336C70.9759 61.0257 75.3433 60.5334 75.3433 60.5334L79.2395 60.1817L82.3339 58.4517C82.3339 58.4517 85.6253 56.5528 86.7787 56.0324C88.5018 55.2517 91.8494 54.4148 94.1632 54.4148C99.4308 54.4148 102.237 54.5132 104.839 55.111C106.302 55.4486 110.529 57.024 110.529 57.024L115.304 58.6978C115.304 58.6978 118.518 58.4517 119.362 59.0213C119.671 59.2253 120.016 60.3435 120.016 60.3435L117.301 60.3998L117.822 62.0173L120.403 62.1158L120.832 62.8753C121.359 63.8177 121.549 64.9219 121.345 65.9839C121.155 66.9685 120.825 68.0656 120.276 68.4594C119.531 68.9939 114.453 69.2963 114.453 69.2963C114.453 69.2963 114.819 63.9795 109.713 63.8529C107.153 63.7896 105.331 65.6392 105.029 67.4256C104.931 68.0023 104.839 69.7464 104.839 69.7464L79.2465 70.1332V69.8379C79.1832 68.1289 78.5995 64.0498 74.0492 64.0498C69.0278 64.0498 69.3161 70.1121 69.3161 70.1121C69.3161 70.1121 66.8476 69.9926 66.1091 69.4581C65.7786 69.219 65.5606 68.797 65.4129 68.3328L65.3988 68.3258Z" fill="#A4C5DD"/>
<path d="M96.0615 59.4854L96.3077 55.5048C96.3077 55.5048 100.38 55.4767 102.082 55.8283C102.679 55.9549 104.156 56.5879 105.366 57.3052C106.85 58.1843 108.01 59.2393 108.01 59.2393L96.0615 59.4854V59.4854Z" fill="#A4C5DD"/>
<path d="M94.0014 59.6752L94.557 55.4836C94.557 55.4836 92.4683 55.4836 90.2881 56.0181C87.3273 56.7425 82.5449 60.259 82.5449 60.259L94.0014 59.6752V59.6752Z" fill="#A4C5DD"/>
<path opacity="0.9" d="M94.0008 59.6753L93.2764 68.1077" stroke="#A4C5DD" stroke-width="0.376048" stroke-miterlimit="10"/>
<path opacity="0.9" d="M104.958 67.9669L79.0703 68.3889" stroke="#A4C5DD" stroke-width="0.376048" stroke-miterlimit="10"/>
<path opacity="0.9" d="M82.545 60.259L81.2861 68.178" stroke="#A4C5DD" stroke-width="0.376048" stroke-miterlimit="10"/>
<path opacity="0.9" d="M108.011 59.2462L107.736 64.113" stroke="#A4C5DD" stroke-width="0.376048" stroke-miterlimit="10"/>
<path opacity="0.9" d="M104.333 62.0033H106.506V61.2156H104.333V62.0033Z" fill="#A4C5DD" stroke="#A4C5DD" stroke-width="0.376048" stroke-miterlimit="10"/>
<path opacity="0.9" d="M90.4138 62.0033H92.5869V61.2156H90.4138V62.0033Z" fill="#A4C5DD" stroke="#A4C5DD" stroke-width="0.376048" stroke-miterlimit="10"/>
<path d="M67.6424 62.2704H70.1321C70.4486 62.2704 70.6103 62.6431 70.4064 62.8752C69.3233 64.0989 67.762 64.7881 66.1234 64.76H65.6592C65.6592 64.76 66.1796 63.3112 67.6424 62.2704V62.2704Z" fill="#A4C5DD"/>
<path d="M105.324 68.7055C105.324 71.0826 107.244 73.0096 109.614 73.0096C111.984 73.0096 113.904 71.0826 113.904 68.7055C113.904 66.3284 111.984 64.4014 109.614 64.4014C107.244 64.4014 105.324 66.3284 105.324 68.7055Z" fill="#A4C5DD"/>
<path d="M107.8 68.7054C107.8 69.7111 108.616 70.5269 109.621 70.5269C110.627 70.5269 111.443 69.7111 111.443 68.7054C111.443 67.6997 110.627 66.8839 109.621 66.8839C108.616 66.8839 107.8 67.6997 107.8 68.7054Z" fill="#A4C5DD"/>
<path d="M69.9492 68.7054C69.9492 71.0825 71.8692 73.0095 74.2393 73.0095C76.6093 73.0095 78.5293 71.0825 78.5293 68.7054C78.5293 66.3282 76.6093 64.4012 74.2393 64.4012C71.8692 64.4012 69.9492 66.3282 69.9492 68.7054Z" fill="#A4C5DD"/>
<path d="M72.418 68.7053C72.418 69.711 73.2338 70.5268 74.2395 70.5268C75.2452 70.5268 76.061 69.711 76.061 68.7053C76.061 67.6996 75.2452 66.8838 74.2395 66.8838C73.2338 66.8838 72.418 67.6996 72.418 68.7053Z" fill="#A4C5DD"/>
<rect x="147.691" y="77.4554" width="48.3113" height="11.892" rx="5.946" fill="#BDD7EA"/>
<rect x="147.691" y="58.8743" width="74.3251" height="5.20275" rx="2.60138" fill="#BDD7EA"/>
<rect x="147.691" y="48.4688" width="115.204" height="5.20275" rx="2.60138" fill="#BDD7EA"/>
<rect x="147.691" y="38.0632" width="115.204" height="5.20275" rx="2.60138" fill="#BDD7EA"/>
<rect x="54.042" y="107.929" width="78.7845" height="51.2843" rx="7.4325" fill="#BDD7EA"/>
<path d="M116.358 132.136H120.494L119.945 130.012H116.358V132.136Z" fill="#A4C5DD"/>
<path d="M65.3988 138.191C65.0331 137.017 65.1667 135.744 65.659 134.619C65.7856 134.33 65.9052 134.063 65.9966 133.908C66.3131 133.395 67.157 132.495 67.6423 132.136C68.0643 131.819 69.07 131.447 69.5763 131.299C70.9759 130.891 75.3433 130.399 75.3433 130.399L79.2395 130.047L82.3339 128.317C82.3339 128.317 85.6253 126.418 86.7787 125.898C88.5018 125.117 91.8494 124.28 94.1632 124.28C99.4308 124.28 102.237 124.379 104.839 124.976C106.302 125.314 110.529 126.889 110.529 126.889L115.304 128.563C115.304 128.563 118.518 128.317 119.362 128.887C119.671 129.091 120.016 130.209 120.016 130.209L117.301 130.265L117.822 131.883L120.403 131.981L120.832 132.741C121.359 133.683 121.549 134.787 121.345 135.849C121.155 136.834 120.825 137.931 120.276 138.325C119.531 138.859 114.453 139.162 114.453 139.162C114.453 139.162 114.819 133.845 109.713 133.718C107.153 133.655 105.331 135.505 105.029 137.291C104.931 137.868 104.839 139.612 104.839 139.612L79.2465 139.999V139.703C79.1832 137.994 78.5995 133.915 74.0492 133.915C69.0278 133.915 69.3161 139.978 69.3161 139.978C69.3161 139.978 66.8476 139.858 66.1091 139.324C65.7786 139.084 65.5606 138.662 65.4129 138.198L65.3988 138.191Z" fill="#A4C5DD"/>
<path d="M96.0615 129.351L96.3077 125.37C96.3077 125.37 100.38 125.342 102.082 125.694C102.679 125.82 104.156 126.453 105.366 127.171C106.85 128.05 108.01 129.105 108.01 129.105L96.0615 129.351V129.351Z" fill="#A4C5DD"/>
<path d="M94.0014 129.541L94.557 125.349C94.557 125.349 92.4683 125.349 90.2881 125.884C87.3273 126.608 82.5449 130.124 82.5449 130.124L94.0014 129.541V129.541Z" fill="#A4C5DD"/>
<path opacity="0.9" d="M94.0008 129.541L93.2764 137.973" stroke="#A4C5DD" stroke-width="0.376048" stroke-miterlimit="10"/>
<path opacity="0.9" d="M104.958 137.833L79.0703 138.254" stroke="#A4C5DD" stroke-width="0.376048" stroke-miterlimit="10"/>
<path opacity="0.9" d="M82.545 130.125L81.2861 138.044" stroke="#A4C5DD" stroke-width="0.376048" stroke-miterlimit="10"/>
<path opacity="0.9" d="M108.011 129.112L107.736 133.978" stroke="#A4C5DD" stroke-width="0.376048" stroke-miterlimit="10"/>
<path opacity="0.9" d="M104.333 131.869H106.506V131.081H104.333V131.869Z" fill="#A4C5DD" stroke="#A4C5DD" stroke-width="0.376048" stroke-miterlimit="10"/>
<path opacity="0.9" d="M90.4138 131.869H92.5869V131.081H90.4138V131.869Z" fill="#A4C5DD" stroke="#A4C5DD" stroke-width="0.376048" stroke-miterlimit="10"/>
<path d="M67.6424 132.136H70.1321C70.4486 132.136 70.6103 132.509 70.4064 132.741C69.3233 133.964 67.762 134.654 66.1234 134.626H65.6592C65.6592 134.626 66.1796 133.177 67.6424 132.136V132.136Z" fill="#A4C5DD"/>
<path d="M105.324 138.571C105.324 140.948 107.244 142.875 109.614 142.875C111.984 142.875 113.904 140.948 113.904 138.571C113.904 136.194 111.984 134.267 109.614 134.267C107.244 134.267 105.324 136.194 105.324 138.571Z" fill="#A4C5DD"/>
<path d="M107.8 138.571C107.8 139.577 108.616 140.392 109.621 140.392C110.627 140.392 111.443 139.577 111.443 138.571C111.443 137.565 110.627 136.749 109.621 136.749C108.616 136.749 107.8 137.565 107.8 138.571Z" fill="#A4C5DD"/>
<path d="M69.9492 138.571C69.9492 140.948 71.8692 142.875 74.2393 142.875C76.6093 142.875 78.5293 140.948 78.5293 138.571C78.5293 136.194 76.6093 134.267 74.2393 134.267C71.8692 134.267 69.9492 136.194 69.9492 138.571Z" fill="#A4C5DD"/>
<path d="M72.418 138.571C72.418 139.577 73.2338 140.393 74.2395 140.393C75.2452 140.393 76.061 139.577 76.061 138.571C76.061 137.565 75.2452 136.75 74.2395 136.75C73.2338 136.75 72.418 137.565 72.418 138.571Z" fill="#A4C5DD"/>
<rect x="147.691" y="147.321" width="48.3113" height="11.892" rx="5.946" fill="#BDD7EA"/>
<rect x="147.691" y="128.74" width="74.3251" height="5.20275" rx="2.60138" fill="#BDD7EA"/>
<rect x="147.691" y="118.334" width="115.204" height="5.20275" rx="2.60138" fill="#BDD7EA"/>
<rect x="147.691" y="107.929" width="115.204" height="5.20275" rx="2.60138" fill="#BDD7EA"/>
<path d="M94.7979 87.146C94.7979 87.146 95.5491 85.4543 96.036 84.6557C96.5229 83.8544 98.6013 81.5089 98.9575 82.0403C99.3108 82.5717 100.727 86.1443 99.9758 87.146C99.2246 88.1476 100.023 89.8866 96.2836 90.9411L94.8006 87.146H94.7979Z" fill="#FFE2D6"/>
<path d="M53.2197 76.4729C53.2197 76.4729 72.3708 92.4604 79.8386 90.9802C85.6788 89.8227 94.6408 86.751 94.6408 86.751L96.4327 91.3363C96.4327 91.3363 88.3944 102.238 80.0167 102.31C66.9173 102.421 57.2402 96.6395 57.2402 96.6395L53.2197 76.4757V76.4729Z" fill="#3A7097"/>
<path d="M19.6318 245.101C19.6318 245.101 20.1883 254.068 21.9217 254.199C22.1527 254.216 30.7224 254.216 30.7224 254.216L41.6626 254.152C41.6626 254.152 41.5903 251.517 38.3933 250.958C35.1964 250.401 29.8431 248.153 27.9066 243.927C25.8699 239.481 19.6318 245.101 19.6318 245.101V245.101Z" fill="#1C4B8E"/>
<path d="M19.0001 245.724C19.0001 245.724 22.3251 246.837 24.921 246.837C27.8175 246.837 30.4496 246.047 30.4496 246.047C30.4496 246.047 31.0756 239.993 34.5202 226.651C36.3259 219.659 38.9052 210.666 42.5751 199.495C52.7224 168.619 55.8081 150.556 56.0891 148.845C56.103 148.756 56.1114 148.711 56.1114 148.711L56.078 148.697L24.8821 135C24.8821 135 28.7384 177.556 23.8192 193.889C23.1292 196.173 22.5393 198.833 22.0329 201.713C18.9278 219.453 19.0001 245.724 19.0001 245.724Z" fill="#183647"/>
<path d="M34.5231 226.651C36.3289 219.659 38.9081 210.666 42.5781 199.495C52.7254 168.619 55.811 150.556 56.092 148.845C56.0892 148.795 56.0865 148.745 56.0809 148.695L24.885 134.997C24.885 134.997 28.7413 177.553 23.8221 193.886C23.1321 196.17 34.5231 226.651 34.5231 226.651V226.651Z" fill="#0E212C"/>
<path d="M43.9971 245.101C43.9971 245.101 44.5535 254.068 46.287 254.199C46.5179 254.216 55.0876 254.216 55.0876 254.216L66.0279 254.152C66.0279 254.152 65.9555 251.517 62.7586 250.958C59.5616 250.401 54.2084 248.153 52.2718 243.927C50.2351 239.481 43.9971 245.101 43.9971 245.101V245.101Z" fill="#1C4B8E"/>
<path d="M61.6852 136.002C61.6852 136.002 62.0914 163.578 57.3197 197.436C52.5479 231.295 54.1672 245.666 54.1672 245.666C54.1672 245.666 50.8896 246.729 49.5652 246.837C46.1958 247.113 42.7401 246.047 42.7401 246.047C42.7401 246.047 35.9121 212.177 37.8681 195.23C39.8269 178.282 28.5166 137.078 28.5166 137.078L61.6852 136.004V136.002Z" fill="#183647"/>
<path d="M39.5654 71.47L45.656 75.4627L51.2041 73.8935C52.2169 72.4466 52.4867 69.6587 52.5007 67.2436C52.5146 64.8452 52.2836 62.8141 52.2836 62.8141L44.0673 59.1887L41.0011 57.8364C41.0095 57.8837 41.2404 60.3545 41.2738 60.7134C41.847 67.1156 39.5682 71.4672 39.5682 71.4672L39.5654 71.47Z" fill="#FFE2D6"/>
<path d="M61.8229 143.667C54.2437 150.985 25.5575 149.755 23.7879 141.692C22.0239 133.628 25.7161 73.0505 38.6624 69.247C41.3502 68.4568 55.7128 73.1006 55.7128 73.1006C55.7128 73.1006 57.9665 78.9964 59.444 86.5032C59.7305 87.964 60.568 103.445 61.1941 117.927C61.4862 124.7 61.7338 131.258 61.859 136.057C61.9731 140.554 61.9787 143.508 61.8173 143.667H61.8229Z" fill="#4A86B2"/>
<path d="M41.8858 60.8276C43.5524 63.6462 49.4009 66.1113 52.5005 67.241C52.5144 64.8426 52.2835 62.8114 52.2835 62.8114L44.0671 59.186C42.2503 59.161 41.1457 59.5672 41.8885 60.8276H41.8858Z" fill="#EED4C9"/>
<path d="M55.3798 62.3133C55.3798 62.3133 42.1413 66.4423 39.6956 58.1592C37.2499 49.8761 33.8944 44.8289 42.2443 41.8434C50.5941 38.8552 53.1762 41.5318 54.6647 44.0971C56.1533 46.6625 58.7604 61.0251 55.3798 62.3133Z" fill="#FFE2D6"/>
<path d="M54.1441 43.2986C54.1441 43.2986 53.301 52.9395 51.3061 52.5194C49.3139 52.102 47.1186 51.2061 47.4107 54.1109C47.7029 57.0157 45.4714 61.9989 42.5972 61.985C36.4315 61.96 29.7344 46.1394 31.4205 43.14C36.2896 34.4841 61.1807 32.7368 54.1441 43.2959V43.2986Z" fill="#163560"/>
<path d="M52.1957 69.4556C52.026 69.3833 42.3405 65.04 41.2081 65.4128C40.0757 65.7857 38.665 69.2469 38.665 69.2469L55.7182 73.1033C55.7182 73.1033 54.3771 70.3738 52.1985 69.4584L52.1957 69.4556Z" fill="#3A7097"/>
<path d="M112.488 116.369L58.2008 167.478C57.138 168.48 55.7941 168.8 55.2181 168.188L53.3845 166.24C52.8086 165.628 53.2092 164.309 54.2721 163.308L108.559 112.198C109.622 111.197 110.966 110.877 111.542 111.489L113.375 113.437C113.951 114.049 113.55 115.367 112.488 116.369Z" fill="#80EFF1"/>
<path d="M82.0234 145.05L58.2008 167.478C57.138 168.48 55.7941 168.8 55.2181 168.188L53.3845 166.24C52.8086 165.628 53.2092 164.309 54.2721 163.308L78.0947 140.879L82.0207 145.05H82.0234Z" fill="#61D2D4"/>
<path d="M100.012 97.0707C102.096 103.938 105.955 110.37 111.559 115.643C128.673 131.745 155.604 130.921 171.705 113.809C187.595 96.9176 187.003 70.4768 170.537 54.3112C170.32 54.0942 170.094 53.88 169.869 53.6685C152.757 37.567 125.83 38.385 109.731 55.4993C98.899 67.01 95.7244 82.9613 100.015 97.0707H100.012ZM112.174 57.8003C121.545 47.8395 134.895 43.869 147.432 46.042C154.738 47.3052 161.764 50.6524 167.568 56.1142C183.333 70.9442 184.087 95.7463 169.257 111.508C163.798 117.312 156.989 121.077 149.777 122.788C137.393 125.721 123.823 122.574 113.863 113.2C98.0977 98.37 97.3409 73.568 112.174 57.8031V57.8003Z" fill="#CAE6F4"/>
<path d="M61.869 136.057C31.9557 114.742 34.4432 86.3002 34.4432 86.3002C45.3751 92.4659 56.2235 106.099 61.2012 117.927C61.4933 124.7 61.741 131.258 61.8662 136.057H61.869Z" fill="#3A7097"/>
<path d="M91.3885 126.35C93.4976 125.863 94.9138 124.268 95.2087 123.99C95.2087 123.99 96.1074 124.051 95.0612 125.971C94.975 126.133 94.7802 126.544 94.6328 126.836C94.5715 126.956 94.655 127.095 94.7886 127.104C96.0045 127.195 97.2287 126.714 99.5742 127.204C99.897 127.271 99.9916 128.047 99.9805 128.375C99.9582 128.934 100 129.56 99.3489 130.417C98.9705 130.915 97.916 131.452 95.5704 132.396C94.6773 132.755 92.1175 132.485 89.7219 131.661L87.8076 130.774L88.4003 127.215L88.8816 127.315C89.6468 127.476 90.5928 126.542 91.3885 126.347V126.35Z" fill="#FFE2D6"/>
<path d="M43.7246 73.1006C43.7246 73.1006 16.8469 78.2173 51.6321 117.137C57.194 123.361 87.2519 131.466 87.2519 131.466C87.2519 131.466 90.3014 128.873 88.7628 126.772C88.7628 126.772 68.0675 111.745 63.5156 109.355C61.4677 108.281 55.5663 85.368 52.2275 79.8506C48.8887 74.3331 43.7274 73.0978 43.7274 73.0978L43.7246 73.1006Z" fill="#4A86B2"/>
<path d="M178.766 93.2676C183.673 72.1486 170.531 51.0506 149.412 46.1438C128.293 41.237 107.195 54.3796 102.288 75.4986C97.381 96.6176 110.524 117.716 131.643 122.622C152.762 127.529 173.86 114.387 178.766 93.2676Z" fill="#45B3BE"/>
<path d="M162.73 109.89L159.4 63.57L149.29 57.48H121.48L125.26 109.89H162.73Z" fill="#45B3BE"/>
<path d="M162.73 110.37H125.26C125.01 110.37 124.79 110.17 124.78 109.92L121 57.52C121 57.39 121.04 57.25 121.13 57.15C121.22 57.05 121.35 57 121.48 57H149.29C149.38 57 149.46 57.02 149.54 57.07L159.65 63.15C159.79 63.23 159.87 63.37 159.88 63.53L163.22 109.85C163.22 109.98 163.18 110.12 163.09 110.22C163 110.32 162.87 110.37 162.74 110.37H162.73ZM125.71 109.4H162.21L158.93 63.85L149.15 57.97H122.01L125.71 109.4V109.4Z" fill="white"/>
<path d="M159.4 63.57L149.29 57.48L153 65.54L159.4 63.57Z" fill="#45B3BE"/>
<path d="M153 66.03C152.82 66.03 152.64 65.92 152.56 65.75L148.85 57.69C148.76 57.5 148.81 57.27 148.97 57.13C149.13 56.99 149.36 56.97 149.54 57.08L159.65 63.16C159.81 63.26 159.9 63.44 159.88 63.63C159.86 63.82 159.72 63.98 159.54 64.03L153.14 66.01C153.14 66.01 153.04 66.03 153 66.03ZM150.39 58.71L153.27 64.95L158.23 63.42L150.39 58.71V58.71Z" fill="white"/>
<path d="M137.171 81.09C137.251 82.26 136.371 83.21 135.211 83.21C134.051 83.21 133.021 82.26 132.941 81.09C132.861 79.92 133.741 78.97 134.901 78.97C136.061 78.97 137.091 79.92 137.171 81.09Z" fill="white"/>
<path d="M150.911 81.09C150.991 82.26 150.111 83.21 148.951 83.21C147.791 83.21 146.761 82.26 146.681 81.09C146.601 79.92 147.481 78.97 148.641 78.97C149.801 78.97 150.831 79.92 150.911 81.09Z" fill="white"/>
<path d="M154.78 94.82C154.53 94.82 154.32 94.63 154.3 94.37C154.05 90.97 148.72 88.2 142.4 88.2C138.22 88.2 134.46 89.44 132.59 91.45C131.76 92.34 131.38 93.3 131.45 94.31C131.47 94.58 131.27 94.81 131 94.83C130.73 94.85 130.5 94.65 130.48 94.38C130.39 93.11 130.87 91.87 131.88 90.79C133.92 88.6 137.95 87.23 142.4 87.23C149.33 87.23 154.98 90.34 155.27 94.3C155.29 94.57 155.09 94.8 154.82 94.82H154.78Z" fill="white"/>
<path d="M129.37 76.81C129.25 76.81 129.13 76.77 129.04 76.68C128.84 76.5 128.83 76.19 129.01 76L131.13 73.71C131.31 73.51 131.62 73.5 131.81 73.68C132.01 73.86 132.02 74.17 131.84 74.36L129.72 76.65C129.62 76.75 129.49 76.81 129.36 76.81H129.37Z" fill="white"/>
<path d="M153.79 76.8101C153.67 76.8101 153.55 76.7701 153.46 76.6801L151.01 74.3901C150.81 74.2101 150.8 73.9001 150.99 73.7101C151.17 73.5101 151.48 73.5001 151.67 73.6901L154.12 75.9801C154.32 76.1601 154.33 76.4701 154.14 76.6601C154.04 76.7601 153.92 76.8101 153.79 76.8101V76.8101Z" fill="white"/>
<path d="M95.5273 87.6189C95.5273 87.6189 96.4066 85.9384 96.5791 85.0536C96.7516 84.1688 97.8562 81.584 98.3125 81.1277C98.4961 80.944 99.0971 81.1805 99.1667 81.9651C99.1973 82.3074 99.0303 82.9251 98.7354 83.6652C98.2541 84.8672 98.3347 86.4976 98.1678 87.043C97.7505 88.398 95.5273 87.6217 95.5273 87.6217V87.6189Z" fill="#FFE2D6"/>
</svg>
