<svg width="578" height="312" viewBox="0 0 578 312" fill="none" xmlns="http://www.w3.org/2000/svg">
<path d="M134.401 297.614C93.2745 284.862 37.6007 221.081 60.2279 158.894C73.101 123.514 113.515 120.879 145.278 115.004C189.423 106.837 209.287 80.8617 238.529 48.8906C271.199 13.1686 345.4 -28.5565 411.022 27.0433C428.695 42.0138 431.512 70.9733 454.314 91.2947C477.25 111.737 507.157 111.831 520.615 152.299C531.102 183.833 485.955 249.436 455.362 268.984C398.781 305.143 227.148 326.365 134.401 297.614V297.614Z" fill="#F6F7FB"/>
<path d="M163 159.824V299.064C163 305.595 169.298 310 177.466 310H323.981C332.149 310 339 305.595 339 299.064V159.824C339 153.294 332.379 148 324.211 148H177.789C169.621 148 163 153.294 163 159.824Z" fill="#E2E7F4"/>
<path d="M523.497 181.072H319.39C311.252 181.072 304.655 187.672 304.655 195.815V295.595C304.655 303.738 311.252 310.338 319.39 310.338H523.497C531.634 310.338 538.232 303.738 538.232 295.595V195.815C538.232 187.672 531.634 181.072 523.497 181.072Z" fill="#D5D9E5"/>
<path d="M451.476 181.072H308.738C300.6 181.072 294.003 187.672 294.003 195.815V295.595C294.003 303.738 300.6 310.338 308.738 310.338H451.476C459.614 310.338 466.211 303.738 466.211 295.595V195.815C466.211 187.672 459.614 181.072 451.476 181.072Z" fill="#D5D9E6"/>
<path d="M147.958 180.025C147.958 180.025 157.668 179.943 160.007 183.222C162.344 186.501 167.469 204.142 164.794 210.014C162.12 215.884 157.117 207.586 154.338 203.991C151.562 200.396 147.958 180.027 147.958 180.027V180.025Z" fill="#2B478B"/>
<path d="M148.057 178.543L148.051 179.547C148.051 179.547 148.324 182.687 144.458 183.147C140.593 183.606 137.663 181.921 137.768 179.497C138.115 177.62 138.498 176.331 138.524 174.779C138.534 174.202 138.494 173.589 138.387 172.898L145.878 172.749L148.084 173.109L148.055 178.543H148.057Z" fill="#F7D3C9"/>
<path d="M148.084 173.109L148.055 178.543C147.259 178.913 146.362 179.139 145.354 179.139C141.91 179.139 139.685 176.613 138.523 174.779C138.534 174.202 138.494 173.589 138.386 172.898L145.878 172.749L148.084 173.109Z" fill="#E4C3BA"/>
<path d="M137.814 171.691C138.683 176.371 144.718 176.217 147.326 175.922C148.061 175.84 148.522 175.747 148.522 175.747C149.349 175.526 149.812 174.223 150.027 172.512C150.452 169.132 149.915 164.168 149.345 162.898C148.486 160.988 146.867 158.921 140.79 160.413C134.711 161.904 136.7 165.693 137.816 171.689L137.814 171.691Z" fill="#F7D3C9"/>
<path d="M141.449 309.713C141.449 309.713 141.092 306.842 140.26 305.183C139.429 303.521 134.145 304.578 134.145 304.578C134.145 304.578 133.088 305.484 132.861 309.713H141.447H141.449Z" fill="#233862"/>
<path d="M159.451 309.713C158.209 308.955 158.917 303.297 158.917 303.297C158.917 303.297 164.701 298.666 165.497 302.213C166.293 305.757 170.993 307.35 173.668 307.784C175.515 308.083 176.087 309.106 176.264 309.713H159.451V309.713Z" fill="#233862"/>
<path d="M157.887 193.171C157.887 193.171 162.786 203.365 162.676 205.855C162.676 205.855 160.944 204.212 157.887 204.429C154.831 204.644 157.887 193.173 157.887 193.173V193.171Z" fill="#233862"/>
<path d="M147.326 175.924C148.061 175.842 148.522 175.749 148.522 175.749C149.349 175.528 149.812 174.225 150.027 172.514C148.476 172.898 147.764 174.096 147.467 174.608C147.333 174.837 147.305 175.353 147.326 175.924Z" fill="#E4C3BA"/>
<path d="M151.269 178.57C151.269 178.57 154.65 172.99 152.021 172.746C149.392 172.504 148.337 174.284 147.956 174.937C147.575 175.589 148.055 178.54 148.055 178.54L151.269 178.57V178.57Z" fill="#F7D3C9"/>
<path d="M147.468 268.46C147.703 269.759 147.853 270.823 147.893 271.587C148.432 282.082 156.723 306.082 158.207 306.64C160.502 307.507 164.116 305.665 166.006 305.062C166.789 304.812 167.318 304.022 167.145 303.219C163.038 284.331 161.529 257.131 160.98 241.027C160.702 232.916 159.31 227.312 159.31 227.312C159.31 227.312 139.086 221.914 138.966 228.742C138.858 234.785 145.666 258.487 147.468 268.458V268.46Z" fill="#053F5F"/>
<path d="M147.468 268.46L160.977 241.027C160.7 232.916 159.308 227.312 159.308 227.312C159.308 227.312 139.083 221.914 138.963 228.742C138.856 234.785 145.664 258.487 147.466 268.458L147.468 268.46Z" fill="#002D46"/>
<path d="M151.968 228.768L141.277 306.299C141.277 306.299 136.581 307.432 132.931 306.526C132.931 306.526 129.801 265.29 130.062 255.322C130.323 245.353 127.816 228.647 130.634 226.805C133.453 224.962 151.97 228.768 151.97 228.768H151.968Z" fill="#053F5F"/>
<path d="M129.083 224.603C129.112 224.269 129.14 223.936 129.167 223.607C129.173 223.521 129.18 223.432 129.186 223.346C129.207 223.087 129.226 222.828 129.247 222.571C129.253 222.495 129.257 222.421 129.264 222.346C129.312 221.689 129.354 221.04 129.396 220.397C129.401 220.326 129.405 220.254 129.409 220.183C129.426 219.917 129.441 219.654 129.455 219.389C129.459 219.332 129.462 219.275 129.466 219.216C129.483 218.894 129.502 218.576 129.516 218.258C129.516 218.251 129.516 218.245 129.516 218.239C129.533 217.935 129.546 217.636 129.561 217.339C129.565 217.27 129.567 217.2 129.571 217.131C129.584 216.874 129.594 216.619 129.605 216.366C129.607 216.314 129.609 216.261 129.611 216.21C129.626 215.907 129.636 215.606 129.649 215.309C129.651 215.267 129.653 215.229 129.655 215.187C129.666 214.934 129.674 214.686 129.685 214.437C129.689 214.351 129.691 214.264 129.695 214.178C129.704 213.965 129.71 213.755 129.718 213.544C129.72 213.464 129.725 213.382 129.727 213.304C129.735 213.047 129.744 212.792 129.752 212.539C129.76 212.346 129.767 212.152 129.773 211.96C129.773 211.92 129.775 211.878 129.777 211.838C129.811 210.834 129.845 209.856 129.878 208.904C129.878 208.89 129.878 208.877 129.88 208.862C129.902 208.304 129.923 207.754 129.946 207.213C129.946 207.179 129.948 207.148 129.95 207.116C129.958 206.893 129.969 206.674 129.979 206.455C129.982 206.396 129.984 206.341 129.988 206.282C129.998 206.048 130.009 205.817 130.022 205.587C130.022 205.568 130.024 205.549 130.026 205.53C130.038 205.29 130.051 205.052 130.064 204.818C130.068 204.745 130.072 204.673 130.076 204.601C130.087 204.437 130.095 204.275 130.106 204.113C130.112 204.026 130.116 203.942 130.123 203.856C130.135 203.685 130.146 203.517 130.156 203.348C130.165 203.245 130.171 203.142 130.179 203.041C130.19 202.898 130.2 202.752 130.211 202.611C130.211 202.594 130.215 202.577 130.215 202.558C130.23 202.365 130.247 202.175 130.264 201.986C130.27 201.927 130.274 201.866 130.278 201.807C130.295 201.607 130.316 201.406 130.335 201.211C130.27 201.133 130.203 201.055 130.137 200.975C125.51 195.389 123.128 188.18 124.995 185.511C128.045 181.154 137.766 179.5 137.766 179.5C137.766 181.114 141.264 183.134 144.064 182.95C144.529 182.921 144.961 182.826 145.356 182.687C146.268 180.444 146.893 178.955 146.893 178.955C146.893 178.955 148.007 176.676 151.966 177.988C151.966 177.988 152.086 180.004 151.966 183.011C151.964 183.066 151.962 183.123 151.96 183.178C154.976 185.92 158.595 190.069 158.601 194.043C158.607 199.654 158.677 204.384 158.78 208.367C158.894 212.792 159.054 216.293 159.218 219.056C159.704 227.211 160.243 228.925 159.889 228.919C159.889 228.919 156.789 231.743 148.598 231.691C143.449 231.659 139.258 231.086 136.143 230.44C131.954 229.572 129.714 228.567 129.714 228.567C128.815 228.552 129.005 225.461 129.078 224.61L129.083 224.603Z" fill="#2B478B"/>
<path d="M151.208 158.445C151.208 158.445 148.533 158.239 145.377 156.866C142.816 155.752 139.584 156.98 138.536 157.531C138.564 157.363 138.631 157.131 138.793 156.9C138.793 156.9 138.322 157.234 138.252 157.7C138.204 157.736 138.183 157.761 138.195 157.769C138.195 157.769 137.661 157.673 137.317 157.826C137.317 157.826 137.557 157.793 137.644 157.946C137.652 157.963 137.667 157.976 137.682 157.988C133.686 159.92 133.318 166.238 134.602 167.7C136.149 169.459 138.004 173.42 138.004 173.42C138.004 173.42 138.679 172.485 138.399 170.937C138.117 169.389 139.454 169.389 141.142 168.686C142.83 167.982 141.424 166.013 142.9 164.817C144.375 163.62 149.79 164.324 149.72 163.41C151.73 162.677 151.208 158.652 151.208 158.445V158.445Z" fill="#1E1E1E"/>
<path d="M136.589 208.719C138.174 215.09 155.322 218.382 159.22 219.05C159.056 216.286 158.896 212.786 158.782 208.361L136.589 208.719V208.719Z" fill="#233862"/>
<path d="M140.353 210.79C140.188 210.79 136.541 210.244 135.888 209.918C135.235 209.591 132.246 205.341 134.204 204.252C136.162 203.163 141.416 207.521 141.416 207.521L140.355 210.79H140.353Z" fill="#F7D3C9"/>
<path d="M162.543 212.051C162.543 212.051 148.434 212.818 138.963 210.788C138.963 210.788 138.725 208.05 141.7 206.834C141.7 206.834 156.458 203.705 160.005 204.576C163.55 205.448 162.543 212.051 162.543 212.051Z" fill="#2B478B"/>
<path d="M130.139 200.972C133.067 204.504 136.896 207.39 141.117 208.066C149.895 204.1 151.671 190.488 151.968 183.007C151.968 183.007 147.815 198.081 142.161 203.348C141.14 204.302 140.069 204.934 138.964 205.098C138.964 205.098 131.834 203.083 130.339 201.185C130.232 201.048 130.167 200.981 130.139 200.972V200.972Z" fill="#233862"/>
<path d="M133.05 192.416C133.05 192.416 137.454 197.942 140.083 193.018C140.083 193.018 137.332 195.695 133.05 192.416Z" fill="#233862"/>
<g opacity="0.45">
<path d="M459.704 270.931H215.419L225.338 234.278H459.704V270.931Z" fill="#1C2948"/>
<path d="M278.272 226.033C281.935 225.896 285.741 225.822 289.694 225.822C289.694 225.822 311.573 206.823 336.884 200.357C310.86 206.787 278.27 226.031 278.27 226.031L278.272 226.033Z" fill="#163560"/>
<path d="M476.445 240.294V219.319C476.445 219.319 451.851 216.507 436.975 211.115C402.541 198.459 384.036 198.226 352.764 198.226C329.022 198.226 304.976 214.133 294.773 221.793C291.334 224.375 287.164 225.801 282.865 225.896C245.308 226.72 222.09 234.222 210.561 239.285C205.157 241.658 201.68 247.016 201.68 252.92V259.982C200.903 259.982 200.274 260.612 200.274 261.389V273.107C200.274 273.884 200.903 274.514 201.68 274.514H224.092C221.871 270.534 220.646 265.921 220.77 261.012C221.122 247.025 232.537 235.637 246.516 235.327C261.344 234.999 273.467 246.926 273.467 261.688C273.467 266.347 272.254 270.719 270.137 274.516H408.031C405.81 270.536 404.585 265.923 404.709 261.014C405.059 247.027 416.476 235.639 430.455 235.329C445.283 235.001 457.406 246.928 457.406 261.69C457.406 266.349 456.193 270.721 454.076 274.518H459.582C478.639 274.518 481.337 255.02 481.516 245.462C481.569 242.625 479.283 240.302 476.447 240.302L476.445 240.294Z" fill="#56C3C6"/>
<path d="M340.692 202.013C318.937 207.52 295.609 226.349 295.609 226.349L357.357 225.026C359.778 224.974 361.961 223.548 362.978 221.349L372.44 200.919H349.543C346.559 200.919 343.584 201.28 340.69 202.013H340.692Z" fill="#163560"/>
<path d="M376.07 201.389L367.4 221.258C366.733 222.785 367.853 224.495 369.518 224.497C378.266 224.501 401.234 224.177 414.455 220.862C417.632 220.066 418.697 216.066 416.335 213.8C410.963 208.644 399.28 201.389 376.07 201.389V201.389Z" fill="#163560"/>
<path d="M203.284 246.182H212.306C212.306 246.182 227.058 232.404 250.735 228.497C250.735 228.497 206.999 233.32 203.284 246.182V246.182Z" fill="#595B61"/>
<path d="M476.454 240.294H474.065C472.724 240.294 471.505 239.523 470.932 238.31C469.549 235.384 466.516 229.834 461.864 225.89C460.066 224.367 461.155 221.427 463.51 221.427H475.664C476.1 221.427 476.454 221.781 476.454 222.217V240.294Z" fill="#595B61"/>
<path d="M358.006 230.86H346.005C345.342 230.86 344.805 230.323 344.805 229.66C344.805 228.997 345.342 228.459 346.005 228.459H358.006C358.669 228.459 359.205 228.997 359.205 229.66C359.205 230.323 358.669 230.86 358.006 230.86Z" fill="#3CB0B4"/>
<path d="M411.062 230.86H399.061C398.398 230.86 397.861 230.323 397.861 229.66C397.861 228.997 398.398 228.459 399.061 228.459H411.062C411.725 228.459 412.262 228.997 412.262 229.66C412.262 230.323 411.725 230.86 411.062 230.86Z" fill="#3CB0B4"/>
<path d="M400.901 238.653H292.698C288.223 238.653 285.471 243.552 287.797 247.377L294.765 258.836C296.28 261.33 299.594 262.014 301.968 260.321C311.22 253.72 337.869 240.03 400.901 238.653Z" fill="#3CB0B4"/>
<path d="M453.908 265.378C455.936 252.876 447.451 241.096 434.955 239.066C422.459 237.037 410.686 245.527 408.657 258.029C406.629 270.532 415.114 282.312 427.61 284.341C440.105 286.371 451.879 277.881 453.908 265.378Z" fill="#2D3A62"/>
<path d="M431.266 247.482C423.423 247.482 417.065 253.842 417.065 261.69C417.065 269.537 423.423 275.898 431.266 275.898C439.109 275.898 445.466 269.537 445.466 261.69C445.466 253.842 439.109 247.482 431.266 247.482ZM433.211 249.038C436.303 249.51 439.029 251.094 440.976 253.364L436.055 256.406C435.253 255.677 434.282 255.131 433.211 254.828V249.038V249.038ZM429.321 249.038V254.828C428.249 255.131 427.279 255.677 426.477 256.406L421.555 253.364C423.503 251.094 426.228 249.512 429.321 249.038ZM419.471 266.652C418.829 265.125 418.474 263.449 418.474 261.69C418.474 259.931 418.84 258.211 419.497 256.667L424.416 259.706C424.235 260.336 424.134 261.001 424.134 261.688C424.134 262.374 424.227 262.996 424.397 263.607L419.469 266.652H419.471ZM429.321 274.342C426.205 273.866 423.462 272.265 421.513 269.967L426.428 266.93C427.241 267.682 428.226 268.244 429.321 268.554V274.344V274.342ZM428.041 261.69C428.041 259.908 429.485 258.463 431.266 258.463C433.047 258.463 434.491 259.908 434.491 261.69C434.491 263.472 433.047 264.917 431.266 264.917C429.485 264.917 428.041 263.472 428.041 261.69V261.69ZM433.211 274.342V268.552C434.305 268.242 435.291 267.68 436.103 266.928L441.018 269.965C439.069 272.263 436.326 273.863 433.211 274.339V274.342ZM438.132 263.609C438.303 262.998 438.395 262.356 438.395 261.69C438.395 261.024 438.296 260.338 438.115 259.708L443.035 256.669C443.694 258.211 444.058 259.908 444.058 261.692C444.058 263.476 443.702 265.129 443.06 266.654L438.132 263.609V263.609Z" fill="#98BDF4"/>
<path d="M269.617 266.244C272.05 253.814 263.951 241.765 251.528 239.33C239.105 236.896 227.062 244.999 224.629 257.429C222.196 269.859 230.295 281.909 242.718 284.343C255.141 286.777 267.184 278.674 269.617 266.244Z" fill="#2D3A62"/>
<path d="M247.133 247.642C239.29 247.642 232.933 254.003 232.933 261.85C232.933 269.698 239.29 276.058 247.133 276.058C254.976 276.058 261.334 269.698 261.334 261.85C261.334 254.003 254.976 247.642 247.133 247.642V247.642ZM249.078 249.199C252.17 249.67 254.896 251.252 256.844 253.525L251.922 256.566C251.12 255.837 250.15 255.292 249.078 254.988V249.199ZM245.188 249.199V254.988C244.117 255.292 243.146 255.837 242.344 256.566L237.423 253.525C239.37 251.254 242.096 249.672 245.188 249.199ZM235.339 266.812C234.697 265.285 234.341 263.609 234.341 261.85C234.341 260.091 234.707 258.369 235.364 256.827L240.284 259.866C240.102 260.496 240.001 261.161 240.001 261.848C240.001 262.535 240.094 263.156 240.265 263.765L235.337 266.81L235.339 266.812ZM245.188 274.502C242.073 274.026 239.33 272.425 237.381 270.127L242.296 267.09C243.108 267.842 244.094 268.404 245.188 268.714V274.504V274.502ZM243.908 261.85C243.908 260.068 245.352 258.624 247.133 258.624C248.914 258.624 250.358 260.068 250.358 261.85C250.358 263.632 248.914 265.077 247.133 265.077C245.352 265.077 243.908 263.632 243.908 261.85ZM249.078 274.502V268.712C250.173 268.402 251.158 267.84 251.97 267.088L256.886 270.125C254.936 272.423 252.194 274.024 249.078 274.5V274.502ZM254 263.769C254.17 263.158 254.263 262.516 254.263 261.852C254.263 261.189 254.164 260.5 253.981 259.87L258.9 256.831C259.559 258.373 259.923 260.07 259.923 261.854C259.923 263.638 259.567 265.289 258.925 266.816L253.998 263.771L254 263.769Z" fill="#98BDF4"/>
</g>
<g opacity="0.3">
<path d="M313.083 169.067H524.804L516.207 137.298H313.083V169.067Z" fill="#1C2948"/>
<path d="M470.328 130.152C467.154 130.034 463.855 129.969 460.428 129.969C460.428 129.969 441.465 113.503 419.528 107.898C442.083 113.471 470.328 130.15 470.328 130.15V130.152Z" fill="#163560"/>
<path d="M298.573 142.513V124.332C298.573 124.332 319.89 121.896 332.781 117.222C362.624 106.253 378.664 106.051 405.766 106.051C426.342 106.051 447.184 119.838 456.027 126.476C459.008 128.715 462.622 129.952 466.348 130.032C498.899 130.746 519.021 137.247 529.014 141.636C533.697 143.694 536.712 148.336 536.712 153.454V159.574C537.385 159.574 537.93 160.12 537.93 160.794V170.95C537.93 171.624 537.385 172.169 536.712 172.169H517.287C519.211 168.719 520.272 164.722 520.166 160.465C519.863 148.344 509.968 138.473 497.851 138.203C485 137.919 474.494 148.256 474.494 161.049C474.494 165.086 475.545 168.875 477.38 172.167H357.867C359.791 168.717 360.852 164.72 360.746 160.463C360.443 148.342 350.548 138.471 338.431 138.201C325.58 137.917 315.074 148.254 315.074 161.047C315.074 165.084 316.125 168.873 317.96 172.165H313.188C296.672 172.165 294.331 155.265 294.178 146.982C294.131 144.524 296.114 142.508 298.571 142.508L298.573 142.513Z" fill="#56C3C6"/>
<path d="M416.23 109.335C435.086 114.109 455.303 130.428 455.303 130.428L401.785 129.282C399.686 129.238 397.796 128.001 396.914 126.095L388.713 108.389H408.557C411.144 108.389 413.723 108.701 416.23 109.337V109.335Z" fill="#163560"/>
<path d="M385.566 108.793L393.081 126.015C393.66 127.34 392.689 128.821 391.245 128.823C383.663 128.827 363.756 128.545 352.299 125.672C349.545 124.981 348.621 121.517 350.669 119.552C355.326 115.082 365.451 108.796 385.568 108.796L385.566 108.793Z" fill="#163560"/>
<path d="M535.32 147.616H527.5C527.5 147.616 514.714 135.674 494.194 132.29C494.194 132.29 532.101 136.468 535.32 147.616Z" fill="#595B61"/>
<path d="M298.573 142.512H300.642C301.802 142.512 302.859 141.847 303.356 140.798C304.551 138.266 307.18 133.454 311.211 130.036C312.771 128.711 311.839 126.16 309.791 126.16H298.573V142.512Z" fill="#595B61"/>
<path d="M401.223 134.336H411.624C412.198 134.336 412.664 133.871 412.664 133.296C412.664 132.721 412.198 132.256 411.624 132.256H401.223C400.648 132.256 400.183 132.721 400.183 133.296C400.183 133.871 400.648 134.336 401.223 134.336Z" fill="#3CB0B4"/>
<path d="M355.242 134.336H365.643C366.217 134.336 366.682 133.871 366.682 133.296C366.682 132.721 366.217 132.256 365.643 132.256H355.242C354.667 132.256 354.202 132.721 354.202 133.296C354.202 133.871 354.667 134.336 355.242 134.336Z" fill="#3CB0B4"/>
<path d="M364.047 141.091H457.827C461.704 141.091 464.091 145.337 462.075 148.652L456.035 158.584C454.722 160.745 451.851 161.339 449.792 159.871C441.774 154.151 418.676 142.285 364.047 141.093V141.091Z" fill="#3CB0B4"/>
<path d="M342.289 180.417C352.967 177.895 359.58 167.19 357.06 156.507C354.54 145.823 343.841 139.207 333.163 141.728C322.485 144.25 315.872 154.955 318.393 165.638C320.913 176.322 331.612 182.938 342.289 180.417Z" fill="#2D3A62"/>
<path d="M337.728 148.742C344.525 148.742 350.036 154.256 350.036 161.057C350.036 167.858 344.525 173.372 337.728 173.372C330.931 173.372 325.42 167.858 325.42 161.057C325.42 154.256 330.931 148.742 337.728 148.742ZM336.042 150.092C333.362 150.501 330.998 151.874 329.312 153.841L333.577 156.476C334.272 155.844 335.114 155.373 336.042 155.109V150.092V150.092ZM339.414 150.092V155.109C340.343 155.373 341.182 155.846 341.879 156.476L346.144 153.841C344.456 151.874 342.094 150.501 339.414 150.092V150.092ZM347.95 165.358C348.506 164.035 348.815 162.582 348.815 161.057C348.815 159.532 348.499 158.041 347.929 156.704L343.666 159.338C343.824 159.884 343.91 160.461 343.91 161.057C343.91 161.653 343.83 162.19 343.683 162.719L347.954 165.358H347.95ZM339.414 172.022C342.115 171.609 344.491 170.221 346.182 168.231L341.921 165.598C341.218 166.249 340.361 166.737 339.414 167.005V172.022ZM340.524 161.057C340.524 159.513 339.273 158.262 337.73 158.262C336.187 158.262 334.935 159.513 334.935 161.057C334.935 162.601 336.185 163.854 337.73 163.854C339.275 163.854 340.524 162.603 340.524 161.057ZM336.044 172.022V167.005C335.097 166.737 334.24 166.249 333.537 165.598L329.277 168.231C330.967 170.223 333.343 171.611 336.044 172.022ZM331.779 162.719C331.632 162.19 331.552 161.632 331.552 161.057C331.552 160.482 331.638 159.884 331.796 159.338L327.534 156.704C326.963 158.041 326.647 159.511 326.647 161.057C326.647 162.603 326.955 164.035 327.513 165.358L331.784 162.719H331.779Z" fill="#98BDF4"/>
<path d="M511.364 175.251C519.121 167.49 519.121 154.905 511.364 147.143C503.606 139.381 491.028 139.381 483.27 147.143C475.513 154.905 475.513 167.49 483.27 175.251C491.028 183.013 503.606 183.013 511.364 175.251Z" fill="#2D3A62"/>
<path d="M497.317 148.882C504.114 148.882 509.625 154.395 509.625 161.196C509.625 167.997 504.114 173.511 497.317 173.511C490.52 173.511 485.009 167.997 485.009 161.196C485.009 154.395 490.52 148.882 497.317 148.882ZM495.631 150.232C492.951 150.64 490.587 152.013 488.901 153.981L493.166 156.617C493.86 155.986 494.7 155.514 495.631 155.251V150.234V150.232ZM499.003 150.232V155.248C499.931 155.512 500.771 155.986 501.468 156.615L505.732 153.978C504.044 152.011 501.682 150.638 499.003 150.23V150.232ZM507.539 165.497C508.094 164.174 508.404 162.721 508.404 161.196C508.404 159.671 508.088 158.18 507.518 156.843L503.255 159.478C503.413 160.023 503.499 160.6 503.499 161.196C503.499 161.792 503.419 162.329 503.272 162.858L507.543 165.497H507.539ZM499.003 172.161C501.704 171.748 504.08 170.36 505.77 168.37L501.51 165.737C500.807 166.388 499.95 166.876 499.003 167.144V172.161V172.161ZM500.112 161.196C500.112 159.652 498.862 158.399 497.317 158.399C495.772 158.399 494.523 159.65 494.523 161.196C494.523 162.742 495.774 163.991 497.317 163.991C498.86 163.991 500.112 162.74 500.112 161.196ZM495.633 172.161V167.144C494.685 166.874 493.829 166.388 493.126 165.737L488.865 168.37C490.555 170.36 492.932 171.75 495.633 172.161V172.161ZM491.368 162.858C491.221 162.329 491.141 161.771 491.141 161.196C491.141 160.621 491.227 160.023 491.385 159.478L487.122 156.843C486.552 158.18 486.236 159.65 486.236 161.196C486.236 162.742 486.543 164.174 487.101 165.497L491.372 162.858H491.368Z" fill="#98BDF4"/>
</g>
<path d="M472.003 284.743H202.702C194.544 284.743 187.931 290.181 187.931 296.89V298.783C187.931 305.492 194.544 310.93 202.702 310.93H472.003C480.16 310.93 486.773 305.492 486.773 298.783V296.89C486.773 290.181 480.16 284.743 472.003 284.743Z" fill="#CBD0E1"/>
<path d="M66.2149 305.975L63.1753 307.55C63.1753 307.55 61.3566 305.181 59.7337 302.318C58.597 300.313 57.5529 298.066 57.2982 296.225C56.6772 291.754 51.9452 284.406 52.4377 283.153C52.9303 281.901 62.3123 279.736 62.3123 279.736C62.3123 279.736 64.1457 292.302 65.3666 300.423C65.7224 302.792 66.0255 304.785 66.2171 305.977L66.2149 305.975Z" fill="#F7D3C9"/>
<path d="M63.8991 288.435C62.1625 289.277 60.548 289.762 59.165 290.033C57.1021 290.438 55.5507 290.368 54.8624 290.301C54.6077 290.276 54.473 290.252 54.473 290.252C54.473 290.252 52.7847 289.035 50.8271 286.2C49.0336 283.601 47.7012 279.884 47.7012 279.838L62.0278 278.441L63.897 288.435H63.8991Z" fill="#002D46"/>
<path d="M59.1652 290.033C57.1023 290.438 55.5509 290.368 54.8625 290.301L56.4729 284.041C56.4729 284.041 58.5568 287.302 59.1652 290.031V290.033Z" fill="#233862"/>
<path d="M66.2147 305.975L63.1751 307.55C63.1751 307.55 61.3564 305.181 59.7334 302.318C60.9985 302.224 63.1961 301.842 65.3664 300.423C65.7221 302.792 66.0252 304.785 66.2168 305.977L66.2147 305.975Z" fill="#739AF0"/>
<path d="M59.3083 282.607C59.3083 282.607 55.4667 288.03 53.1407 295.65C52.5934 297.447 50.7284 299.681 48.8423 301.668C47.013 303.595 45.1649 305.288 44.4807 306.12L41.3843 304.629C41.3843 304.629 42.4726 301.505 44.0829 298.671C44.6807 297.617 45.348 296.602 46.0616 295.804C47.0467 294.7 46.7226 280.754 47.7056 279.835C48.6886 278.917 59.3104 282.605 59.3104 282.605L59.3083 282.607Z" fill="#F7D3C9"/>
<path d="M61.1371 279.378L55.4662 290.911C55.4326 290.916 51.2394 291.042 48.2629 289.374C46.5558 288.418 45.7896 287.287 45.7896 287.287L47.5577 279.38H61.1371V279.378Z" fill="#002D46"/>
<path d="M50.5938 257.736L50.6074 257.743C50.5957 257.749 50.5938 257.736 50.5938 257.736Z" fill="#FFB27D"/>
<path d="M58.5316 262.527L50.6084 257.744C50.6526 257.727 50.8126 257.487 51.4041 255.772C51.6567 255.042 51.7914 254.408 51.8567 253.904C51.863 253.854 51.8693 253.805 51.8735 253.757C51.9556 253.026 51.8946 252.605 51.8946 252.605L53.6291 253.232L56.8392 254.395C56.8013 255.21 56.9171 255.783 57.0897 256.175C57.5086 257.129 58.2895 257.137 58.3127 257.137L58.5295 262.527H58.5316Z" fill="#F7D3C9"/>
<path d="M57.0919 256.177C53.9892 256.44 52.2441 254.416 51.8568 253.904C51.8 253.829 51.7705 253.789 51.7705 253.789C51.7705 253.789 51.8084 253.778 51.8737 253.759C52.1263 253.685 52.8104 253.479 53.6313 253.235L56.8415 254.397C56.8036 255.212 56.9193 255.785 57.0919 256.177V256.177Z" fill="#E4C3BA"/>
<path d="M57.2473 255.063C57.2473 255.063 50.3555 255.821 50.2145 251.158C50.0735 246.495 49.0546 244.361 53.8225 243.944C58.5924 243.529 59.7186 245.248 59.9985 246.826C60.8763 251.754 59.1881 254.854 57.2473 255.063Z" fill="#F7D3C9"/>
<path d="M75.3715 237.845C75.1105 237.694 74.6516 237.715 74.0643 237.866C73.6286 237.997 73.1276 238.193 72.6034 238.477C72.5592 238.477 72.5382 238.498 72.494 238.521C71.2604 239.193 71.2941 242.336 71.2962 242.38C70.5068 243.024 67.482 249.164 66.7768 250.842C66.0716 252.525 59.4619 257.605 59.4619 257.605L61.1228 263.188C63.0972 262.184 69.1049 255.271 70.3595 253.233C71.6141 251.194 73.4139 244.44 73.1781 243.302C73.1781 243.298 73.176 243.294 73.176 243.29C73.1991 243.25 73.3444 243.005 73.5633 242.687C73.9338 242.121 74.5232 241.249 74.8937 240.813C75.1778 240.486 75.4157 239.854 75.5252 239.265C75.6557 238.61 75.6115 237.978 75.3715 237.847V237.845Z" fill="#F7D3C9"/>
<path d="M54.1932 246.221C51.7535 245.604 52.686 249.928 52.0713 249.631C51.3809 249.3 50.1979 249.305 50.3831 250.139C50.5705 250.971 50.8399 251.27 50.9809 251.79C51.122 252.31 50.9809 253.34 50.4126 253.132C49.8463 252.923 44.5712 246.897 48.295 242.205C52.0187 237.51 63.1247 240.402 59.6283 245.311C59.0136 246.175 55.9298 246.662 54.1932 246.221V246.221Z" fill="#1E1E1E"/>
<path d="M63.0449 281.08C63.0449 281.08 60.9736 282.179 57.7129 282.127C55.6353 282.095 51.2253 281.191 48.3878 280.168C46.7711 279.587 45.666 278.963 45.7986 278.441C45.9902 277.687 47.3753 271.908 48.653 266.56C49.8234 261.67 50.9053 257.139 50.9053 257.139C50.9053 257.139 54.1323 259.435 56.0142 258.624C57.896 257.813 57.654 256.899 57.654 256.899C57.654 256.899 58.8854 256.402 59.4622 256.585C60.0389 256.767 61.6766 255.84 61.6766 255.84C61.6766 255.84 63.4848 257.238 63.5543 260.244C63.5648 260.688 63.5395 261.168 63.4596 261.684L62.1545 263.19C62.1545 263.19 64.9246 271.929 63.0428 281.082L63.0449 281.08Z" fill="#699DEE"/>
<path d="M71.2501 309.711H62.1733C62.1733 309.711 62.0007 308.232 62.2091 306.971C62.2344 306.817 62.3144 306.678 62.4322 306.556C62.9627 306.737 63.7437 306.863 64.613 306.552C65.3245 306.297 65.8508 305.907 66.2191 305.553C66.3139 305.644 68.1873 307.432 69.0546 307.432C69.9218 307.432 71.3006 307.86 71.2501 309.711V309.711Z" fill="#2B478B"/>
<path d="M48.8423 301.667C47.013 303.595 45.1649 305.288 44.4807 306.12L41.3843 304.629C41.3843 304.629 42.4726 301.505 44.0829 298.67C44.6365 299.534 46.0889 301.307 48.8423 301.665V301.667Z" fill="#739AF0"/>
<path d="M45.152 305.32C45.152 305.32 45.0383 307.291 45.6951 307.552C46.3518 307.813 47.5769 308.46 47.5769 309.711H43.0301C43.0301 309.711 39.8937 308.167 39.4769 307.512C39.058 306.857 41.5651 304.058 41.5651 304.058C41.5651 304.058 43.1059 305.762 45.152 305.32V305.32Z" fill="#2B478B"/>
<path d="M48.3895 280.168C46.7728 279.587 45.6677 278.963 45.8003 278.441C45.9919 277.687 47.377 271.908 48.6547 266.56C49.0315 265.867 49.2715 265.452 49.2715 265.452C49.2715 265.452 51.6985 276.554 48.3874 280.168H48.3895Z" fill="#4A75CB"/>
<path d="M55.4436 273.416C54.7279 272.948 52.9892 273.224 52.7134 273.27C51.7304 272.689 48.9034 270.728 47.5667 269.58C47.2741 269.328 47.2867 268.801 47.4972 268.477C48.0445 267.641 48.9644 266.194 49.2738 265.45C49.7243 264.368 52.7029 258.254 50.9894 257.761C50.9894 257.761 44.8576 259.06 42.4389 268.597C42.2032 269.53 42.4473 270.526 43.0915 271.24C44.2029 272.472 46.6552 274.275 52.3535 274.941C52.3535 274.941 54.1343 276.069 55.892 275.048C56.4519 274.721 56.2225 273.923 55.4436 273.414V273.416Z" fill="#F7D3C9"/>
<path d="M50.9072 257.137C50.9072 257.137 47.3014 257.394 44.3628 261.316C44.3628 261.316 45.3585 264.924 50.0273 265.886C50.0273 265.886 52.9049 259.391 50.9072 257.137Z" fill="#699DEE"/>
<path d="M75.525 239.281C75.4155 239.871 75.1756 240.503 74.8935 240.829C74.523 241.265 73.9336 242.137 73.5631 242.704C72.538 241.788 72.4959 239.717 72.6033 238.496C73.1253 238.211 73.6284 238.016 74.0641 237.885C74.7609 238.19 75.2408 238.692 75.525 239.279V239.281Z" fill="#E4C3BA"/>
<path d="M96.2442 162.949C96.1516 162.62 94.9622 158.928 89.2029 160.154C89.2029 160.154 92.0868 159.789 92.8762 160.901C92.8762 160.901 90.5901 159.855 89.1608 160.731C87.7295 161.607 87.4958 164.556 87.7084 165.453C87.9231 166.35 89.5019 169.021 90.5502 169.021C90.9459 169.021 91.3711 168.888 91.7437 168.726C91.5837 169.2 91.4385 169.718 91.3185 170.282C90.207 175.514 93.6845 179.492 95.4843 178.509C96.6378 177.879 97.5114 179.899 97.5114 179.899L107.083 167.205C107.083 167.205 100.414 159.187 96.2484 162.949H96.2442Z" fill="#1E1E1E"/>
<path d="M121.549 236.655C121.294 237.628 120.46 239.825 119.812 239.823C119.284 239.823 119.096 237.133 118.416 236.562C117.431 235.735 116.631 233.997 116.503 233.576C116.24 232.708 115.991 232.527 115.991 232.527C115.991 232.527 108.129 218.144 107.515 214.462C107.313 213.264 106.799 210.859 106.193 208.167C105.536 205.238 104.774 201.969 104.199 199.517C106.708 199.029 109.485 198.856 111.75 198.812C112.211 201.792 112.623 204.837 112.979 207.483C113.508 211.419 113.91 214.473 114.156 215.126C114.84 216.922 116.724 226.602 118.501 231.628C118.705 232.12 119.282 233.409 119.913 233.847C120.702 234.393 121.803 235.68 121.549 236.653V236.655Z" fill="#F7D3C9"/>
<path d="M111.281 225.661C106.938 211.771 111.697 208.753 111.245 201.801C110.792 194.85 105.414 187.378 105.414 187.378C105.414 187.378 105.14 187.35 104.675 187.308C104.313 187.119 104.218 185.607 104.223 184.012C104.227 182.1 104.374 180.067 104.374 180.067L97.9244 178.789L97.5413 178.713C97.5582 183.206 96.3751 186.154 95.5184 186.841C94.7122 186.933 91.2768 187.365 89.1592 188.252C88.3614 188.585 87.751 188.983 87.5384 189.45C85.7681 193.347 83.9978 203.182 82.7558 210.198C82.0633 214.109 81.5349 217.142 81.2592 217.786C80.5014 219.553 78.2132 229.145 76.2282 234.092C76.003 234.576 75.3736 235.838 74.7231 236.249C73.9106 236.76 72.7592 238.001 72.9718 238.985C73.1844 239.968 73.3991 241.506 74.4242 241.506C74.8684 241.506 75.5693 240.653 76.2471 239.619C76.7039 239.875 76.8092 239.109 77.3144 238.667C77.8596 238.191 78.1395 236.122 78.1395 236.122C78.4384 235.267 78.6953 235.097 78.6953 235.097C78.6953 235.097 87.1531 221.057 87.9215 217.403C88.172 216.213 88.7866 213.833 89.5044 211.167C89.6139 210.762 89.7234 210.354 89.837 209.939C91.1042 213.378 91.7505 214.968 91.7168 216.453C91.6663 218.568 90.2349 220.467 87.2395 227.188C85.5849 230.901 115.714 239.846 111.281 225.661V225.661Z" fill="#F7D3C9"/>
<path d="M104.374 180.067C104.374 180.067 104.227 182.098 104.222 184.012C100.612 183.911 98.7053 180.615 97.9243 178.789L104.374 180.067V180.067Z" fill="#E4C3BA"/>
<path d="M97.257 178.086C97.257 178.086 95.3647 175.095 94.9121 172.538C94.5879 170.712 95.5162 163.945 102.313 164.92C102.313 164.92 104.288 165.114 106.142 166.369C107.618 167.365 109.748 169.52 107.367 175.423L106.748 177.418L97.257 178.086Z" fill="#1E1E1E"/>
<path d="M105.578 181.878C105.578 181.878 97.0379 182.019 97.0316 176.697C97.0252 171.375 95.9201 167.809 101.372 167.493C106.824 167.178 107.887 169.208 108.321 170.985C108.754 172.761 107.801 181.706 105.578 181.88V181.878Z" fill="#F7D3C9"/>
<path d="M117.494 305.922L114.754 306.596C114.754 306.596 110.445 300.692 106.862 292.636C104.593 287.531 102.616 281.705 102.218 276.288C102.037 273.837 102.181 271.469 102.766 269.292C102.766 269.292 101.999 264.14 100.951 257.263C99.7871 249.62 98.2799 239.848 97.0969 232.662L97.8105 232.449L113.103 227.904C113.103 227.904 116.095 239.629 114.726 258.001C114.446 261.771 113.981 265.819 113.27 270.102C112.055 277.425 112.554 284.786 113.562 290.915C115.006 299.679 117.492 305.919 117.492 305.919L117.494 305.922Z" fill="#053F5F"/>
<path d="M114.728 258.003L102.22 276.288C102.039 273.837 102.182 271.469 102.768 269.292C102.768 269.292 102.001 264.14 100.953 257.263C99.7891 249.62 98.2819 239.848 97.0989 232.662L97.8125 232.449L113.105 227.904C113.105 227.904 116.097 239.629 114.728 258.001V258.003Z" fill="#002D46"/>
<path d="M101.307 270.52C100.764 271.537 95.3899 278.001 89.9926 285.159C89.5295 285.77 89.0496 286.432 88.5591 287.124C85.3785 291.608 81.7158 297.451 79.5266 300.296C77.5374 302.883 75.7502 299.643 76.7543 297.333C78.3373 293.687 79.6803 287.314 81.2127 282.624C81.5663 281.539 81.9305 280.545 82.3094 279.694C83.9597 276 87.1762 271.952 91.0894 267.946C91.7672 267.251 85.4164 250.663 85.8395 237.872C86.0058 232.803 86.711 228.344 88.3255 225.629L104.393 226.426C104.393 226.426 106.591 260.591 101.307 270.52V270.52Z" fill="#053F5F"/>
<path d="M108.066 168.025C106.748 166.426 105.753 166.774 105.193 167.254C100.614 164.712 96.0739 167.46 96.0739 167.46C95.5035 171.279 94.1899 174.49 94.1899 174.49C94.1899 174.49 95.7455 175.453 99.3346 174.528C100.429 174.246 101.408 173.469 102.239 172.525C100.787 174.96 98.8125 176.712 98.8125 176.712C103.098 174.731 104.82 168.766 104.991 168.134C105.513 168.602 106.54 169.621 106.854 170.617C107.279 171.974 107.47 174.762 108.283 174.667C108.283 174.667 110.045 170.423 108.064 168.022L108.066 168.025Z" fill="#1E1E1E"/>
<path d="M112.299 203.637C112.708 201.179 112.846 199.046 112.802 197.213C112.686 192.275 111.238 189.507 110.125 188.393C109.809 188.151 109.493 187.999 108.228 187.782C107.582 187.673 106.685 187.544 105.414 187.378C105.414 187.378 104.866 187.308 104.879 187.327C105.115 187.748 107.641 191.468 107.395 192.694C107.138 193.976 97.4252 193.791 96.6548 193.085C95.8865 192.38 93.8783 187.064 93.8783 187.064C93.8783 187.064 89.9167 187.46 87.9843 188.865C87.7507 189.033 87.6117 189.269 87.5107 189.459C85.4499 193.382 83.3933 203.29 81.9451 210.354C85.452 212.287 88.5169 211.712 89.4683 211.457C88.2264 219.595 85.4057 228.332 85.2204 232.038C85.1931 232.58 85.2204 233.014 85.3194 233.323C85.6604 234.399 86.835 234.89 89.6725 234.595C91.407 234.414 92.1817 231.506 92.5248 229.025C93.5668 232.576 95.0255 234.568 96.9116 234.985C99.6628 235.598 113.543 237.285 114.45 230.684C115.45 223.424 112.457 210.566 112.293 203.635L112.299 203.637Z" fill="#A8D29F"/>
<path d="M106.864 292.636C110.445 300.692 114.756 306.598 114.756 306.598L117.497 305.922C117.497 305.922 115.011 299.683 113.567 290.917C112.708 291.556 110.849 292.375 106.864 292.636Z" fill="#F7D3C9"/>
<path d="M112.587 309.694H114.465C115.094 309.595 115.558 309.414 116.204 309.327C117.183 309.199 117.633 309.601 117.724 309.694C117.736 309.707 117.74 309.713 117.74 309.713H125.716C125.916 309.426 125.725 308.763 125.535 308.274C125.409 307.942 125.131 307.691 124.788 307.592C123.942 307.348 122.275 307.129 120.749 305.745C119.89 304.968 116.6 302.889 116.6 302.889L116.583 302.885C116.511 302.885 116.166 302.992 114.671 304.256C113.899 304.909 112.579 303.335 112.579 303.335C112.579 303.335 112.331 303.54 112.147 303.921C111.998 304.222 111.891 304.637 111.977 305.147C112.097 305.865 111.712 307.202 111.407 308.106C111.221 308.653 111.063 309.041 111.063 309.041C111.063 309.041 110.973 309.492 112.59 309.694H112.587Z" fill="#233862"/>
<path d="M112.588 309.694H114.466C115.095 309.595 115.558 309.414 116.204 309.328C117.183 309.199 117.634 309.601 117.724 309.694C117.737 309.707 117.741 309.713 117.741 309.713H125.717C125.917 309.427 125.725 308.763 125.536 308.274C125.294 308.06 125.224 309.21 125.092 309.393C124.957 309.576 118.585 309.46 118.217 309.193C117.848 308.925 116.745 308.456 115.206 308.824C113.868 309.144 111.893 308.323 111.405 308.106C111.22 308.654 111.062 309.041 111.062 309.041C111.062 309.041 110.971 309.492 112.588 309.694V309.694Z" fill="#466AA5"/>
<path d="M85.2249 232.038C87.132 231.4 89.578 229.707 92.5145 225.907C100.292 215.851 93.1754 204.029 92.2219 203.81C91.2683 203.589 89.4727 211.457 89.4727 211.457C88.2308 219.595 85.4101 228.332 85.2249 232.038Z" fill="#82B378"/>
<path d="M88.5591 287.125C85.3785 291.609 81.7158 297.451 79.5266 300.296C77.5374 302.883 75.7502 299.643 76.7543 297.333C78.3373 293.687 79.6803 287.314 81.2127 282.624C82.242 284.191 84.347 286.215 88.5591 287.122V287.125Z" fill="#F7D3C9"/>
<path d="M83.7874 309.711C83.7874 309.711 79.108 309.125 77.9418 307.611C77.805 307.432 77.5082 305.795 77.5061 305.777C77.483 305.644 77.3251 305.037 76.4073 304.58C75.8032 304.279 75.2748 304.212 74.698 303.887C74.2728 303.649 73.4624 303.102 73.0814 302.801C71.7531 301.754 72.1447 301.354 72.1447 301.354C72.1447 301.354 72.5046 301.109 72.9825 300.745C73.1109 300.646 73.2519 300.539 73.3929 300.423C74.1129 299.844 74.9275 299.102 75.1885 298.527C75.4095 298.039 75.7421 297.744 76.0452 297.571C76.4241 297.35 76.7567 297.316 76.7567 297.316C76.7567 297.316 76.9799 299.435 78.026 299.321C80.0468 299.098 80.4026 299.207 80.4657 299.247L80.4805 299.262C80.4805 299.262 81.6424 302.579 81.935 303.746C82.4508 305.823 83.3601 306.707 83.9074 307.442C84.0463 307.63 84.139 307.826 84.1937 308.022C84.4231 308.816 84.0632 309.605 83.7916 309.711H83.7874Z" fill="#233862"/>
<path d="M83.7874 309.711C83.7874 309.711 79.108 309.125 77.9418 307.611C77.805 307.432 77.5082 305.795 77.5061 305.776C77.483 305.644 77.3251 305.037 76.4073 304.58C75.8032 304.279 75.2748 304.212 74.698 303.887C74.2728 303.649 73.4624 303.102 73.0814 302.8C71.7531 301.754 72.1447 301.354 72.1447 301.354C72.1447 301.354 72.5046 301.109 72.9825 300.745C73.1109 300.646 73.2519 300.538 73.3929 300.423C73.4624 301.038 73.7361 302.156 74.7928 302.746C76.2999 303.588 77.864 304.89 78.245 305.816C78.6281 306.743 78.8449 307.556 79.7732 308.017C80.7015 308.479 83.2275 308.921 83.4169 308.858C83.5685 308.807 83.798 308.196 84.1916 308.022C84.421 308.816 84.0611 309.605 83.7895 309.711H83.7874Z" fill="#466AA5"/>
<path d="M0.570455 309.38H577.088C577.403 309.38 577.658 309.637 577.658 309.951V310.359C577.658 310.675 577.401 310.93 577.088 310.93H0.570455C0.254705 310.93 0 310.673 0 310.359V309.951C0 309.635 0.25681 309.38 0.570455 309.38Z" fill="#CFD3E2"/>
<g opacity="0.2">
<path d="M319.004 140.597H182.529L188.07 120.131H319.004V140.597Z" fill="#1C2948"/>
<path d="M217.643 115.527C219.69 115.45 221.816 115.409 224.024 115.409C224.024 115.409 236.248 104.8 250.388 101.19C235.849 104.78 217.642 115.525 217.642 115.525L217.643 115.527Z" fill="#163560"/>
<path d="M328.357 123.49V111.778C328.357 111.778 314.617 110.208 306.306 107.197C287.069 100.131 276.731 100 259.26 100C245.996 100 232.562 108.882 226.862 113.159C224.94 114.601 222.611 115.397 220.209 115.45C199.227 115.91 186.256 120.099 179.815 122.926C176.796 124.252 174.853 127.243 174.853 130.54V134.483C174.419 134.483 174.068 134.834 174.068 135.268V141.812C174.068 142.246 174.419 142.597 174.853 142.597H187.374C186.133 140.375 185.449 137.799 185.518 135.058C185.715 127.248 192.092 120.889 199.902 120.716C208.186 120.533 214.958 127.193 214.958 135.435C214.958 138.037 214.281 140.478 213.098 142.598H290.136C288.895 140.376 288.211 137.8 288.28 135.059C288.475 127.249 294.854 120.891 302.664 120.718C310.948 120.534 317.72 127.194 317.72 135.437C317.72 138.038 317.043 140.479 315.86 142.6H318.936C329.583 142.6 331.09 131.712 331.19 126.375C331.22 124.791 329.942 123.494 328.358 123.494L328.357 123.49Z" fill="#56C3C6"/>
<path d="M252.515 102.114C240.361 105.19 227.329 115.703 227.329 115.703L261.826 114.964C263.178 114.935 264.398 114.139 264.966 112.911L270.252 101.504H257.46C255.793 101.504 254.131 101.705 252.514 102.114H252.515Z" fill="#163560"/>
<path d="M272.281 101.766L267.437 112.861C267.064 113.713 267.689 114.668 268.62 114.669C273.507 114.672 286.338 114.491 293.725 112.64C295.5 112.195 296.095 109.962 294.775 108.697C291.774 105.818 285.247 101.766 272.281 101.766V101.766Z" fill="#163560"/>
<path d="M175.75 126.778H180.79C180.79 126.778 189.031 119.084 202.259 116.903C202.259 116.903 177.825 119.596 175.75 126.778V126.778Z" fill="#595B61"/>
<path d="M328.362 123.489H327.027C326.278 123.489 325.597 123.059 325.277 122.382C324.505 120.748 322.81 117.649 320.211 115.447C319.207 114.597 319.815 112.955 321.131 112.955H327.921C328.164 112.955 328.362 113.152 328.362 113.396V123.489Z" fill="#595B61"/>
<path d="M262.188 118.222H255.484C255.113 118.222 254.813 117.922 254.813 117.552C254.813 117.181 255.113 116.881 255.484 116.881H262.188C262.559 116.881 262.859 117.181 262.859 117.552C262.859 117.922 262.559 118.222 262.188 118.222Z" fill="#3CB0B4"/>
<path d="M291.829 118.222H285.125C284.754 118.222 284.455 117.922 284.455 117.552C284.455 117.181 284.754 116.881 285.125 116.881H291.829C292.2 116.881 292.5 117.181 292.5 117.552C292.5 117.922 292.2 118.222 291.829 118.222Z" fill="#3CB0B4"/>
<path d="M286.153 122.573H225.703C223.203 122.573 221.665 125.309 222.965 127.444L226.858 133.843C227.704 135.236 229.555 135.618 230.882 134.672C236.05 130.987 250.939 123.343 286.153 122.573Z" fill="#3CB0B4"/>
<path d="M315.766 137.496C316.899 130.515 312.158 123.937 305.177 122.804C298.197 121.671 291.619 126.411 290.486 133.392C289.352 140.373 294.093 146.951 301.074 148.084C308.055 149.217 314.633 144.477 315.766 137.496Z" fill="#2D3A62"/>
<path d="M303.116 127.503C298.734 127.503 295.183 131.055 295.183 135.437C295.183 139.819 298.734 143.37 303.116 143.37C307.498 143.37 311.05 139.819 311.05 135.437C311.05 131.055 307.498 127.503 303.116 127.503ZM304.203 128.372C305.93 128.636 307.453 129.52 308.541 130.788L305.792 132.486C305.344 132.079 304.801 131.775 304.203 131.605V128.372V128.372ZM302.03 128.372V131.605C301.431 131.775 300.889 132.079 300.441 132.486L297.691 130.788C298.779 129.52 300.302 128.637 302.03 128.372ZM296.527 138.207C296.168 137.355 295.97 136.419 295.97 135.437C295.97 134.455 296.174 133.494 296.541 132.632L299.289 134.329C299.188 134.681 299.132 135.052 299.132 135.436C299.132 135.819 299.184 136.166 299.279 136.507L296.526 138.207H296.527ZM302.03 142.501C300.289 142.235 298.757 141.341 297.668 140.058L300.414 138.363C300.868 138.782 301.418 139.096 302.03 139.269V142.502V142.501ZM301.315 135.437C301.315 134.442 302.121 133.635 303.116 133.635C304.111 133.635 304.918 134.442 304.918 135.437C304.918 136.432 304.111 137.238 303.116 137.238C302.121 137.238 301.315 136.432 301.315 135.437V135.437ZM304.203 142.501V139.268C304.814 139.095 305.365 138.781 305.819 138.361L308.565 140.057C307.476 141.34 305.943 142.234 304.203 142.5V142.501ZM306.952 136.508C307.048 136.167 307.099 135.808 307.099 135.437C307.099 135.065 307.044 134.682 306.943 134.33L309.691 132.633C310.059 133.494 310.263 134.442 310.263 135.438C310.263 136.434 310.064 137.357 309.705 138.209L306.952 136.508V136.508Z" fill="#98BDF4"/>
<path d="M212.808 137.98C214.167 131.039 209.642 124.311 202.702 122.952C195.761 121.593 189.033 126.117 187.674 133.058C186.315 139.998 190.839 146.726 197.78 148.085C204.72 149.445 211.449 144.92 212.808 137.98Z" fill="#2D3A62"/>
<path d="M200.247 127.593C195.865 127.593 192.313 131.144 192.313 135.526C192.313 139.908 195.865 143.459 200.247 143.459C204.628 143.459 208.18 139.908 208.18 135.526C208.18 131.144 204.628 127.593 200.247 127.593V127.593ZM201.333 128.462C203.061 128.725 204.584 129.608 205.671 130.877L202.922 132.575C202.474 132.168 201.932 131.864 201.333 131.694V128.462ZM199.16 128.462V131.694C198.561 131.864 198.019 132.168 197.571 132.575L194.822 130.877C195.909 129.609 197.432 128.726 199.16 128.462ZM193.657 138.297C193.299 137.444 193.1 136.508 193.1 135.526C193.1 134.544 193.305 133.582 193.672 132.721L196.42 134.418C196.319 134.77 196.262 135.141 196.262 135.525C196.262 135.908 196.314 136.255 196.409 136.595L193.656 138.295L193.657 138.297ZM199.16 142.59C197.419 142.324 195.887 141.431 194.798 140.148L197.544 138.452C197.998 138.872 198.548 139.186 199.16 139.358V142.591V142.59ZM198.445 135.526C198.445 134.531 199.252 133.724 200.247 133.724C201.241 133.724 202.048 134.531 202.048 135.526C202.048 136.521 201.241 137.327 200.247 137.327C199.252 137.327 198.445 136.521 198.445 135.526ZM201.333 142.59V139.357C201.945 139.184 202.495 138.87 202.949 138.451L205.695 140.146C204.606 141.429 203.074 142.323 201.333 142.589V142.59ZM204.083 136.597C204.178 136.256 204.23 135.897 204.23 135.527C204.23 135.157 204.174 134.772 204.072 134.42L206.82 132.723C207.189 133.584 207.392 134.532 207.392 135.528C207.392 136.524 207.193 137.446 206.835 138.299L204.082 136.598L204.083 136.597Z" fill="#98BDF4"/>
</g>
</svg>
