<svg width="25" height="25" viewBox="0 0 25 25" fill="none" xmlns="http://www.w3.org/2000/svg">
<path d="M11.4238 24.9995C11.1806 24.8762 10.9099 24.9007 10.6521 24.8645C5.57844 24.143 1.29993 20.1925 0.296656 15.1598C-0.679719 10.2609 0.75795 6.11282 4.55178 2.87031C7.07633 0.711765 10.0768 -0.207314 13.3947 0.0394105C18.9215 0.450424 23.4093 4.31441 24.6862 9.71663C24.8154 10.2627 24.8966 10.8175 24.9504 11.3765C24.9551 11.4262 24.9212 11.4946 24.9995 11.5215V11.6682C24.9598 11.708 24.9797 11.7588 24.9744 11.805C24.9767 11.8424 24.9668 11.8822 24.9995 11.9126V12.1079C24.9598 12.2055 24.9598 12.3032 24.9995 12.4008V12.5961C24.9598 12.6937 24.9598 12.7913 24.9995 12.889V13.0843C24.9668 13.1147 24.9767 13.1544 24.9744 13.1918C24.9797 13.238 24.9598 13.2889 24.9995 13.3286V13.573C24.9399 14.0711 24.9101 14.5722 24.8031 15.0645C24.3482 17.157 23.4426 19.0238 22.0459 20.652C20.2901 22.6989 18.1006 24.0419 15.4919 24.7066C14.8604 24.8674 14.2197 24.9767 13.5648 24.9744C13.5321 24.9744 13.4999 24.9744 13.4742 24.9995H13.3275C13.2877 24.9598 13.2368 24.9797 13.1907 24.9744C13.1532 24.9767 13.1135 24.9668 13.0831 24.9995H12.8387C12.7574 24.9598 12.6762 24.9598 12.5943 24.9995H12.399C12.3014 24.9598 12.2038 24.9598 12.1061 24.9995H11.9108C11.8816 24.9674 11.8424 24.9762 11.8062 24.9744C11.7781 24.9744 11.7501 24.9744 11.722 24.9744C11.6858 24.9762 11.6466 24.9674 11.6179 24.9995H11.4227H11.4238Z" fill="white"/>
<path d="M25.0002 12.4002C24.9272 12.3026 24.9242 12.2049 25.0002 12.1073V12.4002Z" fill="black"/>
<path d="M25 12.889C24.9246 12.7913 24.9269 12.6937 25 12.5961V12.889Z" fill="black"/>
<path d="M12.1064 24.9995C12.2041 24.9247 12.3017 24.9259 12.3994 24.9995H12.1064Z" fill="black"/>
<path d="M12.5947 24.9995C12.676 24.9276 12.7573 24.9265 12.8391 24.9995H12.5947Z" fill="black"/>
<path d="M24.9594 11.8109C24.9612 11.76 24.9173 11.6969 24.9992 11.6682V11.815C24.984 11.8383 24.9705 11.836 24.9594 11.8115V11.8109Z" fill="black"/>
<path d="M24.9991 13.3281C24.9179 13.2994 24.9606 13.2363 24.9594 13.1854C24.9705 13.1603 24.9834 13.1585 24.9991 13.1813V13.3281Z" fill="black"/>
<path d="M13.1861 24.9598C13.237 24.9609 13.3001 24.9183 13.3288 24.9989H13.182C13.1651 24.9884 13.1604 24.9791 13.1668 24.9709C13.1727 24.9633 13.1791 24.9592 13.1855 24.9592L13.1861 24.9598Z" fill="black"/>
<path d="M24.96 11.8109C24.9735 11.8109 24.9863 11.8115 24.9998 11.8144V11.912C24.9501 11.8927 24.9507 11.8536 24.96 11.8109Z" fill="black"/>
<path d="M24.9999 13.1819C24.9871 13.1848 24.9736 13.186 24.9602 13.186C24.9502 13.1433 24.9508 13.1041 24.9999 13.0843V13.1819V13.1819Z" fill="black"/>
<path d="M11.6187 24.9996C11.6304 24.9387 11.6743 24.9528 11.714 24.9586C11.7316 24.9668 11.7374 24.9756 11.7322 24.9849C11.7269 24.9949 11.7216 24.9996 11.7158 24.9996H11.6182H11.6187Z" fill="black"/>
<path d="M11.7162 24.9995C11.7162 24.9861 11.715 24.9721 11.7139 24.9586C11.746 24.9586 11.7788 24.9586 11.8109 24.9586C11.8285 24.9668 11.8349 24.975 11.8296 24.9843C11.8244 24.9943 11.8191 24.999 11.8133 24.999H11.7156L11.7162 24.9995Z" fill="black"/>
<path d="M11.8135 24.9996C11.8135 24.9861 11.8123 24.9727 11.8105 24.9586C11.8526 24.9504 11.8912 24.9516 11.9111 24.9996H11.8135Z" fill="black"/>
<path d="M13.1851 24.9598C13.184 24.9732 13.1828 24.9861 13.1816 24.999H13.084C13.1039 24.9499 13.1425 24.9499 13.1851 24.9598Z" fill="black"/>
<path d="M12.5045 1.25024C18.7205 1.25667 23.7474 6.28529 23.7462 12.4961C23.7451 18.7104 18.6773 23.7694 12.4776 23.746C6.25448 23.7227 1.23872 18.6911 1.251 12.4844C1.26328 6.26658 6.29483 1.2438 12.5045 1.25024V1.25024Z" fill="#56C3C5"/>
<path d="M10.6656 17.4931C10.3511 17.4861 10.1622 17.3604 10.0564 17.126C9.95057 16.8904 9.98448 16.6647 10.1546 16.4677C10.2125 16.4004 10.2821 16.342 10.3493 16.2835C11.7268 15.0773 13.1013 13.8683 14.4863 12.6715C14.6658 12.5166 14.6325 12.4546 14.4776 12.3201C13.0826 11.1093 11.6952 9.89028 10.3043 8.67478C10.161 8.54967 10.0336 8.41636 10.0073 8.21641C9.97279 7.95507 10.0956 7.70367 10.3195 7.57797C10.5498 7.44876 10.834 7.4815 11.0649 7.68087C11.5519 8.10006 12.0343 8.52511 12.5178 8.9484C13.6567 9.94524 14.795 10.9427 15.9334 11.9395C16.359 12.3125 16.3561 12.6879 15.9258 13.0644C14.3279 14.4629 12.7294 15.8608 11.1322 17.2599C10.9819 17.3914 10.827 17.5043 10.6662 17.4931H10.6656Z" fill="white"/>
</svg>
