<svg width="25" height="25" viewBox="0 0 25 25" fill="none" xmlns="http://www.w3.org/2000/svg">
<g clip-path="url(#clip0_531_21)">
<rect width="25" height="25" fill="white"/>
<path d="M11.4238 24.9997C11.1806 24.8764 10.9099 24.9009 10.6521 24.8647C5.57844 24.1432 1.29993 20.1927 0.296656 15.16C-0.679719 10.2611 0.75795 6.11297 4.55178 2.87046C7.07633 0.711918 10.0768 -0.207161 13.3947 0.039563C18.9215 0.450577 23.4093 4.31456 24.6862 9.71678C24.8154 10.2629 24.8966 10.8177 24.9504 11.3767C24.9551 11.4264 24.9212 11.4948 24.9995 11.5217V11.6684C24.9598 11.7082 24.9797 11.759 24.9744 11.8052C24.9767 11.8426 24.9668 11.8824 24.9995 11.9128V12.1081C24.9598 12.2057 24.9598 12.3034 24.9995 12.401V12.5963C24.9598 12.6939 24.9598 12.7915 24.9995 12.8892V13.0845C24.9668 13.1149 24.9767 13.1546 24.9744 13.192C24.9797 13.2382 24.9598 13.2891 24.9995 13.3288V13.5732C24.9399 14.0713 24.9101 14.5724 24.8031 15.0647C24.3482 17.1572 23.4426 19.024 22.0459 20.6522C20.2901 22.6991 18.1006 24.0421 15.4919 24.7068C14.8604 24.8676 14.2197 24.9769 13.5648 24.9746C13.5321 24.9746 13.4999 24.9746 13.4742 24.9997H13.3275C13.2877 24.96 13.2368 24.9799 13.1907 24.9746C13.1532 24.9769 13.1135 24.967 13.0831 24.9997H12.8387C12.7574 24.96 12.6762 24.96 12.5943 24.9997H12.399C12.3014 24.96 12.2038 24.96 12.1061 24.9997H11.9108C11.8816 24.9676 11.8424 24.9764 11.8062 24.9746C11.7781 24.9746 11.7501 24.9746 11.722 24.9746C11.6858 24.9764 11.6466 24.9676 11.6179 24.9997H11.4227H11.4238Z" fill="#E7E7E7"/>
<path d="M25.0002 12.4003C24.9272 12.3027 24.9242 12.205 25.0002 12.1074V12.4003Z" fill="black"/>
<path d="M25 12.8891C24.9246 12.7914 24.9269 12.6938 25 12.5962V12.8891Z" fill="black"/>
<path d="M12.1064 24.9996C12.2041 24.9247 12.3017 24.9259 12.3994 24.9996H12.1064Z" fill="black"/>
<path d="M12.5947 24.9997C12.676 24.9278 12.7573 24.9267 12.8391 24.9997H12.5947Z" fill="black"/>
<path d="M24.9594 11.8107C24.9612 11.7598 24.9173 11.6967 24.9992 11.668V11.8148C24.984 11.8381 24.9705 11.8358 24.9594 11.8113V11.8107Z" fill="black"/>
<path d="M24.9991 13.3283C24.9179 13.2996 24.9606 13.2365 24.9594 13.1856C24.9705 13.1605 24.9834 13.1587 24.9991 13.1815V13.3283Z" fill="black"/>
<path d="M13.1861 24.9599C13.237 24.9611 13.3001 24.9184 13.3288 24.9991H13.182C13.1651 24.9885 13.1604 24.9792 13.1668 24.971C13.1727 24.9634 13.1791 24.9593 13.1855 24.9593L13.1861 24.9599Z" fill="black"/>
<path d="M24.96 11.811C24.9735 11.811 24.9863 11.8116 24.9998 11.8145V11.9121C24.9501 11.8928 24.9507 11.8537 24.96 11.811Z" fill="black"/>
<path d="M24.9999 13.1821C24.9871 13.185 24.9736 13.1862 24.9602 13.1862C24.9502 13.1435 24.9508 13.1043 24.9999 13.0845V13.1821Z" fill="black"/>
<path d="M11.6187 24.9998C11.6304 24.9389 11.6743 24.953 11.714 24.9588C11.7316 24.967 11.7374 24.9758 11.7322 24.9851C11.7269 24.9951 11.7216 24.9998 11.7158 24.9998H11.6182H11.6187Z" fill="black"/>
<path d="M11.7162 24.9995C11.7162 24.986 11.715 24.972 11.7139 24.9585C11.746 24.9585 11.7788 24.9585 11.8109 24.9585C11.8285 24.9667 11.8349 24.9749 11.8296 24.9843C11.8244 24.9942 11.8191 24.9989 11.8133 24.9989H11.7156L11.7162 24.9995Z" fill="black"/>
<path d="M11.8135 24.9994C11.8135 24.9859 11.8123 24.9725 11.8105 24.9584C11.8526 24.9502 11.8912 24.9514 11.9111 24.9994H11.8135Z" fill="black"/>
<path d="M13.1851 24.9598C13.184 24.9732 13.1828 24.9861 13.1816 24.999H13.084C13.1039 24.9498 13.1425 24.9498 13.1851 24.9598Z" fill="black"/>
<path d="M12.5045 1.25001C18.7205 1.25644 23.7474 6.28507 23.7462 12.4959C23.7451 18.7102 18.6773 23.7692 12.4776 23.7458C6.25448 23.7225 1.23872 18.6909 1.251 12.4842C1.26328 6.26636 6.29483 1.24358 12.5045 1.25001Z" fill="#FEFEFE"/>
<path d="M10.6656 17.4931C10.3511 17.4861 10.1622 17.3604 10.0564 17.126C9.95057 16.8904 9.98448 16.6647 10.1546 16.4677C10.2125 16.4004 10.2821 16.342 10.3493 16.2835C11.7268 15.0773 13.1013 13.8683 14.4863 12.6715C14.6658 12.5166 14.6325 12.4546 14.4776 12.3201C13.0826 11.1093 11.6952 9.89031 10.3043 8.67481C10.161 8.5497 10.0336 8.41639 10.0073 8.21644C9.97279 7.9551 10.0956 7.7037 10.3195 7.578C10.5498 7.44879 10.834 7.48153 11.0649 7.6809C11.5519 8.10009 12.0343 8.52514 12.5178 8.94843C13.6567 9.94527 14.795 10.9427 15.9334 11.9395C16.359 12.3125 16.3561 12.6879 15.9258 13.0644C14.3279 14.4629 12.7294 15.8608 11.1322 17.2599C10.9819 17.3914 10.827 17.5043 10.6662 17.4931H10.6656Z" fill="#E7E7E7"/>
</g>
<defs>
<clipPath id="clip0_531_21">
<rect width="25" height="25" fill="white"/>
</clipPath>
</defs>
</svg>
