<svg width="32" height="30" viewBox="0 0 32 30" fill="none" xmlns="http://www.w3.org/2000/svg">
<rect opacity="0.3" width="32" height="30" rx="10" fill="#090909"/>
<path d="M13.1903 8.43946V8.87891H13.8495H14.5087V9.31837V9.75782H14.0692H13.6298V10.8945V12.0283L13.4921 12.1016C12.953 12.3828 12.3085 12.9307 11.9452 13.417C11.497 14.0117 11.1981 14.7236 11.0634 15.5147C10.8554 16.751 11.1718 19.6045 11.831 22.4287C11.9013 22.7334 11.9599 22.9854 11.9599 22.9912C11.9599 22.9971 13.7001 23 15.8241 23H19.6884L19.7821 22.6104C20.1571 21.0313 20.4501 19.3027 20.5907 17.8291C20.6522 17.167 20.664 15.9365 20.6083 15.6025C20.4794 14.8145 20.1981 14.1025 19.7792 13.5078C19.4335 13.0156 18.8036 12.4561 18.2645 12.1602L18.0243 12.0283V10.8916V9.75782H17.5849H17.1454V9.31837V8.87891H18.6249H20.1044L20.9247 9.28907C21.3759 9.51466 21.7538 9.69923 21.7684 9.69923C21.7919 9.69923 22.1552 8.98438 22.1552 8.93751C22.1552 8.92286 21.7479 8.70313 21.247 8.45411L20.3388 8.00001H16.7645H13.1903V8.43946ZM16.2665 9.31837V9.75782H15.827H15.3876V9.31837V8.87891H15.827H16.2665V9.31837ZM17.1454 11.1729V11.7119L16.9052 11.6592C16.5829 11.5918 16.1552 11.5449 15.827 11.5449C15.4989 11.5449 15.0712 11.5918 14.7518 11.6592L14.5087 11.7119V11.1729V10.6367H15.827H17.1454V11.1729ZM16.6444 12.4971C18.2235 12.8047 19.3485 13.9092 19.6972 15.5C19.7587 15.7754 19.7645 15.8809 19.7645 16.54C19.7616 17.5332 19.662 18.5264 19.413 19.9971C19.3134 20.5918 19.079 21.7871 19.0175 22.0098L18.9882 22.1211H15.827H12.6659L12.6366 22.0098C12.5751 21.7871 12.3407 20.5918 12.2411 19.9971C11.995 18.5439 11.8925 17.5361 11.8895 16.5547C11.8866 15.9717 11.8954 15.7871 11.9394 15.5762C12.1737 14.4277 12.7714 13.5547 13.7177 12.9834C14.1513 12.7227 14.7431 12.5205 15.2763 12.4531C15.578 12.415 16.3515 12.4414 16.6444 12.4971Z" fill="white"/>
<path d="M15.373 14.2109C14.7461 14.3076 14.1133 14.6328 13.6562 15.0869C13.2607 15.4853 12.9824 15.9746 12.8359 16.543C12.7422 16.9004 12.7392 17.624 12.833 17.9609C12.9941 18.5556 13.2607 19.0332 13.6562 19.4287C14.0517 19.8242 14.5293 20.0908 15.124 20.2519C15.4609 20.3457 16.1846 20.3428 16.542 20.249C17.6933 19.9502 18.5019 19.1387 18.8242 17.9609C18.9092 17.6416 18.9092 16.874 18.8242 16.5547C18.6572 15.9512 18.3906 15.4795 17.9863 15.0781C17.5879 14.6797 17.1162 14.4131 16.5596 14.2724C16.2754 14.1992 15.6601 14.167 15.373 14.2109ZM16.2578 15.1074C16.6973 15.1982 17.0635 15.3974 17.3769 15.7139C17.664 16.0068 17.8515 16.3262 17.957 16.7129C18.0244 16.959 18.0244 17.5566 17.957 17.8027C17.7314 18.623 17.0781 19.2383 16.2607 19.4082C14.7402 19.7217 13.3633 18.3476 13.6767 16.8242C13.9199 15.6406 15.0859 14.8642 16.2578 15.1074Z" fill="white"/>
<path d="M15.3875 16.3789V16.8184H14.9481H14.5086V17.2578V17.6973H14.9481H15.3875V18.1367V18.5762H15.827H16.2664V18.1367V17.6973H16.7059H17.1453V17.2578V16.8184H16.7059H16.2664V16.3789V15.9395H15.827H15.3875V16.3789Z" fill="white"/>
<path d="M21.6073 10.8769C20.9979 11.791 20.661 12.4941 20.661 12.8457C20.661 13.2002 20.8016 13.5342 21.0565 13.7861C21.5604 14.2929 22.3455 14.3076 22.8758 13.8242C23.1248 13.5957 23.2977 13.1972 23.2977 12.8515C23.2977 12.5908 23.0692 12.0283 22.7411 11.4863C22.5565 11.1816 21.9998 10.3437 21.9793 10.3437C21.9706 10.3437 21.8036 10.584 21.6073 10.8769ZM22.2079 12.3388C22.3104 12.5381 22.4012 12.7578 22.41 12.8222C22.4422 13.0625 22.2254 13.3027 21.9764 13.3027C21.7684 13.3027 21.5399 13.0801 21.5399 12.8779C21.5399 12.7197 21.9207 11.9404 21.9881 11.9638C22.0086 11.9697 22.1053 12.1396 22.2079 12.3388Z" fill="white"/>
</svg>
