<svg width="42" height="42" viewBox="0 0 42 42" fill="none" xmlns="http://www.w3.org/2000/svg">
<rect width="42" height="42" rx="6" fill="#1CB5AD"/>
<path d="M30.8508 12.0972C30.7264 11.9935 30.5605 11.9728 30.4153 12.035L11.4786 20.3315C11.1675 20.4559 10.9808 20.767 11.0016 21.1196C11.0223 21.4722 11.2297 21.7626 11.5616 21.887L17.0995 23.7123V28.6901C17.0995 29.1464 17.3898 29.5405 17.8254 29.665C18.261 29.8102 18.738 29.6442 19.0076 29.2709L21.3307 25.9108L26.2463 30.142C26.3915 30.2665 26.5782 30.3287 26.7856 30.3287C26.8893 30.3287 26.9722 30.3079 27.0552 30.2872C27.3456 30.1835 27.553 29.9553 27.5945 29.665L30.996 12.512C31.0168 12.3669 30.9545 12.2009 30.8508 12.0972ZM20.9158 25.0397L18.3232 28.7938C18.2402 28.9183 18.1365 28.8975 18.0743 28.8768C18.0328 28.8768 17.9291 28.8146 17.9291 28.6901V23.4219C17.9291 23.2352 17.8254 23.09 17.6387 23.0278L11.8105 21.0781L28.6523 13.715L20.3558 20.5389C20.1691 20.6841 20.1484 20.9537 20.2936 21.1196C20.3766 21.2233 20.501 21.2648 20.6047 21.2648C20.6877 21.2648 20.7914 21.2441 20.8743 21.1611L28.0715 15.2499L20.9158 25.0397ZM26.7856 29.499L21.8077 25.2264L29.7723 14.358L26.7856 29.499Z" fill="white"/>
</svg>
