<svg width="31" height="18" viewBox="0 0 31 18" fill="none" xmlns="http://www.w3.org/2000/svg">
<mask id="mask0_201_42" style="mask-type:alpha" maskUnits="userSpaceOnUse" x="0" y="0" width="31" height="18">
<rect width="31" height="18" rx="2" fill="#D9D9D9"/>
</mask>
<g mask="url(#mask0_201_42)">
<path d="M0 0H31V18H0V0Z" fill="#FF0000"/>
<path d="M0 0H31V12H0V0Z" fill="#0000FF"/>
<path d="M0 0H31V6H0V0Z" fill="white"/>
<path d="M6.05991 4.07511C6.67124 3.80574 7.33196 3.66663 8.00001 3.66663C8.66805 3.66663 9.32877 3.80574 9.9401 4.07511C10.1427 6.94084 9.49605 8.56506 8.00001 8.94777C6.50396 8.56506 5.85726 6.94084 6.05991 4.07511Z" fill="#0000FF"/>
<path d="M8.00001 4.59009L8.05872 4.72324L8.20339 4.70751L8.11743 4.82493L8.20339 4.94235L8.05872 4.92662L8.00001 5.05978L7.9413 4.92662L7.79663 4.94235L7.88259 4.82493L7.79663 4.70751L7.9413 4.72324" fill="#FFFF00"/>
<path d="M7.45204 3.8595L7.51075 3.99265L7.65542 3.97692L7.56946 4.09434L7.65542 4.21176L7.51075 4.19603L7.45204 4.32919L7.39333 4.19603L7.24866 4.21176L7.33462 4.09434L7.24866 3.97692L7.39333 3.99265" fill="#FFFF00"/>
<path d="M8.54795 3.8595L8.60667 3.99265L8.75134 3.97692L8.66538 4.09434L8.75134 4.21176L8.60667 4.19603L8.54795 4.32919L8.48924 4.19603L8.34457 4.21176L8.43053 4.09434L8.34457 3.97692L8.48924 3.99265" fill="#FFFF00"/>
<path d="M8.00001 5.34692L8.4697 6.2863L8.78283 5.8688L9.56564 6.91255C9.56564 6.96104 9.55888 7.0093 9.54556 7.05592C9.43824 7.43156 9.24162 7.77566 8.97249 8.05884C8.70336 8.34203 8.36971 8.55589 8.00001 8.68219C7.63032 8.55589 7.29667 8.34203 7.02754 8.05884C6.75841 7.77566 6.56179 7.43156 6.45447 7.05592C6.44115 7.0093 6.43439 6.96104 6.43439 6.91255L7.2172 5.8688L7.53033 6.2863L8.00001 5.34692Z" fill="white"/>
<path d="M6.45447 7.05579C6.47626 7.13206 6.51515 7.20236 6.56818 7.26134C6.62122 7.32033 6.687 7.36645 6.76053 7.3962C6.83407 7.42595 6.91341 7.43854 6.99254 7.43303C7.07167 7.42751 7.14851 7.40403 7.2172 7.36437C7.29654 7.31857 7.38653 7.29446 7.47814 7.29446C7.56975 7.29446 7.65974 7.31857 7.73908 7.36437C7.81841 7.41018 7.90841 7.43429 8.00001 7.43429C8.09162 7.43429 8.18162 7.41018 8.26095 7.36437C8.34029 7.31857 8.43028 7.29446 8.52189 7.29446C8.6135 7.29446 8.70349 7.31857 8.78283 7.36437C8.85152 7.40403 8.92836 7.42751 9.00749 7.43303C9.08662 7.43854 9.16596 7.42595 9.23949 7.3962C9.31303 7.36645 9.37881 7.32033 9.43184 7.26134C9.48488 7.20236 9.52377 7.13206 9.54556 7.05579L9.56564 7.06307V7.44511C9.47403 7.44511 9.38404 7.46922 9.3047 7.51503C9.22537 7.56083 9.13537 7.58494 9.04377 7.58494C8.95216 7.58494 8.86216 7.56083 8.78283 7.51503C8.70349 7.46922 8.6135 7.44511 8.52189 7.44511C8.43028 7.44511 8.34029 7.46922 8.26095 7.51503C8.18162 7.56083 8.09162 7.58494 8.00001 7.58494C7.90841 7.58494 7.81841 7.56083 7.73908 7.51503C7.65974 7.46922 7.56975 7.44511 7.47814 7.44511C7.38653 7.44511 7.29654 7.46922 7.2172 7.51503C7.13787 7.56083 7.04787 7.58494 6.95626 7.58494C6.86465 7.58494 6.77466 7.56083 6.69533 7.51503C6.61599 7.46922 6.526 7.44511 6.43439 7.44511V7.06307" fill="#0000FF"/>
<path d="M6.45447 7.35718C6.47626 7.43345 6.51515 7.50375 6.56818 7.56273C6.62122 7.62172 6.687 7.66784 6.76053 7.69759C6.83407 7.72734 6.91341 7.73993 6.99254 7.73442C7.07167 7.72891 7.14851 7.70543 7.2172 7.66577C7.29654 7.61996 7.38653 7.59585 7.47814 7.59585C7.56975 7.59585 7.65974 7.61996 7.73908 7.66577C7.81841 7.71157 7.90841 7.73568 8.00001 7.73568C8.09162 7.73568 8.18162 7.71157 8.26095 7.66577C8.34029 7.61996 8.43028 7.59585 8.52189 7.59585C8.6135 7.59585 8.70349 7.61996 8.78283 7.66577C8.85152 7.70543 8.92836 7.72891 9.00749 7.73442C9.08662 7.73993 9.16596 7.72734 9.23949 7.69759C9.31303 7.66784 9.37881 7.62172 9.43184 7.56273C9.48488 7.50375 9.52377 7.43345 9.54556 7.35718L9.56564 7.36446V7.7465C9.47403 7.7465 9.38404 7.77061 9.3047 7.81642C9.22537 7.86222 9.13537 7.88634 9.04377 7.88634C8.95216 7.88634 8.86216 7.86222 8.78283 7.81642C8.70349 7.77061 8.6135 7.7465 8.52189 7.7465C8.43028 7.7465 8.34029 7.77061 8.26095 7.81642C8.18162 7.86222 8.09162 7.88634 8.00001 7.88634C7.90841 7.88634 7.81841 7.86222 7.73908 7.81642C7.65974 7.77061 7.56975 7.7465 7.47814 7.7465C7.38653 7.7465 7.29654 7.77061 7.2172 7.81642C7.13787 7.86222 7.04787 7.88634 6.95626 7.88634C6.86465 7.88634 6.77466 7.86222 6.69533 7.81642C6.61599 7.77061 6.526 7.7465 6.43439 7.7465V7.36446" fill="#0000FF"/>
<path d="M5.91251 4.14302C5.96126 4.11954 6.0104 4.09689 6.05992 4.07507L6.21495 6.55131C6.24732 7.06839 6.43504 7.56364 6.75354 7.97226C7.07204 8.38089 7.50648 8.68384 8.00001 8.84147C8.49353 8.68384 8.92798 8.38089 9.24648 7.97226C9.56498 7.56364 9.7527 7.06839 9.78507 6.55131L9.9401 4.07507C9.98962 4.09689 10.0388 4.11954 10.0875 4.14302L9.93614 6.56077C9.90135 7.11647 9.69713 7.64817 9.35096 8.08427C9.0048 8.52037 8.53332 8.83993 8.00001 8.99992C7.4667 8.83993 6.99522 8.52037 6.64906 8.08427C6.30289 7.64817 6.09867 7.11647 6.06387 6.56077L5.91251 4.14302Z" fill="#FF0000"/>
</g>
</svg>
