<svg width="14" height="15" viewBox="0 0 14 15" fill="none" xmlns="http://www.w3.org/2000/svg">
<path d="M13.2075 0.0222864C13.5584 0.0725862 13.8039 0.266113 13.9322 0.590504C14.0614 0.917026 14.003 1.22522 13.783 1.49974C13.7404 1.55302 13.6905 1.60034 13.6423 1.6485C11.8899 3.40132 10.1384 5.155 8.38301 6.90441C8.2952 6.99179 8.29904 7.03271 8.38429 7.11797C10.1525 8.88102 11.9172 10.6471 13.682 12.4127C13.9889 12.72 14.0754 13.0879 13.9279 13.4455C13.6794 14.0491 12.9126 14.1974 12.4351 13.7294C12.0025 13.3053 11.5775 12.8735 11.1491 12.4451C9.79951 11.0951 8.44866 9.74592 7.1025 8.39294C7.0164 8.30641 6.97718 8.3111 6.89406 8.39464C5.13143 10.1628 3.36241 11.925 1.60277 13.6962C1.28904 14.012 0.852539 14.0777 0.517491 13.9191C0.293273 13.813 0.141095 13.6395 0.0524311 13.4076C0.0370854 13.3675 0.0447583 13.3155 0 13.2882V12.9327C0.0230186 12.714 0.136406 12.5444 0.287732 12.3931C2.05632 10.6257 3.82321 8.85672 5.59308 7.09111C5.65574 7.02845 5.6583 7.00117 5.59436 6.93766C3.83813 5.18398 2.08446 3.42775 0.327375 1.67408C0.161982 1.50911 0.0353804 1.3288 0.000426269 1.09393V0.738419C0.033249 0.496724 0.156441 0.311723 0.348262 0.165087C0.48339 0.0615031 0.631305 0.00779321 0.80096 0.0141873C0.863196 0.0141873 0.925005 0.0141873 0.98724 0.0141873C1.23917 -0.00158472 1.43227 0.114361 1.6032 0.284868C2.72983 1.41235 3.85731 2.53983 4.98437 3.66689C5.61567 4.29819 6.24655 4.9295 6.87786 5.56081C6.99849 5.68144 6.99892 5.68144 7.12296 5.5574C8.87791 3.80202 10.6333 2.04707 12.3878 0.291262C12.5622 0.116918 12.7578 -0.00286353 13.0153 0.0141873C13.0797 0.0184499 13.1444 0.00480932 13.208 0.0222864H13.2075Z" fill="#B1BBD4"/>
</svg>
