<svg width="474" height="348" viewBox="0 0 474 348" fill="none" xmlns="http://www.w3.org/2000/svg">
<path d="M237 347.27C367.891 347.27 474 342.213 474 335.976C474 329.739 367.891 324.683 237 324.683C106.109 324.683 0 329.739 0 335.976C0 342.213 106.109 347.27 237 347.27Z" fill="#E9ECF2"/>
<path d="M80.5868 297.834C39.46 285.082 -16.2137 221.301 6.4134 159.113C19.2865 123.734 59.7008 121.099 91.4634 115.224C135.609 107.056 155.473 81.0814 184.715 49.1104C217.385 13.3883 291.585 -28.3368 357.208 27.263C374.881 42.2335 377.697 71.193 400.499 91.5144C423.436 111.957 453.343 112.051 466.801 152.519C477.288 184.053 432.141 249.656 401.548 269.204C344.967 305.363 173.334 326.585 80.5868 297.834Z" fill="#F6F7FB"/>
<path d="M411.631 167.496C411.631 167.731 411.618 167.96 411.611 168.195C410.952 196.785 406.858 218.888 400.996 235.969L385.804 244.345L398.005 243.108L398.355 243.074C390.792 261.789 381.072 273.627 372.084 281.096C366.491 285.754 361.18 288.719 356.851 290.594C356.569 290.722 356.287 290.843 356.004 290.957C355.305 291.246 354.633 291.508 353.994 291.737H345.881C345.787 291.354 345.706 290.977 345.625 290.594C345.571 290.352 345.518 290.117 345.471 289.875C345.397 289.559 345.336 289.243 345.269 288.927C337.632 251.571 351.225 222.814 368.064 202.68C368.111 202.613 368.165 202.546 368.232 202.479C374.094 195.494 380.346 189.552 386.221 184.658L389.32 193.955L390.503 181.223C400.707 173.304 409.083 168.807 411.14 167.752C411.463 167.583 411.624 167.503 411.624 167.503L411.631 167.496Z" fill="#263238"/>
<path d="M411.913 167.644L411.617 168.195L393.178 202.122L392.848 202.721L387.82 211.971L387.645 212.28L371.62 241.77L371.599 241.811L345.477 289.868L345.08 290.587L344.462 291.73H343.749L344.368 290.587L345.275 288.92L371.055 241.495L371.532 240.614L411.146 167.745L411.362 167.341L411.913 167.644Z" fill="white"/>
<path d="M408.904 199.054L387.559 212.145L387.843 212.609L409.189 199.518L408.904 199.054Z" fill="white"/>
<path d="M409.403 192.178L392.67 202.439L392.955 202.904L409.688 192.642L409.403 192.178Z" fill="white"/>
<path d="M368.599 202.457L368.056 202.499L371.078 241.863L371.621 241.821L368.599 202.457Z" fill="white"/>
<path d="M342.305 297.881C342.305 297.881 361.013 307.951 389.152 293.102L380.521 288.436L394.933 289.774C405.971 282.877 418.259 272.135 431.287 255.679L427.993 253.904L432.363 254.307C434.561 251.491 436.779 248.513 439.018 245.36C439.018 245.36 431.038 244.231 419.516 244.957L413.218 252.613L415.275 245.306C391.666 247.632 356.919 258.126 342.298 297.881H342.305Z" fill="#283C46"/>
<path d="M438.882 245.09L340.799 295.736L341.08 296.28L439.162 245.634L438.882 245.09Z" fill="white"/>
<path d="M413.511 258.487L413.423 259.052L426.972 261.169L427.06 260.604L413.511 258.487Z" fill="white"/>
<path d="M406.829 261.845L406.7 262.402L422.439 266.065L422.569 265.508L406.829 261.845Z" fill="white"/>
<path d="M355.47 82.8494V329.052C355.47 332.487 352.687 335.277 349.246 335.277H228.225C224.79 335.277 222 332.487 222 329.052V82.8494C222 79.4076 224.79 76.6246 228.225 76.6246H349.246C352.687 76.6246 355.47 79.4076 355.47 82.8494Z" fill="#DBE0F1"/>
<path d="M350 99.239V322.761C350 327.312 346.802 331 342.863 331H235.137C231.198 331 228 327.312 228 322.761V99.239C228 94.6883 231.198 91 235.137 91H342.863C346.802 91 350 94.6883 350 99.239Z" fill="white"/>
<path d="M298.656 86.2928H279.344C279.154 86.2928 279 85.6187 279 84.7928C279 83.967 279.154 83.2928 279.344 83.2928H298.656C298.846 83.2928 299 83.967 299 84.7928C299 85.6187 298.846 86.2928 298.656 86.2928Z" fill="#C8CDE6"/>
<path d="M240.765 204.643H337.122C339.115 204.643 340.731 203.027 340.731 201.033V139.021C340.731 137.027 339.115 135.411 337.122 135.411H240.765C238.771 135.411 237.155 137.027 237.155 139.021V201.033C237.155 203.027 238.771 204.643 240.765 204.643Z" fill="#56C3C5"/>
<path d="M263.231 177.734H245.88C245.342 177.734 244.906 178.17 244.906 178.709V182.05C244.906 182.588 245.342 183.025 245.88 183.025H263.231C263.769 183.025 264.205 182.588 264.205 182.05V178.709C264.205 178.17 263.769 177.734 263.231 177.734Z" fill="white"/>
<path d="M286.16 177.734H268.81C268.271 177.734 267.835 178.17 267.835 178.709V182.05C267.835 182.588 268.271 183.025 268.81 183.025H286.16C286.698 183.025 287.135 182.588 287.135 182.05V178.709C287.135 178.17 286.698 177.734 286.16 177.734Z" fill="white"/>
<path d="M309.09 177.734H291.739C291.201 177.734 290.765 178.17 290.765 178.709V182.05C290.765 182.588 291.201 183.025 291.739 183.025H309.09C309.628 183.025 310.064 182.588 310.064 182.05V178.709C310.064 178.17 309.628 177.734 309.09 177.734Z" fill="white"/>
<path d="M332.02 177.734H314.67C314.131 177.734 313.695 178.17 313.695 178.709V182.05C313.695 182.588 314.131 183.025 314.67 183.025H332.02C332.558 183.025 332.994 182.588 332.994 182.05V178.709C332.994 178.17 332.558 177.734 332.02 177.734Z" fill="white"/>
<path d="M331.804 188.073H308.982C308.325 188.073 307.792 188.606 307.792 189.263V192.173C307.792 192.831 308.325 193.363 308.982 193.363H331.804C332.462 193.363 332.994 192.831 332.994 192.173V189.263C332.994 188.606 332.462 188.073 331.804 188.073Z" fill="white"/>
<path d="M249.309 155.846V148.902C249.309 147.383 250.545 146.153 252.058 146.153H265.55C267.069 146.153 268.299 147.39 268.299 148.902V155.846C268.299 157.366 267.062 158.596 265.55 158.596H252.058C250.539 158.596 249.309 157.359 249.309 155.846ZM252.058 146.886C250.949 146.886 250.041 147.786 250.041 148.902V155.846C250.041 156.956 250.942 157.863 252.058 157.863H265.55C266.659 157.863 267.566 156.962 267.566 155.846V148.902C267.566 147.793 266.665 146.886 265.55 146.886H252.058Z" fill="white"/>
<path d="M329.794 151.41C329.794 151.322 329.828 151.242 329.895 151.174C332.927 148.143 332.927 143.202 329.895 140.17C329.768 140.042 329.768 139.827 329.895 139.7C330.023 139.572 330.238 139.572 330.366 139.7C333.66 142.993 333.66 148.358 330.366 151.652C330.238 151.779 330.023 151.779 329.895 151.652C329.828 151.585 329.794 151.504 329.794 151.416V151.41Z" fill="white"/>
<path d="M328.121 141.844C328.121 141.757 328.154 141.676 328.221 141.609C328.349 141.481 328.564 141.481 328.692 141.609C330.931 143.847 330.931 147.491 328.692 149.729C328.564 149.857 328.349 149.857 328.221 149.729C328.094 149.601 328.094 149.386 328.221 149.259C330.198 147.282 330.198 144.062 328.221 142.079C328.154 142.012 328.121 141.931 328.121 141.844Z" fill="white"/>
<path d="M326.514 147.719C326.514 147.632 326.547 147.551 326.615 147.484C327.616 146.482 327.616 144.856 326.615 143.861C326.487 143.733 326.487 143.518 326.615 143.39C326.742 143.262 326.957 143.262 327.085 143.39C328.349 144.654 328.349 146.704 327.085 147.961C326.957 148.089 326.742 148.089 326.615 147.961C326.547 147.894 326.514 147.813 326.514 147.726V147.719Z" fill="white"/>
<path d="M333.652 328.434C350.496 328.434 364.151 326.923 364.151 325.059C364.151 323.195 350.496 321.685 333.652 321.685C316.808 321.685 303.153 323.195 303.153 325.059C303.153 326.923 316.808 328.434 333.652 328.434Z" fill="#FCC659"/>
<path d="M371.365 323.19C371.365 325.052 357.705 326.565 340.866 326.565C324.027 326.565 310.367 325.052 310.367 323.19C310.367 323.157 310.374 323.123 310.381 323.09V313.974H371.345V323.069C371.358 323.11 371.365 323.15 371.365 323.19Z" fill="#F49B51"/>
<path d="M340.859 317.436C357.703 317.436 371.358 315.925 371.358 314.062C371.358 312.198 357.703 310.687 340.859 310.687C324.015 310.687 310.36 312.198 310.36 314.062C310.36 315.925 324.015 317.436 340.859 317.436Z" fill="#FCC659"/>
<path d="M364.151 312.193C364.151 314.055 350.492 315.567 333.652 315.567C316.813 315.567 303.153 314.055 303.153 312.193C303.153 312.159 303.16 312.126 303.167 312.092V302.977H364.131V312.072C364.144 312.112 364.151 312.152 364.151 312.193Z" fill="#F49B51"/>
<path d="M333.652 306.432C350.496 306.432 364.151 304.921 364.151 303.057C364.151 301.193 350.496 299.683 333.652 299.683C316.808 299.683 303.153 301.193 303.153 303.057C303.153 304.921 316.808 306.432 333.652 306.432Z" fill="#FCC659"/>
<path d="M374.968 301.195C374.968 303.057 361.308 304.57 344.469 304.57C327.629 304.57 313.97 303.057 313.97 301.195C313.97 301.162 313.976 301.128 313.983 301.094V291.979H374.947V301.074C374.961 301.114 374.968 301.155 374.968 301.195Z" fill="#F49B51"/>
<path d="M344.462 295.434C361.306 295.434 374.961 293.923 374.961 292.06C374.961 290.196 361.306 288.685 344.462 288.685C327.618 288.685 313.963 290.196 313.963 292.06C313.963 293.923 327.618 295.434 344.462 295.434Z" fill="#FCC659"/>
<path d="M369.307 292.06C369.307 293.31 358.182 294.325 344.469 294.325C330.755 294.325 319.63 293.31 319.63 292.06C319.63 290.809 330.755 289.794 344.469 289.794C358.182 289.794 369.307 290.809 369.307 292.06Z" fill="#F49B51"/>
<path d="M265.327 275.819C248.32 275.355 234.163 288.766 233.692 305.78C233.229 322.787 246.639 336.951 263.653 337.415C280.661 337.878 294.825 324.468 295.288 307.454C295.752 290.446 282.341 276.289 265.327 275.819ZM289.279 307.292C289.097 313.914 286.348 320.064 281.535 324.622C276.728 329.18 270.436 331.593 263.815 331.412C250.148 331.035 239.332 319.621 239.702 305.948C239.884 299.326 242.626 293.175 247.439 288.618C252.078 284.221 258.101 281.822 264.474 281.822C264.709 281.822 264.931 281.822 265.166 281.835C278.61 282.198 289.285 293.256 289.285 306.613C289.285 306.842 289.285 307.064 289.285 307.292H289.279Z" fill="#FCC659"/>
<path d="M289.292 306.613C289.292 306.842 289.292 307.064 289.292 307.292C289.111 313.914 286.362 320.065 281.548 324.622C276.742 329.18 270.45 331.593 263.828 331.412C250.162 331.035 239.346 319.621 239.716 305.948C239.897 299.326 242.64 293.175 247.453 288.618C252.091 284.221 258.115 281.822 264.487 281.822C264.723 281.822 264.944 281.822 265.18 281.835C278.624 282.198 289.306 293.256 289.306 306.613H289.292Z" fill="#F49B51"/>
<path d="M262.921 325.577V320.912C260.238 320.864 257.469 320.031 255.855 318.881L256.965 315.789C258.625 316.898 261.032 317.772 263.62 317.772C266.9 317.772 269.119 315.877 269.119 313.248C269.119 310.62 267.317 309.134 263.895 307.749C259.183 305.901 256.272 303.776 256.272 299.757C256.272 295.737 258.995 293.014 263.25 292.322V287.656H266.114V292.14C268.883 292.234 270.779 292.974 272.117 293.754L270.96 296.806C269.992 296.254 268.097 295.232 265.139 295.232C261.583 295.232 260.245 297.357 260.245 299.205C260.245 301.605 261.953 302.808 265.972 304.469C270.732 306.412 273.132 308.811 273.132 312.925C273.132 316.576 270.591 319.991 265.831 320.777V325.583H262.921V325.577Z" fill="#FCC659"/>
<path d="M136.099 65.9967C136.556 83.0107 150.726 96.4216 167.734 95.9578C184.748 95.5007 198.159 81.3302 197.695 64.3228C197.231 47.3088 183.067 33.8979 166.06 34.3617C149.046 34.8256 135.635 48.9894 136.099 65.9967ZM142.102 65.1564C142.102 51.7925 152.777 40.7344 166.221 40.3782C166.456 40.3782 166.678 40.3647 166.913 40.3647C173.279 40.3647 179.309 42.7646 183.948 47.1609C188.761 51.7186 191.503 57.8695 191.685 64.4909C192.061 78.164 181.239 89.5784 167.572 89.9548C160.944 90.1363 154.659 87.723 149.852 83.1653C145.039 78.6076 142.29 72.4568 142.108 65.8354C142.108 65.6068 142.108 65.385 142.108 65.1564H142.102Z" fill="#FCC659"/>
<path d="M142.101 65.1564C142.101 65.385 142.101 65.6068 142.101 65.8354C142.283 72.4568 145.032 78.6077 149.845 83.1653C154.652 87.723 160.944 90.1363 167.565 89.9548C181.232 89.5784 192.048 78.164 191.678 64.4909C191.497 57.8695 188.754 51.7186 183.941 47.1609C179.302 42.7646 173.279 40.3647 166.906 40.3647C166.671 40.3647 166.449 40.3647 166.214 40.3782C152.77 40.7412 142.088 51.7993 142.088 65.1564H142.101Z" fill="#F49B51"/>
<path d="M165.556 84.1266V79.3202C160.796 78.5337 158.255 75.1188 158.255 71.4686C158.255 67.3546 160.655 64.9548 165.415 63.012C169.434 61.3516 171.142 60.1483 171.142 57.7485C171.142 55.8999 169.804 53.7756 166.248 53.7756C163.29 53.7756 161.395 54.7907 160.427 55.3486L159.27 52.2967C160.608 51.5102 162.504 50.7708 165.273 50.6834V46.1996H168.137V50.8649C172.386 51.5573 175.115 54.468 175.115 58.2997C175.115 62.3196 172.204 64.4439 167.492 66.2925C164.07 67.6773 162.269 69.2503 162.269 71.7913C162.269 74.3323 164.487 76.3154 167.767 76.3154C170.355 76.3154 172.755 75.4348 174.422 74.3323L175.532 77.4245C173.918 78.5808 171.142 79.4143 168.466 79.4547V84.1199H165.556V84.1266Z" fill="#FCC659"/>
<path d="M171.176 131.525L168.446 119.829L157.301 115.19L155.318 131.525C155.318 131.525 156.972 142.14 167.223 145.938C177.474 149.743 171.176 131.525 171.176 131.525Z" fill="#F7D3C9"/>
<path d="M175.558 100.771C175.558 100.771 179.524 122.759 173.078 122.928C166.631 123.096 161.341 120.615 160.016 119.123C158.692 117.637 157.704 110.364 157.704 110.364C157.704 110.364 156.877 100.939 160.843 99.124C164.809 97.3023 173.407 94.163 175.558 100.778V100.771Z" fill="#F7D3C9"/>
<path d="M154.343 114.76C155.607 117.099 156.864 119.392 156.864 119.392C158.746 119.096 160.83 116.743 161.2 114.713C161.2 114.713 167.129 114.162 167.337 106.821C167.337 106.821 177.629 106.888 177.871 97.9543C178.119 89.0271 163.908 90.2708 160.5 93C157.092 95.7225 156.227 93.6164 153 99C147.421 100.802 152.723 111.762 154.343 114.76Z" fill="#263238"/>
<path d="M159.156 327.15L160.427 314.156H174.16L171.176 326.773C171.176 326.773 169.582 331.002 164.964 330.847C160.528 330.699 159.156 327.15 159.156 327.15Z" fill="#F7D3C9"/>
<path d="M91.5235 286.5L102.071 278.803L111.206 289.061L97.6879 295.911C97.6879 295.911 96.014 296.241 92.626 293.29C89.2783 290.372 91.5235 286.494 91.5235 286.494V286.5Z" fill="#F7D3C9"/>
<path d="M147.593 318.202C155.546 321.207 165.703 320.387 176.654 318.202C176.97 317.436 177.285 316.676 177.588 315.903C198.454 263.167 183.678 186.574 183.678 186.574H150.867L151.606 211.89C153.045 218.579 154.033 225.355 154.672 232.07C158.84 276.235 147.593 318.202 147.593 318.202Z" fill="#263238"/>
<path d="M147.607 318.182C148.118 317.154 166.806 279.18 161.24 236.339L155.317 241.112C157.321 281.217 147.876 317.174 147.607 318.182Z" fill="#1E282D"/>
<path d="M94.5757 272.76C97.5873 281.217 100.794 287.778 104.283 291.616C105.903 293.397 107.583 294.594 109.338 295.111C114.366 292.53 118.971 289.734 123.186 286.769C123.764 286.373 124.322 285.969 124.886 285.559C125.633 285.015 126.372 284.457 127.085 283.899C127.414 283.643 127.743 283.395 128.059 283.132C128.705 282.628 129.343 282.111 129.962 281.6C130.52 281.136 131.064 280.672 131.595 280.208C134.425 277.755 137.033 275.234 139.447 272.646C139.675 272.404 139.911 272.148 140.132 271.906C140.3 271.725 140.462 271.537 140.63 271.362H140.637C173.73 234.571 167.653 186.581 167.653 186.581H138.869C136.402 232.594 94.5824 272.767 94.5824 272.767L94.5757 272.76Z" fill="#263238"/>
<path d="M132.408 86.9432C134.862 85.1484 136.576 84.1602 136.993 83.8644C137.517 83.488 137.638 82.5603 138.25 81.6192C139.655 79.4614 142.579 75.6498 145.597 74.5944C145.987 74.4533 146.283 74.8701 145.866 75.3137C145.127 76.1271 143.728 77.2968 143.944 77.4917C144.407 77.8816 147.681 73.9424 148.602 74.8566C149.295 75.549 144.555 79.058 144.744 79.2799C145.113 79.7235 148.683 75.6969 149.55 76.6111C150.377 77.4716 146.095 79.7302 146.276 80.1067C146.471 80.4966 149.436 78.043 150.021 78.6009C150.908 79.4479 145.557 82.762 145.705 83.2527C145.893 84.0459 148.663 82.3855 149.073 83.3267C149.476 84.2073 145.604 85.8677 144.871 86.2374C143.177 87.0844 141.947 86.7147 140.596 88.8255C139.85 89.9817 139.117 91.1379 138.391 92.3009L132.408 86.9432Z" fill="#F7D3C9"/>
<path d="M200.202 89.5716C197.95 87.5281 196.357 86.3584 195.974 86.0223C195.497 85.5921 195.47 84.6577 194.966 83.6561C193.796 81.3638 191.302 77.2632 188.411 75.8851C188.042 75.7036 187.699 76.0801 188.068 76.5708C188.714 77.4581 189.978 78.769 189.742 78.9438C189.238 79.2799 186.408 75.018 185.393 75.8246C184.627 76.4363 188.963 80.4361 188.754 80.631C188.337 81.0277 185.225 76.6515 184.264 77.4649C183.349 78.2379 187.369 80.9335 187.141 81.2898C186.906 81.6595 184.217 78.8967 183.578 79.3874C182.61 80.1336 187.571 84.0056 187.376 84.4762C187.1 85.2492 184.533 83.2998 184.022 84.1871C183.524 85.0207 187.201 87.0844 187.887 87.5281C189.48 88.5566 190.744 88.3213 191.86 90.5598C192.478 91.79 193.083 93.0134 193.682 94.2503L200.202 89.5649V89.5716Z" fill="#F7D3C9"/>
<path d="M138.566 190.332C141.134 191.965 145.631 194.614 151.17 196.906C156.138 198.95 161.946 200.724 167.962 201.249C173.804 201.759 179.854 201.087 185.528 198.358C185.165 195.669 184.822 193.384 184.533 191.562C179.33 194.318 173.683 195.474 168.083 195.635C162.174 195.81 156.313 194.862 151.069 193.498C146.276 192.254 141.994 190.654 138.673 189.222C138.647 189.592 138.606 189.962 138.566 190.332Z" fill="#1E282D"/>
<path d="M190.925 186.843V150.63C190.925 150.63 223.468 145.104 217.075 113.597C213.015 93.5781 198.723 86.4256 198.723 86.4256L190.798 92.7916C190.798 92.7916 207.65 118.545 185.467 127.492C185.467 127.492 172.991 127.102 169.744 130.611C169.744 130.611 162.598 136.332 155.056 126.84C155.056 126.84 147.385 123.848 140.851 125.61C135.474 127.055 128.543 113.718 141.409 91.1043L133.349 83.8241C133.349 83.8241 86.1725 129.179 132.442 151.665L135.023 187.844C135.023 187.844 170.833 208.152 190.925 186.836V186.843Z" fill="#FBC343"/>
<path d="M162.631 116.03C164.05 116.03 165.199 114.881 165.199 113.463C165.199 112.044 164.05 110.895 162.631 110.895C161.213 110.895 160.063 112.044 160.063 113.463C160.063 114.881 161.213 116.03 162.631 116.03Z" fill="#E4C3BA"/>
<path d="M190.925 150.63C190.925 150.63 223.474 145.104 217.082 113.59C216.739 111.869 216.308 110.229 215.818 108.696C215.737 108.609 215.65 108.522 215.576 108.441C216.114 115.553 216.369 121.785 213.216 128.52C206.628 142.61 190.475 150.59 190.925 150.623V150.63Z" fill="#E8B133"/>
<path d="M132.448 151.672L135.03 187.851C135.03 187.851 142.464 192.073 152.467 194.647C150.74 193.336 143.459 182.204 142.243 176.578C140.058 166.488 139.782 160.68 139.5 149.931C128.731 147.134 116.463 137.649 112.241 121.818C111.28 132.614 115.864 143.605 132.448 151.672Z" fill="#E8B133"/>
<path d="M104.283 291.616C105.903 293.397 107.583 294.594 109.338 295.111C114.366 292.53 118.971 289.734 123.186 286.769C123.764 286.373 124.322 285.969 124.886 285.559C125.633 285.015 126.372 284.457 127.085 283.899C127.414 283.643 127.743 283.395 128.059 283.132C128.705 282.628 129.343 282.111 129.962 281.6C130.52 281.136 131.064 280.672 131.595 280.208C134.425 277.755 137.034 275.234 139.447 272.646C139.675 272.404 139.911 272.148 140.133 271.906C140.301 271.725 140.462 271.537 140.63 271.362C120.947 287.63 108.356 290.95 104.289 291.623L104.283 291.616Z" fill="#1E282D"/>
<path d="M157.422 337.495H188.58C189.662 337.495 190.529 336.574 190.448 335.492V335.452C190.421 335.216 190.395 334.968 190.361 334.726C190.253 333.899 190.032 333.065 189.642 332.548C188.163 330.585 185.299 329.691 180.183 327.667C176.977 326.39 174.254 324.696 173.058 323.903C172.668 323.641 172.164 323.708 171.828 324.031C165.663 330.054 161.885 328.77 160.749 326.289C159.882 324.394 158.659 324.79 158.323 325.348C157.287 327.083 156.716 332.171 156.488 334.726C156.461 335.001 156.434 335.25 156.42 335.452C156.387 335.929 156.36 336.218 156.36 336.218C156.246 336.884 156.756 337.495 157.429 337.495H157.422Z" fill="#374263"/>
<path d="M178.416 330.941C180.627 329.866 180.298 327.58 180.298 327.56L179.767 327.64C179.78 327.721 180.029 329.556 178.187 330.45L178.422 330.934L178.416 330.941Z" fill="white"/>
<path d="M181.151 331.855C183.188 330.706 182.966 328.723 182.96 328.642L182.422 328.709C182.428 328.777 182.597 330.424 180.882 331.392L181.151 331.862V331.855Z" fill="white"/>
<path d="M82.2403 288.369L97.4595 315.554C97.9906 316.502 99.214 316.811 100.122 316.206L100.148 316.186C100.35 316.051 100.545 315.903 100.747 315.756C101.412 315.251 102.031 314.653 102.286 314.062C103.274 311.816 102.656 308.879 101.923 303.427C101.466 300.005 101.621 296.812 101.721 295.367C101.755 294.903 101.453 294.493 101.009 294.359C92.7405 291.925 92.0145 287.999 93.6278 285.794C94.858 284.114 93.9169 283.233 93.2648 283.213C91.2414 283.153 86.5291 285.136 84.1898 286.191C83.9276 286.299 83.699 286.399 83.5108 286.487C83.0806 286.688 82.8184 286.809 82.8184 286.809C82.1798 287.031 81.9042 287.777 82.2269 288.369H82.2403Z" fill="#374263"/>
<path d="M101.049 303.776C101.566 303.776 101.943 303.703 101.983 303.696L101.876 303.165C101.876 303.165 99.6303 303.608 98.5279 302.17L98.0977 302.499C98.9178 303.568 100.188 303.776 101.055 303.776H101.049Z" fill="white"/>
<path d="M101.297 306.721C101.815 306.721 102.191 306.647 102.232 306.64L102.124 306.109C102.124 306.109 99.8789 306.553 98.7764 305.114L98.3462 305.444C99.1663 306.512 100.437 306.721 101.304 306.721H101.297Z" fill="white"/>
<path d="M168.702 107.244C171.209 107.244 175.155 106.176 177.219 103.601C178.496 102.008 179.538 99.1912 177.239 94.8419L176.762 95.0906C178.496 98.3778 178.51 101.127 176.795 103.265C174.402 106.25 169.354 107.103 167.404 106.572L167.263 107.097C167.646 107.197 168.137 107.258 168.702 107.258V107.244Z" fill="#263238"/>
<path d="M171.021 107.762C172.755 107.762 174.832 107.285 177.091 105.792L176.795 105.342C170.886 109.241 166.356 105.88 166.315 105.846L165.986 106.276C165.986 106.276 167.989 107.762 171.028 107.762H171.021Z" fill="#263238"/>
</svg>
