<svg width="586" height="372" viewBox="0 0 586 372" fill="none" xmlns="http://www.w3.org/2000/svg">
<path d="M332 370.671C471.943 370.671 585.389 365.265 585.389 358.596C585.389 351.928 471.943 346.522 332 346.522C192.057 346.522 78.6104 351.928 78.6104 358.596C78.6104 365.265 192.057 370.671 332 370.671Z" fill="#E9ECF2"/>
<path d="M164.77 318.196C120.799 304.562 61.2754 236.37 85.4673 169.882C99.2307 132.056 142.44 129.239 176.399 122.957C223.597 114.225 244.835 86.4537 276.099 52.2717C311.028 14.0792 390.36 -30.5313 460.521 28.9135C479.416 44.9192 482.427 75.8814 506.806 97.6081C531.328 119.464 563.304 119.565 577.693 162.831C588.904 196.546 540.636 266.685 507.927 287.586C447.433 326.245 263.931 348.935 164.77 318.196Z" fill="#F6F7FB"/>
<path d="M269.162 40.0011L443.22 41.9177C452.842 42.0239 460.388 50.3252 460.382 60.7556L460.227 318.77C460.222 325.989 454.379 331.975 447.33 332.007L260.723 332.83C254.139 332.859 248.738 327.352 248.738 320.591V62.0092C248.738 49.7579 257.881 39.8785 269.162 40.0011Z" fill="#DBE0F1"/>
<path d="M441.8 46.0725L266.492 45C259.14 45 254 50.7393 254 57.9087V313.323C254 320.492 259.14 326 266.492 326H441.798C449.15 326 455 320.491 455 313.323V58.9799C455 51.8106 449.15 46.0712 441.798 46.0712L441.8 46.0725Z" fill="white"/>
<path d="M438.098 51H271.584C264.602 51 259 56.6663 259 63.4956V306.823C259 313.652 264.602 319 271.584 319H438.098C445.081 319 451 313.652 451 306.823V63.4956C451 56.6663 445.081 51 438.098 51Z" fill="#F6F7FB"/>
<path d="M324.875 85.9277H265.983C264.968 85.9277 264.146 86.7502 264.146 87.7648V87.87C264.146 88.8846 264.968 89.7071 265.983 89.7071H324.875C325.889 89.7071 326.712 88.8846 326.712 87.87V87.7648C326.712 86.7502 325.889 85.9277 324.875 85.9277Z" fill="#E0E4F3"/>
<path d="M324.875 96.4252H265.983C264.968 96.4252 264.146 97.2476 264.146 98.2622V98.3675C264.146 99.3821 264.968 100.205 265.983 100.205H324.875C325.889 100.205 326.712 99.3821 326.712 98.3675V98.2622C326.712 97.2476 325.889 96.4252 324.875 96.4252Z" fill="#E0E4F3"/>
<path d="M324.875 106.083H265.983C264.968 106.083 264.146 106.905 264.146 107.92V108.025C264.146 109.04 264.968 109.862 265.983 109.862H324.875C325.889 109.862 326.712 109.04 326.712 108.025V107.92C326.712 106.905 325.889 106.083 324.875 106.083Z" fill="#E0E4F3"/>
<g opacity="0.8">
<path d="M353.149 164.505C347.836 164.505 343.228 161.44 340.994 156.986C340.461 157.624 339.662 158.029 338.766 158.029C338.746 158.029 338.727 158.026 338.708 158.026C341.34 163.346 346.823 167.015 353.149 167.015C360.353 167.015 366.467 162.259 368.519 155.722H365.861C363.913 160.85 358.951 164.506 353.149 164.506V164.505Z" fill="#E0E4F3"/>
<path d="M376.591 155.722H364.461C363.311 155.722 362.37 156.663 362.37 157.813V165.355C362.619 165.297 362.867 165.234 363.114 165.159C364.925 164.605 366.505 163.624 367.811 162.343C367.85 160.759 369.143 159.488 370.736 159.488C372.328 159.488 373.663 160.798 373.663 162.415C373.663 164.031 372.352 165.342 370.736 165.342C370.247 165.342 369.786 165.221 369.381 165.009C367.866 166.412 366.066 167.491 364.021 168.118C363.474 168.286 362.924 168.416 362.371 168.511V195.877C362.371 197.027 363.312 197.969 364.462 197.969H376.593C377.743 197.969 378.684 197.027 378.684 195.877V157.815C378.684 156.664 377.743 155.723 376.593 155.723L376.591 155.722Z" fill="#DBDFF1"/>
<path d="M347.873 146.981C347.246 148.445 346.895 150.056 346.895 151.747C346.895 152.395 346.954 153.029 347.054 153.649C347.232 154.04 347.335 154.474 347.335 154.931C347.335 154.941 347.333 154.95 347.333 154.959C347.336 154.968 347.337 154.976 347.34 154.985C347.337 154.991 347.333 154.998 347.331 155.004C347.292 156.681 345.923 158.028 344.238 158.028C342.553 158.028 341.142 156.642 341.142 154.931C341.142 153.221 342.528 151.835 344.238 151.835C344.288 151.835 344.337 151.84 344.387 151.842C344.387 151.81 344.385 151.778 344.385 151.746C344.385 149.917 344.727 148.169 345.343 146.555C345.026 146.533 344.708 146.518 344.385 146.518C336.992 146.518 331 152.51 331 159.902C331 165.519 334.461 170.325 339.366 172.311V196.292L343.967 202.148L348.986 196.292V190.994L346.059 187.507L348.986 184.85V183.184L347.313 180.815L348.986 178.723V172.474C354.111 170.598 357.769 165.677 357.769 159.901C357.769 153.716 353.574 148.514 347.873 146.979V146.981Z" fill="#DBDFF1"/>
<path d="M358.816 134.807C349.937 134.807 342.712 142.031 342.712 150.911C342.712 152.866 343.07 154.737 343.71 156.471C343.758 156.474 343.804 156.481 343.851 156.481C344.711 156.481 345.488 156.13 346.049 155.565C345.518 154.113 345.221 152.546 345.221 150.912C345.221 143.416 351.319 137.318 358.815 137.318C366.311 137.318 372.409 143.416 372.409 150.912C372.409 151.697 372.339 152.465 372.211 153.213H374.752C374.86 152.461 374.919 151.694 374.919 150.912C374.919 142.033 367.695 134.808 358.815 134.808L358.816 134.807Z" fill="#DBDFF1"/>
</g>
<path d="M445.786 50H264.214C261.334 50 259 52.2192 259 54.9567V72.0432C259 74.7808 261.334 77 264.214 77H445.786C448.666 77 451 74.7808 451 72.0432V54.9567C451 52.2192 448.666 50 445.786 50Z" fill="#56C3C5"/>
<path d="M275.468 57.1885C273.297 55.2273 269.922 55.4253 267.961 57.597C266 59.7686 266.141 63.1496 268.313 65.1107C270.225 66.8388 273.16 66.7924 275.011 65.4516L276.473 66.7724C276.491 67.1646 276.601 67.6408 276.934 67.9415L281.809 72.345C282.426 72.9014 283.354 72.7034 283.911 72.0869L283.943 72.0506C284.5 71.434 284.486 70.6195 283.869 70.0631L278.995 65.6596C278.661 65.3589 278.176 65.2962 277.972 65.112L276.51 63.7912C277.656 61.8138 277.382 58.9153 275.47 57.1872L275.468 57.1885ZM269.303 64.3802C267.629 62.8676 267.497 60.2837 269.01 58.6095C270.522 56.9353 273.106 56.8038 274.78 58.3163C276.455 59.8288 276.586 62.4127 275.074 64.0869C273.561 65.7611 270.977 65.8927 269.303 64.3802Z" fill="white"/>
<path d="M270.255 63.0681C270.242 63.0819 270.228 63.0957 270.213 63.107C270.037 63.2561 269.772 63.2348 269.623 63.0581C268.647 61.904 268.676 60.186 269.691 59.0632C269.846 58.8915 270.11 58.8777 270.282 59.0331C270.454 59.1885 270.468 59.4529 270.312 59.6245C269.578 60.4378 269.557 61.6809 270.262 62.5168C270.399 62.6784 270.392 62.9153 270.253 63.0681H270.255Z" fill="white"/>
<path d="M416.272 56H294.728C293.221 56 292 57.3217 292 58.952V68.0479C292 69.6783 293.221 71 294.728 71H416.272C417.779 71 419 69.6783 419 68.0479V58.952C419 57.3217 417.779 56 416.272 56Z" fill="white"/>
<path d="M357.724 82.5591C357.479 83.3367 360.315 84.5237 361.984 81.3389C362.043 79.8131 362.971 73.277 362.058 72.0332C357.203 65.4129 347.788 57.114 347.788 57.114C346.197 58.6849 347.507 60.2264 347.507 60.2264L352.075 64.984C351.119 66.7096 349.954 68.1668 349.409 70.2548C348.996 71.8354 349.249 73.5257 350.048 74.9653C350.849 76.4089 351.944 78.2873 352.978 79.7563C354.935 82.5376 357.726 82.5571 357.726 82.5571L357.724 82.5591Z" fill="#F7D3C9"/>
<path d="M439.478 342.396C439.478 342.396 440.53 348.349 441.045 354.24C441.247 356.544 439.47 358.542 437.161 358.639C429.315 358.967 412.529 359.601 406.506 359.333C405.601 359.292 405.008 358.365 405.345 357.523C405.625 356.818 406.167 356.246 406.857 355.931L434.582 343.188L439.478 342.396Z" fill="#263238"/>
<path d="M440.34 338.898L439.496 346.018C439.496 346.018 434.639 348.278 431.323 345.734L433.334 337.799L440.34 338.898Z" fill="#F7D3C9"/>
<path d="M439.706 205.039C440.071 206.897 441.665 297.825 431.946 338.573C431.788 339.237 432.124 339.922 432.757 340.181C434.248 340.79 437.17 341.672 440.672 341.789C441.757 341.826 442.729 341.121 443.036 340.079C445.814 330.625 459.127 283.258 460.864 238.009C462.805 187.448 460.864 236.287 460.864 236.287L459.726 205.033L439.706 205.037V205.039Z" fill="#263238"/>
<path d="M471.372 345.501C471.372 345.501 473.047 348.505 474.667 356.491C474.959 357.932 473.952 359.313 472.487 359.456C469.896 359.711 465.908 360.038 462.711 360.016C461.238 360.007 460.089 358.724 460.267 357.263C460.621 354.348 461.724 349.565 465.13 345.84L471.372 345.501Z" fill="#263238"/>
<path d="M472.842 336.344L470.868 347.111C470.868 347.111 468.917 348.562 465.054 347.51L465.996 335.925L472.84 336.344H472.842Z" fill="#F7D3C9"/>
<path d="M478.175 207.83C486.123 255.803 476.451 326.402 473.188 340.218C472.988 341.064 472.304 341.713 471.449 341.854C469.991 342.095 467.594 342.292 465.232 341.605C464.417 341.368 463.845 340.633 463.812 339.787C463.375 328.617 464.162 260.036 456.755 232.934C456.379 231.561 455.54 230.362 454.381 229.538L440.004 219.317L438.901 202.798L478.175 207.83Z" fill="#263238"/>
<path d="M427.524 116.928C451.345 116.534 477.63 123.182 477.63 123.182C484.731 164.616 478.872 212.405 478.872 212.405C460.429 217.241 439.624 209.448 439.624 209.448C436.559 192.129 422.257 143.39 422.257 143.39C410.616 141.946 401.029 138.587 393.133 134.147C399.156 127.166 401.996 118.281 403.228 113.03C411.651 115.647 420.175 117.045 427.522 116.924L427.524 116.928Z" fill="#0288D1"/>
<path d="M357.156 81.8403C359.496 79.0139 362.458 80.3517 362.458 80.3517C365.964 95.1592 384.344 107.166 403.23 113.036C401.996 118.287 399.157 127.172 393.135 134.152C361.794 116.53 357.158 81.8422 357.158 81.8422L357.156 81.8403Z" fill="#0288D1"/>
<path d="M468.492 146.251L477.629 123.184C477.629 123.184 499.88 138.303 503.541 157.472C499.335 157.782 491.685 158.875 484.197 162.657C482.552 153.606 468.492 146.251 468.492 146.251Z" fill="#0288D1"/>
<path d="M451.652 97.588L459.232 119.509C459.357 119.872 459.209 120.275 458.872 120.461C456.805 121.603 449.362 124.906 440.39 119.218C439.455 118.626 438.819 117.658 438.678 116.562L436.224 97.5899H451.652V97.588Z" fill="#F7D3C9"/>
<path d="M435.161 77.2903C435.161 77.2903 426.837 92.9577 427.904 99.2881C428.972 105.617 439.286 105.162 448.294 100.023L454.589 83.1056L435.161 77.2923V77.2903Z" fill="#F7D3C9"/>
<path d="M447.896 91.712C447.529 91.5494 447.394 91.1029 447.614 90.766C448.282 89.7475 449.531 87.6693 449.929 85.8497C449.929 85.8497 451.425 84.8919 446.121 83.6207C440.817 82.3515 432.906 80.3792 431.243 75.8644C429.621 71.4613 433.881 60.3909 440.678 69.2128C440.937 69.5477 441.444 69.5555 441.7 69.2206C442.815 67.7712 445.743 64.7607 449.809 66.5862C453.615 68.2942 454.044 71.0813 453.991 72.4877C453.975 72.9009 454.346 73.2222 454.751 73.1458C456.675 72.7795 461.291 72.4642 463.448 77.2002C465.222 81.1019 464.068 83.3093 463.019 84.3905C462.678 84.7411 462.827 85.317 463.295 85.4599C464.558 85.8478 466.192 86.9191 466.029 89.8806C465.804 93.9762 461.224 93.6158 459.92 93.4278C459.707 93.3965 459.491 93.4709 459.346 93.6295C458.228 94.8674 453.192 100.119 447.741 100.751C447.269 100.806 446.903 100.34 447.057 99.8914L449.416 93.0341C449.525 92.7148 449.373 92.3662 449.065 92.2291L447.896 91.71V91.712Z" fill="#263238"/>
<path d="M446.947 92.6855C446.947 92.6855 452.874 88.6193 453.307 92.043C453.74 95.4668 447.97 97.0023 445.112 95.7253L446.947 92.6835V92.6855Z" fill="#E4C3BA"/>
<path d="M484.197 162.655C484.197 162.655 491.975 197.741 484.929 217.466C493.565 221.47 491.971 220.716 491.971 220.716C491.971 220.716 509.056 170.793 503.541 157.47C492.666 156.317 487.27 159.239 484.197 162.655Z" fill="#F7D3C9"/>
<path d="M484.929 217.466C484.929 217.466 480.479 223.227 480.836 225.52C481.192 227.814 481.276 228.75 481.276 228.75C481.276 228.75 483.513 227.221 483.372 225.266C483.061 231.469 480.985 238.522 482.873 238.181C484.761 237.84 494.533 228.835 492.323 219.231C487.309 215.747 485.905 216.127 484.929 217.464V217.466Z" fill="#F7D3C9"/>
<path d="M57.0003 214.354L44.8771 224.075C41.5099 226.773 48.7446 232.544 52.939 232.522L252.239 231.348L198.284 199.129L105 198.5C84.3923 196.871 69.3317 204.466 57.0003 214.354Z" fill="#1E1E1E"/>
<path d="M359.294 301.047C359.12 299.412 358.941 297.776 358.76 296.156C356.916 279.526 348.43 264.598 335.513 255.307L334.512 254.588C318.954 243.398 301.081 236.515 282.471 234.547L252.235 231.349L52.9356 232.524C48.7411 232.544 41.8583 226.461 45.2237 223.762L57.3469 214.042C69.6801 204.154 84.6355 198.816 100 198.816L198.277 199.13L197.578 198.816C191.979 196.296 185.973 195 179.907 195H92.1593C86.8272 195 81.5262 195.862 76.4315 197.556L30.434 223.906C27.1727 224.991 24.2601 227.047 22.0323 229.836L8.39898 246.908C5.56128 250.461 4 254.995 4 259.686V287.506C4 305 8.13503 320.027 8.13503 320.027C10.7646 321.471 13.6716 322.223 16.6226 322.223H313.114L344.603 320.01C353.622 319.377 360.327 310.734 359.295 301.048L359.294 301.047Z" fill="#56C3C5"/>
<path d="M253 231.5L198.074 199H194.5L249 231.5H253Z" fill="#56C3C5"/>
<path d="M358.247 313.65H357.305C355.47 313.65 353.981 312.045 353.981 310.065V292.053C353.981 290.074 355.47 288.469 357.305 288.469C359.067 288.469 360.522 289.953 360.623 291.851L361.565 309.863C361.673 311.919 360.157 313.65 358.247 313.65Z" fill="#1E1E1E"/>
<path d="M346.555 285.01H356.449C352.765 272.965 345.461 262.462 335.515 255.307L334.514 254.588C333.482 253.847 332.441 253.127 331.39 252.424C333.409 260.026 335.9 270.447 337.54 277.443C338.584 281.898 342.297 285.01 346.557 285.01H346.555Z" fill="#323232"/>
<path d="M30.4386 244.503V223.903C27.1772 224.988 24.2647 227.044 22.0369 229.832L8.40352 246.904C6.03512 249.869 4.57062 253.523 4.14697 257.378L22.7563 254.201C27.1791 253.447 30.4368 249.333 30.4368 244.501L30.4386 244.503Z" fill="#1E1E1E"/>
<path d="M219.456 235.792L214.934 228.326C213.05 225.215 210.678 223.092 208.104 222.209L199.16 219.144C196.706 218.304 194.357 221.227 194.089 225.457L194.025 226.449C193.752 230.757 195.754 234.504 198.304 234.456L209.825 234.233C211.432 234.202 212.892 235.816 213.526 238.326L213.738 239.164C214.02 240.278 214.665 241 215.379 241H218.211C219.814 241 220.605 237.689 219.456 235.792Z" fill="#4CB8BA"/>
<path d="M147.498 244.001H178.499C180.916 244.001 182.623 244.858 181.783 245.666C180.364 247.035 176.986 248.78 168.957 248.984C161.734 249.167 152.631 247.709 145.766 246.323C142.654 245.695 143.921 244 147.498 244V244.001Z" fill="#4CB8BA"/>
<path d="M86.2375 343.404C101.992 327.65 101.992 302.107 86.2375 286.353C70.4832 270.599 44.9405 270.599 29.1863 286.353C13.432 302.107 13.432 327.65 29.1863 343.404C44.9405 359.158 70.4832 359.158 86.2375 343.404Z" fill="black"/>
<path d="M72.7946 329.962C81.1251 321.632 81.1251 308.125 72.7946 299.795C64.4641 291.464 50.9577 291.464 42.6272 299.795C34.2967 308.125 34.2967 321.632 42.6272 329.962C50.9577 338.293 64.4641 338.293 72.7946 329.962Z" fill="#323232"/>
<path d="M324.171 343.405C339.925 327.651 339.925 302.108 324.171 286.354C308.416 270.6 282.874 270.6 267.119 286.354C251.365 302.108 251.365 327.651 267.119 343.405C282.874 359.16 308.416 359.16 324.171 343.405Z" fill="black"/>
<path d="M310.763 329.997C319.111 321.648 319.111 308.112 310.763 299.763C302.414 291.414 288.878 291.414 280.529 299.763C272.18 308.112 272.18 321.648 280.529 329.997C288.878 338.345 302.414 338.345 310.763 329.997Z" fill="#323232"/>
<path opacity="0.7" d="M106.527 302.44C106.262 302.44 106.026 302.252 105.975 301.983C102.391 283.137 91.6496 271.141 74.0519 266.331C60.8769 262.73 48.5857 264.735 48.4633 264.755C48.1584 264.808 47.868 264.602 47.8169 264.295C47.7658 263.99 47.9703 263.7 48.2771 263.649C48.4012 263.627 60.9043 261.584 74.313 265.237C86.7339 268.623 102.502 277.711 107.078 301.771C107.136 302.076 106.936 302.37 106.631 302.427C106.594 302.434 106.559 302.436 106.525 302.436L106.527 302.44Z" fill="#4CB8BA"/>
<path opacity="0.7" d="M246.374 308.586C246.072 308.586 245.822 308.347 245.813 308.042C245.347 293.174 249.33 281.53 257.651 273.431C271.387 260.061 292.461 261.127 292.673 261.138C292.982 261.156 293.219 261.421 293.201 261.731C293.183 262.04 292.927 262.27 292.608 262.259C292.401 262.246 271.803 261.217 258.427 274.242C250.347 282.112 246.479 293.472 246.934 308.007C246.943 308.318 246.7 308.577 246.39 308.586C246.385 308.586 246.377 308.586 246.372 308.586H246.374Z" fill="#4CB8BA"/>
<path d="M298.032 65.056C297.925 65.056 297.842 65.0266 297.784 64.968C297.73 64.904 297.704 64.8186 297.704 64.712V59.648C297.704 59.536 297.73 59.4506 297.784 59.392C297.842 59.3333 297.925 59.304 298.032 59.304C298.138 59.304 298.218 59.3333 298.272 59.392C298.33 59.4506 298.36 59.536 298.36 59.648V61.856H301.744V59.648C301.744 59.536 301.77 59.4506 301.824 59.392C301.882 59.3333 301.965 59.304 302.072 59.304C302.178 59.304 302.258 59.3333 302.312 59.392C302.37 59.4506 302.4 59.536 302.4 59.648V64.712C302.4 64.8186 302.37 64.904 302.312 64.968C302.258 65.0266 302.178 65.056 302.072 65.056C301.965 65.056 301.882 65.0266 301.824 64.968C301.77 64.904 301.744 64.8186 301.744 64.712V62.424H298.36V64.712C298.36 64.8186 298.333 64.904 298.28 64.968C298.226 65.0266 298.144 65.056 298.032 65.056ZM305.318 65.072C304.939 65.072 304.611 64.9893 304.334 64.824C304.056 64.6586 303.84 64.4266 303.686 64.128C303.536 63.824 303.462 63.4666 303.462 63.056C303.462 62.7466 303.504 62.4693 303.59 62.224C303.675 61.9733 303.8 61.76 303.966 61.584C304.131 61.408 304.326 61.2746 304.55 61.184C304.779 61.088 305.035 61.04 305.318 61.04C305.696 61.04 306.024 61.1226 306.302 61.288C306.579 61.4533 306.792 61.688 306.942 61.992C307.096 62.2906 307.174 62.6453 307.174 63.056C307.174 63.3653 307.131 63.6426 307.046 63.888C306.96 64.1333 306.835 64.3466 306.67 64.528C306.504 64.704 306.307 64.84 306.078 64.936C305.854 65.0266 305.6 65.072 305.318 65.072ZM305.318 64.552C305.558 64.552 305.768 64.4933 305.95 64.376C306.131 64.2586 306.27 64.088 306.366 63.864C306.467 63.64 306.518 63.3706 306.518 63.056C306.518 62.5706 306.408 62.2 306.19 61.944C305.976 61.688 305.686 61.56 305.318 61.56C305.072 61.56 304.859 61.6186 304.678 61.736C304.502 61.848 304.363 62.016 304.262 62.24C304.166 62.4586 304.118 62.7306 304.118 63.056C304.118 63.536 304.227 63.9066 304.446 64.168C304.664 64.424 304.955 64.552 305.318 64.552ZM308.467 65.056C308.36 65.056 308.28 65.0266 308.227 64.968C308.174 64.9093 308.147 64.8266 308.147 64.72V61.384C308.147 61.2773 308.174 61.1973 308.227 61.144C308.28 61.0853 308.358 61.056 308.459 61.056C308.56 61.056 308.638 61.0853 308.691 61.144C308.75 61.1973 308.779 61.2773 308.779 61.384V62.072L308.691 61.976C308.803 61.6666 308.984 61.4346 309.235 61.28C309.491 61.12 309.784 61.04 310.115 61.04C310.424 61.04 310.68 61.096 310.883 61.208C311.091 61.32 311.246 61.4906 311.347 61.72C311.448 61.944 311.499 62.2293 311.499 62.576V64.72C311.499 64.8266 311.47 64.9093 311.411 64.968C311.358 65.0266 311.28 65.056 311.179 65.056C311.072 65.056 310.99 65.0266 310.931 64.968C310.878 64.9093 310.851 64.8266 310.851 64.72V62.616C310.851 62.2533 310.779 61.9893 310.635 61.824C310.496 61.6533 310.272 61.568 309.963 61.568C309.606 61.568 309.32 61.68 309.107 61.904C308.899 62.1226 308.795 62.416 308.795 62.784V64.72C308.795 64.944 308.686 65.056 308.467 65.056ZM314.174 65.072C313.827 65.072 313.523 64.9893 313.262 64.824C313.006 64.6586 312.806 64.4266 312.662 64.128C312.523 63.824 312.454 63.4666 312.454 63.056C312.454 62.64 312.523 62.2826 312.662 61.984C312.806 61.68 313.006 61.448 313.262 61.288C313.523 61.1226 313.827 61.04 314.174 61.04C314.526 61.04 314.827 61.128 315.078 61.304C315.329 61.48 315.497 61.7173 315.582 62.016H315.494V59.632C315.494 59.5253 315.521 59.4453 315.574 59.392C315.633 59.3333 315.715 59.304 315.822 59.304C315.923 59.304 316.001 59.3333 316.054 59.392C316.113 59.4453 316.142 59.5253 316.142 59.632V64.72C316.142 64.8266 316.115 64.9093 316.062 64.968C316.009 65.0266 315.929 65.056 315.822 65.056C315.721 65.056 315.641 65.0266 315.582 64.968C315.529 64.9093 315.502 64.8266 315.502 64.72V63.96L315.59 64.072C315.505 64.376 315.334 64.6186 315.078 64.8C314.827 64.9813 314.526 65.072 314.174 65.072ZM314.31 64.552C314.55 64.552 314.761 64.4933 314.942 64.376C315.123 64.2586 315.262 64.088 315.358 63.864C315.459 63.64 315.51 63.3706 315.51 63.056C315.51 62.5706 315.401 62.2 315.182 61.944C314.969 61.688 314.678 61.56 314.31 61.56C314.065 61.56 313.851 61.6186 313.67 61.736C313.494 61.848 313.355 62.016 313.254 62.24C313.158 62.4586 313.11 62.7306 313.11 63.056C313.11 63.536 313.219 63.9066 313.438 64.168C313.657 64.424 313.947 64.552 314.31 64.552ZM318.582 65.072C318.315 65.072 318.075 65.0213 317.862 64.92C317.654 64.8133 317.489 64.6693 317.366 64.488C317.243 64.3066 317.182 64.104 317.182 63.88C317.182 63.592 317.254 63.3653 317.398 63.2C317.547 63.0346 317.79 62.9173 318.126 62.848C318.467 62.7786 318.931 62.744 319.518 62.744H319.878V63.168H319.526C319.094 63.168 318.753 63.1893 318.502 63.232C318.257 63.2693 318.083 63.336 317.982 63.432C317.886 63.528 317.838 63.664 317.838 63.84C317.838 64.0586 317.913 64.2373 318.062 64.376C318.217 64.5146 318.425 64.584 318.686 64.584C318.899 64.584 319.086 64.5333 319.246 64.432C319.411 64.3306 319.539 64.192 319.63 64.016C319.726 63.84 319.774 63.6373 319.774 63.408V62.496C319.774 62.1653 319.707 61.928 319.574 61.784C319.441 61.6346 319.222 61.56 318.918 61.56C318.731 61.56 318.545 61.584 318.358 61.632C318.171 61.68 317.974 61.7573 317.766 61.864C317.691 61.9013 317.627 61.9146 317.574 61.904C317.521 61.888 317.478 61.8586 317.446 61.816C317.414 61.7733 317.395 61.7253 317.39 61.672C317.385 61.6133 317.395 61.5573 317.422 61.504C317.454 61.4506 317.502 61.408 317.566 61.376C317.801 61.2586 318.033 61.1733 318.262 61.12C318.491 61.0666 318.71 61.04 318.918 61.04C319.254 61.04 319.531 61.096 319.75 61.208C319.969 61.3146 320.131 61.48 320.238 61.704C320.345 61.9226 320.398 62.2053 320.398 62.552V64.72C320.398 64.8266 320.371 64.9093 320.318 64.968C320.27 65.0266 320.198 65.056 320.102 65.056C320.001 65.056 319.923 65.0266 319.87 64.968C319.817 64.9093 319.79 64.8266 319.79 64.72V64.096H319.862C319.819 64.2986 319.737 64.472 319.614 64.616C319.497 64.76 319.35 64.872 319.174 64.952C318.998 65.032 318.801 65.072 318.582 65.072Z" fill="#ADADAD"/>
</svg>
