<svg width="24" height="19" viewBox="0 0 24 19" fill="none" xmlns="http://www.w3.org/2000/svg">
<path d="M15.34 0.0703697C13.4756 0.408516 11.9996 1.77024 11.5107 3.61634C11.4239 3.93164 11.4056 4.11899 11.4056 4.74958C11.401 5.16541 11.4147 5.59038 11.4376 5.70005L11.4696 5.90111L11.1634 5.86912C9.14823 5.68634 7.52147 5.22482 5.89928 4.37945C4.40047 3.59806 2.84226 2.36885 1.88722 1.2219C1.741 1.04825 1.60391 0.915735 1.58106 0.924875C1.55365 0.934013 1.45768 1.1168 1.36172 1.33613C0.70371 2.82124 0.827088 4.53482 1.68159 5.86912C1.93292 6.25753 2.34418 6.71906 2.67775 6.98409L3.02047 7.26283H2.83312C2.431 7.26283 1.59477 7.03436 1.14239 6.80588C1.04643 6.75561 0.945896 6.71449 0.927618 6.71449C0.863644 6.71449 0.945896 7.55072 1.051 7.95284C1.46682 9.52933 2.63663 10.7768 4.19484 11.2977C4.45074 11.3846 4.63352 11.4668 4.59696 11.4805C4.39133 11.5582 3.71504 11.613 3.18954 11.5948L2.5955 11.5673L2.62749 11.6862C2.67775 11.8872 3.0159 12.5269 3.2261 12.8194C4.03034 13.9526 5.35094 14.7295 6.63955 14.8346C6.83147 14.8483 6.9914 14.8757 6.9914 14.8985C6.9914 14.9717 5.96782 15.6068 5.3418 15.9176C3.9161 16.6258 2.50411 16.932 0.845366 16.8954L0 16.8772L0.237616 17.028C0.589471 17.2473 1.64961 17.7819 2.12484 17.9784C4.68835 19.0431 7.6814 19.2853 10.5054 18.6593C14.6591 17.7362 18.0817 14.8483 19.809 10.8042C20.5447 9.07694 20.9148 7.37707 20.9559 5.54925L20.9696 4.72674L21.3032 4.4617C21.7236 4.11899 22.1988 3.6666 22.5598 3.26448C22.866 2.9172 23.3138 2.31859 23.2864 2.29574C23.2773 2.2866 23.1402 2.33229 22.9802 2.39627C22.3725 2.64302 20.9696 2.99945 20.7594 2.95832C20.7092 2.94918 20.7457 2.90349 20.8782 2.81667C21.2255 2.58819 21.8424 1.95302 22.1029 1.56004C22.3314 1.2219 22.6649 0.550173 22.6649 0.431364C22.6649 0.403948 22.3862 0.522755 22.0435 0.691828C21.422 0.993418 20.6132 1.28587 19.9826 1.43666L19.649 1.51435L19.3703 1.25845C18.301 0.266861 16.7611 -0.185524 15.34 0.0703697Z" fill="#03A9F4"/>
</svg>
