<svg width="22" height="22" viewBox="0 0 22 22" fill="none" xmlns="http://www.w3.org/2000/svg">
<path d="M21.9989 7.4041V18.4364C21.9484 19.0795 21.685 19.6326 21.2668 20.1133C20.6478 20.8247 19.8612 21.2361 18.9204 21.2389C13.6486 21.2527 8.37743 21.2475 3.10568 21.2441C1.6565 21.243 0.225116 20.0181 0.036942 18.6326C0.0139939 18.4634 0.000225008 18.2924 0.000225008 18.1203C0.00079871 14.6368 -0.0014961 11.1527 0.00194612 7.66916C0.00309352 6.41963 0.488446 5.35885 1.32204 4.45355C2.14128 3.56431 3.16133 3.03995 4.35864 2.86038C4.49404 2.8403 4.62886 2.83399 4.76483 2.83399C5.78774 2.83399 6.81065 2.83112 7.83356 2.83628C8.06993 2.83743 8.27818 2.77662 8.48643 2.66417C9.5059 2.11342 10.5185 1.55176 11.546 1.01593C11.939 0.811114 12.3102 0.56557 12.7244 0.400917C14.3015 -0.22614 16.084 0.445666 16.8562 1.95909C16.9698 2.18226 17.0834 2.40543 17.1912 2.63147C17.252 2.75941 17.3381 2.82194 17.485 2.8403C19.2468 3.06003 20.5692 3.95099 21.4447 5.48966C21.7654 6.05304 21.9805 6.65944 21.9776 7.32321C21.9776 7.35247 21.9805 7.38001 22 7.40353L21.9989 7.4041Z" fill="#434A54"/>
<path d="M11.0267 6.54237C13.5946 6.54237 16.162 6.54065 18.7298 6.54294C19.8841 6.54409 20.8084 7.26294 21.0292 8.36617C21.1428 8.93528 21.0809 9.52103 21.0872 10.0999C21.0889 10.2519 20.9719 10.1974 20.9013 10.1974C19.8927 10.2009 18.8842 10.1837 17.8762 10.2037C16.6519 10.2284 15.703 10.7723 15.0926 11.8365C13.8591 13.9862 15.4236 16.5954 17.9467 16.6137C18.9266 16.6212 19.9065 16.6183 20.8864 16.6114C21.0419 16.6103 21.1004 16.643 21.0918 16.8105C21.062 17.3802 21.1497 17.9562 21.0161 18.5207C20.7803 19.5167 19.9186 20.2252 18.8945 20.2751C18.8234 20.2785 18.7517 20.2791 18.6799 20.2791C13.566 20.2791 8.45254 20.2797 3.33855 20.2791C2.15787 20.2791 1.25429 19.5821 0.994404 18.4748C0.948508 18.2792 0.935887 18.079 0.935887 17.8787C0.935887 14.946 0.939903 12.0132 0.933018 9.081C0.930724 8.22274 1.17742 7.49185 1.89741 6.97264C2.28409 6.69325 2.71781 6.54638 3.19742 6.54638C5.80777 6.54638 8.41869 6.54638 11.029 6.54638V6.54351L11.0267 6.54237Z" fill="#F6F7FB"/>
<path d="M5.07065 5.61162C5.90653 5.16069 6.68906 4.7373 7.47274 4.31563C9.24376 3.36213 11.0142 2.40692 12.7869 1.45687C13.8259 0.900376 14.998 1.11494 15.7111 1.98353C15.8408 2.14149 15.8182 2.26789 15.6434 2.36274C13.6842 3.41778 11.7245 4.47282 9.76583 5.52901C9.65683 5.5881 9.5484 5.62711 9.42161 5.62654C8.0126 5.62424 6.60301 5.62539 5.19399 5.62482C5.17449 5.62482 5.15498 5.6208 5.07065 5.61162V5.61162Z" fill="#F6F7FB"/>
<path d="M21.0721 13.4359C21.0721 14.1295 21.0686 14.8231 21.0749 15.5167C21.0761 15.6492 21.0514 15.6992 20.9034 15.698C19.8954 15.6905 18.8868 15.7014 17.8788 15.6917C16.7004 15.6802 15.7211 14.8065 15.6058 13.6814C15.4813 12.4669 16.2489 11.4102 17.4417 11.1658C17.6149 11.1302 17.7968 11.1227 17.9746 11.1222C18.9402 11.1181 19.9051 11.1256 20.8707 11.1153C21.0503 11.1135 21.0778 11.1749 21.0761 11.3333C21.068 12.0338 21.0726 12.7348 21.0726 13.4359H21.0721Z" fill="#F6F7FB"/>
<path d="M17.5635 5.60671C17.3759 5.62966 11.9137 5.63597 11.6108 5.6136C11.6045 5.54131 11.6733 5.54361 11.7089 5.5241C13.1828 4.72837 14.6595 3.93724 16.1316 3.13807C16.2698 3.06292 16.3215 3.06292 16.3955 3.21552C16.7586 3.96535 17.1367 4.70772 17.5079 5.45296C17.532 5.50115 17.575 5.54475 17.563 5.60614L17.5635 5.60671Z" fill="#FEFEFE"/>
<path d="M1.27893 6.28513C1.47801 5.81641 1.72069 5.45211 2.02303 5.13026C2.83596 4.26569 3.83593 3.8119 5.02636 3.79526C5.49393 3.78895 5.96207 3.79411 6.43824 3.83083C6.016 4.05973 5.59375 4.28922 5.17036 4.51755C4.61846 4.8153 4.06483 5.11076 3.51408 5.41023C3.28173 5.53645 3.04995 5.63283 2.77515 5.66094C2.24448 5.71544 1.76199 5.92771 1.27893 6.28513V6.28513Z" fill="#F6F7FB"/>
<path d="M20.7038 6.22744C20.1054 5.82298 19.452 5.61587 18.7309 5.62677C18.6591 5.62792 18.6087 5.60784 18.5754 5.54129C18.304 4.99398 18.0309 4.44724 17.7395 3.86206C19.1359 4.18047 20.1066 4.96586 20.7038 6.22744V6.22744Z" fill="#F6F7FB"/>
<path d="M17.8774 12.0377C18.6393 12.0377 19.2537 12.6515 19.2515 13.4123C19.2497 14.1678 18.6227 14.7892 17.8688 14.7834C17.123 14.7777 16.508 14.1604 16.5057 13.414C16.5034 12.6533 17.1167 12.0377 17.8774 12.0371V12.0377Z" fill="#434A54"/>
<path d="M17.8883 12.9487C18.139 12.9556 18.349 13.1811 18.3358 13.4278C18.3226 13.6733 18.1132 13.8678 17.8682 13.862C17.6152 13.8563 17.4064 13.6349 17.4207 13.3859C17.4345 13.1438 17.6502 12.9418 17.8889 12.9481L17.8883 12.9487Z" fill="#FDFDFD"/>
</svg>
