<svg width="19" height="19" viewBox="0 0 19 19" fill="none" xmlns="http://www.w3.org/2000/svg">
<path d="M10.2281 18.9998H9.89466C9.82036 18.9705 9.74653 18.9705 9.67224 18.9998H9.11642C9.07927 18.9728 9.04213 18.9728 9.00544 18.9998H8.70919C8.45009 18.9436 8.18495 18.9594 7.92306 18.9343C7.17315 18.8618 6.47107 18.6241 5.78152 18.3404C5.31811 18.1495 4.8742 17.9197 4.45025 17.6522C4.32534 17.5738 4.20415 17.5575 4.06299 17.5974C3.67666 17.7075 3.29822 17.8417 2.9156 17.9624C2.2502 18.1728 1.58666 18.3887 0.921718 18.599C0.862747 18.6176 0.80424 18.6404 0.742482 18.6455C0.625004 18.6557 0.566961 18.5981 0.577177 18.4816C0.584142 18.4012 0.615717 18.326 0.640792 18.2498C0.942614 17.3156 1.26951 16.3892 1.58944 15.4615C1.68277 15.1912 1.64795 14.9902 1.491 14.758C0.812134 13.7541 0.358472 12.6522 0.114692 11.4644C0.0399334 11.0999 0.0538636 10.728 0.019038 10.3597C0.0167163 10.3351 0.0185737 10.3105 0 10.291V10.1058C0.0315752 10.0723 0.0134659 10.031 0.0185737 9.99292C0.0185737 9.96924 0.0185737 9.94556 0.0185737 9.92187C0.0134659 9.88426 0.0315752 9.84247 0 9.80904V9.40135C0.0390047 9.32984 0.00928684 9.25276 0.0185737 9.17939C0.00928684 9.10556 0.0390047 9.02848 0 8.95697V8.73455C0.0413264 8.47406 0.0459698 8.21031 0.0650078 7.94749C0.108656 7.34663 0.289749 6.77921 0.493595 6.22107C0.904073 5.09597 1.50447 4.0772 2.30406 3.18474C3.05444 2.3466 3.91254 1.63616 4.90856 1.10124C5.77966 0.633182 6.6972 0.29607 7.66814 0.10569C7.93142 0.054148 8.19888 0.0471828 8.46449 0.0332526C9.33977 -0.0136459 10.2174 -0.0215398 11.088 0.0801511C11.909 0.175805 12.6867 0.448374 13.4376 0.788737C14.2975 1.17878 15.0902 1.67981 15.7941 2.30992C16.6467 3.07283 17.3682 3.94487 17.9115 4.95806C18.3731 5.81895 18.7 6.72674 18.8922 7.68421C18.9461 7.95307 18.954 8.2261 18.9679 8.49727C19.0129 9.37349 19.0222 10.252 18.9182 11.1236C18.824 11.913 18.5676 12.6638 18.2468 13.3891C17.6835 14.6619 16.8709 15.7577 15.8341 16.6808C14.7238 17.6694 13.4427 18.3525 12.0102 18.7578C11.4716 18.9101 10.9236 18.951 10.3715 18.9826C10.3237 18.9854 10.2726 18.9668 10.2285 19.0007L10.2281 18.9998Z" fill="#4CAE50"/>
<path d="M0 8.95654C0.0617575 9.02202 0.0278605 9.10188 0.0325039 9.17571C0.0241458 9.20357 0.0134659 9.2045 0 9.17896V8.95654Z" fill="#81C684"/>
<path d="M0 9.17891C0.0106799 9.17752 0.0218241 9.17659 0.0325039 9.17566C0.0385404 9.2532 0.0436481 9.33075 0 9.40133V9.17891V9.17891Z" fill="#6ABC6D"/>
<path d="M9.67236 18.9997C9.74666 18.9565 9.82049 18.9463 9.89478 18.9997H9.67236Z" fill="#72C076"/>
<path d="M0 9.80859C0.036683 9.83878 0.0357543 9.87964 0.0320396 9.92096C0.020431 9.94743 0.00975118 9.9465 0 9.91957V9.80859Z" fill="#90CD92"/>
<path d="M0.0306466 9.99528C0.0320396 10.0352 0.0515419 10.0803 0 10.1049V9.99389C0.0116085 9.96789 0.0218241 9.96835 0.0306466 9.99528V9.99528Z" fill="#B4DDB6"/>
<path d="M9.00537 18.9997C9.04252 18.9509 9.07967 18.9593 9.11635 18.9997H9.00537Z" fill="#95CF97"/>
<path d="M0.0306466 9.99524C0.020431 9.99524 0.0102155 9.99524 0 9.99385V9.91956C0.0106799 9.92048 0.0213597 9.92095 0.0320396 9.92095C0.0315752 9.94556 0.0311109 9.97017 0.0306466 9.99524V9.99524Z" fill="#A3D5A5"/>
<path d="M12.6442 14.8188C12.1112 14.8193 11.6529 14.6949 11.1987 14.5537C9.86746 14.139 8.62767 13.5531 7.55829 12.6369C6.59478 11.8118 5.78218 10.8566 5.0592 9.81835C4.57489 9.12277 4.16534 8.39143 4.03115 7.54586C3.8482 6.39383 4.14166 5.3811 5.06431 4.62469C5.47943 4.28432 5.99717 4.31868 6.49913 4.42548C6.63146 4.45381 6.69601 4.56571 6.74987 4.67994C7.07073 5.36067 7.31172 6.07622 7.63862 6.75276C7.83736 7.16417 7.76028 7.48132 7.46774 7.7915C7.2899 7.98002 7.12181 8.17783 6.95232 8.37378C6.80559 8.54327 6.79259 8.72157 6.911 8.91753C7.78907 10.3681 8.9606 11.4858 10.5477 12.1331C10.9819 12.31 11.1848 12.2599 11.4778 11.8861C11.6603 11.653 11.8349 11.4134 12.0095 11.1742C12.2663 10.8236 12.4729 10.7628 12.8676 10.9351C13.5743 11.2434 14.2573 11.6014 14.952 11.9344C15.1373 12.023 15.2106 12.1582 15.2032 12.362C15.1596 13.5976 14.7031 14.231 13.3746 14.6981C13.1239 14.7863 12.8611 14.8318 12.6433 14.8193L12.6442 14.8188Z" fill="#F9F9F9"/>
</svg>
