<svg width="32" height="18" viewBox="0 0 32 18" fill="none" xmlns="http://www.w3.org/2000/svg">
<rect width="32" height="18" rx="2" fill="#E4262B"/>
<path d="M1.93881 4.67198C1.93872 4.67194 1.93875 4.67182 1.93885 4.67182C2.16676 4.67182 2.37157 4.67182 2.57638 4.67182C2.99264 4.67182 3.40906 4.67064 3.82532 4.67317C3.87989 4.67351 3.90168 4.65611 3.91823 4.60475C4.10102 4.03645 4.28668 3.46883 4.47167 2.9012V2.9012C4.48078 2.87347 4.52042 2.87402 4.52946 2.90178C4.60336 3.12885 4.67416 3.34599 4.74484 3.56326C4.85752 3.90975 4.97189 4.2559 5.08153 4.6034C5.09943 4.66033 5.12596 4.67351 5.18187 4.67334C5.76977 4.67131 6.35767 4.67199 6.94556 4.67199C6.94734 4.67199 6.94912 4.67199 6.95091 4.67199C6.99739 4.67199 7.01742 4.70913 6.97986 4.73652V4.73652C6.50278 5.08385 6.02571 5.43118 5.54661 5.77564C5.49339 5.81399 5.48478 5.84643 5.50488 5.90725C5.68919 6.46625 5.87012 7.02628 6.05206 7.58596V7.58596C6.06228 7.61765 6.02573 7.6438 5.99871 7.62434C5.8766 7.5364 5.76274 7.45467 5.64932 7.37226C5.29016 7.11125 4.9305 6.85109 4.57337 6.58738C4.51931 6.54734 4.48535 6.54515 4.4291 6.58654C3.963 6.92964 3.49387 7.26887 3.02558 7.60927C3.01874 7.61426 3.01187 7.61919 3.0049 7.62415C2.97013 7.64883 2.93454 7.62866 2.94787 7.58816V7.58816C3.12964 7.0283 3.31074 6.46828 3.49539 5.90927C3.51667 5.84474 3.50434 5.81061 3.44961 5.77125C2.97051 5.42696 2.4936 5.07963 2.01619 4.73297C1.99608 4.71828 1.977 4.70223 1.93882 4.67199C1.93882 4.67199 1.93881 4.67199 1.93881 4.67198V4.67198Z" fill="#F4E600"/>
<path d="M11.3496 8.01096C11.3496 8.01102 11.3495 8.01103 11.3494 8.01098C11.1812 7.89783 11.031 7.80088 10.8858 7.69718C10.8312 7.65815 10.7949 7.65528 10.7413 7.69988V7.69988C10.604 7.81416 10.4 7.67691 10.4524 7.50605C10.4539 7.50117 10.4554 7.49629 10.4569 7.49141C10.4734 7.43752 10.4607 7.41134 10.4161 7.38228C10.2648 7.28357 10.1163 7.18096 9.96672 7.07987C9.9617 7.07647 9.95908 7.07048 9.96 7.06449V7.06449C9.96118 7.05683 9.96778 7.05116 9.97553 7.05119C10.0229 7.05138 10.0703 7.05237 10.1175 7.05083C10.255 7.04644 10.3925 7.03917 10.5302 7.03664C10.5749 7.03579 10.592 7.01873 10.6037 6.97616C10.6433 6.83021 10.6858 6.68503 10.7285 6.5385C10.7437 6.48599 10.7886 6.47714 10.8079 6.52831V6.52831C10.8589 6.66464 10.9108 6.8008 10.9572 6.93882C10.9768 6.99711 11.0035 7.02363 11.0698 7.0189C11.2125 7.00859 11.3559 7.00657 11.4992 7.00184V7.00184C11.544 7.00045 11.5636 7.05829 11.5284 7.08602C11.4252 7.16743 11.3288 7.24351 11.2319 7.31893C11.1284 7.39951 11.1282 7.39884 11.1716 7.51861C11.2285 7.67519 11.285 7.83193 11.3496 8.01079C11.3497 8.01085 11.3497 8.01092 11.3496 8.01096V8.01096Z" fill="#F4E600"/>
<path d="M9.34775 1.98596C9.34778 1.98599 9.3478 1.98604 9.3478 1.98608C9.33057 2.1957 9.31857 2.38066 9.29847 2.56478C9.29222 2.62239 9.31351 2.64334 9.36081 2.6626C9.50897 2.72274 9.6556 2.78609 9.80241 2.84961V2.84961C9.84153 2.86655 9.82893 2.9022 9.78743 2.91199C9.63601 2.94768 9.48621 2.98409 9.3353 3.01533C9.27634 3.0275 9.25269 3.04659 9.24897 3.11146C9.24673 3.15048 9.244 3.18947 9.2409 3.22866C9.22957 3.37212 9.03845 3.41522 8.96432 3.29188V3.29188C8.8981 3.18174 8.80276 3.14063 8.67831 3.16856V3.16856C8.5251 3.20279 8.43248 3.03515 8.53591 2.91705C8.54204 2.91005 8.54817 2.90306 8.55431 2.89607C8.65686 2.7795 8.65736 2.78001 8.57712 2.64621C8.51363 2.5404 8.45037 2.43459 8.38688 2.3287C8.36135 2.28612 8.37942 2.24414 8.42524 2.26323V2.26323C8.56495 2.32152 8.70517 2.37912 8.84268 2.44247C8.89978 2.46883 8.93408 2.46562 8.97665 2.41359C9.09166 2.2729 9.21428 2.13846 9.34752 1.98597C9.34758 1.9859 9.34769 1.98589 9.34775 1.98596V1.98596Z" fill="#F4E600"/>
<path d="M11.4283 4.0076C11.4283 4.0076 11.4283 4.00762 11.4283 4.00765C11.3425 4.17066 11.2592 4.33485 11.1696 4.49566C11.1426 4.54414 11.1475 4.57185 11.1859 4.60986C11.2979 4.72051 11.406 4.83505 11.5146 4.94908V4.94908C11.5467 4.98268 11.5195 5.01466 11.4737 5.00702C11.3352 4.98396 11.1979 4.96244 11.0625 4.93269C10.9764 4.91377 10.9321 4.93202 10.8938 5.01446C10.8928 5.01657 10.8918 5.01868 10.8908 5.0208C10.8198 5.1725 10.5857 5.13213 10.5709 4.9653V4.9653C10.5625 4.869 10.5248 4.83387 10.4311 4.82221V4.82221C10.2661 4.80176 10.2332 4.57072 10.3846 4.50225C10.3937 4.49816 10.4027 4.4941 10.4118 4.49008C10.4794 4.46018 10.4948 4.42436 10.4838 4.35662V4.35662C10.4562 4.1874 10.6633 4.07858 10.7852 4.19914C10.7896 4.20348 10.794 4.20783 10.7983 4.21218C10.8438 4.25763 10.875 4.26506 10.9328 4.23448C11.0901 4.1512 11.252 4.07609 11.412 3.99789C11.4138 3.99701 11.4159 3.99726 11.4175 3.99852C11.4211 4.00149 11.4248 4.00446 11.4284 4.00742C11.4285 4.00748 11.4284 4.0076 11.4283 4.0076V4.0076Z" fill="#F4E600"/>
<path d="M9.21899 9.94427C9.21899 9.94423 9.21897 9.94419 9.21895 9.94415C9.11861 9.79213 9.01625 9.64145 8.91946 9.48723C8.88821 9.4374 8.85983 9.42777 8.80374 9.445C8.65373 9.49095 8.50118 9.52879 8.34964 9.57035V9.57035C8.30836 9.58177 8.29409 9.54167 8.3206 9.50802C8.41001 9.39454 8.4974 9.28137 8.59072 9.17318C8.64309 9.11253 8.64967 9.06912 8.60051 9.00121C8.51289 8.88002 8.43314 8.75308 8.35041 8.62534C8.32853 8.59154 8.34159 8.56092 8.37938 8.57481V8.57481C8.53209 8.63056 8.68532 8.68546 8.83533 8.74814C8.89396 8.77264 8.92386 8.75878 8.95933 8.71199C9.05444 8.58664 9.15445 8.465 9.25294 8.34219V8.34219C9.27225 8.31811 9.31174 8.33583 9.31033 8.36665C9.30293 8.52795 9.29723 8.67869 9.28538 8.82906C9.27997 8.89799 9.30295 8.92569 9.36647 8.94765C9.36981 8.94881 9.37314 8.94997 9.37648 8.95113C9.55111 9.01195 9.53425 9.24913 9.35498 9.29448V9.29448C9.29315 9.31019 9.2624 9.33029 9.26139 9.4031C9.25905 9.58028 9.24516 9.75728 9.2357 9.93429C9.23551 9.93797 9.23293 9.9411 9.22935 9.94199C9.22602 9.94282 9.22267 9.94365 9.21925 9.94448C9.21912 9.94451 9.21899 9.94441 9.21899 9.94427V9.94427Z" fill="#F4E600"/>
</svg>
