<svg width="12" height="12" viewBox="0 0 12 12" fill="none" xmlns="http://www.w3.org/2000/svg">
<path d="M0.00478753 10.19C-0.00694423 9.89986 0.140876 9.69104 0.334059 9.49864C1.5698 8.26602 2.79929 7.02558 4.04364 5.80079C4.23213 5.61542 4.21727 5.52861 4.03895 5.35185C2.78209 4.11141 1.53617 2.86081 0.291042 1.6102C-0.0218048 1.29657 -0.0796814 0.93054 0.104116 0.569202C0.294953 0.193786 0.68914 -0.0283355 1.08411 0.0115524C1.33439 0.0373623 1.50958 0.185964 1.67774 0.35412C2.91192 1.58908 4.15001 2.82014 5.37715 4.06214C5.53983 4.22716 5.62352 4.22091 5.78307 4.05979C7.03133 2.79824 8.28819 1.5445 9.54584 0.291551C9.85243 -0.0134752 10.2044 -0.0768267 10.5602 0.0905465C10.938 0.268087 11.1726 0.658364 11.1468 1.05412C11.1296 1.31769 10.9787 1.50227 10.8027 1.67746C9.56695 2.91086 8.33668 4.14973 7.09468 5.3761C6.92887 5.53956 6.93747 5.62246 7.09781 5.78123C8.35936 7.02949 9.6131 8.28635 10.8661 9.54478C11.1726 9.85294 11.2336 10.2025 11.0655 10.56C10.8887 10.9362 10.4961 11.1724 10.1011 11.1458C9.8493 11.1286 9.66863 10.9901 9.49969 10.8212C8.25925 9.57919 7.01334 8.3411 5.77994 7.09206C5.61413 6.92391 5.53045 6.93955 5.37402 7.09754C4.12498 8.35909 2.86655 9.61126 1.61126 10.8666C1.32578 11.152 0.992602 11.2365 0.62266 11.0715C0.246462 10.9041 0.0321616 10.6069 0.00478753 10.1885V10.19Z" fill="#9AA6C3"/>
</svg>
