<svg width="19" height="19" viewBox="0 0 19 19" fill="none" xmlns="http://www.w3.org/2000/svg">
<path d="M13.8858 6.84036C13.8858 8.40341 13.8858 9.96646 13.8858 11.5295C13.8858 12.8103 12.995 13.6955 11.7014 13.696C8.53268 13.6972 5.36341 13.6972 2.19472 13.696C0.923765 13.696 0.0114618 12.8235 0.00739941 11.5713C-0.00246647 8.42402 -0.00246647 5.27616 0.00739941 2.12887C0.0114618 0.879002 0.928408 0.00186078 2.19588 0.00128823C5.36457 -0.00042941 8.53384 -0.00042941 11.7025 0.00128823C12.9833 0.00186078 13.8846 0.892171 13.8852 2.15177C13.8864 3.71483 13.8852 5.27788 13.8852 6.84093L13.8858 6.84036Z" fill="#434A54"/>
<path d="M12.0508 18.9984C10.4659 18.9984 8.88096 19.003 7.29604 18.9967C6.39302 18.9932 5.71692 18.6039 5.30952 17.7972C5.17604 17.5333 5.11394 17.2487 5.11394 16.9521C5.11452 16.324 5.1122 15.6954 5.11394 15.0673C5.1151 14.6545 5.41224 14.3465 5.80629 14.343C6.19861 14.3396 6.50213 14.6448 6.50561 15.0576C6.51025 15.6427 6.52012 16.229 6.50271 16.8136C6.48936 17.2647 6.79868 17.6134 7.30184 17.6111C10.4641 17.5974 13.627 17.5968 16.7893 17.6111C17.278 17.6134 17.5925 17.2853 17.5902 16.8222C17.5763 13.7023 17.5769 10.5825 17.5896 7.46273C17.5914 6.99267 17.2791 6.66231 16.7812 6.67433C16.2821 6.68636 15.7819 6.66059 15.2833 6.68178C14.851 6.7001 14.5173 6.39608 14.5074 5.99357C14.4975 5.59451 14.8283 5.30251 15.2775 5.30137C15.7842 5.30022 16.2908 5.30022 16.7975 5.30137C18.0731 5.30366 18.9859 6.16534 18.9906 7.42093C19.0022 10.5694 19.001 13.7178 18.9912 16.8657C18.9871 18.1178 18.0725 18.9944 16.8044 18.9967C15.2195 18.9995 13.6346 18.9973 12.0497 18.9973L12.0508 18.9984Z" fill="#434A54"/>
<path d="M1.4164 6.86616C1.4164 5.3031 1.42859 3.74005 1.40886 2.177C1.40306 1.71323 1.7176 1.38459 2.208 1.38688C5.36972 1.4012 8.53144 1.4012 11.6926 1.38688C12.2108 1.38459 12.4975 1.74186 12.4964 2.17929C12.4882 5.29108 12.4923 8.40287 12.4917 11.5147C12.4917 12.046 12.2172 12.3197 11.6787 12.3202C8.52448 12.3214 5.36972 12.3179 2.21554 12.3237C1.72747 12.3248 1.40248 12.0116 1.40828 11.5336C1.42685 9.97795 1.41524 8.42177 1.41524 6.86616H1.4164Z" fill="white"/>
</svg>
