<svg width="36" height="36" viewBox="0 0 36 36" fill="none" xmlns="http://www.w3.org/2000/svg">
<path d="M0 17.3185V16.546C0.0779031 16.0514 0.0788417 15.5511 0.114508 15.0527C0.170824 14.2765 0.373559 13.5332 0.59319 12.7935C1.33937 10.2884 2.58582 8.05366 4.30438 6.09294C5.77234 4.41755 7.48714 3.0397 9.46663 1.99505C11.1899 1.08649 12.992 0.40883 14.9227 0.153534C16.3428 -0.0341847 17.7788 -0.0154129 19.213 0.0315167C20.3327 0.0681218 21.4393 0.149779 22.5271 0.439804C25.1786 1.1475 27.5674 2.35828 29.6576 4.14442C31.4541 5.67902 32.9361 7.4661 34.0324 9.56854C34.9269 11.2833 35.6073 13.0742 35.8514 14.9955C36.0297 16.4043 36.0184 17.8272 35.9668 19.2492C35.9274 20.3332 35.8608 21.407 35.5848 22.4629C34.9071 25.06 33.7461 27.4177 32.0379 29.4864C30.5061 31.342 28.6946 32.8738 26.5584 34.0142C25.0397 34.8251 23.4451 35.4089 21.7669 35.7731C21.0826 35.9214 20.3824 35.9054 19.6888 35.9645C19.61 35.9711 19.5246 35.9392 19.4532 35.9993H19.1726C19.1257 35.9561 19.0787 35.9561 19.0318 35.9993H18.6104C18.4696 35.9439 18.3297 35.9439 18.189 35.9993H17.7675C17.6033 35.943 17.44 35.943 17.2757 35.9993H16.9247C16.8777 35.9561 16.8308 35.9561 16.7839 35.9993H16.4329C15.9645 35.9148 15.4896 35.9223 15.0175 35.8838C13.8752 35.7909 12.7939 35.4493 11.7286 35.0569C9.64403 34.291 7.74901 33.1891 6.08301 31.7202C4.49491 30.3189 3.14804 28.7111 2.1184 26.8489C1.24082 25.2618 0.601637 23.5864 0.228078 21.8106C0.0835346 21.1254 0.0919819 20.4243 0.0347279 19.7307C0.0281577 19.6518 0.0600698 19.5664 0 19.4951V18.7226C0.0553769 18.5818 0.0553769 18.442 0 18.3012V17.739C0.0553769 17.5982 0.0553769 17.4583 0 17.3176L0 17.3185Z" fill="#2E72B8"/>
<path d="M16.3991 22.8599C16.3991 21.6941 16.3947 20.5276 16.4036 19.3618C16.4051 19.1607 16.362 19.0894 16.1468 19.0961C15.6289 19.1132 15.1101 19.1035 14.5922 19.1005C14.167 19.0983 14.0074 18.9365 14.0052 18.5099C14.0022 17.7604 14 17.0109 14 16.2614C14 15.8376 14.1595 15.681 14.5914 15.6796C15.1191 15.6773 15.6467 15.6707 16.1735 15.6833C16.3613 15.6877 16.3999 15.6217 16.4021 15.4473C16.414 14.4945 16.3583 13.5416 16.4414 12.5896C16.6255 10.4947 18.097 9.081 20.1941 9.01348C20.9243 8.98973 21.656 9.00383 22.387 9.00754C22.7268 9.00902 22.8968 9.1797 22.8997 9.52328C22.9057 10.18 22.9049 10.8375 22.8997 11.4942C22.8968 11.8579 22.7387 12.0226 22.3773 12.0322C22.0167 12.0426 21.6553 12.0337 21.2946 12.036C21.1655 12.0367 21.0356 12.0434 20.9065 12.0538C20.1311 12.1139 19.7103 12.5139 19.6784 13.2856C19.648 14.0247 19.6724 14.7661 19.6606 15.5059C19.6576 15.6996 19.7689 15.6796 19.8914 15.6796C20.724 15.6788 21.5573 15.6781 22.3899 15.6796C22.876 15.6803 23.0445 15.8658 22.9903 16.3511C22.9057 17.1044 22.8137 17.8576 22.7239 18.61C22.6831 18.9514 22.5243 19.0976 22.1733 19.0998C21.4609 19.1043 20.7477 19.0998 20.0353 19.102C19.6146 19.1035 19.6747 19.056 19.6739 19.4768C19.6695 21.7349 19.668 23.9931 19.6658 26.2512C19.6658 26.6876 19.5812 26.7736 19.153 26.7736C18.3938 26.7736 17.6354 26.7744 16.8763 26.7736C16.4964 26.7736 16.3977 26.6772 16.3969 26.3017C16.3954 25.1544 16.3969 24.0064 16.3969 22.8592L16.3991 22.8599Z" fill="#FEFEFE"/>
<path d="M17.2754 35.9994C17.4396 35.898 17.603 35.9046 17.7672 35.9994H17.2754Z" fill="#467CBF"/>
<path d="M0 17.3186C0.0966749 17.4593 0.0910434 17.5992 0 17.74V17.3186Z" fill="#437ABE"/>
<path d="M0 18.3021C0.0910434 18.4429 0.0966749 18.5827 0 18.7235V18.3021Z" fill="#437ABE"/>
<path d="M18.1895 35.9993C18.3302 35.9092 18.4701 35.9035 18.6109 35.9993H18.1895Z" fill="#467CBF"/>
<path d="M16.7832 35.9994C16.8301 35.9206 16.8771 35.9328 16.924 35.9994H16.7832Z" fill="#A5B6DF"/>
<path d="M19.0312 35.9994C19.0782 35.9328 19.1251 35.9206 19.172 35.9994H19.0312Z" fill="#A5B6DF"/>
</svg>
