<svg width="36" height="36" viewBox="0 0 36 36" fill="none" xmlns="http://www.w3.org/2000/svg">
<path d="M16.5724 0H16.853C17.0173 0.0563144 17.1806 0.0563144 17.3448 0H18.4683C18.656 0.057253 18.8428 0.057253 19.0305 0H19.3816C19.9344 0.0779016 20.4966 0.0525601 21.0485 0.127646C22.5305 0.328501 23.9393 0.791218 25.303 1.38909C27.3594 2.29106 29.1774 3.54969 30.7655 5.13494C32.0307 6.39826 33.096 7.81081 33.9407 9.39137C34.8802 11.1484 35.5363 13.0002 35.8516 14.9693C35.9586 15.6395 35.9633 16.319 35.9821 16.9929C36.0168 18.1952 36.0084 19.4003 35.8901 20.5989C35.7446 22.0771 35.3176 23.485 34.7526 24.8506C34.0749 26.4912 33.1964 28.0202 32.0617 29.3896C30.5628 31.1973 28.8142 32.7093 26.7494 33.8487C24.9717 34.8295 23.0852 35.4875 21.0898 35.8451C20.6852 35.9173 20.2769 35.9295 19.8705 35.9483C18.3651 36.0178 16.8577 36.0328 15.3551 35.8911C13.8524 35.7493 12.4267 35.2988 11.0395 34.7263C9.21961 33.9764 7.55552 32.9608 6.08196 31.6581C4.49483 30.2549 3.14985 28.6443 2.12305 26.7794C1.19574 25.0975 0.534049 23.3207 0.183022 21.4314C0.0760245 20.857 0.0807173 20.2704 0.0347272 19.6894C0.0281572 19.6106 0.0600687 19.5252 0 19.4538V19.0324C0.0563144 18.8682 0.0563144 18.7048 0 18.5406V17.4171C0.057253 17.2294 0.057253 17.0426 0 16.8549V16.4335C0.0844716 15.9633 0.063823 15.4837 0.11826 15.0116C0.272186 13.6769 0.673896 12.4061 1.17416 11.169C2.02544 9.06662 3.24183 7.19886 4.80081 5.54322C6.28563 3.96641 7.99477 2.70215 9.91979 1.73167C11.4093 0.98081 12.9824 0.450515 14.6286 0.163312C15.1796 0.0675773 15.7436 0.0657002 16.3021 0.0337887C16.3931 0.0290958 16.4898 0.063823 16.5733 0L16.5724 0Z" fill="#13A6DD"/>
<path d="M13.6664 22.2254C13.0206 22.078 12.4274 21.8265 11.9159 21.4051C11.3612 20.948 10.9567 20.3858 10.7202 19.7063C10.6235 19.4275 10.6958 19.3365 10.9848 19.3599C11.1557 19.3731 11.3265 19.405 11.5471 19.358C11.0393 19.0605 10.5991 18.7433 10.2546 18.3087C9.72904 17.648 9.42776 16.9027 9.3996 16.0561C9.38458 15.6178 9.4653 15.5662 9.85481 15.7408C10.0341 15.8206 10.2068 15.9191 10.4405 15.9341C10.4283 15.783 10.3138 15.7136 10.2453 15.6197C9.30199 14.3235 9.14712 12.9476 9.83134 11.4909C10.0172 11.0948 10.1148 11.0836 10.3935 11.4093C12.0689 13.3624 14.1816 14.5253 16.7195 14.9252C16.7308 14.927 16.7421 14.9298 16.7543 14.9327C17.3897 15.0397 17.4028 15.0265 17.4047 14.3958C17.4113 12.8096 18.1011 11.6054 19.5259 10.9193C20.96 10.2285 22.3707 10.3815 23.6509 11.3539C23.9334 11.5688 24.185 11.6326 24.521 11.5256C25.0466 11.3576 25.5525 11.1521 26.0339 10.8846C26.1475 10.8217 26.2695 10.7485 26.3925 10.8452C26.5286 10.9522 26.4375 11.0845 26.3972 11.199C26.2198 11.6974 25.9298 12.132 25.5403 12.574C25.9476 12.5919 26.231 12.4173 26.5333 12.3159C26.6515 12.2765 26.7735 12.1864 26.888 12.314C27.0213 12.4614 26.8946 12.575 26.8195 12.6848C26.4741 13.1897 26.0734 13.6515 25.5994 14.0344C25.2559 14.3123 25.1451 14.6314 25.1338 15.0641C25.024 19.1609 22.4683 23.4343 18.0251 24.8806C15.0864 25.837 12.2191 25.6211 9.46624 24.1814C9.26538 24.0763 8.9397 24.0124 9.02041 23.6867C9.10207 23.3582 9.41555 23.4587 9.64644 23.4605C10.9999 23.4709 12.2585 23.1349 13.4223 22.445C13.5077 22.3943 13.6185 22.3662 13.6673 22.2273L13.6664 22.2254Z" fill="white"/>
</svg>
