<svg width="36" height="36" viewBox="0 0 36 36" fill="none" xmlns="http://www.w3.org/2000/svg">
<path d="M19.3829 36.0001H18.8207C18.7034 35.9447 18.587 35.9447 18.4697 36.0001H17.487C17.3463 35.9447 17.2064 35.9447 17.0656 36.0001H16.5034C16.0098 35.9222 15.5086 35.9297 15.0121 35.8837C13.8868 35.7786 12.814 35.4501 11.7638 35.0597C10.2358 34.4928 8.79514 33.7532 7.46897 32.794C5.81806 31.5993 4.39429 30.1858 3.20514 28.5293C1.82454 26.6062 0.882236 24.4888 0.318168 22.1941C0.119196 21.3831 0.0919778 20.5572 0.0347263 19.7322C0.029095 19.6534 0.0600671 19.568 0 19.4967V19.216C0.0516202 19.1456 0.0516202 19.0753 0 19.0058V18.7252C0.0553744 18.5844 0.0553744 18.4446 0 18.3038V17.7416C0.0553744 17.6008 0.0553744 17.461 0 17.3202V16.9692C0.0431732 16.9222 0.0431732 16.8753 0 16.8284V16.4774C0.0835309 16.0071 0.0703912 15.5285 0.11638 15.0545C0.237453 13.8222 0.616627 12.6546 1.04836 11.5049C1.79544 9.51332 2.89261 7.72351 4.28823 6.1261C5.73829 4.46674 7.42955 3.09928 9.37798 2.0528C11.0082 1.17713 12.7258 0.56332 14.5409 0.209487C15.0937 0.101554 15.6531 0.075275 16.2116 0.0471185C17.7649 -0.030781 19.32 -0.0167028 20.8677 0.12408C21.6702 0.197286 22.451 0.419722 23.2235 0.653421C25.6168 1.37986 27.7698 2.5446 29.6713 4.17204C31.448 5.69249 32.9121 7.46165 34.0036 9.53772C34.914 11.2703 35.5597 13.0883 35.8582 15.0245C35.9671 15.7284 35.9652 16.4445 35.984 17.155C36.0168 18.3817 36.0074 19.6112 35.877 20.8313C35.7296 22.2119 35.3279 23.5343 34.7986 24.8117C34.1247 26.4382 33.2669 27.9643 32.1453 29.3336C30.7403 31.0483 29.1185 32.5087 27.2038 33.6387C25.4037 34.7012 23.4844 35.4389 21.4308 35.8237C20.8452 35.9335 20.2464 35.9194 19.6532 35.9654C19.5622 35.972 19.4655 35.9353 19.382 36.0001H19.3829Z" fill="#32A737"/>
<path d="M17.0664 36.0001C17.2072 35.8865 17.347 35.9119 17.4878 36.0001H17.0664Z" fill="#6FB759"/>
<path d="M18.4688 36.0001C18.5861 35.9175 18.7024 35.8922 18.8198 36.0001H18.4688Z" fill="#70B75A"/>
<path d="M17.7706 9.03186C22.3911 9.0525 26.1068 12.2558 26.7704 16.5778C27.5306 21.5361 24.1481 26.0787 19.1559 26.7845C17.4722 27.022 15.8485 26.7667 14.2999 26.0637C14.0981 25.9717 13.9188 25.9473 13.6973 26.0008C12.3486 26.3302 10.9952 26.6428 9.64373 26.9591C9.21481 27.0595 9.03743 26.9018 9.12284 26.4748C9.40628 25.0557 9.69347 23.6376 9.99193 22.2213C10.0257 22.0589 10.006 21.9322 9.94031 21.7886C7.52543 16.5759 10.3636 10.6471 15.9329 9.27588C16.6162 9.10788 17.3136 9.03467 17.7706 9.03279V9.03186Z" fill="white"/>
<path d="M11.475 24.547C11.6232 23.8215 11.7237 23.1504 11.9048 22.5019C12.0522 21.9726 11.9611 21.5371 11.7312 21.0434C10.4876 18.3704 10.7307 15.7988 12.6003 13.5247C14.4933 11.2224 17.0227 10.4462 19.8806 11.2496C22.684 12.038 24.3856 13.994 24.8521 16.8753C25.495 20.8397 22.7666 24.3931 18.7759 24.8839C17.3108 25.0641 15.9133 24.7845 14.6116 24.0749C14.3751 23.9463 14.1554 23.9069 13.8814 23.9782C13.1052 24.1828 12.3196 24.3499 11.474 24.547H11.475Z" fill="#33A737"/>
<path d="M13.4785 15.7228C13.4851 14.911 14.0285 14.2849 14.7221 13.7659C15.0168 13.5454 15.4166 13.6636 15.5865 14.0099C15.8643 14.5749 16.1121 15.155 16.3561 15.7359C16.4462 15.9518 16.4021 16.1733 16.2529 16.3648C16.1374 16.5121 16.022 16.6595 15.9112 16.8106C15.7226 17.0668 15.716 17.3371 15.9009 17.5905C16.663 18.636 17.6138 19.4704 18.7428 20.1011C19.0422 20.2682 19.3435 20.2297 19.5322 19.9688C19.9902 19.3343 20.5458 19.2818 21.2178 19.5662C21.5275 19.6966 21.8673 19.7548 22.1911 19.8533C22.7673 20.0289 22.925 20.4606 22.6021 20.959C21.7894 22.2119 20.7466 22.5742 19.1943 22.1321C17.8531 21.7502 16.77 20.9439 15.777 20.0045C14.922 19.1954 14.1683 18.3085 13.7432 17.186C13.5799 16.7561 13.4907 16.3122 13.4795 15.7247L13.4785 15.7228Z" fill="white"/>
</svg>
