<!-- Generated by IcoMoon.io -->
<svg version="1.1" xmlns="http://www.w3.org/2000/svg" width="1024" height="1024" viewBox="0 0 1024 1024">
<title></title>
<g id="icomoon-ignore">
</g>
<path fill="#297e80" d="M472 460h80v80h-80v-80z"></path>
<path fill="#297e80" d="M904 80h-48v-80h-80v80h-528v-80h-80v80h-48c-66.168 0-120 53.832-120 120v704c0 66.168 53.832 120 120 120h411.524c-27.656-22.828-51.744-49.822-71.326-80h-340.198c-22.056 0-40-17.944-40-40v-528h864v84.198c30.176 19.582 57.172 43.672 80 71.326v-331.524c0-66.168-53.832-120-120-120zM944 296h-864v-96c0-22.056 17.944-40 40-40h48v80h80v-80h528v80h80v-80h48c22.056 0 40 17.944 40 40v96z"></path>
<path fill="#297e80" d="M754 484c-148.878 0-270 121.122-270 270s121.122 270 270 270 270-121.122 270-270-121.122-270-270-270zM754 944c-104.766 0-190-85.234-190-190s85.234-190 190-190 190 85.234 190 190-85.234 190-190 190z"></path>
<path fill="#297e80" d="M792 620h-80v174h148v-80h-68z"></path>
<path fill="#297e80" d="M312 620h80v80h-80v-80z"></path>
<path fill="#297e80" d="M152 620h80v80h-80v-80z"></path>
<path fill="#297e80" d="M152 460h80v80h-80v-80z"></path>
<path fill="#297e80" d="M152 780h80v80h-80v-80z"></path>
<path fill="#297e80" d="M312 460h80v80h-80v-80z"></path>
<path fill="#297e80" d="M312 780h80v80h-80v-80z"></path>
</svg>
