<!-- Generated by IcoMoon.io -->
<svg version="1.1" xmlns="http://www.w3.org/2000/svg" width="512" height="512" viewBox="0 0 512 512">
<title></title>
<g id="icomoon-ignore">
</g>
<path fill="#297e80" d="M288 32c0-17.6-14.4-32-32-32s-32 14.4-32 32v288h-32v64h32v96c0 17.6 14.4 32 32 32s32-14.4 32-32v-96h32v-64h-32v-288zM96 32c0-17.6-14.4-32-32-32s-32 14.4-32 32v160h-32v64h32v224c0 17.6 14.4 32 32 32s32-14.4 32-32v-224h32v-64h-32v-160zM512 128h-32v-96c0-17.6-14.4-32-32-32s-32 14.4-32 32v96h-32v64h32v288c0 17.6 14.4 32 32 32s32-14.4 32-32v-288h32v-64z"></path>
</svg>
