<svg width="820" height="826" viewBox="0 0 820 826" fill="none" xmlns="http://www.w3.org/2000/svg">
<path d="M226.686 106.53C226.826 108.64 226.976 109.86 226.976 111.08C227.006 163.05 227.026 215.03 227.056 267C227.066 280.72 226.836 294.44 227.126 308.15C227.696 335.03 234.136 360.24 249.696 382.59C264.566 403.96 283.546 420.26 308.406 428.98C317.816 432.28 327.556 434.31 337.566 434.73C345.136 435.05 345.136 435.03 345.136 442.61C345.136 446.79 345.206 450.97 345.106 455.15C345.056 457.12 345.786 457.78 347.746 457.72C354.056 457.51 360.366 457.31 366.686 457.33C372.456 457.35 378.236 457.7 384.006 457.83C391.486 458 398.016 455.44 402.896 449.83C406.466 445.72 410.306 445.17 415.216 446.5C427.596 449.84 440.016 453.05 452.486 456.08C459.056 457.68 465.766 458.22 472.556 457.27C474.596 456.98 474.596 455.85 474.596 454.39C474.576 449.25 474.696 444.1 474.536 438.96C474.456 436.42 475.136 435.37 477.886 435.27C500.996 434.43 521.936 427.08 540.686 413.65C558.986 400.54 571.976 383.08 581.326 362.79C589.816 344.38 592.876 324.86 592.876 304.73C592.866 204.53 592.866 104.34 592.866 4.14C592.866 2.89 592.866 1.63 592.866 0C594.356 0 595.496 0 596.646 0C639.186 0 681.725 0 724.255 0C728.715 0 729.136 0.539999 728.616 5.14C728.456 6.52 728.505 7.92 728.505 9.31C728.485 101.47 728.476 193.63 728.456 285.78C728.456 293.82 728.466 301.85 728.406 309.89C728.166 340.91 724.145 371.32 713.565 400.64C702.285 431.89 686.726 460.78 665.846 486.73C645.806 511.63 621.806 531.87 594.316 548.07C573.056 560.6 550.516 570.12 526.316 575.08C514.836 577.43 503.076 578.49 491.426 579.92C487.086 580.45 482.676 580.37 478.296 580.64C476.156 580.77 475.126 579.93 475.026 577.75C474.886 574.35 474.616 570.95 474.376 567.23C473.676 567.56 473.076 567.69 472.656 568.05C467.296 572.64 461.136 573.98 454.346 572.49C451.626 571.89 449.786 572.45 448.016 574.81C443.916 580.29 438.156 582.68 431.406 581.95C426.726 581.44 423.426 582.9 420.086 586.27C413.886 592.51 406.206 592.78 398.346 589.72C396.506 589 395.476 589.34 394.146 590.6C390.686 593.84 387.016 596.96 382.066 597.42C375.156 598.06 369.586 595.09 365.866 589.5C359.716 580.23 354.036 570.64 348.136 561.2C347.566 560.29 346.806 559.49 346.126 558.64C345.856 558.75 345.586 558.85 345.306 558.96C345.306 564.37 345.306 569.78 345.306 575.18C345.306 580.31 344.916 580.8 339.866 580.64C311.946 579.75 284.856 574.79 258.896 564.21C229.336 552.16 202.836 535.33 179.456 513.6C151.286 487.41 129.856 456.49 114.656 421.18C106.676 402.65 100.366 383.58 96.6255 363.76C94.8055 354.11 93.5255 344.32 92.7655 334.53C91.8855 323.23 91.6655 311.87 91.5055 300.53C91.3555 290.47 91.7355 280.4 91.7755 270.34C91.7955 266.17 91.5755 262 91.4055 257.83C91.2055 252.93 93.0255 248.83 96.3055 245.33C106.846 234.08 117.446 222.87 127.976 211.62C146.346 192 164.696 172.37 183.026 152.71C196.456 138.3 209.846 123.85 223.276 109.44C224.086 108.57 225.106 107.87 226.686 106.53ZM435.996 492.91C422.046 501.25 408.526 509.06 395.326 517.37C389.716 520.9 384.406 521.37 378.036 519.92C364.736 516.89 357.186 499.22 364.746 486.98C367.946 481.8 372.756 477.61 376.846 472.99C377.486 472.26 378.186 471.59 379.416 470.31C377.616 470.17 376.706 470.05 375.806 470.05C362.846 470.04 349.876 470.13 336.916 469.97C334.096 469.94 333.566 470.94 333.586 473.48C333.676 491.59 333.636 509.69 333.636 527.8C333.636 528.84 333.636 529.87 333.636 530.82C335.956 530.82 337.856 530.6 339.696 530.86C345.166 531.63 347.556 536.04 349.976 540.19C354.896 548.59 359.596 557.11 364.476 565.53C367.686 571.08 370.896 576.64 374.406 581.99C376.016 584.45 378.686 586.17 381.796 585.61C384.906 585.06 386.406 582.59 387.486 579.67C388.606 576.66 387.536 574.22 386.186 571.79C383.336 566.64 380.236 561.63 377.516 556.41C376.596 554.65 376.006 552.39 376.206 550.45C376.466 547.97 378.916 546.22 381.026 546.66C383.136 547.11 385.406 548.9 386.666 550.75C388.866 554 390.316 557.75 392.136 561.26C394.686 566.18 396.966 571.3 400.046 575.88C401.326 577.79 404.286 579.4 406.606 579.58C409.386 579.8 411.956 577.65 412.636 574.69C413.136 572.53 413.466 569.81 412.586 567.96C409.966 562.48 406.686 557.33 403.706 552.02C401.306 547.74 398.696 543.56 396.706 539.1C395.266 535.86 396.726 532.82 399.466 531.54C401.936 530.38 403.816 531.18 405.926 534.61C409.746 540.8 413.446 547.07 417.216 553.29C420.096 558.05 422.926 562.84 425.936 567.51C427.556 570.03 430.366 571.16 432.936 570.07C435.066 569.17 437.696 567.07 438.106 565.09C438.706 562.19 438.286 558.52 436.916 555.9C433.366 549.08 429.006 542.69 425.076 536.07C422.136 531.12 419.036 526.23 416.626 521.02C414.976 517.46 416.316 514.65 419.076 513.42C421.756 512.23 423.966 513.2 426.146 516.71C427.896 519.53 429.486 522.44 431.166 525.31C437.046 535.38 442.806 545.53 448.856 555.49C453.406 562.98 461.626 563.3 466.056 556.5C469.426 551.33 467.516 546.76 464.816 542.15C457.906 530.33 451.056 518.47 444.156 506.65C441.516 502.15 438.836 497.68 435.996 492.91ZM480.296 500.1C480.296 491.32 480.296 482.54 480.296 473.76C480.296 469.37 480.296 469.37 475.766 469.38C474.486 469.38 473.196 469.37 471.916 469.43C461.056 469.98 450.516 468.14 440.076 465.36C431.466 463.06 422.796 460.99 414.146 458.81C411.626 458.17 409.616 458.9 407.726 460.67C403.756 464.4 399.626 467.98 395.616 471.67C389.076 477.67 382.356 483.5 376.116 489.8C368.946 497.06 372.756 504.86 378.436 507.79C383.006 510.14 387.396 508.63 391.466 506.21C404.696 498.33 417.876 490.38 431.076 482.44C438.326 478.08 440.606 478.67 444.856 486.04C444.906 486.13 444.946 486.24 444.996 486.33C452.346 499.5 459.696 512.66 467.036 525.83C470.016 531.17 471.356 531.6 477.366 530.6C479.996 530.16 480.356 529 480.336 526.77C480.246 517.88 480.296 508.99 480.296 500.1ZM321.236 500.24C321.236 487.17 321.166 474.1 321.296 461.03C321.316 458.42 320.626 457.38 317.906 457.43C310.626 457.56 303.336 457.52 296.056 457.45C293.686 457.43 292.626 458.08 292.636 460.74C292.716 486.99 292.706 513.24 292.656 539.48C292.646 542.37 293.866 543.08 296.606 542.98C303.446 542.73 310.296 542.61 317.136 542.78C320.876 542.87 321.246 542.86 321.246 539.14C321.246 526.16 321.236 513.2 321.236 500.24ZM492.116 499.81C492.186 499.81 492.256 499.81 492.326 499.81C492.326 512.88 492.426 525.95 492.236 539.01C492.196 541.51 492.746 542.2 495.146 542.16C501.996 542.05 508.856 542 515.706 542.18C518.546 542.25 519.556 541.59 519.546 538.48C519.406 512.77 519.466 487.06 519.466 461.35C519.466 460.81 519.676 460.14 519.426 459.77C518.936 459.03 518.216 457.91 517.576 457.9C509.756 457.77 501.936 457.76 494.126 457.91C493.446 457.92 492.216 459.25 492.216 459.97C492.086 473.25 492.116 486.53 492.116 499.81Z" fill="#5CBFC1"/>
<path d="M232.465 685.34C261.145 685.34 289.135 685.34 318.185 685.34C315.745 681.79 313.985 678.81 311.825 676.17C302.875 665.2 291.435 659.01 277.375 656.37C246.455 650.57 221.015 672.62 213.245 695.92C205.655 718.67 215.545 746.81 236.545 760.35C247.015 767.1 258.385 770.06 270.815 769.97C297.165 769.79 323.525 769.91 349.875 769.93C350.985 769.93 352.095 770.12 353.965 770.3C352.835 771.87 352.255 772.97 351.405 773.81C334.865 790.15 318.285 806.43 301.775 822.79C299.965 824.58 298.125 825.39 295.555 825.35C287.095 825.22 278.625 825.11 270.165 825.34C253.405 825.79 237.595 821.84 222.395 815.17C207.445 808.61 193.945 799.87 183.185 787.39C175.025 777.93 168.655 767.44 164.295 755.63C160.685 745.85 157.935 735.89 156.885 725.59C156.125 718.16 156.435 710.61 156.475 703.12C156.585 684.04 162.555 666.77 173.505 651.31C187.825 631.09 206.345 615.96 229.635 607.13C245.645 601.06 262.245 598.76 279.335 600.93C322.945 606.47 354.205 628.97 372.425 669.1C380.055 685.9 381.395 703.89 381.325 722.05C381.305 726.98 381.055 731.9 381.075 736.83C381.085 739.19 380.185 740.02 377.825 740.01C347.935 739.96 318.045 740.03 288.145 739.84C285.855 739.83 282.995 738.56 281.385 736.91C265.305 720.42 249.445 703.73 233.525 687.09C233.265 686.82 233.105 686.42 232.465 685.34Z" fill="#343434"/>
<path d="M464.775 825.09C463.695 825.15 462.745 825.25 461.805 825.25C445.945 825.26 430.085 825.2 414.225 825.31C411.455 825.33 410.485 824.53 410.495 821.67C410.575 781.59 410.355 741.51 410.695 701.43C410.795 689.55 413.795 678.04 418.085 666.84C423.715 652.13 432.435 639.67 443.905 629.05C454.965 618.81 467.735 611.35 482.015 606.58C496.925 601.6 512.265 599.63 527.815 602.31C567.475 609.15 595.585 630.91 610.695 668.43C615.535 680.45 617.455 693.31 617.475 706.33C617.515 744.27 617.495 782.2 617.495 820.14C617.495 821.61 617.495 823.08 617.495 824.73C616.235 824.81 615.405 824.9 614.575 824.9C598.505 824.91 582.425 824.81 566.355 824.98C563.185 825.01 562.545 823.74 562.545 821.05C562.585 803.37 562.535 785.69 562.565 768.01C562.595 748.61 562.645 729.22 562.765 709.82C562.825 699.29 561.325 689.16 555.625 680.03C548.015 667.84 537.035 660.58 523.035 657.62C500.955 652.95 476.265 666.31 468.735 687.62C466.635 693.57 465.355 700.02 465.015 706.32C464.465 716.57 465.075 726.88 465.075 737.17C465.055 765.57 464.975 793.97 464.915 822.36C464.915 823.21 464.825 824.05 464.775 825.09Z" fill="#343434"/>
<path d="M819.545 602.1C812.155 609.5 805.335 616.3 798.565 623.13C789.215 632.56 779.925 642.04 770.555 651.45C766.295 655.73 761.045 657.34 755.065 657.03C750.255 656.78 745.425 656.68 740.605 656.64C736.605 656.61 736.435 656.86 736.435 660.81C736.435 714.39 736.435 767.98 736.445 821.56C736.445 822.61 736.445 823.67 736.445 824.99C718.065 824.99 699.925 824.99 681.565 824.99C681.565 823.85 681.565 822.9 681.565 821.95C681.565 769.97 681.565 718 681.555 666.02C681.555 664.31 681.115 662.59 681.265 660.91C681.615 656.97 679.575 656.52 676.245 656.56C661.355 656.72 646.455 656.57 631.565 656.69C628.895 656.71 628.145 655.99 628.165 653.28C628.295 637.21 628.295 621.13 628.165 605.06C628.145 602.41 629.015 601.82 631.475 601.83C693.195 601.88 754.915 601.87 816.635 601.88C817.325 601.86 818.035 601.97 819.545 602.1Z" fill="#343434"/>
<path d="M167.105 614.87C163.125 618.65 159.815 621.66 156.655 624.82C146.805 634.66 136.985 644.54 127.215 654.46C125.685 656.02 124.115 656.86 121.865 656.66C119.735 656.47 117.585 656.69 115.445 656.6C104.075 656.14 93.5251 658.96 83.7551 664.65C70.2451 672.53 61.4351 684.04 57.0351 699.11C54.6351 707.32 53.8951 715.6 53.9151 724.09C54.0051 756.45 53.9052 788.81 54.0252 821.17C54.0352 824.44 53.1152 825.37 49.8552 825.33C34.4252 825.17 18.9952 825.18 3.57515 825.33C0.745152 825.36 0.0251465 824.17 0.0151465 821.81C0.0151465 795.25 -0.0248514 768.68 0.0251486 742.12C0.0451486 729.8 -0.0548535 717.47 0.515146 705.17C0.765146 699.81 2.66515 694.55 3.64515 689.21C5.37515 679.81 9.08515 671.15 13.3351 662.68C19.3751 650.65 27.3152 639.94 37.3552 631.1C49.5252 620.39 63.1552 611.81 79.0452 607.55C85.2652 605.88 91.5551 604.03 97.9151 603.38C107.105 602.45 116.465 601.69 125.615 602.45C133.715 603.12 141.735 605.66 149.615 607.97C155.235 609.6 160.545 612.23 167.105 614.87Z" fill="#343334"/>
<path d="M505.955 524.69C509.445 524.66 512.025 527.19 512.085 530.68C512.145 534.04 509.445 536.86 506.125 536.91C502.595 536.97 499.925 534.29 499.865 530.63C499.805 527.16 502.305 524.72 505.955 524.69Z" fill="#6FC5C8"/>
<path d="M307.156 524.69C310.646 524.66 313.226 527.19 313.286 530.68C313.346 534.04 310.645 536.86 307.325 536.91C303.795 536.97 301.126 534.29 301.066 530.63C301.006 527.16 303.506 524.72 307.156 524.69Z" fill="#6FC5C8"/>
</svg>
