<svg width="16" height="16" viewBox="0 0 16 16" fill="none" xmlns="http://www.w3.org/2000/svg">
<path d="M14.1816 15.2521C13.9435 15.169 13.7721 14.998 13.599 14.8246C12.3673 13.5893 11.132 12.3576 9.90029 11.1224C9.82698 11.0487 9.78323 11.0317 9.68824 11.1019C7.20705 12.9333 3.79842 12.6504 1.67315 10.4139C0.431174 9.10655 -0.125369 7.52888 0.0236207 5.73017C0.253412 2.96059 2.24546 0.761554 4.99625 0.257205C7.95594 -0.285757 10.8179 1.41524 11.7839 4.18994C12.484 6.20064 12.1887 8.09391 10.9531 9.83194C10.8778 9.93754 10.8924 9.98443 10.9755 10.0672C12.2293 11.315 13.4784 12.568 14.7322 13.8159C14.8938 13.9767 15.0357 14.1433 15.096 14.3679V14.6627C15.0227 14.9991 14.8229 15.2025 14.4768 15.2525H14.182L14.1816 15.2521Z" fill="black"/>
<path d="M1.50103 6.2153C1.51285 3.70341 3.57388 1.65686 6.08305 1.66592C8.6076 1.67499 10.658 3.73966 10.6391 6.25392C10.6205 8.76896 8.57212 10.8037 6.0665 10.7966C3.54431 10.7895 1.4892 8.72719 1.50103 6.2153V6.2153Z" fill="#FEFEFE"/>
</svg>
