<svg width="23" height="23" viewBox="0 0 23 23" fill="none" xmlns="http://www.w3.org/2000/svg">
<rect width="23" height="23" rx="4" fill="#1E1E1E" fill-opacity="0.32"/>
<path d="M18.4918 18.9991C18.0326 18.7043 17.6339 18.3314 17.2031 18.0002C16.9684 17.82 16.7388 17.633 16.5105 17.4452C16.4484 17.3939 16.3863 17.3726 16.3051 17.3729C14.5117 17.3751 12.7183 17.3754 10.9246 17.3742C10.1132 17.3735 9.47827 16.8787 9.29231 16.1043C9.22735 15.8336 9.24072 15.5569 9.25856 15.2837C9.27225 15.0773 9.46936 14.9289 9.6757 14.9385C9.88141 14.9477 10.0492 15.1114 10.0607 15.3212C10.0674 15.4435 10.0626 15.5664 10.0632 15.689C10.0655 16.2192 10.4059 16.5615 10.9364 16.5615C12.7763 16.5625 14.6165 16.5631 16.4564 16.5599C16.6261 16.5599 16.7668 16.6074 16.898 16.7141C17.318 17.0551 17.7422 17.391 18.1648 17.7292C18.2065 17.705 18.1864 17.6671 18.1864 17.6378C18.1877 15.4002 18.188 13.1626 18.187 10.925C18.187 10.4279 17.8763 10.0996 17.3801 10.063C17.1295 10.0445 16.9604 9.87002 16.97 9.63916C16.9796 9.40957 17.1655 9.24685 17.4145 9.25131C18.196 9.26468 18.8612 9.85251 18.9771 10.6323C18.9796 10.6492 18.9806 10.6655 19 10.6718V18.6692C18.978 18.8673 18.8688 18.9781 18.6701 18.9991H18.4924H18.4918Z" fill="white"/>
<path d="M6.00069 11.6283C6.00069 10.3039 5.99878 8.97956 6.00132 7.6552C6.00292 6.8569 6.50763 6.22195 7.27791 6.04012C7.40592 6.00987 7.53616 6 7.66799 6C10.0753 6.00064 12.483 5.99936 14.8903 6.00096C15.8552 6.00159 16.5608 6.70946 16.5618 7.67622C16.5634 9.2671 16.5634 10.858 16.5618 12.4489C16.5608 13.4207 15.8536 14.1238 14.8779 14.1244C12.9571 14.1254 11.036 14.1251 9.11526 14.1232C9.03056 14.1232 8.96592 14.1432 8.89937 14.1993C8.19977 14.7868 7.49731 15.3708 6.79485 15.9548C6.7334 16.0061 6.67099 16.0583 6.6022 16.0981C6.36975 16.2318 6.0908 16.1127 6.01788 15.8538C5.9991 15.7873 6.00069 15.7198 6.00069 15.6523C6.00069 14.311 6.00069 12.9698 6.00069 11.6286V11.6283Z" fill="white"/>
<path d="M6.81299 14.8796V14.7261C6.81299 12.3949 6.81299 10.064 6.81299 7.73277C6.81299 7.14017 7.13874 6.8125 7.72784 6.8125C10.097 6.8125 12.4661 6.8125 14.8352 6.8125C15.4195 6.8125 15.7494 7.14017 15.7494 7.72067C15.7494 9.28193 15.7494 10.8429 15.7494 12.4041C15.7494 12.9843 15.4192 13.312 14.8349 13.312C12.8762 13.312 10.9172 13.3133 8.95858 13.3101C8.7793 13.3101 8.63282 13.3617 8.49653 13.4769C7.97303 13.9189 7.44507 14.3555 6.91871 14.794C6.89037 14.8175 6.86171 14.8401 6.81299 14.8796V14.8796Z" fill="#79818C"/>
<path d="M11.2815 9.25013C10.4774 9.25013 9.67372 9.25172 8.86968 9.24949C8.55921 9.24854 8.35828 8.97246 8.46623 8.69893C8.52737 8.54417 8.64646 8.45819 8.81236 8.44004C8.85408 8.43558 8.89675 8.43781 8.9391 8.43781C10.5004 8.43781 12.0616 8.43781 13.6229 8.43781C13.6818 8.43781 13.7426 8.43527 13.7996 8.44705C14.005 8.48908 14.1429 8.68014 14.1219 8.88489C14.1009 9.08964 13.9334 9.24695 13.7181 9.24854C13.2188 9.25236 12.7195 9.25013 12.2202 9.25013C11.9072 9.25013 11.5939 9.25013 11.2808 9.25013H11.2815Z" fill="white"/>
<path d="M10.4686 10.8748C9.93142 10.8748 9.39391 10.8777 8.85671 10.8736C8.55611 10.8713 8.36219 10.5924 8.466 10.3227C8.52746 10.1625 8.67425 10.0638 8.86404 10.0632C9.34646 10.0616 9.82856 10.0625 10.311 10.0625C10.8991 10.0625 11.4873 10.0603 12.0754 10.0635C12.3827 10.0651 12.5843 10.3504 12.4693 10.6204C12.3958 10.7933 12.2563 10.8752 12.0678 10.8752C11.5347 10.8748 11.0017 10.8752 10.4686 10.8752V10.8748Z" fill="white"/>
</svg>
