<svg width="41" height="31" viewBox="0 0 41 31" fill="none" xmlns="http://www.w3.org/2000/svg">
<path d="M41 27.9617C40.7713 28.5195 40.5997 29.0994 40.1793 29.5689C39.5433 30.2792 38.7637 30.6735 37.8197 30.7568C37.7133 30.7658 37.606 30.7648 37.4996 30.7648C26.1699 30.7648 14.8391 30.7658 3.50938 30.7648C1.71456 30.7648 0.320038 29.592 0.0411334 27.8614C0.00501627 27.6387 0.00200651 27.4099 0.00200651 27.1832C0 19.3207 0 11.4602 0 3.59969C0.00100325 1.46777 1.45372 0.0150594 3.58663 0.0150594C14.8371 0.0140561 26.0866 0.0281017 37.3371 1.0536e-05C39.1028 -0.00400248 40.6709 1.1387 40.9458 2.84624C40.9488 2.86531 40.9809 2.88035 41 2.89641V27.9607V27.9617Z" fill="#56C3C5"/>
<path d="M37.937 1.77881C37.1073 2.54028 36.3458 3.24155 35.5813 3.93882C31.0466 8.07423 26.5119 12.2076 21.9762 16.3421C21.8678 16.4404 21.7575 16.5377 21.6431 16.63C20.8927 17.2349 20.0931 17.255 19.3577 16.62C18.3494 15.7471 17.3712 14.8392 16.385 13.9413C12.1072 10.0396 7.8303 6.13594 3.55342 2.23328C3.40996 2.10286 3.27352 1.96541 3.07788 1.77881H37.937Z" fill="#FBFCFE"/>
<path d="M38.0012 29.0131H3.14114C3.08897 28.9027 3.16021 28.8676 3.20435 28.8255C7.5374 24.7473 11.8514 20.648 16.341 16.7393C16.5657 16.5437 16.6871 16.5376 16.9048 16.7403C17.4686 17.269 18.0094 17.8308 18.6615 18.2522C20.0359 19.1401 21.6231 18.9595 22.9484 17.7867C23.3577 17.4245 23.7721 17.0663 24.1613 16.6821C24.3399 16.5065 24.4352 16.5447 24.6038 16.6921C27.3657 19.108 30.0795 21.576 32.7572 24.0851C34.3935 25.6181 36.0228 27.1571 37.6551 28.6931C37.7394 28.7723 37.8257 28.8506 38.0012 29.0121V29.0131Z" fill="#FBFCFE"/>
<path d="M1.76883 27.6928V2.95056C2.05877 3.2104 2.27346 3.39902 2.48415 3.59264C6.68176 7.42508 10.8784 11.2585 15.077 15.0889C15.2345 15.2324 15.3699 15.3137 15.1191 15.5314C10.6246 19.434 6.30153 23.5223 1.97951 27.6146C1.93537 27.6567 1.89925 27.7259 1.76782 27.6948L1.76883 27.6928Z" fill="#FBFCFE"/>
<path d="M39.18 3.04993C39.3105 3.49036 39.3175 27.2063 39.1871 27.7089C39.0396 27.6929 38.9734 27.5645 38.8821 27.4782C34.6233 23.4571 30.3685 19.4311 25.9511 15.5826C25.7956 15.4471 25.608 15.3669 25.8839 15.1161C30.219 11.1773 34.542 7.22547 38.87 3.27867C38.9633 3.19339 39.0336 3.06899 39.179 3.05093L39.18 3.04993Z" fill="#FBFCFE"/>
</svg>
