<svg width="36" height="36" viewBox="0 0 36 36" fill="none" xmlns="http://www.w3.org/2000/svg">
<circle cx="18" cy="18" r="18" fill="#ECF0FE"/>
<path d="M18.75 22.534C18.4713 22.534 18.2513 22.446 18.09 22.27C17.9433 22.094 17.8553 21.8447 17.826 21.522L17.166 13.118C17.122 12.5753 17.2393 12.1427 17.518 11.82C17.7967 11.4827 18.2073 11.314 18.75 11.314C19.278 11.314 19.674 11.4827 19.938 11.82C20.2167 12.1427 20.334 12.5753 20.29 13.118L19.63 21.522C19.6153 21.8447 19.5273 22.094 19.366 22.27C19.2193 22.446 19.014 22.534 18.75 22.534ZM18.75 27.11C18.2513 27.11 17.848 26.956 17.54 26.648C17.2467 26.34 17.1 25.944 17.1 25.46C17.1 24.9907 17.2467 24.6093 17.54 24.316C17.848 24.008 18.2513 23.854 18.75 23.854C19.2633 23.854 19.6593 24.008 19.938 24.316C20.2313 24.6093 20.378 24.9907 20.378 25.46C20.378 25.944 20.2313 26.34 19.938 26.648C19.6593 26.956 19.2633 27.11 18.75 27.11Z" fill="#FABB05"/>
</svg>
