<svg width="36" height="36" viewBox="0 0 36 36" fill="none" xmlns="http://www.w3.org/2000/svg">
<circle cx="18" cy="18" r="18" fill="#ECF0FE"/>
<path d="M17.9952 25.87C16.5309 25.87 15.0665 25.8833 13.6027 25.8664C12.2033 25.8499 11.1607 25.199 10.4956 23.9419C10.2428 23.4637 10.1312 22.9407 10.1285 22.3985C10.1231 21.3789 10.1249 20.3598 10.1276 19.3403C10.1285 18.9799 10.3356 18.693 10.6435 18.6044C10.9456 18.5176 11.2634 18.635 11.4377 18.8995C11.5314 19.0416 11.5614 19.1991 11.561 19.3691C11.5588 20.3484 11.5592 21.3282 11.5601 22.3076C11.561 23.5226 12.4279 24.4083 13.6192 24.4088C16.5421 24.4097 19.4649 24.4097 22.3878 24.4088C23.5684 24.4088 24.4375 23.5203 24.4389 22.3162C24.4402 21.3141 24.4371 20.3114 24.4402 19.3092C24.4416 18.9338 24.6876 18.6487 25.0489 18.5866C25.3824 18.5295 25.7114 18.7309 25.8275 19.0644C25.8615 19.1621 25.8723 19.2631 25.8723 19.3663C25.8723 20.363 25.8795 21.3597 25.8705 22.356C25.8548 24.1356 24.6459 25.558 22.9216 25.8316C22.7294 25.8623 22.5317 25.8682 22.3367 25.8686C20.8894 25.8714 19.4416 25.87 17.9943 25.87H17.9952Z" fill="#A1AECF"/>
<path d="M17.4794 12.6283C17.3965 12.655 17.3643 12.7107 17.3227 12.7533C16.3708 13.7143 15.4185 14.6753 14.4694 15.6399C14.245 15.8677 13.9894 15.966 13.6805 15.8627C13.2126 15.7065 13.0461 15.1164 13.3563 14.7274C13.3912 14.6834 13.432 14.6445 13.4714 14.6046C14.8526 13.2071 16.2343 11.8099 17.6155 10.4128C17.9942 10.0297 18.3878 10.0288 18.7665 10.4119C20.1522 11.8127 21.5366 13.2152 22.9241 14.6146C23.1242 14.8166 23.2303 15.0471 23.1685 15.3311C23.0463 15.8904 22.3872 16.0946 21.9758 15.6979C21.6525 15.3863 21.3427 15.0611 21.0266 14.7414C20.3676 14.0748 19.7085 13.4077 19.0486 12.742C19.0106 12.7035 18.9814 12.6523 18.9206 12.6342C18.8834 12.6917 18.904 12.7542 18.904 12.8126C18.9027 15.7427 18.9031 18.6729 18.9027 21.603C18.9027 22.0319 18.7195 22.299 18.3649 22.3942C17.9414 22.5074 17.5129 22.1985 17.4829 21.7574C17.478 21.6845 17.4794 21.6107 17.4794 21.5373C17.4794 18.6353 17.4794 15.7337 17.4794 12.8316V12.6296V12.6283Z" fill="#A1AECF"/>
</svg>
