<svg width="41" height="31" viewBox="0 0 41 31" fill="none" xmlns="http://www.w3.org/2000/svg">
<path d="M0.0717256 3.59436C0.293237 1.71205 2.04928 0.110102 4.00222 0.00951204C4.13491 0.00309141 4.26868 0.000951204 4.40244 0.000951204C15.1324 0.000951204 25.8623 -0.00118901 36.5923 0.000951204C38.7068 0.000951204 40.3708 1.27973 40.8748 3.2744C40.9701 3.65108 41 4.03525 41 4.4237C40.9979 11.724 41 19.0242 40.9979 26.3245C40.9968 28.8927 39.152 30.7472 36.5933 30.7483C25.8634 30.7515 15.1335 30.7515 4.40351 30.7483C2.17876 30.7483 0.315709 29.1945 0.0727957 27.157C-0.0063921 27.0297 0.0974081 26.8702 0.00109863 26.7461V4.00528C0.0974081 3.88115 -0.0063921 3.72171 0.0727957 3.59436H0.0717256Z" fill="#A1AECF"/>
<path d="M0.071697 3.59436C0.0963094 3.73989 0.108081 3.88329 0 4.00528V3.60506C0.0246124 3.60934 0.0492248 3.60506 0.071697 3.59436Z" fill="#545454"/>
<path d="M0 26.7472C0.108081 26.8692 0.0963094 27.0126 0.071697 27.1581L0.0363836 27.1474H0V26.7472Z" fill="#545454"/>
<path d="M20.7568 29.0489C15.433 29.0489 10.1093 29.0489 4.78655 29.0489C3.4425 29.0489 2.46122 28.3619 2.11343 27.1912C2.02568 26.8937 2 26.5898 2 26.2827C2 19.0113 2 11.7399 2.00107 4.4675C2.00107 2.79278 3.08188 1.70556 4.74803 1.70449C15.448 1.70235 26.1491 1.70235 36.849 1.70449C38.4981 1.70449 39.5928 2.7885 39.5928 4.43004C39.5971 11.7282 39.5971 19.0263 39.5928 26.3244C39.5928 27.9617 38.4938 29.0467 36.8458 29.0478C31.4825 29.051 26.1191 29.0489 20.7547 29.0489H20.7568Z" fill="#FEFEFE"/>
<path d="M12.7942 18.7994C11.7006 18.7994 10.6069 18.7941 9.51328 18.8005C7.90919 18.8101 6.84016 19.8824 6.82732 21.4908C6.82304 21.998 6.83374 22.5041 6.82411 23.0114C6.81234 23.5496 6.44743 23.9285 5.96695 23.921C5.48326 23.9135 5.12157 23.5325 5.12906 22.99C5.1419 22.1253 5.03489 21.2532 5.23607 20.3992C5.69943 18.4356 7.36879 17.1055 9.448 17.0841C11.6888 17.0605 13.9296 17.0573 16.1704 17.0841C18.6712 17.114 20.4851 18.9696 20.499 21.4651C20.5022 21.9584 20.5033 22.4517 20.499 22.9461C20.4936 23.524 20.1598 23.9092 19.6622 23.922C19.1571 23.9338 18.805 23.5379 18.7996 22.9386C18.7943 22.4314 18.8071 21.9252 18.7964 21.418C18.7643 19.8824 17.6932 18.8187 16.1565 18.8037C15.0361 18.793 13.9157 18.8016 12.7953 18.8016L12.7942 18.7994Z" fill="#A1AECF"/>
<path d="M17.0736 11.1054C17.0736 13.4661 15.1581 15.3794 12.8017 15.3752C10.4475 15.3698 8.53733 13.4426 8.55017 11.0851C8.56302 8.74265 10.4625 6.84108 12.8017 6.83038C15.1463 6.8186 17.0746 8.748 17.0736 11.1054Z" fill="#A1AECF"/>
<path d="M29.9073 22.2024C31.521 22.2024 33.1358 22.2013 34.7495 22.2046C34.9207 22.2046 35.0984 22.2153 35.2632 22.2581C35.6313 22.3554 35.8678 22.6797 35.871 23.0542C35.8742 23.4266 35.6409 23.7605 35.2792 23.8643C35.1283 23.9071 34.9646 23.921 34.8062 23.9221C31.5253 23.9253 28.2433 23.9253 24.9623 23.9231C24.3631 23.9231 23.995 23.6545 23.9361 23.1912C23.8623 22.6123 24.2486 22.2088 24.9067 22.2046C26.1737 22.1971 27.4407 22.2024 28.7088 22.2024C29.109 22.2024 29.5092 22.2024 29.9094 22.2024H29.9073Z" fill="#A1AECF"/>
<path d="M29.9073 8.54995C31.5873 8.54995 33.2685 8.54353 34.9485 8.55316C35.6762 8.55744 36.0968 9.21876 35.7618 9.80839C35.5606 10.1626 35.2343 10.2546 34.8458 10.2546C31.9651 10.2482 29.0844 10.2514 26.2036 10.2514C25.7499 10.2514 25.2962 10.2568 24.8435 10.2503C24.2956 10.2418 23.9318 9.90042 23.9275 9.40603C23.9232 8.89987 24.27 8.55637 24.8275 8.55316C26.5215 8.54567 28.2154 8.54995 29.9083 8.54995H29.9073Z" fill="#A1AECF"/>
<path d="M29.8838 17.0777C28.2166 17.0777 26.5493 17.0809 24.8821 17.0756C24.2689 17.0734 23.9115 16.7353 23.9276 16.197C23.9415 15.7197 24.2989 15.3827 24.8254 15.3784C25.7853 15.3709 26.7462 15.3762 27.7061 15.3762C30.1064 15.3762 32.5077 15.3741 34.9079 15.3773C35.5425 15.3773 35.9652 15.8321 35.8603 16.38C35.7747 16.8252 35.4344 17.0745 34.8844 17.0756C33.2172 17.0788 31.5499 17.0766 29.8827 17.0766L29.8838 17.0777Z" fill="#A1AECF"/>
<path d="M12.7963 8.55216C14.2207 8.54467 15.371 9.68326 15.3732 11.1001C15.3753 12.5094 14.211 13.6758 12.807 13.6726C11.417 13.6694 10.2613 12.519 10.2506 11.1311C10.2399 9.70894 11.3752 8.55965 12.7963 8.55323V8.55216Z" fill="#FEFEFE"/>
</svg>
