<svg width="36" height="36" viewBox="0 0 36 36" fill="none" xmlns="http://www.w3.org/2000/svg">
<circle cx="18" cy="18" r="18" fill="#56C3C5"/>
<path d="M10.125 18.8816C10.1503 18.2976 10.4617 17.7627 11.0963 17.4717C11.7388 17.1768 12.3471 17.2913 12.8705 17.7709C13.6776 18.5098 14.4726 19.2626 15.2727 20.0091C15.4199 20.1462 15.5658 20.2848 15.7135 20.4209C15.9415 20.6316 16.1464 20.6205 16.3504 20.3839C18.0749 18.3856 19.7989 16.3865 21.5234 14.3877C22.6936 13.0312 23.8642 11.6752 25.0353 10.3196C25.1947 10.1354 25.3739 10.0834 25.568 10.1575C25.7463 10.2258 25.8673 10.4019 25.8748 10.5991C25.879 10.7141 25.8265 10.8045 25.7702 10.8969C23.7132 14.2935 21.6566 17.691 19.6001 21.0881C18.8028 22.4052 18.0041 23.7218 17.2077 25.0394C16.9451 25.4737 16.5849 25.7667 16.0854 25.8504C15.5058 25.9476 15.0227 25.7561 14.6522 25.2929C13.5548 23.9209 12.4625 22.5447 11.3683 21.1699C11.0799 20.8077 10.791 20.4459 10.5035 20.0832C10.2554 19.771 10.125 19.4136 10.125 18.8816Z" fill="white"/>
</svg>
